<svg viewBox="0 0 330 200" xmlns="http://www.w3.org/2000/svg"><g><g><g><g><g><line x1="30.766000747680664" y1="177.89999961853027" x2="25.766000747680664" y2="177.89999961853027" style="visibility: inherit;" fill="rgb(0, 0, 0)" stroke="rgb(204, 204, 204)" stroke-width="1px"></line><line x1="30.766000747680664" y1="163.0749996503194" x2="25.766000747680664" y2="163.0749996503194" style="visibility: inherit;" fill="rgb(0, 0, 0)" stroke="rgb(204, 204, 204)" stroke-width="1px"></line><line x1="30.766000747680664" y1="148.24999968210858" x2="25.766000747680664" y2="148.24999968210858" style="visibility: inherit;" fill="rgb(0, 0, 0)" stroke="rgb(204, 204, 204)" stroke-width="1px"></line><line x1="30.766000747680664" y1="133.4249997138977" x2="25.766000747680664" y2="133.4249997138977" style="visibility: inherit;" fill="rgb(0, 0, 0)" stroke="rgb(204, 204, 204)" stroke-width="1px"></line><line x1="30.766000747680664" y1="118.59999974568686" x2="25.766000747680664" y2="118.59999974568686" style="visibility: inherit;" fill="rgb(0, 0, 0)" stroke="rgb(204, 204, 204)" stroke-width="1px"></line><line x1="30.766000747680664" y1="103.77499977747598" x2="25.766000747680664" y2="103.77499977747598" style="visibility: inherit;" fill="rgb(0, 0, 0)" stroke="rgb(204, 204, 204)" stroke-width="1px"></line><line x1="30.766000747680664" y1="88.94999980926514" x2="25.766000747680664" y2="88.94999980926514" style="visibility: inherit;" fill="rgb(0, 0, 0)" stroke="rgb(204, 204, 204)" stroke-width="1px"></line><line x1="30.766000747680664" y1="74.12499984105428" x2="25.766000747680664" y2="74.12499984105428" style="visibility: inherit;" fill="rgb(0, 0, 0)" stroke="rgb(204, 204, 204)" stroke-width="1px"></line><line x1="30.766000747680664" y1="59.29999987284343" x2="25.766000747680664" y2="59.29999987284343" style="visibility: inherit;" fill="rgb(0, 0, 0)" stroke="rgb(204, 204, 204)" stroke-width="1px"></line><line x1="30.766000747680664" y1="44.47499990463257" x2="25.766000747680664" y2="44.47499990463257" style="visibility: inherit;" fill="rgb(0, 0, 0)" stroke="rgb(204, 204, 204)" stroke-width="1px"></line><line x1="30.766000747680664" y1="29.649999936421704" x2="25.766000747680664" y2="29.649999936421704" style="visibility: inherit;" fill="rgb(0, 0, 0)" stroke="rgb(204, 204, 204)" stroke-width="1px"></line><line x1="30.766000747680664" y1="14.824999968210863" x2="25.766000747680664" y2="14.824999968210863" style="visibility: inherit;" fill="rgb(0, 0, 0)" stroke="rgb(204, 204, 204)" stroke-width="1px"></line><line x1="30.766000747680664" y1="0" x2="25.766000747680664" y2="0" style="visibility: inherit;" fill="rgb(0, 0, 0)" stroke="rgb(204, 204, 204)" stroke-width="1px"></line></g><g transform="translate(20.766000747680664, 0)"><text style="text-anchor: end; visibility: hidden; font-family: Roboto, sans-serif; font-size: 12px; font-weight: 200;" x="0" y="177.89999961853027" dx="0em" dy="0.3em" fill="rgb(50, 49, 63)" stroke="none" stroke-width="1px">-7</text><text style="text-anchor: end; visibility: inherit; font-family: Roboto, sans-serif; font-size: 12px; font-weight: 200;" x="0" y="163.0749996503194" dx="0em" dy="0.3em" fill="rgb(50, 49, 63)" stroke="none" stroke-width="1px">-6</text><text style="text-anchor: end; visibility: hidden; font-family: Roboto, sans-serif; font-size: 12px; font-weight: 200;" x="0" y="148.24999968210858" dx="0em" dy="0.3em" fill="rgb(50, 49, 63)" stroke="none" stroke-width="1px">-5</text><text style="text-anchor: end; visibility: inherit; font-family: Roboto, sans-serif; font-size: 12px; font-weight: 200;" x="0" y="133.4249997138977" dx="0em" dy="0.3em" fill="rgb(50, 49, 63)" stroke="none" stroke-width="1px">-4</text><text style="text-anchor: end; visibility: hidden; font-family: Roboto, sans-serif; font-size: 12px; font-weight: 200;" x="0" y="118.59999974568686" dx="0em" dy="0.3em" fill="rgb(50, 49, 63)" stroke="none" stroke-width="1px">-3</text><text style="text-anchor: end; visibility: inherit; font-family: Roboto, sans-serif; font-size: 12px; font-weight: 200;" x="0" y="103.77499977747598" dx="0em" dy="0.3em" fill="rgb(50, 49, 63)" stroke="none" stroke-width="1px">-2</text><text style="text-anchor: end; visibility: hidden; font-family: Roboto, sans-serif; font-size: 12px; font-weight: 200;" x="0" y="88.94999980926514" dx="0em" dy="0.3em" fill="rgb(50, 49, 63)" stroke="none" stroke-width="1px">-1</text><text style="text-anchor: end; visibility: inherit; font-family: Roboto, sans-serif; font-size: 12px; font-weight: 200;" x="0" y="74.12499984105428" dx="0em" dy="0.3em" fill="rgb(50, 49, 63)" stroke="none" stroke-width="1px">0</text><text style="text-anchor: end; visibility: hidden; font-family: Roboto, sans-serif; font-size: 12px; font-weight: 200;" x="0" y="59.29999987284343" dx="0em" dy="0.3em" fill="rgb(50, 49, 63)" stroke="none" stroke-width="1px">1</text><text style="text-anchor: end; visibility: inherit; font-family: Roboto, sans-serif; font-size: 12px; font-weight: 200;" x="0" y="44.47499990463257" dx="0em" dy="0.3em" fill="rgb(50, 49, 63)" stroke="none" stroke-width="1px">2</text><text style="text-anchor: end; visibility: hidden; font-family: Roboto, sans-serif; font-size: 12px; font-weight: 200;" x="0" y="29.649999936421704" dx="0em" dy="0.3em" fill="rgb(50, 49, 63)" stroke="none" stroke-width="1px">3</text><text style="text-anchor: end; visibility: inherit; font-family: Roboto, sans-serif; font-size: 12px; font-weight: 200;" x="0" y="14.824999968210863" dx="0em" dy="0.3em" fill="rgb(50, 49, 63)" stroke="none" stroke-width="1px">4</text><text style="text-anchor: end; visibility: hidden; font-family: Roboto, sans-serif; font-size: 12px; font-weight: 200;" x="0" y="0" dx="0em" dy="0.3em" fill="rgb(50, 49, 63)" stroke="none" stroke-width="1px">5</text></g><line x1="30.766000747680664" y1="0" x2="30.766000747680664" y2="177.89999961853027" fill="rgb(0, 0, 0)" stroke="rgb(204, 204, 204)" stroke-width="1px"></line></g></g><g transform="translate(30, 0)" clip-path="url(#clip_0)"><clipPath id="clip_0"><rect width="299" height="177"></rect></clipPath><g><g><g><line x1="0" y1="0" x2="0" y2="177.89999961853027" fill="rgb(0, 0, 0)" stroke="rgb(60, 60, 60)" stroke-width="1px" opacity="0.25"></line><line x1="24.936166604359943" y1="0" x2="24.936166604359943" y2="177.89999961853027" fill="rgb(0, 0, 0)" stroke="rgb(60, 60, 60)" stroke-width="1px" opacity="0.25"></line><line x1="49.87233320871989" y1="0" x2="49.87233320871989" y2="177.89999961853027" fill="rgb(0, 0, 0)" stroke="rgb(60, 60, 60)" stroke-width="1px" opacity="0.25"></line><line x1="74.80849981307983" y1="0" x2="74.80849981307983" y2="177.89999961853027" fill="rgb(0, 0, 0)" stroke="rgb(60, 60, 60)" stroke-width="1px" opacity="0.25"></line><line x1="99.74466641743977" y1="0" x2="99.74466641743977" y2="177.89999961853027" fill="rgb(0, 0, 0)" stroke="rgb(60, 60, 60)" stroke-width="1px" opacity="0.25"></line><line x1="124.68083302179973" y1="0" x2="124.68083302179973" y2="177.89999961853027" fill="rgb(0, 0, 0)" stroke="rgb(60, 60, 60)" stroke-width="1px" opacity="0.25"></line><line x1="149.61699962615967" y1="0" x2="149.61699962615967" y2="177.89999961853027" fill="rgb(0, 0, 0)" stroke="rgb(60, 60, 60)" stroke-width="1px" opacity="0.25"></line><line x1="174.55316623051962" y1="0" x2="174.55316623051962" y2="177.89999961853027" fill="rgb(0, 0, 0)" stroke="rgb(60, 60, 60)" stroke-width="1px" opacity="0.25"></line><line x1="199.48933283487955" y1="0" x2="199.48933283487955" y2="177.89999961853027" fill="rgb(0, 0, 0)" stroke="rgb(60, 60, 60)" stroke-width="1px" opacity="0.25"></line><line x1="224.4254994392395" y1="0" x2="224.4254994392395" y2="177.89999961853027" fill="rgb(0, 0, 0)" stroke="rgb(60, 60, 60)" stroke-width="1px" opacity="0.25"></line><line x1="249.36166604359946" y1="0" x2="249.36166604359946" y2="177.89999961853027" fill="rgb(0, 0, 0)" stroke="rgb(60, 60, 60)" stroke-width="1px" opacity="0.25"></line><line x1="274.29783264795935" y1="0" x2="274.29783264795935" y2="177.89999961853027" fill="rgb(0, 0, 0)" stroke="rgb(60, 60, 60)" stroke-width="1px" opacity="0.25"></line><line x1="299.23399925231934" y1="0" x2="299.23399925231934" y2="177.89999961853027" fill="rgb(0, 0, 0)" stroke="rgb(60, 60, 60)" stroke-width="1px" opacity="0.25"></line></g><g><line x1="0" y1="177.89999961853027" x2="299.23399925231934" y2="177.89999961853027" fill="rgb(0, 0, 0)" stroke="rgb(60, 60, 60)" stroke-width="1px" opacity="0.25"></line><line x1="0" y1="163.0749996503194" x2="299.23399925231934" y2="163.0749996503194" fill="rgb(0, 0, 0)" stroke="rgb(60, 60, 60)" stroke-width="1px" opacity="0.25"></line><line x1="0" y1="148.24999968210858" x2="299.23399925231934" y2="148.24999968210858" fill="rgb(0, 0, 0)" stroke="rgb(60, 60, 60)" stroke-width="1px" opacity="0.25"></line><line x1="0" y1="133.4249997138977" x2="299.23399925231934" y2="133.4249997138977" fill="rgb(0, 0, 0)" stroke="rgb(60, 60, 60)" stroke-width="1px" opacity="0.25"></line><line x1="0" y1="118.59999974568686" x2="299.23399925231934" y2="118.59999974568686" fill="rgb(0, 0, 0)" stroke="rgb(60, 60, 60)" stroke-width="1px" opacity="0.25"></line><line x1="0" y1="103.77499977747598" x2="299.23399925231934" y2="103.77499977747598" fill="rgb(0, 0, 0)" stroke="rgb(60, 60, 60)" stroke-width="1px" opacity="0.25"></line><line x1="0" y1="88.94999980926514" x2="299.23399925231934" y2="88.94999980926514" fill="rgb(0, 0, 0)" stroke="rgb(60, 60, 60)" stroke-width="1px" opacity="0.25"></line><line x1="0" y1="74.12499984105428" x2="299.23399925231934" y2="74.12499984105428" fill="rgb(0, 0, 0)" stroke="rgb(60, 60, 60)" stroke-width="1px" opacity="0.25"></line><line x1="0" y1="59.29999987284343" x2="299.23399925231934" y2="59.29999987284343" fill="rgb(0, 0, 0)" stroke="rgb(60, 60, 60)" stroke-width="1px" opacity="0.25"></line><line x1="0" y1="44.47499990463257" x2="299.23399925231934" y2="44.47499990463257" fill="rgb(0, 0, 0)" stroke="rgb(60, 60, 60)" stroke-width="1px" opacity="0.25"></line><line x1="0" y1="29.649999936421704" x2="299.23399925231934" y2="29.649999936421704" fill="rgb(0, 0, 0)" stroke="rgb(60, 60, 60)" stroke-width="1px" opacity="0.25"></line><line x1="0" y1="14.824999968210863" x2="299.23399925231934" y2="14.824999968210863" fill="rgb(0, 0, 0)" stroke="rgb(60, 60, 60)" stroke-width="1px" opacity="0.25"></line><line x1="0" y1="0" x2="299.23399925231934" y2="0" fill="rgb(0, 0, 0)" stroke="rgb(60, 60, 60)" stroke-width="1px" opacity="0.25"></line></g></g></g><g><g><line x1="0" y1="74.12499984105428" x2="299.23399925231934" y2="74.12499984105428" fill="rgb(0, 0, 0)" stroke="rgb(153, 153, 153)" stroke-width="1.5px"></line></g></g><g><g><line x1="-49.87233320871989" y1="0" x2="-49.87233320871989" y2="177.89999961853027" fill="rgb(0, 0, 0)" stroke="rgb(153, 153, 153)" stroke-width="1.5px"></line></g></g><g><g><g><g><g><path style="fill: none;" stroke="rgb(204, 51, 17)" stroke-width="2px" d="M171.323932655255,137.6118926912174L172.84753243478139,142.71979803089008L174.3586641310056,141.08289536955496L175.8697958272298,140.7021743834437L177.38092752345403,140.59542083716588L178.89205921967823,141.54948088878123L180.40319091590246,141.1586599021635L181.91432261212665,140.60586367479775L183.42545430835088,140.65050496909393L184.93658600457508,140.4128532705289L186.4477177007993,139.67098360182018L187.95884939702353,138.87159885778098L189.46998109324772,138.0638574751909L190.98111278947195,139.26414294398057L192.49224448569615,138.8722531511896L194.00337618192037,139.42378743460634L195.52697596144677,141.11883557588834L197.038107657671,141.5978619669094L198.5492393538952,142.2632522276095L200.06286466677983,142.0417387017659L201.57399636300403,142.09479422388983L203.08512805922825,142.8090227002262L204.59625975545248,143.030806093006L206.11985953497887,144.47285998430954L207.6309912312031,144.0226555752771L209.1446165440877,145.2252299874167L210.66821632361413,145.70233735649185L212.17934801983833,145.25180738202687L213.69047971606255,145.02519083382424L215.20161141228675,145.0874925957967L216.71274310851098,144.96108232392422L218.23634288803734,145.01380634235457L219.74747458426157,144.96628932652405L221.27107436378796,144.748858539282L222.7822060600122,144.77635511423213L224.29333775623638,145.0441599523942L225.8044694524606,145.58149639279722L227.328069231987,145.6130580673817L228.83920092821123,146.0557656476162L230.35033262443542,146.16235782182574L231.86146432065965,145.94579101379043L233.385064100186,146.49641968023738L234.90866387971244,145.95841033636606L236.41979557593663,146.97938049577405L237.93092727216086,148.72190058109612L239.44205896838506,149.6767753204267L240.95319066460928,150.75410384467932L242.47679044413564,151.67518115824535L243.98792214035987,151.5816457783776L245.49905383658407,151.51176240544476L247.0226536161105,151.77751401783743L248.5337853123347,151.45818824526964L250.0449170085589,151.84113618030935L251.55604870478314,152.05044127922906L253.06718040100733,151.60970938503706L254.57831209723156,152.38379615190468L256.08944379345576,152.87934664449926L257.60057548967995,153.6689811305897L259.1117071859042,153.9624090108173L260.6228388821284,153.61219305693868L262.13646419501305,153.43129849946428L263.6600639745394,152.68592818918913L265.17119567076367,152.33012091695917L266.68232736698786,153.6573209880693L268.19345906321206,153.48429061853784L269.7045907594363,155.07903835310717L271.2157224556605,155.17125273457148L272.72934776854515,156.46411404798363L274.24047946476935,157.04208801190052L275.7516111609936,157.34978586251006L277.27521094051997,157.6874706164013" fill="none"></path></g><g><path style="fill: none;" stroke="rgb(255, 112, 67)" stroke-width="2px" d="M7.9695988467534375,21.92041498490614L8.692747678279877,21.30339206210404L9.121649743874869,20.473413076461213L9.385973109881084,21.871188828630594L10.011870891650517,22.949424636690487L10.530543157021205,23.211674168585702L11.326006871700287,22.930169256137663L12.04666208656629,23.128424685750282L12.310985452572504,24.50682621557393L13.041615134080251,24.66682308227893L13.305938500086468,24.01752708796192L13.570261866092682,24.489223640190186L13.951785215139388,24.76259122941757L14.343283030827841,24.291428582519533L14.607606396834056,24.875138571914782L15.807036010503769,25.973751671885317L16.545146541992825,25.053386935285435L16.80946990799904,25.239118980604893L18.07373355484009,24.83066052568572L18.637290920098625,25.831576312022353L19.253214235226316,25.627096773574408L19.664660984198253,25.83614562515755L20.280584299325945,25.421829574397474L20.544907665332158,25.601755188830865L20.809231031338374,24.383533975949742L21.07355439734459,27.19600273920966L21.504950079600015,26.050290088167976L21.88896704530716,26.271955703738083L22.492422277132672,25.993104194321244L23.031043475786845,27.508981539070543L23.29536684179306,26.66120147231752L23.559690207799278,28.69744754638208L24.00106035669645,29.024126849031404L24.395051789045333,28.062020335736232L24.65937515505155,27.046068625518316L25.103238920609158,27.187295157840794L25.57453246943156,28.36886725427238L26.030864318291346,29.295623951930754L26.29518768429756,28.21322914091968L26.828821649630868,27.118115919927828L27.09314501563708,27.911647916608956L27.357468381643297,30.4536638650394L28.103059763113656,31.669372207940754L28.721476694901785,30.948918335337066L29.16035322713852,32.62503377343727L29.42467659314473,32.954273956631035L29.688999959150948,29.70532962183779L29.953323325157164,28.875834596879983L30.230114774465562,29.401770282563508L30.49443814047178,29.38233642729348L30.758761506477992,29.159938850426116L31.287408238490425,29.603548995773934L31.87839538701375,28.939623684828078L32.14271875301997,33.26893997307594L32.52424210206668,35.324483050044016L32.90576545111338,33.44021790330457L33.1700888171196,34.14186631226763L33.56657386612892,32.93928983988629L34.813382196346915,31.9314025521567L35.204880012035375,32.46404911527829L35.481671461343765,35.16888088587003L35.74599482734998,34.79126116322331L36.13001179305712,32.814125821540536L36.39433515906334,34.877998403850235L36.92796912439664,35.49705653174291L37.192292490402856,35.295127137590335L37.45661585640907,36.54019959021785L38.39421572073301,35.62242928219541L38.658539086739225,35.31823023352645L38.92535606940587,36.51094411302929L39.31436026843389,37.49163864900203L39.578683634440104,35.69654771149299L39.97267506678899,34.70655207681369L40.38162819910049,33.51312095810617L40.76065793148677,34.16474154372602L41.546147179524105,35.39877040040077L42.01993434500694,36.43479672303763L42.28425771101316,36.29582850002024L42.54858107701937,37.10861005990127L42.812904443025595,36.051773000053466L43.26923629188538,37.18785812397355L43.65075964093209,37.421560850763974L43.915083006938296,37.31034128282949L44.17940637294451,38.125215322687225L44.44372973895073,36.688441844713815L44.708053104956946,37.08643262964804L44.972376470963155,37.5516804115663L45.48855511967341,39.13696324463405L46.530886883735654,39.7735462008408L46.79521024974188,40.87501835385084L47.46848674805959,39.711909869286984L47.93479306356112,38.53540376547588L48.19911642956733,37.754371006842284L48.578146161953605,38.41403941086156L49.65788217592239,37.64068162275325L50.104239558140435,38.43922570067143L50.70270755664507,37.47077214440376L50.96703092265129,37.84923142786284L51.231354288657506,38.86000842085654L52.35846901917457,39.67320652214661L52.759941301504774,40.315892254517976L53.236222083648045,39.62540263871881L53.79977944890658,38.75403429956361L54.06410281491279,38.36877112420187L54.443132547299065,37.06296981442122L54.82216227968534,37.21714861678647L55.08648564569155,37.27288945264773L55.49793239466349,37.70598048107472L55.7622557606697,38.53180225142014L56.02657912667593,38.35807955483141L56.49787267549833,39.16776886468223L56.762196041504545,39.368404621938645L57.146213007211685,38.95748018734844L57.423004456520076,37.9618429533562L57.6873278225263,39.662514032391535L57.95165118853251,40.6060796862832L58.57256173698108,40.501617774094555L58.83688510298729,40.47293880852838L59.345582901716234,40.42872459807745L59.609906267722444,39.7229506585295L59.87422963372866,40.51036136229935L60.15102108303706,38.98587728022967L60.54251889872551,40.29357390164659L61.00633159756661,41.674991661692076L61.38785494661331,42.59356771416012L61.65217831261953,42.936946522317825L61.91650167862574,42.95726260975761L62.310493110974626,43.68945322031235L62.75685049319267,45.86003383592739L63.03364194250107,45.71453145533212L63.29796530850728,44.58240837346509L63.96625457350413,44.412715621808665L64.23057793951035,44.28996267828389L64.66945447174709,45.26093745821929L64.9337778377533,46.48209773088578L65.48985435303052,46.324189135748554L65.8688840854168,49.68336276565355L66.32272231761614,48.55786659008127L66.58704568362236,48.09172266761083L66.85136904962857,47.57088066641415L67.36754769833883,46.42355447453964L67.75156466404597,47.817475639944334L68.02835611335436,48.4658550262586L68.84875599463781,48.50976301080748L69.11307936064402,48.010765414510225L69.53948780957857,48.39280652201869L70.16039835802714,48.918270759844084L70.54441532373428,49.12541099305405L70.94838122272492,48.976985802052305L71.33987903841337,50.04467121093182L72.13783636975289,49.8826584374041L72.53681503542265,50.27790907043782L73.51431276631355,50.17238712919643L73.77863613231976,49.863232910062386L74.45939348061879,50.07365370804954L74.72371684662501,49.02466792098648L74.98804021263122,50.19995541426212L75.25236357863744,52.38434077050094L75.64635501098634,52.42160244223019L76.0253847433726,53.22910084606718L76.28970810937882,52.44952057184124L76.55403147538503,52.78833957619613L76.81835484139124,52.326071364147346L77.08267820739746,52.824916481596546L77.55397175621987,52.24532736163841L77.81829512222608,51.695612927085804L78.23722272117934,51.27786078627049L78.64866947015126,50.86715564217539L78.91299283615747,50.94256231033447L79.1773162021637,51.53765023648065L79.4541076514721,51.424358994506335L79.71843101747831,51.23176148023318L80.20219264960289,51.90583043021745L80.46651601560912,53.77561153042807L80.73083938161531,53.59405490991737L80.99516274762154,52.363671536252845L81.27195419692994,55.18344694764009L81.79561369562148,54.08911935116839L82.26690724444389,54.12192510503954L82.54369869375229,53.84801848679041L82.93020927611987,53.263750244442576L83.20700072542827,54.77871280858919L83.5910176911354,54.967903583045185L83.85534105714162,55.979792466196805L84.2418516395092,56.15447576716511L84.51864308881758,55.07654927600661L85.37395360334715,55.20735316071872L85.63827696935336,54.81644935840484L85.91506841866176,55.86120689612698L86.17939178466796,56.28707670039161L86.55842151705424,56.46665512503296L86.82274488306047,56.776223174000556L87.20426823210715,58.86633899274105L87.58828519781432,58.22821145189568L87.85260856382051,57.454951056431796L88.11693192982673,57.55390882346438L88.49845527887345,57.20598393736184L89.37122111002606,57.3980412289906L89.63554447603225,56.288082052432024L90.11182525817553,56.6930513922611L90.37614862418174,57.62781689135977L90.64047199018796,58.87974787310158L91.03695703919729,59.19271984976496L91.3012804052035,59.93395326791651L91.56560377120971,59.71382541664289L92.21394410292307,60.369253663892565L92.47826746892929,60.684215968054495L93.00192696762086,61.30777895786372L93.26625033362706,60.055479054249936L93.65276091599465,59.749055811929395L93.91708428200087,61.001120664288905L94.18140764800707,61.54615043095844L94.44573101401329,61.649455674280965L94.97687136268617,61.12043358324718L95.3957989616394,61.49014497286352L95.66012232764561,60.90136075287813L95.92444569365183,61.66032008786765L96.20123714296024,62.05063371328334L96.65258175849915,62.124653862786516L96.91690512450536,62.13136673775318L97.36824974004428,62.18548123387554L97.74977308909098,63.80778554031773L98.1312964381377,65.00557404390936L98.3956198041439,65.12763133247903L98.65994317015011,63.01458800666598L98.92426653615634,61.96827153945933L99.52522815132141,63.52315799956497L99.78955151732764,63.966787583019325L100.05387488333383,63.831740273727725L100.31819824934006,63.13349438807437L100.58252161534628,63.362978722653L100.96404496439297,63.805285086172816L101.22836833039919,63.72840906584148L101.49269169640542,63.42770533169197L101.75701506241163,64.33343924970467L102.02133842841783,64.28847862392404L102.28815541108449,63.266451023377385L102.55247877709071,62.81908075209006L102.81680214309692,64.3778289913836L103.09359359240533,63.8465781636483L103.68956797424951,63.47360475910337L103.95389134025574,63.6202103141902L104.21821470626195,64.09339388617478L104.48503168892861,65.62776364346445L104.74935505493482,65.72879808711915L105.02614650424321,65.7411572265924L105.29046987024942,66.44724015217288L105.55479323625565,66.29911265202001L105.83158468556405,66.39745801837289L106.09590805157025,65.52118511266482L106.48241863393784,65.95568868089968L106.74674199994405,67.37070823084773L107.01106536595027,67.05663756126006L107.27538873195648,67.27490514198419L107.53971209796269,68.21834086870636L107.93120991365116,68.16377873032344L108.34016304596264,68.25970704088034L108.72168639500936,71.03836617667761L108.98600976101558,70.18930413831619L109.25033312702179,70.48293973433015L109.514656493028,70.17129615513433L109.90116707539559,69.86816363262699L110.16549044140179,69.00901770342912L110.42981380740801,70.08179517497493L110.89113288958868,70.02849044915558L111.15545625559488,69.76891458530862L111.53448598798117,68.74115465599034L111.79880935398737,69.67812817700938L112.06313271999359,69.86997350104131L112.32745608599981,70.84478645901338L112.6042475353082,74.32745520104714L112.86857090131441,73.73637467739934L113.25757510034244,73.22990514592477L113.52189846634866,73.1592787690085L113.78622183235485,73.92834907951558L114.05054519836108,73.60260322488205L114.56672384707133,73.48752458805151L114.99063867934544,73.03590921023095L115.25496204535166,73.48367432126588L115.51928541135788,73.88739152457308L115.7836087773641,76.00961372739103L116.0604002266725,75.92772696757389L116.32472359267871,75.29163856312603L116.59154057534536,75.05382165789442L116.85586394135157,75.03736942103762L117.1201873073578,75.47349102205874L117.384510673364,76.5028039439072L117.64883403937021,77.43337251539164L117.92562548867862,76.70846136674687L118.18994885468483,75.99348422197514L118.45427222069104,76.27969733220046L118.71859558669726,75.12632065571043L118.98291895270347,75.67863875402354L119.42179548494022,75.42306746557384L119.68611885094643,75.86637938619903L119.95044221695264,76.83610536059818L120.21476558295886,77.55249228052236L120.49155703226725,76.56376472006885L120.76834848157566,76.66348449103336L121.03267184758185,76.4695190149553L121.29699521358808,76.98939098709228L121.5613185795943,77.14904490400617L121.82564194560051,77.30025033523464L122.08996531160672,77.08676085888169L122.35428867761294,78.60372959184778L122.61861204361915,79.23462528359893L122.99764177600544,78.24338126496471L123.26196514201163,78.25155578406898L123.52878212467829,79.26085549461048L123.79310549068451,79.00467359485414L124.05742885669073,77.6030407960568L124.32175222269693,77.80452142217098L124.58607558870315,80.93675293824289L124.86286703801156,84.27840917975996L125.12719040401777,82.66144942864923L125.39151377002398,82.7947333293088L125.6558371360302,81.07612605377018L125.92016050203641,80.66983397521498L126.19695195134481,83.81987522766717L126.4737434006532,82.01065317848223L126.73806676665941,83.46574973067047L127.00239013266564,81.40351454634359L127.26671349867185,80.21093911042135L127.53103686467807,79.34846450047588L127.79536023068428,81.61102227464085L128.0721516799927,81.72274809307251L128.3364750459989,82.37874655503276L128.6007984120051,82.62530671259852L128.86512177801131,83.32192669129736L129.12944514401752,83.10908374370828L129.51096849306424,83.32627141084714L129.7777854757309,83.15938940093363L130.3039385910829,83.94987166937794L130.57075557374955,84.74212999016709L130.83507893975576,84.8947472007351L131.21410867214203,85.51458299144109L131.47843203814824,85.63335374436161L131.75522348745665,85.31236183842496L132.01954685346286,86.19117421393264L132.28387021946907,86.30406399870547L132.55068720213572,86.89780758066048L132.82747865144412,86.41936528450552L133.09180201745033,85.93540219488484L133.3685934667587,86.29470249132685L133.64538491606712,86.04642740838402L133.90970828207335,87.44026187103431L134.17652526474,87.01462234504113L134.4408486307462,88.09670804104991L134.70517199675243,87.58258669537028L134.96949536275864,87.16414750641003L135.23381872876485,88.44079590215162L135.49814209477105,88.35685937927572L135.7624654607773,89.14944015816822L136.0267888267835,89.37126268486664L136.2911121927897,89.04574763415437L136.5679036420981,89.35971502251302L136.83222700810433,90.39957622023714L137.09904399077098,89.72534510294352L137.36586097343763,89.94419844752218L137.63018433944384,90.40557572303187L137.89450770545005,91.09015052319904L138.15883107145626,90.47996593065788L138.43562252076467,93.36047511393606L138.71241397007307,95.44534233397286L138.97673733607928,94.24630112339682L139.4230947182973,93.45298934348155L139.68741808430354,93.1865554631686L140.08390313331287,94.06313494374967L140.34822649931908,94.18269994945416L140.6125498653253,94.27557983580046L140.8893413146337,94.63248652868303L141.1536646806399,93.3760639136262L141.41798804664612,93.56333521096698L141.68231141265233,94.81118169651039L141.94663477865853,95.97901363588598L142.21095814466477,95.86152966766365L142.47528151067098,95.19546245571283L142.9266261262099,95.30591361580993L143.1909494922161,95.6366270245618L143.45527285822232,95.9074102470603L143.71959622422855,97.45014811001467L143.9864132068952,95.21684058798854L144.4502259057363,95.81454955087108L144.7145492717425,96.5753514902859L144.9788726377487,95.61290870559002L145.24319600375495,96.04789522967634L145.50751936976116,97.37835737336792L145.77184273576736,96.68472991768004L146.03616610177357,97.52759955386651L146.30048946777978,97.86393907728795L146.56481283378602,97.96658437337489L146.82913619979223,98.88092687642322L147.09345956579844,98.24890674301413L147.35778293180465,98.85286023851057L147.6221062978109,100.6295238958098L147.8864296638171,99.66214325028835L148.1507530298233,99.81538253308273L148.41507639582952,100.26167447422053L148.67939976183573,99.41893120366049L148.94372312784196,100.3719701105855L149.22051457715034,100.81551312769544L149.48483794315655,102.60194948801373L149.7491613091628,101.9224405036503L150.0159782918294,102.9691254974487L150.28030165783562,103.24625127967455L150.54462502384186,103.02109594273577L150.80894838984807,104.31439434908565L151.0732717558543,103.26072703475265L151.33759512186052,104.35386968744943L151.60191848786673,104.67577796435779L151.8787099371751,104.10471811532324L152.1555013864835,104.63366257350611L152.41982475248972,104.5786878690949L152.69661620179812,105.811342515742L153.1728969839414,106.5056732007466L153.4372203499476,106.78426136052322L153.88357773216566,108.02479511775407L154.38230106425286,107.79216990719222L154.64662443025907,107.95034573007626L154.91094779626528,107.41118732564925L155.1752711622715,106.83410772457303L155.43959452827772,107.749481350611L155.70391789428393,108.72822470179598L155.9807093435923,114.48918611641389L156.24503270959855,113.32367431628609L156.51184969226517,112.78453773614444L156.7761730582714,112.56371200207651L157.05296450757982,111.63310404932817L157.31728787358603,111.98105584220303L157.58161123959223,114.5610583591095L157.84593460559844,116.57222659866412L158.11025797160465,116.14947769676216L158.3745813376109,119.4529469712502L158.6389047036171,119.18150485961142L158.9032280696233,118.55341999342508L159.16755143562955,118.64407199572261L159.43187480163576,119.6243272669618L159.69619816764194,119.89425874926967L159.96052153364818,120.94556975094794L160.22484489965439,122.1514087265153L160.4891682656606,122.7611983946389L160.75349163166683,122.74325482162979L161.01781499767304,123.9334316445714L161.28213836367925,123.08443856718856L161.5464617296855,122.74548181112215L161.81078509569167,123.59776918557756L162.07510846169788,123.36565635898785L162.34192544436456,123.93635077679942L162.6087424270312,124.48938451630629L162.87306579303743,123.95675995290408L163.13738915904364,123.58432240388753L163.40420614171026,124.18848451078354L163.6809975910187,125.10887741743593L163.95778904032707,127.86240883293853L164.23458048963545,128.2135794180467L164.4989038556417,127.5841801521462L164.7756953049501,128.9115182324398L165.0400186709563,129.43715575517342L165.30434203696254,129.6060818439377L165.56866540296872,130.09568154829702L165.83298876897493,129.376751653884L166.09731213498114,129.32760923059965L166.36163550098738,129.1007909609282L166.62595886699359,130.32115916322033L166.89028223299982,132.06979946451145L167.15460559900603,131.85372025268975L167.41892896501224,132.91742629492964L167.68325233101842,133.7242764906136L167.94757569702466,134.19573572723746L168.21439267969131,136.04370675726508L168.49118412899972,136.0217313687494L168.75550749500593,136.67602854845435L169.01983086101214,136.5587118902915L169.28415422701838,136.15585030129625L169.5484775930246,135.32603422234433L169.81280095903077,136.3183866620029L170.0895924083392,141.2117440070086" fill="none"></path></g></g></g></g><g opacity="0.2"><g><g><g><path style="fill: none;" stroke="rgb(204, 51, 17)" stroke-width="2px" d="M171.323932655255,137.6118926912174L172.84753243478139,145.78454123469368L174.3586641310056,139.51146881467326L175.8697958272298,140.25444650377682L177.38092752345403,140.4560434071455L178.89205921967823,142.86928940178387L180.40319091590246,140.59977963816436L181.91432261212665,139.7998814684547L183.42545430835088,140.7163422070558L184.93658600457508,140.05996819503935L186.4477177007993,138.56490780205075L187.95884939702353,137.67687195819843L189.46998109324772,136.85488281706625L190.98111278947195,141.0622196629792L192.49224448569615,138.28487911374356L194.00337618192037,140.2506998750236L195.52697596144677,143.6606905002456L197.038107657671,142.3162799286922L198.5492393538952,143.26123625315063L200.06286466677983,141.70948866021416L201.57399636300403,142.17437459738488L203.08512805922825,143.88034191273846L204.59625975545248,143.36347680344943L206.11985953497887,146.63592373876173L207.6309912312031,143.34735216158873L209.1446165440877,147.02908647719556L210.66821632361413,146.41799718931753L212.17934801983833,144.57601311199898L213.69047971606255,144.68526622026616L215.20161141228675,145.18094520432214L216.71274310851098,144.77146695803452L218.23634288803734,145.09289235950973L219.74747458426157,144.89501380845087L221.27107436378796,144.42271237399308L222.7822060600122,144.81759997547556L224.29333775623638,145.44586720273173L225.8044694524606,146.3875010450882L227.328069231987,145.66040057896544L228.83920092821123,146.71982701550218L230.35033262443542,146.3222460827838L231.86146432065965,145.62094080217167L233.385064100186,147.32236267924537L234.90866387971244,145.1513963209474L236.41979557593663,148.51083573444384L237.93092727216086,151.3356807086264L239.44205896838506,151.10908742927376L240.95319066460928,152.37009663095745L242.47679044413564,153.0567971285427L243.98792214035987,151.44134270857916L245.49905383658407,151.40693734604685L247.0226536161105,152.17614143642322L248.5337853123347,150.97919958642024L250.0449170085589,152.41555808286722L251.55604870478314,152.36439892760814L253.06718040100733,150.9486115437498L254.57831209723156,153.54492630220534L256.08944379345576,153.62267238339086L257.60057548967995,154.85343285972516L259.1117071859042,154.40255083115858L260.6228388821284,153.08686912612075L262.13646419501305,153.15995666325267L263.6600639745394,151.56787272377642L265.17119567076367,151.79641000861426L266.68232736698786,155.6481210947345L268.19345906321206,153.2247450642406L269.7045907594363,157.47115995496114L271.2157224556605,155.30957430676796L272.72934776854515,158.40340601810186L274.24047946476935,157.90904895777584L275.7516111609936,157.81133263842435L277.27521094051997,158.1939977472382" fill="none"></path></g><g><path style="fill: none;" stroke="rgb(255, 112, 67)" stroke-width="2px" d="M7.9695988467534375,21.92041498490614L8.692747678279877,20.93317830842277L9.121649743874869,19.67663325024414L9.385973109881084,23.514973113181735L10.011870891650517,24.357169307693493L10.530543157021205,23.57445968102827L11.326006871700287,22.527612727258383L12.04666208656629,23.41748300537763L12.310985452572504,26.539700731350603L13.041615134080251,24.904399782661063L13.305938500086468,23.049472163366612L13.570261866092682,25.194201516725524L13.951785215139388,25.171750020649416L14.343283030827841,23.585607668846933L14.607606396834056,25.75001742682673L15.807036010503769,27.62089649476593L16.545146541992825,23.673229297897183L16.80946990799904,25.517669891237915L18.07373355484009,24.218035067841402L18.637290920098625,27.332858503859825L19.253214235226316,25.320388680046335L19.664660984198253,26.149712023690768L20.280584299325945,24.80036367820503L20.544907665332158,25.8716414790905L20.809231031338374,22.556210815223107L21.07355439734459,31.414693890204898L21.504950079600015,24.331724043170198L21.88896704530716,26.60445378678428L22.492422277132672,25.574827187057668L23.031043475786845,29.782796718392138L23.29536684179306,25.389531653321068L23.559690207799278,31.751816252334105L24.00106035669645,29.51414576400641L24.395051789045333,26.618860634707175L24.65937515505155,25.522141103853823L25.103238920609158,27.39913495268279L25.57453246943156,30.14122538063891L26.030864318291346,30.685758989815213L26.29518768429756,26.589636930431766L26.828821649630868,25.475446092099787L27.09314501563708,29.101945910039536L27.357468381643297,34.26668778462688L28.103059763113656,33.49293472141521L28.721476694901785,29.868237526743542L29.16035322713852,35.13920693015204L29.42467659314473,33.44813423137036L29.688999959150948,24.83191311995181L29.953323325157164,27.631592059489844L30.230114774465562,30.190673811071065L30.49443814047178,29.353185644388873L30.758761506477992,28.826342485127725L31.287408238490425,30.268964213792447L31.87839538701375,27.9437357184122L32.14271875301997,39.76291440543643L32.52424210206668,38.40779766549285L32.90576545111338,30.61382018319723L33.1700888171196,35.19433892571176L33.56657386612892,31.135425131314673L34.813382196346915,30.419571620562532L35.204880012035375,33.263018959960576L35.481671461343765,39.22612854175743L35.74599482734998,34.224831579253234L36.13001179305712,29.848422809016416L36.39433515906334,37.97380727731479L36.92796912439664,36.4256437235819L37.192292490402856,34.992233046361505L37.45661585640907,38.40780826915913L38.39421572073301,34.24577382016177L38.658539086739225,34.861931660522984L38.92535606940587,38.30001493228356L39.31436026843389,38.96268045296115L39.578683634440104,33.003911305229394L39.97267506678899,33.22155862479481L40.38162819910049,31.722974280044877L40.76065793148677,35.142172422155795L41.546147179524105,37.24981368541289L42.01993434500694,37.98883620699296L42.28425771101316,36.08737616549415L42.54858107701937,38.32778239972281L42.812904443025595,34.46651741028177L43.26923629188538,38.89198580985369L43.65075964093209,37.772114940949564L43.915083006938296,37.14351193092777L44.17940637294451,39.347526382473845L44.44372973895073,34.53328162775374L44.708053104956946,37.683418807049335L44.972376470963155,38.24955208444369L45.48855511967341,41.51488749423568L46.530886883735654,40.728420635150925L46.79521024974188,42.5272265833659L47.46848674805959,37.96724714244117L47.93479306356112,36.77064460975923L48.19911642956733,36.58282186889191L48.578146161953605,39.40354201689047L49.65788217592239,36.48064494059081L50.104239558140435,39.63704181754868L50.70270755664507,36.0180918100023L50.96703092265129,38.41692035305148L51.231354288657506,40.376173910347006L52.35846901917457,40.893003674081754L52.759941301504774,41.27992085307501L53.236222083648045,38.58966821502008L53.79977944890658,37.446981790830776L54.06410281491279,37.79087636115928L54.443132547299065,35.1042678497502L54.82216227968534,37.44841682033439L55.08648564569155,37.356500706439604L55.49793239466349,38.35561702371517L55.7622557606697,39.77053490693834L56.02657912667593,38.097495509948274L56.49787267549833,40.38230282945847L56.762196041504545,39.66935825782325L57.146213007211685,38.341093535463145L57.423004456520076,36.468387102367885L57.6873278225263,42.213520650944545L57.95165118853251,42.02142816712069L58.57256173698108,40.34492490581158L58.83688510298729,40.42992036017911L59.345582901716234,40.362403282401075L59.609906267722444,38.66428974920761L59.87422963372866,41.69147741795409L60.15102108303706,36.69915115712513L60.54251889872551,42.25511883377199L61.00633159756661,43.747118301760295L61.38785494661331,43.97143179286218L61.65217831261953,43.452014734554425L61.91650167862574,42.98773674091724L62.310493110974626,44.78773913614447L62.75685049319267,49.11590475934996L63.03364194250107,45.49627788443918L63.29796530850728,42.8842237506645L63.96625457350413,44.15817649432408L64.23057793951035,44.105833262996725L64.66945447174709,46.71739962812239L64.9337778377533,48.313838139885476L65.48985435303052,46.08732624304271L65.8688840854168,54.72212321051103L66.32272231761614,46.869622326722904L66.58704568362236,47.39250678390515L66.85136904962857,46.78961766461914L67.36754769833883,44.70256518672784L67.75156466404597,49.90835738805136L68.02835611335436,49.43842410573002L68.84875599463781,48.575624987630775L69.11307936064402,47.26226902006431L69.53948780957857,48.965868183281415L70.16039835802714,49.70646711658219L70.54441532373428,49.436121342868944L70.94838122272492,48.75434801554974L71.33987903841337,51.64619932425107L72.13783636975289,49.63963927711252L72.53681503542265,50.87078501998842L73.51431276631355,50.01410421733435L73.77863613231976,49.39950158136128L74.45939348061879,50.38928490503025L74.72371684662501,47.4511892403919L74.98804021263122,51.96288665417559L75.25236357863744,55.660918804859136L75.64635501098634,52.477494949824106L76.0253847433726,54.44034845182263L76.28970810937882,51.28015016050237L76.55403147538503,53.296568082728484L76.81835484139124,51.63266904607421L77.08267820739746,53.5731841577703L77.55397175621987,51.37594368170123L77.81829512222608,50.871041275256914L78.23722272117934,50.651232575047516L78.64866947015126,50.25109792603274L78.91299283615747,51.05567231257311L79.1773162021637,52.43028212569992L79.4541076514721,51.25442213154486L79.71843101747831,50.94286520882349L80.20219264960289,52.916933855193804L80.46651601560912,56.580283180744004L80.73083938161531,53.3217199791513L80.99516274762154,50.51809647575605L81.27195419692994,59.413110064720954L81.79561369562148,52.44762795646086L82.26690724444389,54.171133735846226L82.54369869375229,53.43715855941677L82.93020927611987,52.38734788092084L83.20700072542827,57.05115665480908L83.5910176911354,55.25168974472915L83.85534105714162,57.49762579092429L84.2418516395092,56.41650071861751L84.51864308881758,53.459659539268884L85.37395360334715,55.403558987786894L85.63827696935336,54.23009365493404L85.91506841866176,57.42834320271015L86.17939178466796,56.925881406788605L86.55842151705424,56.73602276199499L86.82274488306047,57.24057524745196L87.20426823210715,62.001512720851835L87.58828519781432,57.27102014062761L87.85260856382051,56.295060463235984L88.11693192982673,57.702345474013256L88.49845527887345,56.684096608208094L89.37122111002606,57.68612716643371L89.63554447603225,54.62314328759419L90.11182525817553,57.30050540200466L90.37614862418174,59.0299651400078L90.64047199018796,60.7576443457143L91.03695703919729,59.66217781476004L91.3012804052035,61.04580339514381L91.56560377120971,59.38363363973248L92.21394410292307,61.3523960347671L92.47826746892929,61.15665942429739L93.00192696762086,62.24312344257754L93.26625033362706,58.17702919882929L93.65276091599465,59.28942094844861L93.91708428200087,62.879217942828134L94.18140764800707,62.36369508096274L94.44573101401329,61.804413539264786L94.97687136268617,60.3269004466965L95.3957989616394,62.04471205728798L95.66012232764561,60.01818442290006L95.92444569365183,62.798759090351936L96.20123714296024,62.636104151406855L96.65258175849915,62.23568408704129L96.91690512450536,62.141436050203154L97.36824974004428,62.266652978059085L97.74977308909098,66.24124199998103L98.1312964381377,66.8022567992968L98.3956198041439,65.31071726533351L98.65994317015011,59.845023017946446L98.92426653615634,60.398796838649346L99.52522815132141,65.85548768972345L99.78955151732764,64.63223195820082L100.05387488333383,63.629169309790356L100.31819824934006,62.086125559594336L100.58252161534628,63.70720522452093L100.96404496439297,64.46874463145254L101.22836833039919,63.61309503534447L101.49269169640542,62.976649730467685L101.75701506241163,65.69204012672373L102.02133842841783,64.22103768525308L102.28815541108449,61.7334096225574L102.55247877709071,62.14802534515907L102.81680214309692,66.7159513503239L103.09359359240533,63.04970192204536L103.68956797424951,62.914144652285984L103.95389134025574,63.84011864682047L104.21821470626195,64.80316924415163L104.48503168892861,67.92931827939896L104.74935505493482,65.88034975260119L105.02614650424321,65.7596959358023L105.29046987024942,67.50636454054359L105.55479323625565,66.07692140179068L105.83158468556405,66.54497606790225L106.09590805157025,64.20677575410271L106.48241863393784,66.60744403325197L106.74674199994405,69.49323755576981L107.01106536595027,66.58553155687855L107.27538873195648,67.6023065130704L107.53971209796269,69.63349445878961L107.93120991365116,68.08193552274908L108.34016304596264,68.40359950671566L108.72168639500936,75.20635488037357L108.98600976101558,68.915711080774L109.25033312702179,70.92339312835108L109.514656493028,69.7038307863406L109.90116707539559,69.41346484886598L110.16549044140179,67.72029880963231L110.42981380740801,71.69096138229361L110.89113288958868,69.9485333604266L111.15545625559488,69.37955078953816L111.53448598798117,67.19951476201292L111.79880935398737,71.083588458538L112.06313271999359,70.15774148708918L112.32745608599981,72.30700589597141L112.6042475353082,79.55145831409783L112.86857090131441,72.84975389192763L113.25757510034244,72.47020084871293L113.52189846634866,73.05333920363407L113.78622183235485,75.08195454527626L114.05054519836108,73.11398444293171L114.56672384707133,73.31490663280572L114.99063867934544,72.35848614350016L115.25496204535166,74.15532198781824L115.51928541135788,74.49296732953388L115.7836087773641,79.19294703161792L116.0604002266725,75.80489682784817L116.32472359267871,74.33750595645427L116.59154057534536,74.69709630004701L116.85586394135157,75.0126910657524L117.1201873073578,76.12767342359047L117.384510673364,78.04677332667985L117.64883403937021,78.8292253726183L117.92562548867862,75.62109464377974L118.18994885468483,74.92101850481757L118.45427222069104,76.70901699753837L118.71859558669726,73.3962556409754L118.98291895270347,76.50711590149321L119.42179548494022,75.03971053289928L119.68611885094643,76.53134726713684L119.95044221695264,78.29069432219693L120.21476558295886,78.62707266040861L120.49155703226725,75.08067337938861L120.76834848157566,76.8130641474801L121.03267184758185,76.1785708008382L121.29699521358808,77.76919894529773L121.5613185795943,77.38852577937706L121.82564194560051,77.52705848207732L122.08996531160672,76.76652664435231L122.35428867761294,80.87918269129692L122.61861204361915,80.18096882122566L122.99764177600544,76.75651523701333L123.26196514201163,78.26381756272544L123.52878212467829,80.77480506042271L123.79310549068451,78.6204007452196L124.05742885669073,75.5005915978608L124.32175222269693,78.10674236134226L124.58607558870315,85.63510021235075L124.86286703801156,89.2908935420356L125.12719040401777,80.23600980198313L125.39151377002398,82.99465918029814L125.6558371360302,78.49821514046226L125.92016050203641,80.06039585738218L126.19695195134481,88.54493710634543L126.4737434006532,79.29682010470484L126.73806676665941,85.64839455895282L127.00239013266564,78.3101617698533L127.26671349867185,78.42207595653801L127.53103686467807,78.05475258555767L127.79536023068428,85.00485893588827L128.0721516799927,81.89033682072004L128.3364750459989,83.36274424797314L128.6007984120051,82.99514694894715L128.86512177801131,84.36685665934561L129.12944514401752,82.78981932232465L129.51096849306424,83.65205291155547L129.7777854757309,82.90906638606334L130.3039385910829,85.13559507204438L130.57075557374955,85.93051747135083L130.83507893975576,85.12367301658709L131.21410867214203,86.44433667750012L131.47843203814824,85.81150987374234L131.75522348745665,84.83087397952L132.01954685346286,87.50939277719415L132.28387021946907,86.47339867586471L132.55068720213572,87.78842295359301L132.82747865144412,85.70170184027305L133.09180201745033,85.20945756045383L133.3685934667587,86.83365293598986L133.64538491606712,85.67401478396978L133.90970828207335,89.53101356500972L134.17652526474,86.3761630560514L134.4408486307462,89.71983658506304L134.70517199675243,86.81140467685083L134.96949536275864,86.5364887229697L135.23381872876485,90.35576849576395L135.49814209477105,88.23095459496187L135.7624654607773,90.33831132650704L136.0267888267835,89.70399647491425L136.2911121927897,88.55747505808598L136.5679036420981,89.83066610505091L136.83222700810433,91.95936801682336L137.09904399077098,88.71399842700303L137.36586097343763,90.27247846439025L137.63018433944384,91.0976416362964L137.89450770545005,92.11701272344982L138.15883107145626,89.56468904184618L138.43562252076467,97.68123888885327L138.71241397007307,98.57264316402811L138.97673733607928,92.44773930753277L139.4230947182973,92.26302167360862L139.68741808430354,92.78690464269914L140.08390313331287,95.37800416462127L140.34822649931908,94.36204745801092L140.6125498653253,94.41489966531984L140.8893413146337,95.16784656800695L141.1536646806399,91.49142999104092L141.41798804664612,93.84424215697814L141.68231141265233,96.68295142482549L141.94663477865853,97.73076154494939L142.21095814466477,95.6853037153301L142.47528151067098,94.19636163778668L142.9266261262099,95.47159035595561L143.1909494922161,96.13269713768963L143.45527285822232,96.313585080808L143.71959622422855,99.76425490444626L143.9864132068952,91.86687930494932L144.4502259057363,96.7111129951949L144.7145492717425,97.71655439940815L144.9788726377487,94.1692445285461L145.24319600375495,96.70037501580586L145.50751936976116,99.37405058890533L145.77184273576736,95.6442887341482L146.03616610177357,98.79190400814622L146.30048946777978,98.36844836242014L146.56481283378602,98.12055231750529L146.82913619979223,100.25244063099572L147.09345956579844,97.30087654290051L147.35778293180465,99.7587904817552L147.6221062978109,103.2945193817587L147.8864296638171,98.21107228200617L148.1507530298233,100.0452414572743L148.41507639582952,100.93111238592721L148.67939976183573,98.15481629782047L148.94372312784196,101.80152847097295L149.22051457715034,101.48082765336036L149.48483794315655,105.28160402849116L149.7491613091628,100.90317702710516L150.0159782918294,104.5391529881463L150.28030165783562,103.6619399530133L150.54462502384186,102.68336293732753L150.80894838984807,106.25434195861052L151.0732717558543,101.68022606325309L151.33759512186052,105.99358366649463L151.60191848786673,105.15864037972031L151.8787099371751,103.24812834177143L152.1555013864835,105.42707926078037L152.41982475248972,104.49622581247809L152.69661620179812,107.66032448571272L153.1728969839414,107.54716922825347L153.4372203499476,107.20214360018815L153.88357773216566,109.88559575360037L154.38230106425286,107.44323209134942L154.64662443025907,108.1876094644023L154.91094779626528,106.60244971900872L155.1752711622715,105.96848832295868L155.43959452827772,109.12254178966805L155.70391789428393,110.1963397285734L155.9807093435923,123.13062823834079L156.24503270959855,111.5754066160944L156.51184969226517,111.97583286593195L156.7761730582714,112.23247340097467L157.05296450757982,110.2371921202056L157.31728787358603,112.5029835315153L157.58161123959223,118.43106213446922L157.84593460559844,119.58897895799603L158.11025797160465,115.51535434390928L158.3745813376109,124.40815088298223L158.6389047036171,118.77434169215329L158.9032280696233,117.61129269414559L159.16755143562955,118.78004999916888L159.43187480163576,121.09471017382057L159.69619816764194,120.29915597273146L159.96052153364818,122.52253625346535L160.22484489965439,123.9601671898663L160.4891682656606,123.6758828968243L160.75349163166683,122.71633946211617L161.01781499767304,125.71869687898376L161.28213836367925,121.81094895111434L161.5464617296855,122.23704667702256L161.81078509569167,124.87620024726064L162.07510846169788,123.01748711910327L162.34192544436456,124.7923924035168L162.6087424270312,125.31893512556658L162.87306579303743,123.15782310780074L163.13738915904364,123.02566608036273L163.40420614171026,125.09472767112754L163.6809975910187,126.48946677741455L163.95778904032707,131.99270595619245L164.23458048963545,128.7403352957089L164.4989038556417,126.6400812532955L164.7756953049501,130.90252535288016L165.0400186709563,130.2256120392739L165.30434203696254,129.8594709770841L165.56866540296872,130.83008110483604L165.83298876897493,128.29835681226447L166.09731213498114,129.25389559567313L166.36163550098738,128.76056355642106L166.62595886699359,132.15171146665853L166.89028223299982,134.6927599164481L167.15460559900603,131.52960143495724L167.41892896501224,134.51298535828943L167.68325233101842,134.9345517841395L167.94757569702466,134.90292458217328L168.21439267969131,138.81566330230652L168.49118412899972,135.98876828597594L168.75550749500593,137.65747431801174L169.01983086101214,136.38273690304726L169.28415422701838,135.55155791780334L169.5484775930246,134.08131010391645L169.81280095903077,137.80691532149075L170.0895924083392,148.5517800245172" fill="none"></path></g></g></g></g></g></g><g transform="translate(30, 177)" clip-path="url(#clip_1)"><clipPath id="clip_1"><rect width="299" height="22"></rect></clipPath><g><g><line x1="0" y1="0" x2="0" y2="5" style="visibility: inherit;" fill="rgb(0, 0, 0)" stroke="rgb(204, 204, 204)" stroke-width="1px"></line><line x1="24.936166604359943" y1="0" x2="24.936166604359943" y2="5" style="visibility: inherit;" fill="rgb(0, 0, 0)" stroke="rgb(204, 204, 204)" stroke-width="1px"></line><line x1="49.87233320871989" y1="0" x2="49.87233320871989" y2="5" style="visibility: inherit;" fill="rgb(0, 0, 0)" stroke="rgb(204, 204, 204)" stroke-width="1px"></line><line x1="74.80849981307983" y1="0" x2="74.80849981307983" y2="5" style="visibility: inherit;" fill="rgb(0, 0, 0)" stroke="rgb(204, 204, 204)" stroke-width="1px"></line><line x1="99.74466641743977" y1="0" x2="99.74466641743977" y2="5" style="visibility: inherit;" fill="rgb(0, 0, 0)" stroke="rgb(204, 204, 204)" stroke-width="1px"></line><line x1="124.68083302179973" y1="0" x2="124.68083302179973" y2="5" style="visibility: inherit;" fill="rgb(0, 0, 0)" stroke="rgb(204, 204, 204)" stroke-width="1px"></line><line x1="149.61699962615967" y1="0" x2="149.61699962615967" y2="5" style="visibility: inherit;" fill="rgb(0, 0, 0)" stroke="rgb(204, 204, 204)" stroke-width="1px"></line><line x1="174.55316623051962" y1="0" x2="174.55316623051962" y2="5" style="visibility: inherit;" fill="rgb(0, 0, 0)" stroke="rgb(204, 204, 204)" stroke-width="1px"></line><line x1="199.48933283487955" y1="0" x2="199.48933283487955" y2="5" style="visibility: inherit;" fill="rgb(0, 0, 0)" stroke="rgb(204, 204, 204)" stroke-width="1px"></line><line x1="224.4254994392395" y1="0" x2="224.4254994392395" y2="5" style="visibility: inherit;" fill="rgb(0, 0, 0)" stroke="rgb(204, 204, 204)" stroke-width="1px"></line><line x1="249.36166604359946" y1="0" x2="249.36166604359946" y2="5" style="visibility: inherit;" fill="rgb(0, 0, 0)" stroke="rgb(204, 204, 204)" stroke-width="1px"></line><line x1="274.29783264795935" y1="0" x2="274.29783264795935" y2="5" style="visibility: inherit;" fill="rgb(0, 0, 0)" stroke="rgb(204, 204, 204)" stroke-width="1px"></line><line x1="299.23399925231934" y1="0" x2="299.23399925231934" y2="5" style="visibility: inherit;" fill="rgb(0, 0, 0)" stroke="rgb(204, 204, 204)" stroke-width="1px"></line></g><g transform="translate(0, 8)"><text style="text-anchor: middle; visibility: hidden; font-family: Roboto, sans-serif; font-size: 12px; font-weight: 200;" x="0" y="0" dx="0em" dy="0.95em" fill="rgb(50, 49, 63)" stroke="none" stroke-width="1px">20k</text><text style="text-anchor: middle; visibility: inherit; font-family: Roboto, sans-serif; font-size: 12px; font-weight: 200;" x="24.936166604359943" y="0" dx="0em" dy="0.95em" fill="rgb(50, 49, 63)" stroke="none" stroke-width="1px">30k</text><text style="text-anchor: middle; visibility: hidden; font-family: Roboto, sans-serif; font-size: 12px; font-weight: 200;" x="49.87233320871989" y="0" dx="0em" dy="0.95em" fill="rgb(50, 49, 63)" stroke="none" stroke-width="1px">40k</text><text style="text-anchor: middle; visibility: inherit; font-family: Roboto, sans-serif; font-size: 12px; font-weight: 200;" x="74.80849981307983" y="0" dx="0em" dy="0.95em" fill="rgb(50, 49, 63)" stroke="none" stroke-width="1px">50k</text><text style="text-anchor: middle; visibility: hidden; font-family: Roboto, sans-serif; font-size: 12px; font-weight: 200;" x="99.74466641743977" y="0" dx="0em" dy="0.95em" fill="rgb(50, 49, 63)" stroke="none" stroke-width="1px">60k</text><text style="text-anchor: middle; visibility: inherit; font-family: Roboto, sans-serif; font-size: 12px; font-weight: 200;" x="124.68083302179973" y="0" dx="0em" dy="0.95em" fill="rgb(50, 49, 63)" stroke="none" stroke-width="1px">70k</text><text style="text-anchor: middle; visibility: hidden; font-family: Roboto, sans-serif; font-size: 12px; font-weight: 200;" x="149.61699962615967" y="0" dx="0em" dy="0.95em" fill="rgb(50, 49, 63)" stroke="none" stroke-width="1px">80k</text><text style="text-anchor: middle; visibility: inherit; font-family: Roboto, sans-serif; font-size: 12px; font-weight: 200;" x="174.55316623051962" y="0" dx="0em" dy="0.95em" fill="rgb(50, 49, 63)" stroke="none" stroke-width="1px">90k</text><text style="text-anchor: middle; visibility: hidden; font-family: Roboto, sans-serif; font-size: 12px; font-weight: 200;" x="199.48933283487955" y="0" dx="0em" dy="0.95em" fill="rgb(50, 49, 63)" stroke="none" stroke-width="1px">100k</text><text style="text-anchor: middle; visibility: inherit; font-family: Roboto, sans-serif; font-size: 12px; font-weight: 200;" x="224.4254994392395" y="0" dx="0em" dy="0.95em" fill="rgb(50, 49, 63)" stroke="none" stroke-width="1px">110k</text><text style="text-anchor: middle; visibility: hidden; font-family: Roboto, sans-serif; font-size: 12px; font-weight: 200;" x="249.36166604359946" y="0" dx="0em" dy="0.95em" fill="rgb(50, 49, 63)" stroke="none" stroke-width="1px">120k</text><text style="text-anchor: middle; visibility: inherit; font-family: Roboto, sans-serif; font-size: 12px; font-weight: 200;" x="274.29783264795935" y="0" dx="0em" dy="0.95em" fill="rgb(50, 49, 63)" stroke="none" stroke-width="1px">130k</text><text style="text-anchor: middle; visibility: hidden; font-family: Roboto, sans-serif; font-size: 12px; font-weight: 200;" x="299.23399925231934" y="0" dx="0em" dy="0.95em" fill="rgb(50, 49, 63)" stroke="none" stroke-width="1px">140k</text></g><line x1="0" y1="0" x2="299.23399925231934" y2="0" fill="rgb(0, 0, 0)" stroke="rgb(204, 204, 204)" stroke-width="1px"></line></g></g></g></g></svg>