<svg viewBox="0 0 330 200" xmlns="http://www.w3.org/2000/svg"><g><g><g><g><g><line x1="72.29800224304199" y1="177.89999961853027" x2="67.29800224304199" y2="177.89999961853027" style="visibility: inherit;" fill="rgb(0, 0, 0)" stroke="rgb(204, 204, 204)" stroke-width="1px"></line><line x1="72.29800224304199" y1="166.03999964396158" x2="67.29800224304199" y2="166.03999964396158" style="visibility: inherit;" fill="rgb(0, 0, 0)" stroke="rgb(204, 204, 204)" stroke-width="1px"></line><line x1="72.29800224304199" y1="154.1799996693929" x2="67.29800224304199" y2="154.1799996693929" style="visibility: inherit;" fill="rgb(0, 0, 0)" stroke="rgb(204, 204, 204)" stroke-width="1px"></line><line x1="72.29800224304199" y1="142.31999969482422" x2="67.29800224304199" y2="142.31999969482422" style="visibility: inherit;" fill="rgb(0, 0, 0)" stroke="rgb(204, 204, 204)" stroke-width="1px"></line><line x1="72.29800224304199" y1="130.45999972025555" x2="67.29800224304199" y2="130.45999972025555" style="visibility: inherit;" fill="rgb(0, 0, 0)" stroke="rgb(204, 204, 204)" stroke-width="1px"></line><line x1="72.29800224304199" y1="118.59999974568686" x2="67.29800224304199" y2="118.59999974568686" style="visibility: inherit;" fill="rgb(0, 0, 0)" stroke="rgb(204, 204, 204)" stroke-width="1px"></line><line x1="72.29800224304199" y1="106.73999977111816" x2="67.29800224304199" y2="106.73999977111816" style="visibility: inherit;" fill="rgb(0, 0, 0)" stroke="rgb(204, 204, 204)" stroke-width="1px"></line><line x1="72.29800224304199" y1="94.87999979654948" x2="67.29800224304199" y2="94.87999979654948" style="visibility: inherit;" fill="rgb(0, 0, 0)" stroke="rgb(204, 204, 204)" stroke-width="1px"></line><line x1="72.29800224304199" y1="83.01999982198079" x2="67.29800224304199" y2="83.01999982198079" style="visibility: inherit;" fill="rgb(0, 0, 0)" stroke="rgb(204, 204, 204)" stroke-width="1px"></line><line x1="72.29800224304199" y1="71.15999984741211" x2="67.29800224304199" y2="71.15999984741211" style="visibility: inherit;" fill="rgb(0, 0, 0)" stroke="rgb(204, 204, 204)" stroke-width="1px"></line><line x1="72.29800224304199" y1="59.29999987284343" x2="67.29800224304199" y2="59.29999987284343" style="visibility: inherit;" fill="rgb(0, 0, 0)" stroke="rgb(204, 204, 204)" stroke-width="1px"></line><line x1="72.29800224304199" y1="47.43999989827475" x2="67.29800224304199" y2="47.43999989827475" style="visibility: inherit;" fill="rgb(0, 0, 0)" stroke="rgb(204, 204, 204)" stroke-width="1px"></line><line x1="72.29800224304199" y1="35.57999992370605" x2="67.29800224304199" y2="35.57999992370605" style="visibility: inherit;" fill="rgb(0, 0, 0)" stroke="rgb(204, 204, 204)" stroke-width="1px"></line><line x1="72.29800224304199" y1="23.719999949137364" x2="67.29800224304199" y2="23.719999949137364" style="visibility: inherit;" fill="rgb(0, 0, 0)" stroke="rgb(204, 204, 204)" stroke-width="1px"></line><line x1="72.29800224304199" y1="11.859999974568682" x2="67.29800224304199" y2="11.859999974568682" style="visibility: inherit;" fill="rgb(0, 0, 0)" stroke="rgb(204, 204, 204)" stroke-width="1px"></line><line x1="72.29800224304199" y1="0" x2="67.29800224304199" y2="0" style="visibility: inherit;" fill="rgb(0, 0, 0)" stroke="rgb(204, 204, 204)" stroke-width="1px"></line></g><g transform="translate(62.29800224304199, 0)"><text style="text-anchor: end; visibility: hidden; font-family: Roboto, sans-serif; font-size: 12px; font-weight: 200;" x="0" y="177.89999961853027" dx="0em" dy="0.3em" fill="rgb(50, 49, 63)" stroke="none" stroke-width="1px">-400</text><text style="text-anchor: end; visibility: inherit; font-family: Roboto, sans-serif; font-size: 12px; font-weight: 200;" x="0" y="166.03999964396158" dx="0em" dy="0.3em" fill="rgb(50, 49, 63)" stroke="none" stroke-width="1px">-200</text><text style="text-anchor: end; visibility: hidden; font-family: Roboto, sans-serif; font-size: 12px; font-weight: 200;" x="0" y="154.1799996693929" dx="0em" dy="0.3em" fill="rgb(50, 49, 63)" stroke="none" stroke-width="1px">0</text><text style="text-anchor: end; visibility: hidden; font-family: Roboto, sans-serif; font-size: 12px; font-weight: 200;" x="0" y="142.31999969482422" dx="0em" dy="0.3em" fill="rgb(50, 49, 63)" stroke="none" stroke-width="1px">200</text><text style="text-anchor: end; visibility: inherit; font-family: Roboto, sans-serif; font-size: 12px; font-weight: 200;" x="0" y="130.45999972025555" dx="0em" dy="0.3em" fill="rgb(50, 49, 63)" stroke="none" stroke-width="1px">400</text><text style="text-anchor: end; visibility: hidden; font-family: Roboto, sans-serif; font-size: 12px; font-weight: 200;" x="0" y="118.59999974568686" dx="0em" dy="0.3em" fill="rgb(50, 49, 63)" stroke="none" stroke-width="1px">600</text><text style="text-anchor: end; visibility: hidden; font-family: Roboto, sans-serif; font-size: 12px; font-weight: 200;" x="0" y="106.73999977111816" dx="0em" dy="0.3em" fill="rgb(50, 49, 63)" stroke="none" stroke-width="1px">800</text><text style="text-anchor: end; visibility: inherit; font-family: Roboto, sans-serif; font-size: 12px; font-weight: 200;" x="0" y="94.87999979654948" dx="0em" dy="0.3em" fill="rgb(50, 49, 63)" stroke="none" stroke-width="1px">1e+3</text><text style="text-anchor: end; visibility: hidden; font-family: Roboto, sans-serif; font-size: 12px; font-weight: 200;" x="0" y="83.01999982198079" dx="0em" dy="0.3em" fill="rgb(50, 49, 63)" stroke="none" stroke-width="1px">1.2e+3</text><text style="text-anchor: end; visibility: hidden; font-family: Roboto, sans-serif; font-size: 12px; font-weight: 200;" x="0" y="71.15999984741211" dx="0em" dy="0.3em" fill="rgb(50, 49, 63)" stroke="none" stroke-width="1px">1.4e+3</text><text style="text-anchor: end; visibility: inherit; font-family: Roboto, sans-serif; font-size: 12px; font-weight: 200;" x="0" y="59.29999987284343" dx="0em" dy="0.3em" fill="rgb(50, 49, 63)" stroke="none" stroke-width="1px">1.6e+3</text><text style="text-anchor: end; visibility: hidden; font-family: Roboto, sans-serif; font-size: 12px; font-weight: 200;" x="0" y="47.43999989827475" dx="0em" dy="0.3em" fill="rgb(50, 49, 63)" stroke="none" stroke-width="1px">1.8e+3</text><text style="text-anchor: end; visibility: hidden; font-family: Roboto, sans-serif; font-size: 12px; font-weight: 200;" x="0" y="35.57999992370605" dx="0em" dy="0.3em" fill="rgb(50, 49, 63)" stroke="none" stroke-width="1px">2e+3</text><text style="text-anchor: end; visibility: inherit; font-family: Roboto, sans-serif; font-size: 12px; font-weight: 200;" x="0" y="23.719999949137364" dx="0em" dy="0.3em" fill="rgb(50, 49, 63)" stroke="none" stroke-width="1px">2.2e+3</text><text style="text-anchor: end; visibility: hidden; font-family: Roboto, sans-serif; font-size: 12px; font-weight: 200;" x="0" y="11.859999974568682" dx="0em" dy="0.3em" fill="rgb(50, 49, 63)" stroke="none" stroke-width="1px">2.4e+3</text><text style="text-anchor: end; visibility: hidden; font-family: Roboto, sans-serif; font-size: 12px; font-weight: 200;" x="0" y="0" dx="0em" dy="0.3em" fill="rgb(50, 49, 63)" stroke="none" stroke-width="1px">2.6e+3</text></g><line x1="72.29800224304199" y1="0" x2="72.29800224304199" y2="177.89999961853027" fill="rgb(0, 0, 0)" stroke="rgb(204, 204, 204)" stroke-width="1px"></line></g></g><g transform="translate(72, 0)" clip-path="url(#clip_0)"><clipPath id="clip_0"><rect width="257" height="177"></rect></clipPath><g><g><g><line x1="0" y1="0" x2="0" y2="177.89999961853027" fill="rgb(0, 0, 0)" stroke="rgb(60, 60, 60)" stroke-width="1px" opacity="0.25"></line><line x1="18.407285554068427" y1="0" x2="18.407285554068427" y2="177.89999961853027" fill="rgb(0, 0, 0)" stroke="rgb(60, 60, 60)" stroke-width="1px" opacity="0.25"></line><line x1="36.81457110813685" y1="0" x2="36.81457110813685" y2="177.89999961853027" fill="rgb(0, 0, 0)" stroke="rgb(60, 60, 60)" stroke-width="1px" opacity="0.25"></line><line x1="55.22185666220528" y1="0" x2="55.22185666220528" y2="177.89999961853027" fill="rgb(0, 0, 0)" stroke="rgb(60, 60, 60)" stroke-width="1px" opacity="0.25"></line><line x1="73.6291422162737" y1="0" x2="73.6291422162737" y2="177.89999961853027" fill="rgb(0, 0, 0)" stroke="rgb(60, 60, 60)" stroke-width="1px" opacity="0.25"></line><line x1="92.03642777034214" y1="0" x2="92.03642777034214" y2="177.89999961853027" fill="rgb(0, 0, 0)" stroke="rgb(60, 60, 60)" stroke-width="1px" opacity="0.25"></line><line x1="110.44371332441057" y1="0" x2="110.44371332441057" y2="177.89999961853027" fill="rgb(0, 0, 0)" stroke="rgb(60, 60, 60)" stroke-width="1px" opacity="0.25"></line><line x1="128.850998878479" y1="0" x2="128.850998878479" y2="177.89999961853027" fill="rgb(0, 0, 0)" stroke="rgb(60, 60, 60)" stroke-width="1px" opacity="0.25"></line><line x1="147.2582844325474" y1="0" x2="147.2582844325474" y2="177.89999961853027" fill="rgb(0, 0, 0)" stroke="rgb(60, 60, 60)" stroke-width="1px" opacity="0.25"></line><line x1="165.66556998661588" y1="0" x2="165.66556998661588" y2="177.89999961853027" fill="rgb(0, 0, 0)" stroke="rgb(60, 60, 60)" stroke-width="1px" opacity="0.25"></line><line x1="184.0728555406843" y1="0" x2="184.0728555406843" y2="177.89999961853027" fill="rgb(0, 0, 0)" stroke="rgb(60, 60, 60)" stroke-width="1px" opacity="0.25"></line><line x1="202.48014109475272" y1="0" x2="202.48014109475272" y2="177.89999961853027" fill="rgb(0, 0, 0)" stroke="rgb(60, 60, 60)" stroke-width="1px" opacity="0.25"></line><line x1="220.88742664882113" y1="0" x2="220.88742664882113" y2="177.89999961853027" fill="rgb(0, 0, 0)" stroke="rgb(60, 60, 60)" stroke-width="1px" opacity="0.25"></line><line x1="239.2947122028896" y1="0" x2="239.2947122028896" y2="177.89999961853027" fill="rgb(0, 0, 0)" stroke="rgb(60, 60, 60)" stroke-width="1px" opacity="0.25"></line><line x1="257.701997756958" y1="0" x2="257.701997756958" y2="177.89999961853027" fill="rgb(0, 0, 0)" stroke="rgb(60, 60, 60)" stroke-width="1px" opacity="0.25"></line></g><g><line x1="0" y1="177.89999961853027" x2="257.701997756958" y2="177.89999961853027" fill="rgb(0, 0, 0)" stroke="rgb(60, 60, 60)" stroke-width="1px" opacity="0.25"></line><line x1="0" y1="166.03999964396158" x2="257.701997756958" y2="166.03999964396158" fill="rgb(0, 0, 0)" stroke="rgb(60, 60, 60)" stroke-width="1px" opacity="0.25"></line><line x1="0" y1="154.1799996693929" x2="257.701997756958" y2="154.1799996693929" fill="rgb(0, 0, 0)" stroke="rgb(60, 60, 60)" stroke-width="1px" opacity="0.25"></line><line x1="0" y1="142.31999969482422" x2="257.701997756958" y2="142.31999969482422" fill="rgb(0, 0, 0)" stroke="rgb(60, 60, 60)" stroke-width="1px" opacity="0.25"></line><line x1="0" y1="130.45999972025555" x2="257.701997756958" y2="130.45999972025555" fill="rgb(0, 0, 0)" stroke="rgb(60, 60, 60)" stroke-width="1px" opacity="0.25"></line><line x1="0" y1="118.59999974568686" x2="257.701997756958" y2="118.59999974568686" fill="rgb(0, 0, 0)" stroke="rgb(60, 60, 60)" stroke-width="1px" opacity="0.25"></line><line x1="0" y1="106.73999977111816" x2="257.701997756958" y2="106.73999977111816" fill="rgb(0, 0, 0)" stroke="rgb(60, 60, 60)" stroke-width="1px" opacity="0.25"></line><line x1="0" y1="94.87999979654948" x2="257.701997756958" y2="94.87999979654948" fill="rgb(0, 0, 0)" stroke="rgb(60, 60, 60)" stroke-width="1px" opacity="0.25"></line><line x1="0" y1="83.01999982198079" x2="257.701997756958" y2="83.01999982198079" fill="rgb(0, 0, 0)" stroke="rgb(60, 60, 60)" stroke-width="1px" opacity="0.25"></line><line x1="0" y1="71.15999984741211" x2="257.701997756958" y2="71.15999984741211" fill="rgb(0, 0, 0)" stroke="rgb(60, 60, 60)" stroke-width="1px" opacity="0.25"></line><line x1="0" y1="59.29999987284343" x2="257.701997756958" y2="59.29999987284343" fill="rgb(0, 0, 0)" stroke="rgb(60, 60, 60)" stroke-width="1px" opacity="0.25"></line><line x1="0" y1="47.43999989827475" x2="257.701997756958" y2="47.43999989827475" fill="rgb(0, 0, 0)" stroke="rgb(60, 60, 60)" stroke-width="1px" opacity="0.25"></line><line x1="0" y1="35.57999992370605" x2="257.701997756958" y2="35.57999992370605" fill="rgb(0, 0, 0)" stroke="rgb(60, 60, 60)" stroke-width="1px" opacity="0.25"></line><line x1="0" y1="23.719999949137364" x2="257.701997756958" y2="23.719999949137364" fill="rgb(0, 0, 0)" stroke="rgb(60, 60, 60)" stroke-width="1px" opacity="0.25"></line><line x1="0" y1="11.859999974568682" x2="257.701997756958" y2="11.859999974568682" fill="rgb(0, 0, 0)" stroke="rgb(60, 60, 60)" stroke-width="1px" opacity="0.25"></line><line x1="0" y1="0" x2="257.701997756958" y2="0" fill="rgb(0, 0, 0)" stroke="rgb(60, 60, 60)" stroke-width="1px" opacity="0.25"></line></g></g></g><g><g><line x1="0" y1="154.1799996693929" x2="257.701997756958" y2="154.1799996693929" fill="rgb(0, 0, 0)" stroke="rgb(153, 153, 153)" stroke-width="1.5px"></line></g></g><g><g><line x1="-73.6291422162737" y1="0" x2="-73.6291422162737" y2="177.89999961853027" fill="rgb(0, 0, 0)" stroke="rgb(153, 153, 153)" stroke-width="1.5px"></line></g></g><g><g><g><g><g><path style="fill: none;" stroke="rgb(255, 112, 67)" stroke-width="2px" d="M11.765936926160538,97.89292768315528L12.833559488296508,84.92598864693431L13.466770111356462,77.70365824751283L13.857004565102715,-4.130943356755197L14.781050299916949,21.864833283537447L15.546793378966195,42.87452853319052L16.72117819731576,66.72923492900345L17.785119302340913,76.05740476871398L18.175353756087166,19.71222658094089L19.254020689555578,47.409500363720795L19.644255143301827,-62.60622362954101L20.03448959704808,18.4340715912608L20.597752535002574,56.40188896215113L21.175741301400322,72.09002228947334L21.56597575514657,89.25466725380039L23.336756625447958,-62.65998388667189L26.683201139177594,-5.413383215026405L27.515210446221488,27.674371376271566L28.424530352592466,55.6439392119136L29.031970775876726,68.57275614252114L29.941290682247704,48.758734857884534L30.331525135993957,40.82974678613926L30.72175958974021,22.788509029683922L31.11199404348646,55.80528611338773L31.74888612365723,67.11742508783875L32.315830518722535,70.69626507094856L33.20674313953945,48.696422182885605L34.0019378754752,64.67965924275367L34.39217232922145,65.0289004380951L34.782406782967705,60.343293447732L35.434024691581726,80.62284817469519L36.015694915090286,91.14229515210097L36.40592936883654,77.48732999610456L37.06122873456138,84.58046948329303L37.75702412850516,87.22973428439428L38.430730779784064,56.61778320169727L38.820965233530316,47.96120189321679L39.608797055244445,54.65280307181106L39.9990315089907,35.20373248637789L40.38926596273695,18.10787108186025L41.49002163887024,11.344108710588356L42.40302300235203,40.74809997311934L43.05095945385524,53.284686559084484L43.441193907601495,54.73482523633779L43.83142836134774,64.02884984089934L44.22166281509399,58.68170370374019L44.630304554394314,70.62951441207814L45.02053900814056,50.19514539789698L45.41077346188681,45.49578937370769L46.19124236937932,63.57162521641669L47.063747704642154,55.31580049828546L47.453982158388406,25.51897319624727L48.017245096342904,55.741046702168056L48.5805080342974,75.88759674133341L48.97074248804365,83.9631723740165L49.55609416866302,88.2559520736576L51.39682272406987,49.15184477773399L51.974811490467616,58.31845249818596L52.38345322976794,31.548277971136905L52.77368768351419,27.493178160802273L53.34063207857949,43.40084092570354L53.73086653232574,25.99041806138876L54.51869835403988,26.766828303110376L54.90893280778612,33.523825333090755L55.299167261532375,42.9794109467234L56.68339513519832,51.54187683995788L57.07362958894457,33.68869720156444L57.46754549980164,59.95731316979772L58.04185280908857,82.65159811917184L58.43208726283482,84.32027018375202L59.01375748634339,62.10401201720704L59.61751645251683,68.30228853536723L60.17709793336051,67.96104889344612L61.33675692326682,69.1444173416451L62.03623377432142,81.73297397835512L62.42646822806767,87.1735092710635L62.81670268181392,83.56786755126349L63.206937135560175,90.97802448615971L63.88064378683908,98.83004512172771L64.44390672479356,100.89303040669633L64.83414117853982,89.19809097552623L65.22437563228607,91.51873896428206L65.61461008603233,83.51124821470337L66.00484453977857,82.11980463654386L66.39507899352482,77.07610362562622L67.15714061546326,80.28496239535424L68.69598968778338,24.920814166755203L69.08622414152963,55.509130883790945L70.08021756144933,63.63781935878782L70.76865004117148,59.81662875638319L71.15888449491774,73.71282883776571L71.71846597576142,78.71487177460726L73.31253690474374,14.867673856812608L73.9715177275794,31.355586585316342L74.85506743417467,29.379795395329143L75.24530188792093,12.218755940202465L75.63553634166718,25.446251113168255L77.29955495575497,48.2413244936803L77.89226955059596,65.69355186838465L78.59542785876138,73.32381024265874L79.42743716580527,58.24887686698235L79.81767161955152,68.63587820615868L80.37725310039521,66.36894706499851L80.93683458123888,80.16142374331851L81.32706903498514,69.17456433751308L81.93450945826939,67.73402325817864L82.32474391201565,52.641390413548564L82.7149783657619,42.48323028921291L83.41077375970568,63.77335791565563L83.80100821345194,66.30183068536583L84.36795260851724,74.43991858592426L84.77659434781756,78.43645928226141L85.16682880156381,76.42156031108858L85.55706325531007,77.20819043094173L86.47374607590265,48.97735576654931L86.86398052964891,18.29383887434029L87.61499778025491,52.866522499916L88.00523223400117,25.918972086607244L88.39546668774742,38.184757031556764L88.80410842704774,68.73046714314432L89.38209719344547,76.67760775383961L90.06684821605681,70.63542396472664L90.63011115401132,75.76195107971894L91.02034560775758,53.05829559246983L91.41058006150382,62.1393099369849L91.99225028501237,50.50427771118566L92.65123110784803,62.14779001545715L93.05987284714836,50.44456718907199L93.4501073008946,70.30726277397132L94.43673780659267,62.815067947292945L94.82697226033892,77.77800652225702L95.47490871184213,90.64533136299669L95.86514316558838,98.70409530968367L96.68610810129984,88.89879176573014L97.24568958214351,91.68566775309107L97.9157147763116,92.74593635219074L98.30594923005785,98.03264788253777L98.6961836838041,32.121860134426676L99.45824530574254,58.53770180700809L100.02518970080784,70.83628054375713L100.43383144010816,39.98641173985108L101.64503082956585,37.270944080866045L102.03526528331211,37.534549594697395L102.66479444926125,58.29739836174339L103.58147726985386,55.436756556185244L104.14842166491917,56.289743757379895L104.74481771687098,79.70135159051623L105.32280648326874,96.10618765497097L106.50087275872912,80.02402550890271L107.0899058964593,73.13567888428678L108.53303708389826,50.146539182372145L108.92327153764452,18.314904589355585L109.92830932889665,45.35718424241779L110.3185437826429,32.339585212194955L110.70877823638915,43.66108493760683L111.09901269013541,38.47890284052422L111.68068291364398,63.05026600338795L112.24026439448765,65.43636245787604L112.63049884823391,19.242647127027595L113.02073330198016,0.9125597345637828L113.4109677557264,35.52858839268174L113.80120220947265,73.22454506297629L114.49699760341643,82.6881789053706L114.88723205716269,78.14055343927727L115.5057168517794,43.66859267593058L116.11315727506366,81.9535036689924L116.5033917288099,87.95830805328504L116.89362618255615,103.46024671547447L117.30226792185648,115.09934136285304L117.69250237560271,110.6961601361457L118.40670505510059,96.35241419620954L118.79693950884682,83.42728220303225L119.18717396259308,83.49426677941557L119.57740841633932,73.09508054567753L119.98605015563965,74.61235335423156L120.75915614891052,82.01890751859831L121.4549515428543,77.56140621794627L121.86359328215462,89.5090215170408L122.43421913433076,82.90801635346492L122.84286087363107,81.72118812241848L123.40980526869637,88.1716132924555L123.80003972244262,80.4511477503863L124.37066557461876,76.87188064456653L124.77930731391908,81.13520630482782L126.04204710292815,-2.0026903467036083L126.43228155667441,44.88521354959947L126.84092329597473,24.093194600688793L127.23115774972098,29.719169208153158L127.79073923056465,53.92247460668196L128.1809736843109,37.901445660315865L128.74423662226542,67.9559590961101L129.3111810173307,70.10420377856167L129.70141547107696,37.53414495262841L130.0916499248232,62.56202430759126L130.6549128627777,85.54850830728807L131.9434228515625,57.19568176866817L132.33365730530875,50.225317366933446L133.03681561347415,68.25790513577708L133.4270500672204,70.41805225656952L133.81728452096667,68.9109878397433L134.40263620158606,69.22658319582094L134.7928706553323,84.48408051143434L135.18310510907855,87.40507033750869L136.1402839578901,48.13447446760343L136.53051841163636,54.21408763893511L137.30362440490725,86.07180652128284L137.69385885865347,84.1540800979394L138.2644847108296,90.47448560486637L138.65471916457585,98.53152959567835L139.0449536183221,74.72420496027284L139.43518807206834,73.09374391654421L140.21933843667165,27.377923006354628L140.83782323128838,56.10989676559551L141.2280576850346,73.9294479193096L141.61829213878084,92.62967399719753L142.0269338780812,81.14174479272069L142.69327761513847,87.49271567913615L143.08351206888472,88.55405408602124L143.749855805942,99.01690185517612L144.3131187438965,91.13064918961885L144.87638168185097,81.57613110160248L145.26661613559722,96.37592359343684L145.65685058934346,97.65716428061239L146.04708504308974,106.12716319300554L146.9343162067958,59.76307702575691L147.32455066054206,74.40380454588626L147.71478511428833,61.94626880859102L148.10501956803458,74.4304450333775L148.49525402178082,71.54522863229485L149.05851695973533,54.51138057250566L149.44875141348157,59.04703411221759L149.83898586722782,49.44521160914901L150.22922032097406,59.59471633979244L150.6194547747203,70.8532422823294L151.01337068557737,81.04543564321587L151.40360513932364,103.48363980101621L151.7938395930699,101.61205863961325L152.2024813323702,66.0327581514216L153.0823495818547,76.1141140899419L153.47258403560093,59.581041793273144L153.86281848934718,58.10697483759136L154.25673440020424,73.5648762746473L154.64696885395048,84.71605820951741L155.0556105932508,88.10641111042655L155.44584504699705,85.05621248589794L155.83607950074332,101.2361033665562L156.24472124004362,91.25819478652858L156.6349556937899,82.6950210014585L157.20558154596603,86.98586014281567L157.59581599971227,105.32583104621672L157.98605045345852,117.85537195778889L158.37628490720476,114.2923471730238L158.766519360951,115.17556905838207L159.34450812734877,76.70926923122417L159.9482670935222,71.3447533447943L160.5115300314767,80.79424082190488L160.90176448522294,59.65819068986932L161.2919989389692,77.3765260239772L161.68223339271543,84.12350463511414L162.25285924489157,82.05273966159682L162.64309369863784,82.64091626438132L163.0333281523841,95.99298156829519L163.7143977178846,74.36977548215721L164.10463217163087,56.54927268559347L164.66421365247453,61.653578888821734L165.0544481062208,23.6346660045135L165.44468255996705,51.959543916230665L165.8349170137133,68.17054087978568L166.24355875301362,64.98583521353399L166.63379320675986,75.72327614701295L167.2081005160468,90.40963653414957L167.59833496979306,83.53269676003377L167.9885694235393,72.6501347118098L168.37880387728555,89.89659076197086L169.14086549922396,42.84229905128735L169.7667132080623,67.6712090014299L170.15694766180854,76.8183761532791L170.54718211555482,74.93432846703303L170.93741656930106,61.808723098780014L171.34605830860139,83.99575540906872L171.73629276234763,86.61626010137125L172.1302086732047,91.12595713896977L172.52044312695094,101.09122459400935L172.91067758069718,100.01086340980751L173.30091203444343,97.0209033131945L173.6911464881897,76.67800021980571L174.09978822749,65.016706487605L174.49002268123627,85.63086146837553L174.88025713498251,71.61028699389246L175.27049158872876,91.31925745153902L175.660726042475,100.87101171342414L176.30866249397823,67.79752985425179L176.69889694772448,55.439179697306145L177.08913140147072,25.83276613509863L177.47936585521697,53.4373644776393L177.8880075945173,52.76048427208368L178.2966493338176,67.503021770564L178.68688378756386,81.34411321645975L179.0771182413101,66.68447106048548L179.46735269505638,37.929542191535106L179.85758714880262,57.16245309759257L180.24782160254887,78.41085468876823L180.6380560562951,83.1143363101397L181.02829051004136,48.42488422082021L181.58787199088505,67.04991426449631L181.9781064446313,74.3486928263575L182.37202235548835,84.63954162560276L182.76225680923463,82.64641985821058L183.15249126298087,83.30789923519882L183.54272571672712,75.98540937794436L183.93296017047336,96.28154858936082L184.3416019097737,103.93656329534222L184.73183636351993,102.50007814016084L185.12207081726618,102.3495032857611L185.51230527101245,97.0182747661952L185.9025397247587,88.24137082071375L186.31118146405902,98.05446993232106L186.71982320335934,92.23023630672382L187.11005765710559,39.09453409425596L187.50029211085183,64.42912880619674L187.89052656459808,47.13843123037614L188.28076101834432,68.99457459575248L188.6709954720906,76.97769730322582L189.07963721139092,81.31341342380087L189.46987166513716,78.60649705284102L189.8601061188834,76.447205268522L190.25034057262965,90.00067156745706L190.6405750263759,82.36958947632209L191.2038379643304,57.564813453488384L191.59775387518746,61.28071235557104L192.37454132556917,57.97442008271451L192.7684572364262,70.30342356526292L193.15869169017247,85.79257702415963L193.71827317101614,89.90130912038094L194.1085076247624,100.65897291599642L194.5171493640627,87.83200539975006L194.90738381780898,72.26625162562691L195.29761827155522,77.80419933413434L195.69153418241228,85.3712322567785L196.1001759217126,90.54526274386917L196.49041037545885,88.44222172355943L196.89905211475917,109.12766909617257L197.3076938540595,101.99702467529148L197.69792830780574,86.02703499119244L198.0918442186628,83.34332503801139L198.48207867240905,72.13556492164362L198.8723131261553,80.09972440138053L199.26254757990154,92.2824012794006L199.6527820336478,92.02693442927033L200.04301648739406,107.69946050107731L200.4332509411403,104.31011449434706L200.82348539488655,94.00252818490618L201.21371984863282,91.85503815816315L201.6223615879331,85.60050792718003L202.0125960416794,57.69716412748557L202.40651195253645,51.95030728209988L202.80042786339354,63.97167237509579L203.19066231713978,89.84997930468744L203.58089677088603,97.05636346197369L203.97113122463224,114.32917595799795L204.3797729639326,126.29153231143744L204.78841470323292,131.07509879831198L205.17864915697916,95.7938258730746L205.83762997981478,82.61781607540271L206.22786443356105,86.88559387675097L206.81321611418045,102.50965601660874L207.2034505679267,98.82071231901362L207.59368502167294,97.56023165993672L208.00232676097326,94.1094647741746L208.3925612147195,87.99786311329676L208.78279566846575,100.6276278972548L209.173030122212,93.25073040809542L209.56326457595827,92.32945933872499L209.95349902970452,33.48501688069089L210.34373348345076,13.778548306012803L211.01007722050804,51.9232836238828L211.40031167425428,65.19829989136772L211.79054612800053,72.94830661521033L212.1807805817468,68.78554888130365L212.57469649260386,65.18606375992387L213.2594475152152,76.54595178164121L213.64968196896143,68.82458083433995L214.03991642270768,87.83244736077445L214.43015087645395,84.97805087654682L214.8203853302002,83.93309971309414L215.21061978394644,81.13017227164153L215.6008542376927,66.52519405225458L215.99108869143896,94.55900728219783L216.3813231451852,103.71552234475142L216.77155759893145,88.58814308177512L217.1617920526777,97.96924875101253L217.55202650642394,108.24870429834404L217.94226096017022,99.52032334471959L218.33249541391646,66.23746407096466L218.7227298676627,72.83216792240606L219.11296432140895,51.995671868466275L219.50319877515523,65.32037772564449L219.89343322890147,63.06148132541496L220.3020749682018,90.83471820431117L220.69230942194804,81.8233029684915L221.08254387569428,68.3617388979823L221.47645978655135,75.56307769342351L221.8666942402976,85.93839503241259L222.25692869404384,85.55046421707637L222.6471631477901,84.7389284634907L223.03739760153636,96.2366470149376L223.4276320552826,97.73343760318964L223.81786650902885,111.97729109012126L224.22650824832917,93.2599794370305L224.6351499876295,94.87140989322535L225.02538444137573,95.07536266564847L225.43402618067606,108.8248424492959L226.13718448884146,104.99078432244622L226.5274189425877,101.27285504752047L227.18639976542337,70.54845623018718L227.9226911875861,83.08052588705736L228.31292564133236,82.54513382638069L228.7031600950786,71.8529135047912L229.09339454882485,52.54936624670021L229.4836290025711,82.53392677854453L229.87386345631737,85.586856316938L230.28250519561766,85.24638960615542L230.67273964936393,96.29676890125572L231.066655560221,98.26713849758532L231.45689001396724,85.91298142454576L231.86553175326756,77.02854710087051L232.2557662070138,81.46667256481976L232.64600066076005,86.97949338639458L233.0362351145063,93.98391109846342L233.42646956825257,88.32946267945842L233.81670402199882,91.3541235044315L234.20693847574506,88.66207223320045L234.5971729294913,77.44512331722257L234.98740738323755,81.21921348612729L235.37764183698383,81.0101597753912L235.76787629073007,87.60712668004258L236.15811074447632,88.26433526741165L236.54834519822256,99.88320935572533L236.93857965196884,93.31717774399159L237.32881410571508,89.2100044267247L237.71904855946133,83.40047683513926L238.10928301320757,85.03751585514081L238.49951746695382,85.71121422385797L238.8897519207001,57.60384273981925L239.27998637444634,23.882242473433372L239.6739022853034,51.68063177115544L240.06781819616046,50.02158050629837L240.4580526499067,55.56875811226112L240.84828710365295,66.98810375028611L241.24220301451,80.50710430239799L241.65084475381033,66.3614773767032L242.05948649311065,72.45753476423394L242.46812823241098,74.25300442535476L242.85836268615722,76.52622360227532L243.26700442545754,89.56860095252628L243.6572388792038,87.19172008474891L244.04747333295003,78.88818721359529L244.43770778669628,45.98944303416295L244.82794224044255,64.1709104832764L245.2181766941888,68.73278572221365L245.60841114793504,84.87379560245917L245.9986456016813,79.25913765227976L246.38888005542753,96.40974694950063L246.7791145091738,91.58816484051103L247.16934896292005,77.37926124879604L247.5595834166663,69.53600807667945L247.94981787041255,69.01822000720229L248.3437337812696,67.30546121149122L248.75237552056993,61.27175380124433L249.14260997431617,25.342972598203342L249.53284442806245,6.27608960346051L249.9230788818087,34.26996748572862L250.31331333555494,54.65359674645977L250.70354778930118,68.25993388002567L251.1121895286015,41.655642416358845" fill="none"></path></g></g></g></g><g opacity="0.2"><g><g><g><path style="fill: none;" stroke="rgb(255, 112, 67)" stroke-width="2px" d="M11.765936926160538,97.89292768315528L12.833559488296508,77.14582522520175L13.466770111356462,70.77022106406821L13.857004565102715,-100.3684348433744L14.781050299916949,55.80491926510353L15.546793378966195,71.9385005537506L16.72117819731576,100.84184675031827L17.785119302340913,89.65796594544237L18.175353756087166,-63.38596675861315L19.254020689555578,88.5367239800732L19.644255143301827,-226.63197509997218L20.03448959704808,139.55349671461138L20.597752535002574,113.22964350720247L21.175741301400322,95.59148759409611L21.56597575514657,114.98145830447146L23.336756625447958,-290.4248186155253L24.816702383995054,-11.429495873929298L26.683201139177594,41.43242925685986L27.515210446221488,77.3029789113882L28.424530352592466,97.59675704780403L29.031970775876726,87.96555611020419L29.941290682247704,19.038094124215803L30.331525135993957,28.936358604944147L30.72175958974021,-4.273219375602581L31.11199404348646,105.33031093747103L31.74888612365723,84.08560460485207L32.315830518722535,76.06451955125085L33.20674313953945,15.696678115755777L34.0019378754752,88.65450599886361L34.39217232922145,65.55276211529504L34.782406782967705,53.31488389446633L35.434024691581726,111.04217784416842L36.015694915090286,106.9214648647232L36.40592936883654,57.00488284895623L37.06122873456138,95.2201785311716L37.75702412850516,91.20363144505768L38.430730779784064,10.699856861822001L38.820965233530316,34.97632997871143L39.608797055244445,64.69020481733995L39.9990315089907,6.030126647225886L40.38926596273695,-7.535921004348585L41.49002163887024,1.1984651585629513L42.40302300235203,84.85408685418079L43.05095945385524,72.08956643477431L43.441193907601495,56.910033251991656L43.83142836134774,77.96988674687222L44.22166281509399,50.66098449830161L44.630304554394314,88.55123047418272L45.02053900814056,19.54359187703812L45.41077346188681,38.44675533748076L46.19124236937932,90.68537898034866L47.063747704642154,42.93206342112467L47.453982158388406,-19.176267756732024L48.017245096342904,101.07415696100178L48.5805080342974,106.10742180006248L48.97074248804365,96.0765358230365L49.55609416866302,94.69512162311779L51.39682272406987,-9.504316166143386L51.974811490467616,72.06836407886274L52.38345322976794,-8.60698381943472L52.77368768351419,21.41052844530049L53.34063207857949,67.26233507305501L53.73086653232574,-0.125216235083054L54.51869835403988,27.93144366569274L54.90893280778612,43.659320878061315L55.299167261532375,57.16278936717233L56.68339513519832,64.38557567980956L57.07362958894457,6.908927743974305L57.46754549980164,99.36023712214761L58.04185280908857,116.693025543233L58.43208726283482,86.82327828062233L59.01375748634339,28.779624767389613L59.61751645251683,77.5997033126074L60.17709793336051,67.44918943056449L61.33675692326682,70.91947001394351L62.03623377432142,100.61580893342014L62.42646822806767,95.33431221012609L62.81670268181392,78.15940497156349L63.206937135560175,102.09325988850402L63.88064378683908,110.60807607507972L64.44390672479356,103.98750833414921L64.83414117853982,71.6556818287711L65.22437563228607,94.99971094741582L65.61461008603233,71.50001209033537L66.00484453977857,80.03263926930454L66.39507899352482,69.5105521092498L67.15714061546326,85.09825054994629L68.69598968778338,-58.12540817614334L69.08622414152963,101.3916059593445L70.08021756144933,75.83085207128316L70.76865004117148,54.08484285277625L71.15888449491774,94.55712895983947L71.71846597576142,86.21793617986958L73.31253690474374,-80.90312301987937L73.9715177275794,56.08745567807191L74.85506743417467,26.416108610348303L75.24530188792093,-13.52280324248751L75.63553634166718,45.2874938726169L77.29955495575497,82.43393456444842L77.89226955059596,91.87189293044115L78.59542785876138,84.76919780406983L79.42743716580527,35.636476803467765L79.81767161955152,84.2163802149232L80.37725310039521,62.96855035325822L80.93683458123888,100.85013876079853L81.32706903498514,52.69427522880492L81.93450945826939,65.57321163917699L82.32474391201565,30.002441146603477L82.7149783657619,27.24599010270942L83.41077375970568,95.70854935531969L83.80100821345194,70.09453983993114L84.36795260851724,86.64705043676194L84.77659434781756,84.43127032676712L85.16682880156381,73.39921185432934L85.55706325531007,78.38813561072146L86.47374607590265,6.631103769960652L86.86398052964891,-27.731436463973154L87.61499778025491,104.72554793827953L88.00523223400117,-14.502353533355816L88.39546668774742,56.583434448981045L88.80410842704774,114.54903231052565L89.38209719344547,88.59831866988253L90.06684821605681,61.57214828105721L90.63011115401132,83.45174175220737L91.02034560775758,19.00281236159615L91.41058006150382,75.76083145375752L91.99225028501237,33.05172937248678L92.65123110784803,79.6130584718644L93.05987284714836,32.8897329494943L93.4501073008946,100.10130615132026L94.43673780659267,51.57677570727537L94.82697226033892,100.22241438470316L95.47490871184213,109.94631862410614L95.86514316558838,110.79224122971412L96.68610810129984,74.19083644979982L97.24568958214351,95.86598173413252L97.9157147763116,94.33633925084025L98.30594923005785,105.96271517805833L98.6961836838041,-66.74432148774L99.45824530574254,98.16146431588025L100.02518970080784,89.28414864888067L100.43383144010816,-6.288391466008028L101.64503082956585,33.19774259238853L102.03526528331211,37.9299578654444L102.66479444926125,89.4416715123124L103.58147726985386,51.14579384784796L104.14842166491917,57.56922455917189L104.74481771687098,114.81876334022071L105.32280648326874,120.71344175165306L106.50087275872912,55.90078228980031L107.0899058964593,62.803158947362874L108.53303708389826,15.66282962950025L108.92327153764452,-29.432547300169237L109.92830932889665,85.92060372201105L110.3185437826429,12.813186666860707L110.70877823638915,60.64333452572463L111.09901269013541,30.705629694900328L111.68068291364398,99.90731074768351L112.24026439448765,69.01550713960819L112.63049884823391,-50.04792586924508L113.02073330198016,-26.582571354132003L113.4109677557264,87.45263137985874L113.80120220947265,129.76848006841803L114.49699760341643,96.8836296689621L114.88723205716269,71.31911524013734L115.5057168517794,-8.039348469089417L116.11315727506366,139.38087015858508L116.5033917288099,96.96551462972403L116.89362618255615,126.71315470875862L117.30226792185648,132.5579833339209L117.69250237560271,104.09138829608467L118.40670505510059,74.83679528630532L118.79693950884682,64.03958421326631L119.18717396259308,83.59474364399057L119.57740841633932,57.496301195070465L119.98605015563965,76.88826256706264L120.75915614891052,93.12873876514844L121.4549515428543,70.87515426696821L121.86359328215462,107.43044446568258L122.43421913433076,73.00650860810109L122.84286087363107,79.94094577584882L123.40980526869637,97.84725104751104L123.80003972244262,68.87044943728252L124.37066557461876,71.50297998583682L124.77930731391908,87.53019479521977L126.04204710292815,-126.70953532400074L126.43228155667441,115.21706939405414L126.84092329597473,-7.094833822677222L127.23115774972098,38.158131119349655L127.79073923056465,90.22743270447518L128.1809736843109,13.869902240766672L128.74423662226542,113.03772924980149L129.3111810173307,73.326570802239L129.70141547107696,-11.320943286271447L130.0916499248232,100.10384334003552L130.6549128627777,120.0282343068333L131.9434228515625,14.666441960738348L132.33365730530875,39.76977076433134L133.03681561347415,95.30678678904253L133.4270500672204,73.65827293775821L133.81728452096667,66.65039121450391L134.40263620158606,69.69997622993736L134.7928706553323,107.37032648485446L135.18310510907855,91.78655507662025L136.1402839578901,-10.77141933725447L136.53051841163636,63.33350739593269L137.30362440490725,133.85838484480433L137.69385885865347,81.27749046292428L138.2644847108296,99.95509386525683L138.65471916457585,110.61709558189634L139.0449536183221,39.01321800716453L139.43518807206834,70.64805235095128L140.21933843667165,-41.19580835892973L140.83782323128838,99.20785740445679L141.2280576850346,100.65877464988075L141.61829213878084,120.68001311402942L142.0269338780812,63.90985098600543L142.69327761513847,97.01917200875934L143.08351206888472,90.14606169634887L143.749855805942,114.71117350890844L144.3131187438965,79.30127019128297L144.87638168185097,67.24435396957793L145.26661613559722,118.57561233118837L145.65685058934346,99.57902531137574L146.04708504308974,118.83216156159526L146.9343162067958,-9.78305222511603L147.32455066054206,96.36489582608026L147.71478511428833,43.25996520264812L148.10501956803458,93.15670937055721L148.49525402178082,67.21740403067088L149.05851695973533,28.96060848282184L149.44875141348157,65.85051442178548L149.83898586722782,35.04247785454616L150.22922032097406,74.8189734357576L150.6194547747203,87.74103119613486L151.01337068557737,96.33372568454554L151.40360513932364,137.14094603771673L151.7938395930699,98.80468689750879L152.2024813323702,12.663807419134148L153.0823495818547,91.23614799772234L153.47258403560093,34.78143334826997L153.86281848934718,55.89587440406866L154.25673440020424,96.75172843023125L154.64696885395048,101.44283111182254L155.0556105932508,93.19194046179027L155.44584504699705,80.48091454910502L155.83607950074332,125.50593968754352L156.24472124004362,76.29133191648715L156.6349556937899,69.85026032385339L157.20558154596603,93.42211885485139L157.59581599971227,132.83578740131836L157.98605045345852,136.6496833251471L158.37628490720476,108.94780999587616L158.766519360951,116.50040188641947L159.34450812734877,19.009819490487377L159.9482670935222,63.297979515149486L160.5115300314767,94.96847203757069L160.90176448522294,27.954115491815998L161.2919989389692,103.95402902513898L161.68223339271543,94.24397255181957L162.25285924489157,78.94659220132084L162.64309369863784,83.52318116855808L163.0333281523841,116.02107952416603L163.7143977178846,41.93496635295024L164.10463217163087,29.818518490747856L164.66421365247453,69.31003819366413L165.0544481062208,-33.393703321948806L165.44468255996705,94.44686078380639L165.8349170137133,92.4870363251182L166.24355875301362,60.208776714156464L166.63379320675986,91.82943754723141L167.2081005160468,112.43917711485449L167.59833496979306,73.21728709886006L167.9885694235393,56.32629163947384L168.37880387728555,115.76627483721239L169.14086549922396,-27.739138514737917L169.7667132080623,104.91457392664374L170.15694766180854,90.53912688105288L170.54718211555482,72.10825693766392L170.93741656930106,42.12031504640045L171.34605830860139,117.2763038745018L171.73629276234763,90.54701713982504L172.1302086732047,97.89050269536752L172.52044312695094,116.03912577656874L172.91067758069718,98.39032163350473L173.30091203444343,92.53596316827502L173.6911464881897,46.163645579722555L174.09978822749,47.52476588930391L174.49002268123627,116.55209393953128L174.88025713498251,50.5794252821679L175.27049158872876,120.88271313800885L175.660726042475,115.19864310625185L176.30866249397823,18.187307065493272L176.69889694772448,36.90165446188767L177.08913140147072,-18.576854208212637L177.47936585521697,94.84426199145034L177.8880075945173,51.745163963750244L178.2966493338176,89.61682801828448L178.68688378756386,102.10575038530338L179.0771182413101,44.6950078265241L179.46735269505638,-5.202851111890448L179.85758714880262,86.01181945667874L180.24782160254887,110.28345707553167L180.6380560562951,90.16955874219691L181.02829051004136,-3.609293913159039L181.58787199088505,94.98745933001045L181.9781064446313,85.29686066914932L182.37202235548835,100.07581482447063L182.76225680923463,79.65673720712229L183.15249126298087,84.30011830068116L183.54272571672712,65.00167459206268L183.93296017047336,126.72575740648551L184.3416019097737,115.4190853543143L184.73183636351993,100.34535040738876L185.12207081726618,102.12364100416151L185.51230527101245,89.02143198684634L185.9025397247587,75.0760149024916L186.31118146405902,112.77411859973198L186.71982320335934,83.49388586832792L187.11005765710559,-40.60901922444578L187.50029211085183,102.43102087410789L187.89052656459808,21.20238486664525L188.28076101834432,101.77878964381699L188.6709954720906,88.95238136443582L189.07963721139092,87.8169876046634L189.46987166513716,74.54612249640128L189.8601061188834,73.20826759204346L190.25034057262965,110.33087101585969L190.6405750263759,70.9229663396196L191.2038379643304,20.357649419237852L191.59775387518746,66.85456070869502L192.37454132556917,53.01498167342973L192.7684572364262,88.79692878908556L193.15869169017247,109.0263072125047L193.71827317101614,96.06440726471288L194.1085076247624,116.79546860941957L194.5171493640627,68.59155412538055L194.90738381780898,48.91762096444222L195.29761827155522,86.1111208968955L195.69153418241228,96.72178164074471L196.1001759217126,98.30630847450522L196.49041037545885,85.28766019309482L196.89905211475917,140.15584015509225L197.3076938540595,91.30105804396987L197.69792830780574,62.07205046504386L198.0918442186628,79.3177601082398L198.48207867240905,55.323924747091944L198.8723131261553,92.04596362098586L199.26254757990154,110.55641659643075L199.6527820336478,91.6437341540749L200.04301648739406,131.2082496087878L200.4332509411403,99.22609548425166L200.82348539488655,78.54114872074493L201.21371984863282,88.63380311804863L201.6223615879331,76.21871258070537L202.0125960416794,15.842148427943854L202.40651195253645,43.330022014021324L202.80042786339354,82.00372001458969L203.19066231713978,128.6674396990749L203.58089677088603,107.86593969790304L203.97113122463224,140.23839470203438L204.3797729639326,144.23506684159665L204.78841470323292,138.25044852862376L205.17864915697916,42.8719164852185L205.83762997981478,62.853801378894914L206.22786443356105,93.28726057877337L206.81321611418045,125.94574922639536L207.2034505679267,93.28729677262096L207.59368502167294,95.66951067132139L208.00232676097326,88.93331444553138L208.3925612147195,78.83046062198001L208.78279566846575,119.57227507319185L209.173030122212,82.1853841743564L209.56326457595827,90.9475527346693L209.95349902970452,-54.78164680636021L210.34373348345076,-15.781154556004328L211.01007722050804,109.14038660068783L211.40031167425428,85.1108242925951L211.79054612800053,84.57331670097425L212.1807805817468,62.541412280443666L212.57469649260386,59.78683607785419L213.2594475152152,93.58578381421722L213.64968196896143,57.24252441338806L214.03991642270768,116.34424715042618L214.43015087645395,80.69645615020534L214.8203853302002,82.3656729679151L215.21061978394644,76.92578110946265L215.6008542376927,44.61772672317418L215.99108869143896,136.60972712711265L216.3813231451852,117.45029493858183L216.77155759893145,65.89707418731065L217.1617920526777,112.04090725486864L217.55202650642394,123.6678876193413L217.94226096017022,86.42775191428296L218.33249541391646,16.313175160332264L218.7227298676627,82.72422369956816L219.11296432140895,20.740927787556625L219.50319877515523,85.3074365114118L219.89343322890147,59.673136725070655L220.3020749682018,132.49457352265551L220.69230942194804,68.306180114762L221.08254387569428,48.169392792218524L221.47645978655135,86.36508588658529L221.8666942402976,101.50137104089625L222.25692869404384,84.96856799407203L222.6471631477901,83.5216248331122L223.03739760153636,113.48322484210793L223.4276320552826,99.97862348556771L223.81786650902885,133.3430713205187L224.22650824832917,65.18401195739435L224.6351499876295,97.28855557751764L225.02538444137573,95.38129182428315L225.43402618067606,129.44906212476704L226.13718448884146,99.23969713217173L226.5274189425877,95.69596113513184L227.18639976542337,24.46185800418723L227.9226911875861,101.8786303723627L228.31292564133236,81.74204573536564L228.7031600950786,55.81458302240702L229.09339454882485,23.594045359563694L229.4836290025711,127.51076757631101L229.87386345631737,90.16625062452822L230.28250519561766,84.73568953998154L230.67273964936393,112.87233784390614L231.066655560221,101.22269289207976L231.45689001396724,67.38174581498646L231.86553175326756,63.7018956153576L232.2557662070138,88.12386076074364L232.64600066076005,95.24872461875688L233.0362351145063,104.49053766656667L233.42646956825257,79.84779005095092L233.81670402199882,95.89111474189113L234.20693847574506,84.62399532635386L234.5971729294913,60.61969994325578L234.98740738323755,86.88034873948432L235.37764183698383,80.69657920928711L235.76787629073007,97.50257703701966L236.15811074447632,89.25014814846529L236.54834519822256,117.31152048819582L236.93857965196884,83.46813032639098L237.32881410571508,83.04924445082433L237.71904855946133,74.68618544776109L238.10928301320757,87.49307438514312L238.49951746695382,86.72176177693376L238.8897519207001,15.442785513761137L239.27998637444634,-26.700157926145465L239.6739022853034,93.3782157177385L240.06781819616046,47.53300360901281L240.4580526499067,63.889524521205274L240.84828710365295,84.11712220732355L241.24220301451,100.78560513056583L241.65084475381033,45.14303698816103L242.05948649311065,81.60162084553002L242.46812823241098,76.94620891703603L242.85836268615722,79.93605236765617L243.26700442545754,109.13216697790271L243.6572388792038,83.62639878308283L244.04747333295003,66.43288790686482L244.43770778669628,-3.358673234985523L244.82794224044255,91.44311165694651L245.2181766941888,75.57559858061956L245.60841114793504,109.08531042282742L245.9986456016813,70.83715072701064L246.38888005542753,122.13566089533192L246.7791145091738,84.35579167702662L247.16934896292005,56.065905861223584L247.5595834166663,57.771128318504594L247.94981787041255,68.24153790298655L248.3437337812696,64.73632301792463L248.75237552056993,52.221192685874016L249.14260997431617,-28.55019920635814L249.53284442806245,-22.32423488865375L249.9230788818087,76.26078430913078L250.31331333555494,85.22904063755647L250.70354778930118,88.66943958037456L251.1121895286015,1.7492052208585616" fill="none"></path></g></g></g></g></g></g><g transform="translate(72, 177)" clip-path="url(#clip_1)"><clipPath id="clip_1"><rect width="257" height="22"></rect></clipPath><g><g><line x1="0" y1="0" x2="0" y2="5" style="visibility: inherit;" fill="rgb(0, 0, 0)" stroke="rgb(204, 204, 204)" stroke-width="1px"></line><line x1="18.407285554068427" y1="0" x2="18.407285554068427" y2="5" style="visibility: inherit;" fill="rgb(0, 0, 0)" stroke="rgb(204, 204, 204)" stroke-width="1px"></line><line x1="36.81457110813685" y1="0" x2="36.81457110813685" y2="5" style="visibility: inherit;" fill="rgb(0, 0, 0)" stroke="rgb(204, 204, 204)" stroke-width="1px"></line><line x1="55.22185666220528" y1="0" x2="55.22185666220528" y2="5" style="visibility: inherit;" fill="rgb(0, 0, 0)" stroke="rgb(204, 204, 204)" stroke-width="1px"></line><line x1="73.6291422162737" y1="0" x2="73.6291422162737" y2="5" style="visibility: inherit;" fill="rgb(0, 0, 0)" stroke="rgb(204, 204, 204)" stroke-width="1px"></line><line x1="92.03642777034214" y1="0" x2="92.03642777034214" y2="5" style="visibility: inherit;" fill="rgb(0, 0, 0)" stroke="rgb(204, 204, 204)" stroke-width="1px"></line><line x1="110.44371332441057" y1="0" x2="110.44371332441057" y2="5" style="visibility: inherit;" fill="rgb(0, 0, 0)" stroke="rgb(204, 204, 204)" stroke-width="1px"></line><line x1="128.850998878479" y1="0" x2="128.850998878479" y2="5" style="visibility: inherit;" fill="rgb(0, 0, 0)" stroke="rgb(204, 204, 204)" stroke-width="1px"></line><line x1="147.2582844325474" y1="0" x2="147.2582844325474" y2="5" style="visibility: inherit;" fill="rgb(0, 0, 0)" stroke="rgb(204, 204, 204)" stroke-width="1px"></line><line x1="165.66556998661588" y1="0" x2="165.66556998661588" y2="5" style="visibility: inherit;" fill="rgb(0, 0, 0)" stroke="rgb(204, 204, 204)" stroke-width="1px"></line><line x1="184.0728555406843" y1="0" x2="184.0728555406843" y2="5" style="visibility: inherit;" fill="rgb(0, 0, 0)" stroke="rgb(204, 204, 204)" stroke-width="1px"></line><line x1="202.48014109475272" y1="0" x2="202.48014109475272" y2="5" style="visibility: inherit;" fill="rgb(0, 0, 0)" stroke="rgb(204, 204, 204)" stroke-width="1px"></line><line x1="220.88742664882113" y1="0" x2="220.88742664882113" y2="5" style="visibility: inherit;" fill="rgb(0, 0, 0)" stroke="rgb(204, 204, 204)" stroke-width="1px"></line><line x1="239.2947122028896" y1="0" x2="239.2947122028896" y2="5" style="visibility: inherit;" fill="rgb(0, 0, 0)" stroke="rgb(204, 204, 204)" stroke-width="1px"></line><line x1="257.701997756958" y1="0" x2="257.701997756958" y2="5" style="visibility: inherit;" fill="rgb(0, 0, 0)" stroke="rgb(204, 204, 204)" stroke-width="1px"></line></g><g transform="translate(0, 8)"><text style="text-anchor: middle; visibility: hidden; font-family: Roboto, sans-serif; font-size: 12px; font-weight: 200;" x="0" y="0" dx="0em" dy="0.95em" fill="rgb(50, 49, 63)" stroke="none" stroke-width="1px">20k</text><text style="text-anchor: middle; visibility: inherit; font-family: Roboto, sans-serif; font-size: 12px; font-weight: 200;" x="18.407285554068427" y="0" dx="0em" dy="0.95em" fill="rgb(50, 49, 63)" stroke="none" stroke-width="1px">25k</text><text style="text-anchor: middle; visibility: hidden; font-family: Roboto, sans-serif; font-size: 12px; font-weight: 200;" x="36.81457110813685" y="0" dx="0em" dy="0.95em" fill="rgb(50, 49, 63)" stroke="none" stroke-width="1px">30k</text><text style="text-anchor: middle; visibility: inherit; font-family: Roboto, sans-serif; font-size: 12px; font-weight: 200;" x="55.22185666220528" y="0" dx="0em" dy="0.95em" fill="rgb(50, 49, 63)" stroke="none" stroke-width="1px">35k</text><text style="text-anchor: middle; visibility: hidden; font-family: Roboto, sans-serif; font-size: 12px; font-weight: 200;" x="73.6291422162737" y="0" dx="0em" dy="0.95em" fill="rgb(50, 49, 63)" stroke="none" stroke-width="1px">40k</text><text style="text-anchor: middle; visibility: inherit; font-family: Roboto, sans-serif; font-size: 12px; font-weight: 200;" x="92.03642777034214" y="0" dx="0em" dy="0.95em" fill="rgb(50, 49, 63)" stroke="none" stroke-width="1px">45k</text><text style="text-anchor: middle; visibility: hidden; font-family: Roboto, sans-serif; font-size: 12px; font-weight: 200;" x="110.44371332441057" y="0" dx="0em" dy="0.95em" fill="rgb(50, 49, 63)" stroke="none" stroke-width="1px">50k</text><text style="text-anchor: middle; visibility: inherit; font-family: Roboto, sans-serif; font-size: 12px; font-weight: 200;" x="128.850998878479" y="0" dx="0em" dy="0.95em" fill="rgb(50, 49, 63)" stroke="none" stroke-width="1px">55k</text><text style="text-anchor: middle; visibility: hidden; font-family: Roboto, sans-serif; font-size: 12px; font-weight: 200;" x="147.2582844325474" y="0" dx="0em" dy="0.95em" fill="rgb(50, 49, 63)" stroke="none" stroke-width="1px">60k</text><text style="text-anchor: middle; visibility: inherit; font-family: Roboto, sans-serif; font-size: 12px; font-weight: 200;" x="165.66556998661588" y="0" dx="0em" dy="0.95em" fill="rgb(50, 49, 63)" stroke="none" stroke-width="1px">65k</text><text style="text-anchor: middle; visibility: hidden; font-family: Roboto, sans-serif; font-size: 12px; font-weight: 200;" x="184.0728555406843" y="0" dx="0em" dy="0.95em" fill="rgb(50, 49, 63)" stroke="none" stroke-width="1px">70k</text><text style="text-anchor: middle; visibility: inherit; font-family: Roboto, sans-serif; font-size: 12px; font-weight: 200;" x="202.48014109475272" y="0" dx="0em" dy="0.95em" fill="rgb(50, 49, 63)" stroke="none" stroke-width="1px">75k</text><text style="text-anchor: middle; visibility: hidden; font-family: Roboto, sans-serif; font-size: 12px; font-weight: 200;" x="220.88742664882113" y="0" dx="0em" dy="0.95em" fill="rgb(50, 49, 63)" stroke="none" stroke-width="1px">80k</text><text style="text-anchor: middle; visibility: inherit; font-family: Roboto, sans-serif; font-size: 12px; font-weight: 200;" x="239.2947122028896" y="0" dx="0em" dy="0.95em" fill="rgb(50, 49, 63)" stroke="none" stroke-width="1px">85k</text><text style="text-anchor: middle; visibility: hidden; font-family: Roboto, sans-serif; font-size: 12px; font-weight: 200;" x="257.701997756958" y="0" dx="0em" dy="0.95em" fill="rgb(50, 49, 63)" stroke="none" stroke-width="1px">90k</text></g><line x1="0" y1="0" x2="257.701997756958" y2="0" fill="rgb(0, 0, 0)" stroke="rgb(204, 204, 204)" stroke-width="1px"></line></g></g></g></g></svg>