<svg viewBox="0 0 330 200" xmlns="http://www.w3.org/2000/svg"><g><g><g><g><g><line x1="51.53200149536133" y1="177.89999961853027" x2="46.53200149536133" y2="177.89999961853027" style="visibility: inherit;" fill="rgb(0, 0, 0)" stroke="rgb(204, 204, 204)" stroke-width="1px"></line><line x1="51.53200149536133" y1="158.13333299424912" x2="46.53200149536133" y2="158.13333299424912" style="visibility: inherit;" fill="rgb(0, 0, 0)" stroke="rgb(204, 204, 204)" stroke-width="1px"></line><line x1="51.53200149536133" y1="138.366666369968" x2="46.53200149536133" y2="138.366666369968" style="visibility: inherit;" fill="rgb(0, 0, 0)" stroke="rgb(204, 204, 204)" stroke-width="1px"></line><line x1="51.53200149536133" y1="118.59999974568684" x2="46.53200149536133" y2="118.59999974568684" style="visibility: inherit;" fill="rgb(0, 0, 0)" stroke="rgb(204, 204, 204)" stroke-width="1px"></line><line x1="51.53200149536133" y1="98.83333312140572" x2="46.53200149536133" y2="98.83333312140572" style="visibility: inherit;" fill="rgb(0, 0, 0)" stroke="rgb(204, 204, 204)" stroke-width="1px"></line><line x1="51.53200149536133" y1="79.06666649712456" x2="46.53200149536133" y2="79.06666649712456" style="visibility: inherit;" fill="rgb(0, 0, 0)" stroke="rgb(204, 204, 204)" stroke-width="1px"></line><line x1="51.53200149536133" y1="59.29999987284343" x2="46.53200149536133" y2="59.29999987284343" style="visibility: inherit;" fill="rgb(0, 0, 0)" stroke="rgb(204, 204, 204)" stroke-width="1px"></line><line x1="51.53200149536133" y1="39.5333332485623" x2="46.53200149536133" y2="39.5333332485623" style="visibility: inherit;" fill="rgb(0, 0, 0)" stroke="rgb(204, 204, 204)" stroke-width="1px"></line><line x1="51.53200149536133" y1="19.76666662428115" x2="46.53200149536133" y2="19.76666662428115" style="visibility: inherit;" fill="rgb(0, 0, 0)" stroke="rgb(204, 204, 204)" stroke-width="1px"></line><line x1="51.53200149536133" y1="0" x2="46.53200149536133" y2="0" style="visibility: inherit;" fill="rgb(0, 0, 0)" stroke="rgb(204, 204, 204)" stroke-width="1px"></line></g><g transform="translate(41.53200149536133, 0)"><text style="text-anchor: end; visibility: hidden; font-family: Roboto, sans-serif; font-size: 12px; font-weight: 200;" x="0" y="177.89999961853027" dx="0em" dy="0.3em" fill="rgb(50, 49, 63)" stroke="none" stroke-width="1px">-0.1</text><text style="text-anchor: end; visibility: inherit; font-family: Roboto, sans-serif; font-size: 12px; font-weight: 200;" x="0" y="158.13333299424912" dx="0em" dy="0.3em" fill="rgb(50, 49, 63)" stroke="none" stroke-width="1px">0</text><text style="text-anchor: end; visibility: hidden; font-family: Roboto, sans-serif; font-size: 12px; font-weight: 200;" x="0" y="138.366666369968" dx="0em" dy="0.3em" fill="rgb(50, 49, 63)" stroke="none" stroke-width="1px">0.1</text><text style="text-anchor: end; visibility: inherit; font-family: Roboto, sans-serif; font-size: 12px; font-weight: 200;" x="0" y="118.59999974568684" dx="0em" dy="0.3em" fill="rgb(50, 49, 63)" stroke="none" stroke-width="1px">0.2</text><text style="text-anchor: end; visibility: hidden; font-family: Roboto, sans-serif; font-size: 12px; font-weight: 200;" x="0" y="98.83333312140572" dx="0em" dy="0.3em" fill="rgb(50, 49, 63)" stroke="none" stroke-width="1px">0.3</text><text style="text-anchor: end; visibility: inherit; font-family: Roboto, sans-serif; font-size: 12px; font-weight: 200;" x="0" y="79.06666649712456" dx="0em" dy="0.3em" fill="rgb(50, 49, 63)" stroke="none" stroke-width="1px">0.4</text><text style="text-anchor: end; visibility: hidden; font-family: Roboto, sans-serif; font-size: 12px; font-weight: 200;" x="0" y="59.29999987284343" dx="0em" dy="0.3em" fill="rgb(50, 49, 63)" stroke="none" stroke-width="1px">0.5</text><text style="text-anchor: end; visibility: inherit; font-family: Roboto, sans-serif; font-size: 12px; font-weight: 200;" x="0" y="39.5333332485623" dx="0em" dy="0.3em" fill="rgb(50, 49, 63)" stroke="none" stroke-width="1px">0.6</text><text style="text-anchor: end; visibility: hidden; font-family: Roboto, sans-serif; font-size: 12px; font-weight: 200;" x="0" y="19.76666662428115" dx="0em" dy="0.3em" fill="rgb(50, 49, 63)" stroke="none" stroke-width="1px">0.7</text><text style="text-anchor: end; visibility: hidden; font-family: Roboto, sans-serif; font-size: 12px; font-weight: 200;" x="0" y="0" dx="0em" dy="0.3em" fill="rgb(50, 49, 63)" stroke="none" stroke-width="1px">0.8</text></g><line x1="51.53200149536133" y1="0" x2="51.53200149536133" y2="177.89999961853027" fill="rgb(0, 0, 0)" stroke="rgb(204, 204, 204)" stroke-width="1px"></line></g></g><g transform="translate(51, 0)" clip-path="url(#clip_0)"><clipPath id="clip_0"><rect width="278" height="177"></rect></clipPath><g><g><g><line x1="0" y1="0" x2="0" y2="177.89999961853027" fill="rgb(0, 0, 0)" stroke="rgb(60, 60, 60)" stroke-width="1px" opacity="0.25"></line><line x1="23.205666542053223" y1="0" x2="23.205666542053223" y2="177.89999961853027" fill="rgb(0, 0, 0)" stroke="rgb(60, 60, 60)" stroke-width="1px" opacity="0.25"></line><line x1="46.411333084106445" y1="0" x2="46.411333084106445" y2="177.89999961853027" fill="rgb(0, 0, 0)" stroke="rgb(60, 60, 60)" stroke-width="1px" opacity="0.25"></line><line x1="69.61699962615967" y1="0" x2="69.61699962615967" y2="177.89999961853027" fill="rgb(0, 0, 0)" stroke="rgb(60, 60, 60)" stroke-width="1px" opacity="0.25"></line><line x1="92.82266616821289" y1="0" x2="92.82266616821289" y2="177.89999961853027" fill="rgb(0, 0, 0)" stroke="rgb(60, 60, 60)" stroke-width="1px" opacity="0.25"></line><line x1="116.02833271026611" y1="0" x2="116.02833271026611" y2="177.89999961853027" fill="rgb(0, 0, 0)" stroke="rgb(60, 60, 60)" stroke-width="1px" opacity="0.25"></line><line x1="139.23399925231934" y1="0" x2="139.23399925231934" y2="177.89999961853027" fill="rgb(0, 0, 0)" stroke="rgb(60, 60, 60)" stroke-width="1px" opacity="0.25"></line><line x1="162.43966579437256" y1="0" x2="162.43966579437256" y2="177.89999961853027" fill="rgb(0, 0, 0)" stroke="rgb(60, 60, 60)" stroke-width="1px" opacity="0.25"></line><line x1="185.64533233642578" y1="0" x2="185.64533233642578" y2="177.89999961853027" fill="rgb(0, 0, 0)" stroke="rgb(60, 60, 60)" stroke-width="1px" opacity="0.25"></line><line x1="208.850998878479" y1="0" x2="208.850998878479" y2="177.89999961853027" fill="rgb(0, 0, 0)" stroke="rgb(60, 60, 60)" stroke-width="1px" opacity="0.25"></line><line x1="232.05666542053223" y1="0" x2="232.05666542053223" y2="177.89999961853027" fill="rgb(0, 0, 0)" stroke="rgb(60, 60, 60)" stroke-width="1px" opacity="0.25"></line><line x1="255.26233196258545" y1="0" x2="255.26233196258545" y2="177.89999961853027" fill="rgb(0, 0, 0)" stroke="rgb(60, 60, 60)" stroke-width="1px" opacity="0.25"></line><line x1="278.4679985046387" y1="0" x2="278.4679985046387" y2="177.89999961853027" fill="rgb(0, 0, 0)" stroke="rgb(60, 60, 60)" stroke-width="1px" opacity="0.25"></line></g><g><line x1="0" y1="177.89999961853027" x2="278.4679985046387" y2="177.89999961853027" fill="rgb(0, 0, 0)" stroke="rgb(60, 60, 60)" stroke-width="1px" opacity="0.25"></line><line x1="0" y1="158.13333299424912" x2="278.4679985046387" y2="158.13333299424912" fill="rgb(0, 0, 0)" stroke="rgb(60, 60, 60)" stroke-width="1px" opacity="0.25"></line><line x1="0" y1="138.366666369968" x2="278.4679985046387" y2="138.366666369968" fill="rgb(0, 0, 0)" stroke="rgb(60, 60, 60)" stroke-width="1px" opacity="0.25"></line><line x1="0" y1="118.59999974568684" x2="278.4679985046387" y2="118.59999974568684" fill="rgb(0, 0, 0)" stroke="rgb(60, 60, 60)" stroke-width="1px" opacity="0.25"></line><line x1="0" y1="98.83333312140572" x2="278.4679985046387" y2="98.83333312140572" fill="rgb(0, 0, 0)" stroke="rgb(60, 60, 60)" stroke-width="1px" opacity="0.25"></line><line x1="0" y1="79.06666649712456" x2="278.4679985046387" y2="79.06666649712456" fill="rgb(0, 0, 0)" stroke="rgb(60, 60, 60)" stroke-width="1px" opacity="0.25"></line><line x1="0" y1="59.29999987284343" x2="278.4679985046387" y2="59.29999987284343" fill="rgb(0, 0, 0)" stroke="rgb(60, 60, 60)" stroke-width="1px" opacity="0.25"></line><line x1="0" y1="39.5333332485623" x2="278.4679985046387" y2="39.5333332485623" fill="rgb(0, 0, 0)" stroke="rgb(60, 60, 60)" stroke-width="1px" opacity="0.25"></line><line x1="0" y1="19.76666662428115" x2="278.4679985046387" y2="19.76666662428115" fill="rgb(0, 0, 0)" stroke="rgb(60, 60, 60)" stroke-width="1px" opacity="0.25"></line><line x1="0" y1="0" x2="278.4679985046387" y2="0" fill="rgb(0, 0, 0)" stroke="rgb(60, 60, 60)" stroke-width="1px" opacity="0.25"></line></g></g></g><g><g><line x1="0" y1="158.13333299424912" x2="278.4679985046387" y2="158.13333299424912" fill="rgb(0, 0, 0)" stroke="rgb(153, 153, 153)" stroke-width="1.5px"></line></g></g><g><g><line x1="-46.411333084106445" y1="0" x2="-46.411333084106445" y2="177.89999961853027" fill="rgb(0, 0, 0)" stroke="rgb(153, 153, 153)" stroke-width="1.5px"></line></g></g><g><g><g><g><g><path style="fill: none;" stroke="rgb(204, 51, 17)" stroke-width="2px" d="M159.43453197717665,130.52963034436075L160.85239820289613,62.96429299832937L162.25866159534453,107.53151497079978L163.66492498779297,105.29744244499881L165.07118838024138,127.94065124456026L166.47745177268982,133.98855012857808L167.88371516513826,136.47399980111604L169.28997855758666,145.00306642387957L170.6962419500351,129.00322990152588L172.1025053424835,139.23317850241673L173.50876873493195,146.70156091565693L174.91503212738036,151.04977158603563L176.3212955198288,153.8071496848195L177.72755891227723,148.1334578357212L179.13382230472564,151.48361541048388L180.54008569717408,153.496875708913L181.95795192289353,133.63088729421037L183.36421531534197,142.45769474862576L184.77047870779037,130.949022868295L186.179062666893,122.82960129887303L187.5853260593414,135.2961053981879L188.99158945178985,107.61214370356441L190.3978528442383,127.1299016953896L191.81571906995774,115.39158821316666L193.22198246240617,128.76710885285692L194.63056642150877,139.99327926012006L196.04843264722825,144.99274627632582L197.45469603967666,150.07752342814533L198.8609594321251,153.25504762696838L200.2672228245735,154.86366824029136L201.67348621702195,156.05919149369612L203.09135244274137,156.87694778260934L204.4976158351898,157.2544632039621L205.91548206090928,157.05585804071816L207.3217454533577,157.4031646393674L208.72800884580613,120.8477528286276L210.13427223825454,135.21876298924707L211.55213846397402,140.7920034860528L212.95840185642243,147.40128186250033L214.36466524887086,127.77114486825063L215.77092864131927,139.0221521200929L217.18879486703872,145.90910230929117L218.60666109275817,148.08890631226333L220.0129244852066,151.9152965675422L221.41918787765505,154.34911926254404L222.82545127010346,155.37103373771504L224.2317146625519,156.38984125057559L225.64958088827132,121.79491407599254L227.05584428071975,135.9852001620816L228.46210767316816,144.236937369038L229.87997389888764,149.49230664594657L231.28623729133605,153.10376535594185L232.6925006837845,154.87532747152122L234.09876407623292,138.9623605509473L235.50502746868133,146.3245141548847L236.91129086112977,150.4147909611326L238.31755425357818,126.5618239488246L239.72381764602662,138.95250362590025L241.13008103847503,118.23379223998178L242.53634443092346,134.08025994220745L243.94492839002612,143.57881057062608L245.36279461574554,148.24921101127592L246.76905800819398,151.8768497900541L248.1753214006424,154.21243024685452L249.58158479309083,155.337090539781L250.98784818553924,156.46512114779347L252.39411157798767,155.25176201997525L253.8026955370903,156.25399421101065L255.20895892953874,131.65612676546542L256.6152223219872,142.09101060386055L258.0330885477066,120.18520288858322" fill="none"></path></g><g><path style="fill: none;" stroke="rgb(255, 112, 67)" stroke-width="2px" d="M7.416531026840209,54.72861795610925L8.089495356559754,68.79293063979286L8.488632821083069,37.70247090236493L8.734612886428833,90.43231171056085L9.317075116634369,59.00731691849112L9.799752980709076,64.65342845377268L10.540013743400575,43.87370916305688L11.456637571811676,90.3582857356246L12.136563601493837,60.50645572263456L12.3825436668396,101.01192237053267L12.628523732185364,86.27788117328444L12.983570430278778,45.376921365495875L13.347899394989014,52.89173525157446L13.593879460334778,33.8540975803349L15.396959750652314,32.30230196710554L15.642939815998078,58.38712912059312L16.819467109680176,46.21115013129125L17.34391517353058,40.16935538343027L17.917095137119293,40.810357285382096L18.299988635063173,45.44669249632728L18.873168598651887,58.937531264214336L19.11914866399765,83.03034190768318L19.365128729343414,118.46001225347425L19.61110879468918,82.99276634776L20.0125668258667,80.76013241127946L20.369934090614322,79.51903606307395L20.93151122093201,54.67777780676297L21.43275361824036,44.80905322698201L21.67873368358612,44.98101171525776L21.924713748931886,73.03319750884022L22.33545404672623,71.66354506430076L22.702103578090668,50.956284386289596L22.948083643436433,57.27485498856929L23.36114450788498,58.06782928043185L23.799731605529786,62.289794948311794L24.22439530324936,43.27596131266155L24.47037536859512,59.41618672147506L24.966976632595063,57.359487771453644L25.21295669794083,84.04607169985688L25.45893676328659,114.90533565531979L26.15278619289398,76.99232567699838L26.728286723136904,71.95675192005126L27.136706454277036,55.2740163312289L27.3826865196228,84.52275516966871L27.628666584968567,80.95452608250635L27.87464665031433,91.82260471187539L28.13222954893112,76.79040209990326L28.378209614276887,115.91657722451089L28.624189679622653,135.2758872075268L29.11614981031418,93.38346683014416L29.666124107360837,72.97589720954144L29.912104172706602,101.20438441372022L30.26715087080002,78.73366379807396L30.622197568893434,53.86196543107492L30.8681776342392,43.724117090852964L31.237147732257842,40.157653382893784L32.3974310593605,31.722552857417718L32.76176002407074,30.959021817078025L33.01934292268753,46.33729498936207L33.2653229880333,81.60115144173011L33.62269025278091,78.79657684158971L33.868670318126675,107.3338639099588L34.36527158212662,77.50043075926529L34.61125164747238,73.15863801195421L34.85723171281815,77.87087441363747L35.72976477479935,67.57250329203193L35.97574484014511,101.02137854172616L36.22404547214508,72.00272368734845L36.586053870201106,50.946951705769926L36.832033935546875,51.75529912769891L37.19868346691131,74.78052806732495L37.57925639820098,72.30628029827213L37.9319825296402,88.7899493030048L38.66296102571488,72.72479210326601L39.10386869001388,63.63955319344675L39.34984875535965,48.26538583433295L39.595828820705414,84.96279446789563L39.84180888605118,99.90888289276246L40.266472583770756,75.85932528856425L40.62151928186417,62.74127367070941L40.86749934720993,89.73836189741384L41.1134794125557,55.586932854694794L41.35945947790145,89.08068831862478L41.60543954324722,69.85709078350705L41.851419608592984,104.60735002886275L42.33177690601349,68.09333576170955L43.30177376747131,43.82445683205395L43.54775383281708,31.460015905694302L44.17430682945251,18.566046940830088L44.608252793788914,16.42074786854652L44.854232859134676,50.01931002924483L45.20695899057388,40.86196803939059L46.211764351844785,57.92994263810744L46.62714578294754,55.839905317576005L47.18408177995681,41.42987175351631L47.43006184530258,73.46467710502846L47.676041910648344,102.77199625205718L48.72493803834915,83.80295923431845L49.54177750062942,45.212392672522014L50.06622556447982,61.18166267520912L50.31220562982559,88.58055452815174L50.6649317612648,110.19340487016854L51.01765789270401,102.63220095489521L51.26363795804977,104.48576866558227L51.64653145599365,116.48399597894564L51.892511521339415,121.41627970231478L52.138491586685184,123.51577860831623L52.57707868432998,91.416850445825L52.82305874967575,93.0336335576327L53.180426014423375,79.04165224798638L53.43800891304016,103.67623357493629L53.683988978385926,106.44860953570877L53.92996904373169,78.04269905437535L54.50779014062881,53.259107886364305L54.753770205974575,88.18845922647549L55.22716580343246,73.06265138894182L55.473145868778225,111.82358771196037L55.719125934123994,98.3271611785583L55.97670883274078,86.09837607546774L56.34103779745102,67.2260268227489L56.77266319513321,60.32659880103967L57.12770989322662,52.06844501458883L57.37368995857239,63.28419095140108L57.619670023918154,82.98881593862745L57.98631955528259,94.151383104493L58.40170098638534,74.1602411613883L58.65928388500214,104.42393722395718L58.905263950347894,82.75215930678677L59.52717581367492,67.78969526060159L59.77315587902069,56.05292608003851L60.181575610160834,39.64044709225134L60.42755567550659,28.4382070188445L60.94504203939437,24.134814640898064L61.297768170833585,16.276314755216934L61.72011130189895,18.10020363049851L61.96609136724472,17.868597970778698L62.212071432590484,76.53297757006597L62.69242873001098,66.61567270746734L63.049795994758604,46.034761061323955L63.30737889337539,83.26822124631826L64.07084532260895,60.00729295192612L64.31682538795471,102.42521259715188L64.71364228582382,64.6409769430791L65.29146338272095,61.858196043866194L65.64883064746856,65.85623425990322L66.02476244544982,51.32492313604081L66.38909141016006,39.52674694386668L67.13167273950577,44.323386649175475L67.50296340417862,30.74953245933919L68.4126255326271,35.36991341667764L68.65860559797287,79.24903928686376L69.29212029457092,69.64382021447426L69.53810035991668,100.61448328409676L69.78408042526245,86.76496810367478L70.03006049060822,75.66543675278596L70.39671002197267,63.879462663531314L70.74943615341186,51.60016321050241L70.99541621875763,92.97277978339523L71.2413962841034,108.27342207190634L71.48737634944915,85.35633052282175L71.73335641479493,92.51208966514747L72.17194351243973,55.71671061118005L72.41792357778549,54.37397234478542L72.80777877569199,39.64878826247792L73.19067227363585,12.046753122398506L73.43665233898163,15.380144856370611L73.68263240432739,10.296242759717147L73.94021530294418,12.755641906119468L74.18619536828996,23.513118201653928L74.63638529920578,14.510314459430969L74.88236536455155,55.47217336014068L75.12834542989731,68.06921940684812L75.37432549524307,88.06464862933868L75.63190839385986,89.10056289990253L76.11922739124297,97.07691925447182L76.55781448888779,68.487058400294L76.81539738750458,64.46699846610792L77.1750852189064,78.60902928706527L77.43266811752319,69.48860834379408L77.79003538227082,75.07228963493021L78.03601544761658,76.79345008947375L78.3957032790184,86.3809086238433L78.65328617763518,60.92553321606849L79.44924054002762,58.01647975980973L79.69522060537338,59.607057709806476L79.95280350399018,89.47465461378613L80.19878356933593,112.21552869893351L80.55150970077514,64.81205774142045L80.79748976612092,67.19782092854712L81.15253646421432,51.375822507783795L81.50990372896194,38.63308515192489L81.7558837943077,78.53505759632927L82.00186385965347,44.416745257591515L82.35691055774689,30.247200972601448L83.16910888671876,21.054171912855388L83.41508895206451,62.359092723981796L83.85831718301772,53.59038149444253L84.1042972483635,77.73195377745998L84.35027731370926,78.60333424087115L84.7192474117279,68.2383132669935L84.96522747707367,86.08163033662643L85.21120754241943,67.25075469211119L85.81455487251282,62.00694160384574L86.06053493785858,48.220652238286114L86.5478539352417,24.173573365733972L86.79383400058745,32.483276628402194L87.1535218319893,41.25762831566984L87.39950189733506,70.0419357854486L87.6454819626808,93.827917094712L87.89146202802658,88.55574599403059L88.38574272537232,67.18813503767076L88.7755979232788,62.870884093064404L89.02157798862457,52.31529033894569L89.26755805397033,43.52247260143506L89.52514095258714,38.65254420927678L89.94516351699829,41.49694572790122L90.19114358234407,42.69816406389115L90.61116614675522,26.395887033584813L90.96621284484863,20.902271153662124L91.32125954294206,22.57171371661568L91.5672396082878,27.578657348356174L91.81321967363357,66.99714253539233L92.05919973897934,66.76166094047713L92.61845630264283,51.252360621345L92.86443636798859,41.79738655379244L93.11041643333435,73.41680130065065L93.35639649868011,68.78102720381952L93.60237656402587,66.14552810302933L93.95742326211929,65.81761262999643L94.20340332746505,55.730279482668976L94.44938339281082,89.5751577679189L94.69536345815659,113.61974632520669L94.94134352350234,90.60920941973106L95.18964415550232,68.3535183885425L95.43562422084808,48.63075005996111L95.68160428619385,42.094101070611316L95.93918718481065,86.47036360563634L96.4938026151657,56.322151377585676L96.73978268051147,74.60487860836567L96.98576274585724,59.47858589671443L97.23406337785721,41.07987836425905L97.48004344320297,53.18779755646849L97.73762634181976,92.14068441717434L97.98360640716552,88.183236323753L98.2295864725113,57.95074000566678L98.48716937112809,80.1329568733187L98.73314943647384,101.82724096551532L99.09283726787567,62.829571799942606L99.33881733322144,51.13279939105659L99.5847973985672,34.43247171000922L99.83077746391297,34.68013034211983L100.07675752925873,31.414769124974438L100.44108649396897,49.14326647619688L100.82165942525863,42.705252795286626L101.17670612335205,27.15069604836241L101.42268618869782,66.91780043786167L101.66866625404357,60.551115296321846L101.91464631938935,45.211681744707484L102.27433415079118,21.208819187408906L102.52031421613692,33.5912133576436L102.7662942814827,24.508856361229558L103.19559911251068,15.456335211446401L103.44157917785644,41.63746211939338L103.79430530929567,38.00226573464897L104.04028537464141,92.12764795567975L104.28626543998718,82.1494427967795L104.53224550533295,76.1376435003399L104.78982840394974,63.47738928724607L105.0358084692955,76.15540192107679L105.39781686735154,52.03989736138042L105.6437969326973,52.59762506927461L105.88977699804305,52.42637255750993L106.13575706338882,66.31267273996107L106.61611436080933,69.54997322400456L107.01061069202423,50.04901632655015L107.25659075736999,62.859387042389386L107.50257082271575,75.5698904701577L107.74855088806153,109.95214560652595L108.00613378667832,111.33747852784919L108.25211385202408,112.30173897608547L108.50041448402405,66.59261508394124L108.74639454936981,53.26600164981908L108.99237461471559,53.59695605175572L109.23835468006133,60.42764125327386L109.48433474540711,52.45924037753246L109.7419176440239,78.62866994517191L109.98789770936966,54.031566430198765L110.23387777471542,80.68743931298677L110.47985784006119,79.52201954356917L110.72583790540695,44.777611693272085L111.13425763654709,28.488587697363204L111.38023770189287,66.0465181366038L111.62621776723861,95.53818397148716L111.87219783258438,76.9515163296232L112.12978073120118,88.32788133206931L112.38736362981797,83.6091071194614L112.63334369516372,94.5989439893384L112.8793237605095,114.84599132571246L113.12530382585526,104.03427667496626L113.37128389120102,98.3614727855614L113.61726395654678,82.00651722513634L113.86324402189254,84.78824409501617L114.10922408723832,141.12263670001008L114.46195021867753,88.51566639096367L114.70793028402328,89.42005881481154L114.95623091602326,84.38172079100823L115.20221098136902,97.98703987680346L115.4481910467148,102.32784409217285L115.69417111206054,117.32960423412068L115.9401511774063,114.91907478232474L116.19773407602311,71.67531843431415L116.44371414136887,92.07951142187716L116.68969420671462,74.1546319853901L116.9356742720604,81.7614134417508L117.18165433740616,64.12402540313133L117.43923723602295,77.0108662478328L117.69682013463975,86.87597363128894L117.9428001999855,111.24470105687604L118.18878026533126,86.105537353886L118.43476033067704,93.98876970926877L118.6807403960228,82.81365976501593L118.92672046136856,89.16325748424428L119.18430335998535,85.77063602636564L119.43028342533111,77.73045199819583L119.67626349067689,92.15254374067563L119.92224355602264,60.44737187861849L120.16822362136841,42.250685522282026L120.52327031946183,62.22392703811553L120.77157095146178,60.15462801879987L121.26121051549912,59.6546077614024L121.50951114749908,74.1919335299874L121.75549121284484,76.3245368411021L122.10821734428406,53.25077629456776L122.35419740962982,84.60389110224037L122.61178030824662,67.18605552157628L122.85776037359237,93.46062687309806L123.10374043893815,107.28218068113407L123.35204107093811,80.28203152163329L123.6096239695549,96.48728343860874L123.85560403490067,86.21317828115671L124.11318693351745,68.02616053672737L124.37076983213424,61.18513566091147L124.61674989748002,74.56025459419575L124.86505052947999,99.00159337954967L125.11103059482573,99.15386669875802L125.35701066017151,97.79403177378067L125.60299072551727,103.27727765420403L125.84897079086305,79.7912653408454L126.0949508562088,90.32015988717606L126.34093092155456,106.59143738452191L126.58691098690034,109.21469646545995L126.8328910522461,88.54125638469435L127.09047395086287,85.65227681296575L127.33645401620865,108.72684732956242L127.58475464820862,98.88181626585175L127.8330552802086,101.54826475659164L128.07903534555436,100.73548873081991L128.3250154109001,77.98825811169121L128.57099547624588,58.23417317413629L128.82857837486267,35.06020185967453L129.08616127347946,17.374193506266018L129.3321413388252,55.17880149751144L129.74752276992797,40.4354454475616L129.99350283527374,64.41102604112486L130.3624729332924,51.90146616184509L130.60845299863817,71.54242370376527L130.85443306398392,73.86598538111805L131.1120159626007,103.29882218480046L131.35799602794648,89.72569856996193L131.60397609329223,57.54508964113568L131.849956158638,77.36986574140803L132.09593622398376,73.70769672786088L132.34191628932953,114.11838178187861L132.5878963546753,128.82423361840662L133.00791891908645,92.83288317310524L133.25389898443223,102.64757217783593L133.49987904977797,108.14260193867035L133.74585911512375,119.08908697880915L133.99415974712372,101.65372490834982L134.4257851448059,81.4792430228881L134.67176521015168,100.73626479595625L134.91774527549742,71.55670472954368L135.1637253408432,92.38391798964096L135.40970540618898,97.22924829956108L135.65568547153472,88.55017615020559L135.9016655368805,108.36197506183666L136.14764560222625,102.60194049958231L136.39362566757202,109.03036763751507L136.6396057329178,117.10619269662568L136.88558579826355,75.35932771496164L137.13156586360932,71.67564521121847L137.37754592895507,83.51716684806533L137.62352599430085,106.66613147077211L137.8695060596466,111.91223564573474L138.11548612499237,112.68279534169145L138.36146619033815,113.71680897594061L138.6074462556839,121.75541602212996L138.8650291543007,81.95961672445966L139.11100921964646,101.09282964609184L139.3569892849922,107.20209468164202L139.60528991699218,119.25523267107515L139.85126998233795,89.302370588374L140.0972500476837,91.69127372619944L140.34323011302948,97.02252097808343L140.58921017837525,71.79896187501522L140.83519024372103,65.09683827755768L141.08117030906678,78.38761866837159L141.33875320768357,73.0195171829097L141.59633610630033,55.922081224939724L141.8423161716461,62.66046725915322L142.09989907026292,81.82016211448186L142.54312730121615,49.79712231543326L142.7891073665619,52.468214702565696L143.20448879766465,73.34067252081691L143.6686021285057,45.56447993183624L143.91458219385146,70.17042968822912L144.16056225919723,96.93251685874499L144.406542324543,114.21621276702656L144.65252238988876,113.44478819851794L144.89850245523454,106.86856167709254L145.15608535385132,115.29402660520377L145.40206541919707,97.37644606578232L145.65036605119704,75.86153171862378L145.89634611654282,104.66537154114086L146.1539290151596,117.51826718396256L146.39990908050538,113.30043346933137L146.64588914585113,126.64308823951583L146.89186921119688,132.8986744038301L147.13784927654265,127.91994579863882L147.38382934188843,133.54748764832812L147.6298094072342,138.38568102782062L147.87578947257995,140.5510437308088L148.12176953792573,127.75073713320205L148.3677496032715,129.1893998497129L148.61372966861722,131.44905084528884L148.859709733963,124.40493865794046L149.10568979930878,124.9565328563392L149.35166986465455,121.12810937750719L149.5976499300003,118.85001346733651L149.84362999534608,116.22993334515742L150.08961006069185,115.02593381578555L150.3355901260376,113.63101659332295L150.58157019138335,118.4057090754027L150.82755025672913,124.08782208481004L151.0758508887291,109.03464358614458L151.32415152072906,115.61821974739182L151.57013158607484,113.91051067273725L151.8161116514206,118.84374952948681L152.06441228342055,87.91846606250785L152.32199518203737,110.3362854675437L152.57957808065413,101.41176734423416L152.83716097927092,103.77774612393786L153.0831410446167,104.31035084542516L153.34072394323348,105.21595239369505L153.58670400857926,107.63828534434025L153.83268407392504,110.42990903609726L154.07866413927076,124.06281326785651L154.32464420461653,120.02714285278742L154.5706242699623,125.35181543451641L154.81660433530809,85.95195661718472L155.06258440065383,99.05144871386092L155.3085644659996,110.44001465615547L155.55454453134539,114.3093882590083L155.80052459669113,117.74747597819191L156.04650466203688,117.48809388276905L156.29248472738266,119.34272888674198L156.54078535938265,118.72192002310544L156.7983682579994,119.05400709293588L157.0443483233452,133.9772841235893L157.29032838869097,140.20441152069532L157.5363084540367,127.6371080515332L157.7822885193825,122.72312804247642L158.02826858472824,123.51740773185078L158.28585148334503,109.17268686046351" fill="none"></path></g></g></g></g><g opacity="0.2"><g><g><g><path style="fill: none;" stroke="rgb(204, 51, 17)" stroke-width="2px" d="M159.43453197717665,130.52963034436075L160.85239820289613,22.425090590710532L162.25866159534453,150.31604806437133L163.66492498779297,102.67017315465687L165.07118838024138,157.50362465326765L166.47745177268982,142.354971528773L167.88371516513826,140.02823260004007L169.28997855758666,157.43852743890835L170.6962419500351,105.4065788393003L172.1025053424835,154.42345993560997L173.50876873493195,157.83639685670204L174.91503212738036,157.54842482115248L176.3212955198288,157.93421351508664L177.72755891227723,139.63403541505107L179.13382230472564,156.50491378815883L180.54008569717408,156.5153462494131L181.95795192289353,103.84031129266722L183.36421531534197,155.69566480479233L184.77047870779037,113.68776827812506L186.179062666893,110.6512110920326L187.5853260593414,153.9951778544475L188.99158945178985,66.08711211418104L190.3978528442383,156.40615333904307L191.81571906995774,97.78425704134615L193.22198246240617,148.8302947449162L194.63056642150877,156.8324869965261L196.04843264722825,152.49193400836856L197.45469603967666,157.7046813495439L198.8609594321251,158.02133099825417L200.2672228245735,157.27659827121565L201.67348621702195,157.85247597735477L203.09135244274137,158.10358205327302L204.4976158351898,157.82073629092346L205.91548206090928,156.75795031007797L207.3217454533577,157.9241245224151L208.72800884580613,66.01463605513807L210.13427223825454,156.7752780078332L211.55213846397402,149.1518641795251L212.95840185642243,157.31519939035934L214.36466524887086,98.3259394424775L215.77092864131927,155.89866297529662L217.18879486703872,156.23952758480308L218.60666109275817,151.35861231514812L220.0129244852066,157.65488194880328L221.41918787765505,157.99985330441433L222.82545127010346,156.9039054503122L224.2317146625519,157.91805251977107L225.64958088827132,69.9025233160598L227.05584428071975,157.2706292907373L228.46210767316816,156.61454317930588L229.87997389888764,157.37536056124569L231.28623729133605,158.52095342090848L232.6925006837845,157.53267064488253L234.09876407623292,115.09291017012806L235.50502746868133,157.36774456077922L236.91129086112977,156.55020617050067L238.31755425357818,90.78237343037605L239.72381764602662,157.5385231415095L241.13008103847503,87.15572516110835L242.53634443092346,157.84996149554402L243.94492839002612,157.8266365132533L245.36279461574554,155.2548116722504L246.76905800819398,157.31830795822134L248.1753214006424,157.71580093205512L249.58158479309083,157.02408097917063L250.98784818553924,158.15716705981222L252.39411157798767,153.4317233282478L253.8026955370903,157.75734249756374L255.20895892953874,94.75932559714764L256.6152223219872,157.7433363614533L258.0330885477066,87.3264913156672" fill="none"></path></g><g><path style="fill: none;" stroke="rgb(255, 112, 67)" stroke-width="2px" d="M7.416531026840209,54.72861795610925L8.089495356559754,77.231518250003L8.488632821083069,7.855629554434129L8.734612886428833,152.44260450099927L9.317075116634369,17.978843717964878L9.799752980709076,72.46403330721978L10.540013743400575,14.158378101824653L11.456637571811676,158.13324463036344L12.136563601493837,16.480804872935938L12.3825436668396,161.15781967355633L12.628523732185364,64.31045604664571L12.983570430278778,-15.75193712909936L13.347899394989014,64.13941890950407L13.593879460334778,5.334937787537228L15.396959750652314,29.976432624752714L15.642939815998078,97.49597280974527L16.819467109680176,27.952334113582424L17.34391517353058,31.108197272670736L17.917095137119293,41.77176248812177L18.299988635063173,52.4007715333423L18.873168598651887,79.17304954638453L19.11914866399765,119.16876508868965L19.365128729343414,171.60381827512424L19.61110879468918,29.792317632528963L20.0125668258667,77.41119737516513L20.369934090614322,77.65739683347472L20.93151122093201,17.41595398426791L21.43275361824036,30.005981508127476L21.67873368358612,45.23894928927323L21.924713748931886,115.11146069519725L22.33545404672623,69.60906685168318L22.702103578090668,19.895397489324683L22.948083643436433,66.7527101376784L23.36114450788498,59.25729066142658L23.799731605529786,68.62274326868526L24.22439530324936,14.755211349478008L24.47037536859512,83.62652458497962L24.966976632595063,54.27443936551388L25.21295669794083,124.07594744382308L25.45893676328659,161.19423148538635L26.15278619289398,20.122810785536558L26.728286723136904,64.40339129068877L27.136706454277036,30.24991296003768L27.3826865196228,128.3958634146606L27.628666584968567,75.60218245269009L27.87464665031433,108.12472265423443L28.13222954893112,54.242098183351324L28.378209614276887,174.60583990922618L28.624189679622653,164.31485218139863L29.11614981031418,30.54483626491674L29.666124107360837,42.36454277888483L29.912104172706602,143.54711521978302L30.26715087080002,45.02758287470267L30.622197568893434,16.55441788064145L30.8681776342392,28.51734458053595L31.237147732257842,34.80795782095838L32.3974310593605,19.069902069208343L32.76176002407074,29.813725256568794L33.01934292268753,69.40470474778496L33.2653229880333,134.49693612027787L33.62269025278091,74.58971494137934L33.868670318126675,150.13979451251114L34.36527158212662,32.75028103322586L34.61125164747238,66.64594889098768L34.85723171281815,84.93922901616227L35.72976477479935,52.124946609623706L35.97574484014511,151.19469141626737L36.22404547214508,28.474741405781923L36.586053870201106,19.36329373340213L36.832033935546875,52.967820260592426L37.19868346691131,109.31837147676404L37.57925639820098,68.5949086446929L37.9319825296402,113.51545281010377L38.66296102571488,48.62705630365781L39.10386869001388,50.01169482871787L39.34984875535965,25.204134795662252L39.595828820705414,140.00890741823966L39.84180888605118,122.32801553006274L40.266472583770756,39.78498888226695L40.62151928186417,43.06419624392713L40.86749934720993,130.23399423747045L41.1134794125557,4.359789290616252L41.35945947790145,139.32132151451975L41.60543954324722,41.021694480830455L41.851419608592984,156.7327388968963L42.33177690601349,13.322314360979771L43.30177376747131,7.421138437570493L43.54775383281708,12.913354516154845L44.17430682945251,-0.7749065064662305L44.608252793788914,13.202799260121148L44.854232859134676,100.41715327029226L45.20695899057388,27.125955054609175L46.211764351844785,83.53190453618274L46.62714578294754,52.70484933677887L47.18408177995681,19.814821407426802L47.43006184530258,121.51688513229672L47.676041910648344,146.73297497260026L48.72493803834915,55.349403707710344L49.54177750062942,-12.673457170172654L50.06622556447982,85.13556767923983L50.31220562982559,129.67889230756563L50.6649317612648,142.61268038319372L51.01765789270401,91.29039508198522L51.26363795804977,107.26612023161287L51.64653145599365,134.4813369489907L51.892511521339415,128.8147052873685L52.138491586685184,126.66502696731838L52.57707868432998,43.26845820208823L52.82305874967575,95.45880822534427L53.180426014423375,58.05368028351686L53.43800891304016,140.62810556536118L53.683988978385926,110.60717347686753L53.92996904373169,35.43383333237521L54.50779014062881,16.08372113434775L54.753770205974575,140.58248623664227L55.22716580343246,50.373939632641324L55.473145868778225,169.96499219648823L55.719125934123994,78.0825213784552L55.97670883274078,67.75519842083187L56.34103779745102,38.917502943670705L56.77266319513321,49.977456768475825L57.12770989322662,39.681214334912575L57.37368995857239,80.10780985661945L57.619670023918154,112.545753419467L57.98631955528259,110.89523385329133L58.40170098638534,44.1735282467313L58.65928388500214,149.81948131781047L58.905263950347894,50.244492431031134L59.52717581367492,45.345999191323855L59.77315587902069,38.447772309193894L60.181575610160834,15.021728610570605L60.42755567550659,11.634846908734243L60.94504203939437,17.679726073978372L61.297768170833585,4.488564926695197L61.72011130189895,20.836036943420865L61.96609136724472,17.52118948119903L62.212071432590484,164.52954696899684L62.69242873001098,51.739715413569414L63.049795994758604,15.163393592108875L63.30737889337539,139.11841152380973L64.07084532260895,25.115900510337884L64.31682538795471,166.05209206499052L64.71364228582382,7.964623461969927L65.29146338272095,57.68402469504686L65.64883064746856,71.8532915839588L66.02476244544982,29.52795645024721L66.38909141016006,21.829482655605396L67.13167273950577,51.518346207138734L67.50296340417862,10.38875117458474L68.4126255326271,42.30048485268526L68.65860559797287,145.06772809214294L69.29212029457092,55.235991605890035L69.53810035991668,147.0704778885305L69.78408042526245,65.99069533304177L70.03006049060822,59.01613972645275L70.39671002197267,46.20050152964939L70.74943615341186,33.18121403095904L70.99541621875763,155.03170464273452L71.2413962841034,131.224385504673L71.48737634944915,50.98069319919484L71.73335641479493,103.24572837863609L72.17194351243973,0.5236420302288921L72.41792357778549,52.35986494519352L72.80777877569199,17.56101213901668L73.19067227363585,-29.356299587720603L73.43665233898163,20.38023245732879L73.68263240432739,2.670389614736971L73.94021530294418,16.444740625722986L74.18619536828996,39.6493326449556L74.63638529920578,1.0061088460965024L74.88236536455155,116.91496171120522L75.12834542989731,86.96478847690932L75.37432549524307,118.0577924630745L75.63190839385986,90.65443430574831L76.11922739124297,109.04145378632573L76.55781448888779,25.60226711902728L76.81539738750458,58.43690856482883L77.1750852189064,99.82207551850126L77.43266811752319,55.80797692888736L77.79003538227082,83.44781157163439L78.03601544761658,79.37519077128907L78.3957032790184,100.76209642539759L78.65328617763518,22.74247010440631L79.44924054002762,53.652899575421564L79.69522060537338,61.992924634801625L79.95280350399018,134.2760499697556L80.19878356933593,146.32683982665455L80.55150970077514,-6.293148694849151L80.79748976612092,70.77646570923714L81.15253646421432,27.64282487663877L81.50990372896194,19.518979118136553L81.7558837943077,138.38801626293585L82.00186385965347,-6.760723250515138L82.35691055774689,8.99288454511634L83.16910888671876,7.2646283232362965L83.41508895206451,124.3164739406714L83.85831718301772,40.43731465013366L84.1042972483635,113.94431220198611L84.35027731370926,79.91040493598791L84.7192474117279,52.69078180617701L84.96522747707367,112.84660594107588L85.21120754241943,39.00444122533827L85.81455487251282,54.141221971447585L86.06053493785858,27.541218189946655L86.5478539352417,-11.897044943094265L86.79383400058745,44.94783152240454L87.1535218319893,54.419155846571314L87.39950189733506,113.21839699011672L87.6454819626808,129.50688905860713L87.89146202802658,80.64748934300852L88.38574272537232,35.13671860313102L88.7755979232788,56.39500767615484L89.02157798862457,36.48189970776762L89.26755805397033,30.33324599516909L89.52514095258714,31.34765162103931L89.94516351699829,45.763548005837855L90.19114358234407,44.49999156787601L90.61116614675522,1.942471488125282L90.96621284484863,12.661847333778153L91.32125954294206,25.075877561046013L91.5672396082878,35.08907279596694L91.81321967363357,126.1248703159466L92.05919973897934,66.4084385481043L92.61845630264283,27.988410142646806L92.86443636798859,27.61492545246358L93.11041643333435,120.84592342093799L93.35639649868011,61.827366058572785L93.60237656402587,62.19227945184407L93.95742326211929,65.32573942044709L94.20340332746505,40.5992797616778L94.44938339281082,140.3424751957938L94.69536345815659,149.68662916113834L94.94134352350234,56.09340406151762L95.18964415550232,34.96998184175963L95.43562422084808,19.04659756708902L95.68160428619385,32.28912758658669L95.93918718481065,153.0347574081739L96.4938026151657,11.099833035509619L96.73978268051147,102.02896945453567L96.98576274585724,36.789146829237595L97.23406337785721,13.481817065576001L97.48004344320297,71.3496763447827L97.73762634181976,150.5700147082331L97.98360640716552,82.247064183621L98.2295864725113,12.601995528537438L98.48716937112809,113.4062821747966L98.73314943647384,134.3686671038102L99.09283726787567,4.333068051583584L99.33881733322144,33.58764077772751L99.5847973985672,9.381980188438158L99.83077746391297,35.051618290285795L100.07675752925873,26.516727299256353L100.44108649396897,75.73601250303052L100.82165942525863,33.048232273921236L101.17670612335205,3.8188609279761057L101.42268618869782,126.56845702211058L101.66866625404357,51.00108758401209L101.91464631938935,22.202531417285897L102.27433415079118,-14.79547464853895L102.52031421613692,52.16480461299563L102.7662942814827,10.885320866608481L103.19559911251068,1.8775534867716692L103.44157917785644,80.90915248131384L103.79430530929567,32.54947115753239L104.04028537464141,173.31572128722593L104.28626543998718,67.18213505842914L104.53224550533295,67.11994455568049L104.78982840394974,44.48700796760529L105.0358084692955,95.17242087182285L105.39781686735154,15.866640521835892L105.6437969326973,53.43421663111587L105.88977699804305,52.16949378986292L106.13575706338882,87.1421230136378L106.61611436080933,74.40592395006976L107.01061069202423,20.797580980368547L107.25659075736999,82.07494311614823L107.50257082271575,94.63564561181015L107.74855088806153,161.5255283110783L108.00613378667832,113.41547790983405L108.25211385202408,113.74812964843993L108.50041448402405,-1.9710707542751178L108.74639454936981,33.27608149863586L108.99237461471559,54.0933876546607L109.23835468006133,70.67366905555104L109.48433474540711,40.50663906392035L109.7419176440239,117.88281429663108L109.98789770936966,17.13591115773904L110.23387777471542,120.67124863716877L110.47985784006119,77.77388988944274L110.72583790540695,-7.339000082173605L111.13425763654709,4.055051703499862L111.38023770189287,122.38341379546469L111.62621776723861,139.7756827238122L111.87219783258438,49.071514866827286L112.12978073120118,105.39242883573847L112.38736362981797,76.53094580054952L112.63334369516372,111.08369929415392L112.8793237605095,145.21656233027352L113.12530382585526,87.81670469884698L113.37128389120102,89.85226695145414L113.61726395654678,57.47408388449876L113.86324402189254,88.96083439983587L114.10922408723832,225.62422560750093L114.46195021867753,9.605210927394044L114.70793028402328,90.77664745058334L114.95623091602326,76.82421375530335L115.20221098136902,118.39501850549624L115.4481910467148,108.83905041522698L115.69417111206054,139.8322444470424L115.9401511774063,111.30328060463079L116.19773407602311,6.809683912298281L116.44371414136887,122.6858009032217L116.68969420671462,47.26731283065951L116.9356742720604,93.17158562629189L117.18165433740616,37.66794334520216L117.43923723602295,96.34112751488502L117.69682013463975,101.6736347064732L117.9428001999855,147.79779219525665L118.18878026533126,48.39679179940101L118.43476033067704,105.81361824234288L118.6807403960228,66.05099484863668L118.92672046136856,98.68765406308682L119.18430335998535,80.68170383954768L119.43028342533111,65.67017595594116L119.67626349067689,113.78568135439535L119.92224355602264,12.889614085532797L120.16822362136841,14.955655987777298L120.52327031946183,92.18378931186578L120.77157095146178,57.05067948982637L121.26121051549912,58.90457737530621L121.50951114749908,95.99792218286488L121.75549121284484,79.52344180777409L122.10821734428406,18.64013547476627L122.35419740962982,131.63356331374928L122.61178030824662,41.05930215058013L122.85776037359237,132.87248390038073L123.10374043893815,128.01451139318806L123.35204107093811,39.78180778238211L123.6096239695549,120.79516131407192L123.85560403490067,70.8020205449787L124.11318693351745,40.74563392008336L124.37076983213424,50.923598347187635L124.61674989748002,94.6229329941222L124.86505052947999,135.6636015575806L125.11103059482573,99.3822766775705L125.35701066017151,95.75427938631462L125.60299072551727,111.50214647483907L125.84897079086305,44.562246870807485L126.0949508562088,106.11350170667201L126.34093092155456,130.99835363054072L126.58691098690034,113.149585086867L126.8328910522461,57.53109626354596L127.09047395086287,81.31880745537288L127.33645401620865,143.33870310445735L127.58475464820862,84.11426967028578L127.8330552802086,105.5479374927015L128.07903534555436,99.51632469216229L128.3250154109001,43.867412182998166L128.57099547624588,28.60304576780386L128.82857837486267,0.29924488798189774L129.08616127347946,-9.154819023846766L129.3321413388252,111.88571348437954L129.74752276992797,18.320411372636862L129.99350283527374,100.3743969314697L130.3624729332924,33.13712634292542L130.60845299863817,101.00386001664553L130.85443306398392,77.35132789714726L131.1120159626007,147.44807739032404L131.35799602794648,69.36601314770417L131.60397609329223,9.274176247896298L131.849956158638,107.10702989181655L132.09593622398376,68.21444320754014L132.34191628932953,174.73440936290518L132.5878963546753,150.88301137319863L133.00791891908645,38.845857505153226L133.25389898443223,117.36960568493188L133.49987904977797,116.38514657992204L133.74585911512375,135.50881453901735L133.99415974712372,75.50068180266081L134.4257851448059,51.21752019469557L134.67176521015168,129.62179745555844L134.91774527549742,27.78736462992483L135.1637253408432,123.62473787978692L135.40970540618898,104.49724376444124L135.65568547153472,75.53156792617233L135.9016655368805,138.07967342928333L136.14764560222625,93.96188865620074L136.39362566757202,118.67300834441423L136.6396057329178,129.21993028529158L136.88558579826355,12.739030242465537L137.13156586360932,66.15012145560374L137.37754592895507,101.27944930333562L137.62352599430085,141.3895784048322L137.8695060596466,119.78139190817869L138.11548612499237,113.83863488562653L138.36146619033815,115.26782942731435L138.6074462556839,133.813326591414L138.8650291543007,22.2659177779542L139.11100921964646,129.79264902854013L139.3569892849922,116.36599223496731L139.60528991699218,137.33493965522482L139.85126998233795,44.37307746432225L140.0972500476837,95.27462843293765L140.34323011302948,105.0193918559094L140.58921017837525,33.96362322041291L140.83519024372103,55.04365288137137L141.08117030906678,98.32378925459238L141.33875320768357,64.96736495471687L141.59633610630033,30.275927287984814L141.8423161716461,72.76804631047351L142.09989907026292,110.55970439747483L142.54312730121615,1.7625626168603503L142.7891073665619,56.47485328326436L143.20448879766465,104.64935924819379L143.6686021285057,3.900191048365217L143.91458219385146,107.07935432281843L144.16056225919723,137.0756476145188L144.406542324543,140.1417566294489L144.65252238988876,112.28765134575497L144.89850245523454,97.00422189495448L145.15608535385132,127.93222399737064L145.40206541919707,70.50007525665012L145.65036605119704,43.58916019788594L145.89634611654282,147.8711312749165L146.1539290151596,136.79761064819513L146.39990908050538,106.97368289738456L146.64588914585113,146.65707039479253L146.89186921119688,142.2820536503016L147.13784927654265,120.45185289085182L147.38382934188843,141.98880042286206L147.6298094072342,145.64297109705936L147.87578947257995,143.79908778529102L148.12176953792573,108.55027723679193L148.3677496032715,131.34739392447923L148.61372966861722,134.83852733865268L148.859709733963,113.83877037691789L149.10568979930878,125.78392415393729L149.35166986465455,115.38547415925919L149.5976499300003,115.4328696020805L149.84362999534608,112.29981316188876L150.08961006069185,113.21993452172772L150.3355901260376,111.53864075962908L150.58157019138335,125.56774779852233L150.82755025672913,132.61099159892106L151.0758508887291,86.45487583814638L151.32415152072906,125.49358398926266L151.57013158607484,111.34894706075542L151.8161116514206,126.24360781461114L152.06441228342055,41.5305408620394L152.32199518203737,143.9630145750975L152.57957808065413,88.02499015926983L152.83716097927092,107.32671429349341L153.0831410446167,105.10925792765617L153.34072394323348,106.57435471609986L153.58670400857926,111.27178477030802L153.83268407392504,114.61734457373282L154.07866413927076,144.51216961549537L154.32464420461653,113.97363723018375L154.5706242699623,133.33882430710992L154.81660433530809,26.85216839118716L155.06258440065383,118.70068685887523L155.3085644659996,127.52286356959728L155.55454453134539,120.11344866328756L155.80052459669113,122.90460755696738L156.04650466203688,117.09902073963472L156.29248472738266,122.12468139270139L156.54078535938265,117.79070672765064L156.7983682579994,119.55213769768157L157.0443483233452,156.36219966956943L157.29032838869097,149.54510261635434L157.5363084540367,108.78615284779008L157.7822885193825,115.3521580288912L158.02826858472824,124.70882726591228L158.28585148334503,87.65560555338261" fill="none"></path></g></g></g></g></g></g><g transform="translate(51, 177)" clip-path="url(#clip_1)"><clipPath id="clip_1"><rect width="278" height="22"></rect></clipPath><g><g><line x1="0" y1="0" x2="0" y2="5" style="visibility: inherit;" fill="rgb(0, 0, 0)" stroke="rgb(204, 204, 204)" stroke-width="1px"></line><line x1="23.205666542053223" y1="0" x2="23.205666542053223" y2="5" style="visibility: inherit;" fill="rgb(0, 0, 0)" stroke="rgb(204, 204, 204)" stroke-width="1px"></line><line x1="46.411333084106445" y1="0" x2="46.411333084106445" y2="5" style="visibility: inherit;" fill="rgb(0, 0, 0)" stroke="rgb(204, 204, 204)" stroke-width="1px"></line><line x1="69.61699962615967" y1="0" x2="69.61699962615967" y2="5" style="visibility: inherit;" fill="rgb(0, 0, 0)" stroke="rgb(204, 204, 204)" stroke-width="1px"></line><line x1="92.82266616821289" y1="0" x2="92.82266616821289" y2="5" style="visibility: inherit;" fill="rgb(0, 0, 0)" stroke="rgb(204, 204, 204)" stroke-width="1px"></line><line x1="116.02833271026611" y1="0" x2="116.02833271026611" y2="5" style="visibility: inherit;" fill="rgb(0, 0, 0)" stroke="rgb(204, 204, 204)" stroke-width="1px"></line><line x1="139.23399925231934" y1="0" x2="139.23399925231934" y2="5" style="visibility: inherit;" fill="rgb(0, 0, 0)" stroke="rgb(204, 204, 204)" stroke-width="1px"></line><line x1="162.43966579437256" y1="0" x2="162.43966579437256" y2="5" style="visibility: inherit;" fill="rgb(0, 0, 0)" stroke="rgb(204, 204, 204)" stroke-width="1px"></line><line x1="185.64533233642578" y1="0" x2="185.64533233642578" y2="5" style="visibility: inherit;" fill="rgb(0, 0, 0)" stroke="rgb(204, 204, 204)" stroke-width="1px"></line><line x1="208.850998878479" y1="0" x2="208.850998878479" y2="5" style="visibility: inherit;" fill="rgb(0, 0, 0)" stroke="rgb(204, 204, 204)" stroke-width="1px"></line><line x1="232.05666542053223" y1="0" x2="232.05666542053223" y2="5" style="visibility: inherit;" fill="rgb(0, 0, 0)" stroke="rgb(204, 204, 204)" stroke-width="1px"></line><line x1="255.26233196258545" y1="0" x2="255.26233196258545" y2="5" style="visibility: inherit;" fill="rgb(0, 0, 0)" stroke="rgb(204, 204, 204)" stroke-width="1px"></line><line x1="278.4679985046387" y1="0" x2="278.4679985046387" y2="5" style="visibility: inherit;" fill="rgb(0, 0, 0)" stroke="rgb(204, 204, 204)" stroke-width="1px"></line></g><g transform="translate(0, 8)"><text style="text-anchor: middle; visibility: hidden; font-family: Roboto, sans-serif; font-size: 12px; font-weight: 200;" x="0" y="0" dx="0em" dy="0.95em" fill="rgb(50, 49, 63)" stroke="none" stroke-width="1px">20k</text><text style="text-anchor: middle; visibility: inherit; font-family: Roboto, sans-serif; font-size: 12px; font-weight: 200;" x="23.205666542053223" y="0" dx="0em" dy="0.95em" fill="rgb(50, 49, 63)" stroke="none" stroke-width="1px">30k</text><text style="text-anchor: middle; visibility: hidden; font-family: Roboto, sans-serif; font-size: 12px; font-weight: 200;" x="46.411333084106445" y="0" dx="0em" dy="0.95em" fill="rgb(50, 49, 63)" stroke="none" stroke-width="1px">40k</text><text style="text-anchor: middle; visibility: inherit; font-family: Roboto, sans-serif; font-size: 12px; font-weight: 200;" x="69.61699962615967" y="0" dx="0em" dy="0.95em" fill="rgb(50, 49, 63)" stroke="none" stroke-width="1px">50k</text><text style="text-anchor: middle; visibility: hidden; font-family: Roboto, sans-serif; font-size: 12px; font-weight: 200;" x="92.82266616821289" y="0" dx="0em" dy="0.95em" fill="rgb(50, 49, 63)" stroke="none" stroke-width="1px">60k</text><text style="text-anchor: middle; visibility: inherit; font-family: Roboto, sans-serif; font-size: 12px; font-weight: 200;" x="116.02833271026611" y="0" dx="0em" dy="0.95em" fill="rgb(50, 49, 63)" stroke="none" stroke-width="1px">70k</text><text style="text-anchor: middle; visibility: hidden; font-family: Roboto, sans-serif; font-size: 12px; font-weight: 200;" x="139.23399925231934" y="0" dx="0em" dy="0.95em" fill="rgb(50, 49, 63)" stroke="none" stroke-width="1px">80k</text><text style="text-anchor: middle; visibility: inherit; font-family: Roboto, sans-serif; font-size: 12px; font-weight: 200;" x="162.43966579437256" y="0" dx="0em" dy="0.95em" fill="rgb(50, 49, 63)" stroke="none" stroke-width="1px">90k</text><text style="text-anchor: middle; visibility: hidden; font-family: Roboto, sans-serif; font-size: 12px; font-weight: 200;" x="185.64533233642578" y="0" dx="0em" dy="0.95em" fill="rgb(50, 49, 63)" stroke="none" stroke-width="1px">100k</text><text style="text-anchor: middle; visibility: inherit; font-family: Roboto, sans-serif; font-size: 12px; font-weight: 200;" x="208.850998878479" y="0" dx="0em" dy="0.95em" fill="rgb(50, 49, 63)" stroke="none" stroke-width="1px">110k</text><text style="text-anchor: middle; visibility: hidden; font-family: Roboto, sans-serif; font-size: 12px; font-weight: 200;" x="232.05666542053223" y="0" dx="0em" dy="0.95em" fill="rgb(50, 49, 63)" stroke="none" stroke-width="1px">120k</text><text style="text-anchor: middle; visibility: inherit; font-family: Roboto, sans-serif; font-size: 12px; font-weight: 200;" x="255.26233196258545" y="0" dx="0em" dy="0.95em" fill="rgb(50, 49, 63)" stroke="none" stroke-width="1px">130k</text><text style="text-anchor: middle; visibility: hidden; font-family: Roboto, sans-serif; font-size: 12px; font-weight: 200;" x="278.4679985046387" y="0" dx="0em" dy="0.95em" fill="rgb(50, 49, 63)" stroke="none" stroke-width="1px">140k</text></g><line x1="0" y1="0" x2="278.4679985046387" y2="0" fill="rgb(0, 0, 0)" stroke="rgb(204, 204, 204)" stroke-width="1px"></line></g></g></g></g></svg>