<svg viewBox="0 0 330 200" xmlns="http://www.w3.org/2000/svg"><g><g><g><g><g><line x1="61.91500186920166" y1="177.89999961853027" x2="56.91500186920166" y2="177.89999961853027" style="visibility: inherit;" fill="rgb(0, 0, 0)" stroke="rgb(204, 204, 204)" stroke-width="1px"></line><line x1="61.91500186920166" y1="160.109999656677" x2="56.91500186920166" y2="160.109999656677" style="visibility: inherit;" fill="rgb(0, 0, 0)" stroke="rgb(204, 204, 204)" stroke-width="1px"></line><line x1="61.91500186920166" y1="142.3199996948237" x2="56.91500186920166" y2="142.3199996948237" style="visibility: inherit;" fill="rgb(0, 0, 0)" stroke="rgb(204, 204, 204)" stroke-width="1px"></line><line x1="61.91500186920166" y1="124.52999973297044" x2="56.91500186920166" y2="124.52999973297044" style="visibility: inherit;" fill="rgb(0, 0, 0)" stroke="rgb(204, 204, 204)" stroke-width="1px"></line><line x1="61.91500186920166" y1="106.73999977111842" x2="56.91500186920166" y2="106.73999977111842" style="visibility: inherit;" fill="rgb(0, 0, 0)" stroke="rgb(204, 204, 204)" stroke-width="1px"></line><line x1="61.91500186920166" y1="88.94999980926514" x2="56.91500186920166" y2="88.94999980926514" style="visibility: inherit;" fill="rgb(0, 0, 0)" stroke="rgb(204, 204, 204)" stroke-width="1px"></line><line x1="61.91500186920166" y1="71.15999984741185" x2="56.91500186920166" y2="71.15999984741185" style="visibility: inherit;" fill="rgb(0, 0, 0)" stroke="rgb(204, 204, 204)" stroke-width="1px"></line><line x1="61.91500186920166" y1="53.36999988555858" x2="56.91500186920166" y2="53.36999988555858" style="visibility: inherit;" fill="rgb(0, 0, 0)" stroke="rgb(204, 204, 204)" stroke-width="1px"></line><line x1="61.91500186920166" y1="35.579999923705294" x2="56.91500186920166" y2="35.579999923705294" style="visibility: inherit;" fill="rgb(0, 0, 0)" stroke="rgb(204, 204, 204)" stroke-width="1px"></line><line x1="61.91500186920166" y1="17.78999996185328" x2="56.91500186920166" y2="17.78999996185328" style="visibility: inherit;" fill="rgb(0, 0, 0)" stroke="rgb(204, 204, 204)" stroke-width="1px"></line><line x1="61.91500186920166" y1="0" x2="56.91500186920166" y2="0" style="visibility: inherit;" fill="rgb(0, 0, 0)" stroke="rgb(204, 204, 204)" stroke-width="1px"></line></g><g transform="translate(51.91500186920166, 0)"><text style="text-anchor: end; visibility: hidden; font-family: Roboto, sans-serif; font-size: 12px; font-weight: 200;" x="0" y="177.89999961853027" dx="0em" dy="0.3em" fill="rgb(50, 49, 63)" stroke="none" stroke-width="1px">-99.2</text><text style="text-anchor: end; visibility: inherit; font-family: Roboto, sans-serif; font-size: 12px; font-weight: 200;" x="0" y="160.109999656677" dx="0em" dy="0.3em" fill="rgb(50, 49, 63)" stroke="none" stroke-width="1px">-99</text><text style="text-anchor: end; visibility: hidden; font-family: Roboto, sans-serif; font-size: 12px; font-weight: 200;" x="0" y="142.3199996948237" dx="0em" dy="0.3em" fill="rgb(50, 49, 63)" stroke="none" stroke-width="1px">-98.8</text><text style="text-anchor: end; visibility: inherit; font-family: Roboto, sans-serif; font-size: 12px; font-weight: 200;" x="0" y="124.52999973297044" dx="0em" dy="0.3em" fill="rgb(50, 49, 63)" stroke="none" stroke-width="1px">-98.6</text><text style="text-anchor: end; visibility: hidden; font-family: Roboto, sans-serif; font-size: 12px; font-weight: 200;" x="0" y="106.73999977111842" dx="0em" dy="0.3em" fill="rgb(50, 49, 63)" stroke="none" stroke-width="1px">-98.4</text><text style="text-anchor: end; visibility: inherit; font-family: Roboto, sans-serif; font-size: 12px; font-weight: 200;" x="0" y="88.94999980926514" dx="0em" dy="0.3em" fill="rgb(50, 49, 63)" stroke="none" stroke-width="1px">-98.2</text><text style="text-anchor: end; visibility: hidden; font-family: Roboto, sans-serif; font-size: 12px; font-weight: 200;" x="0" y="71.15999984741185" dx="0em" dy="0.3em" fill="rgb(50, 49, 63)" stroke="none" stroke-width="1px">-98</text><text style="text-anchor: end; visibility: inherit; font-family: Roboto, sans-serif; font-size: 12px; font-weight: 200;" x="0" y="53.36999988555858" dx="0em" dy="0.3em" fill="rgb(50, 49, 63)" stroke="none" stroke-width="1px">-97.8</text><text style="text-anchor: end; visibility: hidden; font-family: Roboto, sans-serif; font-size: 12px; font-weight: 200;" x="0" y="35.579999923705294" dx="0em" dy="0.3em" fill="rgb(50, 49, 63)" stroke="none" stroke-width="1px">-97.6</text><text style="text-anchor: end; visibility: inherit; font-family: Roboto, sans-serif; font-size: 12px; font-weight: 200;" x="0" y="17.78999996185328" dx="0em" dy="0.3em" fill="rgb(50, 49, 63)" stroke="none" stroke-width="1px">-97.4</text><text style="text-anchor: end; visibility: hidden; font-family: Roboto, sans-serif; font-size: 12px; font-weight: 200;" x="0" y="0" dx="0em" dy="0.3em" fill="rgb(50, 49, 63)" stroke="none" stroke-width="1px">-97.2</text></g><line x1="61.91500186920166" y1="0" x2="61.91500186920166" y2="177.89999961853027" fill="rgb(0, 0, 0)" stroke="rgb(204, 204, 204)" stroke-width="1px"></line></g></g><g transform="translate(61, 0)" clip-path="url(#clip_0)"><clipPath id="clip_0"><rect width="268" height="177"></rect></clipPath><g><g><g><line x1="0" y1="0" x2="0" y2="177.89999961853027" fill="rgb(0, 0, 0)" stroke="rgb(60, 60, 60)" stroke-width="1px" opacity="0.25"></line><line x1="19.148928437914165" y1="0" x2="19.148928437914165" y2="177.89999961853027" fill="rgb(0, 0, 0)" stroke="rgb(60, 60, 60)" stroke-width="1px" opacity="0.25"></line><line x1="38.29785687582833" y1="0" x2="38.29785687582833" y2="177.89999961853027" fill="rgb(0, 0, 0)" stroke="rgb(60, 60, 60)" stroke-width="1px" opacity="0.25"></line><line x1="57.446785313742495" y1="0" x2="57.446785313742495" y2="177.89999961853027" fill="rgb(0, 0, 0)" stroke="rgb(60, 60, 60)" stroke-width="1px" opacity="0.25"></line><line x1="76.59571375165666" y1="0" x2="76.59571375165666" y2="177.89999961853027" fill="rgb(0, 0, 0)" stroke="rgb(60, 60, 60)" stroke-width="1px" opacity="0.25"></line><line x1="95.74464218957084" y1="0" x2="95.74464218957084" y2="177.89999961853027" fill="rgb(0, 0, 0)" stroke="rgb(60, 60, 60)" stroke-width="1px" opacity="0.25"></line><line x1="114.89357062748499" y1="0" x2="114.89357062748499" y2="177.89999961853027" fill="rgb(0, 0, 0)" stroke="rgb(60, 60, 60)" stroke-width="1px" opacity="0.25"></line><line x1="134.04249906539917" y1="0" x2="134.04249906539917" y2="177.89999961853027" fill="rgb(0, 0, 0)" stroke="rgb(60, 60, 60)" stroke-width="1px" opacity="0.25"></line><line x1="153.19142750331332" y1="0" x2="153.19142750331332" y2="177.89999961853027" fill="rgb(0, 0, 0)" stroke="rgb(60, 60, 60)" stroke-width="1px" opacity="0.25"></line><line x1="172.34035594122753" y1="0" x2="172.34035594122753" y2="177.89999961853027" fill="rgb(0, 0, 0)" stroke="rgb(60, 60, 60)" stroke-width="1px" opacity="0.25"></line><line x1="191.48928437914168" y1="0" x2="191.48928437914168" y2="177.89999961853027" fill="rgb(0, 0, 0)" stroke="rgb(60, 60, 60)" stroke-width="1px" opacity="0.25"></line><line x1="210.63821281705583" y1="0" x2="210.63821281705583" y2="177.89999961853027" fill="rgb(0, 0, 0)" stroke="rgb(60, 60, 60)" stroke-width="1px" opacity="0.25"></line><line x1="229.78714125496998" y1="0" x2="229.78714125496998" y2="177.89999961853027" fill="rgb(0, 0, 0)" stroke="rgb(60, 60, 60)" stroke-width="1px" opacity="0.25"></line><line x1="248.9360696928842" y1="0" x2="248.9360696928842" y2="177.89999961853027" fill="rgb(0, 0, 0)" stroke="rgb(60, 60, 60)" stroke-width="1px" opacity="0.25"></line><line x1="268.08499813079834" y1="0" x2="268.08499813079834" y2="177.89999961853027" fill="rgb(0, 0, 0)" stroke="rgb(60, 60, 60)" stroke-width="1px" opacity="0.25"></line></g><g><line x1="0" y1="177.89999961853027" x2="268.08499813079834" y2="177.89999961853027" fill="rgb(0, 0, 0)" stroke="rgb(60, 60, 60)" stroke-width="1px" opacity="0.25"></line><line x1="0" y1="160.109999656677" x2="268.08499813079834" y2="160.109999656677" fill="rgb(0, 0, 0)" stroke="rgb(60, 60, 60)" stroke-width="1px" opacity="0.25"></line><line x1="0" y1="142.3199996948237" x2="268.08499813079834" y2="142.3199996948237" fill="rgb(0, 0, 0)" stroke="rgb(60, 60, 60)" stroke-width="1px" opacity="0.25"></line><line x1="0" y1="124.52999973297044" x2="268.08499813079834" y2="124.52999973297044" fill="rgb(0, 0, 0)" stroke="rgb(60, 60, 60)" stroke-width="1px" opacity="0.25"></line><line x1="0" y1="106.73999977111842" x2="268.08499813079834" y2="106.73999977111842" fill="rgb(0, 0, 0)" stroke="rgb(60, 60, 60)" stroke-width="1px" opacity="0.25"></line><line x1="0" y1="88.94999980926514" x2="268.08499813079834" y2="88.94999980926514" fill="rgb(0, 0, 0)" stroke="rgb(60, 60, 60)" stroke-width="1px" opacity="0.25"></line><line x1="0" y1="71.15999984741185" x2="268.08499813079834" y2="71.15999984741185" fill="rgb(0, 0, 0)" stroke="rgb(60, 60, 60)" stroke-width="1px" opacity="0.25"></line><line x1="0" y1="53.36999988555858" x2="268.08499813079834" y2="53.36999988555858" fill="rgb(0, 0, 0)" stroke="rgb(60, 60, 60)" stroke-width="1px" opacity="0.25"></line><line x1="0" y1="35.579999923705294" x2="268.08499813079834" y2="35.579999923705294" fill="rgb(0, 0, 0)" stroke="rgb(60, 60, 60)" stroke-width="1px" opacity="0.25"></line><line x1="0" y1="17.78999996185328" x2="268.08499813079834" y2="17.78999996185328" fill="rgb(0, 0, 0)" stroke="rgb(60, 60, 60)" stroke-width="1px" opacity="0.25"></line><line x1="0" y1="0" x2="268.08499813079834" y2="0" fill="rgb(0, 0, 0)" stroke="rgb(60, 60, 60)" stroke-width="1px" opacity="0.25"></line></g></g></g><g><g><line x1="0" y1="-8645.939981460571" x2="268.08499813079834" y2="-8645.939981460571" fill="rgb(0, 0, 0)" stroke="rgb(153, 153, 153)" stroke-width="1.5px"></line></g></g><g><g><line x1="-76.59571375165666" y1="0" x2="-76.59571375165666" y2="177.89999961853027" fill="rgb(0, 0, 0)" stroke="rgb(153, 153, 153)" stroke-width="1.5px"></line></g></g><g><g><g><g><g><path style="fill: none;" stroke="rgb(255, 112, 67)" stroke-width="2px" d="M25.81658531999588,-14.010907626943979L27.758286663600376,5.2527214971889915L28.623818228994097,16.810147681477158L29.569775293827057,23.744332949116313L30.201689932278224,27.904746754897456L31.147646997111185,30.400959991640743L31.553604279994964,31.898675317082546L31.959561562878747,32.797299970417896L32.36551884576253,33.336473127331935L33.02807176971436,33.65997643285369L33.617858765602115,33.85407820425972L34.54466690199716,33.9705391908186L35.37190061051505,34.0404157552908L35.77785789339883,34.08234168408668L36.183815176282614,34.107497237805134L36.86168724298477,34.12259056875521L37.46679338162286,34.131646566863374L37.87275066450664,34.13708016556217L38.55445251689639,34.1403403247228L39.27828201184954,34.14229642019794L39.97913279267719,34.143470077475186L40.385090075560974,34.14417427183698L41.204664212703705,34.144596788453306L41.61062149558749,34.144850298422845L42.01657877847127,34.145002404404565L43.16168469905853,34.145093667994864L44.11147154957907,34.14514842614955L44.78551383059365,34.14518128104084L45.191471113477434,34.145200993975365L45.59742839636122,34.145212821736585L46.00338567924499,34.145219918393316L46.42849189056669,34.1452241763871L46.834449173450466,34.14522673118489L47.24040645633425,72.29345312751349L48.052321022101815,95.18238896519435L48.95998023005894,108.91575046775887L49.36593751294272,121.65185760012581L49.95189472314289,129.29352187953612L50.53785193334307,133.87852044718204L50.94380921622685,136.62951958776608L51.55274514055252,138.28011907211697L53.46763798434394,139.27047876272627L54.06891433729444,139.86469457709285L54.494020548616135,140.2212240657123L54.89997783149992,140.43514175888447L55.48976482738767,140.56349237478753L55.89572211027145,140.6405027443296L56.71529624741418,140.6867089660546L57.12125353029796,140.71443269908985L57.527210813181746,140.73106693891026L58.96721023171288,140.74104748280325L59.373167514596666,140.74703580913905L59.78295458316803,140.75062880494076L60.38040115043095,140.75278460242257L60.78635843331473,140.7540780809109L61.391464571952824,140.75485416800464L62.01954942471641,140.7553198202591L62.601676849228994,140.75559921161255L63.808059340817586,140.75576684642414L64.53571862145833,140.75586742731207L64.9416759043421,140.75592777584333L65.3476331872259,140.75596398496285L65.75359047010967,140.7559857104343L66.45444125093732,140.75599874571742L67.0403984611375,140.75600656688653L67.44635574402129,140.756011259589L67.85231302690505,140.7560140752095L68.25827030978884,140.75601576458178L68.66422759267262,140.75601677820515L69.0701848755564,140.7560173863802L69.86295051288604,140.7560177512852L71.46380093029568,140.7560179702272L71.86975821317945,140.7560181015929L72.90380034882682,140.75601818041181L73.6199702724048,140.75601822770395L74.02592755528859,140.7560182560782L74.60805497980118,140.75601827310376L76.26635218252454,140.75601828331858L76.95188382060188,140.75601828944798L77.87103238562175,140.75601829312512L78.27698966850554,140.75601829533218L78.68294695138931,140.7560182966569L80.41401008217676,140.75601829745074L81.03060557787758,140.75601829792728L81.76209464420592,140.75601829821295L82.62762620959963,140.7560182983836L83.0335834924834,140.75601829848725L83.61571091699601,140.75601829854918L84.19783834150859,140.75601829858584L84.60379562439238,140.7560182986086L85.23571026284354,140.75601829862126L85.64166754572733,140.75601829862882L86.0476248286111,140.75601829863388L86.77145432356426,140.7560182986364L87.17741160644805,140.75601829863893L87.7671986023358,140.7560182986402L88.19230481365749,140.75601829864146L88.59826209654126,140.75601829864146L89.00421937942505,140.75601829864146L89.95783601563316,140.75601829864146L90.36379329851695,140.75601829864146L91.14506957878385,140.75601829864146L91.55102686166764,140.75601829864146L91.95698414455141,140.75601829864146L92.38209035587312,140.75601829864146L92.98336670882361,140.75601829864146L93.69570684671402,140.75601829864146L94.2816640569142,140.75601829864146L94.68762133979797,140.75601829864146L95.09357862268175,140.75601829864146L95.69868476131984,140.75601829864146L96.38421639939716,140.75601829864146L96.80932261071887,140.75601829864146L97.21527989360264,140.75601829864146L98.24166245787485,140.75601829864146L98.64761974075861,140.75601829864146L99.32166202177321,140.75601829864146L99.72761930465698,140.75601829864146L100.58166151298795,140.75601829864146L101.16378893750054,140.75601829864146L101.86080993264062,140.75601829864146L102.2667672155244,140.75601829864146L102.67272449840817,140.75601829864146L103.46549013573782,140.75601829864146L104.05527713162557,140.75601829864146L104.48038334294728,140.75601829864146L105.74038283416202,140.75601829864146L106.14634011704581,140.75601829864146L106.80123346962247,140.75601829864146L107.7548501058306,140.75601829864146L108.34463710171836,140.75601829864146L108.96506238310677,140.75601829864146L109.56633873605729,140.75601829864146L110.79187015608379,140.75601829864146L111.40463586609704,140.75601829864146L112.90591185562951,140.75601829864146L113.3118691385133,137.70324822462084L114.3574006312234,135.87158618020797L114.76335791410719,134.7725889535615L115.16931519699096,134.11319061757285L115.57527247987476,133.71755161597994L116.18037861851283,133.48016821502492L116.76250604302543,133.33773817445066L117.16846332590922,133.2522801501071L117.57442060879298,133.20100533550098L117.98037789167677,133.1702404467368L118.38633517456054,133.1517815134778L119.1101646695137,133.1407061535224L119.51612195239748,133.1340609375494L120.1595259479114,133.1300738079661L120.79144058636257,133.12768153021588L121.19739786924636,129.65299406530028L121.60335515213013,127.56818158635116L122.02846136345183,126.31729409898169L122.4344186463356,125.56676160656026L123.17739706972668,125.11644211110614L123.58335435261046,124.84625041383366L123.98931163549423,124.68413539547018L124.39526891837801,124.5868663844521L124.82037512969971,124.52850497784276L125.6246301240921,124.4934881338764L126.34845961904526,124.47247802749658L126.77356583036696,124.45987196366792L127.3671826119423,124.45230832537175L127.79228882326399,124.44777014239304L128.38207581915174,124.44504723260681L128.7880331020355,124.44341348673457L129.38164988361086,124.44243323921174L129.80675609493255,124.44184509069753L131.12037258577345,124.44149220158901L131.52632986865726,124.4412804681249L131.95143607997895,124.44115342804568L132.35739336286272,124.4410772039984L132.9395207873753,124.44103146957079L133.3454780702591,124.44100402891246L133.93143528045928,124.44098756451847L134.52122227634703,124.44097768588156L134.9271795592308,126.12154258639538L135.33313684211458,127.12988152670341L135.91909405231476,127.73488489088899L137.25951904296875,128.09788690939908L137.66547632585252,128.31568812050511L138.39696539218085,128.4463688471695L138.80292267506462,128.5247772831679L139.20887995794843,128.57182234476667L139.8178158822741,128.6000493817262L140.22377316515787,128.6169856039019L140.62973044804164,128.62714733720782L141.62547472681317,128.63324437719038L142.03143200969697,128.6369026011809L142.83568700408938,128.639097535575L143.24164428697316,128.6404144962104L143.83526106854848,128.64120467259346L144.24121835143225,128.64167877842277L144.64717563431603,132.1144009786143L145.0531329171998,134.1980342987297L145.86887726865496,135.44821429079923L146.51228126416888,136.19832228604042L146.91823854705265,136.64838708318513L147.32419582993643,136.91842596147146L147.74930204125812,137.08044928844402L148.4424932507106,137.17766328462704L148.8484505335944,137.2359916823376L149.54164174304688,137.2709887209632L150.1275989532471,137.29198694413907L150.71355616344724,137.30458587804483L151.119513446331,137.31214523838779L151.5254707292148,137.31668085459305L151.9314280120986,137.31940222431723L152.85440636280603,137.32103504615097L153.2603636456898,137.32201473925147L153.6663209285736,137.32260255511176L154.0722782114574,137.3229552446272L154.47823549434116,137.3231668583372L155.06419270454137,137.3232938265637L155.47014998742515,137.3233700074991L155.8761072703089,137.32341571606037L156.28206455319267,137.32344314119734L156.68802183607644,137.32345959627904L157.09780890464782,137.3234694693288L157.50376618753162,137.3234753931582L157.9097234704154,137.32347894745604L158.3348296817371,137.32348108003526L159.2501484610694,137.3234823595818L159.65610574395316,137.32348312730971L160.06206302683694,137.32348358794673L160.4718500954083,137.32348386432867L160.87780737829206,137.32348403015885L161.30291358961378,137.32348412965644L161.70887087249756,137.323484189354L162.11482815538136,137.32348422517353L162.53993436670302,137.323484246665L162.94589164958683,137.32348425955965L163.53950843116218,137.32348426729692L163.94546571404595,137.3234842719398L164.35142299692973,137.3234842747245L164.75738027981347,137.3234842763956L165.16333756269725,137.323484277398L165.76461391564777,137.32348427799968L166.39269876841135,137.3234842783612L166.97865597861156,137.32348427857735L167.38461326149533,137.32348427870755L167.79057054437908,137.3234842787859L168.19652782726286,137.3234842788327L168.7901446088382,137.3234842788605L169.196101891722,137.32348427887695L169.60205917460578,137.32348427888704L170.3105695268086,137.32348427889337L170.7165268096924,137.32348427889715L171.29865423420497,137.32348427889968L171.70461151708875,137.32348427890096L172.11056879997253,137.3234842789022L172.5165260828563,137.3234842789022L172.94163229417802,137.3234842789022L173.3475895770618,137.3234842789022L173.94503614432472,137.3234842789022L174.3509934272085,137.3234842789022L174.75695071009227,137.3234842789022L175.16290799297605,137.3234842789022L175.95567363030568,137.3234842789022L176.60673719719478,137.3234842789022L177.01269448007855,137.3234842789022L177.41865176296236,137.3234842789022L177.82460904584613,137.3234842789022L178.24971525716782,137.3234842789022L178.6556725400516,137.3234842789022L179.06545960862297,137.3234842789022L179.47141689150675,137.3234842789022L179.87737417439052,137.3234842789022L180.2833314572743,137.3234842789022L180.6892887401581,137.3234842789022L181.11439495147977,137.3234842789022L181.52035223436357,137.3234842789022L181.92630951724735,137.3234842789022L182.33226680013112,137.3234842789022L182.7382240830149,137.3234842789022L183.41226636402948,137.3234842789022L183.81822364691325,137.3234842789022L184.22418092979703,137.3234842789022L184.6301382126808,137.3234842789022L185.05524442400252,137.3234842789022L185.4803506353242,137.3234842789022L185.886307918208,137.3234842789022L186.29226520109177,137.3234842789022L186.69822248397557,137.3234842789022L187.10417976685935,137.3234842789022L187.5101370497431,137.3234842789022L187.91609433262687,137.3234842789022L188.32205161551065,137.3234842789022L188.90417904002325,137.3234842789022L189.31013632290703,137.3234842789022L189.7199233914784,137.3234842789022L190.1258806743622,137.3234842789022L190.53183795724598,137.3234842789022L190.93779524012973,136.98552422713666L191.3437525230135,138.99373986003698L191.76885873433523,140.1986692397772L192.174816017219,140.92162686762205L192.58077330010278,141.35540144432898L192.98673058298658,141.61566619035338L193.39268786587033,141.77182503796777L193.81779407719205,141.86552034653693L194.24290028851374,141.92173753167765L194.6488575713975,142.18511780564955L195.0548148542813,142.3431459700317L195.46077213716507,142.43796286866123L195.86672942004884,142.49485300783923L196.27268670293265,142.5289870913455L196.69779291425434,142.54946754144902L197.1037501971381,142.56175581151163L197.5097074800219,142.56912877354944L197.91566476290566,142.57355255077238L198.32162204578944,142.5762068171054L198.90757925598962,142.57779937690623L199.317366324561,142.57875491278568L200.12545110464097,142.57932823431287L200.53523817321232,142.57967222722993L200.94119545609612,142.5798786229807L201.52332288060867,142.58000246042988L201.92928016349248,142.5800767629004L202.35438637481417,142.5801213443817L202.76034365769794,142.58014809327048L203.16630094058172,142.58016414260425L203.5760880091531,142.58017377220452L204.0011942204748,142.58017954996467L204.40715150335856,142.5801830166218L204.83225771468028,142.58018509661503L205.25736392600197,142.580186344612L205.66332120888575,142.58018709340942L206.0731082774571,142.5801875426876L206.47906556034087,142.58018781225505L206.88502284322465,142.58018797399473L207.29098012610842,142.5801880710388L207.69693740899223,142.58018812926625L208.102894691876,142.58018816420224L208.50885197475978,142.5801881851628L208.91480925764355,142.58018819774014L209.32076654052736,142.58018820528656L209.74587275184902,142.5801882098144L210.15183003473282,142.58018821253086L210.5616171033042,142.58018821416022L210.97140417187555,142.5801882151386L211.37736145475932,142.58018821572514L211.7833187376431,142.58018821607655L212.18927602052688,142.5801882162889L212.61438223184857,142.5801882164153L213.03948844317028,142.58018821649114L213.44544572605406,142.58018821653664L214.13097736413135,142.58018821656447L214.53693464701516,142.5801882165809L215.14587057134085,142.580188216591L215.55182785422463,142.58018821659732L215.9577851371084,142.58018821659985L216.3828913484301,142.58018821660238L216.78884863131387,142.58018821660366L217.19480591419764,142.5801882166049L217.60076319708142,142.5801882166049L218.00672047996522,142.5801882166049L218.412677762849,142.5801882166049L218.81863504573278,142.5801882166049L219.51182625518527,142.5801882166049L219.91778353806905,142.5801882166049L220.32374082095282,142.5801882166049L220.72969810383663,142.5801882166049L221.13948517240797,142.5801882166049L221.85182531029838,142.5801882166049L222.25778259318216,142.5801882166049L222.66373987606593,142.5801882166049L223.06969715894974,142.5801882166049L223.47565444183348,142.5801882166049L223.88161172471726,142.5801882166049L224.28756900760104,142.5801882166049L224.69352629048484,142.5801882166049L225.09948357336862,142.5801882166049L225.5054408562524,142.5801882166049L225.91139813913617,142.5801882166049L226.31735542201994,142.5801882166049L226.72331270490375,142.5801882166049L227.12926998778752,142.5801882166049L227.5352272706713,142.5801882166049L227.94118455355508,142.5801882166049L228.34714183643888,142.5801882166049L228.75309911932266,142.5801882166049L229.17820533064435,142.5801882166049L229.58416261352812,142.5801882166049L229.9901198964119,142.5801882166049L230.39990696498327,142.5801882166049L230.80586424786702,142.5801882166049L231.2118215307508,142.5801882166049L231.6177788136346,142.5801882166049L232.02373609651838,142.5801882166049L232.42969337940215,142.5801882166049L232.83565066228593,142.5801882166049L233.26075687360762,142.5801882166049L233.68586308492934,142.5801882166049L234.0918203678131,142.5801882166049L234.5169265791348,142.5801882166049L235.24841564546313,142.5801882166049L235.6543729283469,142.5801882166049L236.33990456642425,142.5801882166049L237.1058617039408,142.5801882166049L237.51181898682458,142.5801882166049L237.91777626970836,142.5801882166049L238.32373355259213,142.57693077032232L238.7296908354759,142.57497630255378L239.1356481183597,142.57380362189215L239.56075432968137,142.57310001349467L239.96671161256518,142.57267784845644L240.37649868113655,142.57242454943375L240.78245596402033,142.57227257001938L241.20756217534202,142.572181382371L241.6135194582258,142.572126669783L242.01947674110957,142.57209384222944L242.42543402399335,142.5720741456973L242.83139130687715,142.572062327778L243.23734858976093,142.57205523702694L243.6433058726447,142.57340825185923L244.04926315552848,142.57422006076013L244.45522043841225,142.5747071460999L244.86117772129606,142.5749993973033L245.26713500417983,142.57517474802606L245.6730922870636,142.57527995845922L246.07904956994736,142.5753430847196L246.48500685283116,142.57538096047483L246.89096413571494,142.575403685928L247.2969214185987,142.57541732120137L247.7028787014825,142.57542550236465L248.10883598436627,142.57543041106263L248.51479326725007,142.57543335628168L248.92075055013385,142.5754351234136L249.33053761870522,142.57543618369198L249.74032468727657,142.57543681985953L250.14628197016035,142.5754372015588L250.55223925304412,142.57543743057911L250.9620263216155,142.5754375679908L251.3871325329372,142.57543765043755L251.81223874425888,142.57543769990636L252.2373449555806,142.57543772958766L252.64330223846437,142.57543774739565L253.06840844978606,142.575437758082L253.47436573266984,142.57543776449327L253.8803230155536,142.5754377683398L254.2862802984374,142.57543777064797L254.6922375813212,142.5754377720321L255.09819486420497,142.57543777286386L255.50415214708872,142.5754377733619L255.9101094299725,142.5754377736602L256.3160667128563,142.5754377738397L256.7220239957401,142.5754377739484L257.12798127862385,142.5754377740129L257.5339385615076,142.57543777405206L257.9398958443914,142.57543777407483L258.34968291296275,142.57543777408873L258.7747891242845,142.57543777409757L259.1807464071682,142.57543777410262L259.58670369005205,142.57543777410515L259.9926609729358,142.57543777410768L260.3986182558196,142.57543777410768L260.8045755387034,142.57543777410768L261.22968175002507,142.57543777410768" fill="none"></path></g></g></g></g><g opacity="0.2"><g><g><g><path style="fill: none;" stroke="rgb(255, 112, 67)" stroke-width="2px" d="M20.02977914605822,-2777.178174586909L20.435736428941997,34.145230563379044L20.84169371182578,34.145230563379044L21.427650922025954,34.145230563379044L22.02892727497646,34.145230563379044L22.434884557860236,34.145230563379044L24.27701147358758,34.145230563379044L25.4106280371121,34.145230563379044L25.81658531999588,34.145230563379044L27.758286663600376,34.145230563379044L28.623818228994097,34.145230563379044L29.569775293827057,34.145230563379044L30.201689932278224,34.145230563379044L31.147646997111185,34.145230563379044L31.553604279994964,34.145230563379044L31.959561562878747,34.145230563379044L32.36551884576253,34.145230563379044L33.02807176971436,34.145230563379044L33.617858765602115,34.145230563379044L34.54466690199716,34.145230563379044L35.37190061051505,34.145230563379044L35.77785789339883,34.145230563379044L36.183815176282614,34.145230563379044L36.86168724298477,34.145230563379044L37.46679338162286,34.145230563379044L37.87275066450664,34.145230563379044L38.55445251689639,34.145230563379044L39.27828201184954,34.145230563379044L39.97913279267719,34.145230563379044L40.385090075560974,34.145230563379044L41.204664212703705,34.145230563379044L41.61062149558749,34.145230563379044L42.01657877847127,34.145230563379044L43.16168469905853,34.145230563379044L44.11147154957907,34.145230563379044L44.78551383059365,34.145230563379044L45.191471113477434,34.145230563379044L45.59742839636122,34.145230563379044L46.00338567924499,34.145230563379044L46.42849189056669,34.145230563379044L46.834449173450466,34.145230563379044L47.24040645633425,129.5157927215475L48.052321022101815,129.5157927215475L48.95998023005894,129.5157927215475L49.36593751294272,140.75601829864146L49.95189472314289,140.75601829864146L50.53785193334307,140.75601829864146L50.94380921622685,140.75601829864146L51.55274514055252,140.75601829864146L53.46763798434394,140.75601829864146L54.06891433729444,140.75601829864146L54.494020548616135,140.75601829864146L54.89997783149992,140.75601829864146L55.48976482738767,140.75601829864146L55.89572211027145,140.75601829864146L56.71529624741418,140.75601829864146L57.12125353029796,140.75601829864146L57.527210813181746,140.75601829864146L58.96721023171288,140.75601829864146L59.373167514596666,140.75601829864146L59.78295458316803,140.75601829864146L60.38040115043095,140.75601829864146L60.78635843331473,140.75601829864146L61.391464571952824,140.75601829864146L62.01954942471641,140.75601829864146L62.601676849228994,140.75601829864146L63.808059340817586,140.75601829864146L64.53571862145833,140.75601829864146L64.9416759043421,140.75601829864146L65.3476331872259,140.75601829864146L65.75359047010967,140.75601829864146L66.45444125093732,140.75601829864146L67.0403984611375,140.75601829864146L67.44635574402129,140.75601829864146L67.85231302690505,140.75601829864146L68.25827030978884,140.75601829864146L68.66422759267262,140.75601829864146L69.0701848755564,140.75601829864146L69.86295051288604,140.75601829864146L71.46380093029568,140.75601829864146L71.86975821317945,140.75601829864146L72.90380034882682,140.75601829864146L73.6199702724048,140.75601829864146L74.02592755528859,140.75601829864146L74.60805497980118,140.75601829864146L76.26635218252454,140.75601829864146L76.95188382060188,140.75601829864146L77.87103238562175,140.75601829864146L78.27698966850554,140.75601829864146L78.68294695138931,140.75601829864146L80.41401008217676,140.75601829864146L81.03060557787758,140.75601829864146L81.76209464420592,140.75601829864146L82.62762620959963,140.75601829864146L83.0335834924834,140.75601829864146L83.61571091699601,140.75601829864146L84.19783834150859,140.75601829864146L84.60379562439238,140.75601829864146L85.23571026284354,140.75601829864146L85.64166754572733,140.75601829864146L86.0476248286111,140.75601829864146L86.77145432356426,140.75601829864146L87.17741160644805,140.75601829864146L87.7671986023358,140.75601829864146L88.19230481365749,140.75601829864146L88.59826209654126,140.75601829864146L89.00421937942505,140.75601829864146L89.95783601563316,140.75601829864146L90.36379329851695,140.75601829864146L91.14506957878385,140.75601829864146L91.55102686166764,140.75601829864146L91.95698414455141,140.75601829864146L92.38209035587312,140.75601829864146L92.98336670882361,140.75601829864146L93.69570684671402,140.75601829864146L94.2816640569142,140.75601829864146L94.68762133979797,140.75601829864146L95.09357862268175,140.75601829864146L95.69868476131984,140.75601829864146L96.38421639939716,140.75601829864146L96.80932261071887,140.75601829864146L97.21527989360264,140.75601829864146L98.24166245787485,140.75601829864146L98.64761974075861,140.75601829864146L99.32166202177321,140.75601829864146L99.72761930465698,140.75601829864146L100.58166151298795,140.75601829864146L101.16378893750054,140.75601829864146L101.86080993264062,140.75601829864146L102.2667672155244,140.75601829864146L102.67272449840817,140.75601829864146L103.46549013573782,140.75601829864146L104.05527713162557,140.75601829864146L104.48038334294728,140.75601829864146L105.74038283416202,140.75601829864146L106.14634011704581,140.75601829864146L106.80123346962247,140.75601829864146L107.7548501058306,140.75601829864146L108.34463710171836,140.75601829864146L108.96506238310677,140.75601829864146L109.56633873605729,140.75601829864146L110.79187015608379,140.75601829864146L111.40463586609704,140.75601829864146L112.90591185562951,140.75601829864146L113.3118691385133,133.12409311359053L114.3574006312234,133.12409311359053L114.76335791410719,133.12409311359053L115.16931519699096,133.12409311359053L115.57527247987476,133.12409311359053L116.18037861851283,133.12409311359053L116.76250604302543,133.12409311359053L117.16846332590922,133.12409311359053L117.57442060879298,133.12409311359053L117.98037789167677,133.12409311359053L118.38633517456054,133.12409311359053L119.1101646695137,133.12409311359053L119.51612195239748,133.12409311359053L120.1595259479114,133.12409311359053L120.79144058636257,133.12409311359053L121.19739786924636,124.44096286792748L121.60335515213013,124.44096286792748L122.02846136345183,124.44096286792748L122.4344186463356,124.44096286792748L123.17739706972668,124.44096286792748L123.58335435261046,124.44096286792748L123.98931163549423,124.44096286792748L124.39526891837801,124.44096286792748L124.82037512969971,124.44096286792748L125.6246301240921,124.44096286792748L126.34845961904526,124.44096286792748L126.77356583036696,124.44096286792748L127.3671826119423,124.44096286792748L127.79228882326399,124.44096286792748L128.38207581915174,124.44096286792748L128.7880331020355,124.44096286792748L129.38164988361086,124.44096286792748L129.80675609493255,124.44096286792748L131.12037258577345,124.44096286792748L131.52632986865726,124.44096286792748L131.95143607997895,124.44096286792748L132.35739336286272,124.44096286792748L132.9395207873753,124.44096286792748L133.3454780702591,124.44096286792748L133.93143528045928,124.44096286792748L134.52122227634703,124.44096286792748L134.9271795592308,128.64238993716546L135.33313684211458,128.64238993716546L135.91909405231476,128.64238993716546L137.25951904296875,128.64238993716546L137.66547632585252,128.64238993716546L138.39696539218085,128.64238993716546L138.80292267506462,128.64238993716546L139.20887995794843,128.64238993716546L139.8178158822741,128.64238993716546L140.22377316515787,128.64238993716546L140.62973044804164,128.64238993716546L141.62547472681317,128.64238993716546L142.03143200969697,128.64238993716546L142.83568700408938,128.64238993716546L143.24164428697316,128.64238993716546L143.83526106854848,128.64238993716546L144.24121835143225,128.64238993716546L144.64717563431603,137.3234842789022L145.0531329171998,137.3234842789022L145.86887726865496,137.3234842789022L146.51228126416888,137.3234842789022L146.91823854705265,137.3234842789022L147.32419582993643,137.3234842789022L147.74930204125812,137.3234842789022L148.4424932507106,137.3234842789022L148.8484505335944,137.3234842789022L149.54164174304688,137.3234842789022L150.1275989532471,137.3234842789022L150.71355616344724,137.3234842789022L151.119513446331,137.3234842789022L151.5254707292148,137.3234842789022L151.9314280120986,137.3234842789022L152.85440636280603,137.3234842789022L153.2603636456898,137.3234842789022L153.6663209285736,137.3234842789022L154.0722782114574,137.3234842789022L154.47823549434116,137.3234842789022L155.06419270454137,137.3234842789022L155.47014998742515,137.3234842789022L155.8761072703089,137.3234842789022L156.28206455319267,137.3234842789022L156.68802183607644,137.3234842789022L157.09780890464782,137.3234842789022L157.50376618753162,137.3234842789022L157.9097234704154,137.3234842789022L158.3348296817371,137.3234842789022L159.2501484610694,137.3234842789022L159.65610574395316,137.3234842789022L160.06206302683694,137.3234842789022L160.4718500954083,137.3234842789022L160.87780737829206,137.3234842789022L161.30291358961378,137.3234842789022L161.70887087249756,137.3234842789022L162.11482815538136,137.3234842789022L162.53993436670302,137.3234842789022L162.94589164958683,137.3234842789022L163.53950843116218,137.3234842789022L163.94546571404595,137.3234842789022L164.35142299692973,137.3234842789022L164.75738027981347,137.3234842789022L165.16333756269725,137.3234842789022L165.76461391564777,137.3234842789022L166.39269876841135,137.3234842789022L166.97865597861156,137.3234842789022L167.38461326149533,137.3234842789022L167.79057054437908,137.3234842789022L168.19652782726286,137.3234842789022L168.7901446088382,137.3234842789022L169.196101891722,137.3234842789022L169.60205917460578,137.3234842789022L170.3105695268086,137.3234842789022L170.7165268096924,137.3234842789022L171.29865423420497,137.3234842789022L171.70461151708875,137.3234842789022L172.11056879997253,137.3234842789022L172.5165260828563,137.3234842789022L172.94163229417802,137.3234842789022L173.3475895770618,137.3234842789022L173.94503614432472,137.3234842789022L174.3509934272085,137.3234842789022L174.75695071009227,137.3234842789022L175.16290799297605,137.3234842789022L175.95567363030568,137.3234842789022L176.60673719719478,137.3234842789022L177.01269448007855,137.3234842789022L177.41865176296236,137.3234842789022L177.82460904584613,137.3234842789022L178.24971525716782,137.3234842789022L178.6556725400516,137.3234842789022L179.06545960862297,137.3234842789022L179.47141689150675,137.3234842789022L179.87737417439052,137.3234842789022L180.2833314572743,137.3234842789022L180.6892887401581,137.3234842789022L181.11439495147977,137.3234842789022L181.52035223436357,137.3234842789022L181.92630951724735,137.3234842789022L182.33226680013112,137.3234842789022L182.7382240830149,137.3234842789022L183.41226636402948,137.3234842789022L183.81822364691325,137.3234842789022L184.22418092979703,137.3234842789022L184.6301382126808,137.3234842789022L185.05524442400252,137.3234842789022L185.4803506353242,137.3234842789022L185.886307918208,137.3234842789022L186.29226520109177,137.3234842789022L186.69822248397557,137.3234842789022L187.10417976685935,137.3234842789022L187.5101370497431,137.3234842789022L187.91609433262687,137.3234842789022L188.32205161551065,137.3234842789022L188.90417904002325,137.3234842789022L189.31013632290703,137.3234842789022L189.7199233914784,137.3234842789022L190.1258806743622,137.3234842789022L190.53183795724598,137.3234842789022L190.93779524012973,136.47858414948834L191.3437525230135,142.00606330938874L191.76885873433523,142.00606330938874L192.174816017219,142.00606330938874L192.58077330010278,142.00606330938874L192.98673058298658,142.00606330938874L193.39268786587033,142.00606330938874L193.81779407719205,142.00606330938874L194.24290028851374,142.00606330938874L194.6488575713975,142.5801882166049L195.0548148542813,142.5801882166049L195.46077213716507,142.5801882166049L195.86672942004884,142.5801882166049L196.27268670293265,142.5801882166049L196.69779291425434,142.5801882166049L197.1037501971381,142.5801882166049L197.5097074800219,142.5801882166049L197.91566476290566,142.5801882166049L198.32162204578944,142.5801882166049L198.90757925598962,142.5801882166049L199.317366324561,142.5801882166049L200.12545110464097,142.5801882166049L200.53523817321232,142.5801882166049L200.94119545609612,142.5801882166049L201.52332288060867,142.5801882166049L201.92928016349248,142.5801882166049L202.35438637481417,142.5801882166049L202.76034365769794,142.5801882166049L203.16630094058172,142.5801882166049L203.5760880091531,142.5801882166049L204.0011942204748,142.5801882166049L204.40715150335856,142.5801882166049L204.83225771468028,142.5801882166049L205.25736392600197,142.5801882166049L205.66332120888575,142.5801882166049L206.0731082774571,142.5801882166049L206.47906556034087,142.5801882166049L206.88502284322465,142.5801882166049L207.29098012610842,142.5801882166049L207.69693740899223,142.5801882166049L208.102894691876,142.5801882166049L208.50885197475978,142.5801882166049L208.91480925764355,142.5801882166049L209.32076654052736,142.5801882166049L209.74587275184902,142.5801882166049L210.15183003473282,142.5801882166049L210.5616171033042,142.5801882166049L210.97140417187555,142.5801882166049L211.37736145475932,142.5801882166049L211.7833187376431,142.5801882166049L212.18927602052688,142.5801882166049L212.61438223184857,142.5801882166049L213.03948844317028,142.5801882166049L213.44544572605406,142.5801882166049L214.13097736413135,142.5801882166049L214.53693464701516,142.5801882166049L215.14587057134085,142.5801882166049L215.55182785422463,142.5801882166049L215.9577851371084,142.5801882166049L216.3828913484301,142.5801882166049L216.78884863131387,142.5801882166049L217.19480591419764,142.5801882166049L217.60076319708142,142.5801882166049L218.00672047996522,142.5801882166049L218.412677762849,142.5801882166049L218.81863504573278,142.5801882166049L219.51182625518527,142.5801882166049L219.91778353806905,142.5801882166049L220.32374082095282,142.5801882166049L220.72969810383663,142.5801882166049L221.13948517240797,142.5801882166049L221.85182531029838,142.5801882166049L222.25778259318216,142.5801882166049L222.66373987606593,142.5801882166049L223.06969715894974,142.5801882166049L223.47565444183348,142.5801882166049L223.88161172471726,142.5801882166049L224.28756900760104,142.5801882166049L224.69352629048484,142.5801882166049L225.09948357336862,142.5801882166049L225.5054408562524,142.5801882166049L225.91139813913617,142.5801882166049L226.31735542201994,142.5801882166049L226.72331270490375,142.5801882166049L227.12926998778752,142.5801882166049L227.5352272706713,142.5801882166049L227.94118455355508,142.5801882166049L228.34714183643888,142.5801882166049L228.75309911932266,142.5801882166049L229.17820533064435,142.5801882166049L229.58416261352812,142.5801882166049L229.9901198964119,142.5801882166049L230.39990696498327,142.5801882166049L230.80586424786702,142.5801882166049L231.2118215307508,142.5801882166049L231.6177788136346,142.5801882166049L232.02373609651838,142.5801882166049L232.42969337940215,142.5801882166049L232.83565066228593,142.5801882166049L233.26075687360762,142.5801882166049L233.68586308492934,142.5801882166049L234.0918203678131,142.5801882166049L234.5169265791348,142.5801882166049L235.24841564546313,142.5801882166049L235.6543729283469,142.5801882166049L236.33990456642425,142.5801882166049L237.1058617039408,142.5801882166049L237.51181898682458,142.5801882166049L237.91777626970836,142.5801882166049L238.32373355259213,142.57204460089972L238.7296908354759,142.57204460089972L239.1356481183597,142.57204460089972L239.56075432968137,142.57204460089972L239.96671161256518,142.57204460089972L240.37649868113655,142.57204460089972L240.78245596402033,142.57204460089972L241.20756217534202,142.57204460089972L241.6135194582258,142.57204460089972L242.01947674110957,142.57204460089972L242.42543402399335,142.57204460089972L242.83139130687715,142.57204460089972L243.23734858976093,142.57204460089972L243.6433058726447,142.5754377741102L244.04926315552848,142.5754377741102L244.45522043841225,142.5754377741102L244.86117772129606,142.5754377741102L245.26713500417983,142.5754377741102L245.6730922870636,142.5754377741102L246.07904956994736,142.5754377741102L246.48500685283116,142.5754377741102L246.89096413571494,142.5754377741102L247.2969214185987,142.5754377741102L247.7028787014825,142.5754377741102L248.10883598436627,142.5754377741102L248.51479326725007,142.5754377741102L248.92075055013385,142.5754377741102L249.33053761870522,142.5754377741102L249.74032468727657,142.5754377741102L250.14628197016035,142.5754377741102L250.55223925304412,142.5754377741102L250.9620263216155,142.5754377741102L251.3871325329372,142.5754377741102L251.81223874425888,142.5754377741102L252.2373449555806,142.5754377741102L252.64330223846437,142.5754377741102L253.06840844978606,142.5754377741102L253.47436573266984,142.5754377741102L253.8803230155536,142.5754377741102L254.2862802984374,142.5754377741102L254.6922375813212,142.5754377741102L255.09819486420497,142.5754377741102L255.50415214708872,142.5754377741102L255.9101094299725,142.5754377741102L256.3160667128563,142.5754377741102L256.7220239957401,142.5754377741102L257.12798127862385,142.5754377741102L257.5339385615076,142.5754377741102L257.9398958443914,142.5754377741102L258.34968291296275,142.5754377741102L258.7747891242845,142.5754377741102L259.1807464071682,142.5754377741102L259.58670369005205,142.5754377741102L259.9926609729358,142.5754377741102L260.3986182558196,142.5754377741102L260.8045755387034,142.5754377741102L261.22968175002507,142.5754377741102" fill="none"></path></g></g></g></g></g></g><g transform="translate(61, 177)" clip-path="url(#clip_1)"><clipPath id="clip_1"><rect width="268" height="22"></rect></clipPath><g><g><line x1="0" y1="0" x2="0" y2="5" style="visibility: inherit;" fill="rgb(0, 0, 0)" stroke="rgb(204, 204, 204)" stroke-width="1px"></line><line x1="19.148928437914165" y1="0" x2="19.148928437914165" y2="5" style="visibility: inherit;" fill="rgb(0, 0, 0)" stroke="rgb(204, 204, 204)" stroke-width="1px"></line><line x1="38.29785687582833" y1="0" x2="38.29785687582833" y2="5" style="visibility: inherit;" fill="rgb(0, 0, 0)" stroke="rgb(204, 204, 204)" stroke-width="1px"></line><line x1="57.446785313742495" y1="0" x2="57.446785313742495" y2="5" style="visibility: inherit;" fill="rgb(0, 0, 0)" stroke="rgb(204, 204, 204)" stroke-width="1px"></line><line x1="76.59571375165666" y1="0" x2="76.59571375165666" y2="5" style="visibility: inherit;" fill="rgb(0, 0, 0)" stroke="rgb(204, 204, 204)" stroke-width="1px"></line><line x1="95.74464218957084" y1="0" x2="95.74464218957084" y2="5" style="visibility: inherit;" fill="rgb(0, 0, 0)" stroke="rgb(204, 204, 204)" stroke-width="1px"></line><line x1="114.89357062748499" y1="0" x2="114.89357062748499" y2="5" style="visibility: inherit;" fill="rgb(0, 0, 0)" stroke="rgb(204, 204, 204)" stroke-width="1px"></line><line x1="134.04249906539917" y1="0" x2="134.04249906539917" y2="5" style="visibility: inherit;" fill="rgb(0, 0, 0)" stroke="rgb(204, 204, 204)" stroke-width="1px"></line><line x1="153.19142750331332" y1="0" x2="153.19142750331332" y2="5" style="visibility: inherit;" fill="rgb(0, 0, 0)" stroke="rgb(204, 204, 204)" stroke-width="1px"></line><line x1="172.34035594122753" y1="0" x2="172.34035594122753" y2="5" style="visibility: inherit;" fill="rgb(0, 0, 0)" stroke="rgb(204, 204, 204)" stroke-width="1px"></line><line x1="191.48928437914168" y1="0" x2="191.48928437914168" y2="5" style="visibility: inherit;" fill="rgb(0, 0, 0)" stroke="rgb(204, 204, 204)" stroke-width="1px"></line><line x1="210.63821281705583" y1="0" x2="210.63821281705583" y2="5" style="visibility: inherit;" fill="rgb(0, 0, 0)" stroke="rgb(204, 204, 204)" stroke-width="1px"></line><line x1="229.78714125496998" y1="0" x2="229.78714125496998" y2="5" style="visibility: inherit;" fill="rgb(0, 0, 0)" stroke="rgb(204, 204, 204)" stroke-width="1px"></line><line x1="248.9360696928842" y1="0" x2="248.9360696928842" y2="5" style="visibility: inherit;" fill="rgb(0, 0, 0)" stroke="rgb(204, 204, 204)" stroke-width="1px"></line><line x1="268.08499813079834" y1="0" x2="268.08499813079834" y2="5" style="visibility: inherit;" fill="rgb(0, 0, 0)" stroke="rgb(204, 204, 204)" stroke-width="1px"></line></g><g transform="translate(0, 8)"><text style="text-anchor: middle; visibility: hidden; font-family: Roboto, sans-serif; font-size: 12px; font-weight: 200;" x="0" y="0" dx="0em" dy="0.95em" fill="rgb(50, 49, 63)" stroke="none" stroke-width="1px">20k</text><text style="text-anchor: middle; visibility: inherit; font-family: Roboto, sans-serif; font-size: 12px; font-weight: 200;" x="19.148928437914165" y="0" dx="0em" dy="0.95em" fill="rgb(50, 49, 63)" stroke="none" stroke-width="1px">25k</text><text style="text-anchor: middle; visibility: hidden; font-family: Roboto, sans-serif; font-size: 12px; font-weight: 200;" x="38.29785687582833" y="0" dx="0em" dy="0.95em" fill="rgb(50, 49, 63)" stroke="none" stroke-width="1px">30k</text><text style="text-anchor: middle; visibility: inherit; font-family: Roboto, sans-serif; font-size: 12px; font-weight: 200;" x="57.446785313742495" y="0" dx="0em" dy="0.95em" fill="rgb(50, 49, 63)" stroke="none" stroke-width="1px">35k</text><text style="text-anchor: middle; visibility: hidden; font-family: Roboto, sans-serif; font-size: 12px; font-weight: 200;" x="76.59571375165666" y="0" dx="0em" dy="0.95em" fill="rgb(50, 49, 63)" stroke="none" stroke-width="1px">40k</text><text style="text-anchor: middle; visibility: inherit; font-family: Roboto, sans-serif; font-size: 12px; font-weight: 200;" x="95.74464218957084" y="0" dx="0em" dy="0.95em" fill="rgb(50, 49, 63)" stroke="none" stroke-width="1px">45k</text><text style="text-anchor: middle; visibility: hidden; font-family: Roboto, sans-serif; font-size: 12px; font-weight: 200;" x="114.89357062748499" y="0" dx="0em" dy="0.95em" fill="rgb(50, 49, 63)" stroke="none" stroke-width="1px">50k</text><text style="text-anchor: middle; visibility: inherit; font-family: Roboto, sans-serif; font-size: 12px; font-weight: 200;" x="134.04249906539917" y="0" dx="0em" dy="0.95em" fill="rgb(50, 49, 63)" stroke="none" stroke-width="1px">55k</text><text style="text-anchor: middle; visibility: hidden; font-family: Roboto, sans-serif; font-size: 12px; font-weight: 200;" x="153.19142750331332" y="0" dx="0em" dy="0.95em" fill="rgb(50, 49, 63)" stroke="none" stroke-width="1px">60k</text><text style="text-anchor: middle; visibility: inherit; font-family: Roboto, sans-serif; font-size: 12px; font-weight: 200;" x="172.34035594122753" y="0" dx="0em" dy="0.95em" fill="rgb(50, 49, 63)" stroke="none" stroke-width="1px">65k</text><text style="text-anchor: middle; visibility: hidden; font-family: Roboto, sans-serif; font-size: 12px; font-weight: 200;" x="191.48928437914168" y="0" dx="0em" dy="0.95em" fill="rgb(50, 49, 63)" stroke="none" stroke-width="1px">70k</text><text style="text-anchor: middle; visibility: inherit; font-family: Roboto, sans-serif; font-size: 12px; font-weight: 200;" x="210.63821281705583" y="0" dx="0em" dy="0.95em" fill="rgb(50, 49, 63)" stroke="none" stroke-width="1px">75k</text><text style="text-anchor: middle; visibility: hidden; font-family: Roboto, sans-serif; font-size: 12px; font-weight: 200;" x="229.78714125496998" y="0" dx="0em" dy="0.95em" fill="rgb(50, 49, 63)" stroke="none" stroke-width="1px">80k</text><text style="text-anchor: middle; visibility: inherit; font-family: Roboto, sans-serif; font-size: 12px; font-weight: 200;" x="248.9360696928842" y="0" dx="0em" dy="0.95em" fill="rgb(50, 49, 63)" stroke="none" stroke-width="1px">85k</text><text style="text-anchor: middle; visibility: hidden; font-family: Roboto, sans-serif; font-size: 12px; font-weight: 200;" x="268.08499813079834" y="0" dx="0em" dy="0.95em" fill="rgb(50, 49, 63)" stroke="none" stroke-width="1px">90k</text></g><line x1="0" y1="0" x2="268.08499813079834" y2="0" fill="rgb(0, 0, 0)" stroke="rgb(204, 204, 204)" stroke-width="1px"></line></g></g></g></g></svg>