<svg viewBox="0 0 330 200" xmlns="http://www.w3.org/2000/svg"><g><g><g><g><g><line x1="61.91500186920166" y1="177.89999961853027" x2="56.91500186920166" y2="177.89999961853027" style="visibility: inherit;" fill="rgb(0, 0, 0)" stroke="rgb(204, 204, 204)" stroke-width="1px"></line><line x1="61.91500186920166" y1="158.13333299424912" x2="56.91500186920166" y2="158.13333299424912" style="visibility: inherit;" fill="rgb(0, 0, 0)" stroke="rgb(204, 204, 204)" stroke-width="1px"></line><line x1="61.91500186920166" y1="138.366666369968" x2="56.91500186920166" y2="138.366666369968" style="visibility: inherit;" fill="rgb(0, 0, 0)" stroke="rgb(204, 204, 204)" stroke-width="1px"></line><line x1="61.91500186920166" y1="118.59999974568686" x2="56.91500186920166" y2="118.59999974568686" style="visibility: inherit;" fill="rgb(0, 0, 0)" stroke="rgb(204, 204, 204)" stroke-width="1px"></line><line x1="61.91500186920166" y1="98.83333312140572" x2="56.91500186920166" y2="98.83333312140572" style="visibility: inherit;" fill="rgb(0, 0, 0)" stroke="rgb(204, 204, 204)" stroke-width="1px"></line><line x1="61.91500186920166" y1="79.06666649712456" x2="56.91500186920166" y2="79.06666649712456" style="visibility: inherit;" fill="rgb(0, 0, 0)" stroke="rgb(204, 204, 204)" stroke-width="1px"></line><line x1="61.91500186920166" y1="59.29999987284341" x2="56.91500186920166" y2="59.29999987284341" style="visibility: inherit;" fill="rgb(0, 0, 0)" stroke="rgb(204, 204, 204)" stroke-width="1px"></line><line x1="61.91500186920166" y1="39.5333332485623" x2="56.91500186920166" y2="39.5333332485623" style="visibility: inherit;" fill="rgb(0, 0, 0)" stroke="rgb(204, 204, 204)" stroke-width="1px"></line><line x1="61.91500186920166" y1="19.76666662428113" x2="56.91500186920166" y2="19.76666662428113" style="visibility: inherit;" fill="rgb(0, 0, 0)" stroke="rgb(204, 204, 204)" stroke-width="1px"></line><line x1="61.91500186920166" y1="0" x2="56.91500186920166" y2="0" style="visibility: inherit;" fill="rgb(0, 0, 0)" stroke="rgb(204, 204, 204)" stroke-width="1px"></line></g><g transform="translate(51.91500186920166, 0)"><text style="text-anchor: end; visibility: hidden; font-family: Roboto, sans-serif; font-size: 12px; font-weight: 200;" x="0" y="177.89999961853027" dx="0em" dy="0.3em" fill="rgb(50, 49, 63)" stroke="none" stroke-width="1px">-0.02</text><text style="text-anchor: end; visibility: inherit; font-family: Roboto, sans-serif; font-size: 12px; font-weight: 200;" x="0" y="158.13333299424912" dx="0em" dy="0.3em" fill="rgb(50, 49, 63)" stroke="none" stroke-width="1px">0</text><text style="text-anchor: end; visibility: hidden; font-family: Roboto, sans-serif; font-size: 12px; font-weight: 200;" x="0" y="138.366666369968" dx="0em" dy="0.3em" fill="rgb(50, 49, 63)" stroke="none" stroke-width="1px">0.02</text><text style="text-anchor: end; visibility: inherit; font-family: Roboto, sans-serif; font-size: 12px; font-weight: 200;" x="0" y="118.59999974568686" dx="0em" dy="0.3em" fill="rgb(50, 49, 63)" stroke="none" stroke-width="1px">0.04</text><text style="text-anchor: end; visibility: hidden; font-family: Roboto, sans-serif; font-size: 12px; font-weight: 200;" x="0" y="98.83333312140572" dx="0em" dy="0.3em" fill="rgb(50, 49, 63)" stroke="none" stroke-width="1px">0.06</text><text style="text-anchor: end; visibility: inherit; font-family: Roboto, sans-serif; font-size: 12px; font-weight: 200;" x="0" y="79.06666649712456" dx="0em" dy="0.3em" fill="rgb(50, 49, 63)" stroke="none" stroke-width="1px">0.08</text><text style="text-anchor: end; visibility: hidden; font-family: Roboto, sans-serif; font-size: 12px; font-weight: 200;" x="0" y="59.29999987284341" dx="0em" dy="0.3em" fill="rgb(50, 49, 63)" stroke="none" stroke-width="1px">0.1</text><text style="text-anchor: end; visibility: inherit; font-family: Roboto, sans-serif; font-size: 12px; font-weight: 200;" x="0" y="39.5333332485623" dx="0em" dy="0.3em" fill="rgb(50, 49, 63)" stroke="none" stroke-width="1px">0.12</text><text style="text-anchor: end; visibility: hidden; font-family: Roboto, sans-serif; font-size: 12px; font-weight: 200;" x="0" y="19.76666662428113" dx="0em" dy="0.3em" fill="rgb(50, 49, 63)" stroke="none" stroke-width="1px">0.14</text><text style="text-anchor: end; visibility: hidden; font-family: Roboto, sans-serif; font-size: 12px; font-weight: 200;" x="0" y="0" dx="0em" dy="0.3em" fill="rgb(50, 49, 63)" stroke="none" stroke-width="1px">0.16</text></g><line x1="61.91500186920166" y1="0" x2="61.91500186920166" y2="177.89999961853027" fill="rgb(0, 0, 0)" stroke="rgb(204, 204, 204)" stroke-width="1px"></line></g></g><g transform="translate(61, 0)" clip-path="url(#clip_0)"><clipPath id="clip_0"><rect width="268" height="177"></rect></clipPath><g><g><g><line x1="0" y1="0" x2="0" y2="177.89999961853027" fill="rgb(0, 0, 0)" stroke="rgb(60, 60, 60)" stroke-width="1px" opacity="0.25"></line><line x1="19.148928437914165" y1="0" x2="19.148928437914165" y2="177.89999961853027" fill="rgb(0, 0, 0)" stroke="rgb(60, 60, 60)" stroke-width="1px" opacity="0.25"></line><line x1="38.29785687582833" y1="0" x2="38.29785687582833" y2="177.89999961853027" fill="rgb(0, 0, 0)" stroke="rgb(60, 60, 60)" stroke-width="1px" opacity="0.25"></line><line x1="57.446785313742495" y1="0" x2="57.446785313742495" y2="177.89999961853027" fill="rgb(0, 0, 0)" stroke="rgb(60, 60, 60)" stroke-width="1px" opacity="0.25"></line><line x1="76.59571375165666" y1="0" x2="76.59571375165666" y2="177.89999961853027" fill="rgb(0, 0, 0)" stroke="rgb(60, 60, 60)" stroke-width="1px" opacity="0.25"></line><line x1="95.74464218957084" y1="0" x2="95.74464218957084" y2="177.89999961853027" fill="rgb(0, 0, 0)" stroke="rgb(60, 60, 60)" stroke-width="1px" opacity="0.25"></line><line x1="114.89357062748499" y1="0" x2="114.89357062748499" y2="177.89999961853027" fill="rgb(0, 0, 0)" stroke="rgb(60, 60, 60)" stroke-width="1px" opacity="0.25"></line><line x1="134.04249906539917" y1="0" x2="134.04249906539917" y2="177.89999961853027" fill="rgb(0, 0, 0)" stroke="rgb(60, 60, 60)" stroke-width="1px" opacity="0.25"></line><line x1="153.19142750331332" y1="0" x2="153.19142750331332" y2="177.89999961853027" fill="rgb(0, 0, 0)" stroke="rgb(60, 60, 60)" stroke-width="1px" opacity="0.25"></line><line x1="172.34035594122753" y1="0" x2="172.34035594122753" y2="177.89999961853027" fill="rgb(0, 0, 0)" stroke="rgb(60, 60, 60)" stroke-width="1px" opacity="0.25"></line><line x1="191.48928437914168" y1="0" x2="191.48928437914168" y2="177.89999961853027" fill="rgb(0, 0, 0)" stroke="rgb(60, 60, 60)" stroke-width="1px" opacity="0.25"></line><line x1="210.63821281705583" y1="0" x2="210.63821281705583" y2="177.89999961853027" fill="rgb(0, 0, 0)" stroke="rgb(60, 60, 60)" stroke-width="1px" opacity="0.25"></line><line x1="229.78714125496998" y1="0" x2="229.78714125496998" y2="177.89999961853027" fill="rgb(0, 0, 0)" stroke="rgb(60, 60, 60)" stroke-width="1px" opacity="0.25"></line><line x1="248.9360696928842" y1="0" x2="248.9360696928842" y2="177.89999961853027" fill="rgb(0, 0, 0)" stroke="rgb(60, 60, 60)" stroke-width="1px" opacity="0.25"></line><line x1="268.08499813079834" y1="0" x2="268.08499813079834" y2="177.89999961853027" fill="rgb(0, 0, 0)" stroke="rgb(60, 60, 60)" stroke-width="1px" opacity="0.25"></line></g><g><line x1="0" y1="177.89999961853027" x2="268.08499813079834" y2="177.89999961853027" fill="rgb(0, 0, 0)" stroke="rgb(60, 60, 60)" stroke-width="1px" opacity="0.25"></line><line x1="0" y1="158.13333299424912" x2="268.08499813079834" y2="158.13333299424912" fill="rgb(0, 0, 0)" stroke="rgb(60, 60, 60)" stroke-width="1px" opacity="0.25"></line><line x1="0" y1="138.366666369968" x2="268.08499813079834" y2="138.366666369968" fill="rgb(0, 0, 0)" stroke="rgb(60, 60, 60)" stroke-width="1px" opacity="0.25"></line><line x1="0" y1="118.59999974568686" x2="268.08499813079834" y2="118.59999974568686" fill="rgb(0, 0, 0)" stroke="rgb(60, 60, 60)" stroke-width="1px" opacity="0.25"></line><line x1="0" y1="98.83333312140572" x2="268.08499813079834" y2="98.83333312140572" fill="rgb(0, 0, 0)" stroke="rgb(60, 60, 60)" stroke-width="1px" opacity="0.25"></line><line x1="0" y1="79.06666649712456" x2="268.08499813079834" y2="79.06666649712456" fill="rgb(0, 0, 0)" stroke="rgb(60, 60, 60)" stroke-width="1px" opacity="0.25"></line><line x1="0" y1="59.29999987284341" x2="268.08499813079834" y2="59.29999987284341" fill="rgb(0, 0, 0)" stroke="rgb(60, 60, 60)" stroke-width="1px" opacity="0.25"></line><line x1="0" y1="39.5333332485623" x2="268.08499813079834" y2="39.5333332485623" fill="rgb(0, 0, 0)" stroke="rgb(60, 60, 60)" stroke-width="1px" opacity="0.25"></line><line x1="0" y1="19.76666662428113" x2="268.08499813079834" y2="19.76666662428113" fill="rgb(0, 0, 0)" stroke="rgb(60, 60, 60)" stroke-width="1px" opacity="0.25"></line><line x1="0" y1="0" x2="268.08499813079834" y2="0" fill="rgb(0, 0, 0)" stroke="rgb(60, 60, 60)" stroke-width="1px" opacity="0.25"></line></g></g></g><g><g><line x1="0" y1="158.13333299424912" x2="268.08499813079834" y2="158.13333299424912" fill="rgb(0, 0, 0)" stroke="rgb(153, 153, 153)" stroke-width="1.5px"></line></g></g><g><g><line x1="-76.59571375165666" y1="0" x2="-76.59571375165666" y2="177.89999961853027" fill="rgb(0, 0, 0)" stroke="rgb(153, 153, 153)" stroke-width="1.5px"></line></g></g><g><g><g><g><g><path style="fill: none;" stroke="rgb(255, 112, 67)" stroke-width="2px" d="M12.239995057514735,32.27288041347115L13.350632906913756,32.27288041347111L14.009356045178004,32.27288041347111L14.415313328061785,32.27288041347115L15.376589535645076,32.27288041347115L16.173184958662304,32.27288041347115L17.394886593001228,32.27288041347115L18.501694656712665,32.27288041347115L18.907651939596448,32.27288041347115L20.02977914605822,32.27288041347115L20.435736428941997,32.27288041347115L20.84169371182578,32.27288041347115L21.427650922025954,32.27288041347115L22.02892727497646,32.27288041347111L22.434884557860236,32.27288041347111L24.27701147358758,32.27288041347111L25.4106280371121,32.27288041347111L25.81658531999588,32.27288041347115L27.758286663600376,32.27288041347115L28.623818228994097,32.27288041347111L29.569775293827057,32.27288041347115L30.201689932278224,32.27288041347111L31.147646997111185,32.27288041347115L31.553604279994964,32.27288041347111L31.959561562878747,32.27288041347115L32.36551884576253,32.27288041347115L33.02807176971436,32.27288041347111L33.617858765602115,32.27288041347115L34.54466690199716,32.27288041347115L35.37190061051505,32.272880413471164L35.77785789339883,32.272880413471164L36.183815176282614,32.27288041347115L36.86168724298477,32.272880413471164L37.46679338162286,32.27288041347115L37.87275066450664,32.27288041347115L38.55445251689639,32.27288041347115L39.27828201184954,32.27288041347115L39.97913279267719,32.27288041347115L40.385090075560974,32.27288041347111L41.204664212703705,32.27288041347111L41.61062149558749,32.27288041347111L42.01657877847127,32.27288041347115L43.16168469905853,32.27288041347111L44.11147154957907,32.27288041347115L44.78551383059365,32.27288041347115L45.191471113477434,32.272880413471164L45.59742839636122,32.27288041347115L46.00338567924499,32.27288041347115L46.42849189056669,32.27288041347115L46.834449173450466,32.27288041347111L47.24040645633425,32.27288041347111L48.052321022101815,32.27288041347115L48.95998023005894,32.27288041347111L49.36593751294272,32.27288041347115L49.95189472314289,32.27288041347115L50.53785193334307,32.27288041347115L50.94380921622685,32.27288041347115L51.55274514055252,32.27288041347111L53.46763798434394,32.27288041347111L54.06891433729444,32.27288041347115L54.494020548616135,32.27288041347115L54.89997783149992,32.27288041347115L55.48976482738767,32.27288041347115L55.89572211027145,32.27288041347111L56.71529624741418,32.27288041347111L57.12125353029796,32.27288041347111L57.527210813181746,32.27288041347115L58.96721023171288,32.27288041347115L59.373167514596666,32.27288041347115L59.78295458316803,32.27288041347111L60.38040115043095,32.27288041347111L60.78635843331473,32.27288041347111L61.391464571952824,32.27288041347111L62.01954942471641,32.27288041347115L62.601676849228994,32.27288041347115L63.808059340817586,32.27288041347115L64.53571862145833,32.27288041347115L64.9416759043421,32.27288041347115L65.3476331872259,32.27288041347115L65.75359047010967,32.27288041347115L66.45444125093732,32.27288041347115L67.0403984611375,32.27288041347115L67.44635574402129,32.27288041347115L67.85231302690505,32.27288041347115L68.25827030978884,32.27288041347115L68.66422759267262,32.27288041347115L69.0701848755564,32.27288041347115L69.86295051288604,32.27288041347115L71.46380093029568,32.27288041347115L71.86975821317945,32.27288041347115L72.90380034882682,32.27288041347115L73.6199702724048,32.27288041347115L74.02592755528859,32.27288041347115L74.60805497980118,32.27288041347115L76.26635218252454,32.27288041347115L76.95188382060188,32.27288041347115L77.87103238562175,32.27288041347115L78.27698966850554,32.27288041347115L78.68294695138931,32.27288041347115L80.41401008217676,32.27288041347115L81.03060557787758,49.90816770024342L81.76209464420592,60.489340072306774L82.62762620959963,66.8380434955448L83.0335834924834,70.64726554948761L83.61571091699601,72.9327987818533L84.19783834150859,74.30411872127272L84.60379562439238,75.12691068492437L85.23571026284354,75.62058586311535L85.64166754572733,75.91679097002994L86.0476248286111,76.09451403417869L86.77145432356426,76.20114787266796L87.17741160644805,76.2651281757615L87.7671986023358,76.30351635761762L88.19230481365749,76.3265492667313L88.59826209654126,76.3403690121995L89.00421937942505,86.77422678521391L89.95783601563316,93.03454144902258L90.36379329851695,96.79073024730778L91.14506957878385,99.04444352627891L91.55102686166764,100.39667149366156L91.95698414455141,101.20800827409117L92.38209035587312,101.69481034234893L92.98336670882361,101.98689158330359L93.69570684671402,102.1621403278764L94.2816640569142,102.26728957462007L94.68762133979797,102.33037912266627L95.09357862268175,102.368232851494L95.69868476131984,102.39094508879062L96.38421639939716,111.04303915080962L96.80932261071887,116.23429558802101L97.21527989360264,119.34904945034788L98.24166245787485,121.21790176774397L98.64761974075861,122.33921315818164L99.32166202177321,123.01199999244422L99.72761930465698,123.41567209300179L100.58166151298795,123.65787535333632L101.16378893750054,123.80319730953704L101.86080993264062,123.89039048325748L102.2667672155244,123.94270638748972L102.67272449840817,123.97409593002908L103.46549013573782,123.99292965555269L104.05527713162557,124.00422989086687L104.48038334294728,124.01101003205538L105.74038283416202,106.66468041565518L106.14634011704581,96.25688264581504L106.80123346962247,90.01220398391096L107.7548501058306,86.2653967867685L108.34463710171836,84.01731246848306L108.96506238310677,82.66846187751177L109.56633873605729,81.859151522929L110.79187015608379,81.37356531017934L111.40463586609704,81.08221358252953L112.90591185562951,80.90740254593966L113.3118691385133,80.80251592398572L114.3574006312234,80.73958395081338L114.76335791410719,80.70182476690998L115.16931519699096,80.67916925656792L115.57527247987476,80.6655759503627L116.18037861851283,80.65741996663957L116.76250604302543,80.65252637640566L117.16846332590922,80.64959022226535L117.57442060879298,80.64782852978117L117.98037789167677,80.64677151429063L118.38633517456054,80.64613730499633L119.1101646695137,80.64575677941974L119.51612195239748,80.64552846407379L120.1595259479114,80.64539147486622L120.79144058636257,80.64530928134167L121.19739786924636,80.64525996522693L121.60335515213013,80.64523037555809L122.02846136345183,80.6452126217568L122.4344186463356,80.64520196947602L123.17739706972668,80.64519557810755L123.58335435261046,80.64519174328646L123.98931163549423,80.64518944239383L124.39526891837801,80.64518806185824L124.82037512969971,80.64518723353689L125.6246301240921,80.64518673654406L126.34845961904526,80.64518643834838L126.77356583036696,80.64518625943097L127.3671826119423,80.64518615208053L127.79228882326399,80.64518608767025L128.38207581915174,80.64518604902409L128.7880331020355,80.6451860258364L129.38164988361086,80.64518601192377L129.80675609493255,80.6451860035762L131.12037258577345,80.64518599856765L131.52632986865726,80.64518599556254L131.95143607997895,80.64518599375947L132.35739336286272,80.64518599267763L132.9395207873753,80.6451859920285L133.3454780702591,80.64518599163905L133.93143528045928,80.64518599140536L134.52122227634703,80.64518599126517L134.9271795592308,80.64518599118102L135.33313684211458,80.64518599113055L135.91909405231476,80.64518599110026L137.25951904296875,80.64518599108212L137.66547632585252,80.64518599107122L138.39696539218085,80.64518599106465L138.80292267506462,80.64518599106074L139.20887995794843,80.64518599105837L139.8178158822741,80.64518599105698L140.22377316515787,80.64518599105612L140.62973044804164,80.64518599105561L141.62547472681317,80.64518599105531L142.03143200969697,80.64518599105511L142.83568700408938,80.645185991055L143.24164428697316,80.64518599105496L143.83526106854848,80.64518599105492L144.24121835143225,80.64518599105487L144.64717563431603,80.64518599105486L145.0531329171998,80.64518599105486L145.86887726865496,80.64518599105486L146.51228126416888,80.64518599105486L146.91823854705265,80.64518599105486L147.32419582993643,80.64518599105486L147.74930204125812,80.64518599105486L148.4424932507106,80.64518599105486L148.8484505335944,80.64518599105486L149.54164174304688,80.64518599105486L150.1275989532471,80.64518599105486L150.71355616344724,80.64518599105486L151.119513446331,80.64518599105486L151.5254707292148,80.64518599105486L151.9314280120986,80.64518599105486L152.85440636280603,80.64518599105486L153.2603636456898,80.64518599105486L153.6663209285736,80.64518599105486L154.0722782114574,80.64518599105486L154.47823549434116,80.64518599105486L155.06419270454137,80.64518599105486L155.47014998742515,80.64518599105486L155.8761072703089,80.64518599105486L156.28206455319267,80.64518599105486L156.68802183607644,80.64518599105486L157.09780890464782,80.64518599105486L157.50376618753162,80.64518599105486L157.9097234704154,80.64518599105486L158.3348296817371,80.64518599105486L159.2501484610694,80.64518599105486L159.65610574395316,80.64518599105486L160.06206302683694,80.64518599105486L160.4718500954083,99.40375499271893L160.87780737829206,110.65889639371733L161.30291358961378,117.41198123431637L161.70887087249756,121.46383213867581L162.11482815538136,123.89494268129148L162.53993436670302,125.35360900686086L162.94589164958683,126.22880880220251L163.53950843116218,126.7539286794075L163.94546571404595,127.0690006057305L164.35142299692973,127.25804376152428L164.75738027981347,127.37146965500057L165.16333756269725,129.55002517331863L165.76461391564777,130.85715848430948L166.39269876841135,131.64143847090398L166.97865597861156,132.11200646286068L167.38461326149533,132.3943472580347L167.79057054437908,132.5637517351391L168.19652782726286,132.66539442140177L168.7901446088382,132.72638003315936L169.196101891722,132.7629714002139L169.60205917460578,132.78492622044664L170.3105695268086,132.79809911258627L170.7165268096924,132.80600284787005L171.29865423420497,132.81074508904032L171.70461151708875,132.8135904337425L172.11056879997253,132.8152976405638L172.5165260828563,132.81632196465657L172.94163229417802,132.8169365591122L173.3475895770618,132.8173053157856L173.94503614432472,132.81752656978966L174.3509934272085,132.8176593221921L174.75695071009227,132.81773897363354L175.16290799297605,132.8177867644984L175.95567363030568,132.81781543901735L176.60673719719478,132.8178326437287L177.01269448007855,132.8178429665555L177.41865176296236,132.81784916025163L177.82460904584613,132.81785287646926L178.24971525716782,132.81785510619986L178.6556725400516,132.8178564440382L179.06545960862297,132.8178572467412L179.47141689150675,132.81785772836304L179.87737417439052,132.8178580173361L180.2833314572743,132.81785819071996L180.6892887401581,132.8178582947503L181.11439495147977,132.81785835716846L181.52035223436357,132.81785839461935L181.92630951724735,132.81785841708992L182.33226680013112,132.81785843057224L182.7382240830149,132.81785843866163L183.41226636402948,132.8178584435153L183.81822364691325,132.81785844642746L184.22418092979703,132.81785844817477L184.6301382126808,132.81785844922317L185.05524442400252,132.8178584498522L185.4803506353242,132.8178584502296L185.886307918208,132.81785845045604L186.29226520109177,132.81785845059193L186.69822248397557,132.81785845067344L187.10417976685935,132.81785845072238L187.5101370497431,132.81785845075171L187.91609433262687,132.8178584507693L188.32205161551065,132.81785845077988L188.90417904002325,132.81785845078622L189.31013632290703,132.81785845079003L189.7199233914784,132.8178584507923L190.1258806743622,132.81785845079366L190.53183795724598,132.8178584507945L190.93779524012973,132.81785845079497L191.3437525230135,132.81785845079528L191.76885873433523,132.81785845079546L192.174816017219,132.81785845079557L192.58077330010278,132.81785845079565L192.98673058298658,132.81785845079568L193.39268786587033,132.8178584507957L193.81779407719205,132.8178584507957L194.24290028851374,132.8178584507957L194.6488575713975,132.8178584507957L195.0548148542813,132.8178584507957L195.46077213716507,132.8178584507957L195.86672942004884,132.8178584507957L196.27268670293265,132.8178584507957L196.69779291425434,132.8178584507957L197.1037501971381,132.8178584507957L197.5097074800219,132.8178584507957L197.91566476290566,132.8178584507957L198.32162204578944,132.8178584507957L198.90757925598962,132.8178584507957L199.317366324561,132.8178584507957L200.12545110464097,132.8178584507957L200.53523817321232,132.8178584507957L200.94119545609612,132.8178584507957L201.52332288060867,132.8178584507957L201.92928016349248,132.8178584507957L202.35438637481417,132.8178584507957L202.76034365769794,132.8178584507957L203.16630094058172,132.8178584507957L203.5760880091531,141.0121002192901L204.0011942204748,145.9286452803867L204.40715150335856,148.87857231704464L204.83225771468028,150.64852853903943L205.25736392600197,151.71050227223628L205.66332120888575,152.3476865121544L206.0731082774571,152.72999705610528L206.47906556034087,152.9593833824758L206.88502284322465,153.09701517829814L207.29098012610842,153.17959425579153L207.69693740899223,153.22914170228754L208.102894691876,153.25887017018516L208.50885197475978,153.27670725092375L208.91480925764355,153.28740949936687L209.32076654052736,153.29383084843278L209.74587275184902,153.29768365787228L210.15183003473282,153.299995343536L210.5616171033042,153.30138235493425L210.97140417187555,153.30221456177318L211.37736145475932,153.30271388587656L211.7833187376431,153.30301348033856L212.18927602052688,153.3031932370158L212.61438223184857,153.30330109102212L213.03948844317028,153.30336580342592L213.44544572605406,154.06936248981228L214.13097736413135,154.5289605016441L214.53693464701516,155.14299237116467L215.14587057134085,155.51141149287702L215.55182785422463,155.73246296590443L215.9577851371084,155.86509384972086L216.3828913484301,155.94467238001073L216.78884863131387,155.99241949818463L217.19480591419764,153.11544533539487L217.60076319708142,151.38926083772103L218.00672047996522,150.3535501391167L218.412677762849,149.7321237199541L218.81863504573278,149.35926786845656L219.51182625518527,149.13555435755802L219.91778353806905,149.0013262510189L220.32374082095282,148.92078938709543L220.72969810383663,148.87246726874133L221.13948517240797,148.8434739977289L221.85182531029838,148.8260780351214L222.25778259318216,148.81564045755695L222.66373987606593,148.80937791101823L223.06969715894974,148.80562038309503L223.47565444183348,148.8033658663411L223.88161172471726,148.80201315628875L224.28756900760104,148.80120153025734L224.69352629048484,148.8007145546385L225.09948357336862,148.80042236926718L225.5054408562524,148.8002470580444L225.91139813913617,148.80014187131073L226.31735542201994,148.80007875927052L226.72331270490375,148.80004089204638L227.12926998778752,148.8000181717119L227.5352272706713,148.80000453951124L227.94118455355508,148.79999636019082L228.34714183643888,148.7999914525986L228.75309911932266,148.7999885080432L229.17820533064435,148.79998674131002L229.58416261352812,148.7999856812701L229.9901198964119,148.79998504524616L230.39990696498327,148.7999846636318L230.80586424786702,148.79998443466314L231.2118215307508,148.79998429728198L231.6177788136346,148.79998421485328L232.02373609651838,148.79998416539604L232.42969337940215,148.7999841357217L232.83565066228593,148.79998411791712L233.26075687360762,148.79998410723437L233.68586308492934,148.7999841008247L234.0918203678131,148.7999840969789L234.5169265791348,148.79998409467143L235.24841564546313,148.79998409328695L235.6543729283469,148.79998409245624L236.33990456642425,148.79998409195784L237.1058617039408,148.79998409165879L237.51181898682458,148.79998409147936L237.91777626970836,148.7999840913717L238.32373355259213,148.7999840913071L238.7296908354759,148.79998409126836L239.1356481183597,148.7999840912451L239.56075432968137,148.79998409123112L239.96671161256518,148.79998409122277L240.37649868113655,148.79998409121774L240.78245596402033,148.79998409121475L241.20756217534202,148.79998409121293L241.6135194582258,148.79998409121183L242.01947674110957,148.79998409121117L242.42543402399335,148.7999840912108L242.83139130687715,148.79998409121058L243.23734858976093,148.79998409121043L243.6433058726447,148.79998409121035L244.04926315552848,148.7999840912103L244.45522043841225,148.79998409121026L244.86117772129606,148.79998409121023L245.26713500417983,148.79998409121023L245.6730922870636,148.7999840912102L246.07904956994736,148.7999840912102L246.48500685283116,148.7999840912102L246.89096413571494,148.7999840912102L247.2969214185987,148.7999840912102L247.7028787014825,148.7999840912102L248.10883598436627,148.7999840912102L248.51479326725007,148.7999840912102L248.92075055013385,148.7999840912102L249.33053761870522,148.7999840912102L249.74032468727657,148.7999840912102L250.14628197016035,148.7999840912102L250.55223925304412,148.7999840912102L250.9620263216155,148.7999840912102L251.3871325329372,148.7999840912102L251.81223874425888,148.7999840912102L252.2373449555806,148.7999840912102L252.64330223846437,148.7999840912102L253.06840844978606,148.7999840912102L253.47436573266984,148.7999840912102L253.8803230155536,148.7999840912102L254.2862802984374,148.7999840912102L254.6922375813212,148.7999840912102L255.09819486420497,148.7999840912102L255.50415214708872,148.7999840912102L255.9101094299725,148.7999840912102L256.3160667128563,148.7999840912102L256.7220239957401,148.7999840912102L257.12798127862385,148.7999840912102L257.5339385615076,148.7999840912102L257.9398958443914,148.7999840912102L258.34968291296275,148.7999840912102L258.7747891242845,148.7999840912102L259.1807464071682,148.7999840912102L259.58670369005205,151.7798239968154L259.9926609729358,153.56772794017851L260.3986182558196,154.64047030619636L260.8045755387034,155.2841157258071L261.22968175002507,155.67030297757353" fill="none"></path></g></g></g></g><g opacity="0.2"><g><g><g><path style="fill: none;" stroke="rgb(255, 112, 67)" stroke-width="2px" d="M12.239995057514735,32.27288041347115L13.350632906913756,32.27288041347115L14.009356045178004,32.27288041347115L14.415313328061785,32.27288041347115L15.376589535645076,32.27288041347115L16.173184958662304,32.27288041347115L17.394886593001228,32.27288041347115L18.501694656712665,32.27288041347115L18.907651939596448,32.27288041347115L20.02977914605822,32.27288041347115L20.435736428941997,32.27288041347115L20.84169371182578,32.27288041347115L21.427650922025954,32.27288041347115L22.02892727497646,32.27288041347115L22.434884557860236,32.27288041347115L24.27701147358758,32.27288041347115L25.4106280371121,32.27288041347115L25.81658531999588,32.27288041347115L27.758286663600376,32.27288041347115L28.623818228994097,32.27288041347115L29.569775293827057,32.27288041347115L30.201689932278224,32.27288041347115L31.147646997111185,32.27288041347115L31.553604279994964,32.27288041347115L31.959561562878747,32.27288041347115L32.36551884576253,32.27288041347115L33.02807176971436,32.27288041347115L33.617858765602115,32.27288041347115L34.54466690199716,32.27288041347115L35.37190061051505,32.27288041347115L35.77785789339883,32.27288041347115L36.183815176282614,32.27288041347115L36.86168724298477,32.27288041347115L37.46679338162286,32.27288041347115L37.87275066450664,32.27288041347115L38.55445251689639,32.27288041347115L39.27828201184954,32.27288041347115L39.97913279267719,32.27288041347115L40.385090075560974,32.27288041347115L41.204664212703705,32.27288041347115L41.61062149558749,32.27288041347115L42.01657877847127,32.27288041347115L43.16168469905853,32.27288041347115L44.11147154957907,32.27288041347115L44.78551383059365,32.27288041347115L45.191471113477434,32.27288041347115L45.59742839636122,32.27288041347115L46.00338567924499,32.27288041347115L46.42849189056669,32.27288041347115L46.834449173450466,32.27288041347115L47.24040645633425,32.27288041347115L48.052321022101815,32.27288041347115L48.95998023005894,32.27288041347115L49.36593751294272,32.27288041347115L49.95189472314289,32.27288041347115L50.53785193334307,32.27288041347115L50.94380921622685,32.27288041347115L51.55274514055252,32.27288041347115L53.46763798434394,32.27288041347115L54.06891433729444,32.27288041347115L54.494020548616135,32.27288041347115L54.89997783149992,32.27288041347115L55.48976482738767,32.27288041347115L55.89572211027145,32.27288041347115L56.71529624741418,32.27288041347115L57.12125353029796,32.27288041347115L57.527210813181746,32.27288041347115L58.96721023171288,32.27288041347115L59.373167514596666,32.27288041347115L59.78295458316803,32.27288041347115L60.38040115043095,32.27288041347115L60.78635843331473,32.27288041347115L61.391464571952824,32.27288041347115L62.01954942471641,32.27288041347115L62.601676849228994,32.27288041347115L63.808059340817586,32.27288041347115L64.53571862145833,32.27288041347115L64.9416759043421,32.27288041347115L65.3476331872259,32.27288041347115L65.75359047010967,32.27288041347115L66.45444125093732,32.27288041347115L67.0403984611375,32.27288041347115L67.44635574402129,32.27288041347115L67.85231302690505,32.27288041347115L68.25827030978884,32.27288041347115L68.66422759267262,32.27288041347115L69.0701848755564,32.27288041347115L69.86295051288604,32.27288041347115L71.46380093029568,32.27288041347115L71.86975821317945,32.27288041347115L72.90380034882682,32.27288041347115L73.6199702724048,32.27288041347115L74.02592755528859,32.27288041347115L74.60805497980118,32.27288041347115L76.26635218252454,32.27288041347115L76.95188382060188,32.27288041347115L77.87103238562175,32.27288041347115L78.27698966850554,32.27288041347115L78.68294695138931,32.27288041347115L80.41401008217676,32.27288041347115L81.03060557787758,76.36109863040183L81.76209464420592,76.36109863040183L82.62762620959963,76.36109863040183L83.0335834924834,76.36109863040183L83.61571091699601,76.36109863040183L84.19783834150859,76.36109863040183L84.60379562439238,76.36109863040183L85.23571026284354,76.36109863040183L85.64166754572733,76.36109863040183L86.0476248286111,76.36109863040183L86.77145432356426,76.36109863040183L87.17741160644805,76.36109863040183L87.7671986023358,76.36109863040183L88.19230481365749,76.36109863040183L88.59826209654126,76.36109863040183L89.00421937942505,102.42501344473557L89.95783601563316,102.42501344473557L90.36379329851695,102.42501344473557L91.14506957878385,102.42501344473557L91.55102686166764,102.42501344473557L91.95698414455141,102.42501344473557L92.38209035587312,102.42501344473557L92.98336670882361,102.42501344473557L93.69570684671402,102.42501344473557L94.2816640569142,102.42501344473557L94.68762133979797,102.42501344473557L95.09357862268175,102.42501344473557L95.69868476131984,102.42501344473557L96.38421639939716,124.02118024383812L96.80932261071887,124.02118024383812L97.21527989360264,124.02118024383812L98.24166245787485,124.02118024383812L98.64761974075861,124.02118024383812L99.32166202177321,124.02118024383812L99.72761930465698,124.02118024383812L100.58166151298795,124.02118024383812L101.16378893750054,124.02118024383812L101.86080993264062,124.02118024383812L102.2667672155244,124.02118024383812L102.67272449840817,124.02118024383812L103.46549013573782,124.02118024383812L104.05527713162557,124.02118024383812L104.48038334294728,124.02118024383812L105.74038283416202,80.64518599105483L106.14634011704581,80.64518599105483L106.80123346962247,80.64518599105483L107.7548501058306,80.64518599105483L108.34463710171836,80.64518599105483L108.96506238310677,80.64518599105483L109.56633873605729,80.64518599105483L110.79187015608379,80.64518599105483L111.40463586609704,80.64518599105483L112.90591185562951,80.64518599105483L113.3118691385133,80.64518599105483L114.3574006312234,80.64518599105483L114.76335791410719,80.64518599105483L115.16931519699096,80.64518599105483L115.57527247987476,80.64518599105483L116.18037861851283,80.64518599105483L116.76250604302543,80.64518599105483L117.16846332590922,80.64518599105483L117.57442060879298,80.64518599105483L117.98037789167677,80.64518599105483L118.38633517456054,80.64518599105483L119.1101646695137,80.64518599105483L119.51612195239748,80.64518599105483L120.1595259479114,80.64518599105483L120.79144058636257,80.64518599105483L121.19739786924636,80.64518599105483L121.60335515213013,80.64518599105483L122.02846136345183,80.64518599105483L122.4344186463356,80.64518599105483L123.17739706972668,80.64518599105483L123.58335435261046,80.64518599105483L123.98931163549423,80.64518599105483L124.39526891837801,80.64518599105483L124.82037512969971,80.64518599105483L125.6246301240921,80.64518599105483L126.34845961904526,80.64518599105483L126.77356583036696,80.64518599105483L127.3671826119423,80.64518599105483L127.79228882326399,80.64518599105483L128.38207581915174,80.64518599105483L128.7880331020355,80.64518599105483L129.38164988361086,80.64518599105483L129.80675609493255,80.64518599105483L131.12037258577345,80.64518599105483L131.52632986865726,80.64518599105483L131.95143607997895,80.64518599105483L132.35739336286272,80.64518599105483L132.9395207873753,80.64518599105483L133.3454780702591,80.64518599105483L133.93143528045928,80.64518599105483L134.52122227634703,80.64518599105483L134.9271795592308,80.64518599105483L135.33313684211458,80.64518599105483L135.91909405231476,80.64518599105483L137.25951904296875,80.64518599105483L137.66547632585252,80.64518599105483L138.39696539218085,80.64518599105483L138.80292267506462,80.64518599105483L139.20887995794843,80.64518599105483L139.8178158822741,80.64518599105483L140.22377316515787,80.64518599105483L140.62973044804164,80.64518599105483L141.62547472681317,80.64518599105483L142.03143200969697,80.64518599105483L142.83568700408938,80.64518599105483L143.24164428697316,80.64518599105483L143.83526106854848,80.64518599105483L144.24121835143225,80.64518599105483L144.64717563431603,80.64518599105483L145.0531329171998,80.64518599105483L145.86887726865496,80.64518599105483L146.51228126416888,80.64518599105483L146.91823854705265,80.64518599105483L147.32419582993643,80.64518599105483L147.74930204125812,80.64518599105483L148.4424932507106,80.64518599105483L148.8484505335944,80.64518599105483L149.54164174304688,80.64518599105483L150.1275989532471,80.64518599105483L150.71355616344724,80.64518599105483L151.119513446331,80.64518599105483L151.5254707292148,80.64518599105483L151.9314280120986,80.64518599105483L152.85440636280603,80.64518599105483L153.2603636456898,80.64518599105483L153.6663209285736,80.64518599105483L154.0722782114574,80.64518599105483L154.47823549434116,80.64518599105483L155.06419270454137,80.64518599105483L155.47014998742515,80.64518599105483L155.8761072703089,80.64518599105483L156.28206455319267,80.64518599105483L156.68802183607644,80.64518599105483L157.09780890464782,80.64518599105483L157.50376618753162,80.64518599105483L157.9097234704154,80.64518599105483L158.3348296817371,80.64518599105483L159.2501484610694,80.64518599105483L159.65610574395316,80.64518599105483L160.06206302683694,80.64518599105483L160.4718500954083,127.54160849521497L160.87780737829206,127.54160849521497L161.30291358961378,127.54160849521497L161.70887087249756,127.54160849521497L162.11482815538136,127.54160849521497L162.53993436670302,127.54160849521497L162.94589164958683,127.54160849521497L163.53950843116218,127.54160849521497L163.94546571404595,127.54160849521497L164.35142299692973,127.54160849521497L164.75738027981347,127.54160849521497L165.16333756269725,132.8178584507957L165.76461391564777,132.8178584507957L166.39269876841135,132.8178584507957L166.97865597861156,132.8178584507957L167.38461326149533,132.8178584507957L167.79057054437908,132.8178584507957L168.19652782726286,132.8178584507957L168.7901446088382,132.8178584507957L169.196101891722,132.8178584507957L169.60205917460578,132.8178584507957L170.3105695268086,132.8178584507957L170.7165268096924,132.8178584507957L171.29865423420497,132.8178584507957L171.70461151708875,132.8178584507957L172.11056879997253,132.8178584507957L172.5165260828563,132.8178584507957L172.94163229417802,132.8178584507957L173.3475895770618,132.8178584507957L173.94503614432472,132.8178584507957L174.3509934272085,132.8178584507957L174.75695071009227,132.8178584507957L175.16290799297605,132.8178584507957L175.95567363030568,132.8178584507957L176.60673719719478,132.8178584507957L177.01269448007855,132.8178584507957L177.41865176296236,132.8178584507957L177.82460904584613,132.8178584507957L178.24971525716782,132.8178584507957L178.6556725400516,132.8178584507957L179.06545960862297,132.8178584507957L179.47141689150675,132.8178584507957L179.87737417439052,132.8178584507957L180.2833314572743,132.8178584507957L180.6892887401581,132.8178584507957L181.11439495147977,132.8178584507957L181.52035223436357,132.8178584507957L181.92630951724735,132.8178584507957L182.33226680013112,132.8178584507957L182.7382240830149,132.8178584507957L183.41226636402948,132.8178584507957L183.81822364691325,132.8178584507957L184.22418092979703,132.8178584507957L184.6301382126808,132.8178584507957L185.05524442400252,132.8178584507957L185.4803506353242,132.8178584507957L185.886307918208,132.8178584507957L186.29226520109177,132.8178584507957L186.69822248397557,132.8178584507957L187.10417976685935,132.8178584507957L187.5101370497431,132.8178584507957L187.91609433262687,132.8178584507957L188.32205161551065,132.8178584507957L188.90417904002325,132.8178584507957L189.31013632290703,132.8178584507957L189.7199233914784,132.8178584507957L190.1258806743622,132.8178584507957L190.53183795724598,132.8178584507957L190.93779524012973,132.8178584507957L191.3437525230135,132.8178584507957L191.76885873433523,132.8178584507957L192.174816017219,132.8178584507957L192.58077330010278,132.8178584507957L192.98673058298658,132.8178584507957L193.39268786587033,132.8178584507957L193.81779407719205,132.8178584507957L194.24290028851374,132.8178584507957L194.6488575713975,132.8178584507957L195.0548148542813,132.8178584507957L195.46077213716507,132.8178584507957L195.86672942004884,132.8178584507957L196.27268670293265,132.8178584507957L196.69779291425434,132.8178584507957L197.1037501971381,132.8178584507957L197.5097074800219,132.8178584507957L197.91566476290566,132.8178584507957L198.32162204578944,132.8178584507957L198.90757925598962,132.8178584507957L199.317366324561,132.8178584507957L200.12545110464097,132.8178584507957L200.53523817321232,132.8178584507957L200.94119545609612,132.8178584507957L201.52332288060867,132.8178584507957L201.92928016349248,132.8178584507957L202.35438637481417,132.8178584507957L202.76034365769794,132.8178584507957L203.16630094058172,132.8178584507957L203.5760880091531,153.3034628720316L204.0011942204748,153.3034628720316L204.40715150335856,153.3034628720316L204.83225771468028,153.3034628720316L205.25736392600197,153.3034628720316L205.66332120888575,153.3034628720316L206.0731082774571,153.3034628720316L206.47906556034087,153.3034628720316L206.88502284322465,153.3034628720316L207.29098012610842,153.3034628720316L207.69693740899223,153.3034628720316L208.102894691876,153.3034628720316L208.50885197475978,153.3034628720316L208.91480925764355,153.3034628720316L209.32076654052736,153.3034628720316L209.74587275184902,153.3034628720316L210.15183003473282,153.3034628720316L210.5616171033042,153.3034628720316L210.97140417187555,153.3034628720316L211.37736145475932,153.3034628720316L211.7833187376431,153.3034628720316L212.18927602052688,153.3034628720316L212.61438223184857,153.3034628720316L213.03948844317028,153.3034628720316L213.44544572605406,155.21835751939187L214.13097736413135,155.21835751939187L214.53693464701516,156.0640401754455L215.14587057134085,156.0640401754455L215.55182785422463,156.0640401754455L215.9577851371084,156.0640401754455L216.3828913484301,156.0640401754455L216.78884863131387,156.0640401754455L217.19480591419764,148.7999840912102L217.60076319708142,148.7999840912102L218.00672047996522,148.7999840912102L218.412677762849,148.7999840912102L218.81863504573278,148.7999840912102L219.51182625518527,148.7999840912102L219.91778353806905,148.7999840912102L220.32374082095282,148.7999840912102L220.72969810383663,148.7999840912102L221.13948517240797,148.7999840912102L221.85182531029838,148.7999840912102L222.25778259318216,148.7999840912102L222.66373987606593,148.7999840912102L223.06969715894974,148.7999840912102L223.47565444183348,148.7999840912102L223.88161172471726,148.7999840912102L224.28756900760104,148.7999840912102L224.69352629048484,148.7999840912102L225.09948357336862,148.7999840912102L225.5054408562524,148.7999840912102L225.91139813913617,148.7999840912102L226.31735542201994,148.7999840912102L226.72331270490375,148.7999840912102L227.12926998778752,148.7999840912102L227.5352272706713,148.7999840912102L227.94118455355508,148.7999840912102L228.34714183643888,148.7999840912102L228.75309911932266,148.7999840912102L229.17820533064435,148.7999840912102L229.58416261352812,148.7999840912102L229.9901198964119,148.7999840912102L230.39990696498327,148.7999840912102L230.80586424786702,148.7999840912102L231.2118215307508,148.7999840912102L231.6177788136346,148.7999840912102L232.02373609651838,148.7999840912102L232.42969337940215,148.7999840912102L232.83565066228593,148.7999840912102L233.26075687360762,148.7999840912102L233.68586308492934,148.7999840912102L234.0918203678131,148.7999840912102L234.5169265791348,148.7999840912102L235.24841564546313,148.7999840912102L235.6543729283469,148.7999840912102L236.33990456642425,148.7999840912102L237.1058617039408,148.7999840912102L237.51181898682458,148.7999840912102L237.91777626970836,148.7999840912102L238.32373355259213,148.7999840912102L238.7296908354759,148.7999840912102L239.1356481183597,148.7999840912102L239.56075432968137,148.7999840912102L239.96671161256518,148.7999840912102L240.37649868113655,148.7999840912102L240.78245596402033,148.7999840912102L241.20756217534202,148.7999840912102L241.6135194582258,148.7999840912102L242.01947674110957,148.7999840912102L242.42543402399335,148.7999840912102L242.83139130687715,148.7999840912102L243.23734858976093,148.7999840912102L243.6433058726447,148.7999840912102L244.04926315552848,148.7999840912102L244.45522043841225,148.7999840912102L244.86117772129606,148.7999840912102L245.26713500417983,148.7999840912102L245.6730922870636,148.7999840912102L246.07904956994736,148.7999840912102L246.48500685283116,148.7999840912102L246.89096413571494,148.7999840912102L247.2969214185987,148.7999840912102L247.7028787014825,148.7999840912102L248.10883598436627,148.7999840912102L248.51479326725007,148.7999840912102L248.92075055013385,148.7999840912102L249.33053761870522,148.7999840912102L249.74032468727657,148.7999840912102L250.14628197016035,148.7999840912102L250.55223925304412,148.7999840912102L250.9620263216155,148.7999840912102L251.3871325329372,148.7999840912102L251.81223874425888,148.7999840912102L252.2373449555806,148.7999840912102L252.64330223846437,148.7999840912102L253.06840844978606,148.7999840912102L253.47436573266984,148.7999840912102L253.8803230155536,148.7999840912102L254.2862802984374,148.7999840912102L254.6922375813212,148.7999840912102L255.09819486420497,148.7999840912102L255.50415214708872,148.7999840912102L255.9101094299725,148.7999840912102L256.3160667128563,148.7999840912102L256.7220239957401,148.7999840912102L257.12798127862385,148.7999840912102L257.5339385615076,148.7999840912102L257.9398958443914,148.7999840912102L258.34968291296275,148.7999840912102L258.7747891242845,148.7999840912102L259.1807464071682,148.7999840912102L259.58670369005205,156.24958385522316L259.9926609729358,156.24958385522316L260.3986182558196,156.24958385522316L260.8045755387034,156.24958385522316L261.22968175002507,156.24958385522316" fill="none"></path></g></g></g></g></g></g><g transform="translate(61, 177)" clip-path="url(#clip_1)"><clipPath id="clip_1"><rect width="268" height="22"></rect></clipPath><g><g><line x1="0" y1="0" x2="0" y2="5" style="visibility: inherit;" fill="rgb(0, 0, 0)" stroke="rgb(204, 204, 204)" stroke-width="1px"></line><line x1="19.148928437914165" y1="0" x2="19.148928437914165" y2="5" style="visibility: inherit;" fill="rgb(0, 0, 0)" stroke="rgb(204, 204, 204)" stroke-width="1px"></line><line x1="38.29785687582833" y1="0" x2="38.29785687582833" y2="5" style="visibility: inherit;" fill="rgb(0, 0, 0)" stroke="rgb(204, 204, 204)" stroke-width="1px"></line><line x1="57.446785313742495" y1="0" x2="57.446785313742495" y2="5" style="visibility: inherit;" fill="rgb(0, 0, 0)" stroke="rgb(204, 204, 204)" stroke-width="1px"></line><line x1="76.59571375165666" y1="0" x2="76.59571375165666" y2="5" style="visibility: inherit;" fill="rgb(0, 0, 0)" stroke="rgb(204, 204, 204)" stroke-width="1px"></line><line x1="95.74464218957084" y1="0" x2="95.74464218957084" y2="5" style="visibility: inherit;" fill="rgb(0, 0, 0)" stroke="rgb(204, 204, 204)" stroke-width="1px"></line><line x1="114.89357062748499" y1="0" x2="114.89357062748499" y2="5" style="visibility: inherit;" fill="rgb(0, 0, 0)" stroke="rgb(204, 204, 204)" stroke-width="1px"></line><line x1="134.04249906539917" y1="0" x2="134.04249906539917" y2="5" style="visibility: inherit;" fill="rgb(0, 0, 0)" stroke="rgb(204, 204, 204)" stroke-width="1px"></line><line x1="153.19142750331332" y1="0" x2="153.19142750331332" y2="5" style="visibility: inherit;" fill="rgb(0, 0, 0)" stroke="rgb(204, 204, 204)" stroke-width="1px"></line><line x1="172.34035594122753" y1="0" x2="172.34035594122753" y2="5" style="visibility: inherit;" fill="rgb(0, 0, 0)" stroke="rgb(204, 204, 204)" stroke-width="1px"></line><line x1="191.48928437914168" y1="0" x2="191.48928437914168" y2="5" style="visibility: inherit;" fill="rgb(0, 0, 0)" stroke="rgb(204, 204, 204)" stroke-width="1px"></line><line x1="210.63821281705583" y1="0" x2="210.63821281705583" y2="5" style="visibility: inherit;" fill="rgb(0, 0, 0)" stroke="rgb(204, 204, 204)" stroke-width="1px"></line><line x1="229.78714125496998" y1="0" x2="229.78714125496998" y2="5" style="visibility: inherit;" fill="rgb(0, 0, 0)" stroke="rgb(204, 204, 204)" stroke-width="1px"></line><line x1="248.9360696928842" y1="0" x2="248.9360696928842" y2="5" style="visibility: inherit;" fill="rgb(0, 0, 0)" stroke="rgb(204, 204, 204)" stroke-width="1px"></line><line x1="268.08499813079834" y1="0" x2="268.08499813079834" y2="5" style="visibility: inherit;" fill="rgb(0, 0, 0)" stroke="rgb(204, 204, 204)" stroke-width="1px"></line></g><g transform="translate(0, 8)"><text style="text-anchor: middle; visibility: hidden; font-family: Roboto, sans-serif; font-size: 12px; font-weight: 200;" x="0" y="0" dx="0em" dy="0.95em" fill="rgb(50, 49, 63)" stroke="none" stroke-width="1px">20k</text><text style="text-anchor: middle; visibility: inherit; font-family: Roboto, sans-serif; font-size: 12px; font-weight: 200;" x="19.148928437914165" y="0" dx="0em" dy="0.95em" fill="rgb(50, 49, 63)" stroke="none" stroke-width="1px">25k</text><text style="text-anchor: middle; visibility: hidden; font-family: Roboto, sans-serif; font-size: 12px; font-weight: 200;" x="38.29785687582833" y="0" dx="0em" dy="0.95em" fill="rgb(50, 49, 63)" stroke="none" stroke-width="1px">30k</text><text style="text-anchor: middle; visibility: inherit; font-family: Roboto, sans-serif; font-size: 12px; font-weight: 200;" x="57.446785313742495" y="0" dx="0em" dy="0.95em" fill="rgb(50, 49, 63)" stroke="none" stroke-width="1px">35k</text><text style="text-anchor: middle; visibility: hidden; font-family: Roboto, sans-serif; font-size: 12px; font-weight: 200;" x="76.59571375165666" y="0" dx="0em" dy="0.95em" fill="rgb(50, 49, 63)" stroke="none" stroke-width="1px">40k</text><text style="text-anchor: middle; visibility: inherit; font-family: Roboto, sans-serif; font-size: 12px; font-weight: 200;" x="95.74464218957084" y="0" dx="0em" dy="0.95em" fill="rgb(50, 49, 63)" stroke="none" stroke-width="1px">45k</text><text style="text-anchor: middle; visibility: hidden; font-family: Roboto, sans-serif; font-size: 12px; font-weight: 200;" x="114.89357062748499" y="0" dx="0em" dy="0.95em" fill="rgb(50, 49, 63)" stroke="none" stroke-width="1px">50k</text><text style="text-anchor: middle; visibility: inherit; font-family: Roboto, sans-serif; font-size: 12px; font-weight: 200;" x="134.04249906539917" y="0" dx="0em" dy="0.95em" fill="rgb(50, 49, 63)" stroke="none" stroke-width="1px">55k</text><text style="text-anchor: middle; visibility: hidden; font-family: Roboto, sans-serif; font-size: 12px; font-weight: 200;" x="153.19142750331332" y="0" dx="0em" dy="0.95em" fill="rgb(50, 49, 63)" stroke="none" stroke-width="1px">60k</text><text style="text-anchor: middle; visibility: inherit; font-family: Roboto, sans-serif; font-size: 12px; font-weight: 200;" x="172.34035594122753" y="0" dx="0em" dy="0.95em" fill="rgb(50, 49, 63)" stroke="none" stroke-width="1px">65k</text><text style="text-anchor: middle; visibility: hidden; font-family: Roboto, sans-serif; font-size: 12px; font-weight: 200;" x="191.48928437914168" y="0" dx="0em" dy="0.95em" fill="rgb(50, 49, 63)" stroke="none" stroke-width="1px">70k</text><text style="text-anchor: middle; visibility: inherit; font-family: Roboto, sans-serif; font-size: 12px; font-weight: 200;" x="210.63821281705583" y="0" dx="0em" dy="0.95em" fill="rgb(50, 49, 63)" stroke="none" stroke-width="1px">75k</text><text style="text-anchor: middle; visibility: hidden; font-family: Roboto, sans-serif; font-size: 12px; font-weight: 200;" x="229.78714125496998" y="0" dx="0em" dy="0.95em" fill="rgb(50, 49, 63)" stroke="none" stroke-width="1px">80k</text><text style="text-anchor: middle; visibility: inherit; font-family: Roboto, sans-serif; font-size: 12px; font-weight: 200;" x="248.9360696928842" y="0" dx="0em" dy="0.95em" fill="rgb(50, 49, 63)" stroke="none" stroke-width="1px">85k</text><text style="text-anchor: middle; visibility: hidden; font-family: Roboto, sans-serif; font-size: 12px; font-weight: 200;" x="268.08499813079834" y="0" dx="0em" dy="0.95em" fill="rgb(50, 49, 63)" stroke="none" stroke-width="1px">90k</text></g><line x1="0" y1="0" x2="268.08499813079834" y2="0" fill="rgb(0, 0, 0)" stroke="rgb(204, 204, 204)" stroke-width="1px"></line></g></g></g></g></svg>