<svg viewBox="0 0 330 200" xmlns="http://www.w3.org/2000/svg"><g><g><g><g><g><line x1="51.53200149536133" y1="177.89999961853027" x2="46.53200149536133" y2="177.89999961853027" style="visibility: inherit;" fill="rgb(0, 0, 0)" stroke="rgb(204, 204, 204)" stroke-width="1px"></line><line x1="51.53200149536133" y1="158.13333299424912" x2="46.53200149536133" y2="158.13333299424912" style="visibility: inherit;" fill="rgb(0, 0, 0)" stroke="rgb(204, 204, 204)" stroke-width="1px"></line><line x1="51.53200149536133" y1="138.366666369968" x2="46.53200149536133" y2="138.366666369968" style="visibility: inherit;" fill="rgb(0, 0, 0)" stroke="rgb(204, 204, 204)" stroke-width="1px"></line><line x1="51.53200149536133" y1="118.59999974568686" x2="46.53200149536133" y2="118.59999974568686" style="visibility: inherit;" fill="rgb(0, 0, 0)" stroke="rgb(204, 204, 204)" stroke-width="1px"></line><line x1="51.53200149536133" y1="98.83333312140572" x2="46.53200149536133" y2="98.83333312140572" style="visibility: inherit;" fill="rgb(0, 0, 0)" stroke="rgb(204, 204, 204)" stroke-width="1px"></line><line x1="51.53200149536133" y1="79.06666649712456" x2="46.53200149536133" y2="79.06666649712456" style="visibility: inherit;" fill="rgb(0, 0, 0)" stroke="rgb(204, 204, 204)" stroke-width="1px"></line><line x1="51.53200149536133" y1="59.29999987284343" x2="46.53200149536133" y2="59.29999987284343" style="visibility: inherit;" fill="rgb(0, 0, 0)" stroke="rgb(204, 204, 204)" stroke-width="1px"></line><line x1="51.53200149536133" y1="39.53333324856228" x2="46.53200149536133" y2="39.53333324856228" style="visibility: inherit;" fill="rgb(0, 0, 0)" stroke="rgb(204, 204, 204)" stroke-width="1px"></line><line x1="51.53200149536133" y1="19.76666662428115" x2="46.53200149536133" y2="19.76666662428115" style="visibility: inherit;" fill="rgb(0, 0, 0)" stroke="rgb(204, 204, 204)" stroke-width="1px"></line><line x1="51.53200149536133" y1="0" x2="46.53200149536133" y2="0" style="visibility: inherit;" fill="rgb(0, 0, 0)" stroke="rgb(204, 204, 204)" stroke-width="1px"></line></g><g transform="translate(41.53200149536133, 0)"><text style="text-anchor: end; visibility: hidden; font-family: Roboto, sans-serif; font-size: 12px; font-weight: 200;" x="0" y="177.89999961853027" dx="0em" dy="0.3em" fill="rgb(50, 49, 63)" stroke="none" stroke-width="1px">-0.5</text><text style="text-anchor: end; visibility: inherit; font-family: Roboto, sans-serif; font-size: 12px; font-weight: 200;" x="0" y="158.13333299424912" dx="0em" dy="0.3em" fill="rgb(50, 49, 63)" stroke="none" stroke-width="1px">0</text><text style="text-anchor: end; visibility: hidden; font-family: Roboto, sans-serif; font-size: 12px; font-weight: 200;" x="0" y="138.366666369968" dx="0em" dy="0.3em" fill="rgb(50, 49, 63)" stroke="none" stroke-width="1px">0.5</text><text style="text-anchor: end; visibility: inherit; font-family: Roboto, sans-serif; font-size: 12px; font-weight: 200;" x="0" y="118.59999974568686" dx="0em" dy="0.3em" fill="rgb(50, 49, 63)" stroke="none" stroke-width="1px">1</text><text style="text-anchor: end; visibility: hidden; font-family: Roboto, sans-serif; font-size: 12px; font-weight: 200;" x="0" y="98.83333312140572" dx="0em" dy="0.3em" fill="rgb(50, 49, 63)" stroke="none" stroke-width="1px">1.5</text><text style="text-anchor: end; visibility: inherit; font-family: Roboto, sans-serif; font-size: 12px; font-weight: 200;" x="0" y="79.06666649712456" dx="0em" dy="0.3em" fill="rgb(50, 49, 63)" stroke="none" stroke-width="1px">2</text><text style="text-anchor: end; visibility: hidden; font-family: Roboto, sans-serif; font-size: 12px; font-weight: 200;" x="0" y="59.29999987284343" dx="0em" dy="0.3em" fill="rgb(50, 49, 63)" stroke="none" stroke-width="1px">2.5</text><text style="text-anchor: end; visibility: inherit; font-family: Roboto, sans-serif; font-size: 12px; font-weight: 200;" x="0" y="39.53333324856228" dx="0em" dy="0.3em" fill="rgb(50, 49, 63)" stroke="none" stroke-width="1px">3</text><text style="text-anchor: end; visibility: hidden; font-family: Roboto, sans-serif; font-size: 12px; font-weight: 200;" x="0" y="19.76666662428115" dx="0em" dy="0.3em" fill="rgb(50, 49, 63)" stroke="none" stroke-width="1px">3.5</text><text style="text-anchor: end; visibility: hidden; font-family: Roboto, sans-serif; font-size: 12px; font-weight: 200;" x="0" y="0" dx="0em" dy="0.3em" fill="rgb(50, 49, 63)" stroke="none" stroke-width="1px">4</text></g><line x1="51.53200149536133" y1="0" x2="51.53200149536133" y2="177.89999961853027" fill="rgb(0, 0, 0)" stroke="rgb(204, 204, 204)" stroke-width="1px"></line></g></g><g transform="translate(51, 0)" clip-path="url(#clip_0)"><clipPath id="clip_0"><rect width="278" height="177"></rect></clipPath><g><g><g><line x1="0" y1="0" x2="0" y2="177.89999961853027" fill="rgb(0, 0, 0)" stroke="rgb(60, 60, 60)" stroke-width="1px" opacity="0.25"></line><line x1="27.846799850463867" y1="0" x2="27.846799850463867" y2="177.89999961853027" fill="rgb(0, 0, 0)" stroke="rgb(60, 60, 60)" stroke-width="1px" opacity="0.25"></line><line x1="55.693599700927734" y1="0" x2="55.693599700927734" y2="177.89999961853027" fill="rgb(0, 0, 0)" stroke="rgb(60, 60, 60)" stroke-width="1px" opacity="0.25"></line><line x1="83.5403995513916" y1="0" x2="83.5403995513916" y2="177.89999961853027" fill="rgb(0, 0, 0)" stroke="rgb(60, 60, 60)" stroke-width="1px" opacity="0.25"></line><line x1="111.38719940185547" y1="0" x2="111.38719940185547" y2="177.89999961853027" fill="rgb(0, 0, 0)" stroke="rgb(60, 60, 60)" stroke-width="1px" opacity="0.25"></line><line x1="139.23399925231934" y1="0" x2="139.23399925231934" y2="177.89999961853027" fill="rgb(0, 0, 0)" stroke="rgb(60, 60, 60)" stroke-width="1px" opacity="0.25"></line><line x1="167.0807991027832" y1="0" x2="167.0807991027832" y2="177.89999961853027" fill="rgb(0, 0, 0)" stroke="rgb(60, 60, 60)" stroke-width="1px" opacity="0.25"></line><line x1="194.92759895324707" y1="0" x2="194.92759895324707" y2="177.89999961853027" fill="rgb(0, 0, 0)" stroke="rgb(60, 60, 60)" stroke-width="1px" opacity="0.25"></line><line x1="222.77439880371094" y1="0" x2="222.77439880371094" y2="177.89999961853027" fill="rgb(0, 0, 0)" stroke="rgb(60, 60, 60)" stroke-width="1px" opacity="0.25"></line><line x1="250.6211986541748" y1="0" x2="250.6211986541748" y2="177.89999961853027" fill="rgb(0, 0, 0)" stroke="rgb(60, 60, 60)" stroke-width="1px" opacity="0.25"></line><line x1="278.4679985046387" y1="0" x2="278.4679985046387" y2="177.89999961853027" fill="rgb(0, 0, 0)" stroke="rgb(60, 60, 60)" stroke-width="1px" opacity="0.25"></line></g><g><line x1="0" y1="177.89999961853027" x2="278.4679985046387" y2="177.89999961853027" fill="rgb(0, 0, 0)" stroke="rgb(60, 60, 60)" stroke-width="1px" opacity="0.25"></line><line x1="0" y1="158.13333299424912" x2="278.4679985046387" y2="158.13333299424912" fill="rgb(0, 0, 0)" stroke="rgb(60, 60, 60)" stroke-width="1px" opacity="0.25"></line><line x1="0" y1="138.366666369968" x2="278.4679985046387" y2="138.366666369968" fill="rgb(0, 0, 0)" stroke="rgb(60, 60, 60)" stroke-width="1px" opacity="0.25"></line><line x1="0" y1="118.59999974568686" x2="278.4679985046387" y2="118.59999974568686" fill="rgb(0, 0, 0)" stroke="rgb(60, 60, 60)" stroke-width="1px" opacity="0.25"></line><line x1="0" y1="98.83333312140572" x2="278.4679985046387" y2="98.83333312140572" fill="rgb(0, 0, 0)" stroke="rgb(60, 60, 60)" stroke-width="1px" opacity="0.25"></line><line x1="0" y1="79.06666649712456" x2="278.4679985046387" y2="79.06666649712456" fill="rgb(0, 0, 0)" stroke="rgb(60, 60, 60)" stroke-width="1px" opacity="0.25"></line><line x1="0" y1="59.29999987284343" x2="278.4679985046387" y2="59.29999987284343" fill="rgb(0, 0, 0)" stroke="rgb(60, 60, 60)" stroke-width="1px" opacity="0.25"></line><line x1="0" y1="39.53333324856228" x2="278.4679985046387" y2="39.53333324856228" fill="rgb(0, 0, 0)" stroke="rgb(60, 60, 60)" stroke-width="1px" opacity="0.25"></line><line x1="0" y1="19.76666662428115" x2="278.4679985046387" y2="19.76666662428115" fill="rgb(0, 0, 0)" stroke="rgb(60, 60, 60)" stroke-width="1px" opacity="0.25"></line><line x1="0" y1="0" x2="278.4679985046387" y2="0" fill="rgb(0, 0, 0)" stroke="rgb(60, 60, 60)" stroke-width="1px" opacity="0.25"></line></g></g></g><g><g><line x1="0" y1="158.13333299424912" x2="278.4679985046387" y2="158.13333299424912" fill="rgb(0, 0, 0)" stroke="rgb(153, 153, 153)" stroke-width="1.5px"></line></g></g><g><g><line x1="-473.39559745788574" y1="0" x2="-473.39559745788574" y2="177.89999961853027" fill="rgb(0, 0, 0)" stroke="rgb(153, 153, 153)" stroke-width="1.5px"></line></g></g><g><g><g><g><g><path style="fill: none;" stroke="rgb(204, 51, 17)" stroke-width="2px" d="M20.634478689193724,150.22666622671818L24.037357630920408,147.75583267777333L27.41238977279663,143.97394534404722L30.78742191467285,138.21768947830657L34.16245405654907,129.49464199247947L37.53748619842529,116.31889137805777L40.91251834030151,96.46411055530362L44.28755048217773,84.91303514329886L47.662582624053954,78.10782274512385L51.03761476593017,74.0688540688996L54.41264690780639,71.66115991875432L57.78767904968262,70.22214605219538L61.16271119155884,69.3607451028035L64.53774333343506,68.84462512948807L67.91277547531128,68.53521211724924L71.2878076171875,68.34965744424568L74.6906865589142,68.23835814820337L78.0657187007904,68.17159062892443L81.44075084266663,68.13153445740163L84.82135234451293,68.10750231669662L88.19638448638916,68.09308359462396L91.57141662826538,68.08443256381683L94.9464487701416,68.07924201820757L98.34932771186828,68.07612771707657L101.72435985374452,68.07425914584232L105.10496135559082,68.07313800650172L108.5078402973175,68.0724653241213L111.88287243919373,50.05967720053327L115.25790458106994,39.25201140577446L118.63293672294617,32.76741447749901L122.00796886482237,28.876657238021995L125.41084780654907,26.5422032246315L128.7858799484253,25.141530935503617L132.18875889015197,24.30112760483321L135.56379103202818,23.79688562184122L138.9388231739044,23.494340437593735L142.31385531578061,23.3128133290424L145.7167342575073,23.20389706463059L149.09176639938354,23.138547306242327L152.46679854125978,23.099337451302578L155.84183068313598,23.075811538372232L159.24470962486268,23.061695990626102L162.64758856658938,23.053226661982805L166.02262070846555,23.048145064798394L169.39765285034179,23.045096106488284L172.77268499221802,23.04326673150245L176.14771713409425,23.042169106511015L179.55059607582092,23.041510531516153L182.92562821769715,23.041115386519266L186.30066035957336,23.04087829952113L189.70353930130003,23.04073604732225L193.07857144317626,23.040650696002924L196.4536035850525,23.040599485211303L199.82863572692872,23.040568758736363L203.20366786880493,23.040550322851402L206.57870001068116,23.040539261320408L209.95373215255736,23.040532624401795L213.3287642944336,23.04052864225064L216.7037964363098,23.040526252959946L220.07882857818603,23.04052481938555L223.45943008003235,23.04052395924088L226.86230902175902,23.040523443154104L230.23734116363525,23.040523133502038L233.61237330551148,23.0405229477108L236.9874054473877,23.040522836236054L240.36243758926392,23.040522769351202L243.73746973114012,23.040522729220324L247.11807123298644,23.040522705141765L250.49310337486267,23.040522690694637L253.8681355167389,23.04052268202634L257.2710144584656,23.04052267682536" fill="none"></path></g></g></g></g><g opacity="0.2"><g><g><g><path style="fill: none;" stroke="rgb(204, 51, 17)" stroke-width="2px" d="M20.634478689193724,150.22666622671818L24.037357630920408,146.2733325484064L27.41238977279663,140.34333350367018L30.78742191467285,131.44833258019554L34.16245405654907,118.10583119498361L37.53748619842529,98.0920850080914L40.91251834030151,68.07145630227197L44.28755048217773,68.07145630227197L47.662582624053954,68.07145630227197L51.03761476593017,68.07145630227197L54.41264690780639,68.07145630227197L57.78767904968262,68.07145630227197L61.16271119155884,68.07145630227197L64.53774333343506,68.07145630227197L67.91277547531128,68.07145630227197L71.2878076171875,68.07145630227197L74.6906865589142,68.07145630227197L78.0657187007904,68.07145630227197L81.44075084266663,68.07145630227197L84.82135234451293,68.07145630227197L88.19638448638916,68.07145630227197L91.57141662826538,68.07145630227197L94.9464487701416,68.07145630227197L98.34932771186828,68.07145630227197L101.72435985374452,68.07145630227197L105.10496135559082,68.07145630227197L108.5078402973175,68.07145630227197L111.88287243919373,23.040522669023925L115.25790458106994,23.040522669023925L118.63293672294617,23.040522669023925L122.00796886482237,23.040522669023925L125.41084780654907,23.040522669023925L128.7858799484253,23.040522669023925L132.18875889015197,23.040522669023925L135.56379103202818,23.040522669023925L138.9388231739044,23.040522669023925L142.31385531578061,23.040522669023925L145.7167342575073,23.040522669023925L149.09176639938354,23.040522669023925L152.46679854125978,23.040522669023925L155.84183068313598,23.040522669023925L159.24470962486268,23.040522669023925L162.64758856658938,23.040522669023925L166.02262070846555,23.040522669023925L169.39765285034179,23.040522669023925L172.77268499221802,23.040522669023925L176.14771713409425,23.040522669023925L179.55059607582092,23.040522669023925L182.92562821769715,23.040522669023925L186.30066035957336,23.040522669023925L189.70353930130003,23.040522669023925L193.07857144317626,23.040522669023925L196.4536035850525,23.040522669023925L199.82863572692872,23.040522669023925L203.20366786880493,23.040522669023925L206.57870001068116,23.040522669023925L209.95373215255736,23.040522669023925L213.3287642944336,23.040522669023925L216.7037964363098,23.040522669023925L220.07882857818603,23.040522669023925L223.45943008003235,23.040522669023925L226.86230902175902,23.040522669023925L230.23734116363525,23.040522669023925L233.61237330551148,23.040522669023925L236.9874054473877,23.040522669023925L240.36243758926392,23.040522669023925L243.73746973114012,23.040522669023925L247.11807123298644,23.040522669023925L250.49310337486267,23.040522669023925L253.8681355167389,23.040522669023925L257.2710144584656,23.040522669023925" fill="none"></path></g></g></g></g></g></g><g transform="translate(51, 177)" clip-path="url(#clip_1)"><clipPath id="clip_1"><rect width="278" height="22"></rect></clipPath><g><g><line x1="0" y1="0" x2="0" y2="5" style="visibility: inherit;" fill="rgb(0, 0, 0)" stroke="rgb(204, 204, 204)" stroke-width="1px"></line><line x1="27.846799850463867" y1="0" x2="27.846799850463867" y2="5" style="visibility: inherit;" fill="rgb(0, 0, 0)" stroke="rgb(204, 204, 204)" stroke-width="1px"></line><line x1="55.693599700927734" y1="0" x2="55.693599700927734" y2="5" style="visibility: inherit;" fill="rgb(0, 0, 0)" stroke="rgb(204, 204, 204)" stroke-width="1px"></line><line x1="83.5403995513916" y1="0" x2="83.5403995513916" y2="5" style="visibility: inherit;" fill="rgb(0, 0, 0)" stroke="rgb(204, 204, 204)" stroke-width="1px"></line><line x1="111.38719940185547" y1="0" x2="111.38719940185547" y2="5" style="visibility: inherit;" fill="rgb(0, 0, 0)" stroke="rgb(204, 204, 204)" stroke-width="1px"></line><line x1="139.23399925231934" y1="0" x2="139.23399925231934" y2="5" style="visibility: inherit;" fill="rgb(0, 0, 0)" stroke="rgb(204, 204, 204)" stroke-width="1px"></line><line x1="167.0807991027832" y1="0" x2="167.0807991027832" y2="5" style="visibility: inherit;" fill="rgb(0, 0, 0)" stroke="rgb(204, 204, 204)" stroke-width="1px"></line><line x1="194.92759895324707" y1="0" x2="194.92759895324707" y2="5" style="visibility: inherit;" fill="rgb(0, 0, 0)" stroke="rgb(204, 204, 204)" stroke-width="1px"></line><line x1="222.77439880371094" y1="0" x2="222.77439880371094" y2="5" style="visibility: inherit;" fill="rgb(0, 0, 0)" stroke="rgb(204, 204, 204)" stroke-width="1px"></line><line x1="250.6211986541748" y1="0" x2="250.6211986541748" y2="5" style="visibility: inherit;" fill="rgb(0, 0, 0)" stroke="rgb(204, 204, 204)" stroke-width="1px"></line><line x1="278.4679985046387" y1="0" x2="278.4679985046387" y2="5" style="visibility: inherit;" fill="rgb(0, 0, 0)" stroke="rgb(204, 204, 204)" stroke-width="1px"></line></g><g transform="translate(0, 8)"><text style="text-anchor: middle; visibility: hidden; font-family: Roboto, sans-serif; font-size: 12px; font-weight: 200;" x="0" y="0" dx="0em" dy="0.95em" fill="rgb(50, 49, 63)" stroke="none" stroke-width="1px">85k</text><text style="text-anchor: middle; visibility: inherit; font-family: Roboto, sans-serif; font-size: 12px; font-weight: 200;" x="27.846799850463867" y="0" dx="0em" dy="0.95em" fill="rgb(50, 49, 63)" stroke="none" stroke-width="1px">90k</text><text style="text-anchor: middle; visibility: hidden; font-family: Roboto, sans-serif; font-size: 12px; font-weight: 200;" x="55.693599700927734" y="0" dx="0em" dy="0.95em" fill="rgb(50, 49, 63)" stroke="none" stroke-width="1px">95k</text><text style="text-anchor: middle; visibility: inherit; font-family: Roboto, sans-serif; font-size: 12px; font-weight: 200;" x="83.5403995513916" y="0" dx="0em" dy="0.95em" fill="rgb(50, 49, 63)" stroke="none" stroke-width="1px">100k</text><text style="text-anchor: middle; visibility: hidden; font-family: Roboto, sans-serif; font-size: 12px; font-weight: 200;" x="111.38719940185547" y="0" dx="0em" dy="0.95em" fill="rgb(50, 49, 63)" stroke="none" stroke-width="1px">105k</text><text style="text-anchor: middle; visibility: inherit; font-family: Roboto, sans-serif; font-size: 12px; font-weight: 200;" x="139.23399925231934" y="0" dx="0em" dy="0.95em" fill="rgb(50, 49, 63)" stroke="none" stroke-width="1px">110k</text><text style="text-anchor: middle; visibility: hidden; font-family: Roboto, sans-serif; font-size: 12px; font-weight: 200;" x="167.0807991027832" y="0" dx="0em" dy="0.95em" fill="rgb(50, 49, 63)" stroke="none" stroke-width="1px">115k</text><text style="text-anchor: middle; visibility: inherit; font-family: Roboto, sans-serif; font-size: 12px; font-weight: 200;" x="194.92759895324707" y="0" dx="0em" dy="0.95em" fill="rgb(50, 49, 63)" stroke="none" stroke-width="1px">120k</text><text style="text-anchor: middle; visibility: hidden; font-family: Roboto, sans-serif; font-size: 12px; font-weight: 200;" x="222.77439880371094" y="0" dx="0em" dy="0.95em" fill="rgb(50, 49, 63)" stroke="none" stroke-width="1px">125k</text><text style="text-anchor: middle; visibility: inherit; font-family: Roboto, sans-serif; font-size: 12px; font-weight: 200;" x="250.6211986541748" y="0" dx="0em" dy="0.95em" fill="rgb(50, 49, 63)" stroke="none" stroke-width="1px">130k</text><text style="text-anchor: middle; visibility: hidden; font-family: Roboto, sans-serif; font-size: 12px; font-weight: 200;" x="278.4679985046387" y="0" dx="0em" dy="0.95em" fill="rgb(50, 49, 63)" stroke="none" stroke-width="1px">135k</text></g><line x1="0" y1="0" x2="278.4679985046387" y2="0" fill="rgb(0, 0, 0)" stroke="rgb(204, 204, 204)" stroke-width="1px"></line></g></g></g></g></svg>