<svg viewBox="0 0 330 200" xmlns="http://www.w3.org/2000/svg"><g><g><g><g><g><line x1="51.53200149536133" y1="177.89999961853027" x2="46.53200149536133" y2="177.89999961853027" style="visibility: inherit;" fill="rgb(0, 0, 0)" stroke="rgb(204, 204, 204)" stroke-width="1px"></line><line x1="51.53200149536133" y1="158.13333299424912" x2="46.53200149536133" y2="158.13333299424912" style="visibility: inherit;" fill="rgb(0, 0, 0)" stroke="rgb(204, 204, 204)" stroke-width="1px"></line><line x1="51.53200149536133" y1="138.366666369968" x2="46.53200149536133" y2="138.366666369968" style="visibility: inherit;" fill="rgb(0, 0, 0)" stroke="rgb(204, 204, 204)" stroke-width="1px"></line><line x1="51.53200149536133" y1="118.59999974568684" x2="46.53200149536133" y2="118.59999974568684" style="visibility: inherit;" fill="rgb(0, 0, 0)" stroke="rgb(204, 204, 204)" stroke-width="1px"></line><line x1="51.53200149536133" y1="98.83333312140572" x2="46.53200149536133" y2="98.83333312140572" style="visibility: inherit;" fill="rgb(0, 0, 0)" stroke="rgb(204, 204, 204)" stroke-width="1px"></line><line x1="51.53200149536133" y1="79.06666649712456" x2="46.53200149536133" y2="79.06666649712456" style="visibility: inherit;" fill="rgb(0, 0, 0)" stroke="rgb(204, 204, 204)" stroke-width="1px"></line><line x1="51.53200149536133" y1="59.29999987284343" x2="46.53200149536133" y2="59.29999987284343" style="visibility: inherit;" fill="rgb(0, 0, 0)" stroke="rgb(204, 204, 204)" stroke-width="1px"></line><line x1="51.53200149536133" y1="39.5333332485623" x2="46.53200149536133" y2="39.5333332485623" style="visibility: inherit;" fill="rgb(0, 0, 0)" stroke="rgb(204, 204, 204)" stroke-width="1px"></line><line x1="51.53200149536133" y1="19.76666662428115" x2="46.53200149536133" y2="19.76666662428115" style="visibility: inherit;" fill="rgb(0, 0, 0)" stroke="rgb(204, 204, 204)" stroke-width="1px"></line><line x1="51.53200149536133" y1="0" x2="46.53200149536133" y2="0" style="visibility: inherit;" fill="rgb(0, 0, 0)" stroke="rgb(204, 204, 204)" stroke-width="1px"></line></g><g transform="translate(41.53200149536133, 0)"><text style="text-anchor: end; visibility: hidden; font-family: Roboto, sans-serif; font-size: 12px; font-weight: 200;" x="0" y="177.89999961853027" dx="0em" dy="0.3em" fill="rgb(50, 49, 63)" stroke="none" stroke-width="1px">-0.1</text><text style="text-anchor: end; visibility: inherit; font-family: Roboto, sans-serif; font-size: 12px; font-weight: 200;" x="0" y="158.13333299424912" dx="0em" dy="0.3em" fill="rgb(50, 49, 63)" stroke="none" stroke-width="1px">0</text><text style="text-anchor: end; visibility: hidden; font-family: Roboto, sans-serif; font-size: 12px; font-weight: 200;" x="0" y="138.366666369968" dx="0em" dy="0.3em" fill="rgb(50, 49, 63)" stroke="none" stroke-width="1px">0.1</text><text style="text-anchor: end; visibility: inherit; font-family: Roboto, sans-serif; font-size: 12px; font-weight: 200;" x="0" y="118.59999974568684" dx="0em" dy="0.3em" fill="rgb(50, 49, 63)" stroke="none" stroke-width="1px">0.2</text><text style="text-anchor: end; visibility: hidden; font-family: Roboto, sans-serif; font-size: 12px; font-weight: 200;" x="0" y="98.83333312140572" dx="0em" dy="0.3em" fill="rgb(50, 49, 63)" stroke="none" stroke-width="1px">0.3</text><text style="text-anchor: end; visibility: inherit; font-family: Roboto, sans-serif; font-size: 12px; font-weight: 200;" x="0" y="79.06666649712456" dx="0em" dy="0.3em" fill="rgb(50, 49, 63)" stroke="none" stroke-width="1px">0.4</text><text style="text-anchor: end; visibility: hidden; font-family: Roboto, sans-serif; font-size: 12px; font-weight: 200;" x="0" y="59.29999987284343" dx="0em" dy="0.3em" fill="rgb(50, 49, 63)" stroke="none" stroke-width="1px">0.5</text><text style="text-anchor: end; visibility: inherit; font-family: Roboto, sans-serif; font-size: 12px; font-weight: 200;" x="0" y="39.5333332485623" dx="0em" dy="0.3em" fill="rgb(50, 49, 63)" stroke="none" stroke-width="1px">0.6</text><text style="text-anchor: end; visibility: hidden; font-family: Roboto, sans-serif; font-size: 12px; font-weight: 200;" x="0" y="19.76666662428115" dx="0em" dy="0.3em" fill="rgb(50, 49, 63)" stroke="none" stroke-width="1px">0.7</text><text style="text-anchor: end; visibility: hidden; font-family: Roboto, sans-serif; font-size: 12px; font-weight: 200;" x="0" y="0" dx="0em" dy="0.3em" fill="rgb(50, 49, 63)" stroke="none" stroke-width="1px">0.8</text></g><line x1="51.53200149536133" y1="0" x2="51.53200149536133" y2="177.89999961853027" fill="rgb(0, 0, 0)" stroke="rgb(204, 204, 204)" stroke-width="1px"></line></g></g><g transform="translate(51, 0)" clip-path="url(#clip_0)"><clipPath id="clip_0"><rect width="278" height="177"></rect></clipPath><g><g><g><line x1="0" y1="0" x2="0" y2="177.89999961853027" fill="rgb(0, 0, 0)" stroke="rgb(60, 60, 60)" stroke-width="1px" opacity="0.25"></line><line x1="19.890571321759904" y1="0" x2="19.890571321759904" y2="177.89999961853027" fill="rgb(0, 0, 0)" stroke="rgb(60, 60, 60)" stroke-width="1px" opacity="0.25"></line><line x1="39.78114264351981" y1="0" x2="39.78114264351981" y2="177.89999961853027" fill="rgb(0, 0, 0)" stroke="rgb(60, 60, 60)" stroke-width="1px" opacity="0.25"></line><line x1="59.671713965279714" y1="0" x2="59.671713965279714" y2="177.89999961853027" fill="rgb(0, 0, 0)" stroke="rgb(60, 60, 60)" stroke-width="1px" opacity="0.25"></line><line x1="79.56228528703961" y1="0" x2="79.56228528703961" y2="177.89999961853027" fill="rgb(0, 0, 0)" stroke="rgb(60, 60, 60)" stroke-width="1px" opacity="0.25"></line><line x1="99.45285660879952" y1="0" x2="99.45285660879952" y2="177.89999961853027" fill="rgb(0, 0, 0)" stroke="rgb(60, 60, 60)" stroke-width="1px" opacity="0.25"></line><line x1="119.34342793055943" y1="0" x2="119.34342793055943" y2="177.89999961853027" fill="rgb(0, 0, 0)" stroke="rgb(60, 60, 60)" stroke-width="1px" opacity="0.25"></line><line x1="139.23399925231934" y1="0" x2="139.23399925231934" y2="177.89999961853027" fill="rgb(0, 0, 0)" stroke="rgb(60, 60, 60)" stroke-width="1px" opacity="0.25"></line><line x1="159.12457057407923" y1="0" x2="159.12457057407923" y2="177.89999961853027" fill="rgb(0, 0, 0)" stroke="rgb(60, 60, 60)" stroke-width="1px" opacity="0.25"></line><line x1="179.01514189583915" y1="0" x2="179.01514189583915" y2="177.89999961853027" fill="rgb(0, 0, 0)" stroke="rgb(60, 60, 60)" stroke-width="1px" opacity="0.25"></line><line x1="198.90571321759904" y1="0" x2="198.90571321759904" y2="177.89999961853027" fill="rgb(0, 0, 0)" stroke="rgb(60, 60, 60)" stroke-width="1px" opacity="0.25"></line><line x1="218.79628453935896" y1="0" x2="218.79628453935896" y2="177.89999961853027" fill="rgb(0, 0, 0)" stroke="rgb(60, 60, 60)" stroke-width="1px" opacity="0.25"></line><line x1="238.68685586111886" y1="0" x2="238.68685586111886" y2="177.89999961853027" fill="rgb(0, 0, 0)" stroke="rgb(60, 60, 60)" stroke-width="1px" opacity="0.25"></line><line x1="258.57742718287875" y1="0" x2="258.57742718287875" y2="177.89999961853027" fill="rgb(0, 0, 0)" stroke="rgb(60, 60, 60)" stroke-width="1px" opacity="0.25"></line><line x1="278.4679985046387" y1="0" x2="278.4679985046387" y2="177.89999961853027" fill="rgb(0, 0, 0)" stroke="rgb(60, 60, 60)" stroke-width="1px" opacity="0.25"></line></g><g><line x1="0" y1="177.89999961853027" x2="278.4679985046387" y2="177.89999961853027" fill="rgb(0, 0, 0)" stroke="rgb(60, 60, 60)" stroke-width="1px" opacity="0.25"></line><line x1="0" y1="158.13333299424912" x2="278.4679985046387" y2="158.13333299424912" fill="rgb(0, 0, 0)" stroke="rgb(60, 60, 60)" stroke-width="1px" opacity="0.25"></line><line x1="0" y1="138.366666369968" x2="278.4679985046387" y2="138.366666369968" fill="rgb(0, 0, 0)" stroke="rgb(60, 60, 60)" stroke-width="1px" opacity="0.25"></line><line x1="0" y1="118.59999974568684" x2="278.4679985046387" y2="118.59999974568684" fill="rgb(0, 0, 0)" stroke="rgb(60, 60, 60)" stroke-width="1px" opacity="0.25"></line><line x1="0" y1="98.83333312140572" x2="278.4679985046387" y2="98.83333312140572" fill="rgb(0, 0, 0)" stroke="rgb(60, 60, 60)" stroke-width="1px" opacity="0.25"></line><line x1="0" y1="79.06666649712456" x2="278.4679985046387" y2="79.06666649712456" fill="rgb(0, 0, 0)" stroke="rgb(60, 60, 60)" stroke-width="1px" opacity="0.25"></line><line x1="0" y1="59.29999987284343" x2="278.4679985046387" y2="59.29999987284343" fill="rgb(0, 0, 0)" stroke="rgb(60, 60, 60)" stroke-width="1px" opacity="0.25"></line><line x1="0" y1="39.5333332485623" x2="278.4679985046387" y2="39.5333332485623" fill="rgb(0, 0, 0)" stroke="rgb(60, 60, 60)" stroke-width="1px" opacity="0.25"></line><line x1="0" y1="19.76666662428115" x2="278.4679985046387" y2="19.76666662428115" fill="rgb(0, 0, 0)" stroke="rgb(60, 60, 60)" stroke-width="1px" opacity="0.25"></line><line x1="0" y1="0" x2="278.4679985046387" y2="0" fill="rgb(0, 0, 0)" stroke="rgb(60, 60, 60)" stroke-width="1px" opacity="0.25"></line></g></g></g><g><g><line x1="0" y1="158.13333299424912" x2="278.4679985046387" y2="158.13333299424912" fill="rgb(0, 0, 0)" stroke="rgb(153, 153, 153)" stroke-width="1.5px"></line></g></g><g><g><line x1="-79.56228528703961" y1="0" x2="-79.56228528703961" y2="177.89999961853027" fill="rgb(0, 0, 0)" stroke="rgb(153, 153, 153)" stroke-width="1.5px"></line></g></g><g><g><g><g><g><path style="fill: none;" stroke="rgb(255, 112, 67)" stroke-width="2px" d="M12.714053188868931,54.72861795610925L13.867706325531005,68.79293063979286L14.551941978999546,37.70247090236493L14.973622091020857,90.43231171056085L15.972128771373203,59.00731691849112L16.799576538358416,64.65342845377268L18.068594988686698,43.87370916305688L19.63995012310573,90.3582857356246L20.80553760256086,60.50645572263456L21.22721771458217,101.01192237053267L21.64889782660348,86.27788117328444L22.257549309049335,45.376921365495875L22.882113248552596,52.89173525157446L23.303793360573902,33.8540975803349L26.394788143975397,32.30230196710554L26.816468255996703,58.38712912059312L28.83337218802316,46.21115013129125L29.732426011766705,40.16935538343027L30.715020235061644,40.810357285382096L31.371409088679723,45.44669249632728L32.35400331197466,58.937531264214336L32.77568342399597,83.03034190768318L33.197363536017285,118.46001225347425L33.61904364803859,82.99276634776L34.30725741577149,80.76013241127946L34.919887012481695,79.51903606307395L35.882590664454874,54.67777780676297L36.7418633455549,44.80905322698201L37.1635434575762,44.98101171525776L37.58522356959752,73.03319750884022L38.28934979438782,71.66354506430076L38.91789184815543,50.956284386289596L39.33957196017674,57.27485498856929L40.0476762992314,58.06782928043185L40.79953989519392,62.289794948311794L41.527534805570326,43.27596131266155L41.94921491759164,59.41618672147506L42.800531370162965,57.359487771453644L43.22221148218428,84.04607169985688L43.643891594205584,114.90533565531979L44.83334775924683,76.99232567699838L45.819920096806115,71.95675192005126L46.520068207332066,55.2740163312289L46.94174831935337,84.52275516966871L47.363428431374686,80.95452608250635L47.785108543396,91.82260471187539L48.226679226739066,76.79040209990326L48.64835933876037,115.91657722451089L49.070039450781685,135.2758872075268L49.913399674824305,93.38346683014416L50.856212755475724,72.97589720954144L51.27789286749703,101.20438441372022L51.88654434994289,78.73366379807396L52.495195832388745,53.86196543107492L52.91687594441005,43.724117090852964L53.54939611244202,40.157653382893784L55.538453244618005,31.722552857417718L56.163017184121266,30.959021817078025L56.60458786746434,46.33729498936207L57.02626797948565,81.60115144173011L57.63889757619585,78.79657684158971L58.06057768821716,107.3338639099588L58.91189414078849,77.50043075926529L59.3335742528098,73.15863801195421L59.75525436483111,77.87087441363747L61.25102532822745,67.57250329203193L61.67270544024876,101.02137854172616L62.098363666534425,72.00272368734845L62.71894949177333,50.946951705769926L63.14062960379464,51.75529912769891L63.76917165756226,74.78052806732495L64.42158239691598,72.30628029827213L65.02625576509747,88.7899493030048L66.27936175836835,72.72479210326601L67.03520346859523,63.63955319344675L67.45688358061655,48.26538583433295L67.87856369263785,84.96279446789563L68.30024380465916,99.90888289276246L69.02823871503557,75.85932528856425L69.63689019748142,62.74127367070941L70.05857030950274,89.73836189741384L70.48025042152405,55.586932854694794L70.90193053354537,89.08068831862478L71.32361064556667,69.85709078350705L71.74529075758797,104.60735002886275L72.56876041030884,68.09333576170955L74.23161217280797,43.82445683205395L74.65329228482926,31.460015905694302L75.72738313620431,18.566046940830088L76.47129050363813,16.42074786854652L76.89297061565945,50.01931002924483L77.49764398384094,40.86196803939059L79.22016746030535,57.92994263810744L79.93224991362436,55.839905317576005L80.88699733706882,41.42987175351631L81.30867744909014,73.46467710502846L81.73035756111145,102.77199625205718L83.52846520859855,83.80295923431845L84.92876142965045,45.212392672522014L85.827815253394,61.18166267520912L86.2494953654153,88.58055452815174L86.85416873359681,110.19340487016854L87.4588421017783,102.63220095489521L87.88052221379962,104.48576866558227L88.53691106741769,116.48399597894564L88.95859117943901,121.41627970231478L89.3802712914603,123.51577860831623L90.13213488742284,91.416850445825L90.55381499944414,93.0336335576327L91.16644459615435,79.04165224798638L91.60801527949742,103.67623357493629L92.02969539151873,106.44860953570877L92.45137550354005,78.04269905437535L93.44192595536367,53.259107886364305L93.86360606738499,88.18845922647549L94.6751413773128,73.06265138894182L95.09682148933412,111.82358771196037L95.51850160135541,98.3271611785583L95.9600722846985,86.09837607546774L96.58463622420174,67.2260268227489L97.32456547737121,60.32659880103967L97.93321695981706,52.06844501458883L98.35489707183838,63.28419095140108L98.77657718385969,82.98881593862745L99.40511923762729,94.151383104493L100.1172016909463,74.1602411613883L100.55877237428938,104.42393722395718L100.98045248631068,82.75215930678677L102.04658710915702,67.78969526060159L102.46826722117832,56.05292608003851L103.16841533170428,39.64044709225134L103.59009544372559,28.4382070188445L104.47721492467608,24.134814640898064L105.08188829285757,16.276314755216934L105.80590508896965,18.10020363049851L106.22758520099094,17.868597970778698L106.64926531301225,76.53297757006597L107.47273496573312,66.61567270746734L108.08536456244332,46.034761061323955L108.52693524578639,83.26822124631826L109.83573483875819,60.00729295192612L110.2574149507795,102.42521259715188L110.9376724899837,64.6409769430791L111.92822294180735,61.858196043866194L112.54085253851754,65.85623425990322L113.18530704934257,51.32492313604081L113.80987098884583,39.52674694386668L115.08286755343846,44.323386649175475L115.71936583573478,30.74953245933919L117.27878662736074,35.36991341667764L117.70046673938207,79.24903928686376L118.78649193355015,69.64382021447426L119.20817204557146,100.61448328409676L119.62985215759277,86.76496810367478L120.05153226961409,75.66543675278596L120.6800743233817,63.879462663531314L121.2847476915632,51.60016321050241L121.7064278035845,92.97277978339523L122.12810791560581,108.27342207190634L122.54978802762713,85.35633052282175L122.97146813964844,92.51208966514747L123.72333173561096,55.71671061118005L124.14501184763228,54.37397234478542L124.81333504404341,39.64878826247792L125.46972389766148,12.046753122398506L125.8914040096828,15.380144856370611L126.31308412170411,10.296242759717147L126.75465480504718,12.755641906119468L127.17633491706847,23.513118201653928L127.94808908435277,14.510314459430969L128.36976919637408,55.47217336014068L128.79144930839539,68.06921940684812L129.2131294204167,88.06464862933868L129.65470010375978,89.10056289990253L130.49010409927368,97.07691925447182L131.2419676952362,68.487058400294L131.68353837857927,64.46699846610792L132.30014608955383,78.60902928706527L132.7417167728969,69.48860834379408L133.3543463696071,75.07228963493021L133.7760264816284,76.79345008947375L134.39263419260297,86.3809086238433L134.83420487594606,60.92553321606849L136.19869806861877,58.01647975980973L136.62037818064007,59.607057709806476L137.06194886398316,89.47465461378613L137.48362897600447,112.21552869893351L138.08830234418596,64.81205774142045L138.50998245620727,67.19782092854712L139.11863393865312,51.375822507783795L139.73126353536333,38.63308515192489L140.15294364738463,78.53505759632927L140.57462375940594,44.416745257591515L141.18327524185182,30.247200972601448L142.575615234375,21.054171912855388L142.9972953463963,62.359092723981796L143.75711517088752,53.59038149444253L144.17879528290882,77.73195377745998L144.60047539493016,78.60333424087115L145.23299556296215,68.2383132669935L145.65467567498345,86.08163033662643L146.07635578700476,67.25075469211119L147.11066549573624,62.00694160384574L147.53234560775758,48.220652238286114L148.3677496032715,24.173573365733972L148.7894297152928,32.483276628402194L149.40603742626737,41.25762831566984L149.82771753828865,70.0419357854486L150.24939765030996,93.827917094712L150.67107776233127,88.55574599403059L151.51841610063823,67.18813503767076L152.1867392970494,62.870884093064404L152.6084194090707,52.31529033894569L153.03009952109198,43.52247260143506L153.47167020443507,38.65254420927678L154.19170888628278,41.49694572790122L154.6133889983041,42.69816406389115L155.3334276801518,26.395887033584813L155.94207916259768,20.902271153662124L156.5507306450435,22.57171371661568L156.9724107570648,27.578657348356174L157.3940908690861,66.99714253539233L157.81577098110745,66.76166094047713L158.77449651881625,51.252360621345L159.19617663083756,41.79738655379244L159.6178567428589,73.41680130065065L160.0395368548802,68.78102720381952L160.4612169669015,66.14552810302933L161.06986844934738,65.81761262999643L161.4915485613687,55.730279482668976L161.91322867339,89.5751577679189L162.33490878541127,113.61974632520669L162.75658889743258,90.60920941973106L163.18224712371824,68.3535183885425L163.60392723573958,48.63075005996111L164.02560734776088,42.094101070611316L164.46717803110397,86.47036360563634L165.4179473402841,56.322151377585676L165.8396274523054,74.60487860836567L166.2613075643267,59.47858589671443L166.68696579061236,41.07987836425905L167.10864590263367,53.18779755646849L167.55021658597673,92.14068441717434L167.97189669799803,88.183236323753L168.39357681001937,57.95074000566678L168.8351474933624,80.1329568733187L169.25682760538373,101.82724096551532L169.8734353163583,62.829571799942606L170.2951154283796,51.13279939105659L170.7167955404009,34.43247171000922L171.13847565242222,34.68013034211983L171.56015576444352,31.414769124974438L172.1847197039468,49.14326647619688L172.8371304433005,42.705252795286626L173.4457819257464,27.15069604836241L173.8674620377677,66.91780043786167L174.289142149789,60.551115296321846L174.71082226181028,45.211681744707484L175.32742997278484,21.208819187408906L175.74911008480618,33.5912133576436L176.17079019682748,24.508856361229558L176.9067413357326,15.456335211446401L177.32842144775393,41.63746211939338L177.9330948159354,38.00226573464897L178.35477492795673,92.12764795567975L178.77645503997803,82.1494427967795L179.19813515199934,76.1376435003399L179.6397058353424,63.47738928724607L180.0613859473637,76.15540192107679L180.68197177260262,52.03989736138042L181.10365188462393,52.59762506927461L181.52533199664524,52.42637255750993L181.94701210866654,66.31267273996107L182.7704817613874,69.54997322400456L183.44676118632725,50.04901632655015L183.86844129834856,62.859387042389386L184.2901214103699,75.5698904701577L184.7118015223912,109.95214560652595L185.15337220573426,111.33747852784919L185.57505231775556,112.30173897608547L186.00071054404123,66.59261508394124L186.42239065606253,53.26600164981908L186.84407076808384,53.59695605175572L187.26575088010514,60.42764125327386L187.68743099212648,52.45924037753246L188.1290016754695,78.62866994517191L188.55068178749084,54.031566430198765L188.97236189951215,80.68743931298677L189.39404201153346,79.52201954356917L189.81572212355476,44.777611693272085L190.51587023408075,28.488587697363204L190.93755034610203,66.0465181366038L191.35923045812333,95.53818397148716L191.78091057014464,76.9515163296232L192.22248125348773,88.32788133206931L192.6640519368308,83.6091071194614L193.0857320488521,94.5989439893384L193.5074121608734,114.84599132571246L193.92909227289474,104.03427667496626L194.35077238491604,98.3614727855614L194.77245249693735,82.00651722513634L195.19413260895865,84.78824409501617L195.61581272097996,141.12263670001008L196.22048608916145,88.51566639096367L196.64216620118276,89.42005881481154L197.06782442746842,84.38172079100823L197.48950453948976,97.98703987680346L197.91118465151106,102.32784409217285L198.33286476353237,117.32960423412068L198.75454487555368,114.91907478232474L199.19611555889674,71.67531843431415L199.61779567091804,92.07951142187716L200.03947578293935,74.1546319853901L200.46115589496068,81.7614134417508L200.882836006982,64.12402540313133L201.32440669032508,77.0108662478328L201.76597737366814,86.87597363128894L202.18765748568944,111.24470105687604L202.60933759771075,86.105537353886L203.03101770973205,93.98876970926877L203.45269782175336,82.81365976501593L203.8743779337747,89.16325748424428L204.31594861711775,85.77063602636564L204.73762872913906,77.73045199819583L205.15930884116037,92.15254374067563L205.58098895318167,60.44737187861849L206.00266906520298,42.250685522282026L206.61132054764883,62.22392703811553L207.0369787739345,60.15462801879987L207.87636088371278,59.6546077614024L208.3020191099984,74.1919335299874L208.72369922201975,76.3245368411021L209.32837259020124,53.25077629456776L209.75005270222258,84.60389110224037L210.1916233855656,67.18605552157628L210.61330349758694,93.46062687309806L211.03498360960825,107.28218068113407L211.4606418358939,80.28203152163329L211.90221251923697,96.48728343860874L212.32389263125827,86.21317828115671L212.76546331460136,68.02616053672737L213.20703399794442,61.18513566091147L213.62871410996573,74.56025459419575L214.0543723362514,99.00159337954967L214.4760524482727,99.15386669875802L214.897732560294,97.79403177378067L215.3194126723153,103.27727765420403L215.74109278433664,79.7912653408454L216.16277289635795,90.32015988717606L216.58445300837926,106.59143738452191L217.00613312040056,109.21469646545995L217.4278132324219,88.54125638469435L217.86938391576493,85.65227681296575L218.29106402778626,108.72684732956242L218.71672225407193,98.88181626585175L219.1423804803576,101.54826475659164L219.5640605923789,100.73548873081991L219.9857407044002,77.98825811169121L220.4074208164215,58.23417317413629L220.84899149976457,35.06020185967453L221.29056218310765,17.374193506266018L221.71224229512896,55.17880149751144L222.42432474844796,40.4354454475616L222.8460048604693,64.41102604112486L223.47852502850125,51.90146616184509L223.90020514052256,71.54242370376527L224.32188525254386,73.86598538111805L224.76345593588692,103.29882218480046L225.18513604790823,89.72569856996193L225.60681615992954,57.54508964113568L226.02849627195084,77.36986574140803L226.45017638397218,73.70769672786088L226.87185649599348,114.11838178187861L227.2935366080148,128.82423361840662L228.0135752898625,92.83288317310524L228.4352554018838,102.64757217783593L228.8569355139051,108.14260193867035L229.27861562592645,119.08908697880915L229.7042738522121,101.65372490834982L230.44420310538155,81.4792430228881L230.86588321740285,100.73626479595625L231.28756332942416,71.55670472954368L231.7092434414455,92.38391798964096L232.1309235534668,97.22924829956108L232.5526036654881,88.55017615020559L232.9742837775094,108.36197506183666L233.39596388953075,102.60194049958231L233.81764400155205,109.03036763751507L234.23932411357336,117.10619269662568L234.66100422559464,75.35932771496164L235.08268433761594,71.67564521121847L235.50436444963728,83.51716684806533L235.92604456165859,106.66613147077211L236.3477246736799,111.91223564573474L236.7694047857012,112.68279534169145L237.19108489772253,113.71680897594061L237.61276500974384,121.75541602212996L238.0543356930869,81.95961672445966L238.4760158051082,101.09282964609184L238.8976959171295,107.20209468164202L239.32335414341517,119.25523267107515L239.74503425543648,89.302370588374L240.16671436745779,91.69127372619944L240.58839447947912,97.02252097808343L241.01007459150043,71.79896187501522L241.43175470352173,65.09683827755768L241.85343481554304,78.38761866837159L242.2950054988861,73.0195171829097L242.7365761822292,55.922081224939724L243.1582562942505,62.66046725915322L243.59982697759355,81.82016211448186L244.35964680208477,49.79712231543326L244.78132691410607,52.468214702565696L245.4934093674251,73.34067252081691L246.28903222029552,45.56447993183624L246.7107123323168,70.17042968822912L247.1323924443381,96.93251685874499L247.55407255635942,114.21621276702656L247.97575266838072,113.44478819851794L248.39743278040206,106.86856167709254L248.83900346374512,115.29402660520377L249.26068357576645,97.37644606578232L249.6863418020521,75.86153171862378L250.1080219140734,104.66537154114086L250.54959259741648,117.51826718396256L250.97127270943778,113.30043346933137L251.3929528214591,126.64308823951583L251.8146329334804,132.8986744038301L252.23631304550173,127.91994579863882L252.65799315752304,133.54748764832812L253.07967326954432,138.38568102782062L253.50135338156562,140.5510437308088L253.92303349358693,127.75073713320205L254.34471360560826,129.1893998497129L254.76639371762957,131.44905084528884L255.18807382965088,124.40493865794046L255.60975394167218,124.9565328563392L256.0314340536935,121.12810937750719L256.4531141657148,118.85001346733651L256.8747942777361,116.22993334515742L257.2964743897574,115.02593381578555L257.7181545017787,113.63101659332295L258.1398346138001,118.4057090754027L258.5615147258214,124.08782208481004L258.987172952107,109.03464358614458L259.4128311783927,115.61821974739182L259.834511290414,113.91051067273725L260.2561914024353,118.84374952948681L260.68184962872095,87.91846606250785L261.123420312064,110.3362854675437L261.56499099540713,101.41176734423416L262.0065616787502,103.77774612393786L262.4282417907715,104.31035084542516L262.86981247411455,105.21595239369505L263.29149258613586,107.63828534434025L263.71317269815717,110.42990903609726L264.1348528101785,124.06281326785651L264.55653292219984,120.02714285278742L264.9782130342211,125.35181543451641L265.3998931462424,85.95195661718472L265.8215732582637,99.05144871386092L266.243253370285,110.44001465615547L266.66493348230637,114.3093882590083L267.0866135943277,117.74747597819191L267.508293706349,117.48809388276905L267.9299738183703,119.34272888674198L268.3556320446559,118.72192002310544L268.797202727999,119.05400709293588L269.2188828400203,133.9772841235893L269.64056295204165,140.20441152069532L270.06224306406295,127.6371080515332L270.48392317608426,122.72312804247642L270.90560328810557,123.51740773185078L271.3471739714486,109.17268686046351" fill="none"></path></g></g></g></g><g opacity="0.2"><g><g><g><path style="fill: none;" stroke="rgb(255, 112, 67)" stroke-width="2px" d="M12.714053188868931,54.72861795610925L13.867706325531005,77.231518250003L14.551941978999546,7.855629554434129L14.973622091020857,152.44260450099927L15.972128771373203,17.978843717964878L16.799576538358416,72.46403330721978L18.068594988686698,14.158378101824653L19.63995012310573,158.13324463036344L20.80553760256086,16.480804872935938L21.22721771458217,161.15781967355633L21.64889782660348,64.31045604664571L22.257549309049335,-15.75193712909936L22.882113248552596,64.13941890950407L23.303793360573902,5.334937787537228L26.394788143975397,29.976432624752714L26.816468255996703,97.49597280974527L28.83337218802316,27.952334113582424L29.732426011766705,31.108197272670736L30.715020235061644,41.77176248812177L31.371409088679723,52.4007715333423L32.35400331197466,79.17304954638453L32.77568342399597,119.16876508868965L33.197363536017285,171.60381827512424L33.61904364803859,29.792317632528963L34.30725741577149,77.41119737516513L34.919887012481695,77.65739683347472L35.882590664454874,17.41595398426791L36.7418633455549,30.005981508127476L37.1635434575762,45.23894928927323L37.58522356959752,115.11146069519725L38.28934979438782,69.60906685168318L38.91789184815543,19.895397489324683L39.33957196017674,66.7527101376784L40.0476762992314,59.25729066142658L40.79953989519392,68.62274326868526L41.527534805570326,14.755211349478008L41.94921491759164,83.62652458497962L42.800531370162965,54.27443936551388L43.22221148218428,124.07594744382308L43.643891594205584,161.19423148538635L44.83334775924683,20.122810785536558L45.819920096806115,64.40339129068877L46.520068207332066,30.24991296003768L46.94174831935337,128.3958634146606L47.363428431374686,75.60218245269009L47.785108543396,108.12472265423443L48.226679226739066,54.242098183351324L48.64835933876037,174.60583990922618L49.070039450781685,164.31485218139863L49.913399674824305,30.54483626491674L50.856212755475724,42.36454277888483L51.27789286749703,143.54711521978302L51.88654434994289,45.02758287470267L52.495195832388745,16.55441788064145L52.91687594441005,28.51734458053595L53.54939611244202,34.80795782095838L55.538453244618005,19.069902069208343L56.163017184121266,29.813725256568794L56.60458786746434,69.40470474778496L57.02626797948565,134.49693612027787L57.63889757619585,74.58971494137934L58.06057768821716,150.13979451251114L58.91189414078849,32.75028103322586L59.3335742528098,66.64594889098768L59.75525436483111,84.93922901616227L61.25102532822745,52.124946609623706L61.67270544024876,151.19469141626737L62.098363666534425,28.474741405781923L62.71894949177333,19.36329373340213L63.14062960379464,52.967820260592426L63.76917165756226,109.31837147676404L64.42158239691598,68.5949086446929L65.02625576509747,113.51545281010377L66.27936175836835,48.62705630365781L67.03520346859523,50.01169482871787L67.45688358061655,25.204134795662252L67.87856369263785,140.00890741823966L68.30024380465916,122.32801553006274L69.02823871503557,39.78498888226695L69.63689019748142,43.06419624392713L70.05857030950274,130.23399423747045L70.48025042152405,4.359789290616252L70.90193053354537,139.32132151451975L71.32361064556667,41.021694480830455L71.74529075758797,156.7327388968963L72.56876041030884,13.322314360979771L74.23161217280797,7.421138437570493L74.65329228482926,12.913354516154845L75.72738313620431,-0.7749065064662305L76.47129050363813,13.202799260121148L76.89297061565945,100.41715327029226L77.49764398384094,27.125955054609175L79.22016746030535,83.53190453618274L79.93224991362436,52.70484933677887L80.88699733706882,19.814821407426802L81.30867744909014,121.51688513229672L81.73035756111145,146.73297497260026L83.52846520859855,55.349403707710344L84.92876142965045,-12.673457170172654L85.827815253394,85.13556767923983L86.2494953654153,129.67889230756563L86.85416873359681,142.61268038319372L87.4588421017783,91.29039508198522L87.88052221379962,107.26612023161287L88.53691106741769,134.4813369489907L88.95859117943901,128.8147052873685L89.3802712914603,126.66502696731838L90.13213488742284,43.26845820208823L90.55381499944414,95.45880822534427L91.16644459615435,58.05368028351686L91.60801527949742,140.62810556536118L92.02969539151873,110.60717347686753L92.45137550354005,35.43383333237521L93.44192595536367,16.08372113434775L93.86360606738499,140.58248623664227L94.6751413773128,50.373939632641324L95.09682148933412,169.96499219648823L95.51850160135541,78.0825213784552L95.9600722846985,67.75519842083187L96.58463622420174,38.917502943670705L97.32456547737121,49.977456768475825L97.93321695981706,39.681214334912575L98.35489707183838,80.10780985661945L98.77657718385969,112.545753419467L99.40511923762729,110.89523385329133L100.1172016909463,44.1735282467313L100.55877237428938,149.81948131781047L100.98045248631068,50.244492431031134L102.04658710915702,45.345999191323855L102.46826722117832,38.447772309193894L103.16841533170428,15.021728610570605L103.59009544372559,11.634846908734243L104.47721492467608,17.679726073978372L105.08188829285757,4.488564926695197L105.80590508896965,20.836036943420865L106.22758520099094,17.52118948119903L106.64926531301225,164.52954696899684L107.47273496573312,51.739715413569414L108.08536456244332,15.163393592108875L108.52693524578639,139.11841152380973L109.83573483875819,25.115900510337884L110.2574149507795,166.05209206499052L110.9376724899837,7.964623461969927L111.92822294180735,57.68402469504686L112.54085253851754,71.8532915839588L113.18530704934257,29.52795645024721L113.80987098884583,21.829482655605396L115.08286755343846,51.518346207138734L115.71936583573478,10.38875117458474L117.27878662736074,42.30048485268526L117.70046673938207,145.06772809214294L118.78649193355015,55.235991605890035L119.20817204557146,147.0704778885305L119.62985215759277,65.99069533304177L120.05153226961409,59.01613972645275L120.6800743233817,46.20050152964939L121.2847476915632,33.18121403095904L121.7064278035845,155.03170464273452L122.12810791560581,131.224385504673L122.54978802762713,50.98069319919484L122.97146813964844,103.24572837863609L123.72333173561096,0.5236420302288921L124.14501184763228,52.35986494519352L124.81333504404341,17.56101213901668L125.46972389766148,-29.356299587720603L125.8914040096828,20.38023245732879L126.31308412170411,2.670389614736971L126.75465480504718,16.444740625722986L127.17633491706847,39.6493326449556L127.94808908435277,1.0061088460965024L128.36976919637408,116.91496171120522L128.79144930839539,86.96478847690932L129.2131294204167,118.0577924630745L129.65470010375978,90.65443430574831L130.49010409927368,109.04145378632573L131.2419676952362,25.60226711902728L131.68353837857927,58.43690856482883L132.30014608955383,99.82207551850126L132.7417167728969,55.80797692888736L133.3543463696071,83.44781157163439L133.7760264816284,79.37519077128907L134.39263419260297,100.76209642539759L134.83420487594606,22.74247010440631L136.19869806861877,53.652899575421564L136.62037818064007,61.992924634801625L137.06194886398316,134.2760499697556L137.48362897600447,146.32683982665455L138.08830234418596,-6.293148694849151L138.50998245620727,70.77646570923714L139.11863393865312,27.64282487663877L139.73126353536333,19.518979118136553L140.15294364738463,138.38801626293585L140.57462375940594,-6.760723250515138L141.18327524185182,8.99288454511634L142.575615234375,7.2646283232362965L142.9972953463963,124.3164739406714L143.75711517088752,40.43731465013366L144.17879528290882,113.94431220198611L144.60047539493016,79.91040493598791L145.23299556296215,52.69078180617701L145.65467567498345,112.84660594107588L146.07635578700476,39.00444122533827L147.11066549573624,54.141221971447585L147.53234560775758,27.541218189946655L148.3677496032715,-11.897044943094265L148.7894297152928,44.94783152240454L149.40603742626737,54.419155846571314L149.82771753828865,113.21839699011672L150.24939765030996,129.50688905860713L150.67107776233127,80.64748934300852L151.51841610063823,35.13671860313102L152.1867392970494,56.39500767615484L152.6084194090707,36.48189970776762L153.03009952109198,30.33324599516909L153.47167020443507,31.34765162103931L154.19170888628278,45.763548005837855L154.6133889983041,44.49999156787601L155.3334276801518,1.942471488125282L155.94207916259768,12.661847333778153L156.5507306450435,25.075877561046013L156.9724107570648,35.08907279596694L157.3940908690861,126.1248703159466L157.81577098110745,66.4084385481043L158.77449651881625,27.988410142646806L159.19617663083756,27.61492545246358L159.6178567428589,120.84592342093799L160.0395368548802,61.827366058572785L160.4612169669015,62.19227945184407L161.06986844934738,65.32573942044709L161.4915485613687,40.5992797616778L161.91322867339,140.3424751957938L162.33490878541127,149.68662916113834L162.75658889743258,56.09340406151762L163.18224712371824,34.96998184175963L163.60392723573958,19.04659756708902L164.02560734776088,32.28912758658669L164.46717803110397,153.0347574081739L165.4179473402841,11.099833035509619L165.8396274523054,102.02896945453567L166.2613075643267,36.789146829237595L166.68696579061236,13.481817065576001L167.10864590263367,71.3496763447827L167.55021658597673,150.5700147082331L167.97189669799803,82.247064183621L168.39357681001937,12.601995528537438L168.8351474933624,113.4062821747966L169.25682760538373,134.3686671038102L169.8734353163583,4.333068051583584L170.2951154283796,33.58764077772751L170.7167955404009,9.381980188438158L171.13847565242222,35.051618290285795L171.56015576444352,26.516727299256353L172.1847197039468,75.73601250303052L172.8371304433005,33.048232273921236L173.4457819257464,3.8188609279761057L173.8674620377677,126.56845702211058L174.289142149789,51.00108758401209L174.71082226181028,22.202531417285897L175.32742997278484,-14.79547464853895L175.74911008480618,52.16480461299563L176.17079019682748,10.885320866608481L176.9067413357326,1.8775534867716692L177.32842144775393,80.90915248131384L177.9330948159354,32.54947115753239L178.35477492795673,173.31572128722593L178.77645503997803,67.18213505842914L179.19813515199934,67.11994455568049L179.6397058353424,44.48700796760529L180.0613859473637,95.17242087182285L180.68197177260262,15.866640521835892L181.10365188462393,53.43421663111587L181.52533199664524,52.16949378986292L181.94701210866654,87.1421230136378L182.7704817613874,74.40592395006976L183.44676118632725,20.797580980368547L183.86844129834856,82.07494311614823L184.2901214103699,94.63564561181015L184.7118015223912,161.5255283110783L185.15337220573426,113.41547790983405L185.57505231775556,113.74812964843993L186.00071054404123,-1.9710707542751178L186.42239065606253,33.27608149863586L186.84407076808384,54.0933876546607L187.26575088010514,70.67366905555104L187.68743099212648,40.50663906392035L188.1290016754695,117.88281429663108L188.55068178749084,17.13591115773904L188.97236189951215,120.67124863716877L189.39404201153346,77.77388988944274L189.81572212355476,-7.339000082173605L190.51587023408075,4.055051703499862L190.93755034610203,122.38341379546469L191.35923045812333,139.7756827238122L191.78091057014464,49.071514866827286L192.22248125348773,105.39242883573847L192.6640519368308,76.53094580054952L193.0857320488521,111.08369929415392L193.5074121608734,145.21656233027352L193.92909227289474,87.81670469884698L194.35077238491604,89.85226695145414L194.77245249693735,57.47408388449876L195.19413260895865,88.96083439983587L195.61581272097996,225.62422560750093L196.22048608916145,9.605210927394044L196.64216620118276,90.77664745058334L197.06782442746842,76.82421375530335L197.48950453948976,118.39501850549624L197.91118465151106,108.83905041522698L198.33286476353237,139.8322444470424L198.75454487555368,111.30328060463079L199.19611555889674,6.809683912298281L199.61779567091804,122.6858009032217L200.03947578293935,47.26731283065951L200.46115589496068,93.17158562629189L200.882836006982,37.66794334520216L201.32440669032508,96.34112751488502L201.76597737366814,101.6736347064732L202.18765748568944,147.79779219525665L202.60933759771075,48.39679179940101L203.03101770973205,105.81361824234288L203.45269782175336,66.05099484863668L203.8743779337747,98.68765406308682L204.31594861711775,80.68170383954768L204.73762872913906,65.67017595594116L205.15930884116037,113.78568135439535L205.58098895318167,12.889614085532797L206.00266906520298,14.955655987777298L206.61132054764883,92.18378931186578L207.0369787739345,57.05067948982637L207.87636088371278,58.90457737530621L208.3020191099984,95.99792218286488L208.72369922201975,79.52344180777409L209.32837259020124,18.64013547476627L209.75005270222258,131.63356331374928L210.1916233855656,41.05930215058013L210.61330349758694,132.87248390038073L211.03498360960825,128.01451139318806L211.4606418358939,39.78180778238211L211.90221251923697,120.79516131407192L212.32389263125827,70.8020205449787L212.76546331460136,40.74563392008336L213.20703399794442,50.923598347187635L213.62871410996573,94.6229329941222L214.0543723362514,135.6636015575806L214.4760524482727,99.3822766775705L214.897732560294,95.75427938631462L215.3194126723153,111.50214647483907L215.74109278433664,44.562246870807485L216.16277289635795,106.11350170667201L216.58445300837926,130.99835363054072L217.00613312040056,113.149585086867L217.4278132324219,57.53109626354596L217.86938391576493,81.31880745537288L218.29106402778626,143.33870310445735L218.71672225407193,84.11426967028578L219.1423804803576,105.5479374927015L219.5640605923789,99.51632469216229L219.9857407044002,43.867412182998166L220.4074208164215,28.60304576780386L220.84899149976457,0.29924488798189774L221.29056218310765,-9.154819023846766L221.71224229512896,111.88571348437954L222.42432474844796,18.320411372636862L222.8460048604693,100.3743969314697L223.47852502850125,33.13712634292542L223.90020514052256,101.00386001664553L224.32188525254386,77.35132789714726L224.76345593588692,147.44807739032404L225.18513604790823,69.36601314770417L225.60681615992954,9.274176247896298L226.02849627195084,107.10702989181655L226.45017638397218,68.21444320754014L226.87185649599348,174.73440936290518L227.2935366080148,150.88301137319863L228.0135752898625,38.845857505153226L228.4352554018838,117.36960568493188L228.8569355139051,116.38514657992204L229.27861562592645,135.50881453901735L229.7042738522121,75.50068180266081L230.44420310538155,51.21752019469557L230.86588321740285,129.62179745555844L231.28756332942416,27.78736462992483L231.7092434414455,123.62473787978692L232.1309235534668,104.49724376444124L232.5526036654881,75.53156792617233L232.9742837775094,138.07967342928333L233.39596388953075,93.96188865620074L233.81764400155205,118.67300834441423L234.23932411357336,129.21993028529158L234.66100422559464,12.739030242465537L235.08268433761594,66.15012145560374L235.50436444963728,101.27944930333562L235.92604456165859,141.3895784048322L236.3477246736799,119.78139190817869L236.7694047857012,113.83863488562653L237.19108489772253,115.26782942731435L237.61276500974384,133.813326591414L238.0543356930869,22.2659177779542L238.4760158051082,129.79264902854013L238.8976959171295,116.36599223496731L239.32335414341517,137.33493965522482L239.74503425543648,44.37307746432225L240.16671436745779,95.27462843293765L240.58839447947912,105.0193918559094L241.01007459150043,33.96362322041291L241.43175470352173,55.04365288137137L241.85343481554304,98.32378925459238L242.2950054988861,64.96736495471687L242.7365761822292,30.275927287984814L243.1582562942505,72.76804631047351L243.59982697759355,110.55970439747483L244.35964680208477,1.7625626168603503L244.78132691410607,56.47485328326436L245.4934093674251,104.64935924819379L246.28903222029552,3.900191048365217L246.7107123323168,107.07935432281843L247.1323924443381,137.0756476145188L247.55407255635942,140.1417566294489L247.97575266838072,112.28765134575497L248.39743278040206,97.00422189495448L248.83900346374512,127.93222399737064L249.26068357576645,70.50007525665012L249.6863418020521,43.58916019788594L250.1080219140734,147.8711312749165L250.54959259741648,136.79761064819513L250.97127270943778,106.97368289738456L251.3929528214591,146.65707039479253L251.8146329334804,142.2820536503016L252.23631304550173,120.45185289085182L252.65799315752304,141.98880042286206L253.07967326954432,145.64297109705936L253.50135338156562,143.79908778529102L253.92303349358693,108.55027723679193L254.34471360560826,131.34739392447923L254.76639371762957,134.83852733865268L255.18807382965088,113.83877037691789L255.60975394167218,125.78392415393729L256.0314340536935,115.38547415925919L256.4531141657148,115.4328696020805L256.8747942777361,112.29981316188876L257.2964743897574,113.21993452172772L257.7181545017787,111.53864075962908L258.1398346138001,125.56774779852233L258.5615147258214,132.61099159892106L258.987172952107,86.45487583814638L259.4128311783927,125.49358398926266L259.834511290414,111.34894706075542L260.2561914024353,126.24360781461114L260.68184962872095,41.5305408620394L261.123420312064,143.9630145750975L261.56499099540713,88.02499015926983L262.0065616787502,107.32671429349341L262.4282417907715,105.10925792765617L262.86981247411455,106.57435471609986L263.29149258613586,111.27178477030802L263.71317269815717,114.61734457373282L264.1348528101785,144.51216961549537L264.55653292219984,113.97363723018375L264.9782130342211,133.33882430710992L265.3998931462424,26.85216839118716L265.8215732582637,118.70068685887523L266.243253370285,127.52286356959728L266.66493348230637,120.11344866328756L267.0866135943277,122.90460755696738L267.508293706349,117.09902073963472L267.9299738183703,122.12468139270139L268.3556320446559,117.79070672765064L268.797202727999,119.55213769768157L269.2188828400203,156.36219966956943L269.64056295204165,149.54510261635434L270.06224306406295,108.78615284779008L270.48392317608426,115.3521580288912L270.90560328810557,124.70882726591228L271.3471739714486,87.65560555338261" fill="none"></path></g></g></g></g></g></g><g transform="translate(51, 177)" clip-path="url(#clip_1)"><clipPath id="clip_1"><rect width="278" height="22"></rect></clipPath><g><g><line x1="0" y1="0" x2="0" y2="5" style="visibility: inherit;" fill="rgb(0, 0, 0)" stroke="rgb(204, 204, 204)" stroke-width="1px"></line><line x1="19.890571321759904" y1="0" x2="19.890571321759904" y2="5" style="visibility: inherit;" fill="rgb(0, 0, 0)" stroke="rgb(204, 204, 204)" stroke-width="1px"></line><line x1="39.78114264351981" y1="0" x2="39.78114264351981" y2="5" style="visibility: inherit;" fill="rgb(0, 0, 0)" stroke="rgb(204, 204, 204)" stroke-width="1px"></line><line x1="59.671713965279714" y1="0" x2="59.671713965279714" y2="5" style="visibility: inherit;" fill="rgb(0, 0, 0)" stroke="rgb(204, 204, 204)" stroke-width="1px"></line><line x1="79.56228528703961" y1="0" x2="79.56228528703961" y2="5" style="visibility: inherit;" fill="rgb(0, 0, 0)" stroke="rgb(204, 204, 204)" stroke-width="1px"></line><line x1="99.45285660879952" y1="0" x2="99.45285660879952" y2="5" style="visibility: inherit;" fill="rgb(0, 0, 0)" stroke="rgb(204, 204, 204)" stroke-width="1px"></line><line x1="119.34342793055943" y1="0" x2="119.34342793055943" y2="5" style="visibility: inherit;" fill="rgb(0, 0, 0)" stroke="rgb(204, 204, 204)" stroke-width="1px"></line><line x1="139.23399925231934" y1="0" x2="139.23399925231934" y2="5" style="visibility: inherit;" fill="rgb(0, 0, 0)" stroke="rgb(204, 204, 204)" stroke-width="1px"></line><line x1="159.12457057407923" y1="0" x2="159.12457057407923" y2="5" style="visibility: inherit;" fill="rgb(0, 0, 0)" stroke="rgb(204, 204, 204)" stroke-width="1px"></line><line x1="179.01514189583915" y1="0" x2="179.01514189583915" y2="5" style="visibility: inherit;" fill="rgb(0, 0, 0)" stroke="rgb(204, 204, 204)" stroke-width="1px"></line><line x1="198.90571321759904" y1="0" x2="198.90571321759904" y2="5" style="visibility: inherit;" fill="rgb(0, 0, 0)" stroke="rgb(204, 204, 204)" stroke-width="1px"></line><line x1="218.79628453935896" y1="0" x2="218.79628453935896" y2="5" style="visibility: inherit;" fill="rgb(0, 0, 0)" stroke="rgb(204, 204, 204)" stroke-width="1px"></line><line x1="238.68685586111886" y1="0" x2="238.68685586111886" y2="5" style="visibility: inherit;" fill="rgb(0, 0, 0)" stroke="rgb(204, 204, 204)" stroke-width="1px"></line><line x1="258.57742718287875" y1="0" x2="258.57742718287875" y2="5" style="visibility: inherit;" fill="rgb(0, 0, 0)" stroke="rgb(204, 204, 204)" stroke-width="1px"></line><line x1="278.4679985046387" y1="0" x2="278.4679985046387" y2="5" style="visibility: inherit;" fill="rgb(0, 0, 0)" stroke="rgb(204, 204, 204)" stroke-width="1px"></line></g><g transform="translate(0, 8)"><text style="text-anchor: middle; visibility: hidden; font-family: Roboto, sans-serif; font-size: 12px; font-weight: 200;" x="0" y="0" dx="0em" dy="0.95em" fill="rgb(50, 49, 63)" stroke="none" stroke-width="1px">20k</text><text style="text-anchor: middle; visibility: inherit; font-family: Roboto, sans-serif; font-size: 12px; font-weight: 200;" x="19.890571321759904" y="0" dx="0em" dy="0.95em" fill="rgb(50, 49, 63)" stroke="none" stroke-width="1px">25k</text><text style="text-anchor: middle; visibility: hidden; font-family: Roboto, sans-serif; font-size: 12px; font-weight: 200;" x="39.78114264351981" y="0" dx="0em" dy="0.95em" fill="rgb(50, 49, 63)" stroke="none" stroke-width="1px">30k</text><text style="text-anchor: middle; visibility: inherit; font-family: Roboto, sans-serif; font-size: 12px; font-weight: 200;" x="59.671713965279714" y="0" dx="0em" dy="0.95em" fill="rgb(50, 49, 63)" stroke="none" stroke-width="1px">35k</text><text style="text-anchor: middle; visibility: hidden; font-family: Roboto, sans-serif; font-size: 12px; font-weight: 200;" x="79.56228528703961" y="0" dx="0em" dy="0.95em" fill="rgb(50, 49, 63)" stroke="none" stroke-width="1px">40k</text><text style="text-anchor: middle; visibility: inherit; font-family: Roboto, sans-serif; font-size: 12px; font-weight: 200;" x="99.45285660879952" y="0" dx="0em" dy="0.95em" fill="rgb(50, 49, 63)" stroke="none" stroke-width="1px">45k</text><text style="text-anchor: middle; visibility: hidden; font-family: Roboto, sans-serif; font-size: 12px; font-weight: 200;" x="119.34342793055943" y="0" dx="0em" dy="0.95em" fill="rgb(50, 49, 63)" stroke="none" stroke-width="1px">50k</text><text style="text-anchor: middle; visibility: inherit; font-family: Roboto, sans-serif; font-size: 12px; font-weight: 200;" x="139.23399925231934" y="0" dx="0em" dy="0.95em" fill="rgb(50, 49, 63)" stroke="none" stroke-width="1px">55k</text><text style="text-anchor: middle; visibility: hidden; font-family: Roboto, sans-serif; font-size: 12px; font-weight: 200;" x="159.12457057407923" y="0" dx="0em" dy="0.95em" fill="rgb(50, 49, 63)" stroke="none" stroke-width="1px">60k</text><text style="text-anchor: middle; visibility: inherit; font-family: Roboto, sans-serif; font-size: 12px; font-weight: 200;" x="179.01514189583915" y="0" dx="0em" dy="0.95em" fill="rgb(50, 49, 63)" stroke="none" stroke-width="1px">65k</text><text style="text-anchor: middle; visibility: hidden; font-family: Roboto, sans-serif; font-size: 12px; font-weight: 200;" x="198.90571321759904" y="0" dx="0em" dy="0.95em" fill="rgb(50, 49, 63)" stroke="none" stroke-width="1px">70k</text><text style="text-anchor: middle; visibility: inherit; font-family: Roboto, sans-serif; font-size: 12px; font-weight: 200;" x="218.79628453935896" y="0" dx="0em" dy="0.95em" fill="rgb(50, 49, 63)" stroke="none" stroke-width="1px">75k</text><text style="text-anchor: middle; visibility: hidden; font-family: Roboto, sans-serif; font-size: 12px; font-weight: 200;" x="238.68685586111886" y="0" dx="0em" dy="0.95em" fill="rgb(50, 49, 63)" stroke="none" stroke-width="1px">80k</text><text style="text-anchor: middle; visibility: inherit; font-family: Roboto, sans-serif; font-size: 12px; font-weight: 200;" x="258.57742718287875" y="0" dx="0em" dy="0.95em" fill="rgb(50, 49, 63)" stroke="none" stroke-width="1px">85k</text><text style="text-anchor: middle; visibility: hidden; font-family: Roboto, sans-serif; font-size: 12px; font-weight: 200;" x="278.4679985046387" y="0" dx="0em" dy="0.95em" fill="rgb(50, 49, 63)" stroke="none" stroke-width="1px">90k</text></g><line x1="0" y1="0" x2="278.4679985046387" y2="0" fill="rgb(0, 0, 0)" stroke="rgb(204, 204, 204)" stroke-width="1px"></line></g></g></g></g></svg>