<svg viewBox="0 0 330 200" xmlns="http://www.w3.org/2000/svg"><g><g><g><g><g><line x1="51.53200149536133" y1="177.89999961853027" x2="46.53200149536133" y2="177.89999961853027" style="visibility: inherit;" fill="rgb(0, 0, 0)" stroke="rgb(204, 204, 204)" stroke-width="1px"></line><line x1="51.53200149536133" y1="155.662499666214" x2="46.53200149536133" y2="155.662499666214" style="visibility: inherit;" fill="rgb(0, 0, 0)" stroke="rgb(204, 204, 204)" stroke-width="1px"></line><line x1="51.53200149536133" y1="133.4249997138977" x2="46.53200149536133" y2="133.4249997138977" style="visibility: inherit;" fill="rgb(0, 0, 0)" stroke="rgb(204, 204, 204)" stroke-width="1px"></line><line x1="51.53200149536133" y1="111.18749976158142" x2="46.53200149536133" y2="111.18749976158142" style="visibility: inherit;" fill="rgb(0, 0, 0)" stroke="rgb(204, 204, 204)" stroke-width="1px"></line><line x1="51.53200149536133" y1="88.94999980926514" x2="46.53200149536133" y2="88.94999980926514" style="visibility: inherit;" fill="rgb(0, 0, 0)" stroke="rgb(204, 204, 204)" stroke-width="1px"></line><line x1="51.53200149536133" y1="66.71249985694885" x2="46.53200149536133" y2="66.71249985694885" style="visibility: inherit;" fill="rgb(0, 0, 0)" stroke="rgb(204, 204, 204)" stroke-width="1px"></line><line x1="51.53200149536133" y1="44.47499990463257" x2="46.53200149536133" y2="44.47499990463257" style="visibility: inherit;" fill="rgb(0, 0, 0)" stroke="rgb(204, 204, 204)" stroke-width="1px"></line><line x1="51.53200149536133" y1="22.237499952316284" x2="46.53200149536133" y2="22.237499952316284" style="visibility: inherit;" fill="rgb(0, 0, 0)" stroke="rgb(204, 204, 204)" stroke-width="1px"></line><line x1="51.53200149536133" y1="0" x2="46.53200149536133" y2="0" style="visibility: inherit;" fill="rgb(0, 0, 0)" stroke="rgb(204, 204, 204)" stroke-width="1px"></line></g><g transform="translate(41.53200149536133, 0)"><text style="text-anchor: end; visibility: hidden; font-family: Roboto, sans-serif; font-size: 12px; font-weight: 200;" x="0" y="177.89999961853027" dx="0em" dy="0.3em" fill="rgb(50, 49, 63)" stroke="none" stroke-width="1px">-100</text><text style="text-anchor: end; visibility: inherit; font-family: Roboto, sans-serif; font-size: 12px; font-weight: 200;" x="0" y="155.662499666214" dx="0em" dy="0.3em" fill="rgb(50, 49, 63)" stroke="none" stroke-width="1px">-50</text><text style="text-anchor: end; visibility: hidden; font-family: Roboto, sans-serif; font-size: 12px; font-weight: 200;" x="0" y="133.4249997138977" dx="0em" dy="0.3em" fill="rgb(50, 49, 63)" stroke="none" stroke-width="1px">0</text><text style="text-anchor: end; visibility: inherit; font-family: Roboto, sans-serif; font-size: 12px; font-weight: 200;" x="0" y="111.18749976158142" dx="0em" dy="0.3em" fill="rgb(50, 49, 63)" stroke="none" stroke-width="1px">50</text><text style="text-anchor: end; visibility: hidden; font-family: Roboto, sans-serif; font-size: 12px; font-weight: 200;" x="0" y="88.94999980926514" dx="0em" dy="0.3em" fill="rgb(50, 49, 63)" stroke="none" stroke-width="1px">100</text><text style="text-anchor: end; visibility: inherit; font-family: Roboto, sans-serif; font-size: 12px; font-weight: 200;" x="0" y="66.71249985694885" dx="0em" dy="0.3em" fill="rgb(50, 49, 63)" stroke="none" stroke-width="1px">150</text><text style="text-anchor: end; visibility: hidden; font-family: Roboto, sans-serif; font-size: 12px; font-weight: 200;" x="0" y="44.47499990463257" dx="0em" dy="0.3em" fill="rgb(50, 49, 63)" stroke="none" stroke-width="1px">200</text><text style="text-anchor: end; visibility: inherit; font-family: Roboto, sans-serif; font-size: 12px; font-weight: 200;" x="0" y="22.237499952316284" dx="0em" dy="0.3em" fill="rgb(50, 49, 63)" stroke="none" stroke-width="1px">250</text><text style="text-anchor: end; visibility: hidden; font-family: Roboto, sans-serif; font-size: 12px; font-weight: 200;" x="0" y="0" dx="0em" dy="0.3em" fill="rgb(50, 49, 63)" stroke="none" stroke-width="1px">300</text></g><line x1="51.53200149536133" y1="0" x2="51.53200149536133" y2="177.89999961853027" fill="rgb(0, 0, 0)" stroke="rgb(204, 204, 204)" stroke-width="1px"></line></g></g><g transform="translate(51, 0)" clip-path="url(#clip_0)"><clipPath id="clip_0"><rect width="278" height="177"></rect></clipPath><g><g><g><line x1="0" y1="0" x2="0" y2="177.89999961853027" fill="rgb(0, 0, 0)" stroke="rgb(60, 60, 60)" stroke-width="1px" opacity="0.25"></line><line x1="25.31527259133079" y1="0" x2="25.31527259133079" y2="177.89999961853027" fill="rgb(0, 0, 0)" stroke="rgb(60, 60, 60)" stroke-width="1px" opacity="0.25"></line><line x1="50.63054518266158" y1="0" x2="50.63054518266158" y2="177.89999961853027" fill="rgb(0, 0, 0)" stroke="rgb(60, 60, 60)" stroke-width="1px" opacity="0.25"></line><line x1="75.94581777399236" y1="0" x2="75.94581777399236" y2="177.89999961853027" fill="rgb(0, 0, 0)" stroke="rgb(60, 60, 60)" stroke-width="1px" opacity="0.25"></line><line x1="101.26109036532316" y1="0" x2="101.26109036532316" y2="177.89999961853027" fill="rgb(0, 0, 0)" stroke="rgb(60, 60, 60)" stroke-width="1px" opacity="0.25"></line><line x1="126.57636295665394" y1="0" x2="126.57636295665394" y2="177.89999961853027" fill="rgb(0, 0, 0)" stroke="rgb(60, 60, 60)" stroke-width="1px" opacity="0.25"></line><line x1="151.89163554798472" y1="0" x2="151.89163554798472" y2="177.89999961853027" fill="rgb(0, 0, 0)" stroke="rgb(60, 60, 60)" stroke-width="1px" opacity="0.25"></line><line x1="177.20690813931552" y1="0" x2="177.20690813931552" y2="177.89999961853027" fill="rgb(0, 0, 0)" stroke="rgb(60, 60, 60)" stroke-width="1px" opacity="0.25"></line><line x1="202.5221807306463" y1="0" x2="202.5221807306463" y2="177.89999961853027" fill="rgb(0, 0, 0)" stroke="rgb(60, 60, 60)" stroke-width="1px" opacity="0.25"></line><line x1="227.8374533219771" y1="0" x2="227.8374533219771" y2="177.89999961853027" fill="rgb(0, 0, 0)" stroke="rgb(60, 60, 60)" stroke-width="1px" opacity="0.25"></line><line x1="253.15272591330788" y1="0" x2="253.15272591330788" y2="177.89999961853027" fill="rgb(0, 0, 0)" stroke="rgb(60, 60, 60)" stroke-width="1px" opacity="0.25"></line><line x1="278.4679985046387" y1="0" x2="278.4679985046387" y2="177.89999961853027" fill="rgb(0, 0, 0)" stroke="rgb(60, 60, 60)" stroke-width="1px" opacity="0.25"></line></g><g><line x1="0" y1="177.89999961853027" x2="278.4679985046387" y2="177.89999961853027" fill="rgb(0, 0, 0)" stroke="rgb(60, 60, 60)" stroke-width="1px" opacity="0.25"></line><line x1="0" y1="155.662499666214" x2="278.4679985046387" y2="155.662499666214" fill="rgb(0, 0, 0)" stroke="rgb(60, 60, 60)" stroke-width="1px" opacity="0.25"></line><line x1="0" y1="133.4249997138977" x2="278.4679985046387" y2="133.4249997138977" fill="rgb(0, 0, 0)" stroke="rgb(60, 60, 60)" stroke-width="1px" opacity="0.25"></line><line x1="0" y1="111.18749976158142" x2="278.4679985046387" y2="111.18749976158142" fill="rgb(0, 0, 0)" stroke="rgb(60, 60, 60)" stroke-width="1px" opacity="0.25"></line><line x1="0" y1="88.94999980926514" x2="278.4679985046387" y2="88.94999980926514" fill="rgb(0, 0, 0)" stroke="rgb(60, 60, 60)" stroke-width="1px" opacity="0.25"></line><line x1="0" y1="66.71249985694885" x2="278.4679985046387" y2="66.71249985694885" fill="rgb(0, 0, 0)" stroke="rgb(60, 60, 60)" stroke-width="1px" opacity="0.25"></line><line x1="0" y1="44.47499990463257" x2="278.4679985046387" y2="44.47499990463257" fill="rgb(0, 0, 0)" stroke="rgb(60, 60, 60)" stroke-width="1px" opacity="0.25"></line><line x1="0" y1="22.237499952316284" x2="278.4679985046387" y2="22.237499952316284" fill="rgb(0, 0, 0)" stroke="rgb(60, 60, 60)" stroke-width="1px" opacity="0.25"></line><line x1="0" y1="0" x2="278.4679985046387" y2="0" fill="rgb(0, 0, 0)" stroke="rgb(60, 60, 60)" stroke-width="1px" opacity="0.25"></line></g></g></g><g><g><line x1="0" y1="133.4249997138977" x2="278.4679985046387" y2="133.4249997138977" fill="rgb(0, 0, 0)" stroke="rgb(153, 153, 153)" stroke-width="1.5px"></line></g></g><g><g><line x1="-50.63054518266158" y1="0" x2="-50.63054518266158" y2="177.89999961853027" fill="rgb(0, 0, 0)" stroke="rgb(153, 153, 153)" stroke-width="1.5px"></line></g></g><g><g><g><g><g><path style="fill: none;" stroke="rgb(204, 51, 17)" stroke-width="2px" d="M173.9285803387382,174.57892115923622L175.4753434940685,174.2524094918736L177.00944901310314,127.40030790686015L178.5435545321378,85.98905611435836L180.07766005117244,53.37331551695201L181.61176557020707,28.29457745078513L183.14587108924172,25.860608748504102L184.67997660827638,18.27051072902643L186.214082127311,9.195383956775341L187.74818764634566,11.929095687396588L189.2822931653803,9.25780738528788L190.81639868441496,4.24199869757817L192.3505042034496,7.408107531448899L193.88460972248424,14.341465218086636L195.4187152415189,22.720421325423498L196.95282076055352,31.36072735081569L198.49958391588385,32.80216331200519L200.0336894349185,37.05838698760175L201.56779495395315,42.52592968616344L203.1044320002469,42.56138720377149L204.63853751928156,39.81843203611562L206.17264303831618,36.48163942859115L207.70674855735083,32.274412918968416L209.25351171268116,27.73047004312102L210.7876172317158,27.859178833124332L212.3242542780096,25.96290514338027L213.87101743333992,27.320373712898228L215.40512295237457,26.225958798570698L216.9392284714092,23.87224225387604L218.47333399044385,24.805010817990798L220.0074395094785,27.451802938392117L221.55420266480877,27.269452104407897L223.08830818384342,25.62029941655878L224.63507133917375,26.602691614901644L226.1691768582084,25.68349363318431L227.70328237724303,23.769956709631597L229.23738789627768,21.36893755638584L230.784151051608,18.741696129864536L232.31825657064263,16.10259218835491L233.85236208967729,13.48937825018706L235.38646760871194,13.729697310212506L236.93323076404226,15.518488050644367L238.47999391937256,18.06774652998778L240.01409943840721,18.404540829430513L241.54820495744187,20.124040644655548L243.08231047647652,22.559679885071464L244.61641599551115,22.859509622361816L246.16317915084144,21.983366950069335L247.6972846698761,20.496114414643383L249.23139018891072,21.008649091893506L250.77815334424105,20.32449408971393L252.3122588632757,21.255419892351483" fill="none"></path></g><g><path style="fill: none;" stroke="rgb(255, 112, 67)" stroke-width="2px" d="M8.09076112018932,146.25707566704529L8.824904025337913,130.67746604512342L9.260326713908801,122.60035435513764L9.528668603376909,124.86024097897113L10.16408194541931,122.19311677779538L10.690639615318993,121.57541360985684L11.498196810982444,118.75194194954659L12.229808188871905,117.29612847569065L12.49815007834001,118.56271210314684L13.239887565266002,118.84731288917864L13.50822945473411,121.28503545229512L13.776571344202216,124.36479545643788L14.163895014849576,126.679382147047L14.561344794533468,128.1001296129686L14.829686684001576,129.02476584880935L16.04735129564459,125.69263924535906L16.796683364347977,121.92534780575393L17.065025253816085,120.33383857682864L18.34850957419656,116.90858362109122L18.920634734760633,115.10927497673197L19.545921967766503,114.21696526854882L19.96362396552346,113.69044339010979L20.588911198529328,112.72604226223311L20.857253087997435,112.57237987661073L21.125594977465543,113.33847838694277L21.39393686693365,114.06091823637959L21.831891082763672,114.8388634338406L22.221746280670164,115.64872097490874L22.83437587738037,115.61886064292403L23.381185765353116,115.22845324313465L23.649527654821224,115.29645973649453L23.917869544289328,115.5754522083832L24.365949869155884,116.16178523618848L24.76593117609891,116.81146765628995L25.034273065567014,117.35953957039419L25.484884917692703,117.75074405390144L25.963343569668854,118.30175377196082L26.426613058090208,118.3746302488355L26.694954947558315,118.7516381376914L27.236701781012798,118.74998938632525L27.5050436704809,119.0179770444135L27.77338555994901,119.65439167903932L28.5303122104298,119.30024226841672L29.1581309706948,119.03113199380138L29.603679768302225,118.88931695405478L29.87202165777033,118.9311408353723L30.140363547238437,119.0842524373468L30.408705436706544,119.28309026810749L30.689704962470316,119.57525887217523L30.95804685193842,120.14674870910854L31.226388741406527,120.95025154596378L31.763072520342742,121.4536514271056L32.36304448075728,121.49521841718251L32.631386370225385,121.96728447726042L33.01871004087275,122.46112929541222L33.40603371152011,122.90353238759383L33.67437560098821,123.26839178943054L34.07688843519038,123.50595092487387L35.34265206475691,123.01998551360346L35.74010184444081,122.66551676309192L36.021101370204576,122.57169487921152L36.28944325967268,122.63433876580525L36.67929845757918,122.71712392357247L36.94764034704728,123.12774931663465L37.489387180501765,123.09904152423634L37.75772906996987,123.18406175423907L38.02607095943798,123.33566541859236L38.977925208872016,123.2286279413317L39.24626709834012,123.50915167766661L39.51714051506736,123.71277506859096L39.91205876749212,123.9158698197227L40.180400656960224,124.09615389258133L40.58038196390326,124.35663350234489L40.995552434401084,124.58331640359239L41.38034457778931,124.93568361689894L42.177775664416224,124.9294081957693L42.658765843651516,124.9298143879726L42.92710773311962,124.97061507872634L43.195449622587724,125.1813502256848L43.46379151205583,125.50775678704801L43.92706100047719,125.73086730810128L44.31438467112454,125.9522647617259L44.58272656059265,126.24965650353806L44.85106845006076,126.46739953990617L45.11941033952886,126.75612049686404L45.38775222899697,126.94568433599302L45.65609411846508,127.24554668483427L46.18012026110563,127.33398030678704L47.23829865542325,127.03896778738697L47.50664054489136,126.90338253987164L48.19015290485729,126.66352095167828L48.66354850231518,126.42799732824831L48.931890391783284,126.43242671221093L49.31668253517151,126.46137181462736L50.41283383837613,125.94473758337149L50.86597721776095,125.56799645865998L51.47354375995289,125.12221242811707L51.74188564942099,124.95013788033516L52.01022753888911,124.88400593268446L53.15447786001726,124.62497354478617L53.56205374873768,124.44957299729309L54.045575455232104,124.34671152037276L54.617700615796174,124.40952318764317L54.88604250526428,124.43153700594286L55.27083464865251,124.7162808135867L55.655626792040735,124.94637737768285L55.92396868150884,125.29455092167986L56.341670679265796,125.68609398085484L56.61001256873391,125.88859509895276L56.87835445820202,126.16328271094706L57.356813110178166,126.16097423914883L57.62515499964628,126.00643827358618L58.01501019755276,125.85730129016909L58.296009723316544,125.89736809622585L58.56435161278465,125.90970909997492L58.83269350225275,126.57486701909104L59.46304378977689,127.06638734465618L59.731385679244994,127.33195243789899L60.24781724010815,127.97750960983507L60.51615912957625,128.52919682531498L60.784501019044356,128.9321308958632L61.06550054480813,129.3309420192476L61.46295032449202,129.72263228720624L61.93381439469078,129.84257324770522L62.32113806533813,129.8500416699169L62.58947995480624,129.90690720021226L62.85782184427435,129.93926014263877L63.257803151217374,130.01930172900526L63.7109465306022,130.22414902949345L63.99194605636597,130.66881310672926L64.26028794583408,130.92478138593336L64.93873725128174,130.84502280530026L65.20707914074984,130.73650846561893L65.65262793835727,130.69607847883188L65.92096982782537,130.67156959099046L66.48550040661205,130.63653061006102L66.87029255000029,130.63474120546306L67.3310305111625,130.72313330973293L67.5993724006306,130.70987675026453L67.8677142900987,130.85980986437525L68.39174043273925,130.85651359501705L68.78159563064575,130.6175660231456L69.06259515640951,130.84845675897074L69.8954676246643,130.74392062949988L70.16380951413242,130.8490530086551L70.59670067544417,130.82075562538853L71.2270509629683,130.6965256931296L71.6169061608748,130.62019960225064L72.02701357685436,130.58218676741558L72.42446335653825,130.47558887777024L73.23455207946084,130.03995583387555L73.63959644092213,129.71054579948122L74.6319551265023,129.2835836467111L74.9002970159704,128.94979451851873L75.59140395771374,128.61514911022468L75.85974584718184,128.41652570241618L76.12808773664995,128.27477673205024L76.39642962611806,128.33404881385692L76.79641093306108,128.83770824964705L77.18120307644932,129.12228284341757L77.44954496591741,129.4038023713341L77.71788685538553,129.7293308177056L77.98622874485362,129.92102566394016L78.25457063432174,130.02936433741723L78.73302928629788,130.33394389908162L79.001371175766,130.48911923775015L79.42666775530034,130.43249280507104L79.84436975305731,130.59286925854187L80.11271164252541,130.51852574137837L80.38105353199352,130.4875983954599L80.66205305775729,130.4998239452842L80.9303949472254,130.49455753387522L81.42151123549722,130.39238054929925L81.68985312496532,130.32386365701797L81.95819501443343,130.14490055449926L82.22653690390153,130.28033239145344L82.50753642966531,130.37410575811066L83.03915715408326,130.50613931872354L83.5176158060594,130.30208224138843L83.79861533182317,130.06564146596284L84.1910020569888,129.96968503606448L84.47200158275257,129.85460992577464L84.86185678065907,129.83383490172886L85.13019867012719,129.8009514419468L85.52258539529281,129.7837295732018L85.80358492105658,129.7623803757608L86.67189877093922,129.14577420019614L86.94024066040734,129.0007581792125L87.2212401861711,129.4104378550726L87.4895820756392,129.63475778111803L87.87437421902743,129.85119311480662L88.14271610849553,130.10046325091085L88.5300397791429,130.1557282589561L88.9198949770494,130.10250511110874L89.1882368665175,130.79921386395205L89.4565787559856,131.3488736963082L89.84390242663297,131.9891162829755L90.72993696732955,132.11598118969192L90.99827885679765,132.25677374985673L91.48180056329207,132.5903806300182L91.75014245276019,132.9293275926084L92.01848434222828,133.27325434347892L92.42099717643043,133.41914539626578L92.68933906589855,133.5054029932983L92.95768095536664,133.5025122069731L93.61587804274126,133.20313647794234L93.88421993220936,133.04052789097562L94.41584065662731,132.81934973336266L94.68418254609541,132.7519356950021L95.07656927126105,132.6288094729449L95.34491116072914,132.703652305769L95.61325305019726,132.92461584974248L95.88159493966536,133.07082215904012L96.42081024586071,132.8631606630964L96.84610682539507,132.8206767267233L97.11444871486316,132.78867988956745L97.38279060433128,133.0521551014724L97.66379013009505,133.17356711746666L98.12199656399814,133.34218697266445L98.39033845346624,133.31856034555088L98.84854488736933,133.35921499984875L99.23586855801669,133.23785062979425L99.62319222866405,133.16108818356375L99.89153411813216,133.23057503239107L100.15987600760026,133.32208170437568L100.42821789706836,133.44271171030792L101.03831596651943,133.24650865717683L101.30665785598755,133.03722619126953L101.57499974545566,133.01052011955122L101.84334163492376,132.85432989150343L102.11168352439186,132.75816744940087L102.49900719503923,132.89396886366634L102.76734908450734,132.9911857249886L103.03569097397543,133.1218316701539L103.30403286344355,133.3489354355815L103.57237475291166,133.53289885532777L103.8432481696389,133.59906668802256L104.11159005910699,133.82754883123928L104.3799319485751,134.06025831096136L104.66093147433888,134.33802361342597L105.26596648927168,134.50645332087527L105.5343083787398,134.75081799435026L105.8026502682079,134.89466353645267L106.07352368493514,135.33410559197293L106.34186557440323,135.4685335462626L106.62286510016702,135.7545429088949L106.89120698963512,136.02507114496314L107.15954887910323,136.28998777062844L107.440548404867,136.58114488866212L107.7088902943351,136.7175987309883L108.10127701950073,136.90161804957435L108.36961890896885,137.22341844965584L108.63796079843694,137.96476456705545L108.90630268790505,138.30058924518931L109.17464457737316,138.5928272716403L109.57209435705704,138.76351395111695L109.98726482755487,138.74654896721898L110.37458849820224,138.64601475431164L110.64293038767035,138.63878867549525L110.91127227713845,138.85235945925763L111.17961416660656,138.84468279514644L111.57200089177219,138.54872711058982L111.8403427812403,138.3870708462931L112.1086846707084,138.11779001426632L112.57701721364802,137.79312398172928L112.84535910311611,137.7950480125814L113.23015124650435,137.85442693863948L113.49849313597245,138.0601820943625L113.76683502544056,138.1969733184321L114.03517691490867,138.30257937700134L114.31617644067245,138.42187916189326L114.58451833014054,138.5126697711625L114.9794365825653,138.6512900234505L115.24777847203342,138.80288705922135L115.51612036150152,138.92153778546L115.78446225096963,139.12993583228555L116.30848839361016,139.06879049127855L116.7388480276628,138.86486043095223L117.0071899171309,138.90700874659555L117.275531806599,138.91718242127203L117.54387369606712,139.0752060665542L117.8248732218309,139.35153265434823L118.09321511129899,139.34265630371993L118.36408852802623,139.36078435458526L118.63243041749433,139.30667991027985L118.90077230696245,139.2977520538002L119.16911419643054,139.7472966441379L119.43745608589866,140.0426496633431L119.71845561166243,140.0343578823619L119.98679750113054,140.12745649438074L120.25513939059864,140.44488758199512L120.52348128006675,140.78588318888177L120.79182316953485,140.98232899177233L121.23737196714228,141.06926592723755L121.50571385661038,140.91879220414546L121.7740557460785,140.78926861337314L122.04239763554659,140.67217233992062L122.32339716131037,140.80856790828886L122.60439668707414,140.88128141083666L122.87273857654225,141.01984483911036L123.14108046601035,141.11182147414533L123.40942235547845,141.2123649877114L123.67776424494657,141.32154571365453L123.94610613441468,141.29519583388992L124.21444802388278,141.25491857190647L124.48278991335089,141.62222322884583L124.86758205673912,141.86226017993772L125.13592394620721,141.99424621769336L125.40679736293446,142.04674184201096L125.67513925240256,142.09205953334148L125.94348114187068,141.933329650141L126.21182303133878,141.82825999523985L126.48016492080689,141.9474045243664L126.76116444657065,142.29382849506993L127.02950633603876,142.5280314070656L127.29784822550687,142.65320166639714L127.56619011497497,142.70305853554697L127.83453200444308,142.8765204144602L128.11553153020685,143.04126156552363L128.39653105597063,143.12187203903386L128.66487294543873,143.27669839951585L128.93321483490683,143.42331696968668L129.20155672437494,143.74255200341688L129.46989861384304,143.9296343275928L129.73824050331115,143.91455056535597L130.01924002907492,143.77657755237425L130.28758191854303,143.93377027716946L130.55592380801116,144.02424050404602L130.82426569747923,144.0522198508007L131.09260758694737,144.06272226922192L131.4799312575947,143.98933825063472L131.75080467432196,144.02167994887154L132.28495692599904,143.87555031513733L132.55583034272627,143.64951432059115L132.82417223219437,143.46197884863514L133.2089643755826,143.29800699130328L133.47730626505071,143.35962407196308L133.7583057908145,143.29481174328123L134.0266476802826,143.34269599572374L134.2949895697507,143.20608099013273L134.56586298647792,143.15863191914477L134.8468625122417,143.25141462972547L135.11520440170983,143.33656733342798L135.39620392747358,143.50452598184674L135.67720345323735,143.60766210119894L135.94554534270546,143.55401179417862L136.2164187594327,143.67051624361542L136.48476064890082,143.64407370972265L136.75310253836892,143.44566781788097L137.02144442783703,143.45660882942875L137.28978631730513,143.5317227024743L137.55812820677323,143.64096823549156L137.82647009624134,143.75096196513744L138.09481198570944,143.7889611365975L138.36315387517757,143.80954863756983L138.64415340094132,143.78947834945032L138.91249529040942,144.0628393419492L139.18336870713668,144.2060854022116L139.4542421238639,144.16486715009947L139.722584013332,144.21048538738268L139.99092590280014,144.22284025169037L140.25926779226825,144.448601456495L140.540267318032,144.75384464994545L140.8212668437958,145.01863003121554L141.08960873326387,145.3241242763796L141.5427521126487,145.19731885186886L141.8110940021168,145.30570352283544L142.21360683631897,145.20779679003863L142.48194872578708,145.206870627327L142.75029061525518,145.204439722252L143.03129014101896,145.19057918018314L143.29963203048703,145.1947740267422L143.56797391995516,145.12591942693447L143.83631580942327,144.99831337357196L144.10465769889137,144.89329713542966L144.3729995883595,144.8165423085975L144.64134147782758,145.15775742868047L145.0995479117307,145.4879854985311L145.36788980119877,145.67654209890424L145.63623169066688,145.77750086465963L145.904573580135,145.63667580638506L146.17544699686223,145.37486324686304L146.64631106706096,145.23975951050312L146.9146529565291,145.33975985348096L147.1829948459972,145.34490021422067L147.4513367354653,145.53324818102055L147.71967862493344,145.640018433752L147.9880205144015,145.55844546680848L148.25636240386962,145.71973182483706L148.52470429333775,145.91258842564616L148.79304618280585,146.0357585088865L149.06138807227393,145.9320671717228L149.32972996174206,145.85167304374937L149.59807185121016,146.11100254876743L149.86641374067827,146.25778304860765L150.1347556301464,146.49462106774308L150.40309751961448,146.59585109005042L150.67143940908258,146.82296554279978L150.93978129855068,146.89622989172744L151.20812318801882,147.03608697988747L151.48912271378256,147.0178237795827L151.75746460325067,146.958792587436L152.0258064927188,147.12149938824263L152.29667990944603,147.36444912585637L152.56502179891413,147.69626210759122L152.83336368838224,147.7303595413284L153.10170557785034,147.70910152475082L153.37004746731844,147.75032961969808L153.63838935678655,147.6413876644566L153.90673124625468,147.77406418684973L154.18773077201843,147.8417760320556L154.4687302977822,147.6992956985276L154.73707218725033,147.42640935522934L155.01807171301408,147.2962335813625L155.5015934195085,147.18612509943725L155.7699353089766,147.10623292823365L156.22307868836143,147.0731595344197L156.72938414018805,146.979296840954L156.99772602965615,146.80217119302225L157.26606791912428,146.90122515949415L157.53440980859236,146.95728933635795L157.80275169806046,147.18378124007282L158.0710935875286,147.15013504117937L158.35209311329234,147.28885344035012L158.62043500276044,147.49407743826927L158.89130841948767,147.6272895685147L159.1596503089558,147.858397662077L159.44064983471958,148.14599136865036L159.70899172418768,148.2855878885065L159.9773336136558,148.56249765633075L160.2456755031239,148.9843378830969L160.514017392592,149.18821856735846L160.7823592820601,149.63628671738593L161.0507011715282,150.09086629430513L161.3190430609963,150.4522377033869L161.5873849504644,150.70853638125206L161.85572683993254,150.8536647563222L162.12406872940065,151.09537722648662L162.39241061886872,151.03220456541374L162.66075250833686,151.1949514943918L162.92909439780496,151.2783048013305L163.19743628727306,151.14352225128079L163.46577817674117,151.01699262919067L163.73412006620927,150.78705511321735L164.00246195567738,150.65130046786456L164.27080384514548,150.76280479724403L164.5391457346136,150.8586051113284L164.81001915134084,150.8966916672731L165.08089256806807,151.10861499270035L165.34923445753617,151.06487040093205L165.6175763470043,151.04000272315892L165.88844976373153,150.85224626195094L166.1694492894953,150.53963460208809L166.45044881525905,150.35705031168308L166.73144834102285,150.20455981029028L166.99979023049093,150.09820685825397L167.2807897562547,150.04827831377406L167.54913164572284,149.9991397077546L167.81747353519094,149.9737968692873L168.08581542465902,149.9596081859366L168.35415731412715,149.94742823592415L168.62249920359525,150.01004285879952L168.89084109306336,149.86210848188352L169.15918298253146,149.66799315994584L169.42752487199957,149.73429694541485L169.69586676146767,149.8729302657642L169.96420865093577,149.8242455499415L170.2325505404039,149.7561622894565L170.50089242987198,149.60814395336882L170.77176584659924,149.49583396622805L171.052765372363,149.31831384903205L171.32110726183112,149.35842866100225L171.58944915129922,149.57884328460486L171.8577910407673,149.69955557252308L172.12613293023543,149.76777564288267L172.39447481970353,149.6301282594272L172.6754743454673,149.53756857315372" fill="none"></path></g></g></g></g><g opacity="0.2"><g><g><g><path style="fill: none;" stroke="rgb(204, 51, 17)" stroke-width="2px" d="M173.9285803387382,174.57892115923622L175.4753434940685,174.06760388814638L177.00944901310314,85.87266655437398L178.5435545321378,41.77519449431456L180.07766005117244,15.202936124627007L181.61176557020707,-2.5119661277312844L183.14587108924172,22.790716126209375L184.67997660827638,8.556103413354872L186.214082127311,-2.5152642920918784L187.74818764634566,15.473005566796935L189.2822931653803,5.785808222761991L190.81639868441496,-2.2868630169468736L192.3505042034496,11.532717107838835L193.88460972248424,23.378054049907224L195.4187152415189,33.644031734803136L196.95282076055352,42.62675202956743L198.49958391588385,34.68179982950169L200.0336894349185,42.60878178424464L201.56779495395315,49.65615823397675L203.1044320002469,42.607628105353065L204.63853751928156,36.241254732621385L206.17264303831618,32.12999784827916L207.70674855735083,26.787589141625716L209.25351171268116,21.804510691617544L210.7876172317158,28.027033879263396L212.3242542780096,23.489886252578806L213.87101743333992,29.090712244597306L215.40512295237457,24.79868066429262L216.9392284714092,20.802649155832473L218.47333399044385,26.0214784941596L220.0074395094785,30.90361004115549L221.55420266480877,27.031639731617553L223.08830818384342,23.46956114504792L224.63507133917375,27.883875901512518L226.1691768582084,24.484723919818144L227.70328237724303,21.274422386327196L229.23738789627768,18.237654517167545L230.784151051608,15.3153858848229L232.31825657064263,12.66081147340082L233.85236208967729,10.081361916859159L235.38646760871194,14.043108803200443L236.93323076404226,17.85133496080598L238.47999391937256,21.392355514431266L240.01409943840721,18.843770261412278L241.54820495744187,22.366521970472238L243.08231047647652,25.73611262715676L244.61641599551115,23.250531814310307L246.16317915084144,20.84074770463995L247.6972846698761,18.556517790104404L249.23139018891072,21.677069892177673L250.77815334424105,19.43225507765528L252.3122588632757,22.469484418371575" fill="none"></path></g><g><path style="fill: none;" stroke="rgb(255, 112, 67)" stroke-width="2px" d="M8.09076112018932,146.25707566704529L8.824904025337913,121.85940699911566L9.260326713908801,115.44115794604859L9.528668603376909,127.2730710707496L10.16408194541931,119.07176675536402L10.690639615318993,120.81663142905171L11.498196810982444,115.1907807846058L12.229808188871905,115.43286333413552L12.49815007834001,120.19712622331835L13.239887565266002,119.21626164335986L13.50822945473411,124.45345822827541L13.776571344202216,128.37358614860332L14.163895014849576,129.6946816614985L14.561344794533468,129.9518602265684L14.829686684001576,130.23021028381189L16.04735129564459,121.34790649667242L16.796683364347977,117.01278925123415L17.065025253816085,118.25840617094173L18.34850957419656,112.44170480268477L18.920634734760633,112.76275836892901L19.545921967766503,113.05327507286538L19.96362396552346,113.00378564159028L20.588911198529328,111.46832556282861L20.857253087997435,112.37198187955546L21.125594977465543,114.33758265010565L21.39393686693365,115.00308571188053L21.831891082763672,115.85341831160441L22.221746280670164,116.70489441070022L22.83437587738037,115.57991837131867L23.381185765353116,114.71930445676699L23.649527654821224,115.38515022903611L23.917869544289328,115.93929952556209L24.365949869155884,116.92644995889303L24.76593117609891,117.65874933190317L25.034273065567014,118.07430616523297L25.484884917692703,118.26093238839694L25.963343569668854,119.02035169829198L26.426613058090208,118.46967192137372L26.694954947558315,119.24331202019393L27.236701781012798,118.74783917141049L27.5050436704809,119.36747246943254L27.77338555994901,120.4843702116932L28.5303122104298,118.83837921218618L29.1581309706948,118.68017251124674L29.603679768302225,118.70436922941082L29.87202165777033,118.9856853441869L30.140363547238437,119.28393254499011L30.408705436706544,119.54240412112654L30.689704962470316,119.95628981665018L30.95804685193842,120.89205573146796L31.226388741406527,121.99813773412015L31.763072520342742,122.11015910619822L32.36304448075728,121.54942790193718L32.631386370225385,122.58292823303022L33.01871004087275,123.10517576332441L33.40603371152011,123.4804912589643L33.67437560098821,123.74422225357702L34.07688843519038,123.81576306925385L35.34265206475691,122.38621495420476L35.74010184444081,122.20323724053536L36.021101370204576,122.44933730714634L36.28944325967268,122.71603563173161L36.67929845757918,122.82508797725049L36.94764034704728,123.66326538224106L37.489387180501765,123.0616023295418L37.75772906996987,123.29494067170809L38.02607095943798,123.53337895320973L38.977925208872016,123.08903528665537L39.24626709834012,123.8749959974029L39.51714051506736,123.97832999776878L39.91205876749212,124.18073532465488L40.180400656960224,124.33127090925868L40.58038196390326,124.69633732521629L40.995552434401084,124.87894433471243L41.38034457778931,125.39522242503604L42.177775664416224,124.92122412120852L42.658765843651516,124.93034412250505L42.92710773311962,125.02382519616094L43.195449622587724,125.45617993346933L43.46379151205583,125.93343907675211L43.92706100047719,126.02183632864539L44.31438467112454,126.24099968972483L44.58272656059265,126.63749918986453L44.85106845006076,126.75136856890235L45.11941033952886,127.13265520109944L45.38775222899697,127.19290353633173L45.65609411846508,127.6366114070558L46.18012026110563,127.44931079071623L47.23829865542325,126.65422795793894L47.50664054489136,126.7265593829738L48.19015290485729,126.35070606938001L48.66354850231518,126.12083979170137L48.931890391783284,126.43820328207921L49.31668253517151,126.49912049658062L50.41283383837613,125.27097036012074L50.86597721776095,125.07667047574122L51.47354375995289,124.54084431455195L51.74188564942099,124.72572729497901L52.01022753888911,124.79776012077136L53.15447786001726,124.28715711264232L53.56205374873768,124.22082481784359L54.045575455232104,124.21256498595594L54.617700615796174,124.4914388643138L54.88604250526428,124.460246271283L55.27083464865251,125.08762872862452L55.655626792040735,125.2464572285548L55.92396868150884,125.74862056661604L56.341670679265796,126.19672386908765L56.61001256873391,126.15268641886851L56.87835445820202,126.52151586391656L57.356813110178166,126.15796365150413L57.62515499964628,125.80490058577867L58.01501019755276,125.66280467124267L58.296009723316544,125.949621119793L58.56435161278465,125.9258035887352L58.83269350225275,127.44233103342225L59.46304378977689,127.70740233145308L59.731385679244994,127.67828848116037L60.24781724010815,128.8194113594107L60.51615912957625,129.24867830909756L60.784501019044356,129.45761634270715L61.06550054480813,129.8510505349978L61.46295032449202,130.23345415740113L61.93381439469078,129.99899394734211L62.32113806533813,129.8597815938151L62.58947995480624,129.98106823741773L62.85782184427435,129.9814531505038L63.257803151217374,130.12368776099476L63.7109465306022,130.49130011722687L63.99194605636597,131.2487206360276L64.26028794583408,131.25860176848988L64.93873725128174,130.74100585452064L65.20707914074984,130.5949897645599L65.65262793835727,130.6433518140358L65.92096982782537,130.6396063870314L66.48550040661205,130.5908346118903L66.87029255000029,130.632407557992L67.3310305111625,130.83840964848122L67.5993724006306,130.69258824183342L67.8677142900987,131.05534475512798L68.39174043273925,130.8522147736881L68.78159563064575,130.30594315291697L69.06259515640951,131.14957232689017L69.8954676246643,130.60759010120373L70.16380951413242,130.98616113446582L70.59670067544417,130.78385166472293L71.2270509629683,130.53451154184256L71.6169061608748,130.52065912428407L72.02701357685436,130.53261242521134L72.42446335653825,130.33656951016826L73.23455207946084,129.47182610381938L73.63959644092213,129.28094653803606L74.6319551265023,128.72676203733806L74.9002970159704,128.51448427299601L75.59140395771374,128.1787221491776L75.85974584718184,128.15749148854613L76.12808773664995,128.0899151716191L76.39642962611806,128.41134834911628L76.79641093306108,129.4945544262766L77.18120307644932,129.49341007861136L77.44954496591741,129.77094535013768L77.71788685538553,130.15386791596887L77.98622874485362,130.1710240117945L78.25457063432174,130.17065394384122L78.73302928629788,130.73116056245038L79.001371175766,130.69149076237315L79.42666775530034,130.35864358641584L79.84436975305731,130.80202380385174L80.11271164252541,130.4215708318978L80.38105353199352,130.44726457566765L80.66205305775729,130.5157678651011L80.9303949472254,130.48768935678424L81.42151123549722,130.25912669383843L81.68985312496532,130.23450752560967L81.95819501443343,129.9115062779426L82.22653690390153,130.45695547835686L82.50753642966531,130.49640005656224L83.03915715408326,130.67833055214953L83.5176158060594,130.0359617211772L83.79861533182317,129.75728782796543L84.1910020569888,129.84454370122003L84.47200158275257,129.70453501235514L84.86185678065907,129.80674120677517L85.13019867012719,129.75806656121725L85.52258539529281,129.76126971672795L85.80358492105658,129.734537874029L86.67189877093922,128.3416288191602L86.94024066040734,128.81163590299886L87.2212401861711,129.94472056598687L87.4895820756392,129.92730404411736L87.87437421902743,130.1334567066678L88.14271610849553,130.42554826712046L88.5300397791429,130.22780197912573L88.9198949770494,130.033094277741L89.1882368665175,131.70782481812094L89.4565787559856,132.06571117352848L89.84390242663297,132.82408702964293L90.72993696732955,132.28143173623923L90.99827885679765,132.44038801034816L91.48180056329207,133.0254531972333L91.75014245276019,133.3713644147883L92.01848434222828,133.72178554392298L92.42099717643043,133.60940884298776L92.68933906589855,133.61789561984304L92.95768095536664,133.498742195314L93.61587804274126,132.81270637971326L93.88421993220936,132.82846231442454L94.41584065662731,132.53090079970156L94.68418254609541,132.66401784773925L95.07656927126105,132.4682347225201L95.34491116072914,132.80125839650267L95.61325305019726,133.21278489556965L95.88159493966536,133.26149674674167L96.42081024586071,132.5923394494924L96.84610682539507,132.76527140878045L97.11444871486316,132.74695129548866L97.38279060433128,133.39576563128392L97.66379013009505,133.33190629039922L98.12199656399814,133.5620921294432L98.39033845346624,133.28774773968385L98.84854488736933,133.41223466420954L99.23586855801669,133.07957359419328L99.62319222866405,133.0609786338714L99.89153411813216,133.32119613017048L100.15987600760026,133.44141989871505L100.42821789706836,133.60003102680017L101.03831596651943,132.99063094272475L101.30665785598755,132.76429099379592L101.57499974545566,132.97569146380806L101.84334163492376,132.65063480146873L102.11168352439186,132.63275744426255L102.49900719503923,133.07107393388347L102.76734908450734,133.11797084827992L103.03569097397543,133.29221324841095L103.30403286344355,133.64511223565526L103.57237475291166,133.77281428292318L103.8432481696389,133.68535929932497L104.11159005910699,134.12552323921315L104.3799319485751,134.36374578912427L104.66093147433888,134.7002705286218L105.26596648927168,134.72611049694967L105.5343083787398,135.06950556390515L105.8026502682079,135.0822593356001L106.07352368493514,135.90720283488645L106.34186557440323,135.64384742213346L106.62286510016702,136.12754129426332L106.89120698963512,136.37787985836084L107.15954887910323,136.63547811654223L107.440548404867,136.9608567061899L107.7088902943351,136.89555466360724L108.10127701950073,137.14160637749993L108.36961890896885,137.643093625799L108.63796079843694,138.93158922707434L108.90630268790505,138.73855414800903L109.17464457737316,138.97394875314086L109.57209435705704,138.98611455154045L109.98726482755487,138.72442412646723L110.37458849820224,138.51490331535874L110.64293038767035,138.62936480312177L110.91127227713845,139.13088725559288L111.17961416660656,138.83467129310284L111.57200089177219,138.1627572546934L111.8403427812403,138.17624723893837L112.1086846707084,137.76660809968766L112.57701721364802,137.36971159828235L112.84535910311611,137.7975572325406L113.23015124650435,137.9318658145585L113.49849313597245,138.32851715919938L113.76683502544056,138.37536924659665L114.03517691490867,138.44030525061922L114.31617644067245,138.5774636739873L114.58451833014054,138.63107411412656L114.9794365825653,138.8320712741303L115.24777847203342,139.0005919491897L115.51612036150152,139.07627582935655L115.78446225096963,139.40171761685525L116.30848839361016,138.98904794978094L116.7388480276628,138.59890555965112L117.0071899171309,138.96197636561428L117.275531806599,138.93045039331557L117.54387369606712,139.2812922030281L117.8248732218309,139.71190327345292L118.09321511129899,139.33108023354572L118.36408852802623,139.38442600617458L118.63243041749433,139.23611973637006L118.90077230696245,139.2861088124004L119.16911419643054,140.33356908222808L119.43745608589866,140.42783355474896L119.71845561166243,140.02354417721128L119.98679750113054,140.24887081328092L120.25513939059864,140.8588645303586L120.52348128006675,141.2305917453284L120.79182316953485,141.23852328770795L121.23737196714228,141.1826445112775L121.50571385661038,140.7225522795599L121.7740557460785,140.620350750753L122.04239763554659,140.51946153168527L122.32339716131037,140.9864478430733L122.60439668707414,140.97611054088753L122.87273857654225,141.20055198289586L123.14108046601035,141.23177256960565L123.40942235547845,141.3434885560948L123.67776424494657,141.4639334806679L123.94610613441468,141.26083170498038L124.21444802388278,141.20239108277596L124.48278991335089,142.10124266623674L124.86758205673912,142.1753037613157L125.13592394620721,142.16637547430557L125.40679736293446,142.11520387741135L125.67513925240256,142.15116048562967L125.94348114187068,141.72632247527585L126.21182303133878,141.6912336711061L126.48016492080689,142.10278656004752L126.76116444657065,142.74561643842983L127.02950633603876,142.83346654114294L127.29784822550687,142.81644214285257L127.56619011497497,142.76807924508336L127.83453200444308,143.102740284195L128.11553153020685,143.25610832013626L128.39653105597063,143.22699998375L128.66487294543873,143.47861480512134L128.93321483490683,143.6145292063611L129.20155672437494,144.1588815635351L129.46989861384304,144.17361726649497L129.73824050331115,143.89487911506555L130.01924002907492,143.5966403971954L130.28758191854303,144.13877277079638L130.55592380801116,144.14222702112465L130.82426569747923,144.08870904495538L131.09260758694737,144.07641897158695L131.4799312575947,143.89363466879058L131.75080467432196,144.063858292655L132.28495692599904,143.68497572367755L132.55583034272627,143.35473005120608L132.82417223219437,143.21740493820403L133.2089643755826,143.08416350916082L133.47730626505071,143.43998183153323L133.7583057908145,143.2102869091017L134.0266476802826,143.40514412218104L134.2949895697507,143.0279148768504L134.56586298647792,143.09675133347847L134.8468625122417,143.3724169665658L135.11520440170983,143.44761901613674L135.39620392747358,143.72356882748045L135.67720345323735,143.7421668098472L135.94554534270546,143.48404388225813L136.2164187594327,143.82245522606067L136.48476064890082,143.60958874616662L136.75310253836892,143.1869172769077L137.02144442783703,143.4708775219081L137.28978631730513,143.62968226962587L137.55812820677323,143.78344052048638L137.82647009624134,143.8944100088692L138.09481198570944,143.83851765974586L138.36315387517757,143.8363977747826L138.64415340094132,143.76330373406867L138.91249529040942,144.41934238746617L139.18336870713668,144.39289938863675L139.4542421238639,144.1111124710777L139.722584013332,144.26997829591326L139.99092590280014,144.2389528166631L140.25926779226825,144.74302735953515L140.540267318032,145.15192678702596L140.8212668437958,145.36394921508392L141.08960873326387,145.72253382191616L141.5427521126487,145.0319458788894L141.8110940021168,145.4470531167688L142.21360683631897,145.0801119726124L142.48194872578708,145.205662774574L142.75029061525518,145.20126946355973L143.03129014101896,145.17250298937444L143.29963203048703,145.20024472525014L143.56797391995516,145.03612287511152L143.83631580942327,144.8318962625047L144.10465769889137,144.75634047462654L144.3729995883595,144.7164426957242L144.64134147782758,145.60275226270568L145.0995479117307,145.91865159884318L145.36788980119877,145.92244771137243L145.63623169066688,145.90916598313325L145.904573580135,145.45301916356615L146.17544699686223,145.03342106094263L146.64631106706096,145.0635643151581L146.9146529565291,145.47017504731843L147.1829948459972,145.35160400265082L147.4513367354653,145.77888170454298L147.71967862493344,145.77926258823587L147.9880205144015,145.4520622887208L148.25636240386962,145.93007301986972L148.52470429333775,146.16410187278436L148.79304618280585,146.19639046076213L149.06138807227393,145.79683837717292L149.32972996174206,145.74682724551673L149.59807185121016,146.44920646544998L149.86641374067827,146.44920646544998L150.1347556301464,146.80349277011783L150.40309751961448,146.72786996706878L150.67143940908258,147.1191562807172L150.93978129855068,146.9917774066884L151.20812318801882,147.21848124693489L151.48912271378256,146.99400587319442L151.75746460325067,146.8818072078161L152.0258064927188,147.3336930501241L152.29667990944603,147.68129141039407L152.56502179891413,148.12899516672013L152.83336368838224,147.77482762311465L153.10170557785034,147.68137793631095L153.37004746731844,147.8040971352284L153.63838935678655,147.49931128964857L153.90673124625468,147.9470939372518L154.18773077201843,147.93008226336096L154.4687302977822,147.51348033268232L154.73707218725033,147.07052532226436L155.01807171301408,147.1264651758126L155.5015934195085,147.04252740181124L155.7699353089766,147.00204175565017L156.22307868836143,147.03002695170375L156.72938414018805,146.85688604717163L156.99772602965615,146.571173228208L157.26606791912428,147.03040613881004L157.53440980859236,147.0304052905167L157.80275169806046,147.47916008224473L158.0710935875286,147.1062554361709L158.35209311329234,147.46976268903828L158.62043500276044,147.7617197950025L158.89130841948767,147.80101783053988L159.1596503089558,148.15979669653845L159.44064983471958,148.52105597215387L159.70899172418768,148.46764233606083L159.9773336136558,148.9236288281937L160.2456755031239,149.5344797456537L160.514017392592,149.45410904498985L160.7823592820601,150.22063365958766L161.0507011715282,150.68370509738406L161.3190430609963,150.9235193106226L161.5873849504644,151.04278765238496L161.85572683993254,151.04293355883303L162.12406872940065,151.4106059318163L162.39241061886872,150.94981809959054L162.66075250833686,151.40719748932634L162.92909439780496,151.38700980531047L163.19743628727306,150.9677459302482L163.46577817674117,150.85197934323907L163.73412006620927,150.48718268455167L164.00246195567738,150.4742563912063L164.27080384514548,150.90822288578966L164.5391457346136,150.98354284812967L164.81001915134084,150.94636215267565L165.08089256806807,151.38499426042344L165.34923445753617,151.00782100245078L165.6175763470043,151.0075716042198L165.88844976373153,150.60738414894695L166.1694492894953,150.13194289821166L166.45044881525905,150.11893347212262L166.73144834102285,150.00568970939548L166.99979023049093,149.95950692541402L167.2807897562547,149.9831641290376L167.54913164572284,149.93505571925917L167.81747353519094,149.94074607073318L168.08581542465902,149.94110405050688L168.35415731412715,149.9315437849863L168.62249920359525,150.09170156052178L168.89084109306336,149.66918023917742L169.15918298253146,149.41483815483815L169.42752487199957,149.82076685918318L169.69586676146767,150.0537285591231L169.96420865093577,149.76075350119572L170.2325505404039,149.6673716778562L170.50089242987198,149.41510621552177L170.77176584659924,149.349365181155L171.052765372363,149.0868014381267L171.32110726183112,149.4107442913597L171.58944915129922,149.86629645732162L171.8577910407673,149.8569821968588L172.12613293023543,149.8567446747341L172.39447481970353,149.45061577316966L172.6754743454673,149.4168570928984" fill="none"></path></g></g></g></g></g></g><g transform="translate(51, 177)" clip-path="url(#clip_1)"><clipPath id="clip_1"><rect width="278" height="22"></rect></clipPath><g><g><line x1="0" y1="0" x2="0" y2="5" style="visibility: inherit;" fill="rgb(0, 0, 0)" stroke="rgb(204, 204, 204)" stroke-width="1px"></line><line x1="25.31527259133079" y1="0" x2="25.31527259133079" y2="5" style="visibility: inherit;" fill="rgb(0, 0, 0)" stroke="rgb(204, 204, 204)" stroke-width="1px"></line><line x1="50.63054518266158" y1="0" x2="50.63054518266158" y2="5" style="visibility: inherit;" fill="rgb(0, 0, 0)" stroke="rgb(204, 204, 204)" stroke-width="1px"></line><line x1="75.94581777399236" y1="0" x2="75.94581777399236" y2="5" style="visibility: inherit;" fill="rgb(0, 0, 0)" stroke="rgb(204, 204, 204)" stroke-width="1px"></line><line x1="101.26109036532316" y1="0" x2="101.26109036532316" y2="5" style="visibility: inherit;" fill="rgb(0, 0, 0)" stroke="rgb(204, 204, 204)" stroke-width="1px"></line><line x1="126.57636295665394" y1="0" x2="126.57636295665394" y2="5" style="visibility: inherit;" fill="rgb(0, 0, 0)" stroke="rgb(204, 204, 204)" stroke-width="1px"></line><line x1="151.89163554798472" y1="0" x2="151.89163554798472" y2="5" style="visibility: inherit;" fill="rgb(0, 0, 0)" stroke="rgb(204, 204, 204)" stroke-width="1px"></line><line x1="177.20690813931552" y1="0" x2="177.20690813931552" y2="5" style="visibility: inherit;" fill="rgb(0, 0, 0)" stroke="rgb(204, 204, 204)" stroke-width="1px"></line><line x1="202.5221807306463" y1="0" x2="202.5221807306463" y2="5" style="visibility: inherit;" fill="rgb(0, 0, 0)" stroke="rgb(204, 204, 204)" stroke-width="1px"></line><line x1="227.8374533219771" y1="0" x2="227.8374533219771" y2="5" style="visibility: inherit;" fill="rgb(0, 0, 0)" stroke="rgb(204, 204, 204)" stroke-width="1px"></line><line x1="253.15272591330788" y1="0" x2="253.15272591330788" y2="5" style="visibility: inherit;" fill="rgb(0, 0, 0)" stroke="rgb(204, 204, 204)" stroke-width="1px"></line><line x1="278.4679985046387" y1="0" x2="278.4679985046387" y2="5" style="visibility: inherit;" fill="rgb(0, 0, 0)" stroke="rgb(204, 204, 204)" stroke-width="1px"></line></g><g transform="translate(0, 8)"><text style="text-anchor: middle; visibility: hidden; font-family: Roboto, sans-serif; font-size: 12px; font-weight: 200;" x="0" y="0" dx="0em" dy="0.95em" fill="rgb(50, 49, 63)" stroke="none" stroke-width="1px">20k</text><text style="text-anchor: middle; visibility: inherit; font-family: Roboto, sans-serif; font-size: 12px; font-weight: 200;" x="25.31527259133079" y="0" dx="0em" dy="0.95em" fill="rgb(50, 49, 63)" stroke="none" stroke-width="1px">30k</text><text style="text-anchor: middle; visibility: hidden; font-family: Roboto, sans-serif; font-size: 12px; font-weight: 200;" x="50.63054518266158" y="0" dx="0em" dy="0.95em" fill="rgb(50, 49, 63)" stroke="none" stroke-width="1px">40k</text><text style="text-anchor: middle; visibility: inherit; font-family: Roboto, sans-serif; font-size: 12px; font-weight: 200;" x="75.94581777399236" y="0" dx="0em" dy="0.95em" fill="rgb(50, 49, 63)" stroke="none" stroke-width="1px">50k</text><text style="text-anchor: middle; visibility: hidden; font-family: Roboto, sans-serif; font-size: 12px; font-weight: 200;" x="101.26109036532316" y="0" dx="0em" dy="0.95em" fill="rgb(50, 49, 63)" stroke="none" stroke-width="1px">60k</text><text style="text-anchor: middle; visibility: inherit; font-family: Roboto, sans-serif; font-size: 12px; font-weight: 200;" x="126.57636295665394" y="0" dx="0em" dy="0.95em" fill="rgb(50, 49, 63)" stroke="none" stroke-width="1px">70k</text><text style="text-anchor: middle; visibility: hidden; font-family: Roboto, sans-serif; font-size: 12px; font-weight: 200;" x="151.89163554798472" y="0" dx="0em" dy="0.95em" fill="rgb(50, 49, 63)" stroke="none" stroke-width="1px">80k</text><text style="text-anchor: middle; visibility: inherit; font-family: Roboto, sans-serif; font-size: 12px; font-weight: 200;" x="177.20690813931552" y="0" dx="0em" dy="0.95em" fill="rgb(50, 49, 63)" stroke="none" stroke-width="1px">90k</text><text style="text-anchor: middle; visibility: hidden; font-family: Roboto, sans-serif; font-size: 12px; font-weight: 200;" x="202.5221807306463" y="0" dx="0em" dy="0.95em" fill="rgb(50, 49, 63)" stroke="none" stroke-width="1px">100k</text><text style="text-anchor: middle; visibility: inherit; font-family: Roboto, sans-serif; font-size: 12px; font-weight: 200;" x="227.8374533219771" y="0" dx="0em" dy="0.95em" fill="rgb(50, 49, 63)" stroke="none" stroke-width="1px">110k</text><text style="text-anchor: middle; visibility: hidden; font-family: Roboto, sans-serif; font-size: 12px; font-weight: 200;" x="253.15272591330788" y="0" dx="0em" dy="0.95em" fill="rgb(50, 49, 63)" stroke="none" stroke-width="1px">120k</text><text style="text-anchor: middle; visibility: hidden; font-family: Roboto, sans-serif; font-size: 12px; font-weight: 200;" x="278.4679985046387" y="0" dx="0em" dy="0.95em" fill="rgb(50, 49, 63)" stroke="none" stroke-width="1px">130k</text></g><line x1="0" y1="0" x2="278.4679985046387" y2="0" fill="rgb(0, 0, 0)" stroke="rgb(204, 204, 204)" stroke-width="1px"></line></g></g></g></g></svg>