<svg viewBox="0 0 330 200" xmlns="http://www.w3.org/2000/svg"><g><g><g><g><g><line x1="72.29800224304199" y1="177.89999961853027" x2="67.29800224304199" y2="177.89999961853027" style="visibility: inherit;" fill="rgb(0, 0, 0)" stroke="rgb(204, 204, 204)" stroke-width="1px"></line><line x1="72.29800224304199" y1="158.13333299424912" x2="67.29800224304199" y2="158.13333299424912" style="visibility: inherit;" fill="rgb(0, 0, 0)" stroke="rgb(204, 204, 204)" stroke-width="1px"></line><line x1="72.29800224304199" y1="138.366666369968" x2="67.29800224304199" y2="138.366666369968" style="visibility: inherit;" fill="rgb(0, 0, 0)" stroke="rgb(204, 204, 204)" stroke-width="1px"></line><line x1="72.29800224304199" y1="118.59999974568686" x2="67.29800224304199" y2="118.59999974568686" style="visibility: inherit;" fill="rgb(0, 0, 0)" stroke="rgb(204, 204, 204)" stroke-width="1px"></line><line x1="72.29800224304199" y1="98.83333312140572" x2="67.29800224304199" y2="98.83333312140572" style="visibility: inherit;" fill="rgb(0, 0, 0)" stroke="rgb(204, 204, 204)" stroke-width="1px"></line><line x1="72.29800224304199" y1="79.06666649712456" x2="67.29800224304199" y2="79.06666649712456" style="visibility: inherit;" fill="rgb(0, 0, 0)" stroke="rgb(204, 204, 204)" stroke-width="1px"></line><line x1="72.29800224304199" y1="59.29999987284343" x2="67.29800224304199" y2="59.29999987284343" style="visibility: inherit;" fill="rgb(0, 0, 0)" stroke="rgb(204, 204, 204)" stroke-width="1px"></line><line x1="72.29800224304199" y1="39.53333324856228" x2="67.29800224304199" y2="39.53333324856228" style="visibility: inherit;" fill="rgb(0, 0, 0)" stroke="rgb(204, 204, 204)" stroke-width="1px"></line><line x1="72.29800224304199" y1="19.76666662428115" x2="67.29800224304199" y2="19.76666662428115" style="visibility: inherit;" fill="rgb(0, 0, 0)" stroke="rgb(204, 204, 204)" stroke-width="1px"></line><line x1="72.29800224304199" y1="0" x2="67.29800224304199" y2="0" style="visibility: inherit;" fill="rgb(0, 0, 0)" stroke="rgb(204, 204, 204)" stroke-width="1px"></line></g><g transform="translate(62.29800224304199, 0)"><text style="text-anchor: end; visibility: hidden; font-family: Roboto, sans-serif; font-size: 12px; font-weight: 200;" x="0" y="177.89999961853027" dx="0em" dy="0.3em" fill="rgb(50, 49, 63)" stroke="none" stroke-width="1px">-500</text><text style="text-anchor: end; visibility: inherit; font-family: Roboto, sans-serif; font-size: 12px; font-weight: 200;" x="0" y="158.13333299424912" dx="0em" dy="0.3em" fill="rgb(50, 49, 63)" stroke="none" stroke-width="1px">0</text><text style="text-anchor: end; visibility: hidden; font-family: Roboto, sans-serif; font-size: 12px; font-weight: 200;" x="0" y="138.366666369968" dx="0em" dy="0.3em" fill="rgb(50, 49, 63)" stroke="none" stroke-width="1px">500</text><text style="text-anchor: end; visibility: inherit; font-family: Roboto, sans-serif; font-size: 12px; font-weight: 200;" x="0" y="118.59999974568686" dx="0em" dy="0.3em" fill="rgb(50, 49, 63)" stroke="none" stroke-width="1px">1e+3</text><text style="text-anchor: end; visibility: hidden; font-family: Roboto, sans-serif; font-size: 12px; font-weight: 200;" x="0" y="98.83333312140572" dx="0em" dy="0.3em" fill="rgb(50, 49, 63)" stroke="none" stroke-width="1px">1.5e+3</text><text style="text-anchor: end; visibility: inherit; font-family: Roboto, sans-serif; font-size: 12px; font-weight: 200;" x="0" y="79.06666649712456" dx="0em" dy="0.3em" fill="rgb(50, 49, 63)" stroke="none" stroke-width="1px">2e+3</text><text style="text-anchor: end; visibility: hidden; font-family: Roboto, sans-serif; font-size: 12px; font-weight: 200;" x="0" y="59.29999987284343" dx="0em" dy="0.3em" fill="rgb(50, 49, 63)" stroke="none" stroke-width="1px">2.5e+3</text><text style="text-anchor: end; visibility: inherit; font-family: Roboto, sans-serif; font-size: 12px; font-weight: 200;" x="0" y="39.53333324856228" dx="0em" dy="0.3em" fill="rgb(50, 49, 63)" stroke="none" stroke-width="1px">3e+3</text><text style="text-anchor: end; visibility: hidden; font-family: Roboto, sans-serif; font-size: 12px; font-weight: 200;" x="0" y="19.76666662428115" dx="0em" dy="0.3em" fill="rgb(50, 49, 63)" stroke="none" stroke-width="1px">3.5e+3</text><text style="text-anchor: end; visibility: hidden; font-family: Roboto, sans-serif; font-size: 12px; font-weight: 200;" x="0" y="0" dx="0em" dy="0.3em" fill="rgb(50, 49, 63)" stroke="none" stroke-width="1px">4e+3</text></g><line x1="72.29800224304199" y1="0" x2="72.29800224304199" y2="177.89999961853027" fill="rgb(0, 0, 0)" stroke="rgb(204, 204, 204)" stroke-width="1px"></line></g></g><g transform="translate(72, 0)" clip-path="url(#clip_0)"><clipPath id="clip_0"><rect width="257" height="177"></rect></clipPath><g><g><g><line x1="0" y1="0" x2="0" y2="177.89999961853027" fill="rgb(0, 0, 0)" stroke="rgb(60, 60, 60)" stroke-width="1px" opacity="0.25"></line><line x1="21.4751664797465" y1="0" x2="21.4751664797465" y2="177.89999961853027" fill="rgb(0, 0, 0)" stroke="rgb(60, 60, 60)" stroke-width="1px" opacity="0.25"></line><line x1="42.950332959493" y1="0" x2="42.950332959493" y2="177.89999961853027" fill="rgb(0, 0, 0)" stroke="rgb(60, 60, 60)" stroke-width="1px" opacity="0.25"></line><line x1="64.4254994392395" y1="0" x2="64.4254994392395" y2="177.89999961853027" fill="rgb(0, 0, 0)" stroke="rgb(60, 60, 60)" stroke-width="1px" opacity="0.25"></line><line x1="85.900665918986" y1="0" x2="85.900665918986" y2="177.89999961853027" fill="rgb(0, 0, 0)" stroke="rgb(60, 60, 60)" stroke-width="1px" opacity="0.25"></line><line x1="107.37583239873251" y1="0" x2="107.37583239873251" y2="177.89999961853027" fill="rgb(0, 0, 0)" stroke="rgb(60, 60, 60)" stroke-width="1px" opacity="0.25"></line><line x1="128.850998878479" y1="0" x2="128.850998878479" y2="177.89999961853027" fill="rgb(0, 0, 0)" stroke="rgb(60, 60, 60)" stroke-width="1px" opacity="0.25"></line><line x1="150.32616535822552" y1="0" x2="150.32616535822552" y2="177.89999961853027" fill="rgb(0, 0, 0)" stroke="rgb(60, 60, 60)" stroke-width="1px" opacity="0.25"></line><line x1="171.801331837972" y1="0" x2="171.801331837972" y2="177.89999961853027" fill="rgb(0, 0, 0)" stroke="rgb(60, 60, 60)" stroke-width="1px" opacity="0.25"></line><line x1="193.2764983177185" y1="0" x2="193.2764983177185" y2="177.89999961853027" fill="rgb(0, 0, 0)" stroke="rgb(60, 60, 60)" stroke-width="1px" opacity="0.25"></line><line x1="214.75166479746503" y1="0" x2="214.75166479746503" y2="177.89999961853027" fill="rgb(0, 0, 0)" stroke="rgb(60, 60, 60)" stroke-width="1px" opacity="0.25"></line><line x1="236.2268312772115" y1="0" x2="236.2268312772115" y2="177.89999961853027" fill="rgb(0, 0, 0)" stroke="rgb(60, 60, 60)" stroke-width="1px" opacity="0.25"></line><line x1="257.701997756958" y1="0" x2="257.701997756958" y2="177.89999961853027" fill="rgb(0, 0, 0)" stroke="rgb(60, 60, 60)" stroke-width="1px" opacity="0.25"></line></g><g><line x1="0" y1="177.89999961853027" x2="257.701997756958" y2="177.89999961853027" fill="rgb(0, 0, 0)" stroke="rgb(60, 60, 60)" stroke-width="1px" opacity="0.25"></line><line x1="0" y1="158.13333299424912" x2="257.701997756958" y2="158.13333299424912" fill="rgb(0, 0, 0)" stroke="rgb(60, 60, 60)" stroke-width="1px" opacity="0.25"></line><line x1="0" y1="138.366666369968" x2="257.701997756958" y2="138.366666369968" fill="rgb(0, 0, 0)" stroke="rgb(60, 60, 60)" stroke-width="1px" opacity="0.25"></line><line x1="0" y1="118.59999974568686" x2="257.701997756958" y2="118.59999974568686" fill="rgb(0, 0, 0)" stroke="rgb(60, 60, 60)" stroke-width="1px" opacity="0.25"></line><line x1="0" y1="98.83333312140572" x2="257.701997756958" y2="98.83333312140572" fill="rgb(0, 0, 0)" stroke="rgb(60, 60, 60)" stroke-width="1px" opacity="0.25"></line><line x1="0" y1="79.06666649712456" x2="257.701997756958" y2="79.06666649712456" fill="rgb(0, 0, 0)" stroke="rgb(60, 60, 60)" stroke-width="1px" opacity="0.25"></line><line x1="0" y1="59.29999987284343" x2="257.701997756958" y2="59.29999987284343" fill="rgb(0, 0, 0)" stroke="rgb(60, 60, 60)" stroke-width="1px" opacity="0.25"></line><line x1="0" y1="39.53333324856228" x2="257.701997756958" y2="39.53333324856228" fill="rgb(0, 0, 0)" stroke="rgb(60, 60, 60)" stroke-width="1px" opacity="0.25"></line><line x1="0" y1="19.76666662428115" x2="257.701997756958" y2="19.76666662428115" fill="rgb(0, 0, 0)" stroke="rgb(60, 60, 60)" stroke-width="1px" opacity="0.25"></line><line x1="0" y1="0" x2="257.701997756958" y2="0" fill="rgb(0, 0, 0)" stroke="rgb(60, 60, 60)" stroke-width="1px" opacity="0.25"></line></g></g></g><g><g><line x1="0" y1="158.13333299424912" x2="257.701997756958" y2="158.13333299424912" fill="rgb(0, 0, 0)" stroke="rgb(153, 153, 153)" stroke-width="1.5px"></line></g></g><g><g><line x1="-42.950332959493" y1="0" x2="-42.950332959493" y2="177.89999961853027" fill="rgb(0, 0, 0)" stroke="rgb(153, 153, 153)" stroke-width="1.5px"></line></g></g><g><g><g><g><g><path style="fill: none;" stroke="rgb(204, 51, 17)" stroke-width="2px" d="M147.54513129909833,123.83941146947805L148.85726397101084,138.2735103434547L150.1586590596835,33.6970841410627L151.4600541483561,-10.198980149618247L154.0628443257014,-54.6831624429005L155.36423941437403,22.427315770145213L156.66563450304668,-28.14684036307424L157.9670295917193,-33.051932868053456L159.26842468039195,33.32343381066025L160.5698197690646,-0.12024418586006443L161.87121485773721,-16.321546571017038L163.17260994640986,39.06155120679541L164.47400503508248,76.76930612581056L165.77540012375513,99.21551182494304L167.07679521242778,112.75054754417819L168.3889278843403,50.32578362080969L169.69032297301294,84.04354923652949L170.99171806168556,105.0204518346294L172.29526066700618,50.40605933908404L173.5966557556788,20.08434768590413L174.89805084435145,24.318108588063588L176.1994459330241,9.629431649534688L177.5115786049366,-0.6274999623814307L178.81297369360925,44.737785225515395L180.11651629892984,7.69102438762098L181.42864897084237,53.374467526443354L182.730044059515,9.147709460211834L184.03143914818764,-4.405344934389572L185.33283423686026,45.50242957164878L186.6342293255329,75.88696992272611L187.94636199744542,32.29485107777554L189.24775708611804,15.167003626866656L190.55988975803058,57.67043677444524L191.8612848467032,29.747838509129693L193.16267993537585,19.924434640329096L194.4640750240485,12.722410425480339L195.776207695961,15.829995715397294L197.07760278463365,18.795832044814993L198.37899787330628,22.808218198412707L199.68039296197892,52.43776654981872L200.9925256338914,76.23064469886103L202.30465830580394,92.76415923627425L203.6060533944766,58.29048510697141L204.9074484831492,80.59597190291994L206.20884357182186,101.28683751685125L207.51023866049448,52.16574218818552L208.822371332407,35.630101911326776L210.12376642107964,15.665015768152577L211.42516150975226,54.40950264919421L212.7372941816648,28.95454684470383L214.03868927033741,58.460688451746236L215.34008435901006,85.63461042036586L216.6414794476827,42.026839865981415L217.94287453635533,29.842044404453482L219.24426962502798,26.557436363701335L220.5456647137006,37.28801342608078L221.84705980237325,62.56678036529758L223.1484548910459,47.01092293194189L224.44984997971852,44.761175663771226L225.75339258503917,37.15914995299398L227.06552525695164,57.129728695930055L228.3669203456243,81.10480020308506L229.66831543429691,51.166672050075725L230.96971052296956,72.16270019517381L232.2711056116422,90.41666069640581L233.57250070031483,106.49660973191824L234.87604330563545,51.760120656844684L236.1774383943081,37.744803525597526L237.47883348298075,65.15748072863043L238.79096615489323,47.6768893953376" fill="none"></path></g><g><path style="fill: none;" stroke="rgb(255, 112, 67)" stroke-width="2px" d="M6.863463206926982,120.60861833675739L7.48624303483963,111.96399231261007L7.85561589829127,107.14910537966242L8.083252662976584,52.5927043101504L8.62227934161822,69.92322207034549L9.068962804396948,83.92968557011422L9.754020615100861,99.83282316732284L10.374652926365535,106.0516030604632L10.602289691050848,68.48815093528113L11.23151206890742,86.95300012380106L11.459148833592733,13.60918412829319L11.686785598278046,67.63604760882774L12.015355645418166,92.94792585608796L12.352515759150188,103.40668140763609L12.580152523835501,114.8497780505208L13.613108031511306,13.573343956872606L14.248772959311804,19.705548441287295L14.476409723997117,30.915268576277292L15.565200664520264,51.73774440463627L16.050539426962537,73.79624746550158L16.580976039012274,92.44262602259624L16.935316285928092,101.06183730966796L17.46575289797783,87.85248978657688L17.693389662663144,82.5664977387467L17.921026427348455,70.53900590110982L18.14866319203377,92.550190623579L18.52018357213338,100.09161660654638L18.85090113592148,102.47750992861957L19.370600164731346,87.81094800324426L19.83446376069387,98.46643937648966L20.062100525379183,98.69926684005058L20.289737290064494,95.57552884647518L20.669847736756008,109.09523199778398L21.009155367136003,116.10819664938782L21.236792131821314,107.00488654539024L21.6190500951608,111.73364620351587L22.024930741628012,113.49982273758337L22.417926288207372,93.09185534911872L22.645563052892683,87.32080114346506L23.105131615559262,91.78186859586124L23.332768380244573,78.81582153890578L23.560405144929888,67.4185806025607L24.202512622674305,62.90940568837943L24.73509675137202,82.51206653006676L25.113059681415557,90.86979092071017L25.340696446100868,91.83655003887904L25.568333210786182,98.03256644192011L25.795969975471497,94.46780235048064L26.034344323396684,102.43300948937262L26.261981088081995,88.81009681325185L26.48961785276731,85.67719279712566L26.944891382137936,97.72775002559833L27.453852827707927,92.22386688017751L27.681489592393238,72.35931534548538L28.010059639533363,92.50736434943258L28.33862968667348,105.93839770887615L28.566266451358796,111.32211479733152L28.907721598386765,114.18396793042561L29.98147992237409,88.11456306647653L30.31864003610611,94.22563488011117L30.557014384031294,76.37885186207846L30.78465114871661,73.67545198852204L31.115368712504704,84.28056049845623L31.343005477190015,72.67361192224638L31.80257403985659,73.19121875006078L32.0302108045419,77.69588343671437L32.25784756922722,83.99960717913613L33.06531382886568,89.70791777462577L33.292950593551005,77.80579801569684L33.522734874884286,95.31820866118568L33.85774747196833,110.44773196076842L34.085384236653645,111.56018000382187L34.42469186703364,96.74934122612524L34.77688459730148,100.88152557156535L35.103307127793634,100.6540324769513L35.779774871905644,101.44294477575058L36.18780303502083,109.83531586689061L36.41543979970614,113.46233939536286L36.64307656439145,111.05857824882953L36.87071332907677,115.99868287209367L37.26370887565613,121.23336329580567L37.592278922796254,122.60868681911808L37.81991568748156,114.81206053167135L38.047552452166876,116.35915919084191L38.27518921685218,111.02083202445613L38.502825981537505,110.09320297234977L38.73046274622281,106.730735631738L39.17499869235356,108.86997481155669L40.07266065120697,71.96054265915734L40.30029741589229,92.35275380384782L40.88012691084543,97.77187945384574L41.2817125240167,95.22441905224267L41.50934928870201,104.488552439831L41.83577181919416,107.8232477310587L42.76564652776718,65.25844911919559L43.15005200775464,76.25039093819808L43.66545600326856,74.93319681153996L43.893092767953874,63.492503841455516L44.12072953263918,72.31083395676603L45.091407057523725,87.50754954377408L45.43715723784765,99.14236779357697L45.84733291761081,104.22920670975968L46.332671680053075,94.17925112597543L46.56030844473839,101.10391868542632L46.886730975230535,99.59263125798621L47.21315350572268,108.78761571019953L47.440790270407994,101.46304277299592L47.79513051732381,100.50268205343961L48.02276728200912,90.44092682368624L48.250404046694435,83.66882007412913L48.656284693161645,97.86223849175761L48.88392145784696,99.54788700489775L49.21463902163506,104.97327893860337L49.45301336956024,107.63763940282813L49.68065013424555,106.29437342204625L49.90828689893086,106.81879350194835L50.443018544276555,87.99823705902007L50.67065530896187,67.54255913088072L51.1087487051487,90.59101488126453L51.336385469834006,72.62598127239202L51.56402223451932,80.80317123569169L51.80239658244451,101.16697797675009L52.13955669617653,106.46507171721359L52.53899479269982,102.43694919113828L52.867564839839936,105.85463393446648L53.09520160452525,90.71886360963374L53.32283836921056,96.7728731726438L53.66214599959056,89.01618502211096L54.046551479578014,96.77852655829197L54.28492582750321,88.97637800736852L54.512562592188516,102.21817506396808L55.08809705384572,97.22337851284915L55.31573381853104,107.19867089615856L55.69369674857458,115.77688745665165L55.92133351325989,121.14939675444298L56.40022972575823,114.61252772514061L56.726652256250375,116.4704450500479L57.117500286181766,117.17729078278103L57.34513705086708,120.70176513634571L57.57277381555239,76.7612399709383L58.017309761683144,94.37180108599259L58.348027325471236,102.57085357715862L58.58640167339643,82.00427437455458L59.29293465058009,80.19396260189788L59.5205714152654,80.36969961111879L59.887796762069065,94.21159878914948L60.42252840741475,92.30450425211069L60.753245971202844,92.87316238624047L61.10114366817474,108.48090094166469L61.43830378190676,119.41745831796784L62.12550910925866,108.69601688725567L62.469111772934596,104.10378580417836L63.31093829894066,88.77769266956862L63.53857506362597,67.55660294089093L64.12484710852304,85.58478937626572L64.35248387320837,76.90639002278384L64.58012063789367,84.45405650639175L64.80775740257899,80.99926844167001L65.14706503295899,97.38017721691249L65.47348756345113,98.97090818657122L65.70112432813644,68.17509796600558L65.92876109282176,55.95503970436305L66.15639785750706,79.03239214310835L66.38403462219239,104.16302992330472L66.78991526865958,110.47211915156758L67.0175520333449,107.44036884083872L67.37833483020465,84.45906166527425L67.73267507712046,109.98233566064877L67.96031184180578,113.98553858351055L68.18794860649109,124.32016435830351L68.42632295441628,132.07956078988923L68.6539597191016,129.144106638751L69.07057794880868,119.58160934546024L69.29821471349399,110.96485468334201L69.52585147817929,111.00951106759759L69.7534882428646,104.07672024510556L69.9918625907898,105.08823545080824L70.44284108686446,110.02593822705273L70.84872173333167,107.0542706932847L71.08709608125686,115.01934755934774L71.41996116169294,110.61867745029714L71.65833550961813,109.8274586295995L71.98905307340621,114.12774207629084L72.21668983809153,108.98076504824475L72.5495549185276,106.59458697769821L72.78792926645278,109.43680408453908L73.52452747670809,54.01153965018478L73.75216424139342,85.27014224772016L73.9905385893186,71.40879628177973L74.2181753540039,75.15944602008929L74.54459788449606,91.29498295244183L74.77223464918137,80.61429698819776L75.10080469632149,100.65063927872727L75.43152226010959,102.08280240036163L75.65915902479489,80.36942984973948L75.8867957894802,97.05468275304803L76.21536583662034,112.37900541951258L76.96699666341146,93.47712106043264L77.19463342809676,88.83021145927616L77.60480910785992,100.85193663850525L77.83244587254524,102.29203471903357L78.06008263723055,101.28732510781605L78.40153778425854,101.49772201186781L78.62917454894384,111.66938688894342L78.85681131362915,113.61671343965966L79.41516564210255,87.43631619305614L79.64280240678787,91.4893916406106L80.09378090286255,112.72787089550908L80.32141766754786,111.44938661328013L80.65428274798393,115.6629902845648L80.88191951266926,121.03435294510611L81.10955627735456,105.16280318816911L81.33719304203987,104.07582915901669L81.79461408805848,73.59861521889027L82.1553968849182,92.75326439171752L82.38303364960352,104.63296516086027L82.61067041428883,117.09978254611889L82.84904476221402,109.44116307646765L83.23774527549745,113.6751436674113L83.46538204018276,114.38270260533469L83.85408255346617,121.35793445143794L84.18265260060627,116.10043267439976L84.51122264774641,109.73075394905553L84.73885941243171,119.5972822769451L84.96649617711702,120.45144273506212L85.19413294180234,126.09810867665756L85.71168445396424,95.18871789849182L85.93932121864955,104.94920291191137L86.16695798333485,96.64417908704787L86.39459474802017,104.96696323690553L86.62223151270548,103.04348563618375L86.9508015598456,91.68758692965763L87.17843832453092,94.71135595613224L87.40607508921623,88.31014095408653L87.63371185390154,95.07647744118218L87.86134861858685,102.58216140287347L88.09113289992014,109.37695697679779L88.31876966460545,124.33575974866467L88.54640642929077,123.08803897439603L88.78478077721597,99.3685053156016L89.2980372560819,106.08940927461514L89.52567402076721,95.06736107683595L89.75331078545253,94.0846497730481L89.98309506678582,104.38991739775209L90.21073183147114,111.82403868766548L90.44910617939631,114.08427395493823L90.67674294408162,112.05080820525248L90.90437970876694,122.83740212569131L91.14275405669213,116.18546307233959L91.37039082137743,110.47668054895952L91.7032559018135,113.33723997653097L91.93089266649882,125.56388724546503L92.15852943118414,133.91691451984647L92.38616619586944,131.54156466333637L92.61380296055476,132.13037925357523L92.95096307428679,106.4861793688033L93.30315580455462,102.90983544451673L93.63172585169474,109.20949376259044L93.85936261638007,95.11879367456676L94.08699938106537,106.93101723063864L94.31463614575068,111.42900297139663L94.64750122618676,110.04849298905172L94.87513799087206,110.44061072424141L95.10277475555738,119.34198759351733L95.50006533543268,104.92651686942533L95.727702100118,93.04618167171617L96.05412463061016,96.44905247386836L96.28176139529546,71.10311055099619L96.50939815998078,89.98636249214098L96.73703492466609,100.79369380117765L96.97540927259128,98.67055669034319L97.20304603727658,105.82885064599581L97.53805863436064,115.61975757075358L97.76569539904595,111.03513105467637L97.99333216373125,103.78008968919373L98.22096892841657,115.27772705596776L98.66550487454732,83.90819924884543L99.03058270470301,100.46080588227382L99.25821946938832,106.55891731683994L99.48585623407364,105.30288552600923L99.71349299875895,96.55248194717387L99.95186734668414,111.34383682069968L100.17950411136945,113.09083994890136L100.40928839270273,116.09730464063371L100.63692515738805,122.74081627732677L100.86456192207338,122.02057548785888L101.09219868675868,120.02726875678354L101.31983545144399,106.46533336119101L101.55820979936918,98.69113753972387L101.7858465640545,112.4339075269042L102.0134833287398,103.08685787724885L102.24112009342511,116.22617151567987L102.46875685811042,122.59400769026996L102.84671978815398,100.54501978415504L103.07435655283929,92.30611967952461L103.30199331752459,72.56851063805296L103.5296300822099,90.97157619974674L103.7680044301351,90.52032272937632L104.00637877806028,100.34868106169654L104.23401554274558,109.57607535896037L104.4616523074309,99.80298058831086L104.68928907211621,80.6330280090106L104.91692583680154,93.4549686130489L105.14456260148684,107.62056967383266L105.37219936617215,110.75622408808033L105.59983613085747,87.62992269520066L105.92625866134962,100.04660939098473L106.15389542603492,104.91246176555886L106.38367970736822,111.77302763172236L106.61131647205353,110.44427978679425L106.83895323673885,110.88526603811974L107.06659000142415,106.00360613328344L107.29422676610946,119.53436560756109L107.53260111403465,124.637708744882L107.76023787871998,123.68005197476108L107.98787464340528,123.57966873849462L108.21551140809059,120.02551639211732L108.4431481727759,114.17424709512972L108.6815225207011,120.71631316953456L108.91989686862628,116.83349075246974L109.14753363331158,81.40968927749117L109.3751703979969,98.2994190854517L109.60280716268221,86.77228736823795L109.83044392736754,101.3430496118222L110.05808069205284,106.66513141680443L110.29645503997803,109.55560883052111L110.52409180466334,107.75099791654787L110.75172856934866,106.3114700603352L110.97936533403396,115.34711425962524L111.20700209871927,110.25972619886859L111.5355721458594,93.72320885031277L111.76535642719269,96.20047478503456L112.21848243991533,93.99627993646354L112.44826672124863,102.21561559149583L112.67590348593393,112.54171789742695L113.00232601642608,115.28087262824116L113.2299627811114,122.4526484919848L113.4683371290366,113.90133681448722L113.6959738937219,103.52416763173848L113.92361065840721,107.21613277074343L114.15339493974051,112.26082138583952L114.3917692876657,115.71017504389998L114.619406052351,114.30814769702683L114.85778040027618,128.09844594543557L115.09615474820137,123.34468299818151L115.32379151288669,112.69802320878216L115.55357579421998,110.9088832399948L115.78121255890528,103.43704316241627L116.0088493235906,108.7464828155742L116.23648608827591,116.86826740092094L116.46412285296122,116.69795616750075L116.69175961764653,127.14630688203874L116.91939638233184,124.8867428775519L117.14703314701717,118.01501867125799L117.37466991170248,116.58335865342929L117.61304425962766,112.41367183277387L117.84068102431297,93.81144263297756L118.07046530564627,89.98020473605378L118.30024958697955,97.9944481313844L118.52788635166486,115.24665275111215L118.75552311635018,120.05090885596965L118.98315988103549,131.56611718665252L119.22153422896068,139.54102142227882L119.45990857688587,142.73006574686184L119.68754534157117,119.20921713003692L120.07195082155863,110.42521059825566L120.29958758624394,113.27039579915453L120.64104273327192,123.68643722572635L120.86867949795723,121.22714142732963L121.09631626264253,120.38682098794503L121.33469061056773,118.08630973077024L121.56232737525305,114.01190862351837L121.78996413993836,122.43175181282373L122.01760090462366,117.51382015338415L122.24523766930898,116.89963944047051L122.47287443399429,77.67001113511446L122.7005111986796,64.5323654186624L123.08921171196302,89.96218896390907L123.31684847664833,98.81219980889901L123.54448524133365,103.97887095812742L123.77212200601896,101.20369913552298L124.00190628735226,98.80404238793643L124.40134438387554,106.37730106908135L124.62898114856084,101.22972043754716L124.85661791324615,113.90163145517018L125.08425467793147,111.99870046568506L125.31189144261678,111.30206635671662L125.5395282073021,109.4334480624149L125.7671649719874,99.69679591615692L125.99480173667271,118.38600473611908L126.22243850135804,124.49034811115479L126.45007526604336,114.40542860250395L126.67771203072866,120.65949904866221L126.90534879541397,127.5124694135499L127.13298556009929,121.69354877780026L127.3606223247846,99.5049759286303L127.5882590894699,103.90144516292456L127.81589585415522,90.01044779363139L128.04353261884054,98.8935850317502L128.27116938352586,97.38765409826384L128.50954373145103,115.90314535086132L128.73718049613635,109.8955351936482L128.96481726082166,100.92115914664207L129.19460154215494,105.7220516769362L129.42223830684026,112.63892990292892L129.64987507152557,112.38030935937144L129.87751183621089,111.83928552364766L130.1051486008962,119.50443122461226L130.33278536558151,120.5022916167803L130.56042213026683,129.99819394140135L130.798796478192,117.51998617267421L131.03717082611718,118.59427314347076L131.2648075908025,118.73024165841952L131.5031819387277,127.89656151418446L131.91335761849086,125.34052276295134L132.14099438317618,122.86190324633417L132.52539986316364,102.37897070144531L132.95490319275856,110.73368380602545L133.18253995744388,110.37675576557432L133.4101767221292,103.24860888451467L133.6378134868145,90.37957737912069L133.86545025149982,110.36928440035021L134.09308701618514,112.40457075927921L134.3314613641103,112.17759295209082L134.55909812879563,119.54451248215767L134.7888824101289,120.85809221304409L135.01651917481422,112.62198749768437L135.25489352273942,106.69903128190086L135.48253028742474,109.65778159120038L135.71016705211002,113.33299547225027L135.93780381679534,118.00260728029616L136.16544058148065,114.23297500095947L136.39307734616597,116.24941555094154L136.62071411085128,114.45471470345414L136.8483508755366,106.9767487594689L137.0759876402219,109.49280887207206L137.30362440490725,109.35343973158135L137.53126116959254,113.75141766801559L137.75889793427785,114.18955672626164L137.98653469896317,121.9354727851374L138.21417146364848,117.55811837731491L138.4418082283338,114.82000283247031L138.6694449930191,110.94698443808002L138.89708175770443,112.03834378474772L139.12471852238974,112.4874760305592L139.35235528707503,93.74922837453336L139.57999205176034,71.26816153027612L139.80977633309365,89.80042106209083L140.03956061442693,88.69438688551946L140.26719737911225,92.39250528949462L140.49483414379756,100.00540238151127L140.72461842513084,109.01806941625253L140.96299277305604,99.58765146578934L141.20136712098122,103.65168972414315L141.4397414689064,104.8486694982237L141.6673782335917,106.36414894950408L141.9057525815169,115.05906718300471L142.13338934620222,113.47447993781978L142.36102611088754,107.93879135705072L142.58866287557282,86.00629523742917L142.81629964025814,98.12727353683813L143.04393640494345,101.16852369612964L143.27157316962877,111.92919694962664L143.4992099343141,108.18609164950703L143.72684669899942,119.61983118098762L143.95448346368474,116.40544310832787L144.18212022837005,106.93284071385123L144.40975699305534,101.70400526577349L144.63739375774065,101.3588132194554L144.86717803907396,100.21697402231467L145.10555238699914,96.19450241548343L145.33318915168445,72.24198161345609L145.56082591636977,59.530726283627544L145.78846268105508,78.19331153847295L146.0160994457404,91.78239771229372L146.24373621042568,100.85328913467097L146.48211055835088,83.11709482555978" fill="none"></path></g></g></g></g><g opacity="0.2"><g><g><g><path style="fill: none;" stroke="rgb(204, 51, 17)" stroke-width="2px" d="M147.54513129909833,123.83941146947805L148.85726397101084,146.93396966784067L150.1586590596835,-66.69628501323363L154.0628443257014,-64.45421610528085L155.36423941437403,132.69653338245195L156.66563450304668,-101.88444551720697L157.9670295917193,-40.28599154772962L159.26842468039195,131.88311767781593L160.5698197690646,-49.98242948266678L161.87121485773721,-40.53533337662203L163.17260994640986,121.9553624500805L164.47400503508248,133.25706508697917L165.77540012375513,132.8584357014407L167.07679521242778,133.0435551671896L168.3889278843403,-43.284946196246906L169.69032297301294,134.61163672307197L170.99171806168556,136.4826101118009L172.29526066700618,-31.51053743243217L173.5966557556788,-25.396556879136075L174.89805084435145,30.668610627596898L176.1994459330241,-12.40329375595577L177.5115786049366,-16.01277587712226L178.81297369360925,112.78539057032957L180.11651629892984,-47.87895888170847L181.42864897084237,121.89951534326666L182.730044059515,-57.19235974064406L184.03143914818764,-24.734914042013173L185.33283423686026,120.36406374743802L186.6342293255329,121.46377037349792L187.94636199744542,-33.0933185162778L189.24775708611804,-10.524765504775552L190.55988975803058,121.42558345137925L191.8612848467032,-12.136057688820474L193.16267993537585,5.189329090435058L194.4640750240485,1.9193742146342996L195.776207695961,20.49137362142508L197.07760278463365,23.24458652242242L198.37899787330628,28.826797415400446L199.68039296197892,96.88208901751683L200.9925256338914,111.91996189379988L202.30465830580394,117.5644310304595L203.6060533944766,6.579973927947899L204.9074484831492,114.05420209104635L206.20884357182186,132.32313593452216L207.51023866049448,-21.51590080021776L208.822371332407,10.826641496966792L210.12376642107964,-14.282613445936406L211.42516150975226,112.5262329699738L212.7372941816648,-9.227886861723137L214.03868927033741,102.7199008620952L215.34008435901006,126.39549337317676L216.6414794476827,-23.38481596548111L217.94287453635533,11.56485121218074L219.24426962502798,21.63052430257616L220.5456647137006,53.3838790196439L221.84705980237325,100.4849307741142L223.1484548910459,23.677136781911578L224.44984997971852,41.38655476151551L225.75339258503917,25.756111386828632L227.06552525695164,87.08559681033327L228.3669203456243,117.06740746381693L229.66831543429691,6.259479820562225L230.96971052296956,103.65674241282072L232.2711056116422,117.7976014482538L233.57250070031483,130.61653328518682L234.87604330563545,-30.34461295576561L236.1774383943081,16.721827828726838L237.47883348298075,106.27649653317977L238.79096615489323,21.456002395398293" fill="none"></path></g><g><path style="fill: none;" stroke="rgb(255, 112, 67)" stroke-width="2px" d="M6.863463206926982,120.60861833675739L7.48624303483963,106.77721669812169L7.85561589829127,102.52681392403268L8.083252662976584,-11.565623347595762L8.62227934161822,92.54994605805621L9.068962804396948,103.30566691715426L9.754020615100861,122.57456438153271L10.374652926365535,115.11864384494878L10.602289691050848,13.089355375578416L11.23151206890742,114.37114920136933L11.459148833592733,-95.74131685199423L11.686785598278046,148.3823310243948L12.015355645418166,130.83309555278885L12.352515759150188,119.07432494405127L12.580152523835501,132.0009720843015L13.613108031511306,-138.26987919569638L14.248772959311804,28.90126022448556L14.476409723997117,47.72700263203432L15.565200664520264,82.96828605256043L16.050539426962537,106.881985822246L16.580976039012274,120.41117124652321L16.935316285928092,113.99037062145666L17.46575289797783,68.0387292974644L17.693389662663144,74.63757228461664L17.921026427348455,52.4978536309188L18.14866319203377,125.56687383963454L18.52018357213338,111.40373628455525L18.85090113592148,106.05634624882109L19.370600164731346,65.81111862515772L19.83446376069387,114.44967054722959L20.062100525379183,99.04850795818389L20.289737290064494,90.88992247763143L20.669847736756008,129.37478511076617L21.009155367136003,126.62764312446933L21.236792131821314,93.34992178062468L21.6190500951608,118.82678556876824L22.024930741628012,116.149087511359L22.417926288207372,62.47990445586852L22.645563052892683,78.66421986712815L23.105131615559262,98.47346975954716L23.332768380244573,59.36675097947113L23.560405144929888,50.322719211754794L24.202512622674305,56.145643320362495L24.73509675137202,111.91605778410771L25.113059681415557,103.4063775045034L25.340696446100868,93.28668871598164L25.568333210786182,107.326591045902L25.795969975471497,89.12065621352158L26.034344323396684,114.38082019744233L26.261981088081995,68.37572779934594L26.48961785276731,80.97783677297437L26.944891382137936,115.80358586821963L27.453852827707927,83.96804216207032L27.681489592393238,42.56248804349917L28.010059639533363,122.72943785532172L28.33862968667348,126.08494774802885L28.566266451358796,119.39769043001154L28.907721598386765,118.47674763006573L29.98147992237409,49.010455770558266L30.31864003610611,103.39224260056234L30.557014384031294,49.60867733503071L30.78465114871661,69.62035217818753L31.115368712504704,100.1882232633572L31.343005477190015,55.26318905793182L31.80257403985659,73.96762899178236L32.0302108045419,84.45288046669474L32.25784756922722,93.45519279276876L33.06531382886568,98.27038366786023L33.292950593551005,59.952618377303395L33.522734874884286,121.58682462941893L33.85774747196833,133.14201691014253L34.085384236653645,113.22885206840208L34.42469186703364,74.53308305958026L34.77688459730148,107.07980208972546L35.103307127793634,100.3127928350302L35.779774871905644,102.62631322394952L36.18780303502083,122.4238725036006L36.41543979970614,118.90287468807124L36.64307656439145,107.45293652902951L36.87071332907677,123.40883980698987L37.26370887565613,129.08538393137368L37.592278922796254,124.67167210408668L37.81991568748156,103.11712110050125L38.047552452166876,118.67980717959774L38.27518921685218,103.01334127487743L38.502825981537505,108.7017593941902L38.73046274622281,101.6870346208204L39.17499869235356,112.07883358128471L40.07266065120697,16.596394430558306L40.30029741589229,122.94107052088351L40.88012691084543,105.90056792884263L41.2817125240167,91.40322844983802L41.50934928870201,118.38475252121351L41.83577181919416,112.82529066790025L42.76564652776718,1.4112512014009502L43.15005200775464,92.7383036667018L43.66545600326856,72.95740562155274L43.893092767953874,46.331464386328854L44.12072953263918,85.53832912973179L45.091407057523725,110.30262292428614L45.43715723784765,116.5945951682813L45.84733291761081,111.85946508403376L46.332671680053075,79.10431775029905L46.56030844473839,111.49092002460267L46.886730975230535,97.32570011682601L47.21315350572268,122.58009238851956L47.440790270407994,90.47618336719047L47.79513051732381,99.06214097410518L48.02276728200912,75.34829397905618L48.250404046694435,73.51065994979348L48.656284693161645,119.15236611820033L48.88392145784696,102.07635977460795L49.21463902163506,113.11136683916182L49.45301336956024,111.63418009916528L49.68065013424555,104.27947445087341L49.90828689893086,107.60542362180149L50.443018544276555,59.76740239462763L50.67065530896187,36.85904223867175L51.1087487051487,125.1636985068402L51.336385469834006,45.67843085908331L51.56402223451932,93.06895618064121L51.80239658244451,131.71268808833764L52.13955669617653,114.41221232790889L52.53899479269982,96.39476540202533L52.867564839839936,110.98116104945876L53.09520160452525,68.01520812238464L53.32283836921056,105.85388751715888L53.66214599959056,77.38115279631171L54.046551479578014,108.42203886256347L54.28492582750321,77.27315518098341L54.512562592188516,122.08087064886736L55.08809705384572,89.7311836861708L55.31573381853104,122.16160947112265L55.69369674857458,128.6442122973913L55.92133351325989,129.20816070112997L56.40022972575823,104.80722418118708L56.726652256250375,119.25732103740886L57.117500286181766,118.23755938188069L57.34513705086708,125.98847666669275L57.57277381555239,10.850452222827192L58.017309761683144,120.78764275857402L58.348027325471236,114.86943231390764L58.58640167339643,51.1544055706485L59.29293465058009,77.47849494291289L59.5205714152654,80.63330512495013L59.887796762069065,114.97444755619547L60.42252840741475,89.4438624465525L60.753245971202844,93.72614958743515L61.10114366817474,131.892508774801L61.43830378190676,135.82229438242257L62.12550910925866,92.6138547411874L62.469111772934596,97.21543917956244L63.31093829894066,65.78855296765403L63.53857506362597,35.72496834787436L64.12484710852304,112.6270690293279L64.35248387320837,63.888790992561L64.58012063789367,95.77555623180362L64.80775740257899,75.8170863445874L65.14706503295899,121.9515403797762L65.47348756345113,101.35700464105932L65.70112432813644,21.98138263515714L65.92876109282176,37.6249523118992L66.15639785750706,113.64842080122637L66.38403462219239,141.85898659359924L66.78991526865958,119.93575299396191L67.0175520333449,102.89274337474541L67.37833483020465,49.98710090192758L67.73267507712046,148.26724665371057L67.96031184180578,119.9903429678032L68.18794860649109,139.82210302049293L68.42632295441628,143.71865543726778L68.6539597191016,124.74092541204365L69.07057794880868,105.23786340552408L69.29821471349399,98.03972269016474L69.52585147817929,111.0764956439809L69.7534882428646,93.6775340113675L69.9918625907898,106.60550825936228L70.44284108686446,117.4324923914195L70.84872173333167,102.59676939263267L71.08709608125686,126.96696285844224L71.41996116169294,104.01767228672126L71.65833550961813,108.64063039855307L71.98905307340621,120.5781672463279L72.21668983809153,101.26029950617553L72.5495549185276,103.01531987187839L72.78792926645278,113.70012974480039L73.52452747670809,-29.126357001346655L73.75216424139342,132.15804614402327L73.9905385893186,50.616777332869056L74.2181753540039,80.78542062755363L74.54459788449606,115.49828835097064L74.77223464918137,64.59326804183165L75.10080469632149,130.70515271452152L75.43152226010959,104.2310470828132L75.65915902479489,47.799371023806216L75.8867957894802,122.08256210801088L76.21536583662034,135.36548941920938L76.96699666341146,65.12429452181277L77.19463342809676,81.85984705754142L77.60480910785992,118.88452440734888L77.83244587254524,104.452181839826L78.06008263723055,99.7802606909898L78.40153778425854,101.81331736794544L78.62917454894384,126.92688420455683L78.85681131362915,116.53770326573402L79.41516564210255,48.16572032315087L79.64280240678787,97.56900481194232L80.09378090286255,144.58558977785674L80.32141766754786,109.53166018993672L80.65428274798393,121.98339579149176L80.88191951266926,129.09139693591808L81.10955627735456,81.35547855276357L81.33719304203987,102.44536811528806L81.79461408805848,27.882794308700692L82.1553968849182,121.4852381509584L82.38303364960352,122.45251631457438L82.61067041428883,135.80000862400684L82.84904476221402,97.95323387199082L83.23774527549745,120.02611455382674L83.46538204018276,115.44404101221977L83.85408255346617,131.82078222059283L84.18265260060627,108.21418000884249L84.51122264774641,100.17623586103915L84.73885941243171,134.39707476877945L84.96649617711702,121.7326834222377L85.19413294180234,134.5681075890507L85.71168445396424,48.82463173124318L85.93932121864955,119.5899304320407L86.16695798333485,84.1866433497526L86.39459474802017,117.45113946169201L86.62223151270548,100.15826923510112L86.9508015598456,74.65373886986843L87.17843832453092,99.2470094958442L87.40607508921623,78.70831845101797L87.63371185390154,105.22598217182559L87.86134861858685,113.84068734541043L88.09113289992014,119.56915033768423L88.31876966460545,146.773963906465L88.54640642929077,121.21645781299306L88.78478077721597,63.78920482740996L89.2980372560819,116.17076521313543L89.52567402076721,78.53428878016719L89.75331078545253,92.61058281736629L89.98309506678582,119.84781883480802L90.21073183147114,122.97522062253557L90.44910617939631,117.47462685584738L90.67674294408162,109.00060958072389L90.90437970876694,139.01729300634955L91.14275405669213,106.20755449231197L91.37039082137743,101.91350676388946L91.7032559018135,117.6280791178881L91.93089266649882,143.9038581488661L92.15852943118414,146.4464554314186L92.38616619586944,127.9785398785713L92.61380296055476,133.0136011389335L92.95096307428679,68.01987954164545L93.30315580455462,97.54531955808686L93.63172585169474,118.658981239701L93.85936261638007,73.9827435425312L94.08699938106537,124.64935256474652L94.31463614575068,118.17598158253357L94.64750122618676,107.97772801553442L94.87513799087206,111.02878732702591L95.10277475555738,132.69405289743122L95.50006533543268,83.30331078328736L95.727702100118,75.22567887515244L96.05412463061016,101.55335867709661L96.28176139529546,33.084197666688L96.50939815998078,118.31124040385811L96.73703492466609,117.00469076473264L96.97540927259128,95.48585102409149L97.20304603727658,116.56629157947481L97.53805863436064,130.30611795789017L97.76569539904595,104.15819128056057L97.99333216373125,92.89752764096974L98.22096892841657,132.5241831061288L98.66550487454732,36.85390753816192L99.03058270470301,125.28971583241635L99.25821946938832,115.70608446868914L99.48585623407364,103.41883783976314L99.71349299875895,83.42687657892083L99.95186734668414,133.5308691309884L100.17950411136945,115.71134464120388L100.40928839270273,120.60700167823221L100.63692515738805,132.70608373236635L100.86456192207338,120.94021430365702L101.09219868675868,117.03730866017052L101.31983545144399,86.12243026780224L101.55820979936918,87.02984380752314L101.7858465640545,133.04806250767473L102.0134833287398,89.06628340276578L102.24112009342511,135.93514197332644L102.46875685811042,132.14576195215508L102.84671978815398,67.4715379249827L103.07435655283929,79.94776952257898L103.30199331752459,42.96209707584542L103.5296300822099,118.5761745422874L103.7680044301351,89.8434425238207L104.00637877806028,115.09121856017684L104.23401554274558,123.41716680485612L104.4616523074309,85.14333843233658L104.68928907211621,51.878099140060236L104.91692583680154,112.68787951910636L105.14456260148684,128.86897126500833L105.37219936617215,115.45970570945181L105.59983613085747,52.94047060588115L105.92625866134962,118.67163943466085L106.15389542603492,112.21124032742009L106.38367970736822,122.0638764309676L106.61131647205353,108.45115801940207L106.83895323673885,111.54674541510796L107.06659000142415,98.68111627602899L107.29422676610946,139.83050481897754L107.53260111403465,132.29272345086338L107.76023787871998,122.2435668195797L107.98787464340528,123.42909388409487L108.21551140809059,114.69428787255141L108.4431481727759,105.39734314964826L108.6815225207011,130.52941228114187L108.91989686862628,111.00925712687248L109.14753363331158,28.273987065023327L109.3751703979969,123.63401379739244L109.60280716268221,69.48158979241735L109.83044392736754,123.19919297719854L110.05808069205284,114.64825412427774L110.29645503997803,113.89132495109612L110.52409180466334,105.04408154558804L110.75172856934866,104.15217827601617L110.97936533403396,128.9005805585603L111.20700209871927,102.62864410773359L111.5355721458594,68.91843282747911L111.76535642719269,99.91637368711721L112.21848243991533,90.68998766360701L112.44826672124863,114.54461907404422L112.67590348593393,128.03087135632367L113.00232601642608,119.38960472446244L113.2299627811114,133.21031228760023L113.4683371290366,101.0743692982409L113.6959738937219,87.95841385761535L113.92361065840721,112.75408047925086L114.15339493974051,119.82785430848365L114.3917692876657,120.88420553099067L114.619406052351,112.20510667671708L114.85778040027618,148.7838933180487L115.09615474820137,116.21403857730044L115.32379151288669,96.7280335246831L115.55357579421998,108.22517328681371L115.78121255890528,92.2292830460485L116.0088493235906,116.7106422953111L116.23648608827591,129.05094427894102L116.46412285296122,116.44248931737047L116.69175961764653,142.8188329538457L116.91939638233184,121.49739687082163L117.14703314701717,107.70743236181714L117.37466991170248,114.43586862668629L117.61304425962766,106.1591416017908L117.84068102431297,65.90809883328309L118.07046530564627,84.23334789066807L118.30024958697955,110.01581322438031L118.52788635166486,141.1249596807038L118.75552311635018,127.25729301325589L118.98315988103549,148.8389296826768L119.22153422896068,151.50337777571832L119.45990857688587,147.51363223373636L119.68754534157117,83.92794420479953L120.07195082155863,97.24920080058381L120.29958758624394,117.53817360050277L120.64104273327192,139.31049936558412L120.86867949795723,117.53819772973449L121.09631626264253,119.12634032886812L121.33469061056773,114.63554284500812L121.56232737525305,107.90030696264054L121.78996413993836,135.06151659678176L122.01760090462366,110.13692266422478L122.24523766930898,115.97836837110006L122.47287443399429,18.825568677080383L122.7005111986796,44.82589684398431L123.08921171196302,128.1069242817791L123.31684847664833,112.08721607638392L123.54448524133365,111.72887768197002L123.77212200601896,97.04094140161631L124.00190628735226,95.20455726655668L124.40134438387554,117.73718909079868L124.62898114856084,93.5083494902459L124.85661791324615,132.90949798160466L125.08425467793147,109.14430398145741L125.31189144261678,110.25711519326394L125.5395282073021,106.63052062096229L125.7671649719874,85.09181769676998L125.99480173667271,146.4198179660623L126.22243850135804,133.64686317370843L126.45007526604336,99.27804933952764L126.67771203072866,130.04060471789964L126.90534879541397,137.7919249608814L127.13298556009929,112.96516782417584L127.3606223247846,66.22211665487538L127.5882590894699,110.49614901436597L127.81589585415522,69.1739517396916L128.04353261884054,112.2182908889284L128.27116938352586,95.12875769803429L128.50954373145103,143.67638222975754L128.73718049613635,100.88411995782853L128.96481726082166,87.45959507613287L129.19460154215494,112.92339047237739L129.42223830684026,123.01424724191803L129.64987507152557,111.99237854403522L129.87751183621089,111.02774977006199L130.1051486008962,131.00214977605916L130.33278536558151,121.99908220503234L130.56042213026683,144.242047428333L130.798796478192,98.80267451958343L131.03717082611718,120.20570359966563L131.2648075908025,118.93419443084264L131.5031819387277,141.64604129783189L131.91335761849086,121.50646463610167L132.14099438317618,119.14397397140843L132.52539986316364,71.65457188411203L132.95490319275856,123.26575346289565L133.18253995744388,109.84136370489762L133.4101767221292,92.5563885629252L133.6378134868145,71.07603012102966L133.86545025149982,140.35384493219453L134.09308701618514,115.45750029767268L134.3314613641103,111.83712624130821L134.55909812879563,130.59489177725797L134.7888824101289,122.8284618093737L135.01651917481422,100.26783042464481L135.25489352273942,97.8145969582256L135.48253028742474,114.09590705514962L135.71016705211002,118.8458162938251L135.93780381679534,125.00702499236499L136.16544058148065,108.57852658195448L136.39307734616597,119.2740763759146L136.62071411085128,111.76266343222312L136.8483508755366,95.75979984349105L137.0759876402219,113.26689904097674L137.30362440490725,109.14438602084526L137.53126116959254,120.34838457266696L137.75889793427785,114.84676531363071L137.98653469896317,133.55434687345107L138.21417146364848,110.99208676558118L138.4418082283338,110.71282951520342L138.6694449930191,105.13745684649459L138.89708175770443,113.67538280474928L139.12471852238974,113.16117439927636L139.35235528707503,65.64185689049461L139.57999205176034,37.54656126389021L139.80977633309365,117.59881035981286L140.03956061442693,87.03533562066241L140.26719737911225,97.93968289545737L140.49483414379756,111.42474801953622L140.72461842513084,122.5370699683644L140.96299277305604,85.44202454009455L141.20136712098122,109.74774711167389L141.4397414689064,106.64413915934453L141.6673782335917,108.63736812642465L141.9057525815169,128.10144453325566L142.13338934620222,111.0975990700424L142.36102611088754,99.63525848589708L142.58866287557282,53.10755105799686L142.81629964025814,116.30874098595156L143.04393640494345,105.73039893506689L143.27157316962877,128.07020682987215L143.4992099343141,102.57143369932763L143.72684669899942,136.77044047820846L143.95448346368474,111.58386099933827L144.18212022837005,92.72393712213625L144.40975699305534,93.86075209365691L144.63739375774065,100.84102514997824L144.86717803907396,98.5042152266036L145.10555238699914,90.16079500523655L145.33318915168445,36.313200410415114L145.56082591636977,40.46384328888471L145.78846268105508,106.18718942074106L146.0160994457404,112.16602697302484L146.24373621042568,114.45962626823689L146.48211055835088,56.5128033618929" fill="none"></path></g></g></g></g></g></g><g transform="translate(72, 177)" clip-path="url(#clip_1)"><clipPath id="clip_1"><rect width="257" height="22"></rect></clipPath><g><g><line x1="0" y1="0" x2="0" y2="5" style="visibility: inherit;" fill="rgb(0, 0, 0)" stroke="rgb(204, 204, 204)" stroke-width="1px"></line><line x1="21.4751664797465" y1="0" x2="21.4751664797465" y2="5" style="visibility: inherit;" fill="rgb(0, 0, 0)" stroke="rgb(204, 204, 204)" stroke-width="1px"></line><line x1="42.950332959493" y1="0" x2="42.950332959493" y2="5" style="visibility: inherit;" fill="rgb(0, 0, 0)" stroke="rgb(204, 204, 204)" stroke-width="1px"></line><line x1="64.4254994392395" y1="0" x2="64.4254994392395" y2="5" style="visibility: inherit;" fill="rgb(0, 0, 0)" stroke="rgb(204, 204, 204)" stroke-width="1px"></line><line x1="85.900665918986" y1="0" x2="85.900665918986" y2="5" style="visibility: inherit;" fill="rgb(0, 0, 0)" stroke="rgb(204, 204, 204)" stroke-width="1px"></line><line x1="107.37583239873251" y1="0" x2="107.37583239873251" y2="5" style="visibility: inherit;" fill="rgb(0, 0, 0)" stroke="rgb(204, 204, 204)" stroke-width="1px"></line><line x1="128.850998878479" y1="0" x2="128.850998878479" y2="5" style="visibility: inherit;" fill="rgb(0, 0, 0)" stroke="rgb(204, 204, 204)" stroke-width="1px"></line><line x1="150.32616535822552" y1="0" x2="150.32616535822552" y2="5" style="visibility: inherit;" fill="rgb(0, 0, 0)" stroke="rgb(204, 204, 204)" stroke-width="1px"></line><line x1="171.801331837972" y1="0" x2="171.801331837972" y2="5" style="visibility: inherit;" fill="rgb(0, 0, 0)" stroke="rgb(204, 204, 204)" stroke-width="1px"></line><line x1="193.2764983177185" y1="0" x2="193.2764983177185" y2="5" style="visibility: inherit;" fill="rgb(0, 0, 0)" stroke="rgb(204, 204, 204)" stroke-width="1px"></line><line x1="214.75166479746503" y1="0" x2="214.75166479746503" y2="5" style="visibility: inherit;" fill="rgb(0, 0, 0)" stroke="rgb(204, 204, 204)" stroke-width="1px"></line><line x1="236.2268312772115" y1="0" x2="236.2268312772115" y2="5" style="visibility: inherit;" fill="rgb(0, 0, 0)" stroke="rgb(204, 204, 204)" stroke-width="1px"></line><line x1="257.701997756958" y1="0" x2="257.701997756958" y2="5" style="visibility: inherit;" fill="rgb(0, 0, 0)" stroke="rgb(204, 204, 204)" stroke-width="1px"></line></g><g transform="translate(0, 8)"><text style="text-anchor: middle; visibility: hidden; font-family: Roboto, sans-serif; font-size: 12px; font-weight: 200;" x="0" y="0" dx="0em" dy="0.95em" fill="rgb(50, 49, 63)" stroke="none" stroke-width="1px">20k</text><text style="text-anchor: middle; visibility: inherit; font-family: Roboto, sans-serif; font-size: 12px; font-weight: 200;" x="21.4751664797465" y="0" dx="0em" dy="0.95em" fill="rgb(50, 49, 63)" stroke="none" stroke-width="1px">30k</text><text style="text-anchor: middle; visibility: hidden; font-family: Roboto, sans-serif; font-size: 12px; font-weight: 200;" x="42.950332959493" y="0" dx="0em" dy="0.95em" fill="rgb(50, 49, 63)" stroke="none" stroke-width="1px">40k</text><text style="text-anchor: middle; visibility: inherit; font-family: Roboto, sans-serif; font-size: 12px; font-weight: 200;" x="64.4254994392395" y="0" dx="0em" dy="0.95em" fill="rgb(50, 49, 63)" stroke="none" stroke-width="1px">50k</text><text style="text-anchor: middle; visibility: hidden; font-family: Roboto, sans-serif; font-size: 12px; font-weight: 200;" x="85.900665918986" y="0" dx="0em" dy="0.95em" fill="rgb(50, 49, 63)" stroke="none" stroke-width="1px">60k</text><text style="text-anchor: middle; visibility: inherit; font-family: Roboto, sans-serif; font-size: 12px; font-weight: 200;" x="107.37583239873251" y="0" dx="0em" dy="0.95em" fill="rgb(50, 49, 63)" stroke="none" stroke-width="1px">70k</text><text style="text-anchor: middle; visibility: hidden; font-family: Roboto, sans-serif; font-size: 12px; font-weight: 200;" x="128.850998878479" y="0" dx="0em" dy="0.95em" fill="rgb(50, 49, 63)" stroke="none" stroke-width="1px">80k</text><text style="text-anchor: middle; visibility: inherit; font-family: Roboto, sans-serif; font-size: 12px; font-weight: 200;" x="150.32616535822552" y="0" dx="0em" dy="0.95em" fill="rgb(50, 49, 63)" stroke="none" stroke-width="1px">90k</text><text style="text-anchor: middle; visibility: hidden; font-family: Roboto, sans-serif; font-size: 12px; font-weight: 200;" x="171.801331837972" y="0" dx="0em" dy="0.95em" fill="rgb(50, 49, 63)" stroke="none" stroke-width="1px">100k</text><text style="text-anchor: middle; visibility: inherit; font-family: Roboto, sans-serif; font-size: 12px; font-weight: 200;" x="193.2764983177185" y="0" dx="0em" dy="0.95em" fill="rgb(50, 49, 63)" stroke="none" stroke-width="1px">110k</text><text style="text-anchor: middle; visibility: hidden; font-family: Roboto, sans-serif; font-size: 12px; font-weight: 200;" x="214.75166479746503" y="0" dx="0em" dy="0.95em" fill="rgb(50, 49, 63)" stroke="none" stroke-width="1px">120k</text><text style="text-anchor: middle; visibility: inherit; font-family: Roboto, sans-serif; font-size: 12px; font-weight: 200;" x="236.2268312772115" y="0" dx="0em" dy="0.95em" fill="rgb(50, 49, 63)" stroke="none" stroke-width="1px">130k</text><text style="text-anchor: middle; visibility: hidden; font-family: Roboto, sans-serif; font-size: 12px; font-weight: 200;" x="257.701997756958" y="0" dx="0em" dy="0.95em" fill="rgb(50, 49, 63)" stroke="none" stroke-width="1px">140k</text></g><line x1="0" y1="0" x2="257.701997756958" y2="0" fill="rgb(0, 0, 0)" stroke="rgb(204, 204, 204)" stroke-width="1px"></line></g></g></g></g></svg>