<svg viewBox="0 0 330 200" xmlns="http://www.w3.org/2000/svg"><g><g><g><g><g><line x1="51.53200149536133" y1="177.89999961853027" x2="46.53200149536133" y2="177.89999961853027" style="visibility: inherit;" fill="rgb(0, 0, 0)" stroke="rgb(204, 204, 204)" stroke-width="1px"></line><line x1="51.53200149536133" y1="165.19285678863525" x2="46.53200149536133" y2="165.19285678863525" style="visibility: inherit;" fill="rgb(0, 0, 0)" stroke="rgb(204, 204, 204)" stroke-width="1px"></line><line x1="51.53200149536133" y1="152.48571395874023" x2="46.53200149536133" y2="152.48571395874023" style="visibility: inherit;" fill="rgb(0, 0, 0)" stroke="rgb(204, 204, 204)" stroke-width="1px"></line><line x1="51.53200149536133" y1="139.77857112884521" x2="46.53200149536133" y2="139.77857112884521" style="visibility: inherit;" fill="rgb(0, 0, 0)" stroke="rgb(204, 204, 204)" stroke-width="1px"></line><line x1="51.53200149536133" y1="127.0714282989502" x2="46.53200149536133" y2="127.0714282989502" style="visibility: inherit;" fill="rgb(0, 0, 0)" stroke="rgb(204, 204, 204)" stroke-width="1px"></line><line x1="51.53200149536133" y1="114.36428546905516" x2="46.53200149536133" y2="114.36428546905516" style="visibility: inherit;" fill="rgb(0, 0, 0)" stroke="rgb(204, 204, 204)" stroke-width="1px"></line><line x1="51.53200149536133" y1="101.65714263916016" x2="46.53200149536133" y2="101.65714263916016" style="visibility: inherit;" fill="rgb(0, 0, 0)" stroke="rgb(204, 204, 204)" stroke-width="1px"></line><line x1="51.53200149536133" y1="88.94999980926514" x2="46.53200149536133" y2="88.94999980926514" style="visibility: inherit;" fill="rgb(0, 0, 0)" stroke="rgb(204, 204, 204)" stroke-width="1px"></line><line x1="51.53200149536133" y1="76.24285697937012" x2="46.53200149536133" y2="76.24285697937012" style="visibility: inherit;" fill="rgb(0, 0, 0)" stroke="rgb(204, 204, 204)" stroke-width="1px"></line><line x1="51.53200149536133" y1="63.53571414947509" x2="46.53200149536133" y2="63.53571414947509" style="visibility: inherit;" fill="rgb(0, 0, 0)" stroke="rgb(204, 204, 204)" stroke-width="1px"></line><line x1="51.53200149536133" y1="50.82857131958008" x2="46.53200149536133" y2="50.82857131958008" style="visibility: inherit;" fill="rgb(0, 0, 0)" stroke="rgb(204, 204, 204)" stroke-width="1px"></line><line x1="51.53200149536133" y1="38.12142848968506" x2="46.53200149536133" y2="38.12142848968506" style="visibility: inherit;" fill="rgb(0, 0, 0)" stroke="rgb(204, 204, 204)" stroke-width="1px"></line><line x1="51.53200149536133" y1="25.414285659790046" x2="46.53200149536133" y2="25.414285659790046" style="visibility: inherit;" fill="rgb(0, 0, 0)" stroke="rgb(204, 204, 204)" stroke-width="1px"></line><line x1="51.53200149536133" y1="12.707142829895014" x2="46.53200149536133" y2="12.707142829895014" style="visibility: inherit;" fill="rgb(0, 0, 0)" stroke="rgb(204, 204, 204)" stroke-width="1px"></line><line x1="51.53200149536133" y1="0" x2="46.53200149536133" y2="0" style="visibility: inherit;" fill="rgb(0, 0, 0)" stroke="rgb(204, 204, 204)" stroke-width="1px"></line></g><g transform="translate(41.53200149536133, 0)"><text style="text-anchor: end; visibility: hidden; font-family: Roboto, sans-serif; font-size: 12px; font-weight: 200;" x="0" y="177.89999961853027" dx="0em" dy="0.3em" fill="rgb(50, 49, 63)" stroke="none" stroke-width="1px">-100</text><text style="text-anchor: end; visibility: inherit; font-family: Roboto, sans-serif; font-size: 12px; font-weight: 200;" x="0" y="165.19285678863525" dx="0em" dy="0.3em" fill="rgb(50, 49, 63)" stroke="none" stroke-width="1px">-50</text><text style="text-anchor: end; visibility: hidden; font-family: Roboto, sans-serif; font-size: 12px; font-weight: 200;" x="0" y="152.48571395874023" dx="0em" dy="0.3em" fill="rgb(50, 49, 63)" stroke="none" stroke-width="1px">0</text><text style="text-anchor: end; visibility: inherit; font-family: Roboto, sans-serif; font-size: 12px; font-weight: 200;" x="0" y="139.77857112884521" dx="0em" dy="0.3em" fill="rgb(50, 49, 63)" stroke="none" stroke-width="1px">50</text><text style="text-anchor: end; visibility: hidden; font-family: Roboto, sans-serif; font-size: 12px; font-weight: 200;" x="0" y="127.0714282989502" dx="0em" dy="0.3em" fill="rgb(50, 49, 63)" stroke="none" stroke-width="1px">100</text><text style="text-anchor: end; visibility: inherit; font-family: Roboto, sans-serif; font-size: 12px; font-weight: 200;" x="0" y="114.36428546905516" dx="0em" dy="0.3em" fill="rgb(50, 49, 63)" stroke="none" stroke-width="1px">150</text><text style="text-anchor: end; visibility: hidden; font-family: Roboto, sans-serif; font-size: 12px; font-weight: 200;" x="0" y="101.65714263916016" dx="0em" dy="0.3em" fill="rgb(50, 49, 63)" stroke="none" stroke-width="1px">200</text><text style="text-anchor: end; visibility: inherit; font-family: Roboto, sans-serif; font-size: 12px; font-weight: 200;" x="0" y="88.94999980926514" dx="0em" dy="0.3em" fill="rgb(50, 49, 63)" stroke="none" stroke-width="1px">250</text><text style="text-anchor: end; visibility: hidden; font-family: Roboto, sans-serif; font-size: 12px; font-weight: 200;" x="0" y="76.24285697937012" dx="0em" dy="0.3em" fill="rgb(50, 49, 63)" stroke="none" stroke-width="1px">300</text><text style="text-anchor: end; visibility: inherit; font-family: Roboto, sans-serif; font-size: 12px; font-weight: 200;" x="0" y="63.53571414947509" dx="0em" dy="0.3em" fill="rgb(50, 49, 63)" stroke="none" stroke-width="1px">350</text><text style="text-anchor: end; visibility: hidden; font-family: Roboto, sans-serif; font-size: 12px; font-weight: 200;" x="0" y="50.82857131958008" dx="0em" dy="0.3em" fill="rgb(50, 49, 63)" stroke="none" stroke-width="1px">400</text><text style="text-anchor: end; visibility: inherit; font-family: Roboto, sans-serif; font-size: 12px; font-weight: 200;" x="0" y="38.12142848968506" dx="0em" dy="0.3em" fill="rgb(50, 49, 63)" stroke="none" stroke-width="1px">450</text><text style="text-anchor: end; visibility: hidden; font-family: Roboto, sans-serif; font-size: 12px; font-weight: 200;" x="0" y="25.414285659790046" dx="0em" dy="0.3em" fill="rgb(50, 49, 63)" stroke="none" stroke-width="1px">500</text><text style="text-anchor: end; visibility: inherit; font-family: Roboto, sans-serif; font-size: 12px; font-weight: 200;" x="0" y="12.707142829895014" dx="0em" dy="0.3em" fill="rgb(50, 49, 63)" stroke="none" stroke-width="1px">550</text><text style="text-anchor: end; visibility: hidden; font-family: Roboto, sans-serif; font-size: 12px; font-weight: 200;" x="0" y="0" dx="0em" dy="0.3em" fill="rgb(50, 49, 63)" stroke="none" stroke-width="1px">600</text></g><line x1="51.53200149536133" y1="0" x2="51.53200149536133" y2="177.89999961853027" fill="rgb(0, 0, 0)" stroke="rgb(204, 204, 204)" stroke-width="1px"></line></g></g><g transform="translate(51, 0)" clip-path="url(#clip_0)"><clipPath id="clip_0"><rect width="278" height="177"></rect></clipPath><g><g><g><line x1="0" y1="0" x2="0" y2="177.89999961853027" fill="rgb(0, 0, 0)" stroke="rgb(60, 60, 60)" stroke-width="1px" opacity="0.25"></line><line x1="23.205666542053223" y1="0" x2="23.205666542053223" y2="177.89999961853027" fill="rgb(0, 0, 0)" stroke="rgb(60, 60, 60)" stroke-width="1px" opacity="0.25"></line><line x1="46.411333084106445" y1="0" x2="46.411333084106445" y2="177.89999961853027" fill="rgb(0, 0, 0)" stroke="rgb(60, 60, 60)" stroke-width="1px" opacity="0.25"></line><line x1="69.61699962615967" y1="0" x2="69.61699962615967" y2="177.89999961853027" fill="rgb(0, 0, 0)" stroke="rgb(60, 60, 60)" stroke-width="1px" opacity="0.25"></line><line x1="92.82266616821289" y1="0" x2="92.82266616821289" y2="177.89999961853027" fill="rgb(0, 0, 0)" stroke="rgb(60, 60, 60)" stroke-width="1px" opacity="0.25"></line><line x1="116.02833271026611" y1="0" x2="116.02833271026611" y2="177.89999961853027" fill="rgb(0, 0, 0)" stroke="rgb(60, 60, 60)" stroke-width="1px" opacity="0.25"></line><line x1="139.23399925231934" y1="0" x2="139.23399925231934" y2="177.89999961853027" fill="rgb(0, 0, 0)" stroke="rgb(60, 60, 60)" stroke-width="1px" opacity="0.25"></line><line x1="162.43966579437256" y1="0" x2="162.43966579437256" y2="177.89999961853027" fill="rgb(0, 0, 0)" stroke="rgb(60, 60, 60)" stroke-width="1px" opacity="0.25"></line><line x1="185.64533233642578" y1="0" x2="185.64533233642578" y2="177.89999961853027" fill="rgb(0, 0, 0)" stroke="rgb(60, 60, 60)" stroke-width="1px" opacity="0.25"></line><line x1="208.850998878479" y1="0" x2="208.850998878479" y2="177.89999961853027" fill="rgb(0, 0, 0)" stroke="rgb(60, 60, 60)" stroke-width="1px" opacity="0.25"></line><line x1="232.05666542053223" y1="0" x2="232.05666542053223" y2="177.89999961853027" fill="rgb(0, 0, 0)" stroke="rgb(60, 60, 60)" stroke-width="1px" opacity="0.25"></line><line x1="255.26233196258545" y1="0" x2="255.26233196258545" y2="177.89999961853027" fill="rgb(0, 0, 0)" stroke="rgb(60, 60, 60)" stroke-width="1px" opacity="0.25"></line><line x1="278.4679985046387" y1="0" x2="278.4679985046387" y2="177.89999961853027" fill="rgb(0, 0, 0)" stroke="rgb(60, 60, 60)" stroke-width="1px" opacity="0.25"></line></g><g><line x1="0" y1="177.89999961853027" x2="278.4679985046387" y2="177.89999961853027" fill="rgb(0, 0, 0)" stroke="rgb(60, 60, 60)" stroke-width="1px" opacity="0.25"></line><line x1="0" y1="165.19285678863525" x2="278.4679985046387" y2="165.19285678863525" fill="rgb(0, 0, 0)" stroke="rgb(60, 60, 60)" stroke-width="1px" opacity="0.25"></line><line x1="0" y1="152.48571395874023" x2="278.4679985046387" y2="152.48571395874023" fill="rgb(0, 0, 0)" stroke="rgb(60, 60, 60)" stroke-width="1px" opacity="0.25"></line><line x1="0" y1="139.77857112884521" x2="278.4679985046387" y2="139.77857112884521" fill="rgb(0, 0, 0)" stroke="rgb(60, 60, 60)" stroke-width="1px" opacity="0.25"></line><line x1="0" y1="127.0714282989502" x2="278.4679985046387" y2="127.0714282989502" fill="rgb(0, 0, 0)" stroke="rgb(60, 60, 60)" stroke-width="1px" opacity="0.25"></line><line x1="0" y1="114.36428546905516" x2="278.4679985046387" y2="114.36428546905516" fill="rgb(0, 0, 0)" stroke="rgb(60, 60, 60)" stroke-width="1px" opacity="0.25"></line><line x1="0" y1="101.65714263916016" x2="278.4679985046387" y2="101.65714263916016" fill="rgb(0, 0, 0)" stroke="rgb(60, 60, 60)" stroke-width="1px" opacity="0.25"></line><line x1="0" y1="88.94999980926514" x2="278.4679985046387" y2="88.94999980926514" fill="rgb(0, 0, 0)" stroke="rgb(60, 60, 60)" stroke-width="1px" opacity="0.25"></line><line x1="0" y1="76.24285697937012" x2="278.4679985046387" y2="76.24285697937012" fill="rgb(0, 0, 0)" stroke="rgb(60, 60, 60)" stroke-width="1px" opacity="0.25"></line><line x1="0" y1="63.53571414947509" x2="278.4679985046387" y2="63.53571414947509" fill="rgb(0, 0, 0)" stroke="rgb(60, 60, 60)" stroke-width="1px" opacity="0.25"></line><line x1="0" y1="50.82857131958008" x2="278.4679985046387" y2="50.82857131958008" fill="rgb(0, 0, 0)" stroke="rgb(60, 60, 60)" stroke-width="1px" opacity="0.25"></line><line x1="0" y1="38.12142848968506" x2="278.4679985046387" y2="38.12142848968506" fill="rgb(0, 0, 0)" stroke="rgb(60, 60, 60)" stroke-width="1px" opacity="0.25"></line><line x1="0" y1="25.414285659790046" x2="278.4679985046387" y2="25.414285659790046" fill="rgb(0, 0, 0)" stroke="rgb(60, 60, 60)" stroke-width="1px" opacity="0.25"></line><line x1="0" y1="12.707142829895014" x2="278.4679985046387" y2="12.707142829895014" fill="rgb(0, 0, 0)" stroke="rgb(60, 60, 60)" stroke-width="1px" opacity="0.25"></line><line x1="0" y1="0" x2="278.4679985046387" y2="0" fill="rgb(0, 0, 0)" stroke="rgb(60, 60, 60)" stroke-width="1px" opacity="0.25"></line></g></g></g><g><g><line x1="0" y1="152.48571395874023" x2="278.4679985046387" y2="152.48571395874023" fill="rgb(0, 0, 0)" stroke="rgb(153, 153, 153)" stroke-width="1.5px"></line></g></g><g><g><line x1="-46.411333084106445" y1="0" x2="-46.411333084106445" y2="177.89999961853027" fill="rgb(0, 0, 0)" stroke="rgb(153, 153, 153)" stroke-width="1.5px"></line></g></g><g><g><g><g><g><path style="fill: none;" stroke="rgb(204, 51, 17)" stroke-width="2px" d="M159.43453197717665,176.00224049893367L160.85239820289613,175.63701266487905L162.25866159534453,98.53585511872984L163.66492498779297,64.5206314257371L165.07118838024138,47.029744695130574L166.47745177268982,37.44818615302351L167.88371516513826,31.993594568108314L169.28997855758666,28.820232983233293L170.6962419500351,26.950675489145745L172.1025053424835,25.84107247968716L173.50876873493195,25.179620290027056L174.91503212738036,24.784288153289825L176.3212955198288,24.547640344797976L177.72755891227723,24.405849625052188L179.13382230472564,24.320846339048313L180.54008569717408,24.26986995371611L181.95795192289353,23.930459963839642L183.36421531534197,23.726850742143125L184.77047870779037,23.604698444199723L186.179062666893,23.531411829428144L187.5853260593414,23.4874415754667L188.99158945178985,23.46106004042483L190.3978528442383,23.44523134163397L191.81571906995774,23.351390762643543L193.22198246240617,23.295086699827674L194.63056642150877,23.26130436458574L196.04843264722825,23.241035000321546L197.45469603967666,23.228873395040186L198.8609594321251,23.221576436651134L200.2672228245735,23.21719826333837L201.67348621702195,23.214571359970222L203.09135244274137,23.16891110831304L204.4976158351898,23.141514959644407L205.91548206090928,23.12507727128053L207.3217454533577,23.115214658563612L208.72800884580613,23.109297091041963L210.13427223825454,23.105746550568036L211.55213846397402,23.103616226297728L212.95840185642243,23.102338031740636L214.36466524887086,23.101571115008156L215.77092864131927,23.10111096496936L217.18879486703872,23.10083487494633L218.60666109275817,23.100669220932566L220.0129244852066,23.100569828524357L221.41918787765505,23.100510193079433L222.82545127010346,23.1004744118125L224.2317146625519,23.100452943052336L225.64958088827132,23.100440061796213L227.05584428071975,23.100432333042534L228.46210767316816,23.100427695790355L229.87997389888764,23.100424913439028L231.28623729133605,23.100423244028253L232.6925006837845,23.100422242381768L234.09876407623292,23.100421641393897L235.50502746868133,23.100421280801182L236.91129086112977,23.100421064445516L238.31755425357818,23.10042093463217L239.72381764602662,23.10042085674413L241.13008103847503,23.100420810011304L242.53634443092346,23.10042078197161L243.94492839002612,23.100420765147764L245.36279461574554,23.100420755053527L246.76905800819398,23.100420748996946L248.1753214006424,23.10042074536298L249.58158479309083,23.100420743182625L250.98784818553924,23.100420741874405L252.39411157798767,23.100420741089486L253.8026955370903,23.100420740618507L255.20895892953874,23.100420740335935L256.6152223219872,23.100420740166392L258.0330885477066,23.100420740064653" fill="none"></path></g><g><path style="fill: none;" stroke="rgb(255, 112, 67)" stroke-width="2px" d="M7.416531026840209,159.81832878911027L8.089495356559754,142.39142229477008L8.488632821083069,137.0566550005843L8.734612886428833,134.7030811943259L9.317075116634369,130.72795407963596L9.799752980709076,128.55038713173926L10.540013743400575,126.17474079965103L11.210657506465912,124.79264193997717L11.456637571811676,123.97839080232283L12.136563601493837,123.49512376418483L12.3825436668396,123.20704051473251L12.628523732185364,123.03486092511967L12.983570430278778,122.93179335544218L13.347899394989014,122.87003903377679L13.593879460334778,122.83301742703192L14.710072021007537,101.47397854970144L15.396959750652314,88.66241227272893L15.642939815998078,80.97686053243697L16.819467109680176,76.36602906705721L17.34391517353058,73.59971001232806L17.917095137119293,71.93998331115544L18.299988635063173,70.9441705927379L18.873168598651887,70.34669135026992L19.11914866399765,69.9882068246269L19.365128729343414,69.77311719637143L19.61110879468918,69.64406381078271L20.0125668258667,69.56663192032016L20.369934090614322,69.52017283676317L20.93151122093201,69.49229740488835L21.43275361824036,69.47557215233682L21.67873368358612,69.46553700317233L21.924713748931886,69.45951591452554L22.33545404672623,69.45590326164412L22.702103578090668,69.45373567002572L22.948083643436433,69.45243511509439L23.36114450788498,69.45165478214993L23.799731605529786,69.45118658238837L24.22439530324936,69.4509056625333L24.47037536859512,69.45073711062093L24.966976632595063,69.45063597947376L25.21295669794083,69.45057530078552L25.45893676328659,69.45053889357261L26.15278619289398,69.45051704924491L26.728286723136904,69.45050394264825L27.136706454277036,69.45049607869028L27.3826865196228,69.4504913603155L27.628666584968567,69.45048852929064L27.87464665031433,69.45048683067571L28.13222954893112,69.45048581150677L28.378209614276887,69.45048520000539L28.624189679622653,69.45048483310454L29.11614981031418,69.45048461296406L29.666124107360837,69.45048448087978L29.912104172706602,69.45048440162918L30.26715087080002,69.45048435407884L30.622197568893434,69.45048432554863L30.8681776342392,69.45048430843049L31.237147732257842,69.45048429815965L32.3974310593605,69.45048429199711L32.76176002407074,69.45048428829959L33.01934292268753,69.45048428608108L33.2653229880333,69.45048428474999L33.62269025278091,69.45048428395131L33.868670318126675,69.45048428347214L34.36527158212662,69.4504842831846L34.61125164747238,69.45048428301209L34.85723171281815,69.45048428290858L35.72976477479935,69.4504842828465L35.97574484014511,69.45048428280921L36.22404547214508,69.45048428278686L36.586053870201106,69.45048428277344L36.832033935546875,69.45048428276539L37.19868346691131,69.45048428276054L37.57925639820098,69.45048428275769L37.9319825296402,69.45048428275594L38.66296102571488,69.4504842827549L39.10386869001388,69.45048428275426L39.34984875535965,69.45048428275389L39.595828820705414,69.45048428275365L39.84180888605118,69.45048428275351L40.266472583770756,69.45048428275344L40.62151928186417,69.4504842827534L40.86749934720993,69.45048428275335L41.1134794125557,69.45048428275334L41.35945947790145,69.45048428275334L41.60543954324722,69.45048428275334L41.851419608592984,69.45048428275334L42.33177690601349,69.45048428275334L43.30177376747131,69.45048428275334L43.54775383281708,69.45048428275334L44.17430682945251,69.45048428275334L44.608252793788914,69.45048428275334L44.854232859134676,69.45048428275334L45.20695899057388,69.45048428275334L46.211764351844785,69.45048428275334L46.62714578294754,69.45048428275334L47.18408177995681,69.45048428275334L47.43006184530258,69.45048428275334L47.676041910648344,69.45048428275334L48.72493803834915,69.45048428275334L49.09854926967621,69.45048428275334L49.54177750062942,69.45048428275334L50.06622556447982,69.45048428275334L50.31220562982559,69.45048428275334L50.6649317612648,69.45048428275334L51.01765789270401,69.45048428275334L51.26363795804977,69.45048428275334L51.64653145599365,69.45048428275334L51.892511521339415,69.45048428275334L52.138491586685184,69.45048428275334L52.57707868432998,69.45048428275334L52.82305874967575,69.45048428275334L53.180426014423375,69.45048428275334L53.43800891304016,69.45048428275334L53.683988978385926,69.45048428275334L53.92996904373169,73.93682544221812L54.50779014062881,76.62863013789698L54.753770205974575,78.2437129553043L55.22716580343246,79.68905092946511L55.473145868778225,80.55625371396162L55.719125934123994,81.0765753846595L55.97670883274078,81.38876838707823L56.34103779745102,81.57608418852949L56.77266319513321,81.68847366940022L57.12770989322662,81.75590735792268L57.37368995857239,81.79636757103616L57.619670023918154,81.82064369890423L57.98631955528259,81.83520937562507L58.40170098638534,81.84394878165759L58.65928388500214,81.8491924252771L58.905263950347894,81.85233861144879L59.52717581367492,81.8542263231518L59.77315587902069,81.85535895017362L60.181575610160834,81.85603852638671L60.42755567550659,81.85644627211457L60.94504203939437,81.85669091955127L61.297768170833585,81.85683770801327L61.72011130189895,81.85692578109051L61.96609136724472,81.85697862493684L62.212071432590484,81.85701033124465L62.69242873001098,81.85702935502933L63.049795994758604,81.85704076930013L63.30737889337539,81.85704761786262L64.07084532260895,81.8570517270001L64.31682538795471,81.85705419248258L64.71364228582382,81.8570556717721L65.29146338272095,81.8570565593458L65.64883064746856,81.85705709189004L66.02476244544982,81.85705741141655L66.38909141016006,81.85705760313247L67.13167273950577,81.85705771816203L67.50296340417862,81.85705778717974L68.4126255326271,81.85705782859036L68.65860559797287,81.85705785343676L69.29212029457092,81.85705786834457L69.53810035991668,81.8570578772893L69.78408042526245,81.85705788265611L70.03006049060822,81.85705788587622L70.39671002197267,81.85705788780827L70.74943615341186,81.8570578889675L70.99541621875763,81.85705788966303L71.2413962841034,81.85705789008037L71.48737634944915,81.85705789033075L71.73335641479493,81.85705789048099L72.17194351243973,81.85705789057113L72.41792357778549,81.85705789062521L72.80777877569199,81.85705789065766L73.19067227363585,81.85705789067714L73.43665233898163,81.85705789068881L73.68263240432739,81.85705789069583L73.94021530294418,81.85705789070003L74.18619536828996,81.85705789070255L74.63638529920578,81.85705789070406L74.88236536455155,81.85705789070497L75.12834542989731,81.85705789070552L75.37432549524307,81.85705789070586L75.63190839385986,81.85705789070605L76.11922739124297,81.85705789070617L76.55781448888779,81.85705789070623L76.81539738750458,81.85705789070627L77.1750852189064,81.85705789070632L77.43266811752319,81.85705789070632L77.79003538227082,81.85705789070632L78.03601544761658,81.85705789070632L78.3957032790184,81.85705789070632L78.65328617763518,81.85705789070632L79.44924054002762,81.85705789070632L79.69522060537338,81.85705789070632L79.95280350399018,81.85705789070632L80.19878356933593,81.85705789070632L80.55150970077514,81.85705789070632L80.79748976612092,81.85705789070632L81.15253646421432,81.85705789070632L81.50990372896194,81.85705789070632L81.7558837943077,85.66957146808502L82.00186385965347,87.95707961451227L82.35691055774689,89.32958450236859L83.16910888671876,90.15308743508238L83.41508895206451,90.64718919471068L83.85831718301772,90.94365025048762L84.1042972483635,91.12152688395383L84.35027731370926,91.22825286403355L84.7192474117279,91.29228845208137L84.96522747707367,91.33070980491006L85.21120754241943,91.35376261660728L85.81455487251282,91.36759430362562L86.06053493785858,91.3758933158366L86.5478539352417,91.38087272316322L86.79383400058745,91.38386036755917L87.1535218319893,91.38565295419674L87.39950189733506,91.38672850617927L87.6454819626808,91.38737383736881L87.89146202802658,91.38776103608254L88.38574272537232,91.38799335531075L88.7755979232788,91.3881327468477L89.02157798862457,91.38821638176985L89.26755805397033,91.38826656272315L89.52514095258714,91.38829667129514L89.94516351699829,91.38831473643832L90.19114358234407,91.38832557552425L90.61116614675522,91.3883320789758L90.96621284484863,91.38833598104671L91.32125954294206,91.38833832228926L91.5672396082878,91.3883397270348L91.81321967363357,91.38834056988213L92.05919973897934,91.38834107559053L92.61845630264283,91.38834137901556L92.86443636798859,91.38834156107058L93.11041643333435,91.38834167030357L93.35639649868011,91.3883417358434L93.60237656402587,91.38834177516728L93.95742326211929,91.3883417987616L94.20340332746505,91.3883418129182L94.44938339281082,91.38834182141217L94.69536345815659,91.38834182650855L94.94134352350234,91.38834182956637L95.18964415550232,91.38834183140105L95.43562422084808,91.38834183250187L95.68160428619385,91.38834183316236L95.93918718481065,91.38834183355864L96.4938026151657,91.38834183379645L96.73978268051147,91.38834183393912L96.98576274585724,91.38834183402473L97.23406337785721,91.38834183407607L97.48004344320297,91.38834183410688L97.73762634181976,91.38834183412537L97.98360640716552,91.38834183413647L98.2295864725113,91.38834183414313L98.48716937112809,91.3883418341471L98.73314943647384,91.38834183414951L99.09283726787567,91.38834183415095L99.33881733322144,91.38834183415182L99.5847973985672,91.38834183415236L99.83077746391297,91.38834183415265L100.07675752925873,91.38834183415283L100.44108649396897,91.38834183415294L100.82165942525863,91.38834183415301L101.17670612335205,91.38834183415307L101.42268618869782,91.38834183415307L101.66866625404357,91.38834183415311L101.91464631938935,91.38834183415311L102.27433415079118,91.38834183415311L102.52031421613692,91.38834183415311L102.7662942814827,91.38834183415311L103.19559911251068,91.38834183415311L103.44157917785644,91.38834183415311L103.79430530929567,91.38834183415311L104.04028537464141,91.38834183415311L104.28626543998718,91.38834183415311L104.53224550533295,91.38834183415311L104.78982840394974,91.38834183415311L105.0358084692955,91.38834183415311L105.39781686735154,91.38834183415311L105.6437969326973,91.38834183415311L105.88977699804305,91.38834183415311L106.13575706338882,91.38834183415311L106.61611436080933,91.38834183415311L107.01061069202423,91.38834183415311L107.25659075736999,91.38834183415311L107.50257082271575,91.38834183415311L107.74855088806153,91.38834183415311L108.00613378667832,91.38834183415311L108.25211385202408,91.38834183415311L108.50041448402405,91.38834183415311L108.74639454936981,91.38834183415311L108.99237461471559,91.38834183415311L109.23835468006133,102.88907004391947L109.48433474540711,109.7895069697793L109.7419176440239,113.92976912529522L109.98789770936966,116.41392641860475L110.23387777471542,117.9044207945905L110.47985784006119,118.79871742018193L110.72583790540695,119.33529539553676L111.13425763654709,119.65724218074969L111.38023770189287,119.85041025187743L111.62621776723861,119.96631109455409L111.87219783258438,120.03585160016009L112.12978073120118,120.07757590352367L112.38736362981797,120.10261048554183L112.63334369516372,120.11763123475272L112.8793237605095,120.12664368427926L113.12530382585526,120.13205115399518L113.37128389120102,120.13529563582475L113.61726395654678,120.13724232492247L113.86324402189254,120.1384103383811L114.10922408723832,120.19402626169497L114.46195021867753,120.22739581568331L114.70793028402328,120.2474175480763L114.95623091602326,120.25943058751209L115.20221098136902,120.26663841117357L115.4481910467148,120.27096310537047L115.69417111206054,120.27355792188858L115.9401511774063,120.27511481179947L116.19773407602311,120.27604894574601L116.44371414136887,120.27660942611392L116.68969420671462,120.27694571433467L116.9356742720604,120.27714748726713L117.18165433740616,120.27726855102661L117.43923723602295,120.27734118928227L117.69682013463975,120.27738477223566L117.9428001999855,120.27741092200772L118.18878026533126,120.27742661187096L118.43476033067704,120.2774360257889L118.6807403960228,120.27744167413967L118.92672046136856,120.27744506315013L119.18430335998535,120.27744709655637L119.43028342533111,122.84668694242117L119.67626349067689,124.38823084994003L119.92224355602264,125.31315719445135L120.16822362136841,125.86811300115815L120.52327031946183,126.20108648518224L120.77157095146178,126.40087057559668L121.26121051549912,126.52074102984535L121.50951114749908,126.59266330239454L121.75549121284484,126.63581666592407L122.10821734428406,126.66170868404177L122.35419740962982,126.67724389491241L122.61178030824662,126.68656502143477L122.85776037359237,126.6921576973482L123.10374043893815,126.69551330289625L123.35204107093811,126.69752666622509L123.6096239695549,126.69873468422239L123.85560403490067,126.69945949502079L124.11318693351745,126.69989438149979L124.37076983213424,126.70015531338723L124.61674989748002,126.70031187251968L124.86505052947999,126.70040580799912L125.11103059482573,126.70046216928681L125.35701066017151,126.70049598605942L125.60299072551727,126.70051627612298L125.84897079086305,126.70052845016112L126.0949508562088,126.70053575458401L126.34093092155456,126.70054013723774L126.58691098690034,126.70054276682998L126.8328910522461,126.70054434458531L127.09047395086287,126.70054529123851L127.33645401620865,126.70054585923044L127.58475464820862,126.7005462000256L127.8330552802086,126.7005464045027L128.07903534555436,126.70054652718895L128.3250154109001,126.7005466008007L128.57099547624588,126.70054664496776L128.82857837486267,126.70054667146799L129.08616127347946,126.70054668736813L129.3321413388252,126.7005466969082L129.74752276992797,126.70054670263227L129.99350283527374,126.70054670606669L130.3624729332924,126.70054670812736L130.60845299863817,126.70054670936376L130.85443306398392,126.70054671010558L131.1120159626007,126.70054671055068L131.35799602794648,126.70054671081773L131.60397609329223,126.70054671097797L131.849956158638,126.70054671107413L132.09593622398376,126.70054671113182L132.34191628932953,126.70054671116642L132.5878963546753,129.53806861280012L133.00791891908645,131.24058175378033L133.25389898443223,132.26208963836848L133.49987904977797,132.87499436912134L133.74585911512375,133.24273720757307L133.99415974712372,133.4633829106441L134.4257851448059,133.59577033248672L134.67176521015168,133.6752027855923L134.91774527549742,133.72286225745563L135.1637253408432,133.75145794057366L135.40970540618898,133.76861535044446L135.65568547153472,133.77890979636695L135.9016655368805,133.7850864639204L136.14764560222625,133.7887924644525L136.39362566757202,133.79101606477175L136.6396057329178,133.79235022496331L136.88558579826355,133.79315072107826L137.13156586360932,133.79363101874722L137.37754592895507,133.7939191973486L137.62352599430085,133.79409210450942L137.8695060596466,133.7941958488059L138.11548612499237,133.7942580953838L138.36146619033815,133.79429544333055L138.6074462556839,133.7943178520986L138.8650291543007,133.79433129735943L139.11100921964646,133.79433936451593L139.3569892849922,133.7943442048098L139.60528991699218,133.79434710898616L139.85126998233795,133.79434885149195L140.0972500476837,133.79434989699544L140.34323011302948,133.79435052429753L140.58921017837525,133.79435090067878L140.83519024372103,133.79435112650754L141.08117030906678,133.79435126200477L141.33875320768357,133.79435134330313L141.59633610630033,133.79435139208212L141.8423161716461,133.79435142134955L142.09989907026292,133.79435143890998L142.54312730121615,133.79435144944625L142.7891073665619,133.794351455768L143.20448879766465,133.79435145956108L143.6686021285057,133.7943514618369L143.91458219385146,133.7943514632024L144.16056225919723,133.7943514640217L144.406542324543,133.79435146451328L144.65252238988876,133.79435146480824L144.89850245523454,133.79435146498523L145.15608535385132,133.79435146509138L145.40206541919707,133.7943514651551L145.65036605119704,133.79435146519333L145.89634611654282,133.79435146521627L146.1539290151596,133.79435146523002L146.39990908050538,133.7943514652383L146.64588914585113,133.7943514652432L146.89186921119688,133.7943514652462L147.13784927654265,133.79435146524798L147.38382934188843,135.5099254922013L147.6298094072342,136.53926990837329L147.87578947257995,137.15687655807645L148.12176953792573,137.52744054789838L148.3677496032715,137.74977894179153L148.61372966861722,137.8831819781274L148.859709733963,137.96322379992895L149.10568979930878,138.01124889300985L149.35166986465455,138.0400639488584L149.5976499300003,138.05735298236755L149.84362999534608,138.06772640247303L150.08961006069185,138.07395045453632L150.3355901260376,138.0776848857743L150.58157019138335,138.07992554451707L150.82755025672913,138.08126993976273L151.0758508887291,138.08207657691014L151.32415152072906,138.08256055919858L151.57013158607484,138.08285094857163L151.8161116514206,138.08302518219548L152.06441228342055,138.0831297223698L152.32199518203737,138.08319244647436L152.57957808065413,138.08323008093714L152.83716097927092,138.08325266161478L153.0831410446167,138.08326621002138L153.34072394323348,138.0832743390653L153.58670400857926,138.0832792164917L153.83268407392504,138.08328214294752L154.07866413927076,138.083283898821L154.32464420461653,138.0832849523451L154.5706242699623,138.08328558445956L154.81660433530809,138.08328596372823L155.06258440065383,138.08328619128943L155.3085644659996,138.08328632782616L155.55454453134539,142.91860031005493L155.80052459669113,145.81978869939215L156.04650466203688,147.5605017329945L156.29248472738266,148.60492955315593L156.54078535938265,149.23158624525277L156.7983682579994,149.6075802605109L157.0443483233452,149.83317666966573L157.29032838869097,149.96853451515867L157.5363084540367,150.0497492224544L157.7822885193825,150.09847804683187L158.02826858472824,150.12771534145836L158.28585148334503,150.14525771823423" fill="none"></path></g></g></g></g><g opacity="0.2"><g><g><g><path style="fill: none;" stroke="rgb(204, 51, 17)" stroke-width="2px" d="M159.43453197717665,176.00224049893367L160.85239820289613,175.4178759644463L162.25866159534453,24.518743874426576L163.66492498779297,24.51872836277762L165.07118838024138,24.19364297965075L166.47745177268982,24.19344132821425L167.88371516513826,24.19344132821425L169.28997855758666,24.19344132821425L170.6962419500351,24.19344132821425L172.1025053424835,24.19344132821425L173.50876873493195,24.19344132821425L174.91503212738036,24.19344132821425L176.3212955198288,24.19344132821425L177.72755891227723,24.19344132821425L179.13382230472564,24.19344132821425L180.54008569717408,24.19344132821425L181.95795192289353,23.421488605957713L183.36421531534197,23.421488605957713L184.77047870779037,23.421488605957713L186.179062666893,23.421488605957713L187.5853260593414,23.421488605957713L188.99158945178985,23.421488605957713L190.3978528442383,23.421488605957713L191.81571906995774,23.210631005789033L193.22198246240617,23.210631005789033L194.63056642150877,23.210631005789033L196.04843264722825,23.210631005789033L197.45469603967666,23.210631005789033L198.8609594321251,23.210631005789033L200.2672228245735,23.210631005789033L201.67348621702195,23.210631005789033L203.09135244274137,23.100420739912078L204.4976158351898,23.100420739912078L205.91548206090928,23.100420739912078L207.3217454533577,23.100420739912078L208.72800884580613,23.100420739912078L210.13427223825454,23.100420739912078L211.55213846397402,23.100420739912078L212.95840185642243,23.100420739912078L214.36466524887086,23.100420739912078L215.77092864131927,23.100420739912078L217.18879486703872,23.100420739912078L218.60666109275817,23.100420739912078L220.0129244852066,23.100420739912078L221.41918787765505,23.100420739912078L222.82545127010346,23.100420739912078L224.2317146625519,23.100420739912078L225.64958088827132,23.100420739912078L227.05584428071975,23.100420739912078L228.46210767316816,23.100420739912078L229.87997389888764,23.100420739912078L231.28623729133605,23.100420739912078L232.6925006837845,23.100420739912078L234.09876407623292,23.100420739912078L235.50502746868133,23.100420739912078L236.91129086112977,23.100420739912078L238.31755425357818,23.100420739912078L239.72381764602662,23.100420739912078L241.13008103847503,23.100420739912078L242.53634443092346,23.100420739912078L243.94492839002612,23.100420739912078L245.36279461574554,23.100420739912078L246.76905800819398,23.100420739912078L248.1753214006424,23.100420739912078L249.58158479309083,23.100420739912078L250.98784818553924,23.100420739912078L252.39411157798767,23.100420739912078L253.8026955370903,23.100420739912078L255.20895892953874,23.100420739912078L256.6152223219872,23.100420739912078L258.0330885477066,23.100420739912078" fill="none"></path></g><g><path style="fill: none;" stroke="rgb(255, 112, 67)" stroke-width="2px" d="M7.416531026840209,159.81832878911027L8.089495356559754,131.93527839816596L8.488632821083069,131.93527839816596L8.734612886428833,131.93527839816596L9.317075116634369,125.53802811869681L9.799752980709076,125.53802811869681L10.540013743400575,122.77752853442361L11.210657506465912,122.77752853442361L11.456637571811676,122.77752853442361L12.136563601493837,122.77752853442361L12.3825436668396,122.77752853442361L12.628523732185364,122.77752853442361L12.983570430278778,122.77752853442361L13.347899394989014,122.77752853442361L13.593879460334778,122.77752853442361L14.710072021007537,69.45048428275332L15.396959750652314,69.45048428275332L15.642939815998078,69.45048428275332L16.819467109680176,69.45048428275332L17.34391517353058,69.45048428275332L17.917095137119293,69.45048428275332L18.299988635063173,69.45048428275332L18.873168598651887,69.45048428275332L19.11914866399765,69.45048428275332L19.365128729343414,69.45048428275332L19.61110879468918,69.45048428275332L20.0125668258667,69.45048428275332L20.369934090614322,69.45048428275332L20.93151122093201,69.45048428275332L21.43275361824036,69.45048428275332L21.67873368358612,69.45048428275332L21.924713748931886,69.45048428275332L22.33545404672623,69.45048428275332L22.702103578090668,69.45048428275332L22.948083643436433,69.45048428275332L23.36114450788498,69.45048428275332L23.799731605529786,69.45048428275332L24.22439530324936,69.45048428275332L24.47037536859512,69.45048428275332L24.966976632595063,69.45048428275332L25.21295669794083,69.45048428275332L25.45893676328659,69.45048428275332L26.15278619289398,69.45048428275332L26.728286723136904,69.45048428275332L27.136706454277036,69.45048428275332L27.3826865196228,69.45048428275332L27.628666584968567,69.45048428275332L27.87464665031433,69.45048428275332L28.13222954893112,69.45048428275332L28.378209614276887,69.45048428275332L28.624189679622653,69.45048428275332L29.11614981031418,69.45048428275332L29.666124107360837,69.45048428275332L29.912104172706602,69.45048428275332L30.26715087080002,69.45048428275332L30.622197568893434,69.45048428275332L30.8681776342392,69.45048428275332L31.237147732257842,69.45048428275332L32.3974310593605,69.45048428275332L32.76176002407074,69.45048428275332L33.01934292268753,69.45048428275332L33.2653229880333,69.45048428275332L33.62269025278091,69.45048428275332L33.868670318126675,69.45048428275332L34.36527158212662,69.45048428275332L34.61125164747238,69.45048428275332L34.85723171281815,69.45048428275332L35.72976477479935,69.45048428275332L35.97574484014511,69.45048428275332L36.22404547214508,69.45048428275332L36.586053870201106,69.45048428275332L36.832033935546875,69.45048428275332L37.19868346691131,69.45048428275332L37.57925639820098,69.45048428275332L37.9319825296402,69.45048428275332L38.66296102571488,69.45048428275332L39.10386869001388,69.45048428275332L39.34984875535965,69.45048428275332L39.595828820705414,69.45048428275332L39.84180888605118,69.45048428275332L40.266472583770756,69.45048428275332L40.62151928186417,69.45048428275332L40.86749934720993,69.45048428275332L41.1134794125557,69.45048428275332L41.35945947790145,69.45048428275332L41.60543954324722,69.45048428275332L41.851419608592984,69.45048428275332L42.33177690601349,69.45048428275332L43.30177376747131,69.45048428275332L43.54775383281708,69.45048428275332L44.17430682945251,69.45048428275332L44.608252793788914,69.45048428275332L44.854232859134676,69.45048428275332L45.20695899057388,69.45048428275332L46.211764351844785,69.45048428275332L46.62714578294754,69.45048428275332L47.18408177995681,69.45048428275332L47.43006184530258,69.45048428275332L47.676041910648344,69.45048428275332L48.72493803834915,69.45048428275332L49.09854926967621,69.45048428275332L49.54177750062942,69.45048428275332L50.06622556447982,69.45048428275332L50.31220562982559,69.45048428275332L50.6649317612648,69.45048428275332L51.01765789270401,69.45048428275332L51.26363795804977,69.45048428275332L51.64653145599365,69.45048428275332L51.892511521339415,69.45048428275332L52.138491586685184,69.45048428275332L52.57707868432998,69.45048428275332L52.82305874967575,69.45048428275332L53.180426014423375,69.45048428275332L53.43800891304016,69.45048428275332L53.683988978385926,69.45048428275332L53.92996904373169,80.66633718141529L54.50779014062881,80.66633718141529L54.753770205974575,80.66633718141529L55.22716580343246,81.85705789070634L55.473145868778225,81.85705789070634L55.719125934123994,81.85705789070634L55.97670883274078,81.85705789070634L56.34103779745102,81.85705789070634L56.77266319513321,81.85705789070634L57.12770989322662,81.85705789070634L57.37368995857239,81.85705789070634L57.619670023918154,81.85705789070634L57.98631955528259,81.85705789070634L58.40170098638534,81.85705789070634L58.65928388500214,81.85705789070634L58.905263950347894,81.85705789070634L59.52717581367492,81.85705789070634L59.77315587902069,81.85705789070634L60.181575610160834,81.85705789070634L60.42755567550659,81.85705789070634L60.94504203939437,81.85705789070634L61.297768170833585,81.85705789070634L61.72011130189895,81.85705789070634L61.96609136724472,81.85705789070634L62.212071432590484,81.85705789070634L62.69242873001098,81.85705789070634L63.049795994758604,81.85705789070634L63.30737889337539,81.85705789070634L64.07084532260895,81.85705789070634L64.31682538795471,81.85705789070634L64.71364228582382,81.85705789070634L65.29146338272095,81.85705789070634L65.64883064746856,81.85705789070634L66.02476244544982,81.85705789070634L66.38909141016006,81.85705789070634L67.13167273950577,81.85705789070634L67.50296340417862,81.85705789070634L68.4126255326271,81.85705789070634L68.65860559797287,81.85705789070634L69.29212029457092,81.85705789070634L69.53810035991668,81.85705789070634L69.78408042526245,81.85705789070634L70.03006049060822,81.85705789070634L70.39671002197267,81.85705789070634L70.74943615341186,81.85705789070634L70.99541621875763,81.85705789070634L71.2413962841034,81.85705789070634L71.48737634944915,81.85705789070634L71.73335641479493,81.85705789070634L72.17194351243973,81.85705789070634L72.41792357778549,81.85705789070634L72.80777877569199,81.85705789070634L73.19067227363585,81.85705789070634L73.43665233898163,81.85705789070634L73.68263240432739,81.85705789070634L73.94021530294418,81.85705789070634L74.18619536828996,81.85705789070634L74.63638529920578,81.85705789070634L74.88236536455155,81.85705789070634L75.12834542989731,81.85705789070634L75.37432549524307,81.85705789070634L75.63190839385986,81.85705789070634L76.11922739124297,81.85705789070634L76.55781448888779,81.85705789070634L76.81539738750458,81.85705789070634L77.1750852189064,81.85705789070634L77.43266811752319,81.85705789070634L77.79003538227082,81.85705789070634L78.03601544761658,81.85705789070634L78.3957032790184,81.85705789070634L78.65328617763518,81.85705789070634L79.44924054002762,81.85705789070634L79.69522060537338,81.85705789070634L79.95280350399018,81.85705789070634L80.19878356933593,81.85705789070634L80.55150970077514,81.85705789070634L80.79748976612092,81.85705789070634L81.15253646421432,81.85705789070634L81.50990372896194,81.85705789070634L81.7558837943077,91.38834183415311L82.00186385965347,91.38834183415311L82.35691055774689,91.38834183415311L83.16910888671876,91.38834183415311L83.41508895206451,91.38834183415311L83.85831718301772,91.38834183415311L84.1042972483635,91.38834183415311L84.35027731370926,91.38834183415311L84.7192474117279,91.38834183415311L84.96522747707367,91.38834183415311L85.21120754241943,91.38834183415311L85.81455487251282,91.38834183415311L86.06053493785858,91.38834183415311L86.5478539352417,91.38834183415311L86.79383400058745,91.38834183415311L87.1535218319893,91.38834183415311L87.39950189733506,91.38834183415311L87.6454819626808,91.38834183415311L87.89146202802658,91.38834183415311L88.38574272537232,91.38834183415311L88.7755979232788,91.38834183415311L89.02157798862457,91.38834183415311L89.26755805397033,91.38834183415311L89.52514095258714,91.38834183415311L89.94516351699829,91.38834183415311L90.19114358234407,91.38834183415311L90.61116614675522,91.38834183415311L90.96621284484863,91.38834183415311L91.32125954294206,91.38834183415311L91.5672396082878,91.38834183415311L91.81321967363357,91.38834183415311L92.05919973897934,91.38834183415311L92.61845630264283,91.38834183415311L92.86443636798859,91.38834183415311L93.11041643333435,91.38834183415311L93.35639649868011,91.38834183415311L93.60237656402587,91.38834183415311L93.95742326211929,91.38834183415311L94.20340332746505,91.38834183415311L94.44938339281082,91.38834183415311L94.69536345815659,91.38834183415311L94.94134352350234,91.38834183415311L95.18964415550232,91.38834183415311L95.43562422084808,91.38834183415311L95.68160428619385,91.38834183415311L95.93918718481065,91.38834183415311L96.4938026151657,91.38834183415311L96.73978268051147,91.38834183415311L96.98576274585724,91.38834183415311L97.23406337785721,91.38834183415311L97.48004344320297,91.38834183415311L97.73762634181976,91.38834183415311L97.98360640716552,91.38834183415311L98.2295864725113,91.38834183415311L98.48716937112809,91.38834183415311L98.73314943647384,91.38834183415311L99.09283726787567,91.38834183415311L99.33881733322144,91.38834183415311L99.5847973985672,91.38834183415311L99.83077746391297,91.38834183415311L100.07675752925873,91.38834183415311L100.44108649396897,91.38834183415311L100.82165942525863,91.38834183415311L101.17670612335205,91.38834183415311L101.42268618869782,91.38834183415311L101.66866625404357,91.38834183415311L101.91464631938935,91.38834183415311L102.27433415079118,91.38834183415311L102.52031421613692,91.38834183415311L102.7662942814827,91.38834183415311L103.19559911251068,91.38834183415311L103.44157917785644,91.38834183415311L103.79430530929567,91.38834183415311L104.04028537464141,91.38834183415311L104.28626543998718,91.38834183415311L104.53224550533295,91.38834183415311L104.78982840394974,91.38834183415311L105.0358084692955,91.38834183415311L105.39781686735154,91.38834183415311L105.6437969326973,91.38834183415311L105.88977699804305,91.38834183415311L106.13575706338882,91.38834183415311L106.61611436080933,91.38834183415311L107.01061069202423,91.38834183415311L107.25659075736999,91.38834183415311L107.50257082271575,91.38834183415311L107.74855088806153,91.38834183415311L108.00613378667832,91.38834183415311L108.25211385202408,91.38834183415311L108.50041448402405,91.38834183415311L108.74639454936981,91.38834183415311L108.99237461471559,91.38834183415311L109.23835468006133,120.14016235856907L109.48433474540711,120.14016235856907L109.7419176440239,120.14016235856907L109.98789770936966,120.14016235856907L110.23387777471542,120.14016235856907L110.47985784006119,120.14016235856907L110.72583790540695,120.14016235856907L111.13425763654709,120.14016235856907L111.38023770189287,120.14016235856907L111.62621776723861,120.14016235856907L111.87219783258438,120.14016235856907L112.12978073120118,120.14016235856907L112.38736362981797,120.14016235856907L112.63334369516372,120.14016235856907L112.8793237605095,120.14016235856907L113.12530382585526,120.14016235856907L113.37128389120102,120.14016235856907L113.61726395654678,120.14016235856907L113.86324402189254,120.14016235856907L114.10922408723832,120.27745014666579L114.46195021867753,120.27745014666579L114.70793028402328,120.27745014666579L114.95623091602326,120.27745014666579L115.20221098136902,120.27745014666579L115.4481910467148,120.27745014666579L115.69417111206054,120.27745014666579L115.9401511774063,120.27745014666579L116.19773407602311,120.27745014666579L116.44371414136887,120.27745014666579L116.68969420671462,120.27745014666579L116.9356742720604,120.27745014666579L117.18165433740616,120.27745014666579L117.43923723602295,120.27745014666579L117.69682013463975,120.27745014666579L117.9428001999855,120.27745014666579L118.18878026533126,120.27745014666579L118.43476033067704,120.27745014666579L118.6807403960228,120.27745014666579L118.92672046136856,120.27745014666579L119.18430335998535,120.27745014666579L119.43028342533111,126.70054671121832L119.67626349067689,126.70054671121832L119.92224355602264,126.70054671121832L120.16822362136841,126.70054671121832L120.52327031946183,126.70054671121832L120.77157095146178,126.70054671121832L121.26121051549912,126.70054671121832L121.50951114749908,126.70054671121832L121.75549121284484,126.70054671121832L122.10821734428406,126.70054671121832L122.35419740962982,126.70054671121832L122.61178030824662,126.70054671121832L122.85776037359237,126.70054671121832L123.10374043893815,126.70054671121832L123.35204107093811,126.70054671121832L123.6096239695549,126.70054671121832L123.85560403490067,126.70054671121832L124.11318693351745,126.70054671121832L124.37076983213424,126.70054671121832L124.61674989748002,126.70054671121832L124.86505052947999,126.70054671121832L125.11103059482573,126.70054671121832L125.35701066017151,126.70054671121832L125.60299072551727,126.70054671121832L125.84897079086305,126.70054671121832L126.0949508562088,126.70054671121832L126.34093092155456,126.70054671121832L126.58691098690034,126.70054671121832L126.8328910522461,126.70054671121832L127.09047395086287,126.70054671121832L127.33645401620865,126.70054671121832L127.58475464820862,126.70054671121832L127.8330552802086,126.70054671121832L128.07903534555436,126.70054671121832L128.3250154109001,126.70054671121832L128.57099547624588,126.70054671121832L128.82857837486267,126.70054671121832L129.08616127347946,126.70054671121832L129.3321413388252,126.70054671121832L129.74752276992797,126.70054671121832L129.99350283527374,126.70054671121832L130.3624729332924,126.70054671121832L130.60845299863817,126.70054671121832L130.85443306398392,126.70054671121832L131.1120159626007,126.70054671121832L131.35799602794648,126.70054671121832L131.60397609329223,126.70054671121832L131.849956158638,126.70054671121832L132.09593622398376,126.70054671121832L132.34191628932953,126.70054671121832L132.5878963546753,133.79435146525066L133.00791891908645,133.79435146525066L133.25389898443223,133.79435146525066L133.49987904977797,133.79435146525066L133.74585911512375,133.79435146525066L133.99415974712372,133.79435146525066L134.4257851448059,133.79435146525066L134.67176521015168,133.79435146525066L134.91774527549742,133.79435146525066L135.1637253408432,133.79435146525066L135.40970540618898,133.79435146525066L135.65568547153472,133.79435146525066L135.9016655368805,133.79435146525066L136.14764560222625,133.79435146525066L136.39362566757202,133.79435146525066L136.6396057329178,133.79435146525066L136.88558579826355,133.79435146525066L137.13156586360932,133.79435146525066L137.37754592895507,133.79435146525066L137.62352599430085,133.79435146525066L137.8695060596466,133.79435146525066L138.11548612499237,133.79435146525066L138.36146619033815,133.79435146525066L138.6074462556839,133.79435146525066L138.8650291543007,133.79435146525066L139.11100921964646,133.79435146525066L139.3569892849922,133.79435146525066L139.60528991699218,133.79435146525066L139.85126998233795,133.79435146525066L140.0972500476837,133.79435146525066L140.34323011302948,133.79435146525066L140.58921017837525,133.79435146525066L140.83519024372103,133.79435146525066L141.08117030906678,133.79435146525066L141.33875320768357,133.79435146525066L141.59633610630033,133.79435146525066L141.8423161716461,133.79435146525066L142.09989907026292,133.79435146525066L142.54312730121615,133.79435146525066L142.7891073665619,133.79435146525066L143.20448879766465,133.79435146525066L143.6686021285057,133.79435146525066L143.91458219385146,133.79435146525066L144.16056225919723,133.79435146525066L144.406542324543,133.79435146525066L144.65252238988876,133.79435146525066L144.89850245523454,133.79435146525066L145.15608535385132,133.79435146525066L145.40206541919707,133.79435146525066L145.65036605119704,133.79435146525066L145.89634611654282,133.79435146525066L146.1539290151596,133.79435146525066L146.39990908050538,133.79435146525066L146.64588914585113,133.79435146525066L146.89186921119688,133.79435146525066L147.13784927654265,133.79435146525066L147.38382934188843,138.08328653263123L147.6298094072342,138.08328653263123L147.87578947257995,138.08328653263123L148.12176953792573,138.08328653263123L148.3677496032715,138.08328653263123L148.61372966861722,138.08328653263123L148.859709733963,138.08328653263123L149.10568979930878,138.08328653263123L149.35166986465455,138.08328653263123L149.5976499300003,138.08328653263123L149.84362999534608,138.08328653263123L150.08961006069185,138.08328653263123L150.3355901260376,138.08328653263123L150.58157019138335,138.08328653263123L150.82755025672913,138.08328653263123L151.0758508887291,138.08328653263123L151.32415152072906,138.08328653263123L151.57013158607484,138.08328653263123L151.8161116514206,138.08328653263123L152.06441228342055,138.08328653263123L152.32199518203737,138.08328653263123L152.57957808065413,138.08328653263123L152.83716097927092,138.08328653263123L153.0831410446167,138.08328653263123L153.34072394323348,138.08328653263123L153.58670400857926,138.08328653263123L153.83268407392504,138.08328653263123L154.07866413927076,138.08328653263123L154.32464420461653,138.08328653263123L154.5706242699623,138.08328653263123L154.81660433530809,138.08328653263123L155.06258440065383,138.08328653263123L155.3085644659996,138.08328653263123L155.55454453134539,150.17157128339804L155.80052459669113,150.17157128339804L156.04650466203688,150.17157128339804L156.29248472738266,150.17157128339804L156.54078535938265,150.17157128339804L156.7983682579994,150.17157128339804L157.0443483233452,150.17157128339804L157.29032838869097,150.17157128339804L157.5363084540367,150.17157128339804L157.7822885193825,150.17157128339804L158.02826858472824,150.17157128339804L158.28585148334503,150.17157128339804" fill="none"></path></g></g></g></g></g></g><g transform="translate(51, 177)" clip-path="url(#clip_1)"><clipPath id="clip_1"><rect width="278" height="22"></rect></clipPath><g><g><line x1="0" y1="0" x2="0" y2="5" style="visibility: inherit;" fill="rgb(0, 0, 0)" stroke="rgb(204, 204, 204)" stroke-width="1px"></line><line x1="23.205666542053223" y1="0" x2="23.205666542053223" y2="5" style="visibility: inherit;" fill="rgb(0, 0, 0)" stroke="rgb(204, 204, 204)" stroke-width="1px"></line><line x1="46.411333084106445" y1="0" x2="46.411333084106445" y2="5" style="visibility: inherit;" fill="rgb(0, 0, 0)" stroke="rgb(204, 204, 204)" stroke-width="1px"></line><line x1="69.61699962615967" y1="0" x2="69.61699962615967" y2="5" style="visibility: inherit;" fill="rgb(0, 0, 0)" stroke="rgb(204, 204, 204)" stroke-width="1px"></line><line x1="92.82266616821289" y1="0" x2="92.82266616821289" y2="5" style="visibility: inherit;" fill="rgb(0, 0, 0)" stroke="rgb(204, 204, 204)" stroke-width="1px"></line><line x1="116.02833271026611" y1="0" x2="116.02833271026611" y2="5" style="visibility: inherit;" fill="rgb(0, 0, 0)" stroke="rgb(204, 204, 204)" stroke-width="1px"></line><line x1="139.23399925231934" y1="0" x2="139.23399925231934" y2="5" style="visibility: inherit;" fill="rgb(0, 0, 0)" stroke="rgb(204, 204, 204)" stroke-width="1px"></line><line x1="162.43966579437256" y1="0" x2="162.43966579437256" y2="5" style="visibility: inherit;" fill="rgb(0, 0, 0)" stroke="rgb(204, 204, 204)" stroke-width="1px"></line><line x1="185.64533233642578" y1="0" x2="185.64533233642578" y2="5" style="visibility: inherit;" fill="rgb(0, 0, 0)" stroke="rgb(204, 204, 204)" stroke-width="1px"></line><line x1="208.850998878479" y1="0" x2="208.850998878479" y2="5" style="visibility: inherit;" fill="rgb(0, 0, 0)" stroke="rgb(204, 204, 204)" stroke-width="1px"></line><line x1="232.05666542053223" y1="0" x2="232.05666542053223" y2="5" style="visibility: inherit;" fill="rgb(0, 0, 0)" stroke="rgb(204, 204, 204)" stroke-width="1px"></line><line x1="255.26233196258545" y1="0" x2="255.26233196258545" y2="5" style="visibility: inherit;" fill="rgb(0, 0, 0)" stroke="rgb(204, 204, 204)" stroke-width="1px"></line><line x1="278.4679985046387" y1="0" x2="278.4679985046387" y2="5" style="visibility: inherit;" fill="rgb(0, 0, 0)" stroke="rgb(204, 204, 204)" stroke-width="1px"></line></g><g transform="translate(0, 8)"><text style="text-anchor: middle; visibility: hidden; font-family: Roboto, sans-serif; font-size: 12px; font-weight: 200;" x="0" y="0" dx="0em" dy="0.95em" fill="rgb(50, 49, 63)" stroke="none" stroke-width="1px">20k</text><text style="text-anchor: middle; visibility: inherit; font-family: Roboto, sans-serif; font-size: 12px; font-weight: 200;" x="23.205666542053223" y="0" dx="0em" dy="0.95em" fill="rgb(50, 49, 63)" stroke="none" stroke-width="1px">30k</text><text style="text-anchor: middle; visibility: hidden; font-family: Roboto, sans-serif; font-size: 12px; font-weight: 200;" x="46.411333084106445" y="0" dx="0em" dy="0.95em" fill="rgb(50, 49, 63)" stroke="none" stroke-width="1px">40k</text><text style="text-anchor: middle; visibility: inherit; font-family: Roboto, sans-serif; font-size: 12px; font-weight: 200;" x="69.61699962615967" y="0" dx="0em" dy="0.95em" fill="rgb(50, 49, 63)" stroke="none" stroke-width="1px">50k</text><text style="text-anchor: middle; visibility: hidden; font-family: Roboto, sans-serif; font-size: 12px; font-weight: 200;" x="92.82266616821289" y="0" dx="0em" dy="0.95em" fill="rgb(50, 49, 63)" stroke="none" stroke-width="1px">60k</text><text style="text-anchor: middle; visibility: inherit; font-family: Roboto, sans-serif; font-size: 12px; font-weight: 200;" x="116.02833271026611" y="0" dx="0em" dy="0.95em" fill="rgb(50, 49, 63)" stroke="none" stroke-width="1px">70k</text><text style="text-anchor: middle; visibility: hidden; font-family: Roboto, sans-serif; font-size: 12px; font-weight: 200;" x="139.23399925231934" y="0" dx="0em" dy="0.95em" fill="rgb(50, 49, 63)" stroke="none" stroke-width="1px">80k</text><text style="text-anchor: middle; visibility: inherit; font-family: Roboto, sans-serif; font-size: 12px; font-weight: 200;" x="162.43966579437256" y="0" dx="0em" dy="0.95em" fill="rgb(50, 49, 63)" stroke="none" stroke-width="1px">90k</text><text style="text-anchor: middle; visibility: hidden; font-family: Roboto, sans-serif; font-size: 12px; font-weight: 200;" x="185.64533233642578" y="0" dx="0em" dy="0.95em" fill="rgb(50, 49, 63)" stroke="none" stroke-width="1px">100k</text><text style="text-anchor: middle; visibility: inherit; font-family: Roboto, sans-serif; font-size: 12px; font-weight: 200;" x="208.850998878479" y="0" dx="0em" dy="0.95em" fill="rgb(50, 49, 63)" stroke="none" stroke-width="1px">110k</text><text style="text-anchor: middle; visibility: hidden; font-family: Roboto, sans-serif; font-size: 12px; font-weight: 200;" x="232.05666542053223" y="0" dx="0em" dy="0.95em" fill="rgb(50, 49, 63)" stroke="none" stroke-width="1px">120k</text><text style="text-anchor: middle; visibility: inherit; font-family: Roboto, sans-serif; font-size: 12px; font-weight: 200;" x="255.26233196258545" y="0" dx="0em" dy="0.95em" fill="rgb(50, 49, 63)" stroke="none" stroke-width="1px">130k</text><text style="text-anchor: middle; visibility: hidden; font-family: Roboto, sans-serif; font-size: 12px; font-weight: 200;" x="278.4679985046387" y="0" dx="0em" dy="0.95em" fill="rgb(50, 49, 63)" stroke="none" stroke-width="1px">140k</text></g><line x1="0" y1="0" x2="278.4679985046387" y2="0" fill="rgb(0, 0, 0)" stroke="rgb(204, 204, 204)" stroke-width="1px"></line></g></g></g></g></svg>