<svg viewBox="0 0 330 200" xmlns="http://www.w3.org/2000/svg"><g><g><g><g><g><line x1="51.53200149536133" y1="177.89999961853027" x2="46.53200149536133" y2="177.89999961853027" style="visibility: inherit;" fill="rgb(0, 0, 0)" stroke="rgb(204, 204, 204)" stroke-width="1px"></line><line x1="51.53200149536133" y1="158.13333299424912" x2="46.53200149536133" y2="158.13333299424912" style="visibility: inherit;" fill="rgb(0, 0, 0)" stroke="rgb(204, 204, 204)" stroke-width="1px"></line><line x1="51.53200149536133" y1="138.366666369968" x2="46.53200149536133" y2="138.366666369968" style="visibility: inherit;" fill="rgb(0, 0, 0)" stroke="rgb(204, 204, 204)" stroke-width="1px"></line><line x1="51.53200149536133" y1="118.59999974568686" x2="46.53200149536133" y2="118.59999974568686" style="visibility: inherit;" fill="rgb(0, 0, 0)" stroke="rgb(204, 204, 204)" stroke-width="1px"></line><line x1="51.53200149536133" y1="98.83333312140572" x2="46.53200149536133" y2="98.83333312140572" style="visibility: inherit;" fill="rgb(0, 0, 0)" stroke="rgb(204, 204, 204)" stroke-width="1px"></line><line x1="51.53200149536133" y1="79.06666649712456" x2="46.53200149536133" y2="79.06666649712456" style="visibility: inherit;" fill="rgb(0, 0, 0)" stroke="rgb(204, 204, 204)" stroke-width="1px"></line><line x1="51.53200149536133" y1="59.29999987284343" x2="46.53200149536133" y2="59.29999987284343" style="visibility: inherit;" fill="rgb(0, 0, 0)" stroke="rgb(204, 204, 204)" stroke-width="1px"></line><line x1="51.53200149536133" y1="39.53333324856228" x2="46.53200149536133" y2="39.53333324856228" style="visibility: inherit;" fill="rgb(0, 0, 0)" stroke="rgb(204, 204, 204)" stroke-width="1px"></line><line x1="51.53200149536133" y1="19.76666662428115" x2="46.53200149536133" y2="19.76666662428115" style="visibility: inherit;" fill="rgb(0, 0, 0)" stroke="rgb(204, 204, 204)" stroke-width="1px"></line><line x1="51.53200149536133" y1="0" x2="46.53200149536133" y2="0" style="visibility: inherit;" fill="rgb(0, 0, 0)" stroke="rgb(204, 204, 204)" stroke-width="1px"></line></g><g transform="translate(41.53200149536133, 0)"><text style="text-anchor: end; visibility: hidden; font-family: Roboto, sans-serif; font-size: 12px; font-weight: 200;" x="0" y="177.89999961853027" dx="0em" dy="0.3em" fill="rgb(50, 49, 63)" stroke="none" stroke-width="1px">-100</text><text style="text-anchor: end; visibility: inherit; font-family: Roboto, sans-serif; font-size: 12px; font-weight: 200;" x="0" y="158.13333299424912" dx="0em" dy="0.3em" fill="rgb(50, 49, 63)" stroke="none" stroke-width="1px">-50</text><text style="text-anchor: end; visibility: hidden; font-family: Roboto, sans-serif; font-size: 12px; font-weight: 200;" x="0" y="138.366666369968" dx="0em" dy="0.3em" fill="rgb(50, 49, 63)" stroke="none" stroke-width="1px">0</text><text style="text-anchor: end; visibility: inherit; font-family: Roboto, sans-serif; font-size: 12px; font-weight: 200;" x="0" y="118.59999974568686" dx="0em" dy="0.3em" fill="rgb(50, 49, 63)" stroke="none" stroke-width="1px">50</text><text style="text-anchor: end; visibility: hidden; font-family: Roboto, sans-serif; font-size: 12px; font-weight: 200;" x="0" y="98.83333312140572" dx="0em" dy="0.3em" fill="rgb(50, 49, 63)" stroke="none" stroke-width="1px">100</text><text style="text-anchor: end; visibility: inherit; font-family: Roboto, sans-serif; font-size: 12px; font-weight: 200;" x="0" y="79.06666649712456" dx="0em" dy="0.3em" fill="rgb(50, 49, 63)" stroke="none" stroke-width="1px">150</text><text style="text-anchor: end; visibility: hidden; font-family: Roboto, sans-serif; font-size: 12px; font-weight: 200;" x="0" y="59.29999987284343" dx="0em" dy="0.3em" fill="rgb(50, 49, 63)" stroke="none" stroke-width="1px">200</text><text style="text-anchor: end; visibility: inherit; font-family: Roboto, sans-serif; font-size: 12px; font-weight: 200;" x="0" y="39.53333324856228" dx="0em" dy="0.3em" fill="rgb(50, 49, 63)" stroke="none" stroke-width="1px">250</text><text style="text-anchor: end; visibility: hidden; font-family: Roboto, sans-serif; font-size: 12px; font-weight: 200;" x="0" y="19.76666662428115" dx="0em" dy="0.3em" fill="rgb(50, 49, 63)" stroke="none" stroke-width="1px">300</text><text style="text-anchor: end; visibility: hidden; font-family: Roboto, sans-serif; font-size: 12px; font-weight: 200;" x="0" y="0" dx="0em" dy="0.3em" fill="rgb(50, 49, 63)" stroke="none" stroke-width="1px">350</text></g><line x1="51.53200149536133" y1="0" x2="51.53200149536133" y2="177.89999961853027" fill="rgb(0, 0, 0)" stroke="rgb(204, 204, 204)" stroke-width="1px"></line></g></g><g transform="translate(51, 0)" clip-path="url(#clip_0)"><clipPath id="clip_0"><rect width="278" height="177"></rect></clipPath><g><g><g><line x1="0" y1="0" x2="0" y2="177.89999961853027" fill="rgb(0, 0, 0)" stroke="rgb(60, 60, 60)" stroke-width="1px" opacity="0.25"></line><line x1="23.205666542053223" y1="0" x2="23.205666542053223" y2="177.89999961853027" fill="rgb(0, 0, 0)" stroke="rgb(60, 60, 60)" stroke-width="1px" opacity="0.25"></line><line x1="46.411333084106445" y1="0" x2="46.411333084106445" y2="177.89999961853027" fill="rgb(0, 0, 0)" stroke="rgb(60, 60, 60)" stroke-width="1px" opacity="0.25"></line><line x1="69.61699962615967" y1="0" x2="69.61699962615967" y2="177.89999961853027" fill="rgb(0, 0, 0)" stroke="rgb(60, 60, 60)" stroke-width="1px" opacity="0.25"></line><line x1="92.82266616821289" y1="0" x2="92.82266616821289" y2="177.89999961853027" fill="rgb(0, 0, 0)" stroke="rgb(60, 60, 60)" stroke-width="1px" opacity="0.25"></line><line x1="116.02833271026611" y1="0" x2="116.02833271026611" y2="177.89999961853027" fill="rgb(0, 0, 0)" stroke="rgb(60, 60, 60)" stroke-width="1px" opacity="0.25"></line><line x1="139.23399925231934" y1="0" x2="139.23399925231934" y2="177.89999961853027" fill="rgb(0, 0, 0)" stroke="rgb(60, 60, 60)" stroke-width="1px" opacity="0.25"></line><line x1="162.43966579437256" y1="0" x2="162.43966579437256" y2="177.89999961853027" fill="rgb(0, 0, 0)" stroke="rgb(60, 60, 60)" stroke-width="1px" opacity="0.25"></line><line x1="185.64533233642578" y1="0" x2="185.64533233642578" y2="177.89999961853027" fill="rgb(0, 0, 0)" stroke="rgb(60, 60, 60)" stroke-width="1px" opacity="0.25"></line><line x1="208.850998878479" y1="0" x2="208.850998878479" y2="177.89999961853027" fill="rgb(0, 0, 0)" stroke="rgb(60, 60, 60)" stroke-width="1px" opacity="0.25"></line><line x1="232.05666542053223" y1="0" x2="232.05666542053223" y2="177.89999961853027" fill="rgb(0, 0, 0)" stroke="rgb(60, 60, 60)" stroke-width="1px" opacity="0.25"></line><line x1="255.26233196258545" y1="0" x2="255.26233196258545" y2="177.89999961853027" fill="rgb(0, 0, 0)" stroke="rgb(60, 60, 60)" stroke-width="1px" opacity="0.25"></line><line x1="278.4679985046387" y1="0" x2="278.4679985046387" y2="177.89999961853027" fill="rgb(0, 0, 0)" stroke="rgb(60, 60, 60)" stroke-width="1px" opacity="0.25"></line></g><g><line x1="0" y1="177.89999961853027" x2="278.4679985046387" y2="177.89999961853027" fill="rgb(0, 0, 0)" stroke="rgb(60, 60, 60)" stroke-width="1px" opacity="0.25"></line><line x1="0" y1="158.13333299424912" x2="278.4679985046387" y2="158.13333299424912" fill="rgb(0, 0, 0)" stroke="rgb(60, 60, 60)" stroke-width="1px" opacity="0.25"></line><line x1="0" y1="138.366666369968" x2="278.4679985046387" y2="138.366666369968" fill="rgb(0, 0, 0)" stroke="rgb(60, 60, 60)" stroke-width="1px" opacity="0.25"></line><line x1="0" y1="118.59999974568686" x2="278.4679985046387" y2="118.59999974568686" fill="rgb(0, 0, 0)" stroke="rgb(60, 60, 60)" stroke-width="1px" opacity="0.25"></line><line x1="0" y1="98.83333312140572" x2="278.4679985046387" y2="98.83333312140572" fill="rgb(0, 0, 0)" stroke="rgb(60, 60, 60)" stroke-width="1px" opacity="0.25"></line><line x1="0" y1="79.06666649712456" x2="278.4679985046387" y2="79.06666649712456" fill="rgb(0, 0, 0)" stroke="rgb(60, 60, 60)" stroke-width="1px" opacity="0.25"></line><line x1="0" y1="59.29999987284343" x2="278.4679985046387" y2="59.29999987284343" fill="rgb(0, 0, 0)" stroke="rgb(60, 60, 60)" stroke-width="1px" opacity="0.25"></line><line x1="0" y1="39.53333324856228" x2="278.4679985046387" y2="39.53333324856228" fill="rgb(0, 0, 0)" stroke="rgb(60, 60, 60)" stroke-width="1px" opacity="0.25"></line><line x1="0" y1="19.76666662428115" x2="278.4679985046387" y2="19.76666662428115" fill="rgb(0, 0, 0)" stroke="rgb(60, 60, 60)" stroke-width="1px" opacity="0.25"></line><line x1="0" y1="0" x2="278.4679985046387" y2="0" fill="rgb(0, 0, 0)" stroke="rgb(60, 60, 60)" stroke-width="1px" opacity="0.25"></line></g></g></g><g><g><line x1="0" y1="138.366666369968" x2="278.4679985046387" y2="138.366666369968" fill="rgb(0, 0, 0)" stroke="rgb(153, 153, 153)" stroke-width="1.5px"></line></g></g><g><g><line x1="-46.411333084106445" y1="0" x2="-46.411333084106445" y2="177.89999961853027" fill="rgb(0, 0, 0)" stroke="rgb(153, 153, 153)" stroke-width="1.5px"></line></g></g><g><g><g><g><g><path style="fill: none;" stroke="rgb(204, 51, 17)" stroke-width="2px" d="M159.43453197717665,174.94792987693558L160.85239820289613,174.66386472633008L162.25866159534453,134.57920200051097L163.66492498779297,98.88111874726587L165.07118838024138,70.42833807268389L166.47745177268982,48.23507720206075L167.88371516513826,44.85650017072793L169.28997855758666,37.74326176428259L170.6962419500351,29.5760003377289L172.1025053424835,31.163378209745293L173.50876873493195,28.652761388627223L174.91503212738036,24.275688697902236L176.3212955198288,26.57560535757192L177.72755891227723,32.16860977093454L179.13382230472564,39.17344847684874L180.54008569717408,46.56900060176054L181.95795192289353,48.17964624531675L183.36421531534197,51.964627878315675L184.77047870779037,56.74125737290876L186.179062666893,57.10081310128811L187.5853260593414,55.05288904576401L188.99158945178985,52.36236389896416L190.3978528442383,48.84853337855404L191.81571906995774,44.968483204262675L193.22198246240617,44.85292384524735L194.63056642150877,43.17037764321694L196.04843264722825,44.15225859422291L197.45469603967666,43.215329911521096L198.8609594321251,41.2323613436167L200.2672228245735,41.898164845442125L201.67348621702195,44.03351607707529L203.09135244274137,43.93802597071081L204.4976158351898,42.61421502049697L205.91548206090928,43.389462671426855L207.3217454533577,42.64602385572368L208.72800884580613,41.0585200174666L210.13427223825454,39.02627803149738L211.55213846397402,36.767903997051L212.95840185642243,34.46903090003057L214.36466524887086,32.17256942376648L215.77092864131927,32.20331365624604L217.18879486703872,33.575796163518234L218.60666109275817,35.65831519800025L220.0129244852066,36.00166297262979L221.41918787765505,37.46020557849872L222.82545127010346,39.53340781993008L224.2317146625519,39.89356709788319L225.64958088827132,39.25285053674438L227.05584428071975,38.056249963780104L228.46210767316816,38.447819256313515L229.87997389888764,37.884604453330816L231.28623729133605,38.62657933713412L232.6925006837845,40.11091134770781L234.09876407623292,40.237147164575326L235.50502746868133,39.5737958096004L236.91129086112977,38.48536563774438L238.31755425357818,37.14777570829921L239.72381764602662,37.30171414766998L241.13008103847503,36.724713020019344L242.53634443092346,35.731458039803435L243.94492839002612,34.50833323498489L245.36279461574554,34.68897071178647L246.76905800819398,35.701905010706426L248.1753214006424,35.696435643456674L249.58158479309083,36.560691594488766L250.98784818553924,37.92512192517568L252.39411157798767,39.545394220990076L253.8026955370903,39.90945511361728L255.20895892953874,39.53859066168772L256.6152223219872,40.107182633364864L258.0330885477066,39.86416911645189" fill="none"></path></g><g><path style="fill: none;" stroke="rgb(255, 112, 67)" stroke-width="2px" d="M7.416531026840209,149.77295610609917L8.089495356559754,136.21869573502715L8.488632821083069,129.1586618105189L8.734612886428833,130.87723880652877L9.317075116634369,128.5919327113539L9.799752980709076,127.99080454909365L10.540013743400575,125.59068340464823L11.210657506465912,124.28188983849438L11.456637571811676,125.2220310001465L12.136563601493837,125.42914170891844L12.3825436668396,127.42149836753056L12.628523732185364,130.00914014486924L12.983570430278778,132.0284526897161L13.347899394989014,133.32986396194246L13.593879460334778,134.2090731854307L14.710072021007537,131.57729041605435L15.396959750652314,128.45706003790278L15.642939815998078,127.02819086178623L16.819467109680176,124.1026757164017L17.34391517353058,122.46163727842956L17.917095137119293,121.580349709916L18.299988635063173,121.03399306809938L18.873168598651887,120.16023801260341L19.11914866399765,119.95729094169805L19.365128729343414,120.53440557552237L19.61110879468918,121.11729702022303L20.0125668258667,121.76937204003146L20.369934090614322,122.46336386815668L20.93151122093201,122.4797670642303L21.43275361824036,122.18361285185136L21.67873368358612,122.24266556120246L21.924713748931886,122.47512805846802L22.33545404672623,122.96559238248699L22.702103578090668,123.52024407977277L22.948083643436433,124.00078863125319L23.36114450788498,124.35547134799718L23.799731605529786,124.83829673200259L24.22439530324936,124.93219470575112L24.47037536859512,125.26360552552599L24.966976632595063,125.28628389267098L25.21295669794083,125.52020497463423L25.45893676328659,126.05767682113147L26.15278619289398,125.7949186844261L26.728286723136904,125.58101253099657L27.136706454277036,125.4612721165329L27.3826865196228,125.48945137534487L27.628666584968567,125.61240237980934L27.87464665031433,125.77807398733566L28.13222954893112,126.02463631025947L28.378209614276887,126.5052904737273L28.624189679622653,127.18695657275042L29.11614981031418,127.63578605334561L29.666124107360837,127.70571264685317L29.912104172706602,128.11513538734664L30.26715087080002,128.54647704241384L30.622197568893434,128.93872754501487L30.8681776342392,129.2678488668822L31.237147732257842,129.4907583944654L32.3974310593605,129.11622033677557L32.76176002407074,128.8264387595237L33.01934292268753,128.7400720590787L33.2653229880333,128.78307810977537L33.62269025278091,128.84765590748896L33.868670318126675,129.18442121900267L34.36527158212662,129.17255576495114L34.61125164747238,129.24840123640158L34.85723171281815,129.37868657491686L35.72976477479935,129.2988689188067L35.97574484014511,129.5304310222953L36.22404547214508,129.7061092622963L36.586053870201106,129.8834825447453L36.832033935546875,130.0434302776294L37.19868346691131,130.26920030970032L37.57925639820098,130.46958926565264L37.9319825296402,130.7733881824502L38.66296102571488,130.78713480227893L39.10386869001388,130.79862544130384L39.34984875535965,130.83875753979643L39.595828820705414,131.01656292771273L39.84180888605118,131.2929383002964L40.266472583770756,131.4901936578531L40.62151928186417,131.68647162299314L40.86749934720993,131.94521600212684L41.1134794125557,132.1409495199316L41.35945947790145,132.3939582109512L41.60543954324722,132.5671850558678L41.851419608592984,132.8288839612974L42.33177690601349,132.91930752985667L43.30177376747131,132.69086555267143L43.54775383281708,132.57951820637265L44.17430682945251,132.37907306487116L44.608252793788914,132.17707574790674L44.854232859134676,132.16871770986248L45.20695899057388,132.18536234108083L46.211764351844785,131.75867351573723L46.62714578294754,131.43357581719613L47.18408177995681,131.0480012296486L47.43006184530258,130.8823926479386L47.676041910648344,130.80863917030544L48.72493803834915,130.58283934750185L49.09854926967621,130.4237746378913L49.54177750062942,130.32539898300936L50.06622556447982,130.36552874682963L50.31220562982559,130.37851590537753L50.6649317612648,130.60937751867215L51.01765789270401,130.80436684217966L51.26363795804977,131.09990740092817L51.64653145599365,131.43655735483387L51.892511521339415,131.62288956709938L52.138491586685184,131.86582825269795L52.57707868432998,131.88232845519937L52.82305874967575,131.76669504222005L53.180426014423375,131.64679200259744L53.43800891304016,131.67682936053066L53.683988978385926,131.68638331980338L53.92996904373169,132.23132545347792L54.50779014062881,132.65253830631588L54.753770205974575,132.89491442680347L55.22716580343246,133.44607267802945L55.473145868778225,133.9293958775426L55.719125934123994,134.29367887586722L55.97670883274078,134.65213638767645L56.34103779745102,135.00317662717205L56.77266319513321,135.13043714062624L57.12770989322662,135.1572957230002L57.37368995857239,135.21653501237222L57.619670023918154,135.25221544398158L57.98631955528259,135.32419600889955L58.40170098638534,135.4980909633995L58.65928388500214,135.87173300945088L58.905263950347894,136.09943152862382L59.52717581367492,136.05201653738297L59.77315587902069,135.97165071065243L60.181575610160834,135.9406266099833L60.42755567550659,135.9206804422025L60.94504203939437,135.8913716659283L61.297768170833585,135.88856789211104L61.72011130189895,135.96013081555014L61.96609136724472,135.9512209583611L62.212071432590484,136.0748551376635L62.69242873001098,136.0768116518441L63.049795994758604,135.88375565074494L63.30737889337539,136.06787908972038L64.07084532260895,135.98564836175046L64.31682538795471,136.07091295901725L64.71364228582382,136.05013946146872L65.29146338272095,135.94902109702662L65.64883064746856,135.88342477434054L66.02476244544982,135.84831704328082L66.38909141016006,135.7575482570741L67.13167273950577,135.39562266309272L67.50296340417862,135.11059901664757L68.4126255326271,134.74254145075452L68.65860559797287,134.44623037278598L69.29212029457092,134.14906163753608L69.53810035991668,133.9632117170505L69.78408042526245,133.82767462985177L70.03006049060822,133.86063972953153L70.39671002197267,134.2655587278853L70.74943615341186,134.50810324772766L70.99541621875763,134.7523091672869L71.2413962841034,135.0349829646513L71.48737634944915,135.2106871882524L71.73335641479493,135.31597814269634L72.17194351243973,135.57844395753483L72.41792357778549,135.7218186286327L72.80777877569199,135.6894977687288L73.19067227363585,135.82775155231923L73.43665233898163,135.77543165466767L73.68263240432739,135.75317526941714L73.94021530294418,135.76417816339867L74.18619536828996,135.76079643016385L74.63638529920578,135.67750066562L74.88236536455155,135.61876972485678L75.12834542989731,135.46868627233945L75.37432549524307,135.57257369430965L75.63190839385986,135.6489308864093L76.11922739124297,135.75943160010007L76.55781448888779,135.59733422174662L76.81539738750458,135.4009917438148L77.1750852189064,135.31421056754624L77.43266811752319,135.21236099463314L77.79003538227082,135.18759123112352L78.03601544761658,135.1554228323749L78.3957032790184,135.13726069286292L78.65328617763518,135.11685875397384L79.44924054002762,134.60936103779815L79.69522060537338,134.47197603790207L79.95280350399018,134.79241958480458L80.19878356933593,134.97849317183693L80.55150970077514,135.16343604851872L80.79748976612092,135.37825655157764L81.15253646421432,135.43683906212596L81.50990372896194,135.40275916351817L81.7558837943077,135.97777097204414L82.00186385965347,136.4500265390824L82.35691055774689,137.00302462814605L83.16910888671876,137.1418793772629L83.41508895206451,137.2817100130829L83.85831718301772,137.57363157213405L84.1042972483635,137.8717751626954L84.35027731370926,138.17525549628007L84.7192474117279,138.31738753609838L84.96522747707367,138.405684280649L85.21120754241943,138.4162966653246L85.81455487251282,138.17874025058305L86.06053493785858,138.04180851185768L86.5478539352417,137.85384981894316L86.79383400058745,137.78840510916342L87.1535218319893,137.6795265054399L87.39950189733506,137.7326077606218L87.6454819626808,137.9107770467325L87.89146202802658,138.03499838770455L88.38574272537232,137.87160859771026L88.7755979232788,137.83506164257165L89.02157798862457,137.8066196514292L89.26755805397033,138.0202439983598L89.52514095258714,138.12571306309252L89.94516351699829,138.27083835581442L90.19114358234407,138.26036885953314L90.61116614675522,138.29834917937353L90.96621284484863,138.2028578797164L91.32125954294206,138.13895155847436L91.5672396082878,138.19312954219103L91.81321967363357,138.26838256123688L92.05919973897934,138.36992944042797L92.61845630264283,138.21418198249359L92.86443636798859,138.04025708144718L93.11041643333435,138.01106675237918L93.35639649868011,137.8779768527733L93.60237656402587,137.79176651933645L93.95742326211929,137.89588618225068L94.20340332746505,137.97503243845128L94.44938339281082,138.08447304555156L94.69536345815659,138.27561260527636L94.94134352350234,138.4357015134732L95.18964415550232,138.50065975311193L95.43562422084808,138.6961374310776L95.68160428619385,138.89812538893653L95.93918718481065,139.1389714043621L96.4938026151657,139.29266655791184L96.73978268051147,139.50697967384806L96.98576274585724,139.64010221779023L97.23406337785721,140.01328898834623L97.48004344320297,140.14356357058986L97.73762634181976,140.39370836336L97.98360640716552,140.63280450625675L98.2295864725113,140.86785268379262L98.48716937112809,141.12457175552223L98.73314943647384,141.2553846945306L99.09283726787567,141.4213575117641L99.33881733322144,141.69924777927724L99.5847973985672,142.32411370912743L99.83077746391297,142.63039857225883L100.07675752925873,142.89786534974004L100.44108649396897,143.06267103343754L100.82165942525863,143.06850895918555L101.17670612335205,142.99751542624023L101.42268618869782,142.99561672434433L101.66866625404357,143.17279659741877L101.91464631938935,143.17378329015582L102.27433415079118,142.93547253658582L102.52031421613692,142.7972825232865L102.7662942814827,142.56871904357328L103.19559911251068,142.29046219969015L103.44157917785644,142.27563098554097L103.79430530929567,142.31448641954674L104.04028537464141,142.47883126915585L104.28626543998718,142.59409669888478L104.53224550533295,142.68634431370793L104.78982840394974,142.7904603220216L105.0358084692955,142.8719914168371L105.39781686735154,142.9923757306166L105.6437969326973,143.12452478112763L105.88977699804305,143.23072403549358L106.13575706338882,143.41015622366825L106.61611436080933,143.37108854383553L107.01061069202423,143.2089306416675L107.25659075736999,143.2407277424869L107.50257082271575,143.24859676838346L107.74855088806153,143.37806193848584L108.00613378667832,143.60884719892059L108.25211385202408,143.61191460765883L108.50041448402405,143.63272243872538L108.74639454936981,143.5924760192126L108.99237461471559,143.5861020612046L109.23835468006133,143.95470800456076L109.48433474540711,144.20938782747078L109.7419176440239,144.21844838698112L109.98789770936966,144.30400085995657L110.23387777471542,144.5722189987028L110.47985784006119,144.86531955838424L110.72583790540695,145.04399999815027L111.13425763654709,145.13134025261238L111.38023770189287,145.0201560562345L111.62621776723861,144.91710721705422L111.87219783258438,144.81940619121087L112.12978073120118,144.92682515308726L112.38736362981797,144.9876010449915L112.63334369516372,145.10386798173698L112.8793237605095,145.18472879683668L113.12530382585526,145.27296652553704L113.37128389120102,145.36873402482772L113.61726395654678,145.35398055971322L113.86324402189254,145.32434959274963L114.10922408723832,145.62616268669086L114.46195021867753,145.8335833768614L114.70793028402328,145.95486128891574L114.95623091602326,146.00943369058592L115.20221098136902,146.05496170339902L115.4481910467148,145.9312249962944L115.69417111206054,145.84450695277127L115.9401511774063,145.93880604272545L116.19773407602311,146.2239472312339L116.44371414136887,146.4262675364147L116.68969420671462,146.5416066001311L116.9356742720604,146.5936143413763L117.18165433740616,146.74380957780755L117.43923723602295,146.8884575768899L117.69682013463975,146.96489674562417L117.9428001999855,147.10022329446343L118.18878026533126,147.2297443442078L118.43476033067704,147.50100447882738L118.6807403960228,147.66899992065154L118.92672046136856,147.67069028746002L119.18430335998535,147.5656640745246L119.43028342533111,147.6954065240437L119.67626349067689,147.77448017164966L119.92224355602264,147.80289574646417L120.16822362136841,147.81557528748854L120.52327031946183,147.75819303777556L120.77157095146178,147.7842876430996L121.26121051549912,147.66523060399086L121.50951114749908,147.47637569698026L121.75549121284484,147.3142360459287L122.10821734428406,147.16957752497132L122.35419740962982,147.20929559368483L122.61178030824662,147.15145712915952L122.85776037359237,147.18603661509476L123.10374043893815,147.07265835276058L123.35204107093811,147.0291065799389L123.6096239695549,147.10098996356587L123.85560403490067,147.17085850025614L124.11318693351745,147.31089511074808L124.37076983213424,147.40152969299587L124.61674989748002,147.36413340142397L124.86505052947999,147.46201965983286L125.11103059482573,147.44506555536032L125.35701066017151,147.28460990360693L125.60299072551727,147.28930015522172L125.84897079086305,147.34857821649024L126.0949508562088,147.43881465355733L126.34093092155456,147.53241233388923L126.58691098690034,147.56869810684452L126.8328910522461,147.58971583374188L127.09047395086287,147.57633747762645L127.33645401620865,147.80156865183184L127.58475464820862,147.92730540121573L127.8330552802086,147.90255654682508L128.07903534555436,147.9441928607989L128.3250154109001,147.95814336767202L128.57099547624588,148.14574017592815L128.82857837486267,148.4036847239897L129.08616127347946,148.633837205025L129.3321413388252,148.89942544274209L129.74752276992797,148.8132360056295L129.99350283527374,148.90911602794128L130.3624729332924,148.83617607896164L130.60845299863817,148.83705239471576L130.85443306398392,148.8360161180298L131.1120159626007,148.8251662723079L131.35799602794648,148.82852009318614L131.60397609329223,148.77217795010824L131.849956158638,148.66575875755683L132.09593622398376,148.57504296189154L132.34191628932953,148.5064276075493L132.5878963546753,148.7803906854263L133.00791891908645,149.05708829611248L133.25389898443223,149.22445659142346L133.49987904977797,149.32015517634727L133.74585911512375,149.21538879145544L133.99415974712372,149.003338524032L134.4257851448059,148.88682596507675L134.67176521015168,148.96149113447171L134.91774527549742,148.96413164244913L135.1637253408432,149.11763690790832L135.40970540618898,149.20987549249688L135.65568547153472,149.14888075897798L135.9016655368805,149.28224328994182L136.14764560222625,149.4454710673342L136.39362566757202,149.55488812060617L136.6396057329178,149.4784753895154L136.88558579826355,149.41484601516098L137.13156586360932,149.62640322430238L137.37754592895507,149.7533375497872L137.62352599430085,149.95546660896002L137.8695060596466,150.0498559367129L138.11548612499237,150.24561355599522L138.36146619033815,150.31777786124326L138.6074462556839,150.44168225425747L138.8650291543007,150.43621142384717L139.11100921964646,150.39303606679982L139.3569892849922,150.52780137428093L139.60528991699218,150.73225108686557L139.85126998233795,151.0141044722212L140.0972500476837,151.05729026570816L140.34323011302948,151.04997518649236L140.58921017837525,151.0892196319113L140.83519024372103,151.00439799851208L141.08117030906678,151.11271662650924L141.33875320768357,151.17165920814634L141.59633610630033,151.05889962622064L141.8423161716461,150.83374876224994L142.09989907026292,150.7185479695736L142.54312730121615,150.6195829521006L142.7891073665619,150.54580904520398L143.20448879766465,150.51149499299618L143.6686021285057,150.42934535117118L143.91458219385146,150.27846878600022L144.16056225919723,150.35122565955615L144.406542324543,150.39487948207432L144.65252238988876,150.5806290348663L144.89850245523454,150.55949044793743L145.15608535385132,150.67605431902186L145.40206541919707,150.84979961268203L145.65036605119704,150.96801942373585L145.89634611654282,151.16651712938986L146.1539290151596,151.4140634952233L146.39990908050538,151.54359979966804L146.64588914585113,151.78345011287107L146.89186921119688,152.14455173811197L147.13784927654265,152.33263646413158L147.38382934188843,152.71802938493366L147.6298094072342,153.11391275974256L147.87578947257995,153.43671006044602L148.12176953792573,153.67279496238362L148.3677496032715,153.81449778139435L148.61372966861722,154.0302474276393L148.859709733963,153.995861541706L149.10568979930878,154.1378537931632L149.35166986465455,154.21587130083188L149.5976499300003,154.11361020541096L149.84362999534608,154.01109209499958L150.08961006069185,153.81987575010837L150.3355901260376,153.70054992776193L150.58157019138335,153.78325363242814L150.82755025672913,153.85965628628213L151.0758508887291,153.8922780757664L151.32415152072906,154.06780923221174L151.57013158607484,154.0390218787998L151.8161116514206,154.02166079182604L152.06441228342055,153.8689552666559L152.32199518203737,153.60828617351459L152.57957808065413,153.44725914390924L152.83716097927092,153.3103784771764L153.0831410446167,153.21182953172107L153.34072394323348,153.16111161462513L153.58670400857926,153.11357565200188L153.83268407392504,153.0870773105076L154.07866413927076,153.07130558730836L154.32464420461653,153.0584433478704L154.5706242699623,153.10767099106465L154.81660433530809,152.98697777383654L155.06258440065383,152.8241291024013L155.3085644659996,152.87075010552948L155.55454453134539,152.98155353405167L155.80052459669113,152.94386668167974L156.04650466203688,152.88805214418028L156.29248472738266,152.76486903507282L156.54078535938265,152.66758457961126L156.7983682579994,152.51585790881316L157.0443483233452,152.5400015874838L157.29032838869097,152.7164618981393L157.5363084540367,152.8190263474792L157.7822885193825,152.88048056477209L158.02826858472824,152.7729517079249L158.28585148334503,152.69643130749796" fill="none"></path></g></g></g></g><g opacity="0.2"><g><g><g><path style="fill: none;" stroke="rgb(204, 51, 17)" stroke-width="2px" d="M159.43453197717665,174.94792987693558L160.85239820289613,174.4934256359668L162.25866159534453,96.09792578372466L163.66492498779297,56.90017284144964L165.07118838024138,33.28038762394961L166.47745177268982,17.533807844075547L167.88371516513826,40.02508095868948L169.28997855758666,27.372091880596574L170.6962419500351,17.530876142421693L172.1025053424835,33.520449350322856L173.50876873493195,24.909607266736234L174.91503212738036,17.733899498106137L176.3212955198288,30.017970720137875L177.72755891227723,40.54715911308757L179.13382230472564,49.67247261077282L180.54008569717408,57.65711287278552L181.95795192289353,50.59493313939376L183.36421531534197,57.64113932138749L184.77047870779037,63.90547394337159L186.179062666893,57.64011382903942L187.5853260593414,51.98111527550015L188.99158945178985,48.32666471164039L190.3978528442383,43.57785697239289L191.81571906995774,39.14845390571896L193.22198246240617,44.67958562807083L194.63056642150877,40.64656551546229L196.04843264722825,45.62507750836763L197.45469603967666,41.80993832587459L198.8609594321251,38.25791031835445L200.2672228245735,42.89686973020078L201.67348621702195,47.23654221641935L203.09135244274137,43.7947908301634L204.4976158351898,40.628498753212625L205.91548206090928,44.55233409229226L207.3217454533577,41.53086566411948L208.72800884580613,38.677264301016436L210.13427223825454,35.97791508398562L211.55213846397402,33.380342966345935L212.95840185642243,31.020721267304094L214.36466524887086,28.727877217044856L215.77092864131927,32.24943000490376L217.18879486703872,35.63451992277534L218.60666109275817,38.782093748220035L220.0129244852066,36.51668463442539L221.41918787765505,39.64801948692314L222.82545127010346,42.64321118175383L224.2317146625519,40.4338060147792L225.64958088827132,38.29177569507221L227.05584428071975,36.26134910437394L228.46210767316816,39.03517319510575L229.87997389888764,37.03978224886361L231.28623729133605,39.739541662833645L232.6925006837845,42.337409363561896L234.09876407623292,40.426500889876245L235.50502746868133,38.5787687771391L236.91129086112977,36.852720379961355L238.31755425357818,35.14139081413224L239.72381764602662,37.532621806726084L241.13008103847503,35.859211328543545L242.53634443092346,34.24157556947968L243.94492839002612,32.67364602775714L245.36279461574554,34.95992692698879L246.76905800819398,37.22130645908635L248.1753214006424,35.68823159258204L249.58158479309083,37.857075521036876L250.98784818553924,39.97176742120614L252.39411157798767,41.97580266471162L253.8026955370903,40.455546452558096L255.20895892953874,38.98229398379335L256.6152223219872,40.96007059088055L258.0330885477066,39.49964884108243" fill="none"></path></g><g><path style="fill: none;" stroke="rgb(255, 112, 67)" stroke-width="2px" d="M7.416531026840209,149.77295610609917L8.089495356559754,128.08613951238397L8.488632821083069,122.38102924299099L8.734612886428833,132.89828535383634L9.317075116634369,125.60823707349361L9.799752980709076,127.15922789454933L10.540013743400575,122.15847176615296L11.210657506465912,122.37365625462382L11.456637571811676,126.60855660056411L12.136563601493837,125.73667697393434L12.3825436668396,130.3919628271926L12.628523732185364,133.8765209785952L12.983570430278778,135.0508281011687L13.347899394989014,135.27943127011974L13.593879460334778,135.52685354322506L14.710072021007537,127.63147239910107L15.396959750652314,123.77803484760038L15.642939815998078,124.88524988734045L16.819467109680176,119.71484867111204L17.34391517353058,120.0002296188847L17.917095137119293,120.25846668905038L18.299988635063173,120.2144760834725L18.873168598651887,118.8496226801288L19.11914866399765,119.65287273944155L19.365128729343414,121.40007342437505L19.61110879468918,121.99163170150827L20.0125668258667,122.74748290126283L20.369934090614322,123.50435054490356L20.93151122093201,122.50437184323107L21.43275361824036,121.73938169696291L21.67873368358612,122.33124460564657L21.924713748931886,122.82382175811412L22.33545404672623,123.70128880996384L22.702103578090668,124.35222158597284L22.948083643436433,124.72160543782157L23.36114450788498,124.88749541396732L23.799731605529786,125.56253480054067L24.22439530324936,125.07304166550223L24.47037536859512,125.76072175334241L24.966976632595063,125.3203014433127L25.21295669794083,125.87108659711008L25.45893676328659,126.86388459023064L26.15278619289398,125.40078147955776L26.728286723136904,125.2601533009449L27.136706454277036,125.28166149486853L27.3826865196228,125.5317202635584L27.628666584968567,125.79682888649457L27.87464665031433,126.02658139861583L28.13222954893112,126.39447979463685L28.378209614276887,127.22627171891934L28.624189679622653,128.20945572127684L29.11614981031418,128.3090302742351L29.666124107360837,127.81060253711418L29.912104172706602,128.72926949808578L30.26715087080002,129.19348952501394L30.622197568893434,129.5271032989161L30.8681776342392,129.76153084968294L31.237147732257842,129.8251226858401L32.3974310593605,128.55441325024094L32.76176002407074,128.39176639364592L33.01934292268753,128.6105220084112L33.2653229880333,128.84758718582037L33.62269025278091,128.94452260405936L33.868670318126675,129.6895691862732L34.36527158212662,129.15475758387385L34.61125164747238,129.36216944357722L34.85723171281815,129.5741145826898L35.72976477479935,129.17914243464148L35.97574484014511,129.87777417752818L36.22404547214508,129.96962662229782L36.586053870201106,130.14954246841882L36.832033935546875,130.28335187695552L37.19868346691131,130.60785535780673L37.57925639820098,130.77017269958108L37.9319825296402,131.2290865576465L38.66296102571488,130.80775473202206L39.10386869001388,130.81586139984117L39.34984875535965,130.89895568753533L39.595828820705414,131.2832710095872L39.84180888605118,131.7075013591719L40.266472583770756,131.78607669418815L40.62151928186417,131.98088857070323L40.86749934720993,132.3333325708274L41.1134794125557,132.43454979663878L41.35945947790145,132.77347124748064L41.60543954324722,132.8270253232427L41.851419608592984,133.22143231944185L42.33177690601349,133.05494288269557L43.30177376747131,132.34820258689354L43.54775383281708,132.41249718692453L44.17430682945251,132.07840535261892L44.608252793788914,131.87407977246014L44.854232859134676,132.156180652796L45.20695899057388,132.21032928790837L46.211764351844785,131.1186402777218L46.62714578294754,130.94592926938446L47.18408177995681,130.46963934832732L47.43006184530258,130.6339797753736L47.676041910648344,130.6980089538557L48.72493803834915,130.24413961329654L49.09854926967621,130.18517757347544L49.54177750062942,130.17783550068643L50.06622556447982,130.42572339256006L50.31220562982559,130.39799664319935L50.6649317612648,130.95566993861405L51.01765789270401,131.09685082744096L51.26363795804977,131.543218239051L51.64653145599365,131.94153228569238L51.892511521339415,131.90238788549757L52.138491586685184,132.23023628109587L52.57707868432998,131.90707875895149L52.82305874967575,131.59324492275107L53.180426014423375,131.46693744316352L53.43800891304016,131.72188539743047L53.683988978385926,131.70071425871242L53.92996904373169,133.04873865398977L54.50779014062881,133.28435758557276L54.753770205974575,133.2584786075348L55.22716580343246,134.27281005486844L55.473145868778225,134.65438067681228L55.719125934123994,134.84010337335417L55.97670883274078,135.18982265539032L56.34103779745102,135.5297369864155L56.77266319513321,135.32132791080747L57.12770989322662,135.1975835965612L57.37368995857239,135.30539394643023L57.619670023918154,135.30573609139563L57.98631955528259,135.4321668562765L58.40170098638534,135.75893339514948L58.65928388500214,136.43219607852788L58.905263950347894,136.44097930738326L59.52717581367492,135.9808940505217L59.77315587902069,135.85110197055658L60.181575610160834,135.89409045897963L60.42755567550659,135.89076119053126L60.94504203939437,135.84740850151695L61.297768170833585,135.88436223138515L61.72011130189895,136.06747520070888L61.96609136724472,135.93785617257748L62.212071432590484,136.2603064066171L62.69242873001098,136.079746423115L63.049795994758604,135.5941716490962L63.30737889337539,136.3440642481835L64.07084532260895,135.86230226979558L64.31682538795471,136.1988098549174L64.71364228582382,136.01897921514595L65.29146338272095,135.79734355036345L65.64883064746856,135.78503029031143L66.02476244544982,135.7956554466912L66.38909141016006,135.62139507776405L67.13167273950577,134.8527342721206L67.50296340417862,134.68306354697987L68.4126255326271,134.19045510191495L68.65860559797287,134.00176375583314L69.29212029457092,133.7033085346612L69.53810035991668,133.68443683632213L69.78408042526245,133.6243689990537L70.03006049060822,133.9100873790512L70.39671002197267,134.8729372254159L70.74943615341186,134.87192002749126L70.99541621875763,135.11861804662576L71.2413962841034,135.45899366069793L71.48737634944915,135.47424352365402L71.73335641479493,135.47391457436223L72.17194351243973,135.9721426797926L72.41792357778549,135.93688063527946L72.80777877569199,135.64101647887298L73.19067227363585,136.0351322277049L73.43665233898163,135.6969518081903L73.68263240432739,135.7197906915413L73.94021530294418,135.78068250437101L74.18619536828996,135.75572383031158L74.63638529920578,135.55255701880418L74.88236536455155,135.53067331371196L75.12834542989731,135.24356109356344L75.37432549524307,135.728404827265L75.63190839385986,135.76346667455869L76.11922739124297,135.9251826706363L76.55781448888779,135.35418815421642L76.81539738750458,135.1064780269171L77.1750852189064,135.18403880314338L77.43266811752319,135.05958663526349L77.79003538227082,135.15043658585907L78.03601544761658,135.107170234252L78.3957032790184,135.11001748359487L78.65328617763518,135.08625584564027L79.44924054002762,133.84811446353464L79.69522060537338,134.2658985380579L79.95280350399018,135.27308490515836L80.19878356933593,135.25760355238546L80.55150970077514,135.4408503635414L80.79748976612092,135.700487306166L81.15253646421432,135.52471282794846L81.50990372896194,135.35163931560646L81.7558837943077,136.8402886848331L82.00186385965347,137.15840988963978L82.35691055774689,137.83252176174153L83.16910888671876,137.3501615009382L83.41508895206451,137.49145596681285L83.85831718301772,138.01151391071076L84.1042972483635,138.3189905485374L84.35027731370926,138.6304759966571L84.7192474117279,138.5305855958258L84.96522747707367,138.53812939747496L85.21120754241943,138.43221524233803L85.81455487251282,137.8224056284707L86.06053493785858,137.83641090376963L86.5478539352417,137.5719117795714L86.79383400058745,137.6902380444938L87.1535218319893,137.51620859985456L87.39950189733506,137.81222964339463L87.6454819626808,138.1780309758986L87.89146202802658,138.2213303991626L88.38574272537232,137.62652391271882L88.7755979232788,137.78024120986376L89.02157798862457,137.7639566647155L89.26755805397033,138.34068051875573L89.52514095258714,138.28391666019155L89.94516351699829,138.4885262948973L90.19114358234407,138.24466461511125L90.61116614675522,138.3553196591341L90.96621284484863,138.0596209302307L91.32125954294206,138.0430920766113L91.5672396082878,138.274396517766L91.81321967363357,138.38126208980563L92.05919973897934,138.52224975921462L92.61845630264283,137.980560795592L92.86443636798859,137.77936972987752L93.11041643333435,137.96728125877718L93.35639649868011,137.67834200336446L93.60237656402587,137.66245101918122L93.95742326211929,138.052065676622L94.20340332746505,138.09375182275218L94.44938339281082,138.24863395620199L94.69536345815659,138.5623219448636L94.94134352350234,138.6758348757684L95.18964415550232,138.59809711256997L95.43562422084808,138.98935394802615L95.68160428619385,139.20110732572493L95.93918718481065,139.5002404275005L96.4938026151657,139.52320928823642L96.73978268051147,139.82844934775238L96.98576274585724,139.83978603370346L97.23406337785721,140.5730691441802L97.48004344320297,140.33897544395535L97.73762634181976,140.76892555251519L97.98360640716552,140.99144872060188L98.2295864725113,141.22042495009646L98.48716937112809,141.50965036311663L98.73314943647384,141.45160410304314L99.09283726787567,141.67031673761443L99.33881733322144,142.11608318054692L99.5847973985672,143.26141260390276L99.83077746391297,143.08982586695583L100.07675752925873,143.29906551596193L100.44108649396897,143.30987955898377L100.82165942525863,143.07726584780755L101.17670612335205,142.89102512682223L101.42268618869782,142.9927686715005L101.66866625404357,143.43856640703038L101.91464631938935,143.17526332926144L102.27433415079118,142.57800640623083L102.52031421613692,142.5899975033375L102.7662942814827,142.22587382400351L103.19559911251068,141.87307693386543L103.44157917785644,142.25338416431725L103.79430530929567,142.3727695705554L104.04028537464141,142.7253485435695L104.28626543998718,142.76699484347816L104.53224550533295,142.82471573594268L104.78982840394974,142.94663433449207L105.0358084692955,142.99428805906032L105.39781686735154,143.17295220128585L105.6437969326973,143.3227483568942L105.88977699804305,143.39002291704253L106.13575706338882,143.67930450593028L106.61611436080933,143.3124870240864L107.01061069202423,142.96569378841545L107.25659075736999,143.28842339371607L107.50257082271575,143.2604003072283L107.74855088806153,143.57225969363947L108.00613378667832,143.95502508957264L108.25211385202408,143.61651572076622L108.50041448402405,143.6639341853252L108.74639454936981,143.5321063899434L108.99237461471559,143.5765411241926L109.23835468006133,144.507616919595L109.48433474540711,144.59140756183578L109.7419176440239,144.2320392262467L109.98789770936966,144.43232956941972L110.23387777471542,144.9745462068221L110.47985784006119,145.3049703979064L110.72583790540695,145.31202065779934L111.13425763654709,145.26235063430556L111.38023770189287,144.8533797616677L111.62621776723861,144.7625339582838L111.87219783258438,144.67285465244584L112.12978073120118,145.08795359590187L112.38736362981797,145.07876488284782L112.63334369516372,145.27826838685527L112.8793237605095,145.3060200194862L113.12530382585526,145.40532311858763L113.37128389120102,145.51238527376373L113.61726395654678,145.33185036204148L113.86324402189254,145.27990314230422L114.10922408723832,146.07888232760268L114.46195021867753,146.1447144121173L114.70793028402328,146.13677815699717L114.95623091602326,146.09129229309121L115.20221098136902,146.12325372261864L115.4481910467148,145.74561993563745L115.69417111206054,145.71442988748655L115.9401511774063,146.08025467765674L116.19773407602311,146.65165901399658L116.44371414136887,146.72974799418597L116.68969420671462,146.71461519570565L116.9356742720604,146.67162595324413L117.18165433740616,146.96910243245446L117.43923723602295,147.1054295755134L117.69682013463975,147.0795554987256L117.9428001999855,147.30321311772232L118.18878026533126,147.42402591882436L118.43476033067704,147.90789468075675L118.6807403960228,147.92099308338777L118.92672046136856,147.67322583767273L119.18430335998535,147.40812475512146L119.43028342533111,147.89002019832236L119.67626349067689,147.8930906430586L119.92224355602264,147.84551910868592L120.16822362136841,147.8345945990251L120.52327031946183,147.6721196632061L120.77157095146178,147.82342955108558L121.26121051549912,147.48664504532783L121.50951114749908,147.1930933364643L121.75549121284484,147.07102656935137L122.10821734428406,146.9525897435352L122.35419740962982,147.26887269675512L122.61178030824662,147.06469943237155L122.85776037359237,147.23790584399762L123.10374043893815,146.90259095925927L123.35204107093811,146.96377892070643L123.6096239695549,147.20881503900628L123.85560403490067,147.27566130529158L124.11318693351745,147.520950026486L124.37076983213424,147.53748156636755L124.61674989748002,147.30803896406616L124.86505052947999,147.6088490474462L125.11103059482573,147.41963439865148L125.35701066017151,147.04392642597688L125.60299072551727,147.2963355326439L125.84897079086305,147.43749530839304L126.0949508562088,147.57416930915792L126.34093092155456,147.67280885438709L126.58691098690034,147.62312676627747L126.8328910522461,147.6212424240879L127.09047395086287,147.5562699434533L127.33645401620865,148.13941541313994L127.58475464820862,148.1159105252916L127.8330552802086,147.8654332652391L128.07903534555436,148.0066473317596L128.3250154109001,147.97906912798166L128.57099547624588,148.4271353883124L128.82857837486267,148.790601546082L129.08616127347946,148.97906592657793L129.3321413388252,149.29780779931772L129.74752276992797,148.68395184996058L129.99350283527374,149.05293606140896L130.3624729332924,148.72676615549216L130.60845299863817,148.83836686834692L130.85443306398392,148.8344617030009L131.1120159626007,148.80889150372508L131.35799602794648,148.8335508245035L131.60397609329223,148.68766473549135L131.849956158638,148.50612996872974L132.09593622398376,148.43896926839363L132.34191628932953,148.403504576036L132.5878963546753,149.19133530224175L133.00791891908645,149.47213471214175L133.25389898443223,149.47550903438997L133.49987904977797,149.4637030537329L133.74585911512375,149.05823921411772L133.99415974712372,148.68526312289683L134.4257851448059,148.71205712664388L134.67176521015168,149.07348888856419L134.91774527549742,148.96809240441522L135.1637253408432,149.34789480609712L135.40970540618898,149.34823336937967L135.65568547153472,149.05738865869964L135.9016655368805,149.48228708638754L136.14764560222625,149.6903127334228L136.39362566757202,149.71901370051413L136.6396057329178,149.3638562928793L136.88558579826355,149.31940195362932L137.13156586360932,149.94373903801443L137.37754592895507,149.94373903801443L137.62352599430085,150.25866019771922L137.8695060596466,150.19143992834228L138.11548612499237,150.53924998491865L138.36146619033815,150.4260243191153L138.6074462556839,150.6275388437788L138.8650291543007,150.42800517823176L139.11100921964646,150.3282730312288L139.3569892849922,150.72994933550257L139.60528991699218,151.03892565574253L139.85126998233795,151.4368845502546L140.0972500476837,151.12206895593863L140.34323011302948,151.03900256766866L140.58921017837525,151.14808630003972L140.83519024372103,150.87716554841322L141.08117030906678,151.27519456850496L141.33875320768357,151.260073080602L141.59633610630033,150.8897602533321L141.8423161716461,150.4960224662939L142.09989907026292,150.545746780559L142.54312730121615,150.47113542589113L142.7891073665619,150.4351481848591L143.20448879766465,150.46002391468448L143.6686021285057,150.30612088843367L143.91458219385146,150.0521539382438L144.16056225919723,150.46036096989008L144.406542324543,150.46036021585155L144.65252238988876,150.85925336405424L144.89850245523454,150.52778256754414L145.15608535385132,150.85090012564848L145.40206541919707,151.11041755317225L145.65036605119704,151.1453491403166L145.89634611654282,151.46426368787087L146.1539290151596,151.78538304397347L146.39990908050538,151.7379042563352L146.64588914585113,152.14322558267554L146.89186921119688,152.68620417597333L147.13784927654265,152.614763553161L147.38382934188843,153.29611876613683L147.6298094072342,153.70773782195585L147.87578947257995,153.92090601150122L148.12176953792573,154.02692231529L148.3677496032715,154.02705200991048L148.61372966861722,154.3538718970067L148.859709733963,153.94428271280606L149.10568979930878,154.35084217034898L149.35166986465455,154.3328975623349L149.5976499300003,153.96021856227955L149.84362999534608,153.8573149293825L150.08961006069185,153.53305123277153L150.3355901260376,153.5215611942423L150.58157019138335,153.9073091894275L150.82755025672913,153.97426026706307L151.0758508887291,153.94121075999283L151.32415152072906,154.33110596687976L151.57013158607484,153.99584084868184L151.8161116514206,153.9956191613654L152.06441228342055,153.63989697890065L152.32199518203737,153.21728253380263L152.57957808065413,153.20571859950127L152.83716097927092,153.1050574770771L153.0831410446167,153.06400611353803L153.34072394323348,153.08503473898122L153.58670400857926,153.04227170806706L153.83268407392504,153.0473297982662L154.07866413927076,153.04764800250948L154.32464420461653,153.0391499887134L154.5706242699623,153.18151245585605L154.81660433530809,152.8059379479944L155.06258440065383,152.5798560952484L155.3085644659996,152.94068161022173L155.55454453134539,153.147758676835L155.80052459669113,152.88733640312176L156.04650466203688,152.80433033793113L156.29248472738266,152.5800943714116L156.54078535938265,152.52165789641893L156.7983682579994,152.28826790261598L157.0443483233452,152.57621710548977L157.29032838869097,152.9811523641226L157.5363084540367,152.972873021489L157.7822885193825,152.97266189071144L158.02826858472824,152.61165842265416L158.28585148334503,152.5816507068575" fill="none"></path></g></g></g></g></g></g><g transform="translate(51, 177)" clip-path="url(#clip_1)"><clipPath id="clip_1"><rect width="278" height="22"></rect></clipPath><g><g><line x1="0" y1="0" x2="0" y2="5" style="visibility: inherit;" fill="rgb(0, 0, 0)" stroke="rgb(204, 204, 204)" stroke-width="1px"></line><line x1="23.205666542053223" y1="0" x2="23.205666542053223" y2="5" style="visibility: inherit;" fill="rgb(0, 0, 0)" stroke="rgb(204, 204, 204)" stroke-width="1px"></line><line x1="46.411333084106445" y1="0" x2="46.411333084106445" y2="5" style="visibility: inherit;" fill="rgb(0, 0, 0)" stroke="rgb(204, 204, 204)" stroke-width="1px"></line><line x1="69.61699962615967" y1="0" x2="69.61699962615967" y2="5" style="visibility: inherit;" fill="rgb(0, 0, 0)" stroke="rgb(204, 204, 204)" stroke-width="1px"></line><line x1="92.82266616821289" y1="0" x2="92.82266616821289" y2="5" style="visibility: inherit;" fill="rgb(0, 0, 0)" stroke="rgb(204, 204, 204)" stroke-width="1px"></line><line x1="116.02833271026611" y1="0" x2="116.02833271026611" y2="5" style="visibility: inherit;" fill="rgb(0, 0, 0)" stroke="rgb(204, 204, 204)" stroke-width="1px"></line><line x1="139.23399925231934" y1="0" x2="139.23399925231934" y2="5" style="visibility: inherit;" fill="rgb(0, 0, 0)" stroke="rgb(204, 204, 204)" stroke-width="1px"></line><line x1="162.43966579437256" y1="0" x2="162.43966579437256" y2="5" style="visibility: inherit;" fill="rgb(0, 0, 0)" stroke="rgb(204, 204, 204)" stroke-width="1px"></line><line x1="185.64533233642578" y1="0" x2="185.64533233642578" y2="5" style="visibility: inherit;" fill="rgb(0, 0, 0)" stroke="rgb(204, 204, 204)" stroke-width="1px"></line><line x1="208.850998878479" y1="0" x2="208.850998878479" y2="5" style="visibility: inherit;" fill="rgb(0, 0, 0)" stroke="rgb(204, 204, 204)" stroke-width="1px"></line><line x1="232.05666542053223" y1="0" x2="232.05666542053223" y2="5" style="visibility: inherit;" fill="rgb(0, 0, 0)" stroke="rgb(204, 204, 204)" stroke-width="1px"></line><line x1="255.26233196258545" y1="0" x2="255.26233196258545" y2="5" style="visibility: inherit;" fill="rgb(0, 0, 0)" stroke="rgb(204, 204, 204)" stroke-width="1px"></line><line x1="278.4679985046387" y1="0" x2="278.4679985046387" y2="5" style="visibility: inherit;" fill="rgb(0, 0, 0)" stroke="rgb(204, 204, 204)" stroke-width="1px"></line></g><g transform="translate(0, 8)"><text style="text-anchor: middle; visibility: hidden; font-family: Roboto, sans-serif; font-size: 12px; font-weight: 200;" x="0" y="0" dx="0em" dy="0.95em" fill="rgb(50, 49, 63)" stroke="none" stroke-width="1px">20k</text><text style="text-anchor: middle; visibility: inherit; font-family: Roboto, sans-serif; font-size: 12px; font-weight: 200;" x="23.205666542053223" y="0" dx="0em" dy="0.95em" fill="rgb(50, 49, 63)" stroke="none" stroke-width="1px">30k</text><text style="text-anchor: middle; visibility: hidden; font-family: Roboto, sans-serif; font-size: 12px; font-weight: 200;" x="46.411333084106445" y="0" dx="0em" dy="0.95em" fill="rgb(50, 49, 63)" stroke="none" stroke-width="1px">40k</text><text style="text-anchor: middle; visibility: inherit; font-family: Roboto, sans-serif; font-size: 12px; font-weight: 200;" x="69.61699962615967" y="0" dx="0em" dy="0.95em" fill="rgb(50, 49, 63)" stroke="none" stroke-width="1px">50k</text><text style="text-anchor: middle; visibility: hidden; font-family: Roboto, sans-serif; font-size: 12px; font-weight: 200;" x="92.82266616821289" y="0" dx="0em" dy="0.95em" fill="rgb(50, 49, 63)" stroke="none" stroke-width="1px">60k</text><text style="text-anchor: middle; visibility: inherit; font-family: Roboto, sans-serif; font-size: 12px; font-weight: 200;" x="116.02833271026611" y="0" dx="0em" dy="0.95em" fill="rgb(50, 49, 63)" stroke="none" stroke-width="1px">70k</text><text style="text-anchor: middle; visibility: hidden; font-family: Roboto, sans-serif; font-size: 12px; font-weight: 200;" x="139.23399925231934" y="0" dx="0em" dy="0.95em" fill="rgb(50, 49, 63)" stroke="none" stroke-width="1px">80k</text><text style="text-anchor: middle; visibility: inherit; font-family: Roboto, sans-serif; font-size: 12px; font-weight: 200;" x="162.43966579437256" y="0" dx="0em" dy="0.95em" fill="rgb(50, 49, 63)" stroke="none" stroke-width="1px">90k</text><text style="text-anchor: middle; visibility: hidden; font-family: Roboto, sans-serif; font-size: 12px; font-weight: 200;" x="185.64533233642578" y="0" dx="0em" dy="0.95em" fill="rgb(50, 49, 63)" stroke="none" stroke-width="1px">100k</text><text style="text-anchor: middle; visibility: inherit; font-family: Roboto, sans-serif; font-size: 12px; font-weight: 200;" x="208.850998878479" y="0" dx="0em" dy="0.95em" fill="rgb(50, 49, 63)" stroke="none" stroke-width="1px">110k</text><text style="text-anchor: middle; visibility: hidden; font-family: Roboto, sans-serif; font-size: 12px; font-weight: 200;" x="232.05666542053223" y="0" dx="0em" dy="0.95em" fill="rgb(50, 49, 63)" stroke="none" stroke-width="1px">120k</text><text style="text-anchor: middle; visibility: inherit; font-family: Roboto, sans-serif; font-size: 12px; font-weight: 200;" x="255.26233196258545" y="0" dx="0em" dy="0.95em" fill="rgb(50, 49, 63)" stroke="none" stroke-width="1px">130k</text><text style="text-anchor: middle; visibility: hidden; font-family: Roboto, sans-serif; font-size: 12px; font-weight: 200;" x="278.4679985046387" y="0" dx="0em" dy="0.95em" fill="rgb(50, 49, 63)" stroke="none" stroke-width="1px">140k</text></g><line x1="0" y1="0" x2="278.4679985046387" y2="0" fill="rgb(0, 0, 0)" stroke="rgb(204, 204, 204)" stroke-width="1px"></line></g></g></g></g></svg>