<svg viewBox="0 0 330 200" xmlns="http://www.w3.org/2000/svg"><g><g><g><g><g><line x1="72.29800224304199" y1="177.89999961853027" x2="67.29800224304199" y2="177.89999961853027" style="visibility: inherit;" fill="rgb(0, 0, 0)" stroke="rgb(204, 204, 204)" stroke-width="1px"></line><line x1="72.29800224304199" y1="166.03999964396158" x2="67.29800224304199" y2="166.03999964396158" style="visibility: inherit;" fill="rgb(0, 0, 0)" stroke="rgb(204, 204, 204)" stroke-width="1px"></line><line x1="72.29800224304199" y1="154.1799996693929" x2="67.29800224304199" y2="154.1799996693929" style="visibility: inherit;" fill="rgb(0, 0, 0)" stroke="rgb(204, 204, 204)" stroke-width="1px"></line><line x1="72.29800224304199" y1="142.31999969482422" x2="67.29800224304199" y2="142.31999969482422" style="visibility: inherit;" fill="rgb(0, 0, 0)" stroke="rgb(204, 204, 204)" stroke-width="1px"></line><line x1="72.29800224304199" y1="130.45999972025555" x2="67.29800224304199" y2="130.45999972025555" style="visibility: inherit;" fill="rgb(0, 0, 0)" stroke="rgb(204, 204, 204)" stroke-width="1px"></line><line x1="72.29800224304199" y1="118.59999974568686" x2="67.29800224304199" y2="118.59999974568686" style="visibility: inherit;" fill="rgb(0, 0, 0)" stroke="rgb(204, 204, 204)" stroke-width="1px"></line><line x1="72.29800224304199" y1="106.73999977111816" x2="67.29800224304199" y2="106.73999977111816" style="visibility: inherit;" fill="rgb(0, 0, 0)" stroke="rgb(204, 204, 204)" stroke-width="1px"></line><line x1="72.29800224304199" y1="94.87999979654948" x2="67.29800224304199" y2="94.87999979654948" style="visibility: inherit;" fill="rgb(0, 0, 0)" stroke="rgb(204, 204, 204)" stroke-width="1px"></line><line x1="72.29800224304199" y1="83.01999982198079" x2="67.29800224304199" y2="83.01999982198079" style="visibility: inherit;" fill="rgb(0, 0, 0)" stroke="rgb(204, 204, 204)" stroke-width="1px"></line><line x1="72.29800224304199" y1="71.15999984741211" x2="67.29800224304199" y2="71.15999984741211" style="visibility: inherit;" fill="rgb(0, 0, 0)" stroke="rgb(204, 204, 204)" stroke-width="1px"></line><line x1="72.29800224304199" y1="59.29999987284343" x2="67.29800224304199" y2="59.29999987284343" style="visibility: inherit;" fill="rgb(0, 0, 0)" stroke="rgb(204, 204, 204)" stroke-width="1px"></line><line x1="72.29800224304199" y1="47.43999989827475" x2="67.29800224304199" y2="47.43999989827475" style="visibility: inherit;" fill="rgb(0, 0, 0)" stroke="rgb(204, 204, 204)" stroke-width="1px"></line><line x1="72.29800224304199" y1="35.57999992370605" x2="67.29800224304199" y2="35.57999992370605" style="visibility: inherit;" fill="rgb(0, 0, 0)" stroke="rgb(204, 204, 204)" stroke-width="1px"></line><line x1="72.29800224304199" y1="23.719999949137364" x2="67.29800224304199" y2="23.719999949137364" style="visibility: inherit;" fill="rgb(0, 0, 0)" stroke="rgb(204, 204, 204)" stroke-width="1px"></line><line x1="72.29800224304199" y1="11.859999974568682" x2="67.29800224304199" y2="11.859999974568682" style="visibility: inherit;" fill="rgb(0, 0, 0)" stroke="rgb(204, 204, 204)" stroke-width="1px"></line><line x1="72.29800224304199" y1="0" x2="67.29800224304199" y2="0" style="visibility: inherit;" fill="rgb(0, 0, 0)" stroke="rgb(204, 204, 204)" stroke-width="1px"></line></g><g transform="translate(62.29800224304199, 0)"><text style="text-anchor: end; visibility: hidden; font-family: Roboto, sans-serif; font-size: 12px; font-weight: 200;" x="0" y="177.89999961853027" dx="0em" dy="0.3em" fill="rgb(50, 49, 63)" stroke="none" stroke-width="1px">-400</text><text style="text-anchor: end; visibility: inherit; font-family: Roboto, sans-serif; font-size: 12px; font-weight: 200;" x="0" y="166.03999964396158" dx="0em" dy="0.3em" fill="rgb(50, 49, 63)" stroke="none" stroke-width="1px">-200</text><text style="text-anchor: end; visibility: hidden; font-family: Roboto, sans-serif; font-size: 12px; font-weight: 200;" x="0" y="154.1799996693929" dx="0em" dy="0.3em" fill="rgb(50, 49, 63)" stroke="none" stroke-width="1px">0</text><text style="text-anchor: end; visibility: hidden; font-family: Roboto, sans-serif; font-size: 12px; font-weight: 200;" x="0" y="142.31999969482422" dx="0em" dy="0.3em" fill="rgb(50, 49, 63)" stroke="none" stroke-width="1px">200</text><text style="text-anchor: end; visibility: inherit; font-family: Roboto, sans-serif; font-size: 12px; font-weight: 200;" x="0" y="130.45999972025555" dx="0em" dy="0.3em" fill="rgb(50, 49, 63)" stroke="none" stroke-width="1px">400</text><text style="text-anchor: end; visibility: hidden; font-family: Roboto, sans-serif; font-size: 12px; font-weight: 200;" x="0" y="118.59999974568686" dx="0em" dy="0.3em" fill="rgb(50, 49, 63)" stroke="none" stroke-width="1px">600</text><text style="text-anchor: end; visibility: hidden; font-family: Roboto, sans-serif; font-size: 12px; font-weight: 200;" x="0" y="106.73999977111816" dx="0em" dy="0.3em" fill="rgb(50, 49, 63)" stroke="none" stroke-width="1px">800</text><text style="text-anchor: end; visibility: inherit; font-family: Roboto, sans-serif; font-size: 12px; font-weight: 200;" x="0" y="94.87999979654948" dx="0em" dy="0.3em" fill="rgb(50, 49, 63)" stroke="none" stroke-width="1px">1e+3</text><text style="text-anchor: end; visibility: hidden; font-family: Roboto, sans-serif; font-size: 12px; font-weight: 200;" x="0" y="83.01999982198079" dx="0em" dy="0.3em" fill="rgb(50, 49, 63)" stroke="none" stroke-width="1px">1.2e+3</text><text style="text-anchor: end; visibility: hidden; font-family: Roboto, sans-serif; font-size: 12px; font-weight: 200;" x="0" y="71.15999984741211" dx="0em" dy="0.3em" fill="rgb(50, 49, 63)" stroke="none" stroke-width="1px">1.4e+3</text><text style="text-anchor: end; visibility: inherit; font-family: Roboto, sans-serif; font-size: 12px; font-weight: 200;" x="0" y="59.29999987284343" dx="0em" dy="0.3em" fill="rgb(50, 49, 63)" stroke="none" stroke-width="1px">1.6e+3</text><text style="text-anchor: end; visibility: hidden; font-family: Roboto, sans-serif; font-size: 12px; font-weight: 200;" x="0" y="47.43999989827475" dx="0em" dy="0.3em" fill="rgb(50, 49, 63)" stroke="none" stroke-width="1px">1.8e+3</text><text style="text-anchor: end; visibility: hidden; font-family: Roboto, sans-serif; font-size: 12px; font-weight: 200;" x="0" y="35.57999992370605" dx="0em" dy="0.3em" fill="rgb(50, 49, 63)" stroke="none" stroke-width="1px">2e+3</text><text style="text-anchor: end; visibility: inherit; font-family: Roboto, sans-serif; font-size: 12px; font-weight: 200;" x="0" y="23.719999949137364" dx="0em" dy="0.3em" fill="rgb(50, 49, 63)" stroke="none" stroke-width="1px">2.2e+3</text><text style="text-anchor: end; visibility: hidden; font-family: Roboto, sans-serif; font-size: 12px; font-weight: 200;" x="0" y="11.859999974568682" dx="0em" dy="0.3em" fill="rgb(50, 49, 63)" stroke="none" stroke-width="1px">2.4e+3</text><text style="text-anchor: end; visibility: hidden; font-family: Roboto, sans-serif; font-size: 12px; font-weight: 200;" x="0" y="0" dx="0em" dy="0.3em" fill="rgb(50, 49, 63)" stroke="none" stroke-width="1px">2.6e+3</text></g><line x1="72.29800224304199" y1="0" x2="72.29800224304199" y2="177.89999961853027" fill="rgb(0, 0, 0)" stroke="rgb(204, 204, 204)" stroke-width="1px"></line></g></g><g transform="translate(72, 0)" clip-path="url(#clip_0)"><clipPath id="clip_0"><rect width="257" height="177"></rect></clipPath><g><g><g><line x1="0" y1="0" x2="0" y2="177.89999961853027" fill="rgb(0, 0, 0)" stroke="rgb(60, 60, 60)" stroke-width="1px" opacity="0.25"></line><line x1="18.407285554068427" y1="0" x2="18.407285554068427" y2="177.89999961853027" fill="rgb(0, 0, 0)" stroke="rgb(60, 60, 60)" stroke-width="1px" opacity="0.25"></line><line x1="36.81457110813685" y1="0" x2="36.81457110813685" y2="177.89999961853027" fill="rgb(0, 0, 0)" stroke="rgb(60, 60, 60)" stroke-width="1px" opacity="0.25"></line><line x1="55.22185666220528" y1="0" x2="55.22185666220528" y2="177.89999961853027" fill="rgb(0, 0, 0)" stroke="rgb(60, 60, 60)" stroke-width="1px" opacity="0.25"></line><line x1="73.6291422162737" y1="0" x2="73.6291422162737" y2="177.89999961853027" fill="rgb(0, 0, 0)" stroke="rgb(60, 60, 60)" stroke-width="1px" opacity="0.25"></line><line x1="92.03642777034214" y1="0" x2="92.03642777034214" y2="177.89999961853027" fill="rgb(0, 0, 0)" stroke="rgb(60, 60, 60)" stroke-width="1px" opacity="0.25"></line><line x1="110.44371332441057" y1="0" x2="110.44371332441057" y2="177.89999961853027" fill="rgb(0, 0, 0)" stroke="rgb(60, 60, 60)" stroke-width="1px" opacity="0.25"></line><line x1="128.850998878479" y1="0" x2="128.850998878479" y2="177.89999961853027" fill="rgb(0, 0, 0)" stroke="rgb(60, 60, 60)" stroke-width="1px" opacity="0.25"></line><line x1="147.2582844325474" y1="0" x2="147.2582844325474" y2="177.89999961853027" fill="rgb(0, 0, 0)" stroke="rgb(60, 60, 60)" stroke-width="1px" opacity="0.25"></line><line x1="165.66556998661588" y1="0" x2="165.66556998661588" y2="177.89999961853027" fill="rgb(0, 0, 0)" stroke="rgb(60, 60, 60)" stroke-width="1px" opacity="0.25"></line><line x1="184.0728555406843" y1="0" x2="184.0728555406843" y2="177.89999961853027" fill="rgb(0, 0, 0)" stroke="rgb(60, 60, 60)" stroke-width="1px" opacity="0.25"></line><line x1="202.48014109475272" y1="0" x2="202.48014109475272" y2="177.89999961853027" fill="rgb(0, 0, 0)" stroke="rgb(60, 60, 60)" stroke-width="1px" opacity="0.25"></line><line x1="220.88742664882113" y1="0" x2="220.88742664882113" y2="177.89999961853027" fill="rgb(0, 0, 0)" stroke="rgb(60, 60, 60)" stroke-width="1px" opacity="0.25"></line><line x1="239.2947122028896" y1="0" x2="239.2947122028896" y2="177.89999961853027" fill="rgb(0, 0, 0)" stroke="rgb(60, 60, 60)" stroke-width="1px" opacity="0.25"></line><line x1="257.701997756958" y1="0" x2="257.701997756958" y2="177.89999961853027" fill="rgb(0, 0, 0)" stroke="rgb(60, 60, 60)" stroke-width="1px" opacity="0.25"></line></g><g><line x1="0" y1="177.89999961853027" x2="257.701997756958" y2="177.89999961853027" fill="rgb(0, 0, 0)" stroke="rgb(60, 60, 60)" stroke-width="1px" opacity="0.25"></line><line x1="0" y1="166.03999964396158" x2="257.701997756958" y2="166.03999964396158" fill="rgb(0, 0, 0)" stroke="rgb(60, 60, 60)" stroke-width="1px" opacity="0.25"></line><line x1="0" y1="154.1799996693929" x2="257.701997756958" y2="154.1799996693929" fill="rgb(0, 0, 0)" stroke="rgb(60, 60, 60)" stroke-width="1px" opacity="0.25"></line><line x1="0" y1="142.31999969482422" x2="257.701997756958" y2="142.31999969482422" fill="rgb(0, 0, 0)" stroke="rgb(60, 60, 60)" stroke-width="1px" opacity="0.25"></line><line x1="0" y1="130.45999972025555" x2="257.701997756958" y2="130.45999972025555" fill="rgb(0, 0, 0)" stroke="rgb(60, 60, 60)" stroke-width="1px" opacity="0.25"></line><line x1="0" y1="118.59999974568686" x2="257.701997756958" y2="118.59999974568686" fill="rgb(0, 0, 0)" stroke="rgb(60, 60, 60)" stroke-width="1px" opacity="0.25"></line><line x1="0" y1="106.73999977111816" x2="257.701997756958" y2="106.73999977111816" fill="rgb(0, 0, 0)" stroke="rgb(60, 60, 60)" stroke-width="1px" opacity="0.25"></line><line x1="0" y1="94.87999979654948" x2="257.701997756958" y2="94.87999979654948" fill="rgb(0, 0, 0)" stroke="rgb(60, 60, 60)" stroke-width="1px" opacity="0.25"></line><line x1="0" y1="83.01999982198079" x2="257.701997756958" y2="83.01999982198079" fill="rgb(0, 0, 0)" stroke="rgb(60, 60, 60)" stroke-width="1px" opacity="0.25"></line><line x1="0" y1="71.15999984741211" x2="257.701997756958" y2="71.15999984741211" fill="rgb(0, 0, 0)" stroke="rgb(60, 60, 60)" stroke-width="1px" opacity="0.25"></line><line x1="0" y1="59.29999987284343" x2="257.701997756958" y2="59.29999987284343" fill="rgb(0, 0, 0)" stroke="rgb(60, 60, 60)" stroke-width="1px" opacity="0.25"></line><line x1="0" y1="47.43999989827475" x2="257.701997756958" y2="47.43999989827475" fill="rgb(0, 0, 0)" stroke="rgb(60, 60, 60)" stroke-width="1px" opacity="0.25"></line><line x1="0" y1="35.57999992370605" x2="257.701997756958" y2="35.57999992370605" fill="rgb(0, 0, 0)" stroke="rgb(60, 60, 60)" stroke-width="1px" opacity="0.25"></line><line x1="0" y1="23.719999949137364" x2="257.701997756958" y2="23.719999949137364" fill="rgb(0, 0, 0)" stroke="rgb(60, 60, 60)" stroke-width="1px" opacity="0.25"></line><line x1="0" y1="11.859999974568682" x2="257.701997756958" y2="11.859999974568682" fill="rgb(0, 0, 0)" stroke="rgb(60, 60, 60)" stroke-width="1px" opacity="0.25"></line><line x1="0" y1="0" x2="257.701997756958" y2="0" fill="rgb(0, 0, 0)" stroke="rgb(60, 60, 60)" stroke-width="1px" opacity="0.25"></line></g></g></g><g><g><line x1="0" y1="154.1799996693929" x2="257.701997756958" y2="154.1799996693929" fill="rgb(0, 0, 0)" stroke="rgb(153, 153, 153)" stroke-width="1.5px"></line></g></g><g><g><line x1="-73.6291422162737" y1="0" x2="-73.6291422162737" y2="177.89999961853027" fill="rgb(0, 0, 0)" stroke="rgb(153, 153, 153)" stroke-width="1.5px"></line></g></g><g><g><g><g><g><path style="fill: none;" stroke="rgb(255, 112, 67)" stroke-width="2px" d="M11.765936926160538,97.87873245613495L12.833559488296508,84.91268921764156L13.466770111356462,77.68921852735886L13.857004565102715,-4.1467044999457645L14.781050299916949,21.851038574972005L15.546793378966195,42.86090594454437L16.72117819731576,66.71623907919385L17.785119302340913,76.0471898913431L18.175353756087166,19.70253566926803L19.254020689555578,47.3991474486108L19.644255143301827,-62.618232401619906L20.03448959704808,18.422386596414274L20.597752535002574,56.390098792242995L21.175741301400322,72.07827632032057L21.56597575514657,89.24448891769374L23.336756625447958,-62.67134946544636L26.683201139177594,-5.425387951195444L27.515210446221488,27.664921713929985L28.424530352592466,55.634266370070584L29.031970775876726,68.56295663497546L29.941290682247704,48.74824549948155L30.331525135993957,40.81908095347378L30.72175958974021,22.777714148867787L31.11199404348646,55.79507687633472L31.74888612365723,67.10677676196411L32.315830518722535,70.68571523076662L33.20674313953945,48.6864149840624L34.0019378754752,64.66979521158561L34.39217232922145,65.02004887012077L34.782406782967705,60.33545762422117L35.434024691581726,80.61432461025154L36.015694915090286,91.13365428492335L36.40592936883654,77.4801939035624L37.06122873456138,84.57186193908997L37.75702412850516,87.22012515338358L38.430730779784064,56.60780186372353L38.820965233530316,47.94994037071447L39.608797055244445,54.642085103631366L39.9990315089907,35.19462625625836L40.38926596273695,18.09702749028357L41.49002163887024,11.33355463572925L42.40302300235203,40.73762984754874L43.05095945385524,53.273676119494354L43.441193907601495,54.72316052044607L43.83142836134774,64.01680124575013L44.22166281509399,58.66916418533392L44.630304554394314,70.61674693639722L45.02053900814056,50.184143496479955L45.41077346188681,45.48669230512847L46.19124236937932,63.56160944598204L47.063747704642154,55.30647278407866L47.453982158388406,25.50972243687164L48.017245096342904,55.73125143209868L48.5805080342974,75.87793515058895L48.97074248804365,83.95307124721576L49.55609416866302,88.24581307483197L51.39682272406987,49.14233309719597L51.974811490467616,58.30843697424739L52.38345322976794,31.537809574752053L52.77368768351419,27.484725492116674L53.34063207857949,43.391394212196865L53.73086653232574,25.97964235751446L54.51869835403988,26.7556779491552L54.90893280778612,33.51301481310931L55.299167261532375,42.967483975566516L56.68339513519832,51.53023262016398L57.07362958894457,33.678386626726464L57.46754549980164,59.94556744990686L58.04185280908857,82.64007567992269L58.43208726283482,84.30874996728274L59.01375748634339,62.092258598273354L59.61751645251683,68.29370476037747L60.17709793336051,67.95094731010352L61.33675692326682,69.13402471196129L62.03623377432142,81.72246463102275L62.42646822806767,87.1628864605249L62.81670268181392,83.55594607198348L63.206937135560175,90.96518482126012L63.88064378683908,98.8179444941841L64.44390672479356,100.88131529141017L64.83414117853982,89.18914508018678L65.22437563228607,91.50662634164365L65.61461008603233,83.50247208155325L66.00484453977857,82.1094370718991L66.39507899352482,77.06435845794496L67.15714061546326,80.27436250666717L68.69598968778338,24.911958305813958L69.08622414152963,55.49907307768558L70.08021756144933,63.62831585677267L70.76865004117148,59.80656891592563L71.15888449491774,73.70253653701593L71.71846597576142,78.7045587135022L73.31253690474374,14.857507592423728L73.9715177275794,31.3457545171207L74.85506743417467,29.369205431765554L75.24530188792093,12.210230331209582L75.63553634166718,25.439873306368966L77.29955495575497,48.23426931839672L77.89226955059596,65.68713844583638L78.59542785876138,73.31599823894295L79.42743716580527,58.24516255537578L79.81767161955152,68.62997232428076L80.37725310039521,66.36185074779343L80.93683458123888,80.15360447839373L81.32706903498514,69.16801096703875L81.93450945826939,67.72771402398507L82.32474391201565,52.63554327147436L82.7149783657619,42.47816422076862L83.41077375970568,63.76661347235089L83.80100821345194,66.29436732017156L84.36795260851724,74.43154610880826L84.77659434781756,78.42726626475076L85.16682880156381,76.41208055039537L85.55706325531007,77.1979884778558L86.47374607590265,48.967719448220905L86.86398052964891,18.284709876319198L87.61499778025491,52.85705798685408L88.00523223400117,25.910015663933372L88.39546668774742,38.175488719952966L88.80410842704774,68.72128387591638L89.38209719344547,76.66815411187068L90.06684821605681,70.62618740943573L90.63011115401132,75.75278107526309L91.02034560775758,53.04812024019697L91.41058006150382,62.12916838773921L91.99225028501237,50.493687371491646L92.65123110784803,62.13740236926659L93.05987284714836,50.43459360527193L93.4501073008946,70.29683546696252L94.43673780659267,62.80466230040125L94.82697226033892,77.76777022885712L95.47490871184213,90.63494766802053L95.86514316558838,98.69298905755218L96.68610810129984,88.88809167656926L97.24568958214351,91.67499130311933L97.9157147763116,92.73526395145512L98.30594923005785,98.02036511349574L98.6961836838041,32.110679984728364L99.45824530574254,58.527439481356886L100.02518970080784,70.82606654192976L100.43383144010816,39.97779320204126L101.64503082956585,37.261736620298194L102.03526528331211,37.5261730431675L102.66479444926125,58.28798284099112L103.58147726985386,55.42711433846898L104.14842166491917,56.27995393945406L104.74481771687098,79.69462931597346L105.32280648326874,96.09807451974625L106.50087275872912,80.01504600668294L107.0899058964593,73.12656466440822L108.53303708389826,50.13781609967076L108.92327153764452,18.30595869872706L109.92830932889665,45.34792804105682L110.3185437826429,32.33189460661735L110.70877823638915,43.6547767021936L111.09901269013541,38.47197337779863L111.68068291364398,63.04217043513602L112.24026439448765,65.42845035618926L112.63049884823391,19.233573977352922L113.02073330198016,0.9034153857825052L113.4109677557264,35.5194708166239L113.80120220947265,73.21558760206582L114.49699760341643,82.67896498547317L114.88723205716269,78.13001585883397L115.5057168517794,43.6581295515016L116.11315727506366,81.94347647366433L116.5033917288099,87.9497161818945L116.89362618255615,103.44964007531786L117.30226792185648,115.08876948203957L117.69250237560271,110.68603113120089L118.40670505510059,96.34184006961951L118.79693950884682,83.41778162356938L119.18717396259308,83.48470961533987L119.57740841633932,73.08660130583173L119.98605015563965,74.60413287087769L120.75915614891052,82.00982017488397L121.4549515428543,77.55267030586533L121.86359328215462,89.49987392976155L122.43421913433076,82.89911110188594L122.84286087363107,81.71257304764998L123.40980526869637,88.16227037309163L123.80003972244262,80.44145933276111L124.37066557461876,76.8621528674373L124.77930731391908,81.12545201648838L126.04204710292815,-2.0123302439178925L126.43228155667441,44.87594052436433L126.84092329597473,24.08318328555722L127.23115774972098,29.70834429408451L127.79073923056465,53.91198964848368L128.1809736843109,37.891610583841995L128.74423662226542,67.94602895111335L129.3111810173307,70.0943715021188L129.70141547107696,37.52394286216254L130.0916499248232,62.55382263095291L130.6549128627777,85.53994909574644L131.9434228515625,57.18686315581361L132.33365730530875,50.216282307627154L133.03681561347415,68.2485795079165L133.4270500672204,70.40835104978387L133.81728452096667,68.90082964497807L134.40263620158606,69.2163100611973L134.7928706553323,84.47253388164826L135.18310510907855,87.39347769656112L136.1402839578901,48.12490713499363L136.53051841163636,54.20326272766141L137.30362440490725,86.06105011090466L137.69385885865347,84.14383313648626L138.2644847108296,90.46423594118689L138.65471916457585,98.52244520030898L139.0449536183221,74.71418521173288L139.43518807206834,73.08483366410613L140.21933843667165,27.368534725994184L140.83782323128838,56.098817347195585L141.2280576850346,73.91557452853905L141.61829213878084,92.61977480648859L142.0269338780812,81.13256230955228L142.69327761513847,87.48286147977176L143.08351206888472,88.54524026758071L143.749855805942,99.00725292935552L144.3131187438965,91.1209914356973L144.87638168185097,81.5662103506256L145.26661613559722,96.36536728543871L145.65685058934346,97.64743116964894L146.04708504308974,106.11776474733354L146.9343162067958,59.753749081408515L147.32455066054206,74.39297849217907L147.71478511428833,61.93689504160722L148.10501956803458,74.4216270280769L148.49525402178082,71.53541215041325L149.05851695973533,54.50157016580697L149.44875141348157,59.03646293656778L149.83898586722782,49.43316185787294L150.22922032097406,59.58340961403553L150.6194547747203,70.84351351543627L151.01337068557737,81.03772498952932L151.40360513932364,103.47471647521975L151.7938395930699,101.60446786435502L152.2024813323702,66.02353033666729L153.0823495818547,76.10440207883265L153.47258403560093,59.57137514325645L153.86281848934718,58.09590791888168L154.25673440020424,73.55396235389944L154.64696885395048,84.70342784292157L155.0556105932508,88.09648173813034L155.44584504699705,85.04693661057419L155.83607950074332,101.22699301593006L156.24472124004362,91.25027897654878L156.6349556937899,82.68581822446455L157.20558154596603,86.97687255377515L157.59581599971227,105.31636523718592L157.98605045345852,117.84539264327806L158.37628490720476,114.28117372983624L158.766519360951,115.16428719462779L159.34450812734877,76.69831899969934L159.9482670935222,71.3349691922144L160.5115300314767,80.7845410212831L160.90176448522294,59.650222342704L161.2919989389692,77.37010471050571L161.68223339271543,84.11568065807492L162.25285924489157,82.0441305488192L162.64309369863784,82.63257442465124L163.0333281523841,95.98352606895888L163.7143977178846,74.36015850092325L164.10463217163087,56.53941403983062L164.66421365247453,61.644050107621766L165.0544481062208,23.624153774866326L165.44468255996705,51.94804638069955L165.8349170137133,68.15655415535721L166.24355875301362,64.97431892595392L166.63379320675986,75.71088517818758L167.2081005160468,90.3982133908512L167.59833496979306,83.52397237601187L167.9885694235393,72.64292534507275L168.37880387728555,89.88716615268173L169.14086549922396,42.83305964704971L169.7667132080623,67.66199819825066L170.15694766180854,76.81000338719795L170.54718211555482,74.92345877712344L170.93741656930106,61.801549795577834L171.34605830860139,83.98755552139407L171.73629276234763,86.60966946076223L172.1302086732047,91.11848905588143L172.52044312695094,101.08284783840297L172.91067758069718,100.00158385547624L173.30091203444343,97.01323923294399L173.6911464881897,76.66786556072977L174.09978822749,65.00643878787155L174.49002268123627,85.6209569569419L174.88025713498251,71.60038902336889L175.27049158872876,91.30946909159641L175.660726042475,100.85996008174705L176.30866249397823,67.78730844556573L176.69889694772448,55.428327174370246L177.08913140147072,25.821135363535557L177.47936585521697,53.42604999176153L177.8880075945173,52.749473930175434L178.2966493338176,67.49203466210814L178.68688378756386,81.3334571061801L179.0771182413101,66.67460568045797L179.46735269505638,37.921833539694326L179.85758714880262,57.152416202398136L180.24782160254887,78.40066157265659L180.6380560562951,83.1045257725119L181.02829051004136,48.41415660919139L181.58787199088505,67.03895201881777L181.9781064446313,74.33849898970034L182.37202235548835,84.62914865857859L182.76225680923463,82.63698164636232L183.15249126298087,83.29778591259158L183.54272571672712,75.97501260020961L183.93296017047336,96.27346536037042L184.3416019097737,103.92907989359813L184.73183636351993,102.49042830420358L185.12207081726618,102.33805990519497L185.51230527101245,97.00910680914953L185.9025397247587,88.23191478282295L186.31118146405902,98.04509585061011L186.71982320335934,92.22046549051862L187.11005765710559,39.08863685843918L187.50029211085183,64.4227079866855L187.89052656459808,47.13171218594117L188.28076101834432,68.98710475357154L188.6709954720906,76.96866945066137L189.07963721139092,81.30477980308939L189.46987166513716,78.59611654839404L189.8601061188834,76.4362833476998L190.25034057262965,89.99139518987194L190.6405750263759,82.36037820544288L191.2038379643304,57.555250353078904L191.59775387518746,61.270570427951974L192.37454132556917,57.96541335876653L192.7684572364262,70.29400635707462L193.15869169017247,85.78467109866556L193.71827317101614,89.89255818228058L194.1085076247624,100.6505604586117L194.5171493640627,87.82482393606601L194.90738381780898,72.26030388999816L195.29761827155522,77.79873413514395L195.69153418241228,85.36168001972192L196.1001759217126,90.53694281765641L196.49041037545885,88.43127660378202L196.89905211475917,109.11754742653541L197.3076938540595,101.98559208855976L197.69792830780574,86.0144654977594L198.0918442186628,83.33269093961444L198.48207867240905,72.12553612276953L198.8723131261553,80.0894507255808L199.26254757990154,92.2738946081055L199.6527820336478,92.01731632982325L200.04301648739406,107.69041265044928L200.4332509411403,104.30072617704514L200.82348539488655,93.9939272990236L201.21371984863282,91.85005135710198L201.6223615879331,85.59491278502547L202.0125960416794,57.68880939571917L202.40651195253645,51.94026205047272L202.80042786339354,63.96238489432961L203.19066231713978,89.84149683088239L203.58089677088603,97.04753298160493L203.97113122463224,114.31823468700073L204.3797729639326,126.28318608766126L204.78841470323292,131.06644272421036L205.17864915697916,95.78349270225742L205.83762997981478,82.6081502500683L206.22786443356105,86.87696547042357L206.81321611418045,102.5010065350756L207.2034505679267,98.81260106271719L207.59368502167294,97.55138213517132L208.00232676097326,94.09966123119999L208.3925612147195,87.98947637325955L208.78279566846575,100.61868691769398L209.173030122212,93.24045793462729L209.56326457595827,92.32036560074413L209.95349902970452,33.476045491425545L210.34373348345076,13.768949613087646L211.01007722050804,51.913883307061305L211.40031167425428,65.18832802159662L211.79054612800053,72.94024451874274L212.1807805817468,68.77894246815347L212.57469649260386,65.17753659173104L213.2594475152152,76.53684402321454L213.64968196896143,68.81383477304529L214.03991642270768,87.82292469470737L214.43015087645395,84.96735121246414L214.8203853302002,83.92301999277736L215.21061978394644,81.1237190683586L215.6008542376927,66.51793728165929L215.99108869143896,94.5503338460706L216.3813231451852,103.70524680115237L216.77155759893145,88.57906197925475L217.1617920526777,97.95795840250112L217.55202650642394,108.23781702039835L217.94226096017022,99.50903655413425L218.33249541391646,66.22936006302257L218.7227298676627,72.82290145026741L219.11296432140895,51.98480162386635L219.50319877515523,65.30836569608383L219.89343322890147,63.05084293092809L220.3020749682018,90.82497855019463L220.69230942194804,81.81341704712399L221.08254387569428,68.35190420063893L221.47645978655135,75.55291758303441L221.8666942402976,85.92719852917836L222.25692869404384,85.53973024580851L222.6471631477901,84.73086659635845L223.03739760153636,96.22773736292872L223.4276320552826,97.72513260300629L223.81786650902885,111.97096457438913L224.22650824832917,93.25209217506094L224.6351499876295,94.86347365665597L225.02538444137573,95.06806011560683L225.43402618067606,108.81690089242306L226.13718448884146,104.98207136342863L226.5274189425877,101.26364594887627L227.18639976542337,70.53972254835128L227.9226911875861,83.0710842961289L228.31292564133236,82.53552519019144L228.7031600950786,71.84547182405782L229.09339454882485,52.542225789047144L229.4836290025711,82.5285451064941L229.87386345631737,85.57911900805335L230.28250519561766,85.2389269962213L230.67273964936393,96.28809140122222L231.066655560221,98.25935354786371L231.45689001396724,85.90787612854187L231.86553175326756,77.02396667717767L232.2557662070138,81.46111856353976L232.64600066076005,86.97448593436066L233.0362351145063,93.97907666630948L233.42646956825257,88.32485656606815L233.81670402199882,91.3514756567096L234.20693847574506,88.65692784098117L234.5971729294913,77.43859102760153L234.98740738323755,81.21154153423768L235.37764183698383,81.00263793238871L235.76787629073007,87.60131783449778L236.15811074447632,88.2580500040361L236.54834519822256,99.87742726752853L236.93857965196884,93.31050895494755L237.32881410571508,89.20337982322577L237.71904855946133,83.39219355742412L238.10928301320757,85.03042927230534L238.49951746695382,85.70523944701195L238.8897519207001,57.59767508074842L239.27998637444634,23.87841447564737L239.6739022853034,51.674292843586244L240.06781819616046,50.01424463023318L240.4580526499067,55.56233841768102L240.84828710365295,66.98263624018213L241.24220301451,80.50195040278493L241.65084475381033,66.35527526155141L242.05948649311065,72.4527189931921L242.46812823241098,74.24845583675666L242.85836268615722,76.52085953701275L243.26700442545754,89.56386671503213L243.6572388792038,87.18691638795977L244.04747333295003,78.88061716838341L244.43770778669628,45.98362119258546L244.82794224044255,64.16610281778581L245.2181766941888,68.72633385730195L245.60841114793504,84.86541473010385L245.9986456016813,79.25103120406848L246.38888005542753,96.40367131055693L246.7791145091738,91.58100141516017L247.16934896292005,77.3728755324572L247.5595834166663,69.53009188125563L247.94981787041255,69.01143021671274L248.3437337812696,67.29878138017183L248.75237552056993,61.265200751090966L249.14260997431617,25.336776481006826L249.53284442806245,6.269800722210614L249.9230788818087,34.26448001635736L250.31331333555494,54.64524002168378L250.70354778930118,68.25213436665047L251.1121895286015,41.64996665364833" fill="none"></path></g></g></g></g><g opacity="0.2"><g><g><g><path style="fill: none;" stroke="rgb(255, 112, 67)" stroke-width="2px" d="M11.765936926160538,97.87873245613495L12.833559488296508,77.13306327454552L13.466770111356462,70.75468666468748L13.857004565102715,-100.38574998005603L14.781050299916949,55.79369193358464L15.546793378966195,71.92511606891601L16.72117819731576,100.82974714707272L17.785119302340913,89.65180575258448L18.175353756087166,-63.39488492265653L19.254020689555578,88.52538806701158L19.644255143301827,-226.64645263900357L20.03448959704808,139.542295623632L20.597752535002574,113.21769591811676L21.175741301400322,95.57980783948247L21.56597575514657,114.97362957524018L23.336756625447958,-290.4379642209659L24.816702383995054,-11.446130566276471L26.683201139177594,41.42260624662701L27.515210446221488,77.297361626244L28.424530352592466,97.58674944894855L29.031970775876726,87.95556660827249L29.941290682247704,19.026570003146766L30.331525135993957,28.925428062975403L30.72175958974021,-4.284207827727482L31.11199404348646,105.32098016356525L31.74888612365723,84.0742976468685L32.315830518722535,76.05411743945675L33.20674313953945,15.687484878470805L34.0019378754752,88.64485671909912L34.39217232922145,65.54542924177561L34.782406782967705,53.30857168744861L35.434024691581726,111.03262266840767L36.015694915090286,106.91264804345303L36.40592936883654,57.00000391830264L37.06122873456138,95.20936380951511L37.75702412850516,91.19251993385105L38.430730779784064,10.689317213407106L38.820965233530316,34.96314817942329L39.608797055244445,64.68030218064243L39.9990315089907,6.023438024193354L40.38926596273695,-7.5493706381088215L41.49002163887024,1.188345358779956L42.40302300235203,84.8437426525428L43.05095945385524,72.07774552415512L43.441193907601495,56.89738712164767L43.83142836134774,77.95726233283678L44.22166281509399,50.64770859500976L44.630304554394314,88.53812106258972L45.02053900814056,19.535238337016967L45.41077346188681,38.440515518158215L46.19124236937932,90.67398515713091L47.063747704642154,42.92376779125965L47.453982158388406,-19.185403083860876L48.017245096342904,101.06354492489172L48.5805080342974,106.09796072830544L48.97074248804365,96.06577539215137L49.55609416866302,94.68492581625488L51.39682272406987,-9.512886869250016L51.974811490467616,72.05759278982335L52.38345322976794,-8.618131524488962L52.77368768351419,21.405099368163693L53.34063207857949,67.25139729231672L53.73086653232574,-0.13798542450879242L54.51869835403988,27.919731336616294L54.90893280778612,43.649020109040435L55.299167261532375,57.149187719252275L56.68339513519832,64.37435558706018L57.07362958894457,6.900617636570235L57.46754549980164,99.34633868467742L58.04185280908857,116.68183802494644L58.43208726283482,86.81176139832282L59.01375748634339,28.76752154475932L59.61751645251683,77.59587400353358L60.17709793336051,67.43681113469259L61.33675692326682,70.90864081474798L62.03623377432142,100.60512450961494L62.42646822806767,95.32351920477812L62.81670268181392,78.14553548917135L63.206937135560175,102.07904294517512L63.88064378683908,110.5970840035701L64.44390672479356,103.97637148724928L64.83414117853982,71.65088976335167L65.22437563228607,94.98284823382893L65.61461008603233,71.49624069141768L66.00484453977857,80.01988455741784L66.39507899352482,69.49674053701378L67.15714061546326,85.0893685797505L68.69598968778338,-58.1316479954659L69.08622414152963,101.37974523549299L70.08021756144933,75.82218002540331L70.76865004117148,54.07394850465507L71.15888449491774,94.54648796865135L71.71846597576142,86.20759197823159L73.31253690474374,-80.913069089194L73.9715177275794,56.07812490416614L74.85506743417467,26.404381803732825L75.24530188792093,-13.528232319624307L75.63553634166718,45.28433776910805L77.29955495575497,82.42586333643838L77.89226955059596,91.86644213699581L78.59542785876138,84.7592879286028L79.42743716580527,35.638909030025054L79.81767161955152,84.20718697763823L80.37725310039521,62.959668383062436L80.93683458123888,100.84123507429419L81.32706903498514,52.6896207000063L81.93450945826939,65.56726860940456L82.32474391201565,29.997287142708274L82.7149783657619,27.242095644709956L83.41077375970568,95.69928734972432L83.80100821345194,70.08599809190258L84.36795260851724,86.63731429176327L84.77659434781756,84.42084649866446L85.16682880156381,73.3893019788623L85.55706325531007,78.37685036904644L86.47374607590265,6.622315903768565L86.86398052964891,-27.739804481533344L87.61499778025491,104.71558015265636L88.00523223400117,-14.51054782044763L88.39546668774742,56.57369830398238L88.80410842704774,114.53997660986148L89.38209719344547,88.5884594658021L90.06684821605681,61.56323735578335L90.63011115401132,83.44267157400415L91.02034560775758,18.991128987597772L91.41058006150382,75.75074060905258L91.99225028501237,33.0404658471203L92.65123110784803,79.60297486592899L93.05987284714836,32.88038045928L93.4501073008946,100.09019825949838L94.43673780659267,51.566402550559324L94.82697226033892,100.21243212154097L95.47490871184213,109.93571382676562L95.86514316558838,110.78005114184964L96.68610810129984,74.1807456050949L97.24568958214351,95.85534074294438L97.9157147763116,94.32567292395882L98.30594923005785,105.94801685655663L98.6961836838041,-66.7538477084227L99.45824530574254,98.1525787262997L100.02518970080784,89.27400713278912L100.43383144010816,-6.294616807791558L101.64503082956585,33.1876517476836L102.03526528331211,37.92282767747142L102.66479444926125,89.43069753772657L103.58147726985386,51.135811584685776L104.14842166491917,57.559213340931656L104.74481771687098,114.8166423807526L105.32280648326874,120.70324232540538L106.50087275872912,55.89050323708798L107.0899058964593,62.793842650996126L108.53303708389826,15.654693252564572L108.92327153764452,-29.441827402688396L109.92830932889665,85.91088205455142L110.3185437826429,12.807844454958097L110.70877823638915,60.639099845557936L111.09901269013541,30.697768391206242L111.68068291364398,99.89746602114212L112.24026439448765,69.0078702377691L112.63049884823391,-50.058740590901564L113.02073330198016,-26.59182250157309L113.4109677557264,87.44355396288603L113.80120220947265,129.75976278022875L114.49699760341643,96.87403106058424L114.88723205716269,71.30659216887513L115.5057168517794,-8.049699909496884L116.11315727506366,139.37149685690838L116.5033917288099,96.95907574423977L116.89362618255615,126.69952591545288L117.30226792185648,132.54746359212217L117.69250237560271,104.08192360494286L118.40670505510059,74.8255534772474L118.79693950884682,64.03169395449416L119.18717396259308,83.5851016029956L119.57740841633932,57.489438841569545L119.98605015563965,76.88043021844662L120.75915614891052,93.11835113089337L121.4549515428543,70.86694550233739L121.86359328215462,107.42067936560585L122.43421913433076,72.99796686007252L122.84286087363107,79.93276596629603L123.40980526869637,97.83681636125412L123.80003972244262,68.86024277226532L124.37066557461876,71.49319316945156L124.77930731391908,87.52040074006499L126.04204710292815,-126.71900363452734L126.43228155667441,115.20834667678768L126.84092329597473,-7.105952572653394L127.23115774972098,38.1460858068755L127.79073923056465,90.21745768008249L128.1809736843109,13.861041986879432L128.74423662226542,113.02765650202035L129.3111810173307,73.31688532862697L129.70141547107696,-11.331700097771838L130.0916499248232,100.09864228413848L130.6549128627777,120.01913879293676L131.9434228515625,14.657234245914342L132.33365730530875,39.760411035347495L133.03681561347415,95.29702530835057L133.4270500672204,73.64800836258489L133.81728452096667,66.63954753776933L134.40263620158606,69.68953068552615L134.7928706553323,107.3568696123247L135.18310510907855,91.7748934189304L136.1402839578901,-10.777948707357684L136.53051841163636,63.32079611666307L137.30362440490725,133.84773118576956L137.69385885865347,81.26800767485867L138.2644847108296,99.9448401482378L138.65471916457585,110.60975908899215L139.0449536183221,39.00179522886872L139.43518807206834,70.64080634266604L140.21933843667165,-41.2059136811737L140.83782323128838,99.1942412789977L141.2280576850346,100.64071030055425L141.61829213878084,120.67607522341287L142.0269338780812,63.9017435641478L142.69327761513847,97.00831023510099L143.08351206888472,90.13880844929412L143.749855805942,114.70027192201775L144.3131187438965,79.29159919520995L144.87638168185097,67.23403872301802L145.26661613559722,118.56410268765836L145.65685058934346,99.57052699596427L146.04708504308974,118.82326511386044L146.9343162067958,-9.79227441747905L147.32455066054206,96.35182260833487L147.71478511428833,43.25276986574948L148.10501956803458,93.14872500778138L148.49525402178082,67.2060898339178L149.05851695973533,28.950807188897542L149.44875141348157,65.83880209270903L149.83898586722782,35.028210239830656L150.22922032097406,74.80878124827946L150.6194547747203,87.73366936753736L151.01337068557737,96.32904220066887L151.40360513932364,137.1302037037554L151.7938395930699,98.7990949480579L152.2024813323702,12.652124045135773L153.0823495818547,91.22570969208066L153.47258403560093,34.771834739892114L153.86281848934718,55.88270708231953L154.25673440020424,96.74104400642602L154.64696885395048,101.42762607645477L155.0556105932508,93.1860625809435L155.44584504699705,80.47261891924L155.83607950074332,125.49707762396389L156.24472124004362,76.28520791747684L156.6349556937899,69.83912709633819L157.20558154596603,93.41345404774106L157.59581599971227,132.8256042623021L157.98605045345852,136.63893375241625L158.37628490720476,108.9348453596735L158.766519360951,116.48895739181509L159.34450812734877,18.99936670730667L159.9482670935222,63.28994448098703L160.5115300314767,94.95889876488616L160.90176448522294,27.948744324835317L161.2919989389692,103.94992826220832L161.68223339271543,94.23404457942874L162.25285924489157,78.93680538493557L162.64309369863784,83.51524023839933L163.0333281523841,116.00995353542035L163.7143977178846,41.92510714886982L164.10463217163087,29.80829734819166L164.66421365247453,69.3010042093085L165.0544481062208,-33.40569072426685L165.44468255996705,94.43388528944942L165.8349170137133,92.4693158173437L166.24355875301362,60.20096608184898L166.63379320675986,91.81573455653812L167.2081005160468,112.42920570984657L167.59833496979306,73.21261085375289L167.9885694235393,56.32135479866411L168.37880387728555,115.7535273640952L169.14086549922396,-27.748100111398397L169.7667132080623,104.90540602505206L170.15694766180854,90.53201117061894L170.54718211555482,72.09364186201167L170.93741656930106,42.11868632325942L171.34605830860139,117.2665641101184L171.73629276234763,90.54284036981446L172.1302086732047,97.88171844856018L172.52044312695094,116.02938601218533L172.91067758069718,98.37968788108613L173.30091203444343,92.53072229914562L173.6911464881897,46.14980505240849L174.09978822749,47.51429862858417L174.49002268123627,116.54273421054745L174.88025713498251,50.56953712300941L175.27049158872876,120.87308919393769L175.660726042475,115.18569656697298L176.30866249397823,18.178330991293777L176.69889694772448,36.88985526757702L177.08913140147072,-18.589652352716445L177.47936585521697,94.83342193410054L177.8880075945173,51.7346098377963L178.2966493338176,89.6058757600072L178.68688378756386,102.09559077228809L179.0771182413101,44.68632854187473L179.46735269505638,-5.207324671451171L179.85758714880262,85.99829019645384L180.24782160254887,110.27302962804426L180.6380560562951,90.16032207229486L181.02829051004136,-3.6213971357893526L181.58787199088505,94.97614513325739L181.9781064446313,85.28781944602417L182.37202235548835,100.06512316189591L182.76225680923463,79.64873112803791L183.15249126298087,84.28899231193547L183.54272571672712,64.99085263163666L183.93296017047336,126.7211445006116L184.3416019097737,115.41250169343975L184.73183636351993,100.33245092011174L185.12207081726618,102.10950730668206L185.51230527101245,89.01567716508133L185.9025397247587,75.06612674333311L186.31118146405902,112.76486745229089L186.71982320335934,83.4835199503814L187.11005765710559,-40.60910608967999L187.50029211085183,102.42381467905497L187.89052656459808,21.19521848482468L188.28076101834432,101.77019360501707L188.6709954720906,88.94101649629613L189.07963721139092,87.80894533173142L189.46987166513716,74.53312166635104L189.8601061188834,73.19653354665846L190.25034057262965,110.32406295313014L190.6405750263759,70.9138527287993L191.2038379643304,20.347558574532925L191.59775387518746,66.84355054026159L192.37454132556917,53.00767775498835L192.7684572364262,88.78689585453675L193.15869169017247,109.02066821105196L193.71827317101614,96.05438880770313L194.1085076247624,116.7875638731084L194.5171493640627,68.58621915224745L194.90738381780898,48.913523820896316L195.29761827155522,86.10637950286268L195.69153418241228,96.70609884658886L196.1001759217126,98.29983701455814L196.49041037545885,85.2727772829705L196.89905211475917,140.1469536606655L197.3076938540595,91.28765908159627L197.69792830780574,62.05777561155886L198.0918442186628,79.31002910239701L198.48207867240905,55.31480389750213L198.8723131261553,92.03532262979775L199.26254757990154,110.55056043189252L199.6527820336478,91.6324489123999L200.04301648739406,131.20005713138835L200.4332509411403,99.21619646693891L200.82348539488655,78.5337289819913L201.21371984863282,88.63423744421956L201.6223615879331,76.21220492691073L202.0125960416794,15.829654311759711L202.40651195253645,43.31744103260299L202.80042786339354,81.99556916011498L203.19066231713978,128.6601647357116L203.58089677088603,107.85658720768872L203.97113122463224,140.22428724509442L204.3797729639326,144.23061318865211L204.78841470323292,138.24132767903396L205.17864915697916,42.85906766932807L205.83762997981478,62.84513657178458L206.22786443356105,93.28018830095651L206.81321611418045,125.93706813205362L207.2034505679267,93.27999285417958L207.59368502167294,95.6595537438525L208.00232676097326,88.92207987524297L208.3925612147195,78.82419908634891L208.78279566846575,119.56250273434563L209.173030122212,82.17311446002722L209.56326457595827,90.94022709991938L209.95349902970452,-54.790434672552315L210.34373348345076,-15.791694204419242L211.01007722050804,109.13128384802181L211.40031167425428,85.09999509339958L211.79054612800053,84.56811926446194L212.1807805817468,62.53698939226956L212.57469649260386,59.77542777709741L213.2594475152152,93.5758051704398L213.64968196896143,57.229320897791375L214.03991642270768,116.33655957720048L214.43015087645395,80.68399098909924L214.8203853302002,82.35652316324725L215.21061978394644,76.92476768173044L215.6008542376927,44.60926460161029L215.99108869143896,136.5989286926876L216.3813231451852,117.43761623377505L216.77155759893145,65.88978474640831L217.1617920526777,112.02630303737067L217.55202650642394,123.65760494724421L217.94226096017022,86.41586585473812L218.33249541391646,16.309845326355042L218.7227298676627,82.71321353113473L219.11296432140895,20.72765188426478L219.50319877515523,85.29371180440998L219.89343322890147,59.66455878319451L220.3020749682018,132.4861819790944L220.69230942194804,68.29607479251806L221.08254387569428,48.159634930911324L221.47645978655135,86.35443765662767L221.8666942402976,101.48861994839429L222.25692869404384,84.9585278207537L222.6471631477901,83.5175711221834L223.03739760153636,113.47304351278406L223.4276320552826,99.97122546312264L223.81786650902885,133.3397125314634L224.22650824832917,65.17378357606863L224.6351499876295,97.28054587904849L225.02538444137573,95.3749398040331L225.43402618067606,129.44016205764746L226.13718448884146,99.22982706993703L226.5274189425877,95.68600782704772L227.18639976542337,24.45383744756381L227.9226911875861,101.86812691779537L228.31292564133236,81.73218653128522L228.7031600950786,55.81039177485741L229.09339454882485,23.587356736531163L229.4836290025711,127.50802408266455L229.87386345631737,90.15497986039225L230.28250519561766,84.72863897847323L230.67273964936393,112.86183800872358L231.066655560221,101.216246767826L231.45689001396724,67.38065999955909L231.86553175326756,63.698102500131355L232.2557662070138,88.11684639308291L232.64600066076005,95.24453699059202L233.0362351145063,104.48596276423272L233.42646956825257,79.84352641570615L233.81670402199882,95.89140429267174L234.20693847574506,84.61510611738855L234.5971729294913,60.61108580753207L234.98740738323755,86.87096729419194L235.37764183698383,80.68928252961526L235.76787629073007,97.49933768766137L236.15811074447632,89.24314825834357L236.54834519822256,117.30649316276715L236.93857965196884,83.46013148607608L237.32881410571508,83.04268612564309L237.71904855946133,74.6754141587217L238.10928301320757,87.48778284462713L238.49951746695382,86.71745470907189L238.8897519207001,15.436328531353116L239.27998637444634,-26.700476432004184L239.6739022853034,93.36811039549454L240.06781819616046,47.52417231020362L240.4580526499067,63.88447909885281L240.84828710365295,84.11308297393379L241.24220301451,100.78092164668914L241.65084475381033,45.13526254970115L242.05948649311065,81.59888459065307L242.46812823241098,76.94206110210352L242.85836268615722,79.92946508739686L243.26700442545754,109.12837748206124L243.6572388792038,83.62149089735118L244.04747333295003,66.42116833901886L244.43770778669628,-3.361872771111455L244.82794224044255,91.43982525558638L245.2181766941888,75.56668041657619L245.60841114793504,109.07403603930666L245.9986456016813,70.82945591501542L246.38888005542753,122.1326314702896L246.7791145091738,84.34699657206501L247.16934896292005,56.06068670840275L247.5595834166663,57.76591640445325L247.94981787041255,68.23343771989846L248.3437337812696,64.72980812536048L248.75237552056993,52.2148298074697L249.14260997431617,-28.555859924119446L249.53284442806245,-22.330662915983723L249.9230788818087,76.25649895757746L250.31331333555494,85.21638002967346L250.70354778930118,88.66247588410043L251.1121895286015,1.7467150841451573" fill="none"></path></g></g></g></g></g></g><g transform="translate(72, 177)" clip-path="url(#clip_1)"><clipPath id="clip_1"><rect width="257" height="22"></rect></clipPath><g><g><line x1="0" y1="0" x2="0" y2="5" style="visibility: inherit;" fill="rgb(0, 0, 0)" stroke="rgb(204, 204, 204)" stroke-width="1px"></line><line x1="18.407285554068427" y1="0" x2="18.407285554068427" y2="5" style="visibility: inherit;" fill="rgb(0, 0, 0)" stroke="rgb(204, 204, 204)" stroke-width="1px"></line><line x1="36.81457110813685" y1="0" x2="36.81457110813685" y2="5" style="visibility: inherit;" fill="rgb(0, 0, 0)" stroke="rgb(204, 204, 204)" stroke-width="1px"></line><line x1="55.22185666220528" y1="0" x2="55.22185666220528" y2="5" style="visibility: inherit;" fill="rgb(0, 0, 0)" stroke="rgb(204, 204, 204)" stroke-width="1px"></line><line x1="73.6291422162737" y1="0" x2="73.6291422162737" y2="5" style="visibility: inherit;" fill="rgb(0, 0, 0)" stroke="rgb(204, 204, 204)" stroke-width="1px"></line><line x1="92.03642777034214" y1="0" x2="92.03642777034214" y2="5" style="visibility: inherit;" fill="rgb(0, 0, 0)" stroke="rgb(204, 204, 204)" stroke-width="1px"></line><line x1="110.44371332441057" y1="0" x2="110.44371332441057" y2="5" style="visibility: inherit;" fill="rgb(0, 0, 0)" stroke="rgb(204, 204, 204)" stroke-width="1px"></line><line x1="128.850998878479" y1="0" x2="128.850998878479" y2="5" style="visibility: inherit;" fill="rgb(0, 0, 0)" stroke="rgb(204, 204, 204)" stroke-width="1px"></line><line x1="147.2582844325474" y1="0" x2="147.2582844325474" y2="5" style="visibility: inherit;" fill="rgb(0, 0, 0)" stroke="rgb(204, 204, 204)" stroke-width="1px"></line><line x1="165.66556998661588" y1="0" x2="165.66556998661588" y2="5" style="visibility: inherit;" fill="rgb(0, 0, 0)" stroke="rgb(204, 204, 204)" stroke-width="1px"></line><line x1="184.0728555406843" y1="0" x2="184.0728555406843" y2="5" style="visibility: inherit;" fill="rgb(0, 0, 0)" stroke="rgb(204, 204, 204)" stroke-width="1px"></line><line x1="202.48014109475272" y1="0" x2="202.48014109475272" y2="5" style="visibility: inherit;" fill="rgb(0, 0, 0)" stroke="rgb(204, 204, 204)" stroke-width="1px"></line><line x1="220.88742664882113" y1="0" x2="220.88742664882113" y2="5" style="visibility: inherit;" fill="rgb(0, 0, 0)" stroke="rgb(204, 204, 204)" stroke-width="1px"></line><line x1="239.2947122028896" y1="0" x2="239.2947122028896" y2="5" style="visibility: inherit;" fill="rgb(0, 0, 0)" stroke="rgb(204, 204, 204)" stroke-width="1px"></line><line x1="257.701997756958" y1="0" x2="257.701997756958" y2="5" style="visibility: inherit;" fill="rgb(0, 0, 0)" stroke="rgb(204, 204, 204)" stroke-width="1px"></line></g><g transform="translate(0, 8)"><text style="text-anchor: middle; visibility: hidden; font-family: Roboto, sans-serif; font-size: 12px; font-weight: 200;" x="0" y="0" dx="0em" dy="0.95em" fill="rgb(50, 49, 63)" stroke="none" stroke-width="1px">20k</text><text style="text-anchor: middle; visibility: inherit; font-family: Roboto, sans-serif; font-size: 12px; font-weight: 200;" x="18.407285554068427" y="0" dx="0em" dy="0.95em" fill="rgb(50, 49, 63)" stroke="none" stroke-width="1px">25k</text><text style="text-anchor: middle; visibility: hidden; font-family: Roboto, sans-serif; font-size: 12px; font-weight: 200;" x="36.81457110813685" y="0" dx="0em" dy="0.95em" fill="rgb(50, 49, 63)" stroke="none" stroke-width="1px">30k</text><text style="text-anchor: middle; visibility: inherit; font-family: Roboto, sans-serif; font-size: 12px; font-weight: 200;" x="55.22185666220528" y="0" dx="0em" dy="0.95em" fill="rgb(50, 49, 63)" stroke="none" stroke-width="1px">35k</text><text style="text-anchor: middle; visibility: hidden; font-family: Roboto, sans-serif; font-size: 12px; font-weight: 200;" x="73.6291422162737" y="0" dx="0em" dy="0.95em" fill="rgb(50, 49, 63)" stroke="none" stroke-width="1px">40k</text><text style="text-anchor: middle; visibility: inherit; font-family: Roboto, sans-serif; font-size: 12px; font-weight: 200;" x="92.03642777034214" y="0" dx="0em" dy="0.95em" fill="rgb(50, 49, 63)" stroke="none" stroke-width="1px">45k</text><text style="text-anchor: middle; visibility: hidden; font-family: Roboto, sans-serif; font-size: 12px; font-weight: 200;" x="110.44371332441057" y="0" dx="0em" dy="0.95em" fill="rgb(50, 49, 63)" stroke="none" stroke-width="1px">50k</text><text style="text-anchor: middle; visibility: inherit; font-family: Roboto, sans-serif; font-size: 12px; font-weight: 200;" x="128.850998878479" y="0" dx="0em" dy="0.95em" fill="rgb(50, 49, 63)" stroke="none" stroke-width="1px">55k</text><text style="text-anchor: middle; visibility: hidden; font-family: Roboto, sans-serif; font-size: 12px; font-weight: 200;" x="147.2582844325474" y="0" dx="0em" dy="0.95em" fill="rgb(50, 49, 63)" stroke="none" stroke-width="1px">60k</text><text style="text-anchor: middle; visibility: inherit; font-family: Roboto, sans-serif; font-size: 12px; font-weight: 200;" x="165.66556998661588" y="0" dx="0em" dy="0.95em" fill="rgb(50, 49, 63)" stroke="none" stroke-width="1px">65k</text><text style="text-anchor: middle; visibility: hidden; font-family: Roboto, sans-serif; font-size: 12px; font-weight: 200;" x="184.0728555406843" y="0" dx="0em" dy="0.95em" fill="rgb(50, 49, 63)" stroke="none" stroke-width="1px">70k</text><text style="text-anchor: middle; visibility: inherit; font-family: Roboto, sans-serif; font-size: 12px; font-weight: 200;" x="202.48014109475272" y="0" dx="0em" dy="0.95em" fill="rgb(50, 49, 63)" stroke="none" stroke-width="1px">75k</text><text style="text-anchor: middle; visibility: hidden; font-family: Roboto, sans-serif; font-size: 12px; font-weight: 200;" x="220.88742664882113" y="0" dx="0em" dy="0.95em" fill="rgb(50, 49, 63)" stroke="none" stroke-width="1px">80k</text><text style="text-anchor: middle; visibility: inherit; font-family: Roboto, sans-serif; font-size: 12px; font-weight: 200;" x="239.2947122028896" y="0" dx="0em" dy="0.95em" fill="rgb(50, 49, 63)" stroke="none" stroke-width="1px">85k</text><text style="text-anchor: middle; visibility: hidden; font-family: Roboto, sans-serif; font-size: 12px; font-weight: 200;" x="257.701997756958" y="0" dx="0em" dy="0.95em" fill="rgb(50, 49, 63)" stroke="none" stroke-width="1px">90k</text></g><line x1="0" y1="0" x2="257.701997756958" y2="0" fill="rgb(0, 0, 0)" stroke="rgb(204, 204, 204)" stroke-width="1px"></line></g></g></g></g></svg>