<svg viewBox="0 0 330 200" xmlns="http://www.w3.org/2000/svg"><g><g><g><g><g><line x1="61.91500186920166" y1="177.89999961853027" x2="56.91500186920166" y2="177.89999961853027" style="visibility: inherit;" fill="rgb(0, 0, 0)" stroke="rgb(204, 204, 204)" stroke-width="1px"></line><line x1="61.91500186920166" y1="160.10999965667725" x2="56.91500186920166" y2="160.10999965667725" style="visibility: inherit;" fill="rgb(0, 0, 0)" stroke="rgb(204, 204, 204)" stroke-width="1px"></line><line x1="61.91500186920166" y1="142.31999969482422" x2="56.91500186920166" y2="142.31999969482422" style="visibility: inherit;" fill="rgb(0, 0, 0)" stroke="rgb(204, 204, 204)" stroke-width="1px"></line><line x1="61.91500186920166" y1="124.52999973297118" x2="56.91500186920166" y2="124.52999973297118" style="visibility: inherit;" fill="rgb(0, 0, 0)" stroke="rgb(204, 204, 204)" stroke-width="1px"></line><line x1="61.91500186920166" y1="106.73999977111814" x2="56.91500186920166" y2="106.73999977111814" style="visibility: inherit;" fill="rgb(0, 0, 0)" stroke="rgb(204, 204, 204)" stroke-width="1px"></line><line x1="61.91500186920166" y1="88.94999980926514" x2="56.91500186920166" y2="88.94999980926514" style="visibility: inherit;" fill="rgb(0, 0, 0)" stroke="rgb(204, 204, 204)" stroke-width="1px"></line><line x1="61.91500186920166" y1="71.1599998474121" x2="56.91500186920166" y2="71.1599998474121" style="visibility: inherit;" fill="rgb(0, 0, 0)" stroke="rgb(204, 204, 204)" stroke-width="1px"></line><line x1="61.91500186920166" y1="53.36999988555907" x2="56.91500186920166" y2="53.36999988555907" style="visibility: inherit;" fill="rgb(0, 0, 0)" stroke="rgb(204, 204, 204)" stroke-width="1px"></line><line x1="61.91500186920166" y1="35.579999923706026" x2="56.91500186920166" y2="35.579999923706026" style="visibility: inherit;" fill="rgb(0, 0, 0)" stroke="rgb(204, 204, 204)" stroke-width="1px"></line><line x1="61.91500186920166" y1="17.789999961852985" x2="56.91500186920166" y2="17.789999961852985" style="visibility: inherit;" fill="rgb(0, 0, 0)" stroke="rgb(204, 204, 204)" stroke-width="1px"></line><line x1="61.91500186920166" y1="0" x2="56.91500186920166" y2="0" style="visibility: inherit;" fill="rgb(0, 0, 0)" stroke="rgb(204, 204, 204)" stroke-width="1px"></line></g><g transform="translate(51.91500186920166, 0)"><text style="text-anchor: end; visibility: hidden; font-family: Roboto, sans-serif; font-size: 12px; font-weight: 200;" x="0" y="177.89999961853027" dx="0em" dy="0.3em" fill="rgb(50, 49, 63)" stroke="none" stroke-width="1px">8e-3</text><text style="text-anchor: end; visibility: inherit; font-family: Roboto, sans-serif; font-size: 12px; font-weight: 200;" x="0" y="160.10999965667725" dx="0em" dy="0.3em" fill="rgb(50, 49, 63)" stroke="none" stroke-width="1px">9e-3</text><text style="text-anchor: end; visibility: hidden; font-family: Roboto, sans-serif; font-size: 12px; font-weight: 200;" x="0" y="142.31999969482422" dx="0em" dy="0.3em" fill="rgb(50, 49, 63)" stroke="none" stroke-width="1px">0.01</text><text style="text-anchor: end; visibility: inherit; font-family: Roboto, sans-serif; font-size: 12px; font-weight: 200;" x="0" y="124.52999973297118" dx="0em" dy="0.3em" fill="rgb(50, 49, 63)" stroke="none" stroke-width="1px">0.011</text><text style="text-anchor: end; visibility: hidden; font-family: Roboto, sans-serif; font-size: 12px; font-weight: 200;" x="0" y="106.73999977111814" dx="0em" dy="0.3em" fill="rgb(50, 49, 63)" stroke="none" stroke-width="1px">0.012</text><text style="text-anchor: end; visibility: inherit; font-family: Roboto, sans-serif; font-size: 12px; font-weight: 200;" x="0" y="88.94999980926514" dx="0em" dy="0.3em" fill="rgb(50, 49, 63)" stroke="none" stroke-width="1px">0.013</text><text style="text-anchor: end; visibility: hidden; font-family: Roboto, sans-serif; font-size: 12px; font-weight: 200;" x="0" y="71.1599998474121" dx="0em" dy="0.3em" fill="rgb(50, 49, 63)" stroke="none" stroke-width="1px">0.014</text><text style="text-anchor: end; visibility: inherit; font-family: Roboto, sans-serif; font-size: 12px; font-weight: 200;" x="0" y="53.36999988555907" dx="0em" dy="0.3em" fill="rgb(50, 49, 63)" stroke="none" stroke-width="1px">0.015</text><text style="text-anchor: end; visibility: hidden; font-family: Roboto, sans-serif; font-size: 12px; font-weight: 200;" x="0" y="35.579999923706026" dx="0em" dy="0.3em" fill="rgb(50, 49, 63)" stroke="none" stroke-width="1px">0.016</text><text style="text-anchor: end; visibility: inherit; font-family: Roboto, sans-serif; font-size: 12px; font-weight: 200;" x="0" y="17.789999961852985" dx="0em" dy="0.3em" fill="rgb(50, 49, 63)" stroke="none" stroke-width="1px">0.017</text><text style="text-anchor: end; visibility: hidden; font-family: Roboto, sans-serif; font-size: 12px; font-weight: 200;" x="0" y="0" dx="0em" dy="0.3em" fill="rgb(50, 49, 63)" stroke="none" stroke-width="1px">0.018</text></g><line x1="61.91500186920166" y1="0" x2="61.91500186920166" y2="177.89999961853027" fill="rgb(0, 0, 0)" stroke="rgb(204, 204, 204)" stroke-width="1px"></line></g></g><g transform="translate(61, 0)" clip-path="url(#clip_0)"><clipPath id="clip_0"><rect width="268" height="177"></rect></clipPath><g><g><g><line x1="0" y1="0" x2="0" y2="177.89999961853027" fill="rgb(0, 0, 0)" stroke="rgb(60, 60, 60)" stroke-width="1px" opacity="0.25"></line><line x1="22.34041651089986" y1="0" x2="22.34041651089986" y2="177.89999961853027" fill="rgb(0, 0, 0)" stroke="rgb(60, 60, 60)" stroke-width="1px" opacity="0.25"></line><line x1="44.68083302179972" y1="0" x2="44.68083302179972" y2="177.89999961853027" fill="rgb(0, 0, 0)" stroke="rgb(60, 60, 60)" stroke-width="1px" opacity="0.25"></line><line x1="67.02124953269958" y1="0" x2="67.02124953269958" y2="177.89999961853027" fill="rgb(0, 0, 0)" stroke="rgb(60, 60, 60)" stroke-width="1px" opacity="0.25"></line><line x1="89.36166604359944" y1="0" x2="89.36166604359944" y2="177.89999961853027" fill="rgb(0, 0, 0)" stroke="rgb(60, 60, 60)" stroke-width="1px" opacity="0.25"></line><line x1="111.70208255449931" y1="0" x2="111.70208255449931" y2="177.89999961853027" fill="rgb(0, 0, 0)" stroke="rgb(60, 60, 60)" stroke-width="1px" opacity="0.25"></line><line x1="134.04249906539917" y1="0" x2="134.04249906539917" y2="177.89999961853027" fill="rgb(0, 0, 0)" stroke="rgb(60, 60, 60)" stroke-width="1px" opacity="0.25"></line><line x1="156.38291557629904" y1="0" x2="156.38291557629904" y2="177.89999961853027" fill="rgb(0, 0, 0)" stroke="rgb(60, 60, 60)" stroke-width="1px" opacity="0.25"></line><line x1="178.72333208719888" y1="0" x2="178.72333208719888" y2="177.89999961853027" fill="rgb(0, 0, 0)" stroke="rgb(60, 60, 60)" stroke-width="1px" opacity="0.25"></line><line x1="201.06374859809875" y1="0" x2="201.06374859809875" y2="177.89999961853027" fill="rgb(0, 0, 0)" stroke="rgb(60, 60, 60)" stroke-width="1px" opacity="0.25"></line><line x1="223.40416510899863" y1="0" x2="223.40416510899863" y2="177.89999961853027" fill="rgb(0, 0, 0)" stroke="rgb(60, 60, 60)" stroke-width="1px" opacity="0.25"></line><line x1="245.74458161989847" y1="0" x2="245.74458161989847" y2="177.89999961853027" fill="rgb(0, 0, 0)" stroke="rgb(60, 60, 60)" stroke-width="1px" opacity="0.25"></line><line x1="268.08499813079834" y1="0" x2="268.08499813079834" y2="177.89999961853027" fill="rgb(0, 0, 0)" stroke="rgb(60, 60, 60)" stroke-width="1px" opacity="0.25"></line></g><g><line x1="0" y1="177.89999961853027" x2="268.08499813079834" y2="177.89999961853027" fill="rgb(0, 0, 0)" stroke="rgb(60, 60, 60)" stroke-width="1px" opacity="0.25"></line><line x1="0" y1="160.10999965667725" x2="268.08499813079834" y2="160.10999965667725" fill="rgb(0, 0, 0)" stroke="rgb(60, 60, 60)" stroke-width="1px" opacity="0.25"></line><line x1="0" y1="142.31999969482422" x2="268.08499813079834" y2="142.31999969482422" fill="rgb(0, 0, 0)" stroke="rgb(60, 60, 60)" stroke-width="1px" opacity="0.25"></line><line x1="0" y1="124.52999973297118" x2="268.08499813079834" y2="124.52999973297118" fill="rgb(0, 0, 0)" stroke="rgb(60, 60, 60)" stroke-width="1px" opacity="0.25"></line><line x1="0" y1="106.73999977111814" x2="268.08499813079834" y2="106.73999977111814" fill="rgb(0, 0, 0)" stroke="rgb(60, 60, 60)" stroke-width="1px" opacity="0.25"></line><line x1="0" y1="88.94999980926514" x2="268.08499813079834" y2="88.94999980926514" fill="rgb(0, 0, 0)" stroke="rgb(60, 60, 60)" stroke-width="1px" opacity="0.25"></line><line x1="0" y1="71.1599998474121" x2="268.08499813079834" y2="71.1599998474121" fill="rgb(0, 0, 0)" stroke="rgb(60, 60, 60)" stroke-width="1px" opacity="0.25"></line><line x1="0" y1="53.36999988555907" x2="268.08499813079834" y2="53.36999988555907" fill="rgb(0, 0, 0)" stroke="rgb(60, 60, 60)" stroke-width="1px" opacity="0.25"></line><line x1="0" y1="35.579999923706026" x2="268.08499813079834" y2="35.579999923706026" fill="rgb(0, 0, 0)" stroke="rgb(60, 60, 60)" stroke-width="1px" opacity="0.25"></line><line x1="0" y1="17.789999961852985" x2="268.08499813079834" y2="17.789999961852985" fill="rgb(0, 0, 0)" stroke="rgb(60, 60, 60)" stroke-width="1px" opacity="0.25"></line><line x1="0" y1="0" x2="268.08499813079834" y2="0" fill="rgb(0, 0, 0)" stroke="rgb(60, 60, 60)" stroke-width="1px" opacity="0.25"></line></g></g></g><g><g><line x1="0" y1="320.21999931335455" x2="268.08499813079834" y2="320.21999931335455" fill="rgb(0, 0, 0)" stroke="rgb(153, 153, 153)" stroke-width="1.5px"></line></g></g><g><g><line x1="-44.68083302179972" y1="0" x2="-44.68083302179972" y2="177.89999961853027" fill="rgb(0, 0, 0)" stroke="rgb(153, 153, 153)" stroke-width="1.5px"></line></g></g><g><g><g><g><g><path style="fill: none;" stroke="rgb(204, 51, 17)" stroke-width="2px" d="M162.97780653031666,-47.24047485046955L164.3316357708772,24.725058032638273L165.68546501143774,41.489559905781746L167.03929425199826,52.2931924447861L168.3931234925588,61.395428395782375L169.74695273311931,86.33059121695415L171.10078197367986,78.4317744592262L172.4546112142404,109.20926286006683L173.80844045480092,99.34329283161823L175.17343990361692,101.04024024985829L176.52726914417744,103.67679368083144L177.88109838473798,78.24536074841058L179.2371616669496,75.91066667141635L180.5909909075101,42.41188963168347L181.94482014807065,12.850509223235758L183.2986493886312,25.356308863005268L184.66364883744717,18.489297080861714L186.0174780780077,28.04288886560632L187.37354136021932,72.33014221680193L188.7385408090353,-26.074341857928L190.09237004959584,50.289832888107014L191.44619929015636,67.35064386669092L192.8000285307169,111.06468440062478L194.15385777127742,107.14456899753964L195.5188572200934,135.82040076943645L196.87268646065394,139.58893844403872L198.23768590946992,132.6995937162538L199.59151515003046,139.32173655727573L200.94534439059098,146.040298163383L202.29917363115152,127.89591474802486L203.6641730799675,112.04091040625282L205.01800232052804,104.96140949244486L206.37183156108858,70.13656592821664L207.7256608016491,73.9385728237729L209.09066025046508,80.23953406682075L210.45565969928106,95.56943856511441L211.8094889398416,91.84961723769592L213.16331818040211,99.88820364904949L214.51714742096266,105.92877567591444L215.8709766615232,121.01151357762542L217.23597611033915,107.99169929235403L218.5898053508997,110.95864957132008L219.9436345914602,134.69242508286177L221.30863404027622,157.06719025553988L222.66246328083673,154.54205098653904L224.01629252139728,150.39554834581494L225.37012176195782,137.75107081280154L226.72395100251833,127.05344754249361L228.07778024307888,106.1794255202743L229.4316094836394,107.62467327811193L230.78543872419993,96.39333693224677L232.13926796476045,75.45769723074882L233.493097205321,92.62634275026612L234.84916048753263,117.58541536593137L236.2141599363486,119.58659725459279L237.56798917690912,123.02635667819241L238.92181841746967,109.09747124380333L240.27564765803018,129.86691349417194L241.62947689859072,128.40270438768857L242.98330613915124,105.49715644536279L244.33936942136287,145.04934555791445L245.69319866192342,131.71552365202749L247.04702790248396,133.74366777733212L248.4120273512999,116.0697251322129" fill="none"></path></g><g><path style="fill: none;" stroke="rgb(255, 112, 67)" stroke-width="2px" d="M12.499463037848473,-1.1414829370109292L12.8502075770696,27.337819124228663L13.087015992085139,33.69709888825379L14.161590026259422,-15.113746227964771L14.82286635498206,25.052724802260304L15.059674769997597,43.748194499984244L16.19233388710022,64.95574369122231L16.697227300246556,54.99672513232247L17.249035588065784,72.92618142506143L17.617652460495634,85.4688933642488L18.169460748314858,85.0450485706577L18.406269163330396,75.25672360543034L18.643077578345935,98.83166142092553L18.879885993361473,72.98605142517214L19.266375199000038,81.3049707213698L19.6104176132679,85.77736647605515L20.151055692831676,73.72812908235926L20.633608689467113,83.68358410287495L20.87041710448265,75.22443556990918L21.10722551949819,78.91390527872959L21.50265089174112,83.36864538281704L21.855629472613334,104.91386859081302L22.092437887628872,107.3422920715817L22.49009730152289,97.6850933224922L22.9123311735789,97.83831757328885L23.321160795728364,86.95004960988135L23.557969210743902,73.04778598452762L24.036054124077165,83.49004728113859L24.272862539092703,84.40160631239814L24.50967095410824,84.73480495477882L25.17764940778414,77.63371551938285L25.73169173725446,79.92433825468048L26.124883067846298,65.82920871817338L26.361691482861836,57.98316726679152L26.598499897877375,77.846530217287L26.835308312892913,90.84720882377295L27.083286936163905,74.13331139062853L27.320095351179443,56.9569420802182L27.55690376619498,63.36222020960207L28.030520596226058,70.93337106060036L28.55998846753438,84.85742335971307L28.79679688254992,108.23355183329899L29.13860525516669,78.96067530131162L29.48041362778346,85.72063319535138L29.717222042798998,84.22949873466597L30.0724346653223,77.25567653269938L31.189455490867296,92.22575982999129L31.540200030088425,83.88713845476335L31.788178653359413,76.87634035584624L32.024987068374955,57.87897970818879L32.36902948264281,76.11160080796692L32.60583789765835,70.60695477812871L33.0839228109916,69.04412276057124L33.32073122600714,72.10885028868705L33.557539641022686,80.03216330070985L34.397539301832516,77.10841410815601L34.63434771684806,71.50293950787474L34.873390173514686,62.77993221569099L35.22190067108472,45.37208509025843L35.458709086100264,44.26013404818658L35.811687666972475,65.46276666686235L36.178070497751236,69.54224555362785L36.51764482871692,64.24342448278419L37.22136794881026,76.72892141257383L37.64583586251736,75.41433200568684L37.8826442775329,78.84062186375799L38.119452692548435,72.71970988918723L38.356261107563974,70.3353424755199L38.76509072971344,68.61706444294128L39.10689910233021,60.52331362240641L39.34370751734574,65.8012653428018L39.58051593236129,61.84009947203497L39.81732434737682,62.908458224652385L40.05413276239236,63.04248568207625L40.290941177407895,58.51014826851633L40.75338779918353,66.48547108738859L41.68721720933914,61.38311047102508L41.924025624354684,75.40732193706724L42.527216870148976,74.9265325814191L42.94498265890281,74.70799677445675L43.18179107391834,68.23015687336948L43.52136540488402,69.45448635394322L44.48870543980598,69.87571919446485L44.88859889535109,70.67103524788611L45.424768891612686,72.51144547183908L45.66157730662823,61.577236611388514L45.89838572164376,71.74044925532917L46.90817254793644,78.59592927010281L47.26785325376193,83.71062089542366L47.69455520912012,99.65031843238727L48.19944862226645,36.400602977562684L48.43625703728199,78.27103142447942L48.775831368247665,110.13132858641482L49.11540569921335,129.00907019262434L49.35221411422888,131.32734395662771L49.72083098665873,134.4261015700811L49.957639401674264,133.52152377612293L50.19444781668981,136.05033448459662L50.616681688745814,138.78460368895833L50.85349010376136,142.6636256730411L51.19753251802921,138.00639062842453L51.4455111413002,144.1594696021251L51.68231955631574,166.1514523081353L51.91912797133128,149.71200913777037L52.475404342452684,142.6941088014905L52.71221275746822,139.61460085522933L53.167957254290585,151.36509737416412L53.404765669306116,128.37726316668176L53.64157408432166,117.5078476359502L53.88955270759265,125.62045070023848L54.240297246813775,121.39023917774216L54.655828993916515,125.15915308738228L54.997637366533276,134.3642990438781L55.23444578154882,142.73355644849175L55.47125419656436,147.45970600320385L55.82423277743657,139.5479503657231L56.22412623298168,125.61133563590481L56.47210485625267,118.72613940122005L56.70891327126821,123.98491940027832L57.30763643376032,124.02333247796284L57.54444484877587,128.12621382708832L57.93763617936771,130.01678277953175L58.17444459438324,125.13963401632739L58.6726358825763,124.7939789035252L59.012210213541984,109.74428952064805L59.41880579404036,107.69073397504178L59.6556142090559,111.38882830419941L59.892422624071436,121.95493739055782L60.35486924584706,109.18866509694122L60.69891166011492,112.36081192031331L60.94689028338591,114.10280499559225L61.68188998659452,120.55519466126442L61.91869840161005,112.65783795399996L62.30071952394644,113.01864751754493L62.85699589506785,119.89638955098687L63.20103830933571,116.1538684584228L63.56295305681229,101.22683483904987L63.913697596033415,107.9568103910304L64.62859092438221,105.77399584241712L64.98603758855661,128.22555258494617L65.86178191578388,132.80759886787416L66.09859033079942,124.72351807959792L66.70848370154698,125.887826995976L66.94529211656253,137.84231676895422L67.18210053157806,146.9595838558876L67.4189089465936,121.57293060593192L67.77188752746582,119.65610820768767L68.1114618584315,129.17079793308326L68.34827027344704,123.59234037484644L68.58507868846259,127.76066733617354L68.8218871034781,124.49056512022197L69.05869551849365,118.810971055854L69.48092939054966,118.52342957573701L69.71773780556519,122.33782356437851L70.09305680294833,121.0203319916501L70.46167367537815,119.94388267753149L70.6984820903937,125.90181739499685L70.93529050540924,132.26898746813836L71.18326912868024,133.66450937938578L71.42007754369577,134.50391675022507L71.85348162400723,116.10105850820231L72.09029003902278,134.15881926060376L72.32709845403829,141.57908854169008L72.56390686905384,145.88995625712354L72.81188549232483,134.72521167689982L73.28103423905372,140.55973279275497L73.70326811110972,145.10914805763747L73.95124673438072,139.49402333469678L74.29752319029967,134.22058968216348L74.54550181357067,118.67224917459033L74.88954422783851,123.46019739316704L75.12635264285406,116.76354188698464L75.47262909877301,127.3898413125139L75.72060772204398,120.92383884271528L76.48688400836785,126.36808088705477L76.7236924233834,109.25615563221032L76.9716710466544,127.10291841426344L77.20847946166991,137.91249956086176L77.5480537926356,128.7774307551414L77.78486220765114,121.92454014637134L78.1266705802679,118.16014212478542L78.47071299453577,128.51655916994943L78.70752140955129,118.0540897069953L78.94432982456684,128.30365460717917L79.28613819718362,133.76496376846126L80.06805277506511,129.2891503815064L80.30486119008064,125.85687264220128L80.73156314543883,135.139777283643L80.96837156045437,126.87385630270457L81.2051799754699,127.33009975891827L81.56039259799321,123.31231676008694L81.79720101300875,117.03794931357407L82.03400942802429,125.28168268282839L82.61486025730768,130.4445887429958L82.85166867232323,121.25044976011486L83.32081741905213,127.44635862701239L83.55762583406765,134.2776175327651L83.90390228998662,138.00724599832947L84.14071070500215,129.68135912591532L84.37751912001768,133.97389640956388L84.61432753503323,124.64570324692795L85.0901784067154,124.98146573436993L85.4654974040985,111.8911082500938L85.70230581911404,121.10126124449138L85.93911423412959,119.12767810741641L86.18709285740057,108.13240646950936L86.59145439624787,112.51146958441608L86.82826281126341,109.44473203220258L87.2326243501107,104.02242641138889L87.57443272272745,105.94301584680667L87.91624109534423,109.81815242699018L88.15304951035976,121.73365407166867L88.3898579253753,140.2878078564434L88.62666634039084,111.99745281049165L89.16507037830353,107.88034420581543L89.40187879331907,115.5126690756204L89.6386872083346,114.35648125951153L89.87549562335015,119.58547288127241L90.11230403836568,122.94571052855352L90.45411241098245,115.53812968161094L90.69092082599799,123.9375237955667L90.92772924101352,133.04939226318845L91.16453765602907,133.8839902454212L91.4013460710446,129.09234652905883L91.64038852771122,125.09593643504628L91.87719694272677,119.28339172558717L92.11400535774231,129.38165989705232L92.36198398101331,131.64888228302905L92.8959199356238,128.80553138991712L93.13272835063934,119.34935418627948L93.36953676565489,124.64119076796793L93.60857922232151,115.62009493161906L93.84538763733705,127.87966008443478L94.09336626060804,144.5202874833364L94.33017467562357,143.54601340189018L94.56698309063911,126.15589708014815L94.81496171391011,143.43116233504236L95.05177012892564,146.0848383202663L95.3980465848446,144.1572364163208L95.63485499986012,138.99084585077958L95.87166341487567,144.72988310564654L96.1084718298912,143.90537617077786L96.34528024490675,147.19237680753898L96.69602478412787,137.39874245490418L97.06240761490662,134.8369233041738L97.4042159875234,125.54112919460745L97.64102440253895,120.40946399585391L97.87783281755446,115.55393325487209L98.11464123257001,116.16686403262969L98.46091768848896,132.30596566313946L98.6977261035045,123.02618110772312L98.93453451852004,116.12837204011825L99.34783222397168,113.5661800568599L99.58464063898722,118.98781909310962L99.92421496995291,129.96351894154031L100.16102338496843,126.24029970023888L100.39783179998398,104.77915097691682L100.63464021499952,127.56955673528506L100.88261883827052,102.12373393690348L101.11942725328603,112.73350035463663L101.46793775085608,111.85916361279467L101.70474616587163,107.02926098354513L101.94155458088716,113.35733748346381L102.17836299590269,133.15373732755043L102.64080961767833,135.67073353974817L103.02059669836362,142.7255088388482L103.25740511337916,149.8407089783402L103.4942135283947,136.06713418936346L103.73102194341024,121.85315287345007L103.97900056668124,120.26094030947304L104.21580898169677,123.59612786805809L104.45485143836339,124.62796589558936L104.69165985337894,134.5891704262075L104.92846826839448,131.86362990856625L105.16527668341,133.96571357976742L105.40208509842554,132.29086823440235L105.65006372169654,142.17176436060763L105.88687213671209,126.75512843633653L106.1236805517276,125.56956645441814L106.36048896674315,123.99522337567531L106.5972973817587,114.40939827374937L106.99048871235053,128.65660338612327L107.22729712736607,122.76146053641378L107.4641055423816,123.4837681630193L107.70091395739715,119.35789434736513L107.94889258066813,125.83527082845305L108.19687120393912,121.00029386345325L108.43367961895466,107.67354441270851L108.67048803397019,115.71451276483255L108.90729644898573,107.52761322671729L109.14410486400128,106.31914194498046L109.38091327901681,114.85846915264187L109.61772169403235,105.04248715118959L109.85453010904789,106.87143255610886L110.19410444001358,103.98103925633752L110.4309128550291,110.7448730363371L110.66995531169573,109.98291892175094L110.90676372671128,127.67775187046406L111.14357214172682,131.8392191342176L111.38038055674235,147.55464313519678L111.61718897175788,142.81341637980987L111.86516759502888,154.08783311045195L112.10197601004442,139.4239779864429L112.33878442505996,139.26762642335757L112.57559284007549,153.54397030487746L112.81240125509103,116.64686230167023L113.06037987836203,127.85753222394344L113.30835850163301,143.01033640768085L113.54516691664854,153.85463927218527L113.78197533166409,156.3259427686352L114.01878374667963,146.0853246788192L114.25559216169516,159.95158975031865L114.4924005767107,150.97476101666172L114.74037919998169,134.22401875558597L114.97718761499723,134.04824425209378L115.21399603001277,147.62907079433435L115.4508044450283,147.4813642566752L115.68761286004384,151.49219061921767L116.02942123266061,135.10878433757912L116.26846368932723,150.86873409117405L116.73984647770723,146.7770556356428L116.97888893437386,146.1313587674504L117.21569734938939,144.3603079970404L117.55527168035508,145.17212076006285L117.79208009537061,148.0621980163027L118.0400587186416,131.6392353475546L118.27686713365713,120.41889699952641L118.51367554867268,148.29056930583135L118.7527180053393,134.5788203743999L119.0006966286103,142.90233122347954L119.23750504362583,137.32949327191832L119.48548366689681,140.33698233960453L119.73346229016781,133.95698956879355L119.97027070518335,129.32206152947694L120.20931316184998,142.92498853444263L120.44612157686551,135.25515286720628L120.68292999188105,129.8944398530841L120.9197384068966,139.51099975400373L121.15654682191213,131.66486060288602L121.39335523692766,124.20042932472043L121.6301636519432,127.82053275463878L121.86697206695875,134.95797362283872L122.10378048197428,133.01819351442603L122.35175910524526,126.85406057705912L122.58856752026081,130.68745775739504L122.82760997692743,140.72268505474264L123.06665243359407,131.85865316971567L123.30346084860962,121.55518542749597L123.54026926362513,118.13896509537093L123.77707767864068,145.8298924119579L124.02505630191168,131.21854700439846L124.27303492518267,128.77565366697326L124.50984334019819,124.22627872739857L124.9097367957433,131.7022385323276L125.14654521075884,128.86679137656253L125.50175783328216,138.68103839331502L125.7385662482977,134.10681653629467L125.97537466331323,133.97328381652025L126.22335328658421,130.88413529441843L126.46016170159976,130.37250038549772L126.6969701166153,132.75695527062962L126.93377853163082,137.5856790986963L127.17058694664637,136.45054455421996L127.40739536166191,117.43490966771947L127.64420377667746,123.68095120667736L128.04856531552474,123.87682509029527L128.28537373054027,123.1501517839434L128.5221821455558,122.37016486591808L128.75899056057136,123.68169324526603L128.998033017238,140.62263975287635L129.41356476434072,128.4333271658394L129.65037317935625,120.2296015929243L129.88718159437178,115.94737040954818L130.12399000938734,119.29994736326897L130.36079842440287,116.15469866697363L130.59760683941843,114.55323210072945L130.83441525443394,114.16278301595783L131.0712236694495,115.16085840589959L131.30803208446503,119.5738556563723L131.54484049948059,117.04029839610055L131.7816489144961,111.75055404910906L132.01845732951165,113.056676917902L132.25526574452718,108.44108305921931L132.49207415954274,116.18745549687276L132.72888257455824,128.03911160388807L132.9656909895738,121.13456355838886L133.20249940458933,132.22412063758384L133.4393078196049,135.52159568785038L133.68728644287586,127.65407290027777L133.9240948578914,121.9933255111465L134.16090327290695,127.57622736823235L134.39994572957355,130.54692717662215L134.6367541445891,124.30407489946963L134.87356255960464,128.00221679120406L135.1103709746202,124.97572005321548L135.34717938963573,123.14959609975087L135.58398780465126,111.05507005709016L135.82079621966682,129.2162835867591L136.06877484293778,131.4644229018136L136.31675346620875,121.50290585029275L136.5535618812243,125.7229118908679L136.8015405044953,126.73175849931098L137.2282424598535,118.24197715633535L137.46505087486904,126.98216168453678L137.86494433041415,119.23405738824557L138.31175266063212,134.5708591017639L138.54856107564765,131.69740543951986L138.78536949066321,146.36457999150423L139.02217790567875,158.89574494055108L139.2589863206943,151.8466234965138L139.49579473570984,130.8323885704229L139.7437733589808,131.00221318822196L139.98058177399636,125.18294117908617L140.21962423066296,142.313805679763L140.45643264567852,153.67624440218023L140.7044112689495,152.3659179023637L140.94121968396507,145.2537337531468L141.17802809898058,139.64827371518385L141.4148365139961,148.66923161741923L141.65164492901167,146.5358464217225L141.8884533440272,154.0227078863103L142.12526175904273,165.11938126857638L142.3620701740583,159.81876596928606L142.59887858907382,152.95827511501884L142.83568700408938,146.18972531888912L143.07249541910488,162.96521389263657L143.3093038341204,171.31553632521852L143.54611224913597,142.96647305417287L143.7829206641515,133.16326018817384L144.01972907916706,148.87050968431888L144.2565374941826,116.00692131744977L144.49334590919813,138.06833346382965L144.7301543242137,148.38076249106578L144.9669627392292,131.28097157313465L145.20377115424472,135.45161983935336L145.44281361091137,156.45911961741248L145.681856067578,144.38510717440263L145.91866448259353,138.79579284222254L146.1554728976091,139.84617194182033L146.3945153542757,141.09157110097593L146.6424939775467,133.517252116467L146.89047260081767,120.64344109687L147.13845122408867,119.2540498141164L147.3752596391042,124.4830612416578L147.6232382623752,132.145715230198L147.86004667739076,126.33786362709169L148.0968550924063,141.1733852482694L148.3336635074218,131.55760857339428L148.57047192243735,131.2977678052659L148.80728033745288,136.77870606741354L149.04408875246844,143.85293694265764L149.28089716748397,137.44817365623487L149.5177055824995,131.0957923762698L149.75451399751506,140.47242833774624L149.9913224125306,137.68000019771927L150.2281308275461,151.04495587881027L150.46493924256166,157.64332960639183L150.7039816992283,136.13929283305927L150.95196032249927,127.69653422511603L151.1887687375148,119.3836653162354L151.42557715253037,99.99469390016156L151.6623855675459,95.43310816784536L151.89919398256143,108.52956447652234L152.13600239757696,116.53267535334581L152.38398102084795,77.21323654187827" fill="none"></path></g></g></g></g><g opacity="0.2"><g><g><g><path style="fill: none;" stroke="rgb(204, 51, 17)" stroke-width="2px" d="M160.2701480491956,-139.91794746049732L161.62397728975614,36.46797718230215L162.97780653031666,92.82187407609571L164.3316357708772,130.8602404501151L165.68546501143774,66.38289138529346L167.03929425199826,68.4006531013112L168.3931234925588,74.99924835618626L169.74695273311931,123.65191781575021L171.10078197367986,66.59902392694843L172.4546112142404,155.33931767905514L173.80844045480092,84.55129603539373L175.17343990361692,103.5849432859423L176.52726914417744,107.63095440666065L177.88109838473798,40.10208557261923L179.2371616669496,72.40883895621135L180.5909909075101,-7.834438775369794L181.94482014807065,-31.49058865962137L183.2986493886312,44.114761417461004L184.66364883744717,8.188860753947676L186.0174780780077,42.373208639881746L187.37354136021932,138.76083337869002L188.7385408090353,-173.68081617991845L190.09237004959584,164.83597777016354L191.44619929015636,92.9418446191485L192.8000285307169,176.63572104143995L194.15385777127742,101.26439719286478L195.5188572200934,178.834142721751L196.87268646065394,145.2417445060545L198.23768590946992,122.36557711804603L199.59151515003046,149.25495053421042L200.94534439059098,156.11814039929857L202.29917363115152,100.67933990571103L203.6641730799675,88.2584040407765L205.01800232052804,94.34215816116425L206.37183156108858,17.899300698254567L207.7256608016491,79.64158315948383L209.09066025046508,89.69097592381198L210.45565969928106,118.56429530148911L211.8094889398416,86.26988524817929L213.16331818040211,111.94608326399086L214.51714742096266,114.98963371527L215.8709766615232,143.63562042878092L217.23597611033915,88.46197786517779L218.5898053508997,115.4090749896692L219.9436345914602,170.29308834969467L221.30863404027622,190.6293380142858L222.66246328083673,150.75434208305612L224.01629252139728,144.175794384747L225.37012176195782,118.78435451331444L226.72395100251833,111.00701263704853L228.07778024307888,74.86839248696502L229.4316094836394,109.7925449148675L230.78543872419993,79.54633241345282L232.13926796476045,44.05423767850618L233.493097205321,118.37931102953988L234.84916048753263,155.02402428942736L236.2141599363486,122.5883700875849L237.56798917690912,128.18599581359177L238.92181841746967,88.20414309221997L240.27564765803018,161.02107686972462L241.62947689859072,126.20639072796354L242.98330613915124,71.13883453187414L244.33936942136287,204.37762922674182L245.69319866192342,111.71479079319718L247.04702790248396,136.7858839652891L248.4120273512999,89.55881116453395" fill="none"></path></g><g><path style="fill: none;" stroke="rgb(255, 112, 67)" stroke-width="2px" d="M9.434357892553013,-31.248195475687883L10.147017179250717,30.16098275020423L10.792655216415723,-70.55936630467227L11.920846250216167,-11.001455665929331L12.157654665231705,27.15036993731606L12.499463037848473,8.948480897282092L12.8502075770696,70.00097829858636L13.087015992085139,43.22854343964704L14.161590026259422,-88.29558871260542L14.82286635498206,85.28543424319228L15.059674769997597,71.78665226883923L16.19233388710022,96.76383672141402L16.697227300246556,40.05910758771674L17.249035588065784,99.81938257017558L17.617652460495634,104.28254854975089L18.169460748314858,84.40928974834699L18.406269163330396,60.57435210963018L18.643077578345935,134.19390058360034L18.879885993361473,34.21774665126247L19.266375199000038,93.78332837983189L19.6104176132679,92.48595324190217L20.151055692831676,55.65428409086597L20.633608689467113,98.61676113141986L20.87041710448265,62.53571557560627L21.10722551949819,84.44810910787919L21.50265089174112,90.05075500714182L21.855629472613334,137.23170185956675L22.092437887628872,110.98492718836889L22.49009730152289,83.19929544787901L22.9123311735789,98.06815394711326L23.321160795728364,70.61764776584572L23.557969210743902,52.19439062392966L24.036054124077165,99.15343919115831L24.272862539092703,85.76894485745962L24.50967095410824,85.23460291794909L25.17764940778414,66.98208137141475L25.73169173725446,83.36027235663484L26.124883067846298,44.68651441707554L26.361691482861836,46.214105090942084L26.598499897877375,107.64157464117201L26.835308312892913,110.34822673277216L27.083286936163905,49.062465241474776L27.320095351179443,31.192388114949782L27.55690376619498,72.97013740360019L28.030520596226058,82.29009733704278L28.55998846753438,105.74350180832143L28.79679688254992,143.29774454361652L29.13860525516669,35.051360503376586L29.48041362778346,95.86057003640474L29.717222042798998,81.99279704363865L30.0724346653223,66.79494322975182L31.189455490867296,114.68088477592616L31.540200030088425,71.37920639192247L31.788178653359413,66.36014320747113L32.024987068374955,29.38293873670344L32.36902948264281,103.46053245763359L32.60583789765835,62.34998573337152L33.0839228109916,66.69987473423505L33.32073122600714,76.7059415808608L33.557539641022686,91.91713281874397L34.397539301832516,72.72279031932521L34.63434771684806,63.094727607452874L34.873390173514686,49.69542127741538L35.22190067108472,19.260314402109675L35.458709086100264,42.592207485078795L35.811687666972475,97.26671559487603L36.178070497751236,75.66146388377598L36.51764482871692,56.295192876518676L37.22136794881026,95.45716680725829L37.64583586251736,73.44244789535631L37.8826442775329,83.98005665086477L38.119452692548435,63.538341927331146L38.356261107563974,66.75879135501889L38.76509072971344,66.03964739407336L39.10689910233021,48.382687391604165L39.34370751734574,73.71819292339492L39.58051593236129,55.89835066588471L39.81732434737682,64.51099635357853L40.05413276239236,63.243526868212044L40.290941177407895,51.71164214817641L40.75338779918353,78.44845531569693L41.68721720933914,53.72956954647983L41.924025624354684,96.44363913613046L42.527216870148976,74.20534854794697L42.94498265890281,74.38019306401327L43.18179107391834,58.51339702173857L43.52136540488402,71.29098057480381L44.48870543980598,70.50756845524735L44.88859889535109,71.864009328018L45.424768891612686,75.27206080776854L45.66157730662823,45.17592332071268L45.89838572164376,86.98526822124013L46.90817254793644,88.8791492922633L47.26785325376193,91.38265833340492L47.69455520912012,123.55986473783261L48.19944862226645,-58.47397020467423L48.43625703728199,141.07667409485455L48.775831368247665,157.92177432931794L49.11540569921335,157.32568260193864L49.35221411422888,134.8047546026327L49.72083098665873,139.07423799026117L49.957639401674264,132.16465708518572L50.19444781668981,139.8435505473072L50.616681688745814,142.8860074955009L50.85349010376136,148.4821586491653L51.19753251802921,131.02053806149968L51.4455111413002,153.389088062676L51.68231955631574,199.1394263671506L51.91912797133128,125.05284438222293L52.475404342452684,132.16725829707073L52.71221275746822,134.99533893583757L53.167957254290585,168.99084215256627L53.404765669306116,93.89551185545824L53.64157408432166,101.20372433985285L53.88955270759265,137.78935529667086L54.240297246813775,115.0449218939977L54.655828993916515,130.81252395184248L54.997637366533276,148.17201797862185L55.23444578154882,155.28744255541224L55.47125419656436,154.54893033527202L55.82423277743657,127.68031690950195L56.22412623298168,104.70641354117743L56.47210485625267,108.39834504919293L56.70891327126821,131.87308939886574L57.30763643376032,124.08095209448962L57.54444484877587,134.28053585077654L57.93763617936771,132.85263620819694L58.17444459438324,117.82391087152085L58.6726358825763,124.27549623432195L59.012210213541984,87.16975544633237L59.41880579404036,104.61040065663235L59.6556142090559,116.93596979793593L59.892422624071436,137.8041010200954L60.35486924584706,90.0392566565164L60.69891166011492,117.11903215537141L60.94689028338591,116.71579460851063L61.68188998659452,130.2337791597727L61.91869840161005,100.81180289310326L62.30071952394644,113.55986186286233L62.85699589506785,130.21300260114984L63.20103830933571,110.54008681957666L63.56295305681229,78.83628440999051L63.913697596033415,118.05177371900118L64.62859092438221,102.49977401949722L64.98603758855661,161.9028876987398L65.86178191578388,139.68066829226618L66.09859033079942,112.59739689718356L66.70848370154698,127.63429037054316L66.94529211656253,155.77405142842156L67.18210053157806,160.63548448628757L67.4189089465936,83.49295073099843L67.77188752746582,116.78087461032135L68.1114618584315,143.44283252117668L68.34827027344704,115.22465403749123L68.58507868846259,134.0131577781642L68.8218871034781,119.58541179629464L69.05869551849365,110.291579959302L69.48092939054966,118.09211735556154L69.71773780556519,128.0594145473408L70.09305680294833,119.04409463255746L70.46167367537815,118.32920870635363L70.6984820903937,134.83871947119482L70.93529050540924,141.81974257785063L71.18326912868024,135.7577922462569L71.42007754369577,135.76302780648405L71.85348162400723,88.49677114516824L72.09029003902278,161.2454603892059L72.32709845403829,152.70949246331963L72.56390686905384,152.3562578302737L72.81188549232483,117.97809480656426L73.28103423905372,149.31151446653774L73.70326811110972,151.9332709549612L73.95124673438072,131.07133625028573L74.29752319029967,126.31043920336356L74.54550181357067,95.34973841323063L74.88954422783851,130.6421197210321L75.12635264285406,106.718558627711L75.47262909877301,143.32929045080786L75.72060772204398,111.22483513801734L76.48688400836785,134.53444395356402L76.7236924233834,83.58826774994371L76.9716710466544,153.87306258734318L77.20847946166991,154.12687128075927L77.5480537926356,115.07482754656091L77.78486220765114,111.64520423321628L78.1266705802679,112.51354509240657L78.47071299453577,144.05118473769548L78.70752140955129,102.36038551256404L78.94432982456684,143.67800195745502L79.28613819718362,141.95692751038442L80.06805277506511,122.57543030107416L80.30486119008064,120.7084560332436L80.73156314543883,149.06413424580563L80.96837156045437,114.47497483129695L81.2051799754699,128.01446494323883L81.56039259799321,117.28564226183998L81.79720101300875,107.62639814380475L82.03400942802429,137.64728273670985L82.61486025730768,138.18894783324694L82.85166867232323,107.45924128579348L83.32081741905213,136.74022192735876L83.55762583406765,144.52450589139417L83.90390228998662,143.60168869667595L84.14071070500215,117.1925288172941L84.37751912001768,140.41270233503673L84.61432753503323,110.65341350297413L85.0901784067154,125.48510946553289L85.4654974040985,92.25557202367968L85.70230581911404,134.91649073608775L85.93911423412959,116.16730340180399L86.18709285740057,91.63949901264873L86.59145439624787,119.08006425677615L86.82826281126341,104.84462570388236L87.2326243501107,95.88896798016837L87.57443272272745,108.8238999999333L87.91624109534423,115.63085729726548L88.15304951035976,139.60690653868642L88.3898579253753,168.1190385336055L88.62666634039084,69.56192024156398L89.16507037830353,101.7046812988011L89.40187879331907,126.96115638032786L89.6386872083346,112.62219953534819L89.87549562335015,127.42896031391378L90.11230403836568,127.9860669994752L90.45411241098245,104.42675841119703L90.69092082599799,136.53661496650034L90.92772924101352,146.71719496462106L91.16453765602907,135.13588721877042L91.4013460710446,121.9048809545153L91.64038852771122,119.10132129402747L91.87719694272677,110.56457466139851L92.11400535774231,144.52906215425006L92.36198398101331,135.04971586199406L92.8959199356238,124.54050505024924L93.13272835063934,105.165088380823L93.36953676565489,132.57894564050062L93.60857922232151,102.0884511770958L93.84538763733705,146.26900781365833L94.09336626060804,169.48122858168887L94.33017467562357,142.08460227972083L94.56698309063911,100.07072259753518L94.81496171391011,169.34406021738366L95.05177012892564,150.0653522981023L95.3980465848446,141.26583356040263L95.63485499986012,131.24126000246767L95.87166341487567,153.33843898794703L96.1084718298912,142.66861576847487L96.34528024490675,152.1228777626806L96.69602478412787,122.708290925952L97.06240761490662,130.99419457807832L97.4042159875234,111.59743803025795L97.64102440253895,112.71196619772356L97.87783281755446,108.2706371433994L98.11464123257001,117.08626019926612L98.46091768848896,156.51461810890407L98.6977261035045,109.1065042745986L98.93453451852004,105.78165843871095L99.34783222397168,109.72289208197233L99.58464063898722,127.1202776474842L99.92421496995291,146.4270687141864L100.16102338496843,120.65547083828672L100.39783179998398,72.58742789193379L100.63464021499952,161.75516537283747L100.88261883827052,63.9549997393311L101.11942725328603,128.64814998123637L101.46793775085608,110.54765850003173L101.70474616587163,99.7844070396709L101.94155458088716,122.84945223334184L102.17836299590269,162.84833709368036L102.64080961767833,139.4462278580448L103.02059669836362,153.30767178749835L103.25740511337916,160.5135091875782L103.4942135283947,115.4067720058984L103.73102194341024,100.53218089957998L103.97900056668124,117.87262146350749L104.21580898169677,128.5989092059356L104.45485143836339,126.17572293688625L104.69165985337894,149.53097722213468L104.92846826839448,127.77531913210446L105.16527668341,137.11883908656915L105.40208509842554,129.77860021635476L105.65006372169654,156.99310854991563L105.88687213671209,103.63017454992989L106.1236805517276,123.79122348154056L106.36048896674315,121.63370875756115L106.5972973817587,100.03066062086046L106.99048871235053,150.02741105468417L107.22729712736607,113.91874626184958L107.4641055423816,124.56722960292761L107.70091395739715,113.16908362388384L107.94889258066813,135.55133555008499L108.19687120393912,113.74782841595362L108.43367961895466,87.68342023659142L108.67048803397019,127.77596529301856L108.90729644898573,95.24726391954447L109.14410486400128,104.50643502237516L109.38091327901681,127.66745996413405L109.61772169403235,90.31851414901121L109.85453010904789,109.61485066348769L110.19410444001358,99.64544930668045L110.4309128550291,120.89062370633648L110.66995531169573,108.83998774987174L110.90676372671128,154.2200012935337L111.14357214172682,138.08142002984786L111.38038055674235,171.12777913666562L111.61718897175788,135.70157624672947L111.86516759502888,170.9994582064151L112.10197601004442,117.42819530042944L112.33878442505996,139.03309907872958L112.57559284007549,174.95848612715733L112.81240125509103,61.30120029685931L113.06037987836203,144.67353710735327L113.30835850163301,165.73954268328703L113.54516691664854,170.12109356894186L113.78197533166409,160.03289801331007L114.01878374667963,130.7243975440952L114.25559216169516,180.75098735756785L114.4924005767107,137.50951791617624L114.74037919998169,109.0979053639724L114.97718761499723,133.7845824968555L115.21399603001277,168.00031060769524L115.4508044450283,147.25980445018646L115.68761286004384,157.50843016303136L116.02942123266061,110.53367491512128L116.26846368932723,174.50865872156646L116.73984647770723,140.63953795234593L116.97888893437386,145.16281346516186L117.21569734938939,141.70373184142534L117.55527168035508,146.3898399045966L117.79208009537061,152.39731390066243L118.0400587186416,107.00479134443246L118.27686713365713,103.58838947748421L118.51367554867268,190.0980777652887L118.7527180053393,114.01119697725278L119.0006966286103,155.38759749709902L119.23750504362583,128.97023634457656L119.48548366689681,144.8482159411339L119.73346229016781,124.38700041257707L119.97027070518335,122.36966947050206L120.20931316184998,163.32937904189123L120.44612157686551,123.75039936635176L120.68292999188105,121.85337033190088L120.9197384068966,153.9358396053831L121.15654682191213,119.8956518762095L121.39335523692766,113.00378240747204L121.6301636519432,133.2506878995163L121.86697206695875,145.6641349251386L122.10378048197428,130.10852335180707L122.35175910524526,117.60786117100871L122.58856752026081,136.43755352789896L122.82760997692743,155.77552600076402L123.06665243359407,118.56260534217529L123.30346084860962,106.09998381416646L123.54026926362513,113.01463459718336L123.77707767864068,187.36628338683832L124.02505630191168,109.30152889305938L124.27303492518267,125.11131366083546L124.50984334019819,117.40221631803657L124.9097367957433,142.9161782397212L125.14654521075884,124.61362064291488L125.50175783328216,153.40240891844377L125.7385662482977,127.24548375076412L125.97537466331323,133.7729847368587L126.22335328658421,126.25041251126575L126.46016170159976,129.60504802211665L126.6969701166153,136.33363759832747L126.93377853163082,144.8287648407964L127.17058694664637,134.74784273750547L127.40739536166191,88.91145733796873L127.64420377667746,133.05001351511422L128.04856531552474,124.17063591572216L128.28537373054027,122.06014182441557L128.5221821455558,121.20018448888011L128.75899056057136,125.64898581428793L128.998033017238,166.03405951429193L129.41356476434072,110.14935828528388L129.65037317935625,107.92401323355166L129.88718159437178,109.52402363448404L130.12399000938734,124.32881279385018L130.36079842440287,111.43682562253059L130.59760683941843,112.15103225136319L130.83441525443394,113.57710938880047L131.0712236694495,116.65797149081222L131.30803208446503,126.19335153208141L131.54484049948059,113.23996250569297L131.7816489144961,103.81593752862177L132.01845732951165,115.01586122109138L132.25526574452718,101.51769227119527L132.49207415954274,127.8070141533529L132.72888257455824,145.81659576441103L132.9656909895738,110.77774149014002L133.20249940458933,148.85845625637634L133.4393078196049,140.4678082632502L133.68728644287586,115.85278871891887L133.9240948578914,113.50220442744958L134.16090327290695,135.95058015386115L134.39994572957355,135.00297688920688L134.6367541445891,114.93979648374082L134.87356255960464,133.54942962880574L135.1103709746202,120.43597494623266L135.34717938963573,120.41041016955397L135.58398780465126,92.91328099309919L135.82079621966682,156.45810388126242L136.06877484293778,134.83663187439538L136.31675346620875,106.56063027301148L136.5535618812243,132.05292095173067L136.8015405044953,128.24502841197557L137.2282424598535,105.50730514187195L137.46505087486904,140.0924384768389L137.86494433041415,107.61190094380873L138.31175266063212,157.57606167204136L138.54856107564765,127.38722494615381L138.78536949066321,168.3653418194808L139.02217790567875,177.6924923641214L139.2589863206943,141.27294133045783L139.49579473570984,99.3110361812865L139.7437733589808,131.25695011492053L139.98058177399636,116.45403316538246L140.21962423066296,168.01010243077826L140.45643264567852,170.7199024858061L140.7044112689495,150.40042815263894L140.94121968396507,134.58545752932145L141.17802809898058,131.24008365823943L141.4148365139961,162.20066847077237L141.65164492901167,143.3357686281775L141.8884533440272,165.25300008319195L142.12526175904273,181.76439134197548L142.3620701740583,151.86784302035056L142.59887858907382,142.667538833618L142.83568700408938,136.0369006246946L143.07249541910488,188.12844675325775L143.3093038341204,183.84101997409138L143.54611224913597,100.44287814760449L143.7829206641515,118.45844088917531L144.01972907916706,172.4313839285365L144.2565374941826,66.71153876714614L144.49334590919813,171.16045168339951L144.7301543242137,163.84940603191995L144.9669627392292,105.63128519623793L145.20377115424472,141.70759223868143L145.44281361091137,187.97036928450112L145.681856067578,126.27408850988782L145.91866448259353,130.41182134395243L146.1554728976091,141.421740591217L146.3945153542757,142.95966983970928L146.6424939775467,122.15577363970361L146.89047260081767,101.3327245674746L147.13845122408867,117.16996288998601L147.3752596391042,132.32657838296987L147.6232382623752,143.6396962130084L147.86004667739076,117.62608622243228L148.0968550924063,163.42666768003596L148.3336635074218,117.13394356108161L148.57047192243735,130.90800665307341L148.80728033745288,145.00011346063508L149.04408875246844,154.4642832555238L149.28089716748397,127.84102872660071L149.5177055824995,121.56722045632225L149.75451399751506,154.5373822799609L149.9913224125306,133.4913579876788L150.2281308275461,171.09238940044676L150.46493924256166,167.54089019776416L150.7039816992283,103.88323767306045L150.95196032249927,115.03239631320113L151.1887687375148,106.91436195291442L151.42557715253037,70.91123677605087L151.6623855675459,88.59072956937102L151.89919398256143,128.17424893953785L152.13600239757696,128.53734166858106L152.38398102084795,18.23407832467699" fill="none"></path></g></g></g></g></g></g><g transform="translate(61, 177)" clip-path="url(#clip_1)"><clipPath id="clip_1"><rect width="268" height="22"></rect></clipPath><g><g><line x1="0" y1="0" x2="0" y2="5" style="visibility: inherit;" fill="rgb(0, 0, 0)" stroke="rgb(204, 204, 204)" stroke-width="1px"></line><line x1="22.34041651089986" y1="0" x2="22.34041651089986" y2="5" style="visibility: inherit;" fill="rgb(0, 0, 0)" stroke="rgb(204, 204, 204)" stroke-width="1px"></line><line x1="44.68083302179972" y1="0" x2="44.68083302179972" y2="5" style="visibility: inherit;" fill="rgb(0, 0, 0)" stroke="rgb(204, 204, 204)" stroke-width="1px"></line><line x1="67.02124953269958" y1="0" x2="67.02124953269958" y2="5" style="visibility: inherit;" fill="rgb(0, 0, 0)" stroke="rgb(204, 204, 204)" stroke-width="1px"></line><line x1="89.36166604359944" y1="0" x2="89.36166604359944" y2="5" style="visibility: inherit;" fill="rgb(0, 0, 0)" stroke="rgb(204, 204, 204)" stroke-width="1px"></line><line x1="111.70208255449931" y1="0" x2="111.70208255449931" y2="5" style="visibility: inherit;" fill="rgb(0, 0, 0)" stroke="rgb(204, 204, 204)" stroke-width="1px"></line><line x1="134.04249906539917" y1="0" x2="134.04249906539917" y2="5" style="visibility: inherit;" fill="rgb(0, 0, 0)" stroke="rgb(204, 204, 204)" stroke-width="1px"></line><line x1="156.38291557629904" y1="0" x2="156.38291557629904" y2="5" style="visibility: inherit;" fill="rgb(0, 0, 0)" stroke="rgb(204, 204, 204)" stroke-width="1px"></line><line x1="178.72333208719888" y1="0" x2="178.72333208719888" y2="5" style="visibility: inherit;" fill="rgb(0, 0, 0)" stroke="rgb(204, 204, 204)" stroke-width="1px"></line><line x1="201.06374859809875" y1="0" x2="201.06374859809875" y2="5" style="visibility: inherit;" fill="rgb(0, 0, 0)" stroke="rgb(204, 204, 204)" stroke-width="1px"></line><line x1="223.40416510899863" y1="0" x2="223.40416510899863" y2="5" style="visibility: inherit;" fill="rgb(0, 0, 0)" stroke="rgb(204, 204, 204)" stroke-width="1px"></line><line x1="245.74458161989847" y1="0" x2="245.74458161989847" y2="5" style="visibility: inherit;" fill="rgb(0, 0, 0)" stroke="rgb(204, 204, 204)" stroke-width="1px"></line><line x1="268.08499813079834" y1="0" x2="268.08499813079834" y2="5" style="visibility: inherit;" fill="rgb(0, 0, 0)" stroke="rgb(204, 204, 204)" stroke-width="1px"></line></g><g transform="translate(0, 8)"><text style="text-anchor: middle; visibility: hidden; font-family: Roboto, sans-serif; font-size: 12px; font-weight: 200;" x="0" y="0" dx="0em" dy="0.95em" fill="rgb(50, 49, 63)" stroke="none" stroke-width="1px">20k</text><text style="text-anchor: middle; visibility: inherit; font-family: Roboto, sans-serif; font-size: 12px; font-weight: 200;" x="22.34041651089986" y="0" dx="0em" dy="0.95em" fill="rgb(50, 49, 63)" stroke="none" stroke-width="1px">30k</text><text style="text-anchor: middle; visibility: hidden; font-family: Roboto, sans-serif; font-size: 12px; font-weight: 200;" x="44.68083302179972" y="0" dx="0em" dy="0.95em" fill="rgb(50, 49, 63)" stroke="none" stroke-width="1px">40k</text><text style="text-anchor: middle; visibility: inherit; font-family: Roboto, sans-serif; font-size: 12px; font-weight: 200;" x="67.02124953269958" y="0" dx="0em" dy="0.95em" fill="rgb(50, 49, 63)" stroke="none" stroke-width="1px">50k</text><text style="text-anchor: middle; visibility: hidden; font-family: Roboto, sans-serif; font-size: 12px; font-weight: 200;" x="89.36166604359944" y="0" dx="0em" dy="0.95em" fill="rgb(50, 49, 63)" stroke="none" stroke-width="1px">60k</text><text style="text-anchor: middle; visibility: inherit; font-family: Roboto, sans-serif; font-size: 12px; font-weight: 200;" x="111.70208255449931" y="0" dx="0em" dy="0.95em" fill="rgb(50, 49, 63)" stroke="none" stroke-width="1px">70k</text><text style="text-anchor: middle; visibility: hidden; font-family: Roboto, sans-serif; font-size: 12px; font-weight: 200;" x="134.04249906539917" y="0" dx="0em" dy="0.95em" fill="rgb(50, 49, 63)" stroke="none" stroke-width="1px">80k</text><text style="text-anchor: middle; visibility: inherit; font-family: Roboto, sans-serif; font-size: 12px; font-weight: 200;" x="156.38291557629904" y="0" dx="0em" dy="0.95em" fill="rgb(50, 49, 63)" stroke="none" stroke-width="1px">90k</text><text style="text-anchor: middle; visibility: hidden; font-family: Roboto, sans-serif; font-size: 12px; font-weight: 200;" x="178.72333208719888" y="0" dx="0em" dy="0.95em" fill="rgb(50, 49, 63)" stroke="none" stroke-width="1px">100k</text><text style="text-anchor: middle; visibility: inherit; font-family: Roboto, sans-serif; font-size: 12px; font-weight: 200;" x="201.06374859809875" y="0" dx="0em" dy="0.95em" fill="rgb(50, 49, 63)" stroke="none" stroke-width="1px">110k</text><text style="text-anchor: middle; visibility: hidden; font-family: Roboto, sans-serif; font-size: 12px; font-weight: 200;" x="223.40416510899863" y="0" dx="0em" dy="0.95em" fill="rgb(50, 49, 63)" stroke="none" stroke-width="1px">120k</text><text style="text-anchor: middle; visibility: inherit; font-family: Roboto, sans-serif; font-size: 12px; font-weight: 200;" x="245.74458161989847" y="0" dx="0em" dy="0.95em" fill="rgb(50, 49, 63)" stroke="none" stroke-width="1px">130k</text><text style="text-anchor: middle; visibility: hidden; font-family: Roboto, sans-serif; font-size: 12px; font-weight: 200;" x="268.08499813079834" y="0" dx="0em" dy="0.95em" fill="rgb(50, 49, 63)" stroke="none" stroke-width="1px">140k</text></g><line x1="0" y1="0" x2="268.08499813079834" y2="0" fill="rgb(0, 0, 0)" stroke="rgb(204, 204, 204)" stroke-width="1px"></line></g></g></g></g></svg>