<svg viewBox="0 0 330 200" xmlns="http://www.w3.org/2000/svg"><g><g><g><g><g><line x1="61.91500186920166" y1="177.89999961853027" x2="56.91500186920166" y2="177.89999961853027" style="visibility: inherit;" fill="rgb(0, 0, 0)" stroke="rgb(204, 204, 204)" stroke-width="1px"></line><line x1="61.91500186920166" y1="155.66249966621402" x2="56.91500186920166" y2="155.66249966621402" style="visibility: inherit;" fill="rgb(0, 0, 0)" stroke="rgb(204, 204, 204)" stroke-width="1px"></line><line x1="61.91500186920166" y1="133.4249997138977" x2="56.91500186920166" y2="133.4249997138977" style="visibility: inherit;" fill="rgb(0, 0, 0)" stroke="rgb(204, 204, 204)" stroke-width="1px"></line><line x1="61.91500186920166" y1="111.18749976158144" x2="56.91500186920166" y2="111.18749976158144" style="visibility: inherit;" fill="rgb(0, 0, 0)" stroke="rgb(204, 204, 204)" stroke-width="1px"></line><line x1="61.91500186920166" y1="88.94999980926514" x2="56.91500186920166" y2="88.94999980926514" style="visibility: inherit;" fill="rgb(0, 0, 0)" stroke="rgb(204, 204, 204)" stroke-width="1px"></line><line x1="61.91500186920166" y1="66.71249985694887" x2="56.91500186920166" y2="66.71249985694887" style="visibility: inherit;" fill="rgb(0, 0, 0)" stroke="rgb(204, 204, 204)" stroke-width="1px"></line><line x1="61.91500186920166" y1="44.47499990463257" x2="56.91500186920166" y2="44.47499990463257" style="visibility: inherit;" fill="rgb(0, 0, 0)" stroke="rgb(204, 204, 204)" stroke-width="1px"></line><line x1="61.91500186920166" y1="22.237499952316305" x2="56.91500186920166" y2="22.237499952316305" style="visibility: inherit;" fill="rgb(0, 0, 0)" stroke="rgb(204, 204, 204)" stroke-width="1px"></line><line x1="61.91500186920166" y1="0" x2="56.91500186920166" y2="0" style="visibility: inherit;" fill="rgb(0, 0, 0)" stroke="rgb(204, 204, 204)" stroke-width="1px"></line></g><g transform="translate(51.91500186920166, 0)"><text style="text-anchor: end; visibility: hidden; font-family: Roboto, sans-serif; font-size: 12px; font-weight: 200;" x="0" y="177.89999961853027" dx="0em" dy="0.3em" fill="rgb(50, 49, 63)" stroke="none" stroke-width="1px">8e-3</text><text style="text-anchor: end; visibility: inherit; font-family: Roboto, sans-serif; font-size: 12px; font-weight: 200;" x="0" y="155.66249966621402" dx="0em" dy="0.3em" fill="rgb(50, 49, 63)" stroke="none" stroke-width="1px">9e-3</text><text style="text-anchor: end; visibility: hidden; font-family: Roboto, sans-serif; font-size: 12px; font-weight: 200;" x="0" y="133.4249997138977" dx="0em" dy="0.3em" fill="rgb(50, 49, 63)" stroke="none" stroke-width="1px">0.01</text><text style="text-anchor: end; visibility: inherit; font-family: Roboto, sans-serif; font-size: 12px; font-weight: 200;" x="0" y="111.18749976158144" dx="0em" dy="0.3em" fill="rgb(50, 49, 63)" stroke="none" stroke-width="1px">0.011</text><text style="text-anchor: end; visibility: hidden; font-family: Roboto, sans-serif; font-size: 12px; font-weight: 200;" x="0" y="88.94999980926514" dx="0em" dy="0.3em" fill="rgb(50, 49, 63)" stroke="none" stroke-width="1px">0.012</text><text style="text-anchor: end; visibility: inherit; font-family: Roboto, sans-serif; font-size: 12px; font-weight: 200;" x="0" y="66.71249985694887" dx="0em" dy="0.3em" fill="rgb(50, 49, 63)" stroke="none" stroke-width="1px">0.013</text><text style="text-anchor: end; visibility: hidden; font-family: Roboto, sans-serif; font-size: 12px; font-weight: 200;" x="0" y="44.47499990463257" dx="0em" dy="0.3em" fill="rgb(50, 49, 63)" stroke="none" stroke-width="1px">0.014</text><text style="text-anchor: end; visibility: inherit; font-family: Roboto, sans-serif; font-size: 12px; font-weight: 200;" x="0" y="22.237499952316305" dx="0em" dy="0.3em" fill="rgb(50, 49, 63)" stroke="none" stroke-width="1px">0.015</text><text style="text-anchor: end; visibility: hidden; font-family: Roboto, sans-serif; font-size: 12px; font-weight: 200;" x="0" y="0" dx="0em" dy="0.3em" fill="rgb(50, 49, 63)" stroke="none" stroke-width="1px">0.016</text></g><line x1="61.91500186920166" y1="0" x2="61.91500186920166" y2="177.89999961853027" fill="rgb(0, 0, 0)" stroke="rgb(204, 204, 204)" stroke-width="1px"></line></g></g><g transform="translate(61, 0)" clip-path="url(#clip_0)"><clipPath id="clip_0"><rect width="268" height="177"></rect></clipPath><g><g><g><line x1="0" y1="0" x2="0" y2="177.89999961853027" fill="rgb(0, 0, 0)" stroke="rgb(60, 60, 60)" stroke-width="1px" opacity="0.25"></line><line x1="19.148928437914165" y1="0" x2="19.148928437914165" y2="177.89999961853027" fill="rgb(0, 0, 0)" stroke="rgb(60, 60, 60)" stroke-width="1px" opacity="0.25"></line><line x1="38.29785687582833" y1="0" x2="38.29785687582833" y2="177.89999961853027" fill="rgb(0, 0, 0)" stroke="rgb(60, 60, 60)" stroke-width="1px" opacity="0.25"></line><line x1="57.446785313742495" y1="0" x2="57.446785313742495" y2="177.89999961853027" fill="rgb(0, 0, 0)" stroke="rgb(60, 60, 60)" stroke-width="1px" opacity="0.25"></line><line x1="76.59571375165666" y1="0" x2="76.59571375165666" y2="177.89999961853027" fill="rgb(0, 0, 0)" stroke="rgb(60, 60, 60)" stroke-width="1px" opacity="0.25"></line><line x1="95.74464218957084" y1="0" x2="95.74464218957084" y2="177.89999961853027" fill="rgb(0, 0, 0)" stroke="rgb(60, 60, 60)" stroke-width="1px" opacity="0.25"></line><line x1="114.89357062748499" y1="0" x2="114.89357062748499" y2="177.89999961853027" fill="rgb(0, 0, 0)" stroke="rgb(60, 60, 60)" stroke-width="1px" opacity="0.25"></line><line x1="134.04249906539917" y1="0" x2="134.04249906539917" y2="177.89999961853027" fill="rgb(0, 0, 0)" stroke="rgb(60, 60, 60)" stroke-width="1px" opacity="0.25"></line><line x1="153.19142750331332" y1="0" x2="153.19142750331332" y2="177.89999961853027" fill="rgb(0, 0, 0)" stroke="rgb(60, 60, 60)" stroke-width="1px" opacity="0.25"></line><line x1="172.34035594122753" y1="0" x2="172.34035594122753" y2="177.89999961853027" fill="rgb(0, 0, 0)" stroke="rgb(60, 60, 60)" stroke-width="1px" opacity="0.25"></line><line x1="191.48928437914168" y1="0" x2="191.48928437914168" y2="177.89999961853027" fill="rgb(0, 0, 0)" stroke="rgb(60, 60, 60)" stroke-width="1px" opacity="0.25"></line><line x1="210.63821281705583" y1="0" x2="210.63821281705583" y2="177.89999961853027" fill="rgb(0, 0, 0)" stroke="rgb(60, 60, 60)" stroke-width="1px" opacity="0.25"></line><line x1="229.78714125496998" y1="0" x2="229.78714125496998" y2="177.89999961853027" fill="rgb(0, 0, 0)" stroke="rgb(60, 60, 60)" stroke-width="1px" opacity="0.25"></line><line x1="248.9360696928842" y1="0" x2="248.9360696928842" y2="177.89999961853027" fill="rgb(0, 0, 0)" stroke="rgb(60, 60, 60)" stroke-width="1px" opacity="0.25"></line><line x1="268.08499813079834" y1="0" x2="268.08499813079834" y2="177.89999961853027" fill="rgb(0, 0, 0)" stroke="rgb(60, 60, 60)" stroke-width="1px" opacity="0.25"></line></g><g><line x1="0" y1="177.89999961853027" x2="268.08499813079834" y2="177.89999961853027" fill="rgb(0, 0, 0)" stroke="rgb(60, 60, 60)" stroke-width="1px" opacity="0.25"></line><line x1="0" y1="155.66249966621402" x2="268.08499813079834" y2="155.66249966621402" fill="rgb(0, 0, 0)" stroke="rgb(60, 60, 60)" stroke-width="1px" opacity="0.25"></line><line x1="0" y1="133.4249997138977" x2="268.08499813079834" y2="133.4249997138977" fill="rgb(0, 0, 0)" stroke="rgb(60, 60, 60)" stroke-width="1px" opacity="0.25"></line><line x1="0" y1="111.18749976158144" x2="268.08499813079834" y2="111.18749976158144" fill="rgb(0, 0, 0)" stroke="rgb(60, 60, 60)" stroke-width="1px" opacity="0.25"></line><line x1="0" y1="88.94999980926514" x2="268.08499813079834" y2="88.94999980926514" fill="rgb(0, 0, 0)" stroke="rgb(60, 60, 60)" stroke-width="1px" opacity="0.25"></line><line x1="0" y1="66.71249985694887" x2="268.08499813079834" y2="66.71249985694887" fill="rgb(0, 0, 0)" stroke="rgb(60, 60, 60)" stroke-width="1px" opacity="0.25"></line><line x1="0" y1="44.47499990463257" x2="268.08499813079834" y2="44.47499990463257" fill="rgb(0, 0, 0)" stroke="rgb(60, 60, 60)" stroke-width="1px" opacity="0.25"></line><line x1="0" y1="22.237499952316305" x2="268.08499813079834" y2="22.237499952316305" fill="rgb(0, 0, 0)" stroke="rgb(60, 60, 60)" stroke-width="1px" opacity="0.25"></line><line x1="0" y1="0" x2="268.08499813079834" y2="0" fill="rgb(0, 0, 0)" stroke="rgb(60, 60, 60)" stroke-width="1px" opacity="0.25"></line></g></g></g><g><g><line x1="0" y1="355.79999923706055" x2="268.08499813079834" y2="355.79999923706055" fill="rgb(0, 0, 0)" stroke="rgb(153, 153, 153)" stroke-width="1.5px"></line></g></g><g><g><line x1="-76.59571375165666" y1="0" x2="-76.59571375165666" y2="177.89999961853027" fill="rgb(0, 0, 0)" stroke="rgb(153, 153, 153)" stroke-width="1.5px"></line></g></g><g><g><g><g><g><path style="fill: none;" stroke="rgb(255, 112, 67)" stroke-width="2px" d="M25.4106280371121,-13.159093901807132L25.81658531999588,10.210243220347758L27.758286663600376,36.71967970939535L28.623818228994097,24.270906510770537L29.569775293827057,46.682726876694225L30.201689932278224,62.361116800678445L31.147646997111185,61.83131080868957L31.553604279994964,49.595904602155365L31.959561562878747,79.06457687152435L32.36551884576253,46.757564376832605L33.02807176971436,57.15621349707971L33.617858765602115,62.746708190436394L34.54466690199716,47.68516144831652L35.37190061051505,60.12948022396114L35.77785789339883,49.55554455775393L36.183815176282614,54.16738169377945L36.86168724298477,59.73580682388876L37.46679338162286,86.66733583388374L37.87275066450664,89.70286518484457L38.55445251689639,77.63136674848268L39.27828201184954,77.82289706197851L39.97913279267719,64.21256210771914L40.385090075560974,46.83473257602698L41.204664212703705,59.88755919679069L41.61062149558749,61.02700798586511L42.01657877847127,61.44350628884098L43.16168469905853,52.56714449459602L44.11147154957907,55.430422913718054L44.78551383059365,37.811510993084184L45.191471113477434,28.00395917885685L45.59742839636122,52.83316286697619L46.00338567924499,69.08401112508362L46.42849189056669,48.19163933365314L46.834449173450466,26.721177695640222L47.24040645633425,34.72777535737003L48.052321022101815,44.19171392111793L48.95998023005894,61.59677929500881L49.36593751294272,90.81693988699118L49.95189472314289,54.22584422200698L50.53785193334307,62.67579158955668L50.94380921622685,60.811873513699915L51.55274514055252,52.09459576124167L53.46763798434394,70.80719988285655L54.06891433729444,60.383923163821635L54.494020548616135,51.62042554017523L54.89997783149992,27.87372473060343L55.48976482738767,50.664501105326096L55.89572211027145,43.78369356802835L56.71529624741418,41.83015354608151L57.12125353029796,45.661062956226274L57.527210813181746,55.56520422125478L58.96721023171288,51.91051773056247L59.373167514596666,44.90367448021089L59.78295458316803,33.99991536498118L60.38040115043095,12.24010645819051L60.78635843331473,10.850167655600675L61.391464571952824,37.353458428945395L62.01954942471641,42.452807037402266L62.601676849228994,35.82928069884768L63.808059340817586,51.43615186108473L64.53571862145833,49.792915102475995L64.9416759043421,54.07577742506495L65.3476331872259,46.42463745685151L65.75359047010967,43.44417818976733L66.45444125093732,41.29633064904406L67.0403984611375,31.179142123375478L67.44635574402129,37.77658177386971L67.85231302690505,32.825124435411176L68.25827030978884,34.16057287618295L68.66422759267262,34.32810719796278L69.0701848755564,28.66268543101288L69.86295051288604,38.631838954603204L71.46380093029568,32.2538881841488L71.86975821317945,49.78415251670149L72.90380034882682,49.183165822141326L73.6199702724048,48.9099960634384L74.02592755528859,40.81269618707932L74.60805497980118,42.34310803779649L76.26635218252454,42.86964908844852L76.95188382060188,43.863794155225094L77.87103238562175,46.1643069351663L78.27698966850554,32.4965458596031L78.68294695138931,45.200561664528905L80.41401008217676,53.76991168299599L81.03060557787758,60.16327621464703L81.76209464420592,80.08789813585152L82.62762620959963,1.0257538173208256L83.0335834924834,53.363789375966725L83.61571091699601,93.18916082838598L84.19783834150859,116.78633783614788L84.60379562439238,119.68418004115206L85.23571026284354,123.55762705796882L85.64166754572733,122.42690481552113L86.0476248286111,125.58791820111321L86.77145432356426,129.00575470656534L87.17741160644805,133.85453218666885L87.7671986023358,128.0329883808981L88.19230481365749,135.7243370980238L88.59826209654126,163.21431548053656L89.00421937942505,142.66501151758038L89.95783601563316,133.89263609723056L90.36379329851695,130.04325116440407L91.14506957878385,144.73137181307257L91.55102686166764,115.99657905371966L91.95698414455141,102.4098096403052L92.38209035587312,112.55056347066554L92.98336670882361,107.26279906754516L93.69570684671402,111.97394145459529L94.2816640569142,123.48037390021507L94.68762133979797,133.94194565598215L95.09357862268175,139.84963259937226L95.69868476131984,129.9599380525213L96.38421639939716,112.53916964024846L96.80932261071887,103.93267434689251L97.21527989360264,110.50614934571533L98.24166245787485,110.55416569282097L98.64761974075861,115.68276737922783L99.32166202177321,118.04597856978214L99.72761930465698,111.94954261577668L100.58166151298795,111.51747372477396L101.16378893750054,92.70536199617753L101.86080993264062,90.13841756416967L102.2667672155244,94.76103547561672L102.67272449840817,107.9686718335647L103.46549013573782,92.01083146654398L104.05527713162557,95.97601499575909L104.48038334294728,98.15350633985774L105.74038283416202,106.21899342194797L106.14634011704581,96.3472975378674L106.80123346962247,96.79830949229859L107.7548501058306,105.39548703410102L108.34463710171836,100.71733566839593L108.96506238310677,82.05854364417979L109.56633873605729,90.47101308415544L110.79187015608379,87.74249489838886L111.40463586609704,115.80694082655017L112.90591185562951,121.53449868021015L113.3118691385133,111.42939769486485L114.3574006312234,112.88478384033743L114.76335791410719,127.82789605656022L115.16931519699096,139.2244799152269L115.57527247987476,107.49116335278235L116.18037861851283,105.09513535497703L116.76250604302543,116.98849751172152L117.16846332590922,110.01542556392549L117.57442060879298,115.2258342655844L117.98037789167677,111.1382064956449L118.38633517456054,104.03871391518493L119.1101646695137,103.67928706503872L119.51612195239748,108.44727955084059L120.1595259479114,106.80041508493005L120.79144058636257,105.45485344228183L121.19739786924636,112.90227183911351L121.60335515213013,120.86123443054039L122.02846136345183,122.60563681959967L122.4344186463356,123.65489603314879L123.17739706972668,100.65132323062033L123.58335435261046,123.22352417112215L123.98931163549423,132.49886077248007L124.39526891837801,137.88744541677187L124.82037512969971,123.93151469149221L125.6246301240921,131.22466608631115L126.34845961904526,136.91143516741428L126.77356583036696,129.89252926373842L127.3671826119423,123.30073719807179L127.79228882326399,103.86531156360537L128.38207581915174,109.85024683682623L128.7880331020355,101.47942745409826L129.38164988361086,114.76230173600982L129.80675609493255,106.67979864876153L131.12037258577345,113.48510120418591L131.52632986865726,92.09519463563034L131.95143607997895,114.40364811319675L132.35739336286272,127.91562454644465L132.9395207873753,116.4967885392942L133.3454780702591,107.93067527833165L133.93143528045928,103.22517775134922L134.52122227634703,116.17069905780426L134.9271795592308,103.09261222911158L135.33313684211458,115.90456835434141L135.91909405231476,122.73120480594402L137.25951904296875,117.13643807225043L137.66547632585252,112.84609089811906L138.39696539218085,124.44972169992121L138.80292267506462,114.11732047374812L139.20887995794843,114.68762479401528L139.8178158822741,109.66539604547614L140.22377316515787,101.82243673733505L140.62973044804164,112.12710344890293L141.62547472681317,118.58073602411218L142.03143200969697,107.08806229551104L142.83568700408938,114.83294837913293L143.24164428697316,123.37202201132382L143.83526106854848,128.03405759327924L144.24121835143225,117.62669900276157L144.64717563431603,122.99237060732227L145.0531329171998,111.3321291540274L145.86887726865496,111.75183226332986L146.51228126416888,95.3888854079847L146.91823854705265,106.90157665098168L147.32419582993643,104.43459772963799L147.74930204125812,90.69050818225415L148.4424932507106,96.16433707588753L148.8484505335944,92.33091513562067L149.54164174304688,85.55303310960358L150.1275989532471,87.95376990387578L150.71355616344724,92.79769062910518L151.119513446331,107.6920676849533L151.5254707292148,130.8847599159217L151.9314280120986,95.521816108482L152.85440636280603,90.37543035263674L153.2603636456898,99.91583643989296L153.6663209285736,98.47060166975686L154.0722782114574,105.00684119695796L154.47823549434116,109.20713825605934L155.06419270454137,99.94766219738112L155.47014998742515,110.44690483982582L155.8761072703089,121.83674042435297L156.28206455319267,122.87998790214392L156.68802183607644,116.89043325669095L157.09780890464782,111.89492063917528L157.50376618753162,104.62923975235141L157.9097234704154,117.25207496668286L158.3348296817371,120.08610294915374L159.2501484610694,116.53191433276385L159.65610574395316,104.7116928282168L160.06206302683694,111.32648855532734L160.4718500954083,100.05011875989126L160.87780737829206,115.3745752009109L161.30291358961378,136.17535944953795L161.70887087249756,134.95751684773015L162.11482815538136,113.21987144555261L162.53993436670302,134.81395301417038L162.94589164958683,138.13104799570033L163.53950843116218,135.72154561576846L163.94546571404595,129.2635574088419L164.35142299692973,136.4373539774256L164.75738027981347,135.40672030883977L165.16333756269725,139.51547110479112L165.76461391564777,127.27342816399766L166.39269876841135,124.07115422558469L166.97865597861156,112.45141158862677L167.38461326149533,106.03683009018484L167.79057054437908,99.96741666395756L168.19652782726286,100.73358013615454L168.7901446088382,120.90745717429175L169.196101891722,109.30772648002134L169.60205917460578,100.68546514551524L170.3105695268086,97.48272516644232L170.7165268096924,104.25977396175446L171.29865423420497,117.97939877229284L171.70461151708875,113.32537472066605L172.11056879997253,86.49893881651349L172.5165260828563,114.98694601447379L172.94163229417802,83.1796675164968L173.3475895770618,96.44187553866325L173.94503614432472,95.34895461136077L174.3509934272085,89.31157632479886L174.75695071009227,97.2216719496972L175.16290799297605,121.96717175480549L175.95567363030568,125.11341702005267L176.60673719719478,133.93188614392773L177.01269448007855,142.82588631829267L177.41865176296236,125.60891783207177L177.82460904584613,107.84144118718004L178.24971525716782,105.85117548220876L178.6556725400516,110.02015993044004L179.06545960862297,111.30995746485415L179.47141689150675,123.76146312812679L179.87737417439052,120.35453748107524L180.2833314572743,122.9821420700767L180.6892887401581,120.88858538837039L181.11439495147977,133.23970554612697L181.52035223436357,113.9689106407881L181.92630951724735,112.48695816339011L182.33226680013112,110.51902931496159L182.7382240830149,98.53674793755417L183.41226636402948,116.34575432802154L183.81822364691325,108.97682576588467L184.22418092979703,109.87971029914158L184.6301382126808,104.72236802957386L185.05524442400252,112.81908863093375L185.4803506353242,106.77536742468402L185.886307918208,90.11693061125308L186.29226520109177,100.16814105140813L186.69822248397557,89.93451662876409L187.10417976685935,88.423927526593L187.5101370497431,99.09808653616979L187.91609433262687,86.82810903435444L188.32205161551065,89.1142907905035L188.90417904002325,85.50129916578933L189.31013632290703,93.95609139078881L189.7199233914784,93.00364874755611L190.1258806743622,115.12218993344753L190.53183795724598,120.32402401313941L190.93779524012973,139.96830401436344L191.3437525230135,134.04177057012978L191.76885873433523,148.13479148343237L192.174816017219,129.8049725784211L192.58077330010278,129.60953312456442L192.98673058298658,147.4549629764643L193.39268786587033,101.3335779724552L193.81779407719205,115.34691537529676L194.24290028851374,134.28792060496852L194.6488575713975,147.843299185599L195.0548148542813,150.93242855616143L195.46077213716507,138.13165594389142L195.86672942004884,155.46448728326573L196.27268670293265,144.24345136619456L196.69779291425434,123.30502353984991L197.1037501971381,123.08530541048466L197.5097074800219,140.06133858828537L197.91566476290566,139.87670541621145L198.32162204578944,144.89023836938952L198.90757925598962,124.41098051734136L199.317366324561,144.110917709335L200.12545110464097,138.99631963992093L200.53523817321232,138.18919855468044L200.94119545609612,135.9753850916679L201.52332288060867,136.99015104544603L201.92928016349248,140.60274761574578L202.35438637481417,120.07404427981068L202.76034365769794,106.04862134477546L203.16630094058172,140.88821172765662L203.5760880091531,123.74852556336732L204.0011942204748,134.15291412471686L204.40715150335856,127.18686668526534L204.83225771468028,130.94622801987313L205.25736392600197,122.97123705635937L205.66332120888575,117.1775770072136L206.0731082774571,134.18123576342072L206.47906556034087,124.59394117937528L206.88502284322465,117.89304991172258L207.29098012610842,129.9137497878721L207.69693740899223,120.10607584897497L208.102894691876,110.775536751268L208.50885197475978,115.30066603866594L208.91480925764355,124.22246712391582L209.32076654052736,121.7977419884L209.74587275184902,114.09257581669131L210.15183003473282,118.88432229211126L210.5616171033042,131.4283564137957L210.97140417187555,120.348316557512L211.37736145475932,107.46898187973741L211.7833187376431,103.19870646458112L212.18927602052688,137.8123656103148L212.61438223184857,119.54818385086554L213.03948844317028,116.49456717908402L213.44544572605406,110.80784850461565L214.13097736413135,120.15279826077696L214.53693464701516,116.6084893160706L215.14587057134085,128.8762980870112L215.55182785422463,123.15852076573576L215.9577851371084,122.99160486601775L216.3828913484301,119.13016921339049L216.78884863131387,118.4906255772396L217.19480591419764,121.47119418365445L217.60076319708142,127.50709896873784L218.00672047996522,126.08818078814238L218.412677762849,102.31863718001678L218.81863504573278,110.12618910371417L219.51182625518527,110.37103145823654L219.91778353806905,109.4626898252967L220.32374082095282,108.48770617776506L220.72969810383663,110.12711665194998L221.13948517240797,131.3032997864629L221.85182531029838,116.06665905266667L222.25778259318216,105.81200208652281L222.66373987606593,100.4592131073027L223.06969715894974,104.64993429945366L223.47565444183348,100.71837342908448L223.88161172471726,98.71654022127923L224.28756900760104,98.22847886531473L224.69352629048484,99.47607310274194L225.09948357336862,104.99231966583282L225.5054408562524,101.82537309049313L225.91139813913617,95.21319265675375L226.31735542201994,96.84584624274494L226.72331270490375,91.07635391939158L227.12926998778752,100.75931946645838L227.5352272706713,115.57388960022752L227.94118455355508,106.9432045433535L228.34714183643888,120.80515089234726L228.75309911932266,124.92699470518042L229.17820533064435,115.09259122071465L229.58416261352812,108.01665698430055L229.9901198964119,114.99528430565788L230.39990696498327,118.70865906614512L230.80586424786702,110.90509371970447L231.2118215307508,115.52777108437252L231.6177788136346,111.74465016188678L232.02373609651838,109.46199522005604L232.42969337940215,94.34383766673018L232.83565066228593,117.04535457881629L233.26075687360762,119.85552872263445L233.68586308492934,107.40363240823339L234.0918203678131,112.67863995895235L234.5169265791348,113.93969821950616L235.24841564546313,103.32747154078663L235.6543729283469,114.25270220103842L236.33990456642425,104.5675718306744L237.1058617039408,123.7385739725723L237.51181898682458,120.14675689476725L237.91777626970836,138.48072508474772L238.32373355259213,154.1446812710563L238.7296908354759,145.33327946600969L239.1356481183597,119.06548580839605L239.56075432968137,119.2777665806449L239.96671161256518,112.00367656922515L240.37649868113655,133.41725719507116L240.78245596402033,147.62030559809273L241.20756217534202,145.98239747332207L241.6135194582258,137.09216728680093L242.01947674110957,130.08534223934723L242.42543402399335,141.36153961714146L242.83139130687715,138.6948081225206L243.23734858976093,148.0533849532553L243.6433058726447,161.92422668108787L244.04926315552848,155.298457556975L244.45522043841225,146.72284398914096L244.86117772129606,138.26215674397884L245.26713500417983,159.23151746116315L245.6730922870636,169.66942050189058L246.07904956994736,134.23309141308354L246.48500685283116,121.97907533058475L246.89096413571494,141.61313720076603L247.2969214185987,100.53365174217964L247.7028787014825,128.1104169251545L248.10883598436627,141.00095320919968L248.51479326725007,119.62621456178574L248.92075055013385,124.83952489455915L249.33053761870522,151.09889961713304L249.74032468727657,136.00638406337072L250.14628197016035,129.0197411481456L250.55223925304412,130.33271502264284L250.9620263216155,131.88946397158733L251.3871325329372,122.42156524095118L251.81223874425888,106.32930146645496L252.2373449555806,104.59256236301295L252.64330223846437,111.12882664743968L253.06840844978606,120.70714413311495L253.47436573266984,113.44732962923206L253.8803230155536,131.9917316557042L254.2862802984374,119.97201081211028L254.6922375813212,119.64720985194982L255.09819486420497,126.49838267963436L255.50415214708872,135.3411712736895L255.9101094299725,127.33521716566104L256.3160667128563,119.39474056570468L256.7220239957401,131.1155355175502L257.12798127862385,127.62500034251653L257.5339385615076,144.3311949438803L257.9398958443914,152.57916210335722L258.34968291296275,125.69911613669154L258.7747891242845,115.14566787676247L259.1807464071682,104.75458174066166L259.58670369005205,80.5183674705694L259.9926609729358,74.81638530517414L260.3986182558196,91.18695569102037L260.8045755387034,101.1908442870497L261.22968175002507,52.04154577271529" fill="none"></path></g></g></g></g><g opacity="0.2"><g><g><g><path style="fill: none;" stroke="rgb(255, 112, 67)" stroke-width="2px" d="M21.427650922025954,-33.28939878302991L22.02892727497646,43.0262229686004L22.434884557860236,9.56067939492625L24.27701147358758,-154.84448579538932L25.4106280371121,62.131792899357805L25.81658531999588,45.258315431416484L27.758286663600376,76.47979599713497L28.623818228994097,5.598884580013372L29.569775293827057,80.29922830808692L30.201689932278224,85.87818578255605L31.147646997111185,61.03661228080118L31.553604279994964,31.24294023240518L31.959561562878747,123.26737582486783L32.36551884576253,-1.702816590554459L33.02807176971436,72.7541605701573L33.617858765602115,71.13244164774515L34.54466690199716,25.092855208949914L35.37190061051505,78.79595150964228L35.77785789339883,33.69464456487528L36.183815176282614,61.085136480216434L36.86168724298477,68.08844385429472L37.46679338162286,127.06462741982585L37.87275066450664,94.25615908082855L38.55445251689639,59.52411940521621L39.27828201184954,78.11019252925902L39.97913279267719,43.797059802674596L40.385090075560974,20.767988375279522L41.204664212703705,79.46679908431534L41.61062149558749,62.73618116719196L42.01657877847127,62.06825374280381L43.16168469905853,39.25260180963589L44.11147154957907,59.725340541160996L44.78551383059365,11.383143116711878L45.191471113477434,13.292631459045054L45.59742839636122,90.07696839683247L46.00338567924499,93.46028351133265L46.42849189056669,16.85308164721092L46.834449173450466,-5.484514760945327L47.24040645633425,46.73767184986769L48.052321022101815,58.387621766670925L48.95998023005894,87.70437735576922L49.36593751294272,134.64718077488806L49.95189472314289,-0.6607992754118186L50.53785193334307,75.35071264087337L50.94380921622685,58.01599639991576L51.55274514055252,39.01867913255722L53.46763798434394,98.87610606527511L54.06891433729444,44.749008085270525L54.494020548616135,38.475179104706356L54.89997783149992,-7.746326483753254L55.48976482738767,84.85066566740943L55.89572211027145,33.46248226208185L56.71529624741418,38.89984351316126L57.12125353029796,51.40742707144344L57.527210813181746,70.42141611879741L58.96721023171288,46.428487994523955L59.373167514596666,34.39340960468354L59.78295458316803,17.64427669213667L60.38040115043095,-20.399606901995462L60.78635843331473,8.765259451715943L61.391464571952824,77.10839458896248L62.01954942471641,50.101829950087414L62.601676849228994,25.893991191015793L63.808059340817586,74.84645860444031L64.53571862145833,47.328059964562826L64.9416759043421,60.50007090894841L65.3476331872259,34.94792750453138L65.75359047010967,38.97348928914105L66.45444125093732,38.074559337959144L67.0403984611375,16.003359334872655L67.44635574402129,47.67274124961111L67.85231302690505,25.39793842772334L68.25827030978884,36.16374553734062L68.66422759267262,34.579408680632504L69.0701848755564,20.16455278058796L69.86295051288604,53.585569239988615L71.46380093029568,22.686962028467235L71.86975821317945,76.07954901553052L72.90380034882682,48.28168578030115L73.6199702724048,48.50024142538403L74.02592755528859,28.66674637254066L74.60805497980118,44.63872581387221L76.26635218252454,43.65946066442664L76.95188382060188,45.35501175538995L77.87103238562175,49.615076105078124L78.27698966850554,11.994904246258296L78.68294695138931,64.25658537191762L80.41401008217676,66.62393671069658L81.03060557787758,69.75332301212359L81.76209464420592,109.97483101765818L82.62762620959963,-117.56746266047531L83.0335834924834,131.8708427139356L83.61571091699601,152.92721800701483L84.19783834150859,152.18210334779073L84.60379562439238,124.0309433486583L85.23571026284354,129.36779758319386L85.64166754572733,120.73082145184958L86.0476248286111,130.3294382795014L86.77145432356426,134.13250946474358L87.17741160644805,141.12769840682407L87.7671986023358,119.30067267224202L88.19230481365749,147.2613601737124L88.59826209654126,204.44928305430568L89.00421937942505,111.84105557314608L89.95783601563316,120.73407296670582L90.36379329851695,124.26917376516437L91.14506957878385,166.76355278607528L91.55102686166764,72.89438991469025L91.95698414455141,82.02965552018352L92.38209035587312,127.76169421620601L92.98336670882361,99.33115246286454L93.69570684671402,119.0406550351705L94.2816640569142,140.74002256864475L94.68762133979797,149.6343032896327L95.09357862268175,148.71116301445744L95.69868476131984,115.12539623224485L96.38421639939716,86.40801702183923L96.80932261071887,91.0229314068586L97.21527989360264,120.36636184394959L98.24166245787485,110.62619021347945L98.64761974075861,123.37566990883812L99.32166202177321,121.5907953556136L99.72761930465698,102.80488868476849L100.58166151298795,110.86937038826986L101.16378893750054,64.48719440328291L101.86080993264062,86.28800091615788L102.2667672155244,101.69496234278733L102.67272449840817,127.78012637048667L103.46549013573782,68.07407091601294L104.05527713162557,101.92379028958169L104.48038334294728,101.41974335600571L105.74038283416202,118.3172240450833L106.14634011704581,81.53975371174651L106.80123346962247,97.47482742394534L107.7548501058306,118.29125334680471L108.34463710171836,93.70010861983828L108.96506238310677,54.07035560785559L109.56633873605729,103.08971724411889L110.79187015608379,83.64971761973896L111.40463586609704,157.90360971879215L112.90591185562951,130.12583546070013L113.3118691385133,96.27174621684689L114.3574006312234,115.06786305854635L114.76335791410719,150.24256438089438L115.16931519699096,156.3193557032269L115.57527247987476,59.89118850911549L116.18037861851283,101.5010933582691L116.76250604302543,134.82854074683829L117.16846332590922,99.55581764223146L117.57442060879298,123.04144731807268L117.98037789167677,105.00676484073571L118.38633517456054,93.38947504449494L119.1101646695137,103.14014678981934L119.51612195239748,115.5992682795434L120.1595259479114,104.33011838606424L120.79144058636257,103.43651097830944L121.19739786924636,124.07339943436094L121.60335515213013,132.79967831768073L122.02846136345183,125.22224040318855L122.4344186463356,125.22878485347248L123.17739706972668,66.14596402682774L123.58335435261046,157.0818255818748L123.98931163549423,146.41186567451695L124.39526891837801,145.97032238320955L124.82037512969971,102.99761860357273L125.6246301240921,142.1643931785396L126.34845961904526,145.4415887890689L126.77356583036696,119.3641704082246L127.3671826119423,113.41304909957186L127.79228882326399,74.71217311190573L128.38207581915174,118.82764974665753L128.7880331020355,88.9231983800062L129.38164988361086,134.68661315887724L129.80675609493255,94.55604401788912L131.12037258577345,123.69305503732245L131.52632986865726,60.01033478279708L131.95143607997895,147.8663283295464L132.35739336286272,148.1835891963165L132.9395207873753,99.36853452856856L133.3454780702591,95.08150538688778L133.93143528045928,96.16693146087566L134.52122227634703,135.58898101748676L134.9271795592308,83.4754819860725L135.33313684211458,135.1225025421862L135.91909405231476,132.97115948334795L137.25951904296875,108.74428797171012L137.66547632585252,106.41057013692193L138.39696539218085,141.85516790262446L138.80292267506462,98.6187186344886L139.20887995794843,115.54308127441595L139.8178158822741,102.13205292266738L140.22377316515787,90.05799777512338L140.62973044804164,127.58410351625474L141.62547472681317,128.2611848869261L142.03143200969697,89.84905170260929L142.83568700408938,126.45027750456586L143.24164428697316,136.18063245961014L143.83526106854848,135.02711096621238L144.24121835143225,102.01566111698504L144.64717563431603,131.04087801416335L145.0531329171998,93.84176697408512L145.86887726865496,112.38138692728353L146.51228126416888,70.84446512496703L146.91823854705265,124.17061351547713L147.32419582993643,100.73412934762241L147.74930204125812,70.07437386117834L148.4424932507106,104.37508041633761L148.8484505335944,86.58078222522039L149.54164174304688,75.38621007057792L150.1275989532471,91.55487509528407L150.71355616344724,100.06357171694927L151.119513446331,130.03363326872545L151.5254707292148,165.6737982623743L151.9314280120986,42.47740039732243L152.85440636280603,82.65585171886883L153.2603636456898,114.22644557077724L153.6663209285736,96.30274951455267L154.0722782114574,114.81120048775965L154.47823549434116,115.5075838447114L155.06419270454137,86.05844810936372L155.47014998742515,126.19576880349284L155.8761072703089,138.92149380114375L156.28206455319267,124.44485911883044L156.68802183607644,107.90610128851155L157.09780890464782,104.40165171290175L157.50376618753162,93.73071842211559L157.9097234704154,136.18632778818L158.3348296817371,124.33714492285999L159.2501484610694,111.20063140817896L159.65610574395316,86.9813605713962L160.06206302683694,121.24868214599319L160.4718500954083,83.1355640667372L160.87780737829206,138.36125986244033L161.30291358961378,167.3765358224785L161.70887087249756,133.13075294501846L162.11482815538136,80.61340334228643L162.53993436670302,167.20507536709698L162.94589164958683,143.10669046799532L163.53950843116218,132.1072920458707L163.94546571404595,119.57657509845203L164.35142299692973,147.19804883030122L164.75738027981347,133.86076980596098L165.16333756269725,145.67859729871816L165.76461391564777,108.91036375280741L166.39269876841135,119.26774331796534L166.97865597861156,95.02179763318989L167.38461326149533,96.41495784252189L167.79057054437908,90.8632965246167L168.19652782726286,101.88282534445007L168.7901446088382,151.1682727314975L169.196101891722,91.9081304386157L169.60205917460578,87.75207314375614L170.3105695268086,92.67861519783285L170.7165268096924,114.42534715472266L171.29865423420497,138.5588359881004L171.70461151708875,106.34433864322583L172.11056879997253,46.259284960284674L172.5165260828563,157.71895681141427L172.94163229417802,35.46874976953133L173.3475895770618,116.33518757191288L173.94503614432472,93.70957322040711L174.3509934272085,80.25550889495607L174.75695071009227,109.08681538704471L175.16290799297605,159.08542146246788L175.95567363030568,129.83278491792342L176.60673719719478,147.15958982974036L177.01269448007855,156.16688657984017L177.41865176296236,99.78346510274042L177.82460904584613,81.19022621984243L178.24971525716782,102.86577692475177L178.6556725400516,116.27363660278692L179.06545960862297,113.24465376647522L179.47141689150675,142.43872162303575L179.87737417439052,115.24414901049798L180.2833314572743,126.92354895357886L180.6892887401581,117.74825036581086L181.11439495147977,151.76638578276194L181.52035223436357,85.06271828277981L181.92630951724735,110.26402944729311L182.33226680013112,107.56713604231885L182.7382240830149,80.56332587144303L183.41226636402948,143.05926391372262L183.81822364691325,97.92343292267938L184.22418092979703,111.23403709902693L184.6301382126808,96.98635462522223L185.05524442400252,124.96416953297366L185.4803506353242,97.70978561530944L185.886307918208,65.12927539110672L186.29226520109177,115.24495671164063L186.69822248397557,74.58407999479802L187.10417976685935,86.1580438733364L187.5101370497431,115.10932505053498L187.91609433262687,68.42314278163146L188.32205161551065,92.54356342472705L188.90417904002325,80.08181172871801L189.31013632290703,106.63827972828801L189.7199233914784,91.57498478270712L190.1258806743622,148.30000171228454L190.53183795724598,128.12677513267727L190.93779524012973,169.43472401619945L191.3437525230135,125.15197040377926L191.76885873433523,169.2743228533863L192.174816017219,102.31024422090421L192.58077330010278,129.3163739437794L192.98673058298658,174.22310775431407L193.39268786587033,32.15150046644158L193.81779407719205,136.366921479559L194.24290028851374,162.6994284494762L194.6488575713975,168.17636705654473L195.0548148542813,155.56612261200502L195.46077213716507,118.93049702548645L195.86672942004884,181.46373429232725L196.27268670293265,127.4118974905877L196.69779291425434,91.89738180033294L197.1037501971381,122.7557282164368L197.5097074800219,165.52538835498646L197.91566476290566,139.5997556581005L198.32162204578944,152.41053779915663L198.90757925598962,93.69209373926904L199.317366324561,173.6608234973255L200.12545110464097,131.3244225357998L200.53523817321232,136.97851692681976L200.94119545609612,132.65466489714908L201.52332288060867,138.51229997611318L201.92928016349248,146.02164247119546L202.35438637481417,89.28098927590803L202.76034365769794,85.01048694222271L203.16630094058172,193.14759730197832L203.5760880091531,98.03899631693339L204.0011942204748,149.7594969667412L204.40715150335856,116.73779552608812L204.83225771468028,136.58527002178482L205.25736392600197,111.00875061108876L205.66332120888575,108.487086933495L206.0731082774571,159.68672389773144L206.47906556034087,110.21299930330711L206.88502284322465,107.84171301024351L207.29098012610842,147.9447996020963L207.69693740899223,105.3945649406293L208.102894691876,96.7797281047075L208.50885197475978,122.08835996976278L208.91480925764355,137.60516875179067L209.32076654052736,118.16065428512627L209.74587275184902,102.5348265591283L210.15183003473282,126.07194200524111L210.5616171033042,150.24440759632245L210.97140417187555,103.72825677308653L211.37736145475932,88.14997986307552L211.7833187376431,96.79329334184663L212.18927602052688,189.73285432891532L212.61438223184857,92.15191121169167L213.03948844317028,111.91414217141174L213.44544572605406,102.27777049291312L214.13097736413135,134.17022289501892L214.53693464701516,111.29202589901102L215.14587057134085,147.27801124342213L215.55182785422463,114.58185478382258L215.9577851371084,122.74123101644078L216.3828913484301,113.3380157344496L216.78884863131387,117.53131012301324L217.19480591419764,125.94204709327676L217.60076319708142,136.5609561463629L218.00672047996522,123.95980351724926L218.412677762849,66.66432176782835L218.81863504573278,121.83751698926018L219.51182625518527,110.73829499002011L219.91778353806905,108.10017737588687L220.32374082095282,107.02523070646755L220.72969810383663,112.58623236322732L221.13948517240797,163.0675744882323L221.85182531029838,93.2116979519723L222.25778259318216,90.43001663730702L222.66373987606593,92.43002963847249L223.06969715894974,110.93601608768014L223.47565444183348,94.82103212353068L223.88161172471726,95.71379040957143L224.28756900760104,97.496386831368L224.69352629048484,101.34746445888268L225.09948357336862,113.26668951046918L225.5054408562524,97.07495322748363L225.91139813913617,85.29492200614467L226.31735542201994,99.29482662173164L226.72331270490375,82.42211543436154L227.12926998778752,115.28376778705854L227.5352272706713,137.7957448008812L227.94118455355508,93.99717695804247L228.34714183643888,141.59807041583787L228.75309911932266,131.10976042443016L229.17820533064435,100.34098599401601L229.58416261352812,97.4027556296794L229.9901198964119,125.46322528769386L230.39990696498327,124.27872120687603L230.80586424786702,99.19974570004345L231.2118215307508,122.46178713137459L231.6177788136346,106.06996877815826L232.02373609651838,106.03801280730988L232.42969337940215,71.66660133674144L232.83565066228593,151.09762994694546L233.26075687360762,124.07078993836166L233.68586308492934,88.7257879366318L234.0918203678131,120.59115128503076L234.5169265791348,115.83128561033688L235.24841564546313,87.40913152270738L235.6543729283469,130.64054819141606L236.33990456642425,90.03987627512836L237.1058617039408,152.49507718541912L237.51181898682458,114.75903127805967L237.91777626970836,165.9816773697184L238.32373355259213,177.64061555051916L238.7296908354759,132.1161767584397L239.1356481183597,79.66379532197557L239.56075432968137,119.59618773901806L239.96671161256518,101.0925415520955L240.37649868113655,165.53762813384023L240.78245596402033,168.92487820262505L241.20756217534202,143.5255352861661L241.6135194582258,123.75682200701924L242.01947674110957,119.5751046681667L242.42543402399335,158.2758356838329L242.83139130687715,134.6947108805893L243.23734858976093,162.09125019935735L243.6433058726447,182.7304892728368L244.04926315552848,145.35980387080565L244.45522043841225,133.85942363738994L244.86117772129606,125.57112587623567L245.26713500417983,190.68555853693962L245.6730922870636,185.32627506298164L246.07904956994736,81.07859777987306L246.48500685283116,103.59805120683654L246.89096413571494,171.06423000603803L247.2969214185987,38.914423554300114L247.7028787014825,169.4755646996168L248.10883598436627,160.33675763526736L248.51479326725007,87.56410659066486L248.92075055013385,132.65949039371918L249.33053761870522,190.48796170099382L249.74032468727657,113.3676107327272L250.14628197016035,118.53977677530794L250.55223925304412,132.30217583438866L250.9620263216155,134.22458739500402L251.3871325329372,108.21971714499693L251.81223874425888,82.1909058047107L252.2373449555806,101.98745370784992L252.64330223846437,120.93322307407975L253.06840844978606,135.0746203616279L253.47436573266984,102.55760787340776L253.8803230155536,159.80833469541236L254.2862802984374,101.94242954671942L254.6922375813212,119.16000841170919L255.09819486420497,136.77514192116126L255.50415214708872,148.6053541647722L255.9101094299725,115.3262860036183L256.3160667128563,107.48402566577023L256.7220239957401,148.69672794531854L257.12798127862385,122.38919757996595L257.5339385615076,169.39048684592586L257.9398958443914,164.9511128425726L258.34968291296275,85.37904718669301L258.7747891242845,99.31549548686883L259.1807464071682,89.16795253651047L259.58670369005205,44.16404606543104L259.9926609729358,66.26341205708123L260.3986182558196,115.74281126978973L260.8045755387034,116.19667718109375L261.22968175002507,-21.682401998786318" fill="none"></path></g></g></g></g></g></g><g transform="translate(61, 177)" clip-path="url(#clip_1)"><clipPath id="clip_1"><rect width="268" height="22"></rect></clipPath><g><g><line x1="0" y1="0" x2="0" y2="5" style="visibility: inherit;" fill="rgb(0, 0, 0)" stroke="rgb(204, 204, 204)" stroke-width="1px"></line><line x1="19.148928437914165" y1="0" x2="19.148928437914165" y2="5" style="visibility: inherit;" fill="rgb(0, 0, 0)" stroke="rgb(204, 204, 204)" stroke-width="1px"></line><line x1="38.29785687582833" y1="0" x2="38.29785687582833" y2="5" style="visibility: inherit;" fill="rgb(0, 0, 0)" stroke="rgb(204, 204, 204)" stroke-width="1px"></line><line x1="57.446785313742495" y1="0" x2="57.446785313742495" y2="5" style="visibility: inherit;" fill="rgb(0, 0, 0)" stroke="rgb(204, 204, 204)" stroke-width="1px"></line><line x1="76.59571375165666" y1="0" x2="76.59571375165666" y2="5" style="visibility: inherit;" fill="rgb(0, 0, 0)" stroke="rgb(204, 204, 204)" stroke-width="1px"></line><line x1="95.74464218957084" y1="0" x2="95.74464218957084" y2="5" style="visibility: inherit;" fill="rgb(0, 0, 0)" stroke="rgb(204, 204, 204)" stroke-width="1px"></line><line x1="114.89357062748499" y1="0" x2="114.89357062748499" y2="5" style="visibility: inherit;" fill="rgb(0, 0, 0)" stroke="rgb(204, 204, 204)" stroke-width="1px"></line><line x1="134.04249906539917" y1="0" x2="134.04249906539917" y2="5" style="visibility: inherit;" fill="rgb(0, 0, 0)" stroke="rgb(204, 204, 204)" stroke-width="1px"></line><line x1="153.19142750331332" y1="0" x2="153.19142750331332" y2="5" style="visibility: inherit;" fill="rgb(0, 0, 0)" stroke="rgb(204, 204, 204)" stroke-width="1px"></line><line x1="172.34035594122753" y1="0" x2="172.34035594122753" y2="5" style="visibility: inherit;" fill="rgb(0, 0, 0)" stroke="rgb(204, 204, 204)" stroke-width="1px"></line><line x1="191.48928437914168" y1="0" x2="191.48928437914168" y2="5" style="visibility: inherit;" fill="rgb(0, 0, 0)" stroke="rgb(204, 204, 204)" stroke-width="1px"></line><line x1="210.63821281705583" y1="0" x2="210.63821281705583" y2="5" style="visibility: inherit;" fill="rgb(0, 0, 0)" stroke="rgb(204, 204, 204)" stroke-width="1px"></line><line x1="229.78714125496998" y1="0" x2="229.78714125496998" y2="5" style="visibility: inherit;" fill="rgb(0, 0, 0)" stroke="rgb(204, 204, 204)" stroke-width="1px"></line><line x1="248.9360696928842" y1="0" x2="248.9360696928842" y2="5" style="visibility: inherit;" fill="rgb(0, 0, 0)" stroke="rgb(204, 204, 204)" stroke-width="1px"></line><line x1="268.08499813079834" y1="0" x2="268.08499813079834" y2="5" style="visibility: inherit;" fill="rgb(0, 0, 0)" stroke="rgb(204, 204, 204)" stroke-width="1px"></line></g><g transform="translate(0, 8)"><text style="text-anchor: middle; visibility: hidden; font-family: Roboto, sans-serif; font-size: 12px; font-weight: 200;" x="0" y="0" dx="0em" dy="0.95em" fill="rgb(50, 49, 63)" stroke="none" stroke-width="1px">20k</text><text style="text-anchor: middle; visibility: inherit; font-family: Roboto, sans-serif; font-size: 12px; font-weight: 200;" x="19.148928437914165" y="0" dx="0em" dy="0.95em" fill="rgb(50, 49, 63)" stroke="none" stroke-width="1px">25k</text><text style="text-anchor: middle; visibility: hidden; font-family: Roboto, sans-serif; font-size: 12px; font-weight: 200;" x="38.29785687582833" y="0" dx="0em" dy="0.95em" fill="rgb(50, 49, 63)" stroke="none" stroke-width="1px">30k</text><text style="text-anchor: middle; visibility: inherit; font-family: Roboto, sans-serif; font-size: 12px; font-weight: 200;" x="57.446785313742495" y="0" dx="0em" dy="0.95em" fill="rgb(50, 49, 63)" stroke="none" stroke-width="1px">35k</text><text style="text-anchor: middle; visibility: hidden; font-family: Roboto, sans-serif; font-size: 12px; font-weight: 200;" x="76.59571375165666" y="0" dx="0em" dy="0.95em" fill="rgb(50, 49, 63)" stroke="none" stroke-width="1px">40k</text><text style="text-anchor: middle; visibility: inherit; font-family: Roboto, sans-serif; font-size: 12px; font-weight: 200;" x="95.74464218957084" y="0" dx="0em" dy="0.95em" fill="rgb(50, 49, 63)" stroke="none" stroke-width="1px">45k</text><text style="text-anchor: middle; visibility: hidden; font-family: Roboto, sans-serif; font-size: 12px; font-weight: 200;" x="114.89357062748499" y="0" dx="0em" dy="0.95em" fill="rgb(50, 49, 63)" stroke="none" stroke-width="1px">50k</text><text style="text-anchor: middle; visibility: inherit; font-family: Roboto, sans-serif; font-size: 12px; font-weight: 200;" x="134.04249906539917" y="0" dx="0em" dy="0.95em" fill="rgb(50, 49, 63)" stroke="none" stroke-width="1px">55k</text><text style="text-anchor: middle; visibility: hidden; font-family: Roboto, sans-serif; font-size: 12px; font-weight: 200;" x="153.19142750331332" y="0" dx="0em" dy="0.95em" fill="rgb(50, 49, 63)" stroke="none" stroke-width="1px">60k</text><text style="text-anchor: middle; visibility: inherit; font-family: Roboto, sans-serif; font-size: 12px; font-weight: 200;" x="172.34035594122753" y="0" dx="0em" dy="0.95em" fill="rgb(50, 49, 63)" stroke="none" stroke-width="1px">65k</text><text style="text-anchor: middle; visibility: hidden; font-family: Roboto, sans-serif; font-size: 12px; font-weight: 200;" x="191.48928437914168" y="0" dx="0em" dy="0.95em" fill="rgb(50, 49, 63)" stroke="none" stroke-width="1px">70k</text><text style="text-anchor: middle; visibility: inherit; font-family: Roboto, sans-serif; font-size: 12px; font-weight: 200;" x="210.63821281705583" y="0" dx="0em" dy="0.95em" fill="rgb(50, 49, 63)" stroke="none" stroke-width="1px">75k</text><text style="text-anchor: middle; visibility: hidden; font-family: Roboto, sans-serif; font-size: 12px; font-weight: 200;" x="229.78714125496998" y="0" dx="0em" dy="0.95em" fill="rgb(50, 49, 63)" stroke="none" stroke-width="1px">80k</text><text style="text-anchor: middle; visibility: inherit; font-family: Roboto, sans-serif; font-size: 12px; font-weight: 200;" x="248.9360696928842" y="0" dx="0em" dy="0.95em" fill="rgb(50, 49, 63)" stroke="none" stroke-width="1px">85k</text><text style="text-anchor: middle; visibility: hidden; font-family: Roboto, sans-serif; font-size: 12px; font-weight: 200;" x="268.08499813079834" y="0" dx="0em" dy="0.95em" fill="rgb(50, 49, 63)" stroke="none" stroke-width="1px">90k</text></g><line x1="0" y1="0" x2="268.08499813079834" y2="0" fill="rgb(0, 0, 0)" stroke="rgb(204, 204, 204)" stroke-width="1px"></line></g></g></g></g></svg>