<svg viewBox="0 0 330 200" xmlns="http://www.w3.org/2000/svg"><g><g><g><g><g><line x1="72.29800224304199" y1="177.89999961853027" x2="67.29800224304199" y2="177.89999961853027" style="visibility: inherit;" fill="rgb(0, 0, 0)" stroke="rgb(204, 204, 204)" stroke-width="1px"></line><line x1="72.29800224304199" y1="164.21538426325873" x2="67.29800224304199" y2="164.21538426325873" style="visibility: inherit;" fill="rgb(0, 0, 0)" stroke="rgb(204, 204, 204)" stroke-width="1px"></line><line x1="72.29800224304199" y1="150.53076890798715" x2="67.29800224304199" y2="150.53076890798715" style="visibility: inherit;" fill="rgb(0, 0, 0)" stroke="rgb(204, 204, 204)" stroke-width="1px"></line><line x1="72.29800224304199" y1="136.8461535527156" x2="67.29800224304199" y2="136.8461535527156" style="visibility: inherit;" fill="rgb(0, 0, 0)" stroke="rgb(204, 204, 204)" stroke-width="1px"></line><line x1="72.29800224304199" y1="123.16153819744403" x2="67.29800224304199" y2="123.16153819744403" style="visibility: inherit;" fill="rgb(0, 0, 0)" stroke="rgb(204, 204, 204)" stroke-width="1px"></line><line x1="72.29800224304199" y1="109.47692284217248" x2="67.29800224304199" y2="109.47692284217248" style="visibility: inherit;" fill="rgb(0, 0, 0)" stroke="rgb(204, 204, 204)" stroke-width="1px"></line><line x1="72.29800224304199" y1="95.79230748690094" x2="67.29800224304199" y2="95.79230748690094" style="visibility: inherit;" fill="rgb(0, 0, 0)" stroke="rgb(204, 204, 204)" stroke-width="1px"></line><line x1="72.29800224304199" y1="82.10769213162936" x2="67.29800224304199" y2="82.10769213162936" style="visibility: inherit;" fill="rgb(0, 0, 0)" stroke="rgb(204, 204, 204)" stroke-width="1px"></line><line x1="72.29800224304199" y1="68.42307677635782" x2="67.29800224304199" y2="68.42307677635782" style="visibility: inherit;" fill="rgb(0, 0, 0)" stroke="rgb(204, 204, 204)" stroke-width="1px"></line><line x1="72.29800224304199" y1="54.73846142108624" x2="67.29800224304199" y2="54.73846142108624" style="visibility: inherit;" fill="rgb(0, 0, 0)" stroke="rgb(204, 204, 204)" stroke-width="1px"></line><line x1="72.29800224304199" y1="41.05384606581467" x2="67.29800224304199" y2="41.05384606581467" style="visibility: inherit;" fill="rgb(0, 0, 0)" stroke="rgb(204, 204, 204)" stroke-width="1px"></line><line x1="72.29800224304199" y1="27.3692307105431" x2="67.29800224304199" y2="27.3692307105431" style="visibility: inherit;" fill="rgb(0, 0, 0)" stroke="rgb(204, 204, 204)" stroke-width="1px"></line><line x1="72.29800224304199" y1="13.68461535527157" x2="67.29800224304199" y2="13.68461535527157" style="visibility: inherit;" fill="rgb(0, 0, 0)" stroke="rgb(204, 204, 204)" stroke-width="1px"></line><line x1="72.29800224304199" y1="0" x2="67.29800224304199" y2="0" style="visibility: inherit;" fill="rgb(0, 0, 0)" stroke="rgb(204, 204, 204)" stroke-width="1px"></line></g><g transform="translate(62.29800224304199, 0)"><text style="text-anchor: end; visibility: hidden; font-family: Roboto, sans-serif; font-size: 12px; font-weight: 200;" x="0" y="177.89999961853027" dx="0em" dy="0.3em" fill="rgb(50, 49, 63)" stroke="none" stroke-width="1px">-1e-6</text><text style="text-anchor: end; visibility: inherit; font-family: Roboto, sans-serif; font-size: 12px; font-weight: 200;" x="0" y="164.21538426325873" dx="0em" dy="0.3em" fill="rgb(50, 49, 63)" stroke="none" stroke-width="1px">0</text><text style="text-anchor: end; visibility: hidden; font-family: Roboto, sans-serif; font-size: 12px; font-weight: 200;" x="0" y="150.53076890798715" dx="0em" dy="0.3em" fill="rgb(50, 49, 63)" stroke="none" stroke-width="1px">1e-6</text><text style="text-anchor: end; visibility: inherit; font-family: Roboto, sans-serif; font-size: 12px; font-weight: 200;" x="0" y="136.8461535527156" dx="0em" dy="0.3em" fill="rgb(50, 49, 63)" stroke="none" stroke-width="1px">2e-6</text><text style="text-anchor: end; visibility: hidden; font-family: Roboto, sans-serif; font-size: 12px; font-weight: 200;" x="0" y="123.16153819744403" dx="0em" dy="0.3em" fill="rgb(50, 49, 63)" stroke="none" stroke-width="1px">3e-6</text><text style="text-anchor: end; visibility: inherit; font-family: Roboto, sans-serif; font-size: 12px; font-weight: 200;" x="0" y="109.47692284217248" dx="0em" dy="0.3em" fill="rgb(50, 49, 63)" stroke="none" stroke-width="1px">4e-6</text><text style="text-anchor: end; visibility: hidden; font-family: Roboto, sans-serif; font-size: 12px; font-weight: 200;" x="0" y="95.79230748690094" dx="0em" dy="0.3em" fill="rgb(50, 49, 63)" stroke="none" stroke-width="1px">5e-6</text><text style="text-anchor: end; visibility: inherit; font-family: Roboto, sans-serif; font-size: 12px; font-weight: 200;" x="0" y="82.10769213162936" dx="0em" dy="0.3em" fill="rgb(50, 49, 63)" stroke="none" stroke-width="1px">6e-6</text><text style="text-anchor: end; visibility: hidden; font-family: Roboto, sans-serif; font-size: 12px; font-weight: 200;" x="0" y="68.42307677635782" dx="0em" dy="0.3em" fill="rgb(50, 49, 63)" stroke="none" stroke-width="1px">7e-6</text><text style="text-anchor: end; visibility: inherit; font-family: Roboto, sans-serif; font-size: 12px; font-weight: 200;" x="0" y="54.73846142108624" dx="0em" dy="0.3em" fill="rgb(50, 49, 63)" stroke="none" stroke-width="1px">8e-6</text><text style="text-anchor: end; visibility: hidden; font-family: Roboto, sans-serif; font-size: 12px; font-weight: 200;" x="0" y="41.05384606581467" dx="0em" dy="0.3em" fill="rgb(50, 49, 63)" stroke="none" stroke-width="1px">9e-6</text><text style="text-anchor: end; visibility: inherit; font-family: Roboto, sans-serif; font-size: 12px; font-weight: 200;" x="0" y="27.3692307105431" dx="0em" dy="0.3em" fill="rgb(50, 49, 63)" stroke="none" stroke-width="1px">1e-5</text><text style="text-anchor: end; visibility: hidden; font-family: Roboto, sans-serif; font-size: 12px; font-weight: 200;" x="0" y="13.68461535527157" dx="0em" dy="0.3em" fill="rgb(50, 49, 63)" stroke="none" stroke-width="1px">1.1e-5</text><text style="text-anchor: end; visibility: hidden; font-family: Roboto, sans-serif; font-size: 12px; font-weight: 200;" x="0" y="0" dx="0em" dy="0.3em" fill="rgb(50, 49, 63)" stroke="none" stroke-width="1px">1.2e-5</text></g><line x1="72.29800224304199" y1="0" x2="72.29800224304199" y2="177.89999961853027" fill="rgb(0, 0, 0)" stroke="rgb(204, 204, 204)" stroke-width="1px"></line></g></g><g transform="translate(72, 0)" clip-path="url(#clip_0)"><clipPath id="clip_0"><rect width="257" height="177"></rect></clipPath><g><g><g><line x1="0" y1="0" x2="0" y2="177.89999961853027" fill="rgb(0, 0, 0)" stroke="rgb(60, 60, 60)" stroke-width="1px" opacity="0.25"></line><line x1="25.7701997756958" y1="0" x2="25.7701997756958" y2="177.89999961853027" fill="rgb(0, 0, 0)" stroke="rgb(60, 60, 60)" stroke-width="1px" opacity="0.25"></line><line x1="51.5403995513916" y1="0" x2="51.5403995513916" y2="177.89999961853027" fill="rgb(0, 0, 0)" stroke="rgb(60, 60, 60)" stroke-width="1px" opacity="0.25"></line><line x1="77.3105993270874" y1="0" x2="77.3105993270874" y2="177.89999961853027" fill="rgb(0, 0, 0)" stroke="rgb(60, 60, 60)" stroke-width="1px" opacity="0.25"></line><line x1="103.0807991027832" y1="0" x2="103.0807991027832" y2="177.89999961853027" fill="rgb(0, 0, 0)" stroke="rgb(60, 60, 60)" stroke-width="1px" opacity="0.25"></line><line x1="128.850998878479" y1="0" x2="128.850998878479" y2="177.89999961853027" fill="rgb(0, 0, 0)" stroke="rgb(60, 60, 60)" stroke-width="1px" opacity="0.25"></line><line x1="154.6211986541748" y1="0" x2="154.6211986541748" y2="177.89999961853027" fill="rgb(0, 0, 0)" stroke="rgb(60, 60, 60)" stroke-width="1px" opacity="0.25"></line><line x1="180.3913984298706" y1="0" x2="180.3913984298706" y2="177.89999961853027" fill="rgb(0, 0, 0)" stroke="rgb(60, 60, 60)" stroke-width="1px" opacity="0.25"></line><line x1="206.1615982055664" y1="0" x2="206.1615982055664" y2="177.89999961853027" fill="rgb(0, 0, 0)" stroke="rgb(60, 60, 60)" stroke-width="1px" opacity="0.25"></line><line x1="231.9317979812622" y1="0" x2="231.9317979812622" y2="177.89999961853027" fill="rgb(0, 0, 0)" stroke="rgb(60, 60, 60)" stroke-width="1px" opacity="0.25"></line><line x1="257.701997756958" y1="0" x2="257.701997756958" y2="177.89999961853027" fill="rgb(0, 0, 0)" stroke="rgb(60, 60, 60)" stroke-width="1px" opacity="0.25"></line></g><g><line x1="0" y1="177.89999961853027" x2="257.701997756958" y2="177.89999961853027" fill="rgb(0, 0, 0)" stroke="rgb(60, 60, 60)" stroke-width="1px" opacity="0.25"></line><line x1="0" y1="164.21538426325873" x2="257.701997756958" y2="164.21538426325873" fill="rgb(0, 0, 0)" stroke="rgb(60, 60, 60)" stroke-width="1px" opacity="0.25"></line><line x1="0" y1="150.53076890798715" x2="257.701997756958" y2="150.53076890798715" fill="rgb(0, 0, 0)" stroke="rgb(60, 60, 60)" stroke-width="1px" opacity="0.25"></line><line x1="0" y1="136.8461535527156" x2="257.701997756958" y2="136.8461535527156" fill="rgb(0, 0, 0)" stroke="rgb(60, 60, 60)" stroke-width="1px" opacity="0.25"></line><line x1="0" y1="123.16153819744403" x2="257.701997756958" y2="123.16153819744403" fill="rgb(0, 0, 0)" stroke="rgb(60, 60, 60)" stroke-width="1px" opacity="0.25"></line><line x1="0" y1="109.47692284217248" x2="257.701997756958" y2="109.47692284217248" fill="rgb(0, 0, 0)" stroke="rgb(60, 60, 60)" stroke-width="1px" opacity="0.25"></line><line x1="0" y1="95.79230748690094" x2="257.701997756958" y2="95.79230748690094" fill="rgb(0, 0, 0)" stroke="rgb(60, 60, 60)" stroke-width="1px" opacity="0.25"></line><line x1="0" y1="82.10769213162936" x2="257.701997756958" y2="82.10769213162936" fill="rgb(0, 0, 0)" stroke="rgb(60, 60, 60)" stroke-width="1px" opacity="0.25"></line><line x1="0" y1="68.42307677635782" x2="257.701997756958" y2="68.42307677635782" fill="rgb(0, 0, 0)" stroke="rgb(60, 60, 60)" stroke-width="1px" opacity="0.25"></line><line x1="0" y1="54.73846142108624" x2="257.701997756958" y2="54.73846142108624" fill="rgb(0, 0, 0)" stroke="rgb(60, 60, 60)" stroke-width="1px" opacity="0.25"></line><line x1="0" y1="41.05384606581467" x2="257.701997756958" y2="41.05384606581467" fill="rgb(0, 0, 0)" stroke="rgb(60, 60, 60)" stroke-width="1px" opacity="0.25"></line><line x1="0" y1="27.3692307105431" x2="257.701997756958" y2="27.3692307105431" fill="rgb(0, 0, 0)" stroke="rgb(60, 60, 60)" stroke-width="1px" opacity="0.25"></line><line x1="0" y1="13.68461535527157" x2="257.701997756958" y2="13.68461535527157" fill="rgb(0, 0, 0)" stroke="rgb(60, 60, 60)" stroke-width="1px" opacity="0.25"></line><line x1="0" y1="0" x2="257.701997756958" y2="0" fill="rgb(0, 0, 0)" stroke="rgb(60, 60, 60)" stroke-width="1px" opacity="0.25"></line></g></g></g><g><g><line x1="0" y1="164.21538426325873" x2="257.701997756958" y2="164.21538426325873" fill="rgb(0, 0, 0)" stroke="rgb(153, 153, 153)" stroke-width="1.5px"></line></g></g><g><g><line x1="-438.0933961868286" y1="0" x2="-438.0933961868286" y2="177.89999961853027" fill="rgb(0, 0, 0)" stroke="rgb(153, 153, 153)" stroke-width="1.5px"></line></g></g><g><g><g><g><g><path style="fill: none;" stroke="rgb(204, 51, 17)" stroke-width="2px" d="M19.09571803379059,164.21538426325873L22.244836446380614,147.7268184202128L25.368184659194945,147.16598337649037L28.49153287200928,148.6425083925324L31.614881084823608,149.44759682101716L34.73822929763794,150.73360669455664L37.86157751045227,152.15369533573784L40.9849257232666,152.9905417383165L44.108273936080934,153.89989293546597L47.23162214889526,154.80076166420378L50.35497036170959,155.63256019593783L53.478318574523925,156.23984928788363L56.60166678733826,156.4182998653588L59.72501500015259,156.7375560503445L62.84836321296692,156.42146546750953L65.97171142578125,156.11061108029602L69.12082983837128,155.29621299469986L72.2441780511856,154.59795348070475L75.36752626399993,154.0260285110809L78.4960285167694,153.90384712790438L81.61937672958373,153.79720980978357L84.74272494239807,153.92556111274192L87.8660731552124,154.09202060031487L91.01519156780243,154.3564574358282L94.13853978061677,154.37887914357248L97.26704203338623,154.5431459547134L100.41616044597626,154.7813479689761L103.5395086587906,155.05262557659597L106.66285687160492,155.33616204410833L109.78620508441925,155.44443924691504L112.90955329723357,155.62048345540535L116.0586717098236,155.8302454349317L119.18201992263793,155.8368261714273L122.33113833522798,155.54514616648765L125.4544865480423,155.42479421934192L128.57783476085663,155.39669042288494L131.70118297367094,155.4137704865543L134.85030138626098,155.16551053455652L137.97364959907532,155.11319312585536L141.09699781188965,155.17360936111243L144.22034602470399,155.29718736997228L147.36946443729403,155.4545038947474L150.51858284988404,155.31783597230114L153.64193106269835,155.27357423829164L156.76527927551268,155.3270900202415L159.88862748832702,155.35031609612338L163.01197570114135,155.41132314688596L166.1610941137314,155.52053192628495L169.28444232654573,155.62248501827796L172.40779053936004,155.75117688547414L175.55690895195005,155.68840310717678L178.68025716476438,155.71705531576436L181.80360537757875,155.67550889775808L184.92695359039308,97.03439226779358L188.05030180320742,62.95467577361762L191.17365001602175,43.5952759382286L194.29699822883606,33.023354781768674L197.4203464416504,27.655208485703728L200.54369465446473,25.38688432511161L203.66704286727906,24.887811096789214L206.7955451200485,25.480338255842305L209.94466353263854,26.72518209883233L213.06801174545288,28.312308678571576L216.1913599582672,30.058112167268817L219.31470817108155,31.889827064942274L222.43805638389588,33.725758835349666L225.5614045967102,35.589919406038675L228.68990684947968,37.44858941143577L231.81325506229402,39.22078042287287L234.93660327510835,40.91756591541294L238.08572168769837,42.61593524742617" fill="none"></path></g></g></g></g><g opacity="0.2"><g><g><g><path style="fill: none;" stroke="rgb(204, 51, 17)" stroke-width="2px" d="M19.09571803379059,164.21538426325873L22.244836446380614,137.83367891438527L25.368184659194945,146.62758173451684L28.49153287200928,150.37890181139784L31.614881084823608,150.49872027324682L34.73822929763794,152.5126213132162L37.86157751045227,154.1844448140452L40.9849257232666,154.21067182700162L44.108273936080934,155.24100931888492L47.23162214889526,156.13844673553427L50.35497036170959,156.87271364207643L53.478318574523925,157.1474780853819L56.60166678733826,156.68539305947417L59.72501500015259,157.2158148717213L62.84836321296692,155.94770114587166L65.97171142578125,155.64454873807364L69.12082983837128,154.0749604922818L72.2441780511856,153.550741497727L75.36752626399993,153.16822818365785L78.4960285167694,153.720586221002L81.61937672958373,153.6372596808463L84.74272494239807,154.11808384372517L87.8660731552124,154.341706545222L91.01519156780243,154.7531095565918L94.13853978061677,154.412511545825L97.26704203338623,154.78954547090183L100.41616044597626,155.13865038087644L103.5395086587906,155.45954157155074L106.66285687160492,155.7614664841997L109.78620508441925,155.60685499128198L112.90955329723357,155.8845497097626L116.0586717098236,156.14488836248563L119.18201992263793,155.8466972753851L122.33113833522798,155.10762617997065L125.4544865480423,155.2442663037956L128.57783476085663,155.3545347289242L131.70118297367094,155.4393905817941L134.85030138626098,154.79312060886446L137.97364959907532,155.03471701309505L141.09699781188965,155.26423371379613L144.22034602470399,155.48255438301422L147.36946443729403,155.69047868172092L150.51858284988404,155.11283408873038L153.64193106269835,155.20718163729651L156.76527927551268,155.40736369315246L159.88862748832702,155.38515520994258L163.01197570114135,155.5028337230241L166.1610941137314,155.6843450953773L169.28444232654573,155.77541465626405L172.40779053936004,155.9442146862658L175.55690895195005,155.59424243973152L178.68025716476438,155.76003362864552L181.80360537757875,155.61318927074882L184.92695359039308,9.072717323000415L188.05030180320742,11.83510103240725L191.17365001602175,14.556176185163327L194.29699822883606,17.165473047084703L197.4203464416504,19.60298904160815L200.54369465446473,21.98439808422391L203.66704286727906,24.13920125430571L206.7955451200485,26.369128994421835L209.94466353263854,28.59244786331724L213.06801174545288,30.692998548180405L216.1913599582672,32.67681740031462L219.31470817108155,34.637399411452456L222.43805638389588,36.47965649096067L225.5614045967102,38.38616026207215L228.68990684947968,40.23659441953142L231.81325506229402,41.879066940028515L234.93660327510835,43.462744154223074L238.08572168769837,45.16348924544595" fill="none"></path></g></g></g></g></g></g><g transform="translate(72, 177)" clip-path="url(#clip_1)"><clipPath id="clip_1"><rect width="257" height="22"></rect></clipPath><g><g><line x1="0" y1="0" x2="0" y2="5" style="visibility: inherit;" fill="rgb(0, 0, 0)" stroke="rgb(204, 204, 204)" stroke-width="1px"></line><line x1="25.7701997756958" y1="0" x2="25.7701997756958" y2="5" style="visibility: inherit;" fill="rgb(0, 0, 0)" stroke="rgb(204, 204, 204)" stroke-width="1px"></line><line x1="51.5403995513916" y1="0" x2="51.5403995513916" y2="5" style="visibility: inherit;" fill="rgb(0, 0, 0)" stroke="rgb(204, 204, 204)" stroke-width="1px"></line><line x1="77.3105993270874" y1="0" x2="77.3105993270874" y2="5" style="visibility: inherit;" fill="rgb(0, 0, 0)" stroke="rgb(204, 204, 204)" stroke-width="1px"></line><line x1="103.0807991027832" y1="0" x2="103.0807991027832" y2="5" style="visibility: inherit;" fill="rgb(0, 0, 0)" stroke="rgb(204, 204, 204)" stroke-width="1px"></line><line x1="128.850998878479" y1="0" x2="128.850998878479" y2="5" style="visibility: inherit;" fill="rgb(0, 0, 0)" stroke="rgb(204, 204, 204)" stroke-width="1px"></line><line x1="154.6211986541748" y1="0" x2="154.6211986541748" y2="5" style="visibility: inherit;" fill="rgb(0, 0, 0)" stroke="rgb(204, 204, 204)" stroke-width="1px"></line><line x1="180.3913984298706" y1="0" x2="180.3913984298706" y2="5" style="visibility: inherit;" fill="rgb(0, 0, 0)" stroke="rgb(204, 204, 204)" stroke-width="1px"></line><line x1="206.1615982055664" y1="0" x2="206.1615982055664" y2="5" style="visibility: inherit;" fill="rgb(0, 0, 0)" stroke="rgb(204, 204, 204)" stroke-width="1px"></line><line x1="231.9317979812622" y1="0" x2="231.9317979812622" y2="5" style="visibility: inherit;" fill="rgb(0, 0, 0)" stroke="rgb(204, 204, 204)" stroke-width="1px"></line><line x1="257.701997756958" y1="0" x2="257.701997756958" y2="5" style="visibility: inherit;" fill="rgb(0, 0, 0)" stroke="rgb(204, 204, 204)" stroke-width="1px"></line></g><g transform="translate(0, 8)"><text style="text-anchor: middle; visibility: hidden; font-family: Roboto, sans-serif; font-size: 12px; font-weight: 200;" x="0" y="0" dx="0em" dy="0.95em" fill="rgb(50, 49, 63)" stroke="none" stroke-width="1px">85k</text><text style="text-anchor: middle; visibility: inherit; font-family: Roboto, sans-serif; font-size: 12px; font-weight: 200;" x="25.7701997756958" y="0" dx="0em" dy="0.95em" fill="rgb(50, 49, 63)" stroke="none" stroke-width="1px">90k</text><text style="text-anchor: middle; visibility: hidden; font-family: Roboto, sans-serif; font-size: 12px; font-weight: 200;" x="51.5403995513916" y="0" dx="0em" dy="0.95em" fill="rgb(50, 49, 63)" stroke="none" stroke-width="1px">95k</text><text style="text-anchor: middle; visibility: inherit; font-family: Roboto, sans-serif; font-size: 12px; font-weight: 200;" x="77.3105993270874" y="0" dx="0em" dy="0.95em" fill="rgb(50, 49, 63)" stroke="none" stroke-width="1px">100k</text><text style="text-anchor: middle; visibility: hidden; font-family: Roboto, sans-serif; font-size: 12px; font-weight: 200;" x="103.0807991027832" y="0" dx="0em" dy="0.95em" fill="rgb(50, 49, 63)" stroke="none" stroke-width="1px">105k</text><text style="text-anchor: middle; visibility: inherit; font-family: Roboto, sans-serif; font-size: 12px; font-weight: 200;" x="128.850998878479" y="0" dx="0em" dy="0.95em" fill="rgb(50, 49, 63)" stroke="none" stroke-width="1px">110k</text><text style="text-anchor: middle; visibility: hidden; font-family: Roboto, sans-serif; font-size: 12px; font-weight: 200;" x="154.6211986541748" y="0" dx="0em" dy="0.95em" fill="rgb(50, 49, 63)" stroke="none" stroke-width="1px">115k</text><text style="text-anchor: middle; visibility: inherit; font-family: Roboto, sans-serif; font-size: 12px; font-weight: 200;" x="180.3913984298706" y="0" dx="0em" dy="0.95em" fill="rgb(50, 49, 63)" stroke="none" stroke-width="1px">120k</text><text style="text-anchor: middle; visibility: hidden; font-family: Roboto, sans-serif; font-size: 12px; font-weight: 200;" x="206.1615982055664" y="0" dx="0em" dy="0.95em" fill="rgb(50, 49, 63)" stroke="none" stroke-width="1px">125k</text><text style="text-anchor: middle; visibility: inherit; font-family: Roboto, sans-serif; font-size: 12px; font-weight: 200;" x="231.9317979812622" y="0" dx="0em" dy="0.95em" fill="rgb(50, 49, 63)" stroke="none" stroke-width="1px">130k</text><text style="text-anchor: middle; visibility: hidden; font-family: Roboto, sans-serif; font-size: 12px; font-weight: 200;" x="257.701997756958" y="0" dx="0em" dy="0.95em" fill="rgb(50, 49, 63)" stroke="none" stroke-width="1px">135k</text></g><line x1="0" y1="0" x2="257.701997756958" y2="0" fill="rgb(0, 0, 0)" stroke="rgb(204, 204, 204)" stroke-width="1px"></line></g></g></g></g></svg>