<svg viewBox="0 0 330 200" xmlns="http://www.w3.org/2000/svg"><g><g><g><g><g><line x1="41.149001121520996" y1="177.89999961853027" x2="36.149001121520996" y2="177.89999961853027" style="visibility: inherit;" fill="rgb(0, 0, 0)" stroke="rgb(204, 204, 204)" stroke-width="1px"></line><line x1="41.149001121520996" y1="164.2153842632587" x2="36.149001121520996" y2="164.2153842632587" style="visibility: inherit;" fill="rgb(0, 0, 0)" stroke="rgb(204, 204, 204)" stroke-width="1px"></line><line x1="41.149001121520996" y1="150.53076890798715" x2="36.149001121520996" y2="150.53076890798715" style="visibility: inherit;" fill="rgb(0, 0, 0)" stroke="rgb(204, 204, 204)" stroke-width="1px"></line><line x1="41.149001121520996" y1="136.84615355271558" x2="36.149001121520996" y2="136.84615355271558" style="visibility: inherit;" fill="rgb(0, 0, 0)" stroke="rgb(204, 204, 204)" stroke-width="1px"></line><line x1="41.149001121520996" y1="123.16153819744403" x2="36.149001121520996" y2="123.16153819744403" style="visibility: inherit;" fill="rgb(0, 0, 0)" stroke="rgb(204, 204, 204)" stroke-width="1px"></line><line x1="41.149001121520996" y1="109.47692284217246" x2="36.149001121520996" y2="109.47692284217246" style="visibility: inherit;" fill="rgb(0, 0, 0)" stroke="rgb(204, 204, 204)" stroke-width="1px"></line><line x1="41.149001121520996" y1="95.7923074869009" x2="36.149001121520996" y2="95.7923074869009" style="visibility: inherit;" fill="rgb(0, 0, 0)" stroke="rgb(204, 204, 204)" stroke-width="1px"></line><line x1="41.149001121520996" y1="82.10769213162932" x2="36.149001121520996" y2="82.10769213162932" style="visibility: inherit;" fill="rgb(0, 0, 0)" stroke="rgb(204, 204, 204)" stroke-width="1px"></line><line x1="41.149001121520996" y1="68.42307677635782" x2="36.149001121520996" y2="68.42307677635782" style="visibility: inherit;" fill="rgb(0, 0, 0)" stroke="rgb(204, 204, 204)" stroke-width="1px"></line><line x1="41.149001121520996" y1="54.73846142108624" x2="36.149001121520996" y2="54.73846142108624" style="visibility: inherit;" fill="rgb(0, 0, 0)" stroke="rgb(204, 204, 204)" stroke-width="1px"></line><line x1="41.149001121520996" y1="41.05384606581465" x2="36.149001121520996" y2="41.05384606581465" style="visibility: inherit;" fill="rgb(0, 0, 0)" stroke="rgb(204, 204, 204)" stroke-width="1px"></line><line x1="41.149001121520996" y1="27.369230710543082" x2="36.149001121520996" y2="27.369230710543082" style="visibility: inherit;" fill="rgb(0, 0, 0)" stroke="rgb(204, 204, 204)" stroke-width="1px"></line><line x1="41.149001121520996" y1="13.68461535527151" x2="36.149001121520996" y2="13.68461535527151" style="visibility: inherit;" fill="rgb(0, 0, 0)" stroke="rgb(204, 204, 204)" stroke-width="1px"></line><line x1="41.149001121520996" y1="0" x2="36.149001121520996" y2="0" style="visibility: inherit;" fill="rgb(0, 0, 0)" stroke="rgb(204, 204, 204)" stroke-width="1px"></line></g><g transform="translate(31.149001121520996, 0)"><text style="text-anchor: end; visibility: hidden; font-family: Roboto, sans-serif; font-size: 12px; font-weight: 200;" x="0" y="177.89999961853027" dx="0em" dy="0.3em" fill="rgb(50, 49, 63)" stroke="none" stroke-width="1px">3</text><text style="text-anchor: end; visibility: inherit; font-family: Roboto, sans-serif; font-size: 12px; font-weight: 200;" x="0" y="164.2153842632587" dx="0em" dy="0.3em" fill="rgb(50, 49, 63)" stroke="none" stroke-width="1px">3.2</text><text style="text-anchor: end; visibility: hidden; font-family: Roboto, sans-serif; font-size: 12px; font-weight: 200;" x="0" y="150.53076890798715" dx="0em" dy="0.3em" fill="rgb(50, 49, 63)" stroke="none" stroke-width="1px">3.4</text><text style="text-anchor: end; visibility: inherit; font-family: Roboto, sans-serif; font-size: 12px; font-weight: 200;" x="0" y="136.84615355271558" dx="0em" dy="0.3em" fill="rgb(50, 49, 63)" stroke="none" stroke-width="1px">3.6</text><text style="text-anchor: end; visibility: hidden; font-family: Roboto, sans-serif; font-size: 12px; font-weight: 200;" x="0" y="123.16153819744403" dx="0em" dy="0.3em" fill="rgb(50, 49, 63)" stroke="none" stroke-width="1px">3.8</text><text style="text-anchor: end; visibility: inherit; font-family: Roboto, sans-serif; font-size: 12px; font-weight: 200;" x="0" y="109.47692284217246" dx="0em" dy="0.3em" fill="rgb(50, 49, 63)" stroke="none" stroke-width="1px">4</text><text style="text-anchor: end; visibility: hidden; font-family: Roboto, sans-serif; font-size: 12px; font-weight: 200;" x="0" y="95.7923074869009" dx="0em" dy="0.3em" fill="rgb(50, 49, 63)" stroke="none" stroke-width="1px">4.2</text><text style="text-anchor: end; visibility: inherit; font-family: Roboto, sans-serif; font-size: 12px; font-weight: 200;" x="0" y="82.10769213162932" dx="0em" dy="0.3em" fill="rgb(50, 49, 63)" stroke="none" stroke-width="1px">4.4</text><text style="text-anchor: end; visibility: hidden; font-family: Roboto, sans-serif; font-size: 12px; font-weight: 200;" x="0" y="68.42307677635782" dx="0em" dy="0.3em" fill="rgb(50, 49, 63)" stroke="none" stroke-width="1px">4.6</text><text style="text-anchor: end; visibility: inherit; font-family: Roboto, sans-serif; font-size: 12px; font-weight: 200;" x="0" y="54.73846142108624" dx="0em" dy="0.3em" fill="rgb(50, 49, 63)" stroke="none" stroke-width="1px">4.8</text><text style="text-anchor: end; visibility: hidden; font-family: Roboto, sans-serif; font-size: 12px; font-weight: 200;" x="0" y="41.05384606581465" dx="0em" dy="0.3em" fill="rgb(50, 49, 63)" stroke="none" stroke-width="1px">5</text><text style="text-anchor: end; visibility: inherit; font-family: Roboto, sans-serif; font-size: 12px; font-weight: 200;" x="0" y="27.369230710543082" dx="0em" dy="0.3em" fill="rgb(50, 49, 63)" stroke="none" stroke-width="1px">5.2</text><text style="text-anchor: end; visibility: hidden; font-family: Roboto, sans-serif; font-size: 12px; font-weight: 200;" x="0" y="13.68461535527151" dx="0em" dy="0.3em" fill="rgb(50, 49, 63)" stroke="none" stroke-width="1px">5.4</text><text style="text-anchor: end; visibility: hidden; font-family: Roboto, sans-serif; font-size: 12px; font-weight: 200;" x="0" y="0" dx="0em" dy="0.3em" fill="rgb(50, 49, 63)" stroke="none" stroke-width="1px">5.6</text></g><line x1="41.149001121520996" y1="0" x2="41.149001121520996" y2="177.89999961853027" fill="rgb(0, 0, 0)" stroke="rgb(204, 204, 204)" stroke-width="1px"></line></g></g><g transform="translate(41, 0)" clip-path="url(#clip_0)"><clipPath id="clip_0"><rect width="288" height="177"></rect></clipPath><g><g><g><line x1="0" y1="0" x2="0" y2="177.89999961853027" fill="rgb(0, 0, 0)" stroke="rgb(60, 60, 60)" stroke-width="1px" opacity="0.25"></line><line x1="20.632214205605642" y1="0" x2="20.632214205605642" y2="177.89999961853027" fill="rgb(0, 0, 0)" stroke="rgb(60, 60, 60)" stroke-width="1px" opacity="0.25"></line><line x1="41.264428411211284" y1="0" x2="41.264428411211284" y2="177.89999961853027" fill="rgb(0, 0, 0)" stroke="rgb(60, 60, 60)" stroke-width="1px" opacity="0.25"></line><line x1="61.896642616816926" y1="0" x2="61.896642616816926" y2="177.89999961853027" fill="rgb(0, 0, 0)" stroke="rgb(60, 60, 60)" stroke-width="1px" opacity="0.25"></line><line x1="82.52885682242257" y1="0" x2="82.52885682242257" y2="177.89999961853027" fill="rgb(0, 0, 0)" stroke="rgb(60, 60, 60)" stroke-width="1px" opacity="0.25"></line><line x1="103.16107102802822" y1="0" x2="103.16107102802822" y2="177.89999961853027" fill="rgb(0, 0, 0)" stroke="rgb(60, 60, 60)" stroke-width="1px" opacity="0.25"></line><line x1="123.79328523363385" y1="0" x2="123.79328523363385" y2="177.89999961853027" fill="rgb(0, 0, 0)" stroke="rgb(60, 60, 60)" stroke-width="1px" opacity="0.25"></line><line x1="144.4254994392395" y1="0" x2="144.4254994392395" y2="177.89999961853027" fill="rgb(0, 0, 0)" stroke="rgb(60, 60, 60)" stroke-width="1px" opacity="0.25"></line><line x1="165.05771364484514" y1="0" x2="165.05771364484514" y2="177.89999961853027" fill="rgb(0, 0, 0)" stroke="rgb(60, 60, 60)" stroke-width="1px" opacity="0.25"></line><line x1="185.6899278504508" y1="0" x2="185.6899278504508" y2="177.89999961853027" fill="rgb(0, 0, 0)" stroke="rgb(60, 60, 60)" stroke-width="1px" opacity="0.25"></line><line x1="206.32214205605644" y1="0" x2="206.32214205605644" y2="177.89999961853027" fill="rgb(0, 0, 0)" stroke="rgb(60, 60, 60)" stroke-width="1px" opacity="0.25"></line><line x1="226.95435626166207" y1="0" x2="226.95435626166207" y2="177.89999961853027" fill="rgb(0, 0, 0)" stroke="rgb(60, 60, 60)" stroke-width="1px" opacity="0.25"></line><line x1="247.5865704672677" y1="0" x2="247.5865704672677" y2="177.89999961853027" fill="rgb(0, 0, 0)" stroke="rgb(60, 60, 60)" stroke-width="1px" opacity="0.25"></line><line x1="268.21878467287337" y1="0" x2="268.21878467287337" y2="177.89999961853027" fill="rgb(0, 0, 0)" stroke="rgb(60, 60, 60)" stroke-width="1px" opacity="0.25"></line><line x1="288.850998878479" y1="0" x2="288.850998878479" y2="177.89999961853027" fill="rgb(0, 0, 0)" stroke="rgb(60, 60, 60)" stroke-width="1px" opacity="0.25"></line></g><g><line x1="0" y1="177.89999961853027" x2="288.850998878479" y2="177.89999961853027" fill="rgb(0, 0, 0)" stroke="rgb(60, 60, 60)" stroke-width="1px" opacity="0.25"></line><line x1="0" y1="164.2153842632587" x2="288.850998878479" y2="164.2153842632587" fill="rgb(0, 0, 0)" stroke="rgb(60, 60, 60)" stroke-width="1px" opacity="0.25"></line><line x1="0" y1="150.53076890798715" x2="288.850998878479" y2="150.53076890798715" fill="rgb(0, 0, 0)" stroke="rgb(60, 60, 60)" stroke-width="1px" opacity="0.25"></line><line x1="0" y1="136.84615355271558" x2="288.850998878479" y2="136.84615355271558" fill="rgb(0, 0, 0)" stroke="rgb(60, 60, 60)" stroke-width="1px" opacity="0.25"></line><line x1="0" y1="123.16153819744403" x2="288.850998878479" y2="123.16153819744403" fill="rgb(0, 0, 0)" stroke="rgb(60, 60, 60)" stroke-width="1px" opacity="0.25"></line><line x1="0" y1="109.47692284217246" x2="288.850998878479" y2="109.47692284217246" fill="rgb(0, 0, 0)" stroke="rgb(60, 60, 60)" stroke-width="1px" opacity="0.25"></line><line x1="0" y1="95.7923074869009" x2="288.850998878479" y2="95.7923074869009" fill="rgb(0, 0, 0)" stroke="rgb(60, 60, 60)" stroke-width="1px" opacity="0.25"></line><line x1="0" y1="82.10769213162932" x2="288.850998878479" y2="82.10769213162932" fill="rgb(0, 0, 0)" stroke="rgb(60, 60, 60)" stroke-width="1px" opacity="0.25"></line><line x1="0" y1="68.42307677635782" x2="288.850998878479" y2="68.42307677635782" fill="rgb(0, 0, 0)" stroke="rgb(60, 60, 60)" stroke-width="1px" opacity="0.25"></line><line x1="0" y1="54.73846142108624" x2="288.850998878479" y2="54.73846142108624" fill="rgb(0, 0, 0)" stroke="rgb(60, 60, 60)" stroke-width="1px" opacity="0.25"></line><line x1="0" y1="41.05384606581465" x2="288.850998878479" y2="41.05384606581465" fill="rgb(0, 0, 0)" stroke="rgb(60, 60, 60)" stroke-width="1px" opacity="0.25"></line><line x1="0" y1="27.369230710543082" x2="288.850998878479" y2="27.369230710543082" fill="rgb(0, 0, 0)" stroke="rgb(60, 60, 60)" stroke-width="1px" opacity="0.25"></line><line x1="0" y1="13.68461535527151" x2="288.850998878479" y2="13.68461535527151" fill="rgb(0, 0, 0)" stroke="rgb(60, 60, 60)" stroke-width="1px" opacity="0.25"></line><line x1="0" y1="0" x2="288.850998878479" y2="0" fill="rgb(0, 0, 0)" stroke="rgb(60, 60, 60)" stroke-width="1px" opacity="0.25"></line></g></g></g><g><g><line x1="0" y1="383.16922994760375" x2="288.850998878479" y2="383.16922994760375" fill="rgb(0, 0, 0)" stroke="rgb(153, 153, 153)" stroke-width="1.5px"></line></g></g><g><g><line x1="-82.52885682242257" y1="0" x2="-82.52885682242257" y2="177.89999961853027" fill="rgb(0, 0, 0)" stroke="rgb(153, 153, 153)" stroke-width="1.5px"></line></g></g><g><g><g><g><g><path style="fill: none;" stroke="rgb(255, 112, 67)" stroke-width="2px" d="M27.37894825083869,196.73641051577002L27.816351191997526,177.78182149764666L29.90845771244594,166.4103001792846L30.841033794539317,159.58783088270778L31.86026517629623,155.49450895004748L32.54112824508122,153.03857326000852L33.560359626838135,151.56503253443265L33.99776256799698,150.68091554680018L34.435165509155816,150.1504480353697L34.87256845031466,149.83216849371914L35.58644306182862,149.64120111620224L36.22191525936127,149.5266208147823L37.22051442691258,149.4578726789627L38.111826080594746,149.4166238136826L38.54922902175358,149.39187450035072L38.986631962912426,149.37702491445268L39.71701234579086,149.36811516367013L40.368990314688,149.36276931347294L40.80639325584684,149.35956180345264L41.540900081566406,149.35763729747575L42.32079777853829,149.35648259390229L43.07593681846346,149.35578977176283L43.5133397596223,149.3553740784808L44.396398527622225,149.35512466251217L44.83380146878106,149.3549750129312L45.271204409939905,149.3548852231827L46.50501081943512,149.35483134933364L47.52836864403316,149.3547990250242L48.254622584070475,149.35477963043857L48.69202552522932,149.3547679936872L49.129428466388156,149.35476101163633L49.566831407547,149.35475682240582L50.02486656291144,149.3547543088675L50.46226950407028,149.3547528007445L50.89967244522912,149.35475189587075L51.7744783275468,149.3547513529465L52.7524452808925,149.35475102719187L53.189848222051346,149.3547508317392L53.82119397674288,149.35475071446754L54.45253973143441,149.35475064410454L54.88994267259326,149.35475060188676L55.54604708433151,149.35475057655609L57.60926850489208,149.3547505613577L58.25712003094809,149.35475055223864L58.71515518631254,149.35475054676715L59.15255812747138,149.35475054348436L59.78803032500403,149.35475054151462L60.22543326616287,149.35475054033282L61.10849203416279,149.3547505396237L61.54589497532164,149.35475053919822L61.983297916480474,149.35475053894297L63.534840424742015,149.35475053878983L63.97224336590086,149.3547505386979L64.41377274990082,149.35475053864272L65.0574978331157,149.35475053860964L65.49490077427456,149.3547505385898L66.1468787431717,149.3547505385779L66.82361536911556,149.35475053857076L67.45083468096597,149.3547505385665L68.75066417591913,149.35475053856393L69.53468831573214,149.35475053856234L69.97209125689098,149.35475053856143L70.40949419804981,149.3547505385609L70.84689713920866,149.35475053856055L71.60203617913382,149.35475053856035L72.23338193382536,149.35475053856024L72.67078487498421,149.35475053856015L73.10818781614303,149.3547505385601L73.54559075730188,149.3547505385601L73.98299369846072,149.3547505385601L74.42039663961955,149.3547505385601L75.27457030773162,149.3547505385601L76.99942341532027,149.3547505385601L77.43682635647909,149.3547505385601L78.55096592358181,149.3547505385601L79.32261073487145,149.3547505385601L79.7600136760303,149.3547505385601L80.38723298788071,149.3547505385601L82.17398273808615,149.3547505385601L82.91261600664684,149.3547505385601L83.9029622885159,149.3547505385601L84.34036522967475,149.3547505385601L84.77776817083358,149.3547505385601L86.64292033502034,149.3547505385601L87.30727763244083,149.3547505385601L88.09542821509498,149.3547505385601L89.02800429718835,149.3547505385601L89.46540723834718,102.5918579194179L90.09262655019761,74.53412234793257L90.719845862048,57.69948100504143L91.15724880320685,47.59869619930668L91.83811187199184,41.5382253158659L92.27551481315069,37.901942785801346L92.71291775430952,35.72017326776266L93.4928154512814,34.411111556939424L93.93021839244025,33.62567453044552L94.5656905899729,33.15441231454918L95.02372574533736,32.87165498501139L95.46112868649618,32.70200058728867L95.89853162765503,32.60020794865506L96.92601589509418,32.53913236547486L97.36341883625303,32.50248701556677L98.20521317584173,32.48049980562193L98.64261611700059,32.46730747965505L99.08001905815942,32.459392084074835L99.53805421352386,32.45464284672675L100.18590573957988,32.451793304317896L100.9534241080284,32.45008357887262L101.58476986271994,32.44905774360545L102.02217280387879,32.44844224244512L102.45957574503763,32.44807294174896L103.11155371393475,32.44785136133123L103.85018698249544,32.44771841308059L104.30822213785989,32.4476386441302L104.74562507901872,32.44759078275998L105.8515117604392,32.44756206593782L106.28891470159803,32.44754483584456L107.01516864163536,32.447534497788574L107.45257158279419,32.44752829495497L108.3727683363642,32.44752457325487L108.99998764821461,32.44752234023478L109.75100024529867,32.44752100042271L110.18840318645749,32.44752019653548L110.62580612761633,32.44751971420313L111.47997979572841,32.447519424803744L112.11545199326106,32.44751925116409L112.5734871486255,32.44751914698026L113.93108684335435,32.447519084470045L114.3684897845132,32.44751904696388L115.07411151034492,32.44751902446018L116.10159577778408,32.44751901095793L116.73706797531673,32.4475190028566L117.40555171557835,32.44751899799583L118.05340324163437,32.44751899507932L119.37386495079313,32.44751899332945L120.0340958053725,32.447518992279555L121.65166139909199,32.4475189916496L122.08906434025084,32.44751899127161L123.21558323587689,32.44751899104479L123.65298617703574,32.447518990908726L124.09038911819458,32.44751899082711L124.52779205935343,32.447518990778136L125.17977002825056,32.447518990748726L125.80698934010097,32.44751899073109L126.2443922812598,32.44751899072052L126.68179522241864,32.4475189907142L127.1191981635775,32.44751899071037L127.55660110473633,32.447518990708055L128.33649880170822,32.447518990706655L128.77390174286705,32.44751899070581L129.4671441401754,32.44751899070533L130.1480072089604,32.44751899070508L130.58541015011923,32.4475189907049L131.02281309127807,32.44751899070478L131.48084824664252,32.44751899070472L131.91825118780136,32.44751899070472L132.71878109897887,32.44751899070472L133.1561840401377,32.44751899070472L133.59358698129654,32.44751899070472L134.03098992245538,32.44751899070472L134.48902507781983,32.44751899070472L135.35557807445525,32.44751899070472L136.13547577142717,32.44751899070472L136.5935109267916,32.44751899070472L137.23310956716537,32.44751899070472L137.69114472252983,32.44751899070472L138.3266169200625,32.44751899070472L138.7640198612213,32.44751899070472L139.40361850159508,32.44751899070472L139.86165365695953,32.44751899070472L141.27702355146408,32.44751899070472L141.71442649262292,32.44751899070472L142.17246164798738,32.44751899070472L142.6098645891462,32.44751899070472L143.23708390099662,32.44751899070472L143.67448684215546,32.44751899070472L144.30583259684698,32.44751899070472L144.94130479437965,32.44751899070472L145.37870773553848,32.44751899070472L145.81611067669732,32.44751899070472L146.44745643138884,32.44751899070472L147.89171142578127,32.44751899070472L148.32911436694008,32.44751899070472L149.11726494959422,32.44751899070472L149.55466789075305,32.44751899070472L149.99207083191192,32.44751899070472L150.64817524365017,32.44751899070472L151.085578184809,32.44751899070472L151.52298112596785,32.44751899070472L152.59585626465932,32.44751899070472L153.03325920581818,32.44751899070472L153.89981220245363,32.44751899070472L154.33721514361247,32.44751899070472L154.97681378398624,32.44751899070472L155.41421672514508,32.44751899070472L155.85161966630392,32.44751899070472L156.28902260746273,32.44751899070472L157.16795493262154,32.44751899070472L157.8611973299299,32.44751899070472L158.29860027108873,32.44751899070472L158.73600321224757,32.44751899070472L159.19403836761202,32.44751899070472L159.94092452185495,32.44751899070472L160.3783274630138,32.44751899070472L161.12521361725672,32.44751899070472L161.75655937194827,32.44751899070472L162.38790512663977,32.44751899070472L162.8253080677986,32.44751899070472L163.26271100895744,32.44751899070472L163.7001139501163,32.44751899070472L164.69458667482647,32.44751899070472L165.1319896159853,32.44751899070472L165.56939255714417,32.44751899070472L166.006795498303,32.44751899070472L166.44419843946184,32.44751899070472L167.0755441941534,32.44751899070472L167.51294713531223,32.44751899070472L167.95035007647107,32.44751899070472L168.3877530176299,32.44751899070472L168.8251559587887,32.44751899070472L169.2666853427887,32.44751899070472L169.70408828394756,32.44751899070472L170.1414912251064,32.44751899070472L170.59952638047082,32.44751899070472L171.5857462194988,32.44751899070472L172.02314916065762,32.44751899070472L172.46055210181643,32.44751899070472L172.9020814858164,32.44751899070472L173.33948442697525,32.44751899070472L173.7975195823397,32.44751899070472L174.2349225234985,32.44751899070472L174.67232546465738,32.44751899070472L175.1303606200218,32.44751899070472L175.56776356118067,32.44751899070472L176.20736220155445,32.44751899070472L176.64476514271328,32.44751899070472L177.08216808387212,32.44751899070472L177.51957102503096,32.44751899070472L177.9569739661898,32.44751899070472L178.60482549224582,32.44751899070472L179.28156211818967,32.44751899070472L179.91290787288122,32.44751899070472L180.35031081404006,32.44751899070472L180.7877137551989,32.44751899070472L181.2251166963577,32.44751899070472L181.86471533673148,32.44751899070472L182.30211827789034,32.44751899070472L182.73952121904918,32.44751899070472L183.5029131446566,32.44751899070472L183.94031608581543,32.44751899070472L184.56753539766584,32.44751899070472L185.0049383388247,32.44751899070472L185.44234127998354,32.44751899070472L185.87974422114235,32.44751899070472L186.3377793765068,32.44751899070472L186.77518231766564,32.44751899070472L187.41890740088056,32.44751899070472L187.8563103420394,32.44751899070472L188.2937132831982,32.44751899070472L188.73111622435704,32.44751899070472L189.58528989246912,32.44751899070472L190.28678517545973,32.44751899070472L190.72418811661856,32.44751899070472L191.16159105777743,32.44751899070472L191.59899399893627,32.44751899070472L192.0570291543007,32.44751899070472L192.49443209545953,32.44751899070472L192.9359614794595,32.44751899070472L193.37336442061834,32.44751899070472L193.81076736177715,32.44751899070472L194.248170302936,32.44751899070472L194.68557324409485,32.44751899070472L195.14360839945928,32.44751899070472L195.58101134061815,32.44751899070472L196.01841428177698,32.44751899070472L196.45581722293582,32.44751899070472L196.89322016409463,32.44751899070472L197.619474104132,32.44751899070472L198.05687704529083,32.44751899070472L198.49427998644964,32.44751899070472L198.93168292760848,32.44751899070472L199.38971808297293,32.44751899070472L199.8477532383374,32.44751899070472L200.28515617949623,32.44751899070472L200.72255912065503,32.44751899070472L201.1599620618139,32.44751899070472L201.59736500297274,32.44751899070472L202.03476794413157,32.44751899070472L202.4721708852904,32.44751899070472L202.90957382644925,32.44751899070472L203.53679313829966,32.44751899070472L203.9741960794585,32.44751899070472L204.41572546345847,32.44751899070472L204.85312840461734,32.44751899070472L205.29053134577615,32.44751899070472L205.72793428693498,32.44751899070472L206.16533722809382,32.44751899070472L206.62337238345827,32.44751899070472L207.0607753246171,32.44751899070472L207.49817826577595,32.44751899070472L207.9355812069348,32.44751899070472L208.37298414809362,32.44751899070472L208.83101930345808,32.44751899070472L209.28905445882253,32.44751899070472L209.72645739998137,32.44751899070472L210.1638603411402,32.44751899070472L210.60126328229904,32.44751899070472L211.03866622345785,32.44751899070472L211.47606916461672,32.44751899070472L211.93410431998117,32.44751899070472L212.37150726114,32.44751899070472L212.80891020229885,32.44751899070472L213.24631314345768,32.44751899070472L213.68371608461652,32.44751899070472L214.31506183930807,32.44751899070472L214.75659122330802,32.44751899070472L215.62727066278458,32.44751899070472L216.06880004678453,32.44751899070472L216.5062029879434,32.44751899070472L217.13342229979378,32.44751899070472L217.57082524095264,32.44751899070472L218.02886039631707,32.44751899070472L218.4662633374759,32.44751899070472L218.90366627863474,32.44751899070472L219.34519566263472,32.44751899070472L219.80323081799918,32.44751899070472L220.240633759158,32.44751899070472L220.69866891452244,32.44751899070472L221.1567040698869,32.44751899070472L221.59410701104574,32.44751899070472L222.03563639504569,32.44751899070472L222.47303933620452,32.44751899070472L222.91044227736336,32.44751899070472L223.3478452185222,32.44751899070472L223.78524815968106,32.44751899070472L224.2226511008399,32.44751899070472L224.66005404199873,32.44751899070472L225.09745698315754,32.44751899070472L225.5348599243164,32.44751899070472L225.99289507968084,32.44751899070472L226.4302980208397,32.44751899070472L226.87182740483968,32.44751899070472L227.31335678883963,32.44751899070472L227.75075972999846,32.44751899070472L228.1881626711573,32.44751899070472L228.62556561231614,32.44751899070472L229.08360076768057,32.44751899070472L229.54163592304502,32.44751899070472L229.97903886420386,32.44751899070472L230.71767213276453,32.44751899070472L231.1550750739234,32.44751899070472L231.81117948566165,32.44751899070472L232.2485824268205,32.44751899070472L232.68598536797933,32.44751899070472L233.14402052334378,32.44751899070472L233.5814234645026,32.44751899070472L234.01882640566143,32.44751899070472L234.45622934682027,32.44751899070472L234.89363228797913,32.44751899070472L235.33103522913797,32.44751899070472L235.7684381702968,32.44751899070472L236.51532432453973,32.44751899070472L236.95272726569857,32.44751899070472L237.3901302068574,32.44751899070472L237.82753314801627,32.44751899070472L238.26906253201622,32.44751899070472L239.03658090046474,32.44751899070472L239.47398384162358,32.44751899070472L239.91138678278242,32.44751899070472L240.34878972394128,32.44751899070472L240.7861926651001,32.44751899070472L241.22359560625893,32.44751899070472L241.66099854741776,32.44751899070472L242.09840148857663,32.44751899070472L242.53580442973546,32.44751899070472L242.9732073708943,32.44751899070472L243.41061031205314,32.44751899070472L243.84801325321197,32.44751899070472L244.28541619437084,32.44751899070472L244.72281913552965,32.44751899070472L245.16022207668848,32.44751899070472L245.59762501784732,32.44751899070472L246.0350279590062,32.44751899070472L246.47243090016502,32.44751899070472L246.93046605552948,32.44751899070472L247.36786899668832,32.44751899070472L247.80527193784712,32.44751899070472L248.2468013218471,32.44751899070472L248.68420426300594,32.44751899070472L249.12160720416477,32.44751899070472L249.55901014532364,32.44751899070472L249.99641308648245,32.44751899070472L250.43381602764129,32.44751899070472L250.87121896880012,32.44751899070472L251.32925412416458,32.44751899070472L251.78728927952903,32.44751899070472L252.22469222068787,32.44751899070472L252.6827273760523,32.44751899070472L253.47087795870644,32.44751899070472L253.90828089986528,32.44751899070472L254.64691416842598,32.44751899070472L255.47220273665022,32.44751899070472L255.90960567780905,32.44751899070472L256.3470086189679,32.44751899070472L256.7844115601267,32.44751899070472L257.22181450128556,32.44751899070472L257.6592174424444,32.44751899070472L258.11725259780883,32.44751899070472L258.55465553896767,32.44751899070472L258.99618492296764,32.44751899070472L259.4335878641265,32.44751899070472L259.8916230194909,32.44751899070472L260.32902596064974,32.44751899070472L260.7664289018086,32.44751899070472L261.2038318429674,32.44751899070472L261.6412347841263,32.44751899070472L262.07863772528515,32.44751899070472L262.516040666444,32.44751899070472L262.9534436076028,32.44751899070472L263.3908465487616,32.44751899070472L263.8282494899205,32.44751899070472L264.26565243107933,32.44751899070472L264.70305537223817,32.44751899070472L265.140458313397,32.44751899070472L265.57786125455584,32.44751899070472L266.0152641957147,32.44751899070472L266.4526671368735,32.44751899070472L266.89007007803235,32.44751899070472L267.3274730191912,32.44751899070472L267.76487596035,32.44751899070472L268.20227890150886,32.44751899070472L268.64380828550884,32.44751899070472L269.0853376695088,32.44751899070472L269.52274061066765,32.44751899070472L269.9601435518265,32.44751899070472L270.4016729358264,32.44751899070472L270.8597080911909,32.44751899070472L271.3177432465553,32.44751899070472L271.7757784019198,32.44751899070472L272.21318134307865,32.44751899070472L272.6712164984431,32.44751899070472L273.1086194396019,32.44751899070472L273.54602238076075,32.44751899070472L273.9834253219196,32.44751899070472L274.4208282630784,32.44751899070472L274.85823120423726,32.44751899070472L275.2956341453961,32.44751899070472L275.73303708655493,32.44751899070472L276.17044002771377,32.44751899070472L276.6078429688726,32.44751899070472L277.04524591003144,32.44751899070472L277.4826488511903,32.44751899070472L277.9200517923491,32.44751899070472L278.3615811763491,32.44751899070472L278.8196163317135,32.44751899070472L279.25701927287236,32.44751899070472L279.69442221403125,32.44751899070472L280.1318251551901,32.44751899070472L280.5692280963489,32.44751899070472L281.00663103750776,32.44751899070472L281.4646661928722,32.44751899070472" fill="none"></path></g></g></g></g><g opacity="0.2"><g><g><g><path style="fill: none;" stroke="rgb(255, 112, 67)" stroke-width="2px" d="M26.157521169866836,227.29290490379702L27.37894825083869,149.35475053856004L27.816351191997526,149.35475053856004L29.90845771244594,149.35475053856004L30.841033794539317,149.35475053856004L31.86026517629623,149.35475053856004L32.54112824508122,149.35475053856004L33.560359626838135,149.35475053856004L33.99776256799698,149.35475053856004L34.435165509155816,149.35475053856004L34.87256845031466,149.35475053856004L35.58644306182862,149.35475053856004L36.22191525936127,149.35475053856004L37.22051442691258,149.35475053856004L38.111826080594746,149.35475053856004L38.54922902175358,149.35475053856004L38.986631962912426,149.35475053856004L39.71701234579086,149.35475053856004L40.368990314688,149.35475053856004L40.80639325584684,149.35475053856004L41.540900081566406,149.35475053856004L42.32079777853829,149.35475053856004L43.07593681846346,149.35475053856004L43.5133397596223,149.35475053856004L44.396398527622225,149.35475053856004L44.83380146878106,149.35475053856004L45.271204409939905,149.35475053856004L46.50501081943512,149.35475053856004L47.52836864403316,149.35475053856004L48.254622584070475,149.35475053856004L48.69202552522932,149.35475053856004L49.129428466388156,149.35475053856004L49.566831407547,149.35475053856004L50.02486656291144,149.35475053856004L50.46226950407028,149.35475053856004L50.89967244522912,149.35475053856004L51.7744783275468,149.35475053856004L52.7524452808925,149.35475053856004L53.189848222051346,149.35475053856004L53.82119397674288,149.35475053856004L54.45253973143441,149.35475053856004L54.88994267259326,149.35475053856004L55.54604708433151,149.35475053856004L57.60926850489208,149.35475053856004L58.25712003094809,149.35475053856004L58.71515518631254,149.35475053856004L59.15255812747138,149.35475053856004L59.78803032500403,149.35475053856004L60.22543326616287,149.35475053856004L61.10849203416279,149.35475053856004L61.54589497532164,149.35475053856004L61.983297916480474,149.35475053856004L63.534840424742015,149.35475053856004L63.97224336590086,149.35475053856004L64.41377274990082,149.35475053856004L65.0574978331157,149.35475053856004L65.49490077427456,149.35475053856004L66.1468787431717,149.35475053856004L66.82361536911556,149.35475053856004L67.45083468096597,149.35475053856004L68.75066417591913,149.35475053856004L69.53468831573214,149.35475053856004L69.97209125689098,149.35475053856004L70.40949419804981,149.35475053856004L70.84689713920866,149.35475053856004L71.60203617913382,149.35475053856004L72.23338193382536,149.35475053856004L72.67078487498421,149.35475053856004L73.10818781614303,149.35475053856004L73.54559075730188,149.35475053856004L73.98299369846072,149.35475053856004L74.42039663961955,149.35475053856004L75.27457030773162,149.35475053856004L76.99942341532027,149.35475053856004L77.43682635647909,149.35475053856004L78.55096592358181,149.35475053856004L79.32261073487145,149.35475053856004L79.7600136760303,149.35475053856004L80.38723298788071,149.35475053856004L82.17398273808615,149.35475053856004L82.91261600664684,149.35475053856004L83.9029622885159,149.35475053856004L84.34036522967475,149.35475053856004L84.77776817083358,149.35475053856004L86.64292033502034,149.35475053856004L87.30727763244083,149.35475053856004L88.09542821509498,149.35475053856004L89.02800429718835,149.35475053856004L89.46540723834718,32.4475189907046L90.09262655019761,32.4475189907046L90.719845862048,32.4475189907046L91.15724880320685,32.4475189907046L91.83811187199184,32.4475189907046L92.27551481315069,32.4475189907046L92.71291775430952,32.4475189907046L93.4928154512814,32.4475189907046L93.93021839244025,32.4475189907046L94.5656905899729,32.4475189907046L95.02372574533736,32.4475189907046L95.46112868649618,32.4475189907046L95.89853162765503,32.4475189907046L96.92601589509418,32.4475189907046L97.36341883625303,32.4475189907046L98.20521317584173,32.4475189907046L98.64261611700059,32.4475189907046L99.08001905815942,32.4475189907046L99.53805421352386,32.4475189907046L100.18590573957988,32.4475189907046L100.9534241080284,32.4475189907046L101.58476986271994,32.4475189907046L102.02217280387879,32.4475189907046L102.45957574503763,32.4475189907046L103.11155371393475,32.4475189907046L103.85018698249544,32.4475189907046L104.30822213785989,32.4475189907046L104.74562507901872,32.4475189907046L105.8515117604392,32.4475189907046L106.28891470159803,32.4475189907046L107.01516864163536,32.4475189907046L107.45257158279419,32.4475189907046L108.3727683363642,32.4475189907046L108.99998764821461,32.4475189907046L109.75100024529867,32.4475189907046L110.18840318645749,32.4475189907046L110.62580612761633,32.4475189907046L111.47997979572841,32.4475189907046L112.11545199326106,32.4475189907046L112.5734871486255,32.4475189907046L113.93108684335435,32.4475189907046L114.3684897845132,32.4475189907046L115.07411151034492,32.4475189907046L116.10159577778408,32.4475189907046L116.73706797531673,32.4475189907046L117.40555171557835,32.4475189907046L118.05340324163437,32.4475189907046L119.37386495079313,32.4475189907046L120.0340958053725,32.4475189907046L121.65166139909199,32.4475189907046L122.08906434025084,32.4475189907046L123.21558323587689,32.4475189907046L123.65298617703574,32.4475189907046L124.09038911819458,32.4475189907046L124.52779205935343,32.4475189907046L125.17977002825056,32.4475189907046L125.80698934010097,32.4475189907046L126.2443922812598,32.4475189907046L126.68179522241864,32.4475189907046L127.1191981635775,32.4475189907046L127.55660110473633,32.4475189907046L128.33649880170822,32.4475189907046L128.77390174286705,32.4475189907046L129.4671441401754,32.4475189907046L130.1480072089604,32.4475189907046L130.58541015011923,32.4475189907046L131.02281309127807,32.4475189907046L131.48084824664252,32.4475189907046L131.91825118780136,32.4475189907046L132.71878109897887,32.4475189907046L133.1561840401377,32.4475189907046L133.59358698129654,32.4475189907046L134.03098992245538,32.4475189907046L134.48902507781983,32.4475189907046L135.35557807445525,32.4475189907046L136.13547577142717,32.4475189907046L136.5935109267916,32.4475189907046L137.23310956716537,32.4475189907046L137.69114472252983,32.4475189907046L138.3266169200625,32.4475189907046L138.7640198612213,32.4475189907046L139.40361850159508,32.4475189907046L139.86165365695953,32.4475189907046L141.27702355146408,32.4475189907046L141.71442649262292,32.4475189907046L142.17246164798738,32.4475189907046L142.6098645891462,32.4475189907046L143.23708390099662,32.4475189907046L143.67448684215546,32.4475189907046L144.30583259684698,32.4475189907046L144.94130479437965,32.4475189907046L145.37870773553848,32.4475189907046L145.81611067669732,32.4475189907046L146.44745643138884,32.4475189907046L147.89171142578127,32.4475189907046L148.32911436694008,32.4475189907046L149.11726494959422,32.4475189907046L149.55466789075305,32.4475189907046L149.99207083191192,32.4475189907046L150.64817524365017,32.4475189907046L151.085578184809,32.4475189907046L151.52298112596785,32.4475189907046L152.59585626465932,32.4475189907046L153.03325920581818,32.4475189907046L153.89981220245363,32.4475189907046L154.33721514361247,32.4475189907046L154.97681378398624,32.4475189907046L155.41421672514508,32.4475189907046L155.85161966630392,32.4475189907046L156.28902260746273,32.4475189907046L157.16795493262154,32.4475189907046L157.8611973299299,32.4475189907046L158.29860027108873,32.4475189907046L158.73600321224757,32.4475189907046L159.19403836761202,32.4475189907046L159.94092452185495,32.4475189907046L160.3783274630138,32.4475189907046L161.12521361725672,32.4475189907046L161.75655937194827,32.4475189907046L162.38790512663977,32.4475189907046L162.8253080677986,32.4475189907046L163.26271100895744,32.4475189907046L163.7001139501163,32.4475189907046L164.69458667482647,32.4475189907046L165.1319896159853,32.4475189907046L165.56939255714417,32.4475189907046L166.006795498303,32.4475189907046L166.44419843946184,32.4475189907046L167.0755441941534,32.4475189907046L167.51294713531223,32.4475189907046L167.95035007647107,32.4475189907046L168.3877530176299,32.4475189907046L168.8251559587887,32.4475189907046L169.2666853427887,32.4475189907046L169.70408828394756,32.4475189907046L170.1414912251064,32.4475189907046L170.59952638047082,32.4475189907046L171.5857462194988,32.4475189907046L172.02314916065762,32.4475189907046L172.46055210181643,32.4475189907046L172.9020814858164,32.4475189907046L173.33948442697525,32.4475189907046L173.7975195823397,32.4475189907046L174.2349225234985,32.4475189907046L174.67232546465738,32.4475189907046L175.1303606200218,32.4475189907046L175.56776356118067,32.4475189907046L176.20736220155445,32.4475189907046L176.64476514271328,32.4475189907046L177.08216808387212,32.4475189907046L177.51957102503096,32.4475189907046L177.9569739661898,32.4475189907046L178.60482549224582,32.4475189907046L179.28156211818967,32.4475189907046L179.91290787288122,32.4475189907046L180.35031081404006,32.4475189907046L180.7877137551989,32.4475189907046L181.2251166963577,32.4475189907046L181.86471533673148,32.4475189907046L182.30211827789034,32.4475189907046L182.73952121904918,32.4475189907046L183.5029131446566,32.4475189907046L183.94031608581543,32.4475189907046L184.56753539766584,32.4475189907046L185.0049383388247,32.4475189907046L185.44234127998354,32.4475189907046L185.87974422114235,32.4475189907046L186.3377793765068,32.4475189907046L186.77518231766564,32.4475189907046L187.41890740088056,32.4475189907046L187.8563103420394,32.4475189907046L188.2937132831982,32.4475189907046L188.73111622435704,32.4475189907046L189.58528989246912,32.4475189907046L190.28678517545973,32.4475189907046L190.72418811661856,32.4475189907046L191.16159105777743,32.4475189907046L191.59899399893627,32.4475189907046L192.0570291543007,32.4475189907046L192.49443209545953,32.4475189907046L192.9359614794595,32.4475189907046L193.37336442061834,32.4475189907046L193.81076736177715,32.4475189907046L194.248170302936,32.4475189907046L194.68557324409485,32.4475189907046L195.14360839945928,32.4475189907046L195.58101134061815,32.4475189907046L196.01841428177698,32.4475189907046L196.45581722293582,32.4475189907046L196.89322016409463,32.4475189907046L197.619474104132,32.4475189907046L198.05687704529083,32.4475189907046L198.49427998644964,32.4475189907046L198.93168292760848,32.4475189907046L199.38971808297293,32.4475189907046L199.8477532383374,32.4475189907046L200.28515617949623,32.4475189907046L200.72255912065503,32.4475189907046L201.1599620618139,32.4475189907046L201.59736500297274,32.4475189907046L202.03476794413157,32.4475189907046L202.4721708852904,32.4475189907046L202.90957382644925,32.4475189907046L203.53679313829966,32.4475189907046L203.9741960794585,32.4475189907046L204.41572546345847,32.4475189907046L204.85312840461734,32.4475189907046L205.29053134577615,32.4475189907046L205.72793428693498,32.4475189907046L206.16533722809382,32.4475189907046L206.62337238345827,32.4475189907046L207.0607753246171,32.4475189907046L207.49817826577595,32.4475189907046L207.9355812069348,32.4475189907046L208.37298414809362,32.4475189907046L208.83101930345808,32.4475189907046L209.28905445882253,32.4475189907046L209.72645739998137,32.4475189907046L210.1638603411402,32.4475189907046L210.60126328229904,32.4475189907046L211.03866622345785,32.4475189907046L211.47606916461672,32.4475189907046L211.93410431998117,32.4475189907046L212.37150726114,32.4475189907046L212.80891020229885,32.4475189907046L213.24631314345768,32.4475189907046L213.68371608461652,32.4475189907046L214.31506183930807,32.4475189907046L214.75659122330802,32.4475189907046L215.62727066278458,32.4475189907046L216.06880004678453,32.4475189907046L216.5062029879434,32.4475189907046L217.13342229979378,32.4475189907046L217.57082524095264,32.4475189907046L218.02886039631707,32.4475189907046L218.4662633374759,32.4475189907046L218.90366627863474,32.4475189907046L219.34519566263472,32.4475189907046L219.80323081799918,32.4475189907046L220.240633759158,32.4475189907046L220.69866891452244,32.4475189907046L221.1567040698869,32.4475189907046L221.59410701104574,32.4475189907046L222.03563639504569,32.4475189907046L222.47303933620452,32.4475189907046L222.91044227736336,32.4475189907046L223.3478452185222,32.4475189907046L223.78524815968106,32.4475189907046L224.2226511008399,32.4475189907046L224.66005404199873,32.4475189907046L225.09745698315754,32.4475189907046L225.5348599243164,32.4475189907046L225.99289507968084,32.4475189907046L226.4302980208397,32.4475189907046L226.87182740483968,32.4475189907046L227.31335678883963,32.4475189907046L227.75075972999846,32.4475189907046L228.1881626711573,32.4475189907046L228.62556561231614,32.4475189907046L229.08360076768057,32.4475189907046L229.54163592304502,32.4475189907046L229.97903886420386,32.4475189907046L230.71767213276453,32.4475189907046L231.1550750739234,32.4475189907046L231.81117948566165,32.4475189907046L232.2485824268205,32.4475189907046L232.68598536797933,32.4475189907046L233.14402052334378,32.4475189907046L233.5814234645026,32.4475189907046L234.01882640566143,32.4475189907046L234.45622934682027,32.4475189907046L234.89363228797913,32.4475189907046L235.33103522913797,32.4475189907046L235.7684381702968,32.4475189907046L236.51532432453973,32.4475189907046L236.95272726569857,32.4475189907046L237.3901302068574,32.4475189907046L237.82753314801627,32.4475189907046L238.26906253201622,32.4475189907046L239.03658090046474,32.4475189907046L239.47398384162358,32.4475189907046L239.91138678278242,32.4475189907046L240.34878972394128,32.4475189907046L240.7861926651001,32.4475189907046L241.22359560625893,32.4475189907046L241.66099854741776,32.4475189907046L242.09840148857663,32.4475189907046L242.53580442973546,32.4475189907046L242.9732073708943,32.4475189907046L243.41061031205314,32.4475189907046L243.84801325321197,32.4475189907046L244.28541619437084,32.4475189907046L244.72281913552965,32.4475189907046L245.16022207668848,32.4475189907046L245.59762501784732,32.4475189907046L246.0350279590062,32.4475189907046L246.47243090016502,32.4475189907046L246.93046605552948,32.4475189907046L247.36786899668832,32.4475189907046L247.80527193784712,32.4475189907046L248.2468013218471,32.4475189907046L248.68420426300594,32.4475189907046L249.12160720416477,32.4475189907046L249.55901014532364,32.4475189907046L249.99641308648245,32.4475189907046L250.43381602764129,32.4475189907046L250.87121896880012,32.4475189907046L251.32925412416458,32.4475189907046L251.78728927952903,32.4475189907046L252.22469222068787,32.4475189907046L252.6827273760523,32.4475189907046L253.47087795870644,32.4475189907046L253.90828089986528,32.4475189907046L254.64691416842598,32.4475189907046L255.47220273665022,32.4475189907046L255.90960567780905,32.4475189907046L256.3470086189679,32.4475189907046L256.7844115601267,32.4475189907046L257.22181450128556,32.4475189907046L257.6592174424444,32.4475189907046L258.11725259780883,32.4475189907046L258.55465553896767,32.4475189907046L258.99618492296764,32.4475189907046L259.4335878641265,32.4475189907046L259.8916230194909,32.4475189907046L260.32902596064974,32.4475189907046L260.7664289018086,32.4475189907046L261.2038318429674,32.4475189907046L261.6412347841263,32.4475189907046L262.07863772528515,32.4475189907046L262.516040666444,32.4475189907046L262.9534436076028,32.4475189907046L263.3908465487616,32.4475189907046L263.8282494899205,32.4475189907046L264.26565243107933,32.4475189907046L264.70305537223817,32.4475189907046L265.140458313397,32.4475189907046L265.57786125455584,32.4475189907046L266.0152641957147,32.4475189907046L266.4526671368735,32.4475189907046L266.89007007803235,32.4475189907046L267.3274730191912,32.4475189907046L267.76487596035,32.4475189907046L268.20227890150886,32.4475189907046L268.64380828550884,32.4475189907046L269.0853376695088,32.4475189907046L269.52274061066765,32.4475189907046L269.9601435518265,32.4475189907046L270.4016729358264,32.4475189907046L270.8597080911909,32.4475189907046L271.3177432465553,32.4475189907046L271.7757784019198,32.4475189907046L272.21318134307865,32.4475189907046L272.6712164984431,32.4475189907046L273.1086194396019,32.4475189907046L273.54602238076075,32.4475189907046L273.9834253219196,32.4475189907046L274.4208282630784,32.4475189907046L274.85823120423726,32.4475189907046L275.2956341453961,32.4475189907046L275.73303708655493,32.4475189907046L276.17044002771377,32.4475189907046L276.6078429688726,32.4475189907046L277.04524591003144,32.4475189907046L277.4826488511903,32.4475189907046L277.9200517923491,32.4475189907046L278.3615811763491,32.4475189907046L278.8196163317135,32.4475189907046L279.25701927287236,32.4475189907046L279.69442221403125,32.4475189907046L280.1318251551901,32.4475189907046L280.5692280963489,32.4475189907046L281.00663103750776,32.4475189907046L281.4646661928722,32.4475189907046" fill="none"></path></g></g></g></g></g></g><g transform="translate(41, 177)" clip-path="url(#clip_1)"><clipPath id="clip_1"><rect width="288" height="22"></rect></clipPath><g><g><line x1="0" y1="0" x2="0" y2="5" style="visibility: inherit;" fill="rgb(0, 0, 0)" stroke="rgb(204, 204, 204)" stroke-width="1px"></line><line x1="20.632214205605642" y1="0" x2="20.632214205605642" y2="5" style="visibility: inherit;" fill="rgb(0, 0, 0)" stroke="rgb(204, 204, 204)" stroke-width="1px"></line><line x1="41.264428411211284" y1="0" x2="41.264428411211284" y2="5" style="visibility: inherit;" fill="rgb(0, 0, 0)" stroke="rgb(204, 204, 204)" stroke-width="1px"></line><line x1="61.896642616816926" y1="0" x2="61.896642616816926" y2="5" style="visibility: inherit;" fill="rgb(0, 0, 0)" stroke="rgb(204, 204, 204)" stroke-width="1px"></line><line x1="82.52885682242257" y1="0" x2="82.52885682242257" y2="5" style="visibility: inherit;" fill="rgb(0, 0, 0)" stroke="rgb(204, 204, 204)" stroke-width="1px"></line><line x1="103.16107102802822" y1="0" x2="103.16107102802822" y2="5" style="visibility: inherit;" fill="rgb(0, 0, 0)" stroke="rgb(204, 204, 204)" stroke-width="1px"></line><line x1="123.79328523363385" y1="0" x2="123.79328523363385" y2="5" style="visibility: inherit;" fill="rgb(0, 0, 0)" stroke="rgb(204, 204, 204)" stroke-width="1px"></line><line x1="144.4254994392395" y1="0" x2="144.4254994392395" y2="5" style="visibility: inherit;" fill="rgb(0, 0, 0)" stroke="rgb(204, 204, 204)" stroke-width="1px"></line><line x1="165.05771364484514" y1="0" x2="165.05771364484514" y2="5" style="visibility: inherit;" fill="rgb(0, 0, 0)" stroke="rgb(204, 204, 204)" stroke-width="1px"></line><line x1="185.6899278504508" y1="0" x2="185.6899278504508" y2="5" style="visibility: inherit;" fill="rgb(0, 0, 0)" stroke="rgb(204, 204, 204)" stroke-width="1px"></line><line x1="206.32214205605644" y1="0" x2="206.32214205605644" y2="5" style="visibility: inherit;" fill="rgb(0, 0, 0)" stroke="rgb(204, 204, 204)" stroke-width="1px"></line><line x1="226.95435626166207" y1="0" x2="226.95435626166207" y2="5" style="visibility: inherit;" fill="rgb(0, 0, 0)" stroke="rgb(204, 204, 204)" stroke-width="1px"></line><line x1="247.5865704672677" y1="0" x2="247.5865704672677" y2="5" style="visibility: inherit;" fill="rgb(0, 0, 0)" stroke="rgb(204, 204, 204)" stroke-width="1px"></line><line x1="268.21878467287337" y1="0" x2="268.21878467287337" y2="5" style="visibility: inherit;" fill="rgb(0, 0, 0)" stroke="rgb(204, 204, 204)" stroke-width="1px"></line><line x1="288.850998878479" y1="0" x2="288.850998878479" y2="5" style="visibility: inherit;" fill="rgb(0, 0, 0)" stroke="rgb(204, 204, 204)" stroke-width="1px"></line></g><g transform="translate(0, 8)"><text style="text-anchor: middle; visibility: hidden; font-family: Roboto, sans-serif; font-size: 12px; font-weight: 200;" x="0" y="0" dx="0em" dy="0.95em" fill="rgb(50, 49, 63)" stroke="none" stroke-width="1px">20k</text><text style="text-anchor: middle; visibility: inherit; font-family: Roboto, sans-serif; font-size: 12px; font-weight: 200;" x="20.632214205605642" y="0" dx="0em" dy="0.95em" fill="rgb(50, 49, 63)" stroke="none" stroke-width="1px">25k</text><text style="text-anchor: middle; visibility: hidden; font-family: Roboto, sans-serif; font-size: 12px; font-weight: 200;" x="41.264428411211284" y="0" dx="0em" dy="0.95em" fill="rgb(50, 49, 63)" stroke="none" stroke-width="1px">30k</text><text style="text-anchor: middle; visibility: inherit; font-family: Roboto, sans-serif; font-size: 12px; font-weight: 200;" x="61.896642616816926" y="0" dx="0em" dy="0.95em" fill="rgb(50, 49, 63)" stroke="none" stroke-width="1px">35k</text><text style="text-anchor: middle; visibility: hidden; font-family: Roboto, sans-serif; font-size: 12px; font-weight: 200;" x="82.52885682242257" y="0" dx="0em" dy="0.95em" fill="rgb(50, 49, 63)" stroke="none" stroke-width="1px">40k</text><text style="text-anchor: middle; visibility: inherit; font-family: Roboto, sans-serif; font-size: 12px; font-weight: 200;" x="103.16107102802822" y="0" dx="0em" dy="0.95em" fill="rgb(50, 49, 63)" stroke="none" stroke-width="1px">45k</text><text style="text-anchor: middle; visibility: hidden; font-family: Roboto, sans-serif; font-size: 12px; font-weight: 200;" x="123.79328523363385" y="0" dx="0em" dy="0.95em" fill="rgb(50, 49, 63)" stroke="none" stroke-width="1px">50k</text><text style="text-anchor: middle; visibility: inherit; font-family: Roboto, sans-serif; font-size: 12px; font-weight: 200;" x="144.4254994392395" y="0" dx="0em" dy="0.95em" fill="rgb(50, 49, 63)" stroke="none" stroke-width="1px">55k</text><text style="text-anchor: middle; visibility: hidden; font-family: Roboto, sans-serif; font-size: 12px; font-weight: 200;" x="165.05771364484514" y="0" dx="0em" dy="0.95em" fill="rgb(50, 49, 63)" stroke="none" stroke-width="1px">60k</text><text style="text-anchor: middle; visibility: inherit; font-family: Roboto, sans-serif; font-size: 12px; font-weight: 200;" x="185.6899278504508" y="0" dx="0em" dy="0.95em" fill="rgb(50, 49, 63)" stroke="none" stroke-width="1px">65k</text><text style="text-anchor: middle; visibility: hidden; font-family: Roboto, sans-serif; font-size: 12px; font-weight: 200;" x="206.32214205605644" y="0" dx="0em" dy="0.95em" fill="rgb(50, 49, 63)" stroke="none" stroke-width="1px">70k</text><text style="text-anchor: middle; visibility: inherit; font-family: Roboto, sans-serif; font-size: 12px; font-weight: 200;" x="226.95435626166207" y="0" dx="0em" dy="0.95em" fill="rgb(50, 49, 63)" stroke="none" stroke-width="1px">75k</text><text style="text-anchor: middle; visibility: hidden; font-family: Roboto, sans-serif; font-size: 12px; font-weight: 200;" x="247.5865704672677" y="0" dx="0em" dy="0.95em" fill="rgb(50, 49, 63)" stroke="none" stroke-width="1px">80k</text><text style="text-anchor: middle; visibility: inherit; font-family: Roboto, sans-serif; font-size: 12px; font-weight: 200;" x="268.21878467287337" y="0" dx="0em" dy="0.95em" fill="rgb(50, 49, 63)" stroke="none" stroke-width="1px">85k</text><text style="text-anchor: middle; visibility: hidden; font-family: Roboto, sans-serif; font-size: 12px; font-weight: 200;" x="288.850998878479" y="0" dx="0em" dy="0.95em" fill="rgb(50, 49, 63)" stroke="none" stroke-width="1px">90k</text></g><line x1="0" y1="0" x2="288.850998878479" y2="0" fill="rgb(0, 0, 0)" stroke="rgb(204, 204, 204)" stroke-width="1px"></line></g></g></g></g></svg>