<svg viewBox="0 0 330 200" xmlns="http://www.w3.org/2000/svg"><g><g><g><g><g><line x1="61.91500186920166" y1="177.89999961853027" x2="56.91500186920166" y2="177.89999961853027" style="visibility: inherit;" fill="rgb(0, 0, 0)" stroke="rgb(204, 204, 204)" stroke-width="1px"></line><line x1="61.91500186920166" y1="164.21538426325856" x2="56.91500186920166" y2="164.21538426325856" style="visibility: inherit;" fill="rgb(0, 0, 0)" stroke="rgb(204, 204, 204)" stroke-width="1px"></line><line x1="61.91500186920166" y1="150.53076890798687" x2="56.91500186920166" y2="150.53076890798687" style="visibility: inherit;" fill="rgb(0, 0, 0)" stroke="rgb(204, 204, 204)" stroke-width="1px"></line><line x1="61.91500186920166" y1="136.84615355271515" x2="56.91500186920166" y2="136.84615355271515" style="visibility: inherit;" fill="rgb(0, 0, 0)" stroke="rgb(204, 204, 204)" stroke-width="1px"></line><line x1="61.91500186920166" y1="123.16153819744441" x2="56.91500186920166" y2="123.16153819744441" style="visibility: inherit;" fill="rgb(0, 0, 0)" stroke="rgb(204, 204, 204)" stroke-width="1px"></line><line x1="61.91500186920166" y1="109.4769228421727" x2="56.91500186920166" y2="109.4769228421727" style="visibility: inherit;" fill="rgb(0, 0, 0)" stroke="rgb(204, 204, 204)" stroke-width="1px"></line><line x1="61.91500186920166" y1="95.792307486901" x2="56.91500186920166" y2="95.792307486901" style="visibility: inherit;" fill="rgb(0, 0, 0)" stroke="rgb(204, 204, 204)" stroke-width="1px"></line><line x1="61.91500186920166" y1="82.10769213162928" x2="56.91500186920166" y2="82.10769213162928" style="visibility: inherit;" fill="rgb(0, 0, 0)" stroke="rgb(204, 204, 204)" stroke-width="1px"></line><line x1="61.91500186920166" y1="68.42307677635758" x2="56.91500186920166" y2="68.42307677635758" style="visibility: inherit;" fill="rgb(0, 0, 0)" stroke="rgb(204, 204, 204)" stroke-width="1px"></line><line x1="61.91500186920166" y1="54.73846142108683" x2="56.91500186920166" y2="54.73846142108683" style="visibility: inherit;" fill="rgb(0, 0, 0)" stroke="rgb(204, 204, 204)" stroke-width="1px"></line><line x1="61.91500186920166" y1="41.05384606581512" x2="56.91500186920166" y2="41.05384606581512" style="visibility: inherit;" fill="rgb(0, 0, 0)" stroke="rgb(204, 204, 204)" stroke-width="1px"></line><line x1="61.91500186920166" y1="27.369230710543416" x2="56.91500186920166" y2="27.369230710543416" style="visibility: inherit;" fill="rgb(0, 0, 0)" stroke="rgb(204, 204, 204)" stroke-width="1px"></line><line x1="61.91500186920166" y1="13.684615355271708" x2="56.91500186920166" y2="13.684615355271708" style="visibility: inherit;" fill="rgb(0, 0, 0)" stroke="rgb(204, 204, 204)" stroke-width="1px"></line><line x1="61.91500186920166" y1="0" x2="56.91500186920166" y2="0" style="visibility: inherit;" fill="rgb(0, 0, 0)" stroke="rgb(204, 204, 204)" stroke-width="1px"></line></g><g transform="translate(51.91500186920166, 0)"><text style="text-anchor: end; visibility: hidden; font-family: Roboto, sans-serif; font-size: 12px; font-weight: 200;" x="0" y="177.89999961853027" dx="0em" dy="0.3em" fill="rgb(50, 49, 63)" stroke="none" stroke-width="1px">-99.2</text><text style="text-anchor: end; visibility: inherit; font-family: Roboto, sans-serif; font-size: 12px; font-weight: 200;" x="0" y="164.21538426325856" dx="0em" dy="0.3em" fill="rgb(50, 49, 63)" stroke="none" stroke-width="1px">-99</text><text style="text-anchor: end; visibility: hidden; font-family: Roboto, sans-serif; font-size: 12px; font-weight: 200;" x="0" y="150.53076890798687" dx="0em" dy="0.3em" fill="rgb(50, 49, 63)" stroke="none" stroke-width="1px">-98.8</text><text style="text-anchor: end; visibility: inherit; font-family: Roboto, sans-serif; font-size: 12px; font-weight: 200;" x="0" y="136.84615355271515" dx="0em" dy="0.3em" fill="rgb(50, 49, 63)" stroke="none" stroke-width="1px">-98.6</text><text style="text-anchor: end; visibility: hidden; font-family: Roboto, sans-serif; font-size: 12px; font-weight: 200;" x="0" y="123.16153819744441" dx="0em" dy="0.3em" fill="rgb(50, 49, 63)" stroke="none" stroke-width="1px">-98.4</text><text style="text-anchor: end; visibility: inherit; font-family: Roboto, sans-serif; font-size: 12px; font-weight: 200;" x="0" y="109.4769228421727" dx="0em" dy="0.3em" fill="rgb(50, 49, 63)" stroke="none" stroke-width="1px">-98.2</text><text style="text-anchor: end; visibility: hidden; font-family: Roboto, sans-serif; font-size: 12px; font-weight: 200;" x="0" y="95.792307486901" dx="0em" dy="0.3em" fill="rgb(50, 49, 63)" stroke="none" stroke-width="1px">-98</text><text style="text-anchor: end; visibility: inherit; font-family: Roboto, sans-serif; font-size: 12px; font-weight: 200;" x="0" y="82.10769213162928" dx="0em" dy="0.3em" fill="rgb(50, 49, 63)" stroke="none" stroke-width="1px">-97.8</text><text style="text-anchor: end; visibility: hidden; font-family: Roboto, sans-serif; font-size: 12px; font-weight: 200;" x="0" y="68.42307677635758" dx="0em" dy="0.3em" fill="rgb(50, 49, 63)" stroke="none" stroke-width="1px">-97.6</text><text style="text-anchor: end; visibility: inherit; font-family: Roboto, sans-serif; font-size: 12px; font-weight: 200;" x="0" y="54.73846142108683" dx="0em" dy="0.3em" fill="rgb(50, 49, 63)" stroke="none" stroke-width="1px">-97.4</text><text style="text-anchor: end; visibility: hidden; font-family: Roboto, sans-serif; font-size: 12px; font-weight: 200;" x="0" y="41.05384606581512" dx="0em" dy="0.3em" fill="rgb(50, 49, 63)" stroke="none" stroke-width="1px">-97.2</text><text style="text-anchor: end; visibility: inherit; font-family: Roboto, sans-serif; font-size: 12px; font-weight: 200;" x="0" y="27.369230710543416" dx="0em" dy="0.3em" fill="rgb(50, 49, 63)" stroke="none" stroke-width="1px">-97</text><text style="text-anchor: end; visibility: hidden; font-family: Roboto, sans-serif; font-size: 12px; font-weight: 200;" x="0" y="13.684615355271708" dx="0em" dy="0.3em" fill="rgb(50, 49, 63)" stroke="none" stroke-width="1px">-96.8</text><text style="text-anchor: end; visibility: hidden; font-family: Roboto, sans-serif; font-size: 12px; font-weight: 200;" x="0" y="0" dx="0em" dy="0.3em" fill="rgb(50, 49, 63)" stroke="none" stroke-width="1px">-96.6</text></g><line x1="61.91500186920166" y1="0" x2="61.91500186920166" y2="177.89999961853027" fill="rgb(0, 0, 0)" stroke="rgb(204, 204, 204)" stroke-width="1px"></line></g></g><g transform="translate(61, 0)" clip-path="url(#clip_0)"><clipPath id="clip_0"><rect width="268" height="177"></rect></clipPath><g><g><g><line x1="0" y1="0" x2="0" y2="177.89999961853027" fill="rgb(0, 0, 0)" stroke="rgb(60, 60, 60)" stroke-width="1px" opacity="0.25"></line><line x1="22.34041651089986" y1="0" x2="22.34041651089986" y2="177.89999961853027" fill="rgb(0, 0, 0)" stroke="rgb(60, 60, 60)" stroke-width="1px" opacity="0.25"></line><line x1="44.68083302179972" y1="0" x2="44.68083302179972" y2="177.89999961853027" fill="rgb(0, 0, 0)" stroke="rgb(60, 60, 60)" stroke-width="1px" opacity="0.25"></line><line x1="67.02124953269958" y1="0" x2="67.02124953269958" y2="177.89999961853027" fill="rgb(0, 0, 0)" stroke="rgb(60, 60, 60)" stroke-width="1px" opacity="0.25"></line><line x1="89.36166604359944" y1="0" x2="89.36166604359944" y2="177.89999961853027" fill="rgb(0, 0, 0)" stroke="rgb(60, 60, 60)" stroke-width="1px" opacity="0.25"></line><line x1="111.70208255449931" y1="0" x2="111.70208255449931" y2="177.89999961853027" fill="rgb(0, 0, 0)" stroke="rgb(60, 60, 60)" stroke-width="1px" opacity="0.25"></line><line x1="134.04249906539917" y1="0" x2="134.04249906539917" y2="177.89999961853027" fill="rgb(0, 0, 0)" stroke="rgb(60, 60, 60)" stroke-width="1px" opacity="0.25"></line><line x1="156.38291557629904" y1="0" x2="156.38291557629904" y2="177.89999961853027" fill="rgb(0, 0, 0)" stroke="rgb(60, 60, 60)" stroke-width="1px" opacity="0.25"></line><line x1="178.72333208719888" y1="0" x2="178.72333208719888" y2="177.89999961853027" fill="rgb(0, 0, 0)" stroke="rgb(60, 60, 60)" stroke-width="1px" opacity="0.25"></line><line x1="201.06374859809875" y1="0" x2="201.06374859809875" y2="177.89999961853027" fill="rgb(0, 0, 0)" stroke="rgb(60, 60, 60)" stroke-width="1px" opacity="0.25"></line><line x1="223.40416510899863" y1="0" x2="223.40416510899863" y2="177.89999961853027" fill="rgb(0, 0, 0)" stroke="rgb(60, 60, 60)" stroke-width="1px" opacity="0.25"></line><line x1="245.74458161989847" y1="0" x2="245.74458161989847" y2="177.89999961853027" fill="rgb(0, 0, 0)" stroke="rgb(60, 60, 60)" stroke-width="1px" opacity="0.25"></line><line x1="268.08499813079834" y1="0" x2="268.08499813079834" y2="177.89999961853027" fill="rgb(0, 0, 0)" stroke="rgb(60, 60, 60)" stroke-width="1px" opacity="0.25"></line></g><g><line x1="0" y1="177.89999961853027" x2="268.08499813079834" y2="177.89999961853027" fill="rgb(0, 0, 0)" stroke="rgb(60, 60, 60)" stroke-width="1px" opacity="0.25"></line><line x1="0" y1="164.21538426325856" x2="268.08499813079834" y2="164.21538426325856" fill="rgb(0, 0, 0)" stroke="rgb(60, 60, 60)" stroke-width="1px" opacity="0.25"></line><line x1="0" y1="150.53076890798687" x2="268.08499813079834" y2="150.53076890798687" fill="rgb(0, 0, 0)" stroke="rgb(60, 60, 60)" stroke-width="1px" opacity="0.25"></line><line x1="0" y1="136.84615355271515" x2="268.08499813079834" y2="136.84615355271515" fill="rgb(0, 0, 0)" stroke="rgb(60, 60, 60)" stroke-width="1px" opacity="0.25"></line><line x1="0" y1="123.16153819744441" x2="268.08499813079834" y2="123.16153819744441" fill="rgb(0, 0, 0)" stroke="rgb(60, 60, 60)" stroke-width="1px" opacity="0.25"></line><line x1="0" y1="109.4769228421727" x2="268.08499813079834" y2="109.4769228421727" fill="rgb(0, 0, 0)" stroke="rgb(60, 60, 60)" stroke-width="1px" opacity="0.25"></line><line x1="0" y1="95.792307486901" x2="268.08499813079834" y2="95.792307486901" fill="rgb(0, 0, 0)" stroke="rgb(60, 60, 60)" stroke-width="1px" opacity="0.25"></line><line x1="0" y1="82.10769213162928" x2="268.08499813079834" y2="82.10769213162928" fill="rgb(0, 0, 0)" stroke="rgb(60, 60, 60)" stroke-width="1px" opacity="0.25"></line><line x1="0" y1="68.42307677635758" x2="268.08499813079834" y2="68.42307677635758" fill="rgb(0, 0, 0)" stroke="rgb(60, 60, 60)" stroke-width="1px" opacity="0.25"></line><line x1="0" y1="54.73846142108683" x2="268.08499813079834" y2="54.73846142108683" fill="rgb(0, 0, 0)" stroke="rgb(60, 60, 60)" stroke-width="1px" opacity="0.25"></line><line x1="0" y1="41.05384606581512" x2="268.08499813079834" y2="41.05384606581512" fill="rgb(0, 0, 0)" stroke="rgb(60, 60, 60)" stroke-width="1px" opacity="0.25"></line><line x1="0" y1="27.369230710543416" x2="268.08499813079834" y2="27.369230710543416" fill="rgb(0, 0, 0)" stroke="rgb(60, 60, 60)" stroke-width="1px" opacity="0.25"></line><line x1="0" y1="13.684615355271708" x2="268.08499813079834" y2="13.684615355271708" fill="rgb(0, 0, 0)" stroke="rgb(60, 60, 60)" stroke-width="1px" opacity="0.25"></line><line x1="0" y1="0" x2="268.08499813079834" y2="0" fill="rgb(0, 0, 0)" stroke="rgb(60, 60, 60)" stroke-width="1px" opacity="0.25"></line></g></g></g><g><g><line x1="0" y1="-6609.669216596141" x2="268.08499813079834" y2="-6609.669216596141" fill="rgb(0, 0, 0)" stroke="rgb(153, 153, 153)" stroke-width="1.5px"></line></g></g><g><g><line x1="-44.68083302179972" y1="0" x2="-44.68083302179972" y2="177.89999961853027" fill="rgb(0, 0, 0)" stroke="rgb(153, 153, 153)" stroke-width="1.5px"></line></g></g><g><g><g><g><g><path style="fill: none;" stroke="rgb(204, 51, 17)" stroke-width="2px" d="M167.03929425199826,-1.5148614760851833L168.3931234925588,59.50897592250169L169.74695273311931,96.04609757198358L171.10078197367986,117.93780579922148L172.4546112142404,131.06414420587825L173.80844045480092,138.9359961786108L175.17343990361692,143.6576858506215L176.52726914417744,146.49018809830264L177.88109838473798,148.18950532765666L179.2371616669496,149.2090293911326L180.5909909075101,149.82071997242946L181.94482014807065,150.1877257331743L183.2986493886312,150.40792609801753L184.66364883744717,150.54004520396614L186.0174780780077,150.61994270063175L187.37354136021932,150.66788105325537L188.7385408090353,150.6966440124938L190.09237004959584,150.71390176919658L191.44619929015636,150.72425641643414L192.8000285307169,150.73046920233608L194.15385777127742,150.73419687299784L195.5188572200934,150.73643347507755L196.87268646065394,150.73777543621355L198.23768590946992,150.73858061285256L199.59151515003046,150.73906371882137L200.94534439059098,150.7393535823982L202.29917363115152,150.73952750054235L203.6641730799675,150.73963185142765L205.01800232052804,150.7396944619579L206.37183156108858,150.7397320282772L207.7256608016491,150.73975456806838L209.09066025046508,150.7397680919427L210.45565969928106,150.7397762062671L211.8094889398416,150.73978107486153L213.16331818040211,150.739783996018L214.51714742096266,150.73978574871268L215.8709766615232,150.73978680033005L217.23597611033915,150.7397874312999L218.5898053508997,150.73978780988065L219.9436345914602,150.73978803703045L221.30863404027622,150.73978817331897L222.66246328083673,150.74521733222966L224.01629252139728,150.74847482757664L225.37012176195782,150.75042932478428L226.72395100251833,150.75160202310883L228.07778024307888,150.75230564210338L229.4316094836394,150.75272781349972L230.78543872419993,150.75298111633867L232.13926796476045,150.75313309804187L233.493097205321,150.75322428706284L234.84916048753263,150.75327900047617L236.2141599363486,150.75331182852318L237.56798917690912,150.75333152535237L238.92181841746967,150.7533433434499L240.27564765803018,150.75335043430744L241.62947689859072,150.75335468882272L242.98330613915124,150.75335724153135L244.33936942136287,150.7533587731563L245.69319866192342,150.75335969213245L247.04702790248396,150.7533602435183L248.4120273512999,150.75336057434984" fill="none"></path></g><g><path style="fill: none;" stroke="rgb(255, 112, 67)" stroke-width="2px" d="M14.161590026259422,-35.59690667264469L14.82286635498206,5.576588508782264L15.059674769997597,30.276224814319804L16.19233388710022,45.0944010636528L16.697227300246556,53.98472889772059L17.249035588065784,59.31871756513531L17.617652460495634,62.51903587727463L18.169460748314858,64.4391999055387L18.406269163330396,65.59128861741699L18.643077578345935,66.28253835075188L18.879885993361473,66.69728693299345L19.266375199000038,66.94613562954865L19.6104176132679,67.09544468447638L20.151055692831676,67.18503005875243L20.633608689467113,67.23878126219259L20.87041710448265,67.27103197665096L21.10722551949819,67.29038240258822L21.50265089174112,67.3019926571652L21.855629472613334,67.30895880955609L22.092437887628872,67.31313850086286L22.49009730152289,67.31564631560181L22.9123311735789,67.31715100442885L23.321160795728364,67.31805381771903L23.557969210743902,67.31859550568964L24.036054124077165,67.31892051847143L24.272862539092703,67.3191155261403L24.50967095410824,67.31923253074163L25.17764940778414,67.3193027335034L25.73169173725446,67.31934485516085L26.124883067846298,67.31937012815415L26.361691482861836,67.31938529194993L26.598499897877375,67.3193943902278L26.835308312892913,67.31939984919453L27.083286936163905,67.31940312457435L27.320095351179443,67.31940508980341L27.55690376619498,96.6641946254407L28.030520596226058,114.27106834673361L28.55998846753438,124.83519257947553L28.79679688254992,134.63219806591158L29.13860525516669,140.51040135776566L29.48041362778346,144.0373233328779L29.717222042798998,146.15347651794252L30.0724346653223,147.42316842898168L31.189455490867296,148.18498357560424L31.540200030088425,148.64207266357852L31.788178653359413,148.9163261163627L32.024987068374955,149.08087818803358L32.36902948264281,149.17960943103594L32.60583789765835,149.23884817683754L33.0839228109916,149.2743914243183L33.32073122600714,149.29571737280696L33.557539641022686,149.30851294189958L34.397539301832516,149.31619028335572L34.63434771684806,149.32079668822942L34.873390173514686,149.32356053115384L35.22190067108472,149.32521883690904L35.458709086100264,149.3262138203616L35.811687666972475,149.32681081043373L36.178070497751236,149.32716900447562L36.51764482871692,149.32738392090135L37.22136794881026,149.3275128707564L37.64583586251736,149.32759024067022L37.8826442775329,149.32763666261735L38.119452692548435,149.32766451578618L38.356261107563974,149.3276812276873L38.76509072971344,149.32769125482815L39.10689910233021,149.3276972711121L39.34370751734574,149.32770088088324L39.58051593236129,149.32770304674514L39.81732434737682,149.3277043462623L40.05413276239236,149.32770512597259L40.290941177407895,149.32770559379952L40.75338779918353,149.3277058744957L41.68721720933914,149.3277060429126L41.924025624354684,149.32770614396316L42.527216870148976,149.32770620459308L42.94498265890281,149.32770624097165L43.18179107391834,149.327706262798L43.52136540488402,149.32770627589457L44.48870543980598,149.32770628375215L44.88859889535109,149.32770628846706L45.424768891612686,149.32770629129564L45.66157730662823,149.32770629299335L45.89838572164376,149.3277062940124L46.90817254793644,149.32770629462303L47.26785325376193,149.32770629498958L47.69455520912012,149.32770629520934L48.19944862226645,149.32770629534062L48.43625703728199,149.32770629542034L48.775831368247665,149.327706295468L49.11540569921335,149.3277062954962L49.35221411422888,149.32770629551368L49.72083098665873,149.32770629552343L49.957639401674264,149.32770629552925L50.19444781668981,149.32770629553315L50.616681688745814,149.3277062955351L50.85349010376136,149.32770629553704L51.19753251802921,149.327706295538L51.4455111413002,149.32770629553897L51.68231955631574,149.32770629553897L51.91912797133128,149.32770629553897L52.475404342452684,149.32770629553897L52.71221275746822,149.32770629553897L53.167957254290585,149.32770629553897L53.404765669306116,149.32770629553897L53.64157408432166,149.32770629553897L53.88955270759265,149.32770629553897L54.240297246813775,149.32770629553897L54.655828993916515,149.32770629553897L54.997637366533276,149.32770629553897L55.23444578154882,149.32770629553897L55.47125419656436,149.32770629553897L55.82423277743657,149.32770629553897L56.22412623298168,149.32770629553897L56.47210485625267,149.32770629553897L56.70891327126821,149.32770629553897L57.30763643376032,149.32770629553897L57.54444484877587,149.32770629553897L57.93763617936771,149.32770629553897L58.17444459438324,149.32770629553897L58.6726358825763,149.32770629553897L59.012210213541984,149.32770629553897L59.41880579404036,149.32770629553897L59.6556142090559,149.32770629553897L59.892422624071436,149.32770629553897L60.35486924584706,149.32770629553897L60.69891166011492,149.32770629553897L60.94689028338591,149.32770629553897L61.68188998659452,149.32770629553897L61.91869840161005,149.32770629553897L62.30071952394644,149.32770629553897L62.85699589506785,149.32770629553897L63.20103830933571,149.32770629553897L63.56295305681229,149.32770629553897L63.913697596033415,149.32770629553897L64.62859092438221,149.32770629553897L64.98603758855661,149.32770629553897L65.86178191578388,149.32770629553897L66.09859033079942,146.97942162321542L66.70848370154698,145.5704508198209L66.94529211656253,144.72506833778516L67.18210053157806,144.21783884856316L67.4189089465936,143.91350115503013L67.77188752746582,143.7308985389109L68.1114618584315,143.62133696923837L68.34827027344704,143.55560002743564L68.58507868846259,143.51615786235402L68.8218871034781,143.49249256330464L69.05869551849365,143.47829338387461L69.48092939054966,143.46977387621664L69.71773780556519,143.46466217162202L70.09305680294833,143.46159514886563L70.46167367537815,143.45975493521163L70.6984820903937,140.7869184237381L70.93529050540924,139.18321651685415L71.18326912868024,138.2209953727238L71.42007754369577,137.64366268624576L71.85348162400723,137.297263074358L72.09029003902278,137.08942330722533L72.32709845403829,136.9647194469457L72.56390686905384,136.88989713077797L72.81188549232483,136.84500374107847L73.28103423905372,136.8180677072582L73.70326811110972,136.80190608696603L73.95124673438072,136.79220911479013L74.29752319029967,136.78639093148539L74.54550181357067,136.78290002150177L74.88954422783851,136.78080547551235L75.12635264285406,136.77954874791834L75.47262909877301,136.7787947113623L75.72060772204398,136.77834228942828L76.48688400836785,136.7780708362679L76.7236924233834,136.77790796437245L76.9716710466544,136.77781024123456L77.20847946166991,136.77775160735206L77.5480537926356,136.7777164270231L77.78486220765114,136.77769531882439L78.1266705802679,136.77768265390594L78.47071299453577,136.77767505495447L78.70752140955129,138.07041728611895L78.94432982456684,138.84606262481742L79.28613819718362,139.3114498280371L80.06805277506511,139.59068214996793L80.30486119008064,139.75822154312644L80.73156314543883,139.85874517902212L80.96837156045437,139.91905936055934L81.2051799754699,139.95524786948147L81.56039259799321,139.97696097483495L81.79720101300875,139.98998883804705L82.03400942802429,139.99780555597468L82.61486025730768,140.00249558673048L82.85166867232323,140.00530960518472L83.32081741905213,140.00699801625709L83.55762583406765,140.00801106289973L83.90390228998662,140.00861889088668L84.14071070500215,140.00898358767847L84.37751912001768,142.68030835705656L84.61432753503323,144.2831032186838L85.0901784067154,145.24478013566033L85.4654974040985,145.8217862858459L85.70230581911404,146.1679899759572L85.93911423412959,146.3757121900236L86.18709285740057,146.50034551846403L86.59145439624787,146.57512551552787L86.82826281126341,146.6199935137668L87.2326243501107,146.64691431270955L87.57443272272745,146.6630667920756L87.91624109534423,146.67275827969542L88.15304951035976,146.6785731722669L88.3898579253753,146.68206210780943L88.62666634039084,146.68415546913573L89.16507037830353,146.6854114859309L89.40187879331907,146.6861650960082L89.6386872083346,146.68661726205463L89.87549562335015,146.68688856168185L90.11230403836568,146.68705134145878L90.45411241098245,146.6871490093253L90.69092082599799,146.68720761004488L90.92772924101352,146.6872427704766L91.16453765602907,146.6872638667358L91.4013460710446,146.68727652449095L91.64038852771122,146.68728411914464L91.87719694272677,146.68728867593646L92.11400535774231,146.68729141001174L92.36198398101331,146.6872930504573L92.8959199356238,146.68729403472383L93.13272835063934,146.68729462528378L93.36953676565489,146.68729497961994L93.60857922232151,146.68729519222146L93.84538763733705,146.68729531978312L94.09336626060804,146.68729539631974L94.33017467562357,146.68729544224095L94.56698309063911,146.68729546979444L94.81496171391011,146.68729548632632L95.05177012892564,146.68729549624527L95.3980465848446,146.68729550219703L95.63485499986012,146.68729550576847L95.87166341487567,146.68729550791056L96.1084718298912,146.68729550919602L96.34528024490675,146.68729550996707L96.69602478412787,146.68729551042992L97.06240761490662,146.68729551070803L97.4042159875234,146.68729551087426L97.64102440253895,146.68729551097442L97.87783281755446,146.6872955110347L98.11464123257001,146.6872955110707L98.46091768848896,146.6872955110921L98.6977261035045,146.68729551110474L98.93453451852004,146.68729551111252L99.34783222397168,146.68729551111738L99.58464063898722,146.68729551112028L99.92421496995291,146.68729551112224L100.16102338496843,146.6872955111232L100.39783179998398,146.68729551112418L100.63464021499952,146.68729551112418L100.88261883827052,146.68729551112418L101.11942725328603,146.68729551112418L101.46793775085608,146.68729551112418L101.70474616587163,146.68729551112418L101.94155458088716,146.68729551112418L102.17836299590269,146.68729551112418L102.64080961767833,146.68729551112418L103.02059669836362,146.68729551112418L103.25740511337916,146.68729551112418L103.4942135283947,146.68729551112418L103.73102194341024,146.68729551112418L103.97900056668124,146.68729551112418L104.21580898169677,146.68729551112418L104.45485143836339,146.68729551112418L104.69165985337894,146.68729551112418L104.92846826839448,146.68729551112418L105.16527668341,146.68729551112418L105.40208509842554,146.68729551112418L105.65006372169654,146.68729551112418L105.88687213671209,146.68729551112418L106.1236805517276,146.68729551112418L106.36048896674315,146.68729551112418L106.5972973817587,146.68729551112418L106.99048871235053,146.68729551112418L107.22729712736607,146.68729551112418L107.4641055423816,146.68729551112418L107.70091395739715,146.68729551112418L107.94889258066813,146.68729551112418L108.19687120393912,146.68729551112418L108.43367961895466,146.68729551112418L108.67048803397019,146.68729551112418L108.90729644898573,146.68729551112418L109.14410486400128,146.68729551112418L109.38091327901681,146.68729551112418L109.61772169403235,146.68729551112418L109.85453010904789,146.68729551112418L110.19410444001358,146.68729551112418L110.4309128550291,146.68729551112418L110.66995531169573,146.68729551112418L110.90676372671128,146.68729551112418L111.14357214172682,146.68729551112418L111.38038055674235,146.42732624053528L111.61718897175788,147.97210749661247L111.86516759502888,148.89897625025876L112.10197601004442,149.4550975024471L112.33878442505996,149.78877025376013L112.57559284007549,149.98897390454815L112.81240125509103,150.10909609502076L113.06037987836203,150.18116940930472L113.30835850163301,150.2244133978745L113.54516691664854,150.42701360862213L113.78197533166409,150.5485737350699L114.01878374667963,150.6215098109388L114.25559216169516,150.66527145646032L114.4924005767107,150.69152844377282L114.74037919998169,150.70728263616016L114.97718761499723,150.71673515159296L115.21399603001277,150.7224066608528L115.4508044450283,150.7258095664089L115.68761286004384,150.727851309742L116.02942123266061,150.72907635574262L116.26846368932723,150.72981138334222L116.73984647770723,150.7302523999016L116.97888893437386,150.7305170098378L117.21569734938939,150.7306757757999L117.55527168035508,150.73077103537622L117.79208009537061,150.73082819112275L118.0400587186416,150.7308624845699L118.27686713365713,150.7308830606382L118.51367554867268,150.7308954062796L118.7527180053393,150.7309028136644L119.0006966286103,150.73090725809527L119.23750504362583,150.7309099247546L119.48548366689681,150.73091152474942L119.73346229016781,150.73091248474705L119.97027070518335,150.73091306074508L120.20931316184998,150.7309134063437L120.44612157686551,150.73091361370325L120.68292999188105,150.73091373811843L120.9197384068966,150.73091381276768L121.15654682191213,150.73091385755805L121.39335523692766,150.73091388443189L121.6301636519432,150.73091390055538L121.86697206695875,150.73091391023027L122.10378048197428,150.7309139160352L122.35175910524526,150.73091391951814L122.58856752026081,150.73091392160774L122.82760997692743,150.7309139228611L123.06665243359407,150.73091392361368L123.30346084860962,150.73091392406488L123.54026926362513,150.7309139243352L123.77707767864068,150.73091392449854L124.02505630191168,150.73091392459577L124.27303492518267,150.73091392465412L124.50984334019819,150.73091392468913L124.9097367957433,150.7309139247105L125.14654521075884,150.73091392472315L125.50175783328216,150.73091392473094L125.7385662482977,150.7309139247358L125.97537466331323,150.73091392473773L126.22335328658421,150.7309139247397L126.46016170159976,150.73091392474066L126.6969701166153,150.73091392474163L126.93377853163082,150.73091392474163L127.17058694664637,150.73091392474163L127.40739536166191,150.73091392474163L127.64420377667746,150.73091392474163L128.04856531552474,150.73091392474163L128.28537373054027,150.73091392474163L128.5221821455558,150.73091392474163L128.75899056057136,150.73091392474163L128.998033017238,150.73091392474163L129.41356476434072,150.73091392474163L129.65037317935625,150.73091392474163L129.88718159437178,150.73091392474163L130.12399000938734,150.73091392474163L130.36079842440287,150.73091392474163L130.59760683941843,150.73091392474163L130.83441525443394,150.73091392474163L131.0712236694495,150.73091392474163L131.30803208446503,150.73091392474163L131.54484049948059,150.73091392474163L131.7816489144961,150.73091392474163L132.01845732951165,150.73091392474163L132.25526574452718,150.73091392474163L132.49207415954274,150.73091392474163L132.72888257455824,150.73091392474163L132.9656909895738,150.73091392474163L133.20249940458933,150.73091392474163L133.4393078196049,150.73091392474163L133.68728644287586,150.73091392474163L133.9240948578914,150.73091392474163L134.16090327290695,150.73091392474163L134.39994572957355,150.73091392474163L134.6367541445891,150.73091392474163L134.87356255960464,150.73091392474163L135.1103709746202,150.73091392474163L135.34717938963573,150.73091392474163L135.58398780465126,150.73091392474163L135.82079621966682,150.73091392474163L136.06877484293778,150.73091392474163L136.31675346620875,150.73091392474163L136.5535618812243,150.73091392474163L136.8015405044953,150.73091392474163L137.2282424598535,150.73091392474163L137.46505087486904,150.73091392474163L137.86494433041415,150.73091392474163L138.31175266063212,150.73091392474163L138.54856107564765,150.73091392474163L138.78536949066321,150.73091392474163L139.02217790567875,150.72840819683196L139.2589863206943,150.7269047600869L139.49579473570984,150.7260026980395L139.7437733589808,150.72546146081066L139.98058177399636,150.72513671847358L140.21962423066296,150.7249418730715L140.45643264567852,150.72482496582967L140.7044112689495,150.72475482148477L140.94121968396507,150.7247127348786L141.17802809898058,150.72468748291433L141.4148365139961,150.72467233173577L141.65164492901167,150.72466324102862L141.8884533440272,150.72465778660472L142.12526175904273,150.72569856724496L142.3620701740583,150.72632303563026L142.59887858907382,150.72669771666085L142.83568700408938,150.72692252527884L143.07249541910488,150.72705741045021L143.3093038341204,150.72713834155263L143.54611224913597,150.7271869002145L143.7829206641515,150.7272160354108L144.01972907916706,150.7272335165286L144.2565374941826,150.72724400520045L144.49334590919813,150.72725029840296L144.7301543242137,150.7272540743245L144.9669627392292,150.72725633987758L145.20377115424472,150.72725769920982L145.44281361091137,150.72725851480863L145.681856067578,150.72725900416825L145.91866448259353,150.72725929778306L146.1554728976091,150.72725947395256L146.3945153542757,150.72725957965383L146.6424939775467,150.7272596430744L146.89047260081767,150.72725968112735L147.13845122408867,150.7272597039591L147.3752596391042,150.7272597176576L147.6232382623752,150.72725972587784L147.86004667739076,150.7272597308096L148.0968550924063,150.72725973376845L148.3336635074218,150.72725973554398L148.57047192243735,150.7272597366087L148.80728033745288,150.72725973724852L149.04408875246844,150.7272597376316L149.28089716748397,150.7272597378611L149.5177055824995,150.72725973799916L149.75451399751506,150.72725973808278L149.9913224125306,150.72725973813237L150.2281308275461,150.7272597381625L150.46493924256166,150.72725973818L150.7039816992283,150.72725973819072L150.95196032249927,150.72725973819752L151.1887687375148,150.7272597382014L151.42557715253037,150.72725973820337L151.6623855675459,150.7272597382053L151.89919398256143,150.7272597382053L152.13600239757696,150.7272597382053L152.38398102084795,150.7272597382053" fill="none"></path></g></g></g></g><g opacity="0.2"><g><g><g><path style="fill: none;" stroke="rgb(204, 51, 17)" stroke-width="2px" d="M164.3316357708772,-274.0035393928297L165.68546501143774,150.71264299206973L167.03929425199826,150.71264299206973L168.3931234925588,150.71264299206973L169.74695273311931,150.73248000468493L171.10078197367986,150.73248000468493L172.4546112142404,150.7382222978104L173.80844045480092,150.7382222978104L175.17343990361692,150.7382222978104L176.52726914417744,150.7382222978104L177.88109838473798,150.7382222978104L179.2371616669496,150.7382222978104L180.5909909075101,150.7382222978104L181.94482014807065,150.7382222978104L183.2986493886312,150.7382222978104L184.66364883744717,150.7382222978104L186.0174780780077,150.7397883777537L187.37354136021932,150.7397883777537L188.7385408090353,150.7397883777537L190.09237004959584,150.7397883777537L191.44619929015636,150.7397883777537L192.8000285307169,150.7397883777537L194.15385777127742,150.7397883777537L195.5188572200934,150.7397883777537L196.87268646065394,150.7397883777537L198.23768590946992,150.7397883777537L199.59151515003046,150.7397883777537L200.94534439059098,150.7397883777537L202.29917363115152,150.7397883777537L203.6641730799675,150.7397883777537L205.01800232052804,150.7397883777537L206.37183156108858,150.7397883777537L207.7256608016491,150.7397883777537L209.09066025046508,150.7397883777537L210.45565969928106,150.7397883777537L211.8094889398416,150.7397883777537L213.16331818040211,150.7397883777537L214.51714742096266,150.7397883777537L215.8709766615232,150.7397883777537L217.23597611033915,150.7397883777537L218.5898053508997,150.7397883777537L219.9436345914602,150.7397883777537L221.30863404027622,150.7397883777537L222.66246328083673,150.7533610705957L224.01629252139728,150.7533610705957L225.37012176195782,150.7533610705957L226.72395100251833,150.7533610705957L228.07778024307888,150.7533610705957L229.4316094836394,150.7533610705957L230.78543872419993,150.7533610705957L232.13926796476045,150.7533610705957L233.493097205321,150.7533610705957L234.84916048753263,150.7533610705957L236.2141599363486,150.7533610705957L237.56798917690912,150.7533610705957L238.92181841746967,150.7533610705957L240.27564765803018,150.7533610705957L241.62947689859072,150.7533610705957L242.98330613915124,150.7533610705957L244.33936942136287,150.7533610705957L245.69319866192342,150.7533610705957L247.04702790248396,150.7533610705957L248.4120273512999,150.7533610705957" fill="none"></path></g><g><path style="fill: none;" stroke="rgb(255, 112, 67)" stroke-width="2px" d="M11.684037835200629,-2095.2370574625693L11.920846250216167,67.31940803764509L12.157654665231705,67.31940803764509L12.499463037848473,67.31940803764509L12.8502075770696,67.31940803764509L13.087015992085139,67.31940803764509L14.161590026259422,67.31940803764509L14.82286635498206,67.31940803764509L15.059674769997597,67.31940803764509L16.19233388710022,67.31940803764509L16.697227300246556,67.31940803764509L17.249035588065784,67.31940803764509L17.617652460495634,67.31940803764509L18.169460748314858,67.31940803764509L18.406269163330396,67.31940803764509L18.643077578345935,67.31940803764509L18.879885993361473,67.31940803764509L19.266375199000038,67.31940803764509L19.6104176132679,67.31940803764509L20.151055692831676,67.31940803764509L20.633608689467113,67.31940803764509L20.87041710448265,67.31940803764509L21.10722551949819,67.31940803764509L21.50265089174112,67.31940803764509L21.855629472613334,67.31940803764509L22.092437887628872,67.31940803764509L22.49009730152289,67.31940803764509L22.9123311735789,67.31940803764509L23.321160795728364,67.31940803764509L23.557969210743902,67.31940803764509L24.036054124077165,67.31940803764509L24.272862539092703,67.31940803764509L24.50967095410824,67.31940803764509L25.17764940778414,67.31940803764509L25.73169173725446,67.31940803764509L26.124883067846298,67.31940803764509L26.361691482861836,67.31940803764509L26.598499897877375,67.31940803764509L26.835308312892913,67.31940803764509L27.083286936163905,67.31940803764509L27.320095351179443,67.31940803764509L27.55690376619498,140.68137892854367L28.030520596226058,140.68137892854367L28.55998846753438,140.68137892854367L28.79679688254992,149.32770629553897L29.13860525516669,149.32770629553897L29.48041362778346,149.32770629553897L29.717222042798998,149.32770629553897L30.0724346653223,149.32770629553897L31.189455490867296,149.32770629553897L31.540200030088425,149.32770629553897L31.788178653359413,149.32770629553897L32.024987068374955,149.32770629553897L32.36902948264281,149.32770629553897L32.60583789765835,149.32770629553897L33.0839228109916,149.32770629553897L33.32073122600714,149.32770629553897L33.557539641022686,149.32770629553897L34.397539301832516,149.32770629553897L34.63434771684806,149.32770629553897L34.873390173514686,149.32770629553897L35.22190067108472,149.32770629553897L35.458709086100264,149.32770629553897L35.811687666972475,149.32770629553897L36.178070497751236,149.32770629553897L36.51764482871692,149.32770629553897L37.22136794881026,149.32770629553897L37.64583586251736,149.32770629553897L37.8826442775329,149.32770629553897L38.119452692548435,149.32770629553897L38.356261107563974,149.32770629553897L38.76509072971344,149.32770629553897L39.10689910233021,149.32770629553897L39.34370751734574,149.32770629553897L39.58051593236129,149.32770629553897L39.81732434737682,149.32770629553897L40.05413276239236,149.32770629553897L40.290941177407895,149.32770629553897L40.75338779918353,149.32770629553897L41.68721720933914,149.32770629553897L41.924025624354684,149.32770629553897L42.527216870148976,149.32770629553897L42.94498265890281,149.32770629553897L43.18179107391834,149.32770629553897L43.52136540488402,149.32770629553897L44.48870543980598,149.32770629553897L44.88859889535109,149.32770629553897L45.424768891612686,149.32770629553897L45.66157730662823,149.32770629553897L45.89838572164376,149.32770629553897L46.90817254793644,149.32770629553897L47.26785325376193,149.32770629553897L47.69455520912012,149.32770629553897L48.19944862226645,149.32770629553897L48.43625703728199,149.32770629553897L48.775831368247665,149.32770629553897L49.11540569921335,149.32770629553897L49.35221411422888,149.32770629553897L49.72083098665873,149.32770629553897L49.957639401674264,149.32770629553897L50.19444781668981,149.32770629553897L50.616681688745814,149.32770629553897L50.85349010376136,149.32770629553897L51.19753251802921,149.32770629553897L51.4455111413002,149.32770629553897L51.68231955631574,149.32770629553897L51.91912797133128,149.32770629553897L52.475404342452684,149.32770629553897L52.71221275746822,149.32770629553897L53.167957254290585,149.32770629553897L53.404765669306116,149.32770629553897L53.64157408432166,149.32770629553897L53.88955270759265,149.32770629553897L54.240297246813775,149.32770629553897L54.655828993916515,149.32770629553897L54.997637366533276,149.32770629553897L55.23444578154882,149.32770629553897L55.47125419656436,149.32770629553897L55.82423277743657,149.32770629553897L56.22412623298168,149.32770629553897L56.47210485625267,149.32770629553897L56.70891327126821,149.32770629553897L57.30763643376032,149.32770629553897L57.54444484877587,149.32770629553897L57.93763617936771,149.32770629553897L58.17444459438324,149.32770629553897L58.6726358825763,149.32770629553897L59.012210213541984,149.32770629553897L59.41880579404036,149.32770629553897L59.6556142090559,149.32770629553897L59.892422624071436,149.32770629553897L60.35486924584706,149.32770629553897L60.69891166011492,149.32770629553897L60.94689028338591,149.32770629553897L61.68188998659452,149.32770629553897L61.91869840161005,149.32770629553897L62.30071952394644,149.32770629553897L62.85699589506785,149.32770629553897L63.20103830933571,149.32770629553897L63.56295305681229,149.32770629553897L63.913697596033415,149.32770629553897L64.62859092438221,149.32770629553897L64.98603758855661,149.32770629553897L65.86178191578388,149.32770629553897L66.09859033079942,143.45699461473058L66.70848370154698,143.45699461473058L66.94529211656253,143.45699461473058L67.18210053157806,143.45699461473058L67.4189089465936,143.45699461473058L67.77188752746582,143.45699461473058L68.1114618584315,143.45699461473058L68.34827027344704,143.45699461473058L68.58507868846259,143.45699461473058L68.8218871034781,143.45699461473058L69.05869551849365,143.45699461473058L69.48092939054966,143.45699461473058L69.71773780556519,143.45699461473058L70.09305680294833,143.45699461473058L70.46167367537815,143.45699461473058L70.6984820903937,136.77766365652826L70.93529050540924,136.77766365652826L71.18326912868024,136.77766365652826L71.42007754369577,136.77766365652826L71.85348162400723,136.77766365652826L72.09029003902278,136.77766365652826L72.32709845403829,136.77766365652826L72.56390686905384,136.77766365652826L72.81188549232483,136.77766365652826L73.28103423905372,136.77766365652826L73.70326811110972,136.77766365652826L73.95124673438072,136.77766365652826L74.29752319029967,136.77766365652826L74.54550181357067,136.77766365652826L74.88954422783851,136.77766365652826L75.12635264285406,136.77766365652826L75.47262909877301,136.77766365652826L75.72060772204398,136.77766365652826L76.48688400836785,136.77766365652826L76.7236924233834,136.77766365652826L76.9716710466544,136.77766365652826L77.20847946166991,136.77766365652826L77.5480537926356,136.77766365652826L77.78486220765114,136.77766365652826L78.1266705802679,136.77766365652826L78.47071299453577,136.77766365652826L78.70752140955129,140.00953063286516L78.94432982456684,140.00953063286516L79.28613819718362,140.00953063286516L80.06805277506511,140.00953063286516L80.30486119008064,140.00953063286516L80.73156314543883,140.00953063286516L80.96837156045437,140.00953063286516L81.2051799754699,140.00953063286516L81.56039259799321,140.00953063286516L81.79720101300875,140.00953063286516L82.03400942802429,140.00953063286516L82.61486025730768,140.00953063286516L82.85166867232323,140.00953063286516L83.32081741905213,140.00953063286516L83.55762583406765,140.00953063286516L83.90390228998662,140.00953063286516L84.14071070500215,140.00953063286516L84.37751912001768,146.68729551112418L84.61432753503323,146.68729551112418L85.0901784067154,146.68729551112418L85.4654974040985,146.68729551112418L85.70230581911404,146.68729551112418L85.93911423412959,146.68729551112418L86.18709285740057,146.68729551112418L86.59145439624787,146.68729551112418L86.82826281126341,146.68729551112418L87.2326243501107,146.68729551112418L87.57443272272745,146.68729551112418L87.91624109534423,146.68729551112418L88.15304951035976,146.68729551112418L88.3898579253753,146.68729551112418L88.62666634039084,146.68729551112418L89.16507037830353,146.68729551112418L89.40187879331907,146.68729551112418L89.6386872083346,146.68729551112418L89.87549562335015,146.68729551112418L90.11230403836568,146.68729551112418L90.45411241098245,146.68729551112418L90.69092082599799,146.68729551112418L90.92772924101352,146.68729551112418L91.16453765602907,146.68729551112418L91.4013460710446,146.68729551112418L91.64038852771122,146.68729551112418L91.87719694272677,146.68729551112418L92.11400535774231,146.68729551112418L92.36198398101331,146.68729551112418L92.8959199356238,146.68729551112418L93.13272835063934,146.68729551112418L93.36953676565489,146.68729551112418L93.60857922232151,146.68729551112418L93.84538763733705,146.68729551112418L94.09336626060804,146.68729551112418L94.33017467562357,146.68729551112418L94.56698309063911,146.68729551112418L94.81496171391011,146.68729551112418L95.05177012892564,146.68729551112418L95.3980465848446,146.68729551112418L95.63485499986012,146.68729551112418L95.87166341487567,146.68729551112418L96.1084718298912,146.68729551112418L96.34528024490675,146.68729551112418L96.69602478412787,146.68729551112418L97.06240761490662,146.68729551112418L97.4042159875234,146.68729551112418L97.64102440253895,146.68729551112418L97.87783281755446,146.68729551112418L98.11464123257001,146.68729551112418L98.46091768848896,146.68729551112418L98.6977261035045,146.68729551112418L98.93453451852004,146.68729551112418L99.34783222397168,146.68729551112418L99.58464063898722,146.68729551112418L99.92421496995291,146.68729551112418L100.16102338496843,146.68729551112418L100.39783179998398,146.68729551112418L100.63464021499952,146.68729551112418L100.88261883827052,146.68729551112418L101.11942725328603,146.68729551112418L101.46793775085608,146.68729551112418L101.70474616587163,146.68729551112418L101.94155458088716,146.68729551112418L102.17836299590269,146.68729551112418L102.64080961767833,146.68729551112418L103.02059669836362,146.68729551112418L103.25740511337916,146.68729551112418L103.4942135283947,146.68729551112418L103.73102194341024,146.68729551112418L103.97900056668124,146.68729551112418L104.21580898169677,146.68729551112418L104.45485143836339,146.68729551112418L104.69165985337894,146.68729551112418L104.92846826839448,146.68729551112418L105.16527668341,146.68729551112418L105.40208509842554,146.68729551112418L105.65006372169654,146.68729551112418L105.88687213671209,146.68729551112418L106.1236805517276,146.68729551112418L106.36048896674315,146.68729551112418L106.5972973817587,146.68729551112418L106.99048871235053,146.68729551112418L107.22729712736607,146.68729551112418L107.4641055423816,146.68729551112418L107.70091395739715,146.68729551112418L107.94889258066813,146.68729551112418L108.19687120393912,146.68729551112418L108.43367961895466,146.68729551112418L108.67048803397019,146.68729551112418L108.90729644898573,146.68729551112418L109.14410486400128,146.68729551112418L109.38091327901681,146.68729551112418L109.61772169403235,146.68729551112418L109.85453010904789,146.68729551112418L110.19410444001358,146.68729551112418L110.4309128550291,146.68729551112418L110.66995531169573,146.68729551112418L110.90676372671128,146.68729551112418L111.14357214172682,146.68729551112418L111.38038055674235,146.03737233465196L111.61718897175788,150.2892793807292L111.86516759502888,150.2892793807292L112.10197601004442,150.2892793807292L112.33878442505996,150.2892793807292L112.57559284007549,150.2892793807292L112.81240125509103,150.2892793807292L113.06037987836203,150.2892793807292L113.30835850163301,150.2892793807292L113.54516691664854,150.73091392474163L113.78197533166409,150.73091392474163L114.01878374667963,150.73091392474163L114.25559216169516,150.73091392474163L114.4924005767107,150.73091392474163L114.74037919998169,150.73091392474163L114.97718761499723,150.73091392474163L115.21399603001277,150.73091392474163L115.4508044450283,150.73091392474163L115.68761286004384,150.73091392474163L116.02942123266061,150.73091392474163L116.26846368932723,150.73091392474163L116.73984647770723,150.73091392474163L116.97888893437386,150.73091392474163L117.21569734938939,150.73091392474163L117.55527168035508,150.73091392474163L117.79208009537061,150.73091392474163L118.0400587186416,150.73091392474163L118.27686713365713,150.73091392474163L118.51367554867268,150.73091392474163L118.7527180053393,150.73091392474163L119.0006966286103,150.73091392474163L119.23750504362583,150.73091392474163L119.48548366689681,150.73091392474163L119.73346229016781,150.73091392474163L119.97027070518335,150.73091392474163L120.20931316184998,150.73091392474163L120.44612157686551,150.73091392474163L120.68292999188105,150.73091392474163L120.9197384068966,150.73091392474163L121.15654682191213,150.73091392474163L121.39335523692766,150.73091392474163L121.6301636519432,150.73091392474163L121.86697206695875,150.73091392474163L122.10378048197428,150.73091392474163L122.35175910524526,150.73091392474163L122.58856752026081,150.73091392474163L122.82760997692743,150.73091392474163L123.06665243359407,150.73091392474163L123.30346084860962,150.73091392474163L123.54026926362513,150.73091392474163L123.77707767864068,150.73091392474163L124.02505630191168,150.73091392474163L124.27303492518267,150.73091392474163L124.50984334019819,150.73091392474163L124.9097367957433,150.73091392474163L125.14654521075884,150.73091392474163L125.50175783328216,150.73091392474163L125.7385662482977,150.73091392474163L125.97537466331323,150.73091392474163L126.22335328658421,150.73091392474163L126.46016170159976,150.73091392474163L126.6969701166153,150.73091392474163L126.93377853163082,150.73091392474163L127.17058694664637,150.73091392474163L127.40739536166191,150.73091392474163L127.64420377667746,150.73091392474163L128.04856531552474,150.73091392474163L128.28537373054027,150.73091392474163L128.5221821455558,150.73091392474163L128.75899056057136,150.73091392474163L128.998033017238,150.73091392474163L129.41356476434072,150.73091392474163L129.65037317935625,150.73091392474163L129.88718159437178,150.73091392474163L130.12399000938734,150.73091392474163L130.36079842440287,150.73091392474163L130.59760683941843,150.73091392474163L130.83441525443394,150.73091392474163L131.0712236694495,150.73091392474163L131.30803208446503,150.73091392474163L131.54484049948059,150.73091392474163L131.7816489144961,150.73091392474163L132.01845732951165,150.73091392474163L132.25526574452718,150.73091392474163L132.49207415954274,150.73091392474163L132.72888257455824,150.73091392474163L132.9656909895738,150.73091392474163L133.20249940458933,150.73091392474163L133.4393078196049,150.73091392474163L133.68728644287586,150.73091392474163L133.9240948578914,150.73091392474163L134.16090327290695,150.73091392474163L134.39994572957355,150.73091392474163L134.6367541445891,150.73091392474163L134.87356255960464,150.73091392474163L135.1103709746202,150.73091392474163L135.34717938963573,150.73091392474163L135.58398780465126,150.73091392474163L135.82079621966682,150.73091392474163L136.06877484293778,150.73091392474163L136.31675346620875,150.73091392474163L136.5535618812243,150.73091392474163L136.8015405044953,150.73091392474163L137.2282424598535,150.73091392474163L137.46505087486904,150.73091392474163L137.86494433041415,150.73091392474163L138.31175266063212,150.73091392474163L138.54856107564765,150.73091392474163L138.78536949066321,150.73091392474163L139.02217790567875,150.72464960496842L139.2589863206943,150.72464960496842L139.49579473570984,150.72464960496842L139.7437733589808,150.72464960496842L139.98058177399636,150.72464960496842L140.21962423066296,150.72464960496842L140.45643264567852,150.72464960496842L140.7044112689495,150.72464960496842L140.94121968396507,150.72464960496842L141.17802809898058,150.72464960496842L141.4148365139961,150.72464960496842L141.65164492901167,150.72464960496842L141.8884533440272,150.72464960496842L142.12526175904273,150.72725973820724L142.3620701740583,150.72725973820724L142.59887858907382,150.72725973820724L142.83568700408938,150.72725973820724L143.07249541910488,150.72725973820724L143.3093038341204,150.72725973820724L143.54611224913597,150.72725973820724L143.7829206641515,150.72725973820724L144.01972907916706,150.72725973820724L144.2565374941826,150.72725973820724L144.49334590919813,150.72725973820724L144.7301543242137,150.72725973820724L144.9669627392292,150.72725973820724L145.20377115424472,150.72725973820724L145.44281361091137,150.72725973820724L145.681856067578,150.72725973820724L145.91866448259353,150.72725973820724L146.1554728976091,150.72725973820724L146.3945153542757,150.72725973820724L146.6424939775467,150.72725973820724L146.89047260081767,150.72725973820724L147.13845122408867,150.72725973820724L147.3752596391042,150.72725973820724L147.6232382623752,150.72725973820724L147.86004667739076,150.72725973820724L148.0968550924063,150.72725973820724L148.3336635074218,150.72725973820724L148.57047192243735,150.72725973820724L148.80728033745288,150.72725973820724L149.04408875246844,150.72725973820724L149.28089716748397,150.72725973820724L149.5177055824995,150.72725973820724L149.75451399751506,150.72725973820724L149.9913224125306,150.72725973820724L150.2281308275461,150.72725973820724L150.46493924256166,150.72725973820724L150.7039816992283,150.72725973820724L150.95196032249927,150.72725973820724L151.1887687375148,150.72725973820724L151.42557715253037,150.72725973820724L151.6623855675459,150.72725973820724L151.89919398256143,150.72725973820724L152.13600239757696,150.72725973820724L152.38398102084795,150.72725973820724" fill="none"></path></g></g></g></g></g></g><g transform="translate(61, 177)" clip-path="url(#clip_1)"><clipPath id="clip_1"><rect width="268" height="22"></rect></clipPath><g><g><line x1="0" y1="0" x2="0" y2="5" style="visibility: inherit;" fill="rgb(0, 0, 0)" stroke="rgb(204, 204, 204)" stroke-width="1px"></line><line x1="22.34041651089986" y1="0" x2="22.34041651089986" y2="5" style="visibility: inherit;" fill="rgb(0, 0, 0)" stroke="rgb(204, 204, 204)" stroke-width="1px"></line><line x1="44.68083302179972" y1="0" x2="44.68083302179972" y2="5" style="visibility: inherit;" fill="rgb(0, 0, 0)" stroke="rgb(204, 204, 204)" stroke-width="1px"></line><line x1="67.02124953269958" y1="0" x2="67.02124953269958" y2="5" style="visibility: inherit;" fill="rgb(0, 0, 0)" stroke="rgb(204, 204, 204)" stroke-width="1px"></line><line x1="89.36166604359944" y1="0" x2="89.36166604359944" y2="5" style="visibility: inherit;" fill="rgb(0, 0, 0)" stroke="rgb(204, 204, 204)" stroke-width="1px"></line><line x1="111.70208255449931" y1="0" x2="111.70208255449931" y2="5" style="visibility: inherit;" fill="rgb(0, 0, 0)" stroke="rgb(204, 204, 204)" stroke-width="1px"></line><line x1="134.04249906539917" y1="0" x2="134.04249906539917" y2="5" style="visibility: inherit;" fill="rgb(0, 0, 0)" stroke="rgb(204, 204, 204)" stroke-width="1px"></line><line x1="156.38291557629904" y1="0" x2="156.38291557629904" y2="5" style="visibility: inherit;" fill="rgb(0, 0, 0)" stroke="rgb(204, 204, 204)" stroke-width="1px"></line><line x1="178.72333208719888" y1="0" x2="178.72333208719888" y2="5" style="visibility: inherit;" fill="rgb(0, 0, 0)" stroke="rgb(204, 204, 204)" stroke-width="1px"></line><line x1="201.06374859809875" y1="0" x2="201.06374859809875" y2="5" style="visibility: inherit;" fill="rgb(0, 0, 0)" stroke="rgb(204, 204, 204)" stroke-width="1px"></line><line x1="223.40416510899863" y1="0" x2="223.40416510899863" y2="5" style="visibility: inherit;" fill="rgb(0, 0, 0)" stroke="rgb(204, 204, 204)" stroke-width="1px"></line><line x1="245.74458161989847" y1="0" x2="245.74458161989847" y2="5" style="visibility: inherit;" fill="rgb(0, 0, 0)" stroke="rgb(204, 204, 204)" stroke-width="1px"></line><line x1="268.08499813079834" y1="0" x2="268.08499813079834" y2="5" style="visibility: inherit;" fill="rgb(0, 0, 0)" stroke="rgb(204, 204, 204)" stroke-width="1px"></line></g><g transform="translate(0, 8)"><text style="text-anchor: middle; visibility: hidden; font-family: Roboto, sans-serif; font-size: 12px; font-weight: 200;" x="0" y="0" dx="0em" dy="0.95em" fill="rgb(50, 49, 63)" stroke="none" stroke-width="1px">20k</text><text style="text-anchor: middle; visibility: inherit; font-family: Roboto, sans-serif; font-size: 12px; font-weight: 200;" x="22.34041651089986" y="0" dx="0em" dy="0.95em" fill="rgb(50, 49, 63)" stroke="none" stroke-width="1px">30k</text><text style="text-anchor: middle; visibility: hidden; font-family: Roboto, sans-serif; font-size: 12px; font-weight: 200;" x="44.68083302179972" y="0" dx="0em" dy="0.95em" fill="rgb(50, 49, 63)" stroke="none" stroke-width="1px">40k</text><text style="text-anchor: middle; visibility: inherit; font-family: Roboto, sans-serif; font-size: 12px; font-weight: 200;" x="67.02124953269958" y="0" dx="0em" dy="0.95em" fill="rgb(50, 49, 63)" stroke="none" stroke-width="1px">50k</text><text style="text-anchor: middle; visibility: hidden; font-family: Roboto, sans-serif; font-size: 12px; font-weight: 200;" x="89.36166604359944" y="0" dx="0em" dy="0.95em" fill="rgb(50, 49, 63)" stroke="none" stroke-width="1px">60k</text><text style="text-anchor: middle; visibility: inherit; font-family: Roboto, sans-serif; font-size: 12px; font-weight: 200;" x="111.70208255449931" y="0" dx="0em" dy="0.95em" fill="rgb(50, 49, 63)" stroke="none" stroke-width="1px">70k</text><text style="text-anchor: middle; visibility: hidden; font-family: Roboto, sans-serif; font-size: 12px; font-weight: 200;" x="134.04249906539917" y="0" dx="0em" dy="0.95em" fill="rgb(50, 49, 63)" stroke="none" stroke-width="1px">80k</text><text style="text-anchor: middle; visibility: inherit; font-family: Roboto, sans-serif; font-size: 12px; font-weight: 200;" x="156.38291557629904" y="0" dx="0em" dy="0.95em" fill="rgb(50, 49, 63)" stroke="none" stroke-width="1px">90k</text><text style="text-anchor: middle; visibility: hidden; font-family: Roboto, sans-serif; font-size: 12px; font-weight: 200;" x="178.72333208719888" y="0" dx="0em" dy="0.95em" fill="rgb(50, 49, 63)" stroke="none" stroke-width="1px">100k</text><text style="text-anchor: middle; visibility: inherit; font-family: Roboto, sans-serif; font-size: 12px; font-weight: 200;" x="201.06374859809875" y="0" dx="0em" dy="0.95em" fill="rgb(50, 49, 63)" stroke="none" stroke-width="1px">110k</text><text style="text-anchor: middle; visibility: hidden; font-family: Roboto, sans-serif; font-size: 12px; font-weight: 200;" x="223.40416510899863" y="0" dx="0em" dy="0.95em" fill="rgb(50, 49, 63)" stroke="none" stroke-width="1px">120k</text><text style="text-anchor: middle; visibility: inherit; font-family: Roboto, sans-serif; font-size: 12px; font-weight: 200;" x="245.74458161989847" y="0" dx="0em" dy="0.95em" fill="rgb(50, 49, 63)" stroke="none" stroke-width="1px">130k</text><text style="text-anchor: middle; visibility: hidden; font-family: Roboto, sans-serif; font-size: 12px; font-weight: 200;" x="268.08499813079834" y="0" dx="0em" dy="0.95em" fill="rgb(50, 49, 63)" stroke="none" stroke-width="1px">140k</text></g><line x1="0" y1="0" x2="268.08499813079834" y2="0" fill="rgb(0, 0, 0)" stroke="rgb(204, 204, 204)" stroke-width="1px"></line></g></g></g></g></svg>