<svg viewBox="0 0 330 200" xmlns="http://www.w3.org/2000/svg"><g><g><g><g><g><line x1="41.149001121520996" y1="177.89999961853027" x2="36.149001121520996" y2="177.89999961853027" style="visibility: inherit;" fill="rgb(0, 0, 0)" stroke="rgb(204, 204, 204)" stroke-width="1px"></line><line x1="41.149001121520996" y1="158.13333299424912" x2="36.149001121520996" y2="158.13333299424912" style="visibility: inherit;" fill="rgb(0, 0, 0)" stroke="rgb(204, 204, 204)" stroke-width="1px"></line><line x1="41.149001121520996" y1="138.366666369968" x2="36.149001121520996" y2="138.366666369968" style="visibility: inherit;" fill="rgb(0, 0, 0)" stroke="rgb(204, 204, 204)" stroke-width="1px"></line><line x1="41.149001121520996" y1="118.59999974568686" x2="36.149001121520996" y2="118.59999974568686" style="visibility: inherit;" fill="rgb(0, 0, 0)" stroke="rgb(204, 204, 204)" stroke-width="1px"></line><line x1="41.149001121520996" y1="98.83333312140572" x2="36.149001121520996" y2="98.83333312140572" style="visibility: inherit;" fill="rgb(0, 0, 0)" stroke="rgb(204, 204, 204)" stroke-width="1px"></line><line x1="41.149001121520996" y1="79.06666649712456" x2="36.149001121520996" y2="79.06666649712456" style="visibility: inherit;" fill="rgb(0, 0, 0)" stroke="rgb(204, 204, 204)" stroke-width="1px"></line><line x1="41.149001121520996" y1="59.29999987284343" x2="36.149001121520996" y2="59.29999987284343" style="visibility: inherit;" fill="rgb(0, 0, 0)" stroke="rgb(204, 204, 204)" stroke-width="1px"></line><line x1="41.149001121520996" y1="39.53333324856228" x2="36.149001121520996" y2="39.53333324856228" style="visibility: inherit;" fill="rgb(0, 0, 0)" stroke="rgb(204, 204, 204)" stroke-width="1px"></line><line x1="41.149001121520996" y1="19.76666662428115" x2="36.149001121520996" y2="19.76666662428115" style="visibility: inherit;" fill="rgb(0, 0, 0)" stroke="rgb(204, 204, 204)" stroke-width="1px"></line><line x1="41.149001121520996" y1="0" x2="36.149001121520996" y2="0" style="visibility: inherit;" fill="rgb(0, 0, 0)" stroke="rgb(204, 204, 204)" stroke-width="1px"></line></g><g transform="translate(31.149001121520996, 0)"><text style="text-anchor: end; visibility: hidden; font-family: Roboto, sans-serif; font-size: 12px; font-weight: 200;" x="0" y="177.89999961853027" dx="0em" dy="0.3em" fill="rgb(50, 49, 63)" stroke="none" stroke-width="1px">-50</text><text style="text-anchor: end; visibility: inherit; font-family: Roboto, sans-serif; font-size: 12px; font-weight: 200;" x="0" y="158.13333299424912" dx="0em" dy="0.3em" fill="rgb(50, 49, 63)" stroke="none" stroke-width="1px">0</text><text style="text-anchor: end; visibility: hidden; font-family: Roboto, sans-serif; font-size: 12px; font-weight: 200;" x="0" y="138.366666369968" dx="0em" dy="0.3em" fill="rgb(50, 49, 63)" stroke="none" stroke-width="1px">50</text><text style="text-anchor: end; visibility: inherit; font-family: Roboto, sans-serif; font-size: 12px; font-weight: 200;" x="0" y="118.59999974568686" dx="0em" dy="0.3em" fill="rgb(50, 49, 63)" stroke="none" stroke-width="1px">100</text><text style="text-anchor: end; visibility: hidden; font-family: Roboto, sans-serif; font-size: 12px; font-weight: 200;" x="0" y="98.83333312140572" dx="0em" dy="0.3em" fill="rgb(50, 49, 63)" stroke="none" stroke-width="1px">150</text><text style="text-anchor: end; visibility: inherit; font-family: Roboto, sans-serif; font-size: 12px; font-weight: 200;" x="0" y="79.06666649712456" dx="0em" dy="0.3em" fill="rgb(50, 49, 63)" stroke="none" stroke-width="1px">200</text><text style="text-anchor: end; visibility: hidden; font-family: Roboto, sans-serif; font-size: 12px; font-weight: 200;" x="0" y="59.29999987284343" dx="0em" dy="0.3em" fill="rgb(50, 49, 63)" stroke="none" stroke-width="1px">250</text><text style="text-anchor: end; visibility: inherit; font-family: Roboto, sans-serif; font-size: 12px; font-weight: 200;" x="0" y="39.53333324856228" dx="0em" dy="0.3em" fill="rgb(50, 49, 63)" stroke="none" stroke-width="1px">300</text><text style="text-anchor: end; visibility: hidden; font-family: Roboto, sans-serif; font-size: 12px; font-weight: 200;" x="0" y="19.76666662428115" dx="0em" dy="0.3em" fill="rgb(50, 49, 63)" stroke="none" stroke-width="1px">350</text><text style="text-anchor: end; visibility: hidden; font-family: Roboto, sans-serif; font-size: 12px; font-weight: 200;" x="0" y="0" dx="0em" dy="0.3em" fill="rgb(50, 49, 63)" stroke="none" stroke-width="1px">400</text></g><line x1="41.149001121520996" y1="0" x2="41.149001121520996" y2="177.89999961853027" fill="rgb(0, 0, 0)" stroke="rgb(204, 204, 204)" stroke-width="1px"></line></g></g><g transform="translate(41, 0)" clip-path="url(#clip_0)"><clipPath id="clip_0"><rect width="288" height="177"></rect></clipPath><g><g><g><line x1="0" y1="0" x2="0" y2="177.89999961853027" fill="rgb(0, 0, 0)" stroke="rgb(60, 60, 60)" stroke-width="1px" opacity="0.25"></line><line x1="20.632214205605642" y1="0" x2="20.632214205605642" y2="177.89999961853027" fill="rgb(0, 0, 0)" stroke="rgb(60, 60, 60)" stroke-width="1px" opacity="0.25"></line><line x1="41.264428411211284" y1="0" x2="41.264428411211284" y2="177.89999961853027" fill="rgb(0, 0, 0)" stroke="rgb(60, 60, 60)" stroke-width="1px" opacity="0.25"></line><line x1="61.896642616816926" y1="0" x2="61.896642616816926" y2="177.89999961853027" fill="rgb(0, 0, 0)" stroke="rgb(60, 60, 60)" stroke-width="1px" opacity="0.25"></line><line x1="82.52885682242257" y1="0" x2="82.52885682242257" y2="177.89999961853027" fill="rgb(0, 0, 0)" stroke="rgb(60, 60, 60)" stroke-width="1px" opacity="0.25"></line><line x1="103.16107102802822" y1="0" x2="103.16107102802822" y2="177.89999961853027" fill="rgb(0, 0, 0)" stroke="rgb(60, 60, 60)" stroke-width="1px" opacity="0.25"></line><line x1="123.79328523363385" y1="0" x2="123.79328523363385" y2="177.89999961853027" fill="rgb(0, 0, 0)" stroke="rgb(60, 60, 60)" stroke-width="1px" opacity="0.25"></line><line x1="144.4254994392395" y1="0" x2="144.4254994392395" y2="177.89999961853027" fill="rgb(0, 0, 0)" stroke="rgb(60, 60, 60)" stroke-width="1px" opacity="0.25"></line><line x1="165.05771364484514" y1="0" x2="165.05771364484514" y2="177.89999961853027" fill="rgb(0, 0, 0)" stroke="rgb(60, 60, 60)" stroke-width="1px" opacity="0.25"></line><line x1="185.6899278504508" y1="0" x2="185.6899278504508" y2="177.89999961853027" fill="rgb(0, 0, 0)" stroke="rgb(60, 60, 60)" stroke-width="1px" opacity="0.25"></line><line x1="206.32214205605644" y1="0" x2="206.32214205605644" y2="177.89999961853027" fill="rgb(0, 0, 0)" stroke="rgb(60, 60, 60)" stroke-width="1px" opacity="0.25"></line><line x1="226.95435626166207" y1="0" x2="226.95435626166207" y2="177.89999961853027" fill="rgb(0, 0, 0)" stroke="rgb(60, 60, 60)" stroke-width="1px" opacity="0.25"></line><line x1="247.5865704672677" y1="0" x2="247.5865704672677" y2="177.89999961853027" fill="rgb(0, 0, 0)" stroke="rgb(60, 60, 60)" stroke-width="1px" opacity="0.25"></line><line x1="268.21878467287337" y1="0" x2="268.21878467287337" y2="177.89999961853027" fill="rgb(0, 0, 0)" stroke="rgb(60, 60, 60)" stroke-width="1px" opacity="0.25"></line><line x1="288.850998878479" y1="0" x2="288.850998878479" y2="177.89999961853027" fill="rgb(0, 0, 0)" stroke="rgb(60, 60, 60)" stroke-width="1px" opacity="0.25"></line></g><g><line x1="0" y1="177.89999961853027" x2="288.850998878479" y2="177.89999961853027" fill="rgb(0, 0, 0)" stroke="rgb(60, 60, 60)" stroke-width="1px" opacity="0.25"></line><line x1="0" y1="158.13333299424912" x2="288.850998878479" y2="158.13333299424912" fill="rgb(0, 0, 0)" stroke="rgb(60, 60, 60)" stroke-width="1px" opacity="0.25"></line><line x1="0" y1="138.366666369968" x2="288.850998878479" y2="138.366666369968" fill="rgb(0, 0, 0)" stroke="rgb(60, 60, 60)" stroke-width="1px" opacity="0.25"></line><line x1="0" y1="118.59999974568686" x2="288.850998878479" y2="118.59999974568686" fill="rgb(0, 0, 0)" stroke="rgb(60, 60, 60)" stroke-width="1px" opacity="0.25"></line><line x1="0" y1="98.83333312140572" x2="288.850998878479" y2="98.83333312140572" fill="rgb(0, 0, 0)" stroke="rgb(60, 60, 60)" stroke-width="1px" opacity="0.25"></line><line x1="0" y1="79.06666649712456" x2="288.850998878479" y2="79.06666649712456" fill="rgb(0, 0, 0)" stroke="rgb(60, 60, 60)" stroke-width="1px" opacity="0.25"></line><line x1="0" y1="59.29999987284343" x2="288.850998878479" y2="59.29999987284343" fill="rgb(0, 0, 0)" stroke="rgb(60, 60, 60)" stroke-width="1px" opacity="0.25"></line><line x1="0" y1="39.53333324856228" x2="288.850998878479" y2="39.53333324856228" fill="rgb(0, 0, 0)" stroke="rgb(60, 60, 60)" stroke-width="1px" opacity="0.25"></line><line x1="0" y1="19.76666662428115" x2="288.850998878479" y2="19.76666662428115" fill="rgb(0, 0, 0)" stroke="rgb(60, 60, 60)" stroke-width="1px" opacity="0.25"></line><line x1="0" y1="0" x2="288.850998878479" y2="0" fill="rgb(0, 0, 0)" stroke="rgb(60, 60, 60)" stroke-width="1px" opacity="0.25"></line></g></g></g><g><g><line x1="0" y1="158.13333299424912" x2="288.850998878479" y2="158.13333299424912" fill="rgb(0, 0, 0)" stroke="rgb(153, 153, 153)" stroke-width="1.5px"></line></g></g><g><g><line x1="-82.52885682242257" y1="0" x2="-82.52885682242257" y2="177.89999961853027" fill="rgb(0, 0, 0)" stroke="rgb(153, 153, 153)" stroke-width="1.5px"></line></g></g><g><g><g><g><g><path style="fill: none;" stroke="rgb(255, 112, 67)" stroke-width="2px" d="M13.188111320223125,169.5396227303803L14.384779744148254,142.43110151696223L15.094527912821087,134.13257461489547L15.53193085397993,130.47145980516015L16.567668007101332,124.28792873786475L17.425968118054527,120.90060237446981L18.742303384372164,117.20515252455485L19.93484536545617,115.05522096506216L20.37224830661501,113.78860808426649L21.581296059063504,113.03685935827404L22.01869900022234,112.58872985912599L22.45610194138118,112.32089494195046L23.087447696072715,112.16056761134108L23.735299222128734,112.06450533319487L24.17270216328757,112.00691616714731L26.157521169866836,78.78174458018877L27.37894825083869,58.852641482676L27.816351191997526,46.897338775555184L29.90845771244594,39.72493427385332L30.841033794539317,35.42177129983018L31.86026517629623,32.83997420911724L32.54112824508122,31.290932202689962L33.560359626838135,30.361520047739752L33.99776256799698,29.803877452295048L34.435165509155816,29.46929358611991L34.87256845031466,29.26854387520409L35.58644306182862,29.1480942678179L36.22191525936127,29.075824582284817L37.22051442691258,29.03246279936843L38.111826080594746,29.006445739843823L38.54922902175358,28.990835507810157L38.986631962912426,28.98146936991515L39.71701234579086,28.975849687655195L40.368990314688,28.97247787847099L40.80639325584684,28.970454793022267L41.540900081566406,28.96924094177532L42.32079777853829,28.96851263103512L43.07593681846346,28.968075644593924L43.5133397596223,28.967813452730216L44.396398527622225,28.967656137612373L44.83380146878106,28.96756174854181L45.271204409939905,28.96750511509951L46.50501081943512,28.967471135034174L47.52836864403316,28.96745074699493L48.254622584070475,28.967438514171445L48.69202552522932,28.967431174477323L49.129428466388156,28.967426770660868L49.566831407547,28.967424128370983L50.02486656291144,28.967422542997067L50.46226950407028,28.96742159177269L50.89967244522912,28.96742102103807L51.7744783275468,28.967420678597314L52.7524452808925,28.96742047313287L53.189848222051346,28.967420349854155L53.82119397674288,28.96742027588696L54.45253973143441,28.96742023150664L54.88994267259326,28.967420204878444L55.54604708433151,28.96742018890153L57.60926850489208,28.967420179315386L58.25712003094809,28.9674201735637L58.71515518631254,28.96742017011269L59.15255812747138,28.967420168042086L59.78803032500403,28.967420166799698L60.22543326616287,28.96742016605428L61.10849203416279,28.96742016560702L61.54589497532164,28.967420165338687L61.983297916480474,28.96742016517768L63.534840424742015,28.967420165081094L63.97224336590086,28.967420165023086L64.41377274990082,28.967420164988326L65.0574978331157,28.96742016496745L65.49490077427456,28.96742016495491L66.1468787431717,28.967420164947402L66.82361536911556,28.96742016494294L67.45083468096597,28.967420164940233L68.75066417591913,28.967420164938613L69.53468831573214,28.967420164937625L69.97209125689098,28.967420164937053L70.40949419804981,28.967420164936676L70.84689713920866,28.96742016493646L71.60203617913382,28.96742016493632L72.23338193382536,28.96742016493626L72.67078487498421,28.967420164936204L73.10818781614303,28.967420164936183L73.54559075730188,28.967420164936183L73.98299369846072,28.967420164936183L74.42039663961955,28.967420164936183L75.27457030773162,28.967420164936183L76.99942341532027,28.967420164936183L77.43682635647909,28.967420164936183L78.55096592358181,28.967420164936183L79.32261073487145,28.967420164936183L79.7600136760303,28.967420164936183L80.38723298788071,28.967420164936183L82.17398273808615,28.967420164936183L82.91261600664684,28.967420164936183L83.9029622885159,28.967420164936183L84.34036522967475,28.967420164936183L84.77776817083358,28.967420164936183L86.64292033502034,28.967420164936183L87.30727763244083,28.967420164936183L88.09542821509498,28.967420164936183L89.02800429718835,28.967420164936183L89.46540723834718,28.967420164936183L90.09262655019761,28.967420164936183L90.719845862048,28.967420164936183L91.15724880320685,28.967420164936183L91.83811187199184,28.967420164936183L92.27551481315069,28.967420164936183L92.71291775430952,28.967420164936183L93.4928154512814,28.967420164936183L93.93021839244025,28.967420164936183L94.5656905899729,28.967420164936183L95.02372574533736,28.967420164936183L95.46112868649618,28.967420164936183L95.89853162765503,35.94617307965918L96.92601589509418,40.13342482849297L97.36341883625303,42.64577587779324L98.20521317584173,44.8940793931545L98.64261611700059,46.24306150237127L99.08001905815942,47.05245076790133L99.53805421352386,47.53808432721936L100.18590573957988,47.829464462810186L100.9534241080284,48.0042925441647L101.58476986271994,48.10918939297738L102.02217280387879,48.17212750226501L102.45957574503763,48.20989036783757L103.11155371393475,48.232548087181115L103.85018698249544,48.24614271878723L104.30822213785989,48.25429949775091L104.74562507901872,48.25919356512911L105.8515117604392,48.262130005556024L106.28891470159803,48.26389186981218L107.01516864163536,48.26494898836589L107.45257158279419,48.26558325949809L108.3727683363642,48.26596382217739L108.99998764821461,48.266192159785L109.75100024529867,48.26632916234958L110.18840318645749,48.26641136388832L110.62580612761633,48.266460684811555L111.47997979572841,48.266490277365506L112.11545199326106,48.266508032897846L112.5734871486255,48.266518686217275L113.93108684335435,48.266525078208936L114.3684897845132,48.266528913403896L115.07411151034492,48.26653121452091L116.10159577778408,48.26653259519113L116.73706797531673,48.26653342359325L117.40555171557835,48.26653392063452L118.05340324163437,48.26653421885929L119.37386495079313,48.26653439779413L120.0340958053725,48.26653450515503L121.65166139909199,48.266534569571576L122.08906434025084,48.26653460822151L123.21558323587689,48.26653463141146L123.65298617703574,48.266534645325436L124.09038911819458,48.26653465367385L124.52779205935343,48.266534658682865L125.17977002825056,48.2665346616883L125.80698934010097,48.26653466349155L126.2443922812598,48.266534664573484L126.68179522241864,48.26653466522266L127.1191981635775,48.26653466561214L127.55660110473633,48.26653466584585L128.33649880170822,48.266534665986086L128.77390174286705,48.26653466607022L129.4671441401754,48.266534666120684L130.1480072089604,48.26653466615098L130.58541015011923,48.266534666169136L131.02281309127807,48.26653466618006L131.48084824664252,48.266534666186594L131.91825118780136,48.26653466619052L132.71878109897887,48.266534666192875L133.1561840401377,48.266534666194275L133.59358698129654,48.26653466619513L134.03098992245538,48.26653466619566L134.48902507781983,48.26653466619598L135.35557807445525,48.26653466619616L136.13547577142717,48.266534666196236L136.5935109267916,48.266534666196314L137.23310956716537,48.26653466619635L137.69114472252983,48.26653466619637L138.3266169200625,48.26653466619637L138.7640198612213,48.26653466619637L139.40361850159508,48.26653466619637L139.86165365695953,48.26653466619637L141.27702355146408,48.26653466619637L141.71442649262292,48.26653466619637L142.17246164798738,48.26653466619637L142.6098645891462,48.26653466619637L143.23708390099662,48.26653466619637L143.67448684215546,48.26653466619637L144.30583259684698,48.26653466619637L144.94130479437965,48.26653466619637L145.37870773553848,54.19711134211881L145.81611067669732,57.755457347672284L146.44745643138884,59.890464951004354L147.89171142578127,61.17146951300359L148.32911436694008,61.94007225020314L149.11726494959422,62.401233892522875L149.55466789075305,62.67793087791474L149.99207083191192,62.843949069149836L150.64817524365017,62.9435599838909L151.085578184809,63.003326532735535L151.52298112596785,63.03918646204231L152.59585626465932,63.06070241962639L153.03325920581818,63.07361199417683L153.89981220245363,63.081357738907094L154.33721514361247,63.08600518574524L154.97681378398624,63.08879365384814L155.41421672514508,63.09046673470988L155.85161966630392,63.091470583226915L156.28902260746273,63.09207289233716L157.16795493262154,63.092434277803285L157.8611973299299,63.09265110908296L158.29860027108873,63.09278120785077L158.73600321224757,63.09285926711148L159.19403836761202,63.09290610266787L159.94092452185495,63.09293420400171L160.3783274630138,63.09295106480203L161.12521361725672,63.09296118128221L161.75655937194827,63.09296725117032L162.38790512663977,63.092970893103185L162.8253080677986,63.092973078262915L163.26271100895744,63.092974389358744L163.7001139501163,63.092975176016246L164.69458667482647,63.09297564801075L165.1319896159853,63.092975931207455L165.56939255714417,63.09297610112546L166.006795498303,63.092976203076276L166.44419843946184,63.092976264246765L167.0755441941534,63.09297630094903L167.51294713531223,63.09297632297042L167.95035007647107,63.092976336183234L168.3877530176299,63.09297634411096L168.8251559587887,63.09297634886758L169.2666853427887,63.09297635172154L169.70408828394756,63.0929763534339L170.1414912251064,63.09297635446132L170.59952638047082,63.09297635507779L171.5857462194988,63.09297635544768L172.02314916065762,63.09297635566962L172.46055210181643,63.09297635580276L172.9020814858164,63.092976355882655L173.33948442697525,63.09297635593059L173.7975195823397,63.092976355959344L174.2349225234985,63.09297635597661L174.67232546465738,63.092976355986956L175.1303606200218,63.09297635599316L175.56776356118067,63.09297635599689L176.20736220155445,63.09297635599914L176.64476514271328,63.092976356000484L177.08216808387212,63.092976356001294L177.51957102503096,63.09297635600177L177.9569739661898,63.09297635600207L178.60482549224582,63.09297635600225L179.28156211818967,63.092976356002325L179.91290787288122,63.0929763560024L180.35031081404006,63.09297635600244L180.7877137551989,63.09297635600246L181.2251166963577,63.09297635600246L181.86471533673148,63.09297635600246L182.30211827789034,63.09297635600246L182.73952121904918,63.09297635600246L183.5029131446566,63.09297635600246L183.94031608581543,63.09297635600246L184.56753539766584,63.09297635600246L185.0049383388247,63.09297635600246L185.44234127998354,63.09297635600246L185.87974422114235,63.09297635600246L186.3377793765068,63.09297635600246L186.77518231766564,63.09297635600246L187.41890740088056,63.09297635600246L187.8563103420394,63.09297635600246L188.2937132831982,63.09297635600246L188.73111622435704,63.09297635600246L189.58528989246912,63.09297635600246L190.28678517545973,63.09297635600246L190.72418811661856,63.09297635600246L191.16159105777743,63.09297635600246L191.59899399893627,63.09297635600246L192.0570291543007,63.09297635600246L192.49443209545953,63.09297635600246L192.9359614794595,63.09297635600246L193.37336442061834,63.09297635600246L193.81076736177715,63.09297635600246L194.248170302936,80.98299801563907L194.68557324409485,91.71701101142102L195.14360839945928,98.15741880889021L195.58101134061815,102.0216634873717L196.01841428177698,104.34021029446063L196.45581722293582,105.73133837871397L196.89322016409463,106.56601522926596L197.619474104132,107.06682133959717L198.05687704529083,107.3673050057959L198.49427998644964,107.54759520551512L198.93168292760848,107.65576932534667L199.38971808297293,107.72067379724561L199.8477532383374,107.75961648038495L200.28515617949623,107.78298209026858L200.72255912065503,107.79700145619873L201.1599620618139,107.80541307575683L201.59736500297274,107.8104600474917L202.03476794413157,107.81348823053263L202.4721708852904,107.81530514035715L202.90957382644925,107.9018187988454L203.53679313829966,107.95372699393835L203.9741960794585,107.98487191099412L204.41572546345847,108.00355886122757L204.85312840461734,108.01477103136764L205.29053134577615,108.02149833345172L205.72793428693498,108.02553471470215L206.16533722809382,108.02795654345239L206.62337238345827,108.02940964070255L207.0607753246171,108.03028149905265L207.49817826577595,108.0308046140627L207.9355812069348,108.03111848306872L208.37298414809362,108.03130680447237L208.83101930345808,108.03141979731453L209.28905445882253,108.03148759301982L209.72645739998137,108.03152827044302L210.1638603411402,108.03155267689694L210.60126328229904,108.03156732076928L211.03866622345785,108.03157610709269L211.47606916461672,108.03158137888671L211.93410431998117,108.03158454196316L212.37150726114,112.02817985775282L212.80891020229885,114.42613704722659L213.24631314345768,115.86491136091088L213.68371608461652,116.72817594912145L214.31506183930807,117.24613470204778L214.75659122330802,117.55690995380358L215.62727066278458,117.74337510485707L216.06880004678453,117.85525419548917L216.5062029879434,117.92238164986841L217.13342229979378,117.96265812249597L217.57082524095264,117.9868240060725L218.02886039631707,118.00132353621841L218.4662633374759,118.01002325430595L218.90366627863474,118.0152430851585L219.34519566263472,118.01837498367001L219.80323081799918,118.02025412277693L220.240633759158,118.02138160624108L220.69866891452244,118.02205809631957L221.1567040698869,118.02246399036666L221.59410701104574,118.02270752679492L222.03563639504569,118.02285364865187L222.47303933620452,118.02294132176604L222.91044227736336,118.02299392563455L223.3478452185222,118.02302548795564L223.78524815968106,118.02304442534829L224.2226511008399,118.02305578778389L224.66005404199873,118.02306260524524L225.09745698315754,118.02306669572208L225.5348599243164,118.02306915000815L225.99289507968084,118.02307062257981L226.4302980208397,118.02307150612279L226.87182740483968,118.02307203624859L227.31335678883963,118.02307235432407L227.75075972999846,118.02307254516936L228.1881626711573,118.02307265967653L228.62556561231614,118.02307272838085L229.08360076768057,118.02307276960342L229.54163592304502,118.02307279433695L229.97903886420386,118.02307280917711L230.71767213276453,118.02307281808118L231.1550750739234,118.02307282342363L231.81117948566165,118.02307282662909L232.2485824268205,118.02307282855237L232.68598536797933,118.02307282970634L233.14402052334378,118.02307283039872L233.5814234645026,118.02307283081414L234.01882640566143,118.0230728310634L234.45622934682027,118.02307283121296L234.89363228797913,118.0230728313027L235.33103522913797,118.02307283135654L235.7684381702968,122.43699578945339L236.51532432453973,125.08534956431151L236.95272726569857,126.67436182922638L237.3901302068574,127.6277691881753L237.82753314801627,128.19981360354464L238.26906253201622,128.54304025276627L239.03658090046474,128.74897624229922L239.47398384162358,128.872537836019L239.91138678278242,128.9466747922509L240.34878972394128,128.99115696599L240.7861926651001,129.01784627023346L241.22359560625893,129.03385985277956L241.66099854741776,129.0434680023072L242.09840148857663,129.0492328920238L242.53580442973546,129.05269182585374L242.9732073708943,129.0547671861517L243.41061031205314,129.0560124023305L243.84801325321197,129.05675953203777L244.28541619437084,129.05720780986215L244.72281913552965,129.05747677655677L245.16022207668848,129.05763815657352L245.59762501784732,129.0577349845836L246.0350279590062,129.0577930813896L246.47243090016502,129.05782793947324L246.93046605552948,129.05784885432342L247.36786899668832,129.05786140323352L247.80527193784712,129.0578689325796L248.2468013218471,129.05787345018723L248.68420426300594,129.05787616075182L249.12160720416477,129.05787778709055L249.55901014532364,129.0578787628938L249.99641308648245,129.05787934837576L250.43381602764129,129.05787969966494L250.87121896880012,129.0578799104384L251.32925412416458,129.05788003690253L251.78728927952903,129.057880112781L252.22469222068787,129.05788015830805L252.6827273760523,129.0578801856243L253.47087795870644,129.05788020201405L253.90828089986528,129.0578802118479L254.64691416842598,129.05788021774822L255.47220273665022,129.0578802212884L255.90960567780905,129.05788022341252L256.3470086189679,129.05788022468695L256.7844115601267,129.05788022545167L257.22181450128556,129.05788022591048L257.6592174424444,129.05788022618574L258.11725259780883,129.05788022635093L258.55465553896767,129.05788022645004L258.99618492296764,129.0578802265095L259.4335878641265,129.05788022654517L259.8916230194909,129.05788022656657L260.32902596064974,129.0578802265794L260.7664289018086,129.05788022658712L261.2038318429674,129.05788022659175L261.6412347841263,129.05788022659453L262.07863772528515,131.72655093518856L262.516040666444,133.32775336034499L262.9534436076028,134.28847481543883L263.3908465487616,134.86490768849512L263.8282494899205,135.21076741232892L264.26565243107933,135.4182832466292L264.70305537223817,135.54279274720935L265.140458313397,135.61749844755744L265.57786125455584,135.6623218677663L266.0152641957147,135.68921591989164L266.4526671368735,135.70535235116682L266.89007007803235,135.71503420993193L267.3274730191912,135.720843325191L267.76487596035,135.72432879434643L268.20227890150886,135.72642007583968L268.64380828550884,135.72767484473565L269.0853376695088,135.72842770607323L269.52274061066765,135.7288794228758L269.9601435518265,135.7291504529573L270.4016729358264,135.7293130710062L270.8597080911909,135.72941064183556L271.3177432465553,135.72946918433317L271.7757784019198,135.72950430983175L272.21318134307865,135.72952538513087L272.6712164984431,135.72953803031038L273.1086194396019,135.72954561741807L273.54602238076075,135.72955016968268L273.9834253219196,135.72955290104144L274.4208282630784,135.7295545398567L274.85823120423726,135.72955552314585L275.2956341453961,135.72955611311934L275.73303708655493,135.72955646710344L276.17044002771377,135.7295566794939L276.6078429688726,143.2511562074053L277.04524591003144,147.76411592415212L277.4826488511903,150.47189175420024L277.9200517923491,152.0965572522291L278.3615811763491,153.07135655104642L278.8196163317135,153.6562361303368L279.25701927287236,154.00716387791104L279.69442221403125,154.2177205264556L280.1318251551901,154.3440545155823L280.5692280963489,154.41985490905833L281.00663103750776,154.46533514514397L281.4646661928722,154.49262328679535" fill="none"></path></g></g></g></g><g opacity="0.2"><g><g><g><path style="fill: none;" stroke="rgb(255, 112, 67)" stroke-width="2px" d="M13.188111320223125,169.5396227303803L14.384779744148254,126.16598878891139L15.094527912821087,126.16598878891139L15.53193085397993,126.16598878891139L16.567668007101332,116.21471057640382L17.425968118054527,116.21471057640382L18.742303384372164,111.92060011197884L19.93484536545617,111.92060011197884L20.37224830661501,111.92060011197884L21.581296059063504,111.92060011197884L22.01869900022234,111.92060011197884L22.45610194138118,111.92060011197884L23.087447696072715,111.92060011197884L23.735299222128734,111.92060011197884L24.17270216328757,111.92060011197884L26.157521169866836,28.967420164936144L27.37894825083869,28.967420164936144L27.816351191997526,28.967420164936144L29.90845771244594,28.967420164936144L30.841033794539317,28.967420164936144L31.86026517629623,28.967420164936144L32.54112824508122,28.967420164936144L33.560359626838135,28.967420164936144L33.99776256799698,28.967420164936144L34.435165509155816,28.967420164936144L34.87256845031466,28.967420164936144L35.58644306182862,28.967420164936144L36.22191525936127,28.967420164936144L37.22051442691258,28.967420164936144L38.111826080594746,28.967420164936144L38.54922902175358,28.967420164936144L38.986631962912426,28.967420164936144L39.71701234579086,28.967420164936144L40.368990314688,28.967420164936144L40.80639325584684,28.967420164936144L41.540900081566406,28.967420164936144L42.32079777853829,28.967420164936144L43.07593681846346,28.967420164936144L43.5133397596223,28.967420164936144L44.396398527622225,28.967420164936144L44.83380146878106,28.967420164936144L45.271204409939905,28.967420164936144L46.50501081943512,28.967420164936144L47.52836864403316,28.967420164936144L48.254622584070475,28.967420164936144L48.69202552522932,28.967420164936144L49.129428466388156,28.967420164936144L49.566831407547,28.967420164936144L50.02486656291144,28.967420164936144L50.46226950407028,28.967420164936144L50.89967244522912,28.967420164936144L51.7744783275468,28.967420164936144L52.7524452808925,28.967420164936144L53.189848222051346,28.967420164936144L53.82119397674288,28.967420164936144L54.45253973143441,28.967420164936144L54.88994267259326,28.967420164936144L55.54604708433151,28.967420164936144L57.60926850489208,28.967420164936144L58.25712003094809,28.967420164936144L58.71515518631254,28.967420164936144L59.15255812747138,28.967420164936144L59.78803032500403,28.967420164936144L60.22543326616287,28.967420164936144L61.10849203416279,28.967420164936144L61.54589497532164,28.967420164936144L61.983297916480474,28.967420164936144L63.534840424742015,28.967420164936144L63.97224336590086,28.967420164936144L64.41377274990082,28.967420164936144L65.0574978331157,28.967420164936144L65.49490077427456,28.967420164936144L66.1468787431717,28.967420164936144L66.82361536911556,28.967420164936144L67.45083468096597,28.967420164936144L68.75066417591913,28.967420164936144L69.53468831573214,28.967420164936144L69.97209125689098,28.967420164936144L70.40949419804981,28.967420164936144L70.84689713920866,28.967420164936144L71.60203617913382,28.967420164936144L72.23338193382536,28.967420164936144L72.67078487498421,28.967420164936144L73.10818781614303,28.967420164936144L73.54559075730188,28.967420164936144L73.98299369846072,28.967420164936144L74.42039663961955,28.967420164936144L75.27457030773162,28.967420164936144L76.99942341532027,28.967420164936144L77.43682635647909,28.967420164936144L78.55096592358181,28.967420164936144L79.32261073487145,28.967420164936144L79.7600136760303,28.967420164936144L80.38723298788071,28.967420164936144L82.17398273808615,28.967420164936144L82.91261600664684,28.967420164936144L83.9029622885159,28.967420164936144L84.34036522967475,28.967420164936144L84.77776817083358,28.967420164936144L86.64292033502034,28.967420164936144L87.30727763244083,28.967420164936144L88.09542821509498,28.967420164936144L89.02800429718835,28.967420164936144L89.46540723834718,28.967420164936144L90.09262655019761,28.967420164936144L90.719845862048,28.967420164936144L91.15724880320685,28.967420164936144L91.83811187199184,28.967420164936144L92.27551481315069,28.967420164936144L92.71291775430952,28.967420164936144L93.4928154512814,28.967420164936144L93.93021839244025,28.967420164936144L94.5656905899729,28.967420164936144L95.02372574533736,28.967420164936144L95.46112868649618,28.967420164936144L95.89853162765503,46.41430245174366L96.92601589509418,46.41430245174366L97.36341883625303,46.41430245174366L98.20521317584173,48.266534666196414L98.64261611700059,48.266534666196414L99.08001905815942,48.266534666196414L99.53805421352386,48.266534666196414L100.18590573957988,48.266534666196414L100.9534241080284,48.266534666196414L101.58476986271994,48.266534666196414L102.02217280387879,48.266534666196414L102.45957574503763,48.266534666196414L103.11155371393475,48.266534666196414L103.85018698249544,48.266534666196414L104.30822213785989,48.266534666196414L104.74562507901872,48.266534666196414L105.8515117604392,48.266534666196414L106.28891470159803,48.266534666196414L107.01516864163536,48.266534666196414L107.45257158279419,48.266534666196414L108.3727683363642,48.266534666196414L108.99998764821461,48.266534666196414L109.75100024529867,48.266534666196414L110.18840318645749,48.266534666196414L110.62580612761633,48.266534666196414L111.47997979572841,48.266534666196414L112.11545199326106,48.266534666196414L112.5734871486255,48.266534666196414L113.93108684335435,48.266534666196414L114.3684897845132,48.266534666196414L115.07411151034492,48.266534666196414L116.10159577778408,48.266534666196414L116.73706797531673,48.266534666196414L117.40555171557835,48.266534666196414L118.05340324163437,48.266534666196414L119.37386495079313,48.266534666196414L120.0340958053725,48.266534666196414L121.65166139909199,48.266534666196414L122.08906434025084,48.266534666196414L123.21558323587689,48.266534666196414L123.65298617703574,48.266534666196414L124.09038911819458,48.266534666196414L124.52779205935343,48.266534666196414L125.17977002825056,48.266534666196414L125.80698934010097,48.266534666196414L126.2443922812598,48.266534666196414L126.68179522241864,48.266534666196414L127.1191981635775,48.266534666196414L127.55660110473633,48.266534666196414L128.33649880170822,48.266534666196414L128.77390174286705,48.266534666196414L129.4671441401754,48.266534666196414L130.1480072089604,48.266534666196414L130.58541015011923,48.266534666196414L131.02281309127807,48.266534666196414L131.48084824664252,48.266534666196414L131.91825118780136,48.266534666196414L132.71878109897887,48.266534666196414L133.1561840401377,48.266534666196414L133.59358698129654,48.266534666196414L134.03098992245538,48.266534666196414L134.48902507781983,48.266534666196414L135.35557807445525,48.266534666196414L136.13547577142717,48.266534666196414L136.5935109267916,48.266534666196414L137.23310956716537,48.266534666196414L137.69114472252983,48.266534666196414L138.3266169200625,48.266534666196414L138.7640198612213,48.266534666196414L139.40361850159508,48.266534666196414L139.86165365695953,48.266534666196414L141.27702355146408,48.266534666196414L141.71442649262292,48.266534666196414L142.17246164798738,48.266534666196414L142.6098645891462,48.266534666196414L143.23708390099662,48.266534666196414L143.67448684215546,48.266534666196414L144.30583259684698,48.266534666196414L144.94130479437965,48.266534666196414L145.37870773553848,63.09297635600248L145.81611067669732,63.09297635600248L146.44745643138884,63.09297635600248L147.89171142578127,63.09297635600248L148.32911436694008,63.09297635600248L149.11726494959422,63.09297635600248L149.55466789075305,63.09297635600248L149.99207083191192,63.09297635600248L150.64817524365017,63.09297635600248L151.085578184809,63.09297635600248L151.52298112596785,63.09297635600248L152.59585626465932,63.09297635600248L153.03325920581818,63.09297635600248L153.89981220245363,63.09297635600248L154.33721514361247,63.09297635600248L154.97681378398624,63.09297635600248L155.41421672514508,63.09297635600248L155.85161966630392,63.09297635600248L156.28902260746273,63.09297635600248L157.16795493262154,63.09297635600248L157.8611973299299,63.09297635600248L158.29860027108873,63.09297635600248L158.73600321224757,63.09297635600248L159.19403836761202,63.09297635600248L159.94092452185495,63.09297635600248L160.3783274630138,63.09297635600248L161.12521361725672,63.09297635600248L161.75655937194827,63.09297635600248L162.38790512663977,63.09297635600248L162.8253080677986,63.09297635600248L163.26271100895744,63.09297635600248L163.7001139501163,63.09297635600248L164.69458667482647,63.09297635600248L165.1319896159853,63.09297635600248L165.56939255714417,63.09297635600248L166.006795498303,63.09297635600248L166.44419843946184,63.09297635600248L167.0755441941534,63.09297635600248L167.51294713531223,63.09297635600248L167.95035007647107,63.09297635600248L168.3877530176299,63.09297635600248L168.8251559587887,63.09297635600248L169.2666853427887,63.09297635600248L169.70408828394756,63.09297635600248L170.1414912251064,63.09297635600248L170.59952638047082,63.09297635600248L171.5857462194988,63.09297635600248L172.02314916065762,63.09297635600248L172.46055210181643,63.09297635600248L172.9020814858164,63.09297635600248L173.33948442697525,63.09297635600248L173.7975195823397,63.09297635600248L174.2349225234985,63.09297635600248L174.67232546465738,63.09297635600248L175.1303606200218,63.09297635600248L175.56776356118067,63.09297635600248L176.20736220155445,63.09297635600248L176.64476514271328,63.09297635600248L177.08216808387212,63.09297635600248L177.51957102503096,63.09297635600248L177.9569739661898,63.09297635600248L178.60482549224582,63.09297635600248L179.28156211818967,63.09297635600248L179.91290787288122,63.09297635600248L180.35031081404006,63.09297635600248L180.7877137551989,63.09297635600248L181.2251166963577,63.09297635600248L181.86471533673148,63.09297635600248L182.30211827789034,63.09297635600248L182.73952121904918,63.09297635600248L183.5029131446566,63.09297635600248L183.94031608581543,63.09297635600248L184.56753539766584,63.09297635600248L185.0049383388247,63.09297635600248L185.44234127998354,63.09297635600248L185.87974422114235,63.09297635600248L186.3377793765068,63.09297635600248L186.77518231766564,63.09297635600248L187.41890740088056,63.09297635600248L187.8563103420394,63.09297635600248L188.2937132831982,63.09297635600248L188.73111622435704,63.09297635600248L189.58528989246912,63.09297635600248L190.28678517545973,63.09297635600248L190.72418811661856,63.09297635600248L191.16159105777743,63.09297635600248L191.59899399893627,63.09297635600248L192.0570291543007,63.09297635600248L192.49443209545953,63.09297635600248L192.9359614794595,63.09297635600248L193.37336442061834,63.09297635600248L193.81076736177715,63.09297635600248L194.248170302936,107.81803050509399L194.68557324409485,107.81803050509399L195.14360839945928,107.81803050509399L195.58101134061815,107.81803050509399L196.01841428177698,107.81803050509399L196.45581722293582,107.81803050509399L196.89322016409463,107.81803050509399L197.619474104132,107.81803050509399L198.05687704529083,107.81803050509399L198.49427998644964,107.81803050509399L198.93168292760848,107.81803050509399L199.38971808297293,107.81803050509399L199.8477532383374,107.81803050509399L200.28515617949623,107.81803050509399L200.72255912065503,107.81803050509399L201.1599620618139,107.81803050509399L201.59736500297274,107.81803050509399L202.03476794413157,107.81803050509399L202.4721708852904,107.81803050509399L202.90957382644925,108.03158928657778L203.53679313829966,108.03158928657778L203.9741960794585,108.03158928657778L204.41572546345847,108.03158928657778L204.85312840461734,108.03158928657778L205.29053134577615,108.03158928657778L205.72793428693498,108.03158928657778L206.16533722809382,108.03158928657778L206.62337238345827,108.03158928657778L207.0607753246171,108.03158928657778L207.49817826577595,108.03158928657778L207.9355812069348,108.03158928657778L208.37298414809362,108.03158928657778L208.83101930345808,108.03158928657778L209.28905445882253,108.03158928657778L209.72645739998137,108.03158928657778L210.1638603411402,108.03158928657778L210.60126328229904,108.03158928657778L211.03866622345785,108.03158928657778L211.47606916461672,108.03158928657778L211.93410431998117,108.03158928657778L212.37150726114,118.02307283143729L212.80891020229885,118.02307283143729L213.24631314345768,118.02307283143729L213.68371608461652,118.02307283143729L214.31506183930807,118.02307283143729L214.75659122330802,118.02307283143729L215.62727066278458,118.02307283143729L216.06880004678453,118.02307283143729L216.5062029879434,118.02307283143729L217.13342229979378,118.02307283143729L217.57082524095264,118.02307283143729L218.02886039631707,118.02307283143729L218.4662633374759,118.02307283143729L218.90366627863474,118.02307283143729L219.34519566263472,118.02307283143729L219.80323081799918,118.02307283143729L220.240633759158,118.02307283143729L220.69866891452244,118.02307283143729L221.1567040698869,118.02307283143729L221.59410701104574,118.02307283143729L222.03563639504569,118.02307283143729L222.47303933620452,118.02307283143729L222.91044227736336,118.02307283143729L223.3478452185222,118.02307283143729L223.78524815968106,118.02307283143729L224.2226511008399,118.02307283143729L224.66005404199873,118.02307283143729L225.09745698315754,118.02307283143729L225.5348599243164,118.02307283143729L225.99289507968084,118.02307283143729L226.4302980208397,118.02307283143729L226.87182740483968,118.02307283143729L227.31335678883963,118.02307283143729L227.75075972999846,118.02307283143729L228.1881626711573,118.02307283143729L228.62556561231614,118.02307283143729L229.08360076768057,118.02307283143729L229.54163592304502,118.02307283143729L229.97903886420386,118.02307283143729L230.71767213276453,118.02307283143729L231.1550750739234,118.02307283143729L231.81117948566165,118.02307283143729L232.2485824268205,118.02307283143729L232.68598536797933,118.02307283143729L233.14402052334378,118.02307283143729L233.5814234645026,118.02307283143729L234.01882640566143,118.02307283143729L234.45622934682027,118.02307283143729L234.89363228797913,118.02307283143729L235.33103522913797,118.02307283143729L235.7684381702968,129.05788022659868L236.51532432453973,129.05788022659868L236.95272726569857,129.05788022659868L237.3901302068574,129.05788022659868L237.82753314801627,129.05788022659868L238.26906253201622,129.05788022659868L239.03658090046474,129.05788022659868L239.47398384162358,129.05788022659868L239.91138678278242,129.05788022659868L240.34878972394128,129.05788022659868L240.7861926651001,129.05788022659868L241.22359560625893,129.05788022659868L241.66099854741776,129.05788022659868L242.09840148857663,129.05788022659868L242.53580442973546,129.05788022659868L242.9732073708943,129.05788022659868L243.41061031205314,129.05788022659868L243.84801325321197,129.05788022659868L244.28541619437084,129.05788022659868L244.72281913552965,129.05788022659868L245.16022207668848,129.05788022659868L245.59762501784732,129.05788022659868L246.0350279590062,129.05788022659868L246.47243090016502,129.05788022659868L246.93046605552948,129.05788022659868L247.36786899668832,129.05788022659868L247.80527193784712,129.05788022659868L248.2468013218471,129.05788022659868L248.68420426300594,129.05788022659868L249.12160720416477,129.05788022659868L249.55901014532364,129.05788022659868L249.99641308648245,129.05788022659868L250.43381602764129,129.05788022659868L250.87121896880012,129.05788022659868L251.32925412416458,129.05788022659868L251.78728927952903,129.05788022659868L252.22469222068787,129.05788022659868L252.6827273760523,129.05788022659868L253.47087795870644,129.05788022659868L253.90828089986528,129.05788022659868L254.64691416842598,129.05788022659868L255.47220273665022,129.05788022659868L255.90960567780905,129.05788022659868L256.3470086189679,129.05788022659868L256.7844115601267,129.05788022659868L257.22181450128556,129.05788022659868L257.6592174424444,129.05788022659868L258.11725259780883,129.05788022659868L258.55465553896767,129.05788022659868L258.99618492296764,129.05788022659868L259.4335878641265,129.05788022659868L259.8916230194909,129.05788022659868L260.32902596064974,129.05788022659868L260.7664289018086,129.05788022659868L261.2038318429674,129.05788022659868L261.6412347841263,129.05788022659868L262.07863772528515,135.7295569980796L262.516040666444,135.7295569980796L262.9534436076028,135.7295569980796L263.3908465487616,135.7295569980796L263.8282494899205,135.7295569980796L264.26565243107933,135.7295569980796L264.70305537223817,135.7295569980796L265.140458313397,135.7295569980796L265.57786125455584,135.7295569980796L266.0152641957147,135.7295569980796L266.4526671368735,135.7295569980796L266.89007007803235,135.7295569980796L267.3274730191912,135.7295569980796L267.76487596035,135.7295569980796L268.20227890150886,135.7295569980796L268.64380828550884,135.7295569980796L269.0853376695088,135.7295569980796L269.52274061066765,135.7295569980796L269.9601435518265,135.7295569980796L270.4016729358264,135.7295569980796L270.8597080911909,135.7295569980796L271.3177432465553,135.7295569980796L271.7757784019198,135.7295569980796L272.21318134307865,135.7295569980796L272.6712164984431,135.7295569980796L273.1086194396019,135.7295569980796L273.54602238076075,135.7295569980796L273.9834253219196,135.7295569980796L274.4208282630784,135.7295569980796L274.85823120423726,135.7295569980796L275.2956341453961,135.7295569980796L275.73303708655493,135.7295569980796L276.17044002771377,135.7295569980796L276.6078429688726,154.5335554992724L277.04524591003144,154.5335554992724L277.4826488511903,154.5335554992724L277.9200517923491,154.5335554992724L278.3615811763491,154.5335554992724L278.8196163317135,154.5335554992724L279.25701927287236,154.5335554992724L279.69442221403125,154.5335554992724L280.1318251551901,154.5335554992724L280.5692280963489,154.5335554992724L281.00663103750776,154.5335554992724L281.4646661928722,154.5335554992724" fill="none"></path></g></g></g></g></g></g><g transform="translate(41, 177)" clip-path="url(#clip_1)"><clipPath id="clip_1"><rect width="288" height="22"></rect></clipPath><g><g><line x1="0" y1="0" x2="0" y2="5" style="visibility: inherit;" fill="rgb(0, 0, 0)" stroke="rgb(204, 204, 204)" stroke-width="1px"></line><line x1="20.632214205605642" y1="0" x2="20.632214205605642" y2="5" style="visibility: inherit;" fill="rgb(0, 0, 0)" stroke="rgb(204, 204, 204)" stroke-width="1px"></line><line x1="41.264428411211284" y1="0" x2="41.264428411211284" y2="5" style="visibility: inherit;" fill="rgb(0, 0, 0)" stroke="rgb(204, 204, 204)" stroke-width="1px"></line><line x1="61.896642616816926" y1="0" x2="61.896642616816926" y2="5" style="visibility: inherit;" fill="rgb(0, 0, 0)" stroke="rgb(204, 204, 204)" stroke-width="1px"></line><line x1="82.52885682242257" y1="0" x2="82.52885682242257" y2="5" style="visibility: inherit;" fill="rgb(0, 0, 0)" stroke="rgb(204, 204, 204)" stroke-width="1px"></line><line x1="103.16107102802822" y1="0" x2="103.16107102802822" y2="5" style="visibility: inherit;" fill="rgb(0, 0, 0)" stroke="rgb(204, 204, 204)" stroke-width="1px"></line><line x1="123.79328523363385" y1="0" x2="123.79328523363385" y2="5" style="visibility: inherit;" fill="rgb(0, 0, 0)" stroke="rgb(204, 204, 204)" stroke-width="1px"></line><line x1="144.4254994392395" y1="0" x2="144.4254994392395" y2="5" style="visibility: inherit;" fill="rgb(0, 0, 0)" stroke="rgb(204, 204, 204)" stroke-width="1px"></line><line x1="165.05771364484514" y1="0" x2="165.05771364484514" y2="5" style="visibility: inherit;" fill="rgb(0, 0, 0)" stroke="rgb(204, 204, 204)" stroke-width="1px"></line><line x1="185.6899278504508" y1="0" x2="185.6899278504508" y2="5" style="visibility: inherit;" fill="rgb(0, 0, 0)" stroke="rgb(204, 204, 204)" stroke-width="1px"></line><line x1="206.32214205605644" y1="0" x2="206.32214205605644" y2="5" style="visibility: inherit;" fill="rgb(0, 0, 0)" stroke="rgb(204, 204, 204)" stroke-width="1px"></line><line x1="226.95435626166207" y1="0" x2="226.95435626166207" y2="5" style="visibility: inherit;" fill="rgb(0, 0, 0)" stroke="rgb(204, 204, 204)" stroke-width="1px"></line><line x1="247.5865704672677" y1="0" x2="247.5865704672677" y2="5" style="visibility: inherit;" fill="rgb(0, 0, 0)" stroke="rgb(204, 204, 204)" stroke-width="1px"></line><line x1="268.21878467287337" y1="0" x2="268.21878467287337" y2="5" style="visibility: inherit;" fill="rgb(0, 0, 0)" stroke="rgb(204, 204, 204)" stroke-width="1px"></line><line x1="288.850998878479" y1="0" x2="288.850998878479" y2="5" style="visibility: inherit;" fill="rgb(0, 0, 0)" stroke="rgb(204, 204, 204)" stroke-width="1px"></line></g><g transform="translate(0, 8)"><text style="text-anchor: middle; visibility: hidden; font-family: Roboto, sans-serif; font-size: 12px; font-weight: 200;" x="0" y="0" dx="0em" dy="0.95em" fill="rgb(50, 49, 63)" stroke="none" stroke-width="1px">20k</text><text style="text-anchor: middle; visibility: inherit; font-family: Roboto, sans-serif; font-size: 12px; font-weight: 200;" x="20.632214205605642" y="0" dx="0em" dy="0.95em" fill="rgb(50, 49, 63)" stroke="none" stroke-width="1px">25k</text><text style="text-anchor: middle; visibility: hidden; font-family: Roboto, sans-serif; font-size: 12px; font-weight: 200;" x="41.264428411211284" y="0" dx="0em" dy="0.95em" fill="rgb(50, 49, 63)" stroke="none" stroke-width="1px">30k</text><text style="text-anchor: middle; visibility: inherit; font-family: Roboto, sans-serif; font-size: 12px; font-weight: 200;" x="61.896642616816926" y="0" dx="0em" dy="0.95em" fill="rgb(50, 49, 63)" stroke="none" stroke-width="1px">35k</text><text style="text-anchor: middle; visibility: hidden; font-family: Roboto, sans-serif; font-size: 12px; font-weight: 200;" x="82.52885682242257" y="0" dx="0em" dy="0.95em" fill="rgb(50, 49, 63)" stroke="none" stroke-width="1px">40k</text><text style="text-anchor: middle; visibility: inherit; font-family: Roboto, sans-serif; font-size: 12px; font-weight: 200;" x="103.16107102802822" y="0" dx="0em" dy="0.95em" fill="rgb(50, 49, 63)" stroke="none" stroke-width="1px">45k</text><text style="text-anchor: middle; visibility: hidden; font-family: Roboto, sans-serif; font-size: 12px; font-weight: 200;" x="123.79328523363385" y="0" dx="0em" dy="0.95em" fill="rgb(50, 49, 63)" stroke="none" stroke-width="1px">50k</text><text style="text-anchor: middle; visibility: inherit; font-family: Roboto, sans-serif; font-size: 12px; font-weight: 200;" x="144.4254994392395" y="0" dx="0em" dy="0.95em" fill="rgb(50, 49, 63)" stroke="none" stroke-width="1px">55k</text><text style="text-anchor: middle; visibility: hidden; font-family: Roboto, sans-serif; font-size: 12px; font-weight: 200;" x="165.05771364484514" y="0" dx="0em" dy="0.95em" fill="rgb(50, 49, 63)" stroke="none" stroke-width="1px">60k</text><text style="text-anchor: middle; visibility: inherit; font-family: Roboto, sans-serif; font-size: 12px; font-weight: 200;" x="185.6899278504508" y="0" dx="0em" dy="0.95em" fill="rgb(50, 49, 63)" stroke="none" stroke-width="1px">65k</text><text style="text-anchor: middle; visibility: hidden; font-family: Roboto, sans-serif; font-size: 12px; font-weight: 200;" x="206.32214205605644" y="0" dx="0em" dy="0.95em" fill="rgb(50, 49, 63)" stroke="none" stroke-width="1px">70k</text><text style="text-anchor: middle; visibility: inherit; font-family: Roboto, sans-serif; font-size: 12px; font-weight: 200;" x="226.95435626166207" y="0" dx="0em" dy="0.95em" fill="rgb(50, 49, 63)" stroke="none" stroke-width="1px">75k</text><text style="text-anchor: middle; visibility: hidden; font-family: Roboto, sans-serif; font-size: 12px; font-weight: 200;" x="247.5865704672677" y="0" dx="0em" dy="0.95em" fill="rgb(50, 49, 63)" stroke="none" stroke-width="1px">80k</text><text style="text-anchor: middle; visibility: inherit; font-family: Roboto, sans-serif; font-size: 12px; font-weight: 200;" x="268.21878467287337" y="0" dx="0em" dy="0.95em" fill="rgb(50, 49, 63)" stroke="none" stroke-width="1px">85k</text><text style="text-anchor: middle; visibility: hidden; font-family: Roboto, sans-serif; font-size: 12px; font-weight: 200;" x="288.850998878479" y="0" dx="0em" dy="0.95em" fill="rgb(50, 49, 63)" stroke="none" stroke-width="1px">90k</text></g><line x1="0" y1="0" x2="288.850998878479" y2="0" fill="rgb(0, 0, 0)" stroke="rgb(204, 204, 204)" stroke-width="1px"></line></g></g></g></g></svg>