<svg viewBox="0 0 330 200" xmlns="http://www.w3.org/2000/svg"><g><g><g><g><g><line x1="72.29800224304199" y1="177.89999961853027" x2="67.29800224304199" y2="177.89999961853027" style="visibility: inherit;" fill="rgb(0, 0, 0)" stroke="rgb(204, 204, 204)" stroke-width="1px"></line><line x1="72.29800224304199" y1="158.13333299424912" x2="67.29800224304199" y2="158.13333299424912" style="visibility: inherit;" fill="rgb(0, 0, 0)" stroke="rgb(204, 204, 204)" stroke-width="1px"></line><line x1="72.29800224304199" y1="138.366666369968" x2="67.29800224304199" y2="138.366666369968" style="visibility: inherit;" fill="rgb(0, 0, 0)" stroke="rgb(204, 204, 204)" stroke-width="1px"></line><line x1="72.29800224304199" y1="118.59999974568684" x2="67.29800224304199" y2="118.59999974568684" style="visibility: inherit;" fill="rgb(0, 0, 0)" stroke="rgb(204, 204, 204)" stroke-width="1px"></line><line x1="72.29800224304199" y1="98.83333312140572" x2="67.29800224304199" y2="98.83333312140572" style="visibility: inherit;" fill="rgb(0, 0, 0)" stroke="rgb(204, 204, 204)" stroke-width="1px"></line><line x1="72.29800224304199" y1="79.06666649712456" x2="67.29800224304199" y2="79.06666649712456" style="visibility: inherit;" fill="rgb(0, 0, 0)" stroke="rgb(204, 204, 204)" stroke-width="1px"></line><line x1="72.29800224304199" y1="59.29999987284343" x2="67.29800224304199" y2="59.29999987284343" style="visibility: inherit;" fill="rgb(0, 0, 0)" stroke="rgb(204, 204, 204)" stroke-width="1px"></line><line x1="72.29800224304199" y1="39.5333332485623" x2="67.29800224304199" y2="39.5333332485623" style="visibility: inherit;" fill="rgb(0, 0, 0)" stroke="rgb(204, 204, 204)" stroke-width="1px"></line><line x1="72.29800224304199" y1="19.76666662428113" x2="67.29800224304199" y2="19.76666662428113" style="visibility: inherit;" fill="rgb(0, 0, 0)" stroke="rgb(204, 204, 204)" stroke-width="1px"></line><line x1="72.29800224304199" y1="0" x2="67.29800224304199" y2="0" style="visibility: inherit;" fill="rgb(0, 0, 0)" stroke="rgb(204, 204, 204)" stroke-width="1px"></line></g><g transform="translate(62.29800224304199, 0)"><text style="text-anchor: end; visibility: hidden; font-family: Roboto, sans-serif; font-size: 12px; font-weight: 200;" x="0" y="177.89999961853027" dx="0em" dy="0.3em" fill="rgb(50, 49, 63)" stroke="none" stroke-width="1px">-2e-8</text><text style="text-anchor: end; visibility: inherit; font-family: Roboto, sans-serif; font-size: 12px; font-weight: 200;" x="0" y="158.13333299424912" dx="0em" dy="0.3em" fill="rgb(50, 49, 63)" stroke="none" stroke-width="1px">0</text><text style="text-anchor: end; visibility: hidden; font-family: Roboto, sans-serif; font-size: 12px; font-weight: 200;" x="0" y="138.366666369968" dx="0em" dy="0.3em" fill="rgb(50, 49, 63)" stroke="none" stroke-width="1px">2e-8</text><text style="text-anchor: end; visibility: inherit; font-family: Roboto, sans-serif; font-size: 12px; font-weight: 200;" x="0" y="118.59999974568684" dx="0em" dy="0.3em" fill="rgb(50, 49, 63)" stroke="none" stroke-width="1px">4e-8</text><text style="text-anchor: end; visibility: hidden; font-family: Roboto, sans-serif; font-size: 12px; font-weight: 200;" x="0" y="98.83333312140572" dx="0em" dy="0.3em" fill="rgb(50, 49, 63)" stroke="none" stroke-width="1px">6e-8</text><text style="text-anchor: end; visibility: inherit; font-family: Roboto, sans-serif; font-size: 12px; font-weight: 200;" x="0" y="79.06666649712456" dx="0em" dy="0.3em" fill="rgb(50, 49, 63)" stroke="none" stroke-width="1px">8e-8</text><text style="text-anchor: end; visibility: hidden; font-family: Roboto, sans-serif; font-size: 12px; font-weight: 200;" x="0" y="59.29999987284343" dx="0em" dy="0.3em" fill="rgb(50, 49, 63)" stroke="none" stroke-width="1px">1e-7</text><text style="text-anchor: end; visibility: inherit; font-family: Roboto, sans-serif; font-size: 12px; font-weight: 200;" x="0" y="39.5333332485623" dx="0em" dy="0.3em" fill="rgb(50, 49, 63)" stroke="none" stroke-width="1px">1.2e-7</text><text style="text-anchor: end; visibility: hidden; font-family: Roboto, sans-serif; font-size: 12px; font-weight: 200;" x="0" y="19.76666662428113" dx="0em" dy="0.3em" fill="rgb(50, 49, 63)" stroke="none" stroke-width="1px">1.4e-7</text><text style="text-anchor: end; visibility: hidden; font-family: Roboto, sans-serif; font-size: 12px; font-weight: 200;" x="0" y="0" dx="0em" dy="0.3em" fill="rgb(50, 49, 63)" stroke="none" stroke-width="1px">1.6e-7</text></g><line x1="72.29800224304199" y1="0" x2="72.29800224304199" y2="177.89999961853027" fill="rgb(0, 0, 0)" stroke="rgb(204, 204, 204)" stroke-width="1px"></line></g></g><g transform="translate(72, 0)" clip-path="url(#clip_0)"><clipPath id="clip_0"><rect width="257" height="177"></rect></clipPath><g><g><g><line x1="0" y1="0" x2="0" y2="177.89999961853027" fill="rgb(0, 0, 0)" stroke="rgb(60, 60, 60)" stroke-width="1px" opacity="0.25"></line><line x1="21.4751664797465" y1="0" x2="21.4751664797465" y2="177.89999961853027" fill="rgb(0, 0, 0)" stroke="rgb(60, 60, 60)" stroke-width="1px" opacity="0.25"></line><line x1="42.950332959493" y1="0" x2="42.950332959493" y2="177.89999961853027" fill="rgb(0, 0, 0)" stroke="rgb(60, 60, 60)" stroke-width="1px" opacity="0.25"></line><line x1="64.4254994392395" y1="0" x2="64.4254994392395" y2="177.89999961853027" fill="rgb(0, 0, 0)" stroke="rgb(60, 60, 60)" stroke-width="1px" opacity="0.25"></line><line x1="85.900665918986" y1="0" x2="85.900665918986" y2="177.89999961853027" fill="rgb(0, 0, 0)" stroke="rgb(60, 60, 60)" stroke-width="1px" opacity="0.25"></line><line x1="107.37583239873251" y1="0" x2="107.37583239873251" y2="177.89999961853027" fill="rgb(0, 0, 0)" stroke="rgb(60, 60, 60)" stroke-width="1px" opacity="0.25"></line><line x1="128.850998878479" y1="0" x2="128.850998878479" y2="177.89999961853027" fill="rgb(0, 0, 0)" stroke="rgb(60, 60, 60)" stroke-width="1px" opacity="0.25"></line><line x1="150.32616535822552" y1="0" x2="150.32616535822552" y2="177.89999961853027" fill="rgb(0, 0, 0)" stroke="rgb(60, 60, 60)" stroke-width="1px" opacity="0.25"></line><line x1="171.801331837972" y1="0" x2="171.801331837972" y2="177.89999961853027" fill="rgb(0, 0, 0)" stroke="rgb(60, 60, 60)" stroke-width="1px" opacity="0.25"></line><line x1="193.2764983177185" y1="0" x2="193.2764983177185" y2="177.89999961853027" fill="rgb(0, 0, 0)" stroke="rgb(60, 60, 60)" stroke-width="1px" opacity="0.25"></line><line x1="214.75166479746503" y1="0" x2="214.75166479746503" y2="177.89999961853027" fill="rgb(0, 0, 0)" stroke="rgb(60, 60, 60)" stroke-width="1px" opacity="0.25"></line><line x1="236.2268312772115" y1="0" x2="236.2268312772115" y2="177.89999961853027" fill="rgb(0, 0, 0)" stroke="rgb(60, 60, 60)" stroke-width="1px" opacity="0.25"></line><line x1="257.701997756958" y1="0" x2="257.701997756958" y2="177.89999961853027" fill="rgb(0, 0, 0)" stroke="rgb(60, 60, 60)" stroke-width="1px" opacity="0.25"></line></g><g><line x1="0" y1="177.89999961853027" x2="257.701997756958" y2="177.89999961853027" fill="rgb(0, 0, 0)" stroke="rgb(60, 60, 60)" stroke-width="1px" opacity="0.25"></line><line x1="0" y1="158.13333299424912" x2="257.701997756958" y2="158.13333299424912" fill="rgb(0, 0, 0)" stroke="rgb(60, 60, 60)" stroke-width="1px" opacity="0.25"></line><line x1="0" y1="138.366666369968" x2="257.701997756958" y2="138.366666369968" fill="rgb(0, 0, 0)" stroke="rgb(60, 60, 60)" stroke-width="1px" opacity="0.25"></line><line x1="0" y1="118.59999974568684" x2="257.701997756958" y2="118.59999974568684" fill="rgb(0, 0, 0)" stroke="rgb(60, 60, 60)" stroke-width="1px" opacity="0.25"></line><line x1="0" y1="98.83333312140572" x2="257.701997756958" y2="98.83333312140572" fill="rgb(0, 0, 0)" stroke="rgb(60, 60, 60)" stroke-width="1px" opacity="0.25"></line><line x1="0" y1="79.06666649712456" x2="257.701997756958" y2="79.06666649712456" fill="rgb(0, 0, 0)" stroke="rgb(60, 60, 60)" stroke-width="1px" opacity="0.25"></line><line x1="0" y1="59.29999987284343" x2="257.701997756958" y2="59.29999987284343" fill="rgb(0, 0, 0)" stroke="rgb(60, 60, 60)" stroke-width="1px" opacity="0.25"></line><line x1="0" y1="39.5333332485623" x2="257.701997756958" y2="39.5333332485623" fill="rgb(0, 0, 0)" stroke="rgb(60, 60, 60)" stroke-width="1px" opacity="0.25"></line><line x1="0" y1="19.76666662428113" x2="257.701997756958" y2="19.76666662428113" fill="rgb(0, 0, 0)" stroke="rgb(60, 60, 60)" stroke-width="1px" opacity="0.25"></line><line x1="0" y1="0" x2="257.701997756958" y2="0" fill="rgb(0, 0, 0)" stroke="rgb(60, 60, 60)" stroke-width="1px" opacity="0.25"></line></g></g></g><g><g><line x1="0" y1="158.13333299424912" x2="257.701997756958" y2="158.13333299424912" fill="rgb(0, 0, 0)" stroke="rgb(153, 153, 153)" stroke-width="1.5px"></line></g></g><g><g><line x1="-42.950332959493" y1="0" x2="-42.950332959493" y2="177.89999961853027" fill="rgb(0, 0, 0)" stroke="rgb(153, 153, 153)" stroke-width="1.5px"></line></g></g><g><g><g><g><g><path style="fill: none;" stroke="rgb(204, 51, 17)" stroke-width="2px" d="M147.54513129909833,158.13333299424912L148.85726397101084,158.13333299424912L150.1586590596835,158.13333299424912L151.4600541483561,158.13333299424912L152.76144923702876,158.13333299424912L154.0628443257014,158.13333299424912L155.36423941437403,158.13333299424912L156.66563450304668,158.13333299424912L157.9670295917193,158.13333299424912L159.26842468039195,158.13333299424912L160.5698197690646,158.13333299424912L161.87121485773721,158.13333299424912L163.17260994640986,158.13333299424912L164.47400503508248,158.13333299424912L165.77540012375513,158.13333299424912L167.07679521242778,158.13333299424912L168.3889278843403,158.13333299424912L169.69032297301294,158.13333299424912L170.99171806168556,158.13333299424912L172.29526066700618,158.13333299424912L173.5966557556788,158.13333299424912L174.89805084435145,158.13333299424912L176.1994459330241,158.13333299424912L177.5115786049366,158.13333299424912L178.81297369360925,158.13333299424912L180.11651629892984,158.13333299424912L181.42864897084237,158.13333299424912L182.730044059515,158.13333299424912L184.03143914818764,158.13333299424912L185.33283423686026,158.13333299424912L186.6342293255329,158.13333299424912L187.94636199744542,158.13333299424912L189.24775708611804,158.13333299424912L190.55988975803058,158.13333299424912L191.8612848467032,158.13333299424912L193.16267993537585,158.13333299424912L194.4640750240485,158.13333299424912L195.776207695961,158.13333299424912L197.07760278463365,158.13333299424912L198.37899787330628,158.13333299424912L199.68039296197892,158.13333299424912L200.9925256338914,158.13333299424912L202.30465830580394,158.13333299424912L203.6060533944766,158.13333299424912L204.9074484831492,158.13333299424912L206.20884357182186,158.13333299424912L207.51023866049448,158.13333299424912L208.822371332407,158.13333299424912L210.12376642107964,158.13333299424912L211.42516150975226,158.13333299424912L212.7372941816648,158.13333299424912L214.03868927033741,158.13333299424912L215.34008435901006,158.13333299424912L216.6414794476827,158.13333299424912L217.94287453635533,158.13333299424912L219.24426962502798,158.13333299424912L220.5456647137006,158.13333299424912L221.84705980237325,158.13333299424912L223.1484548910459,158.13333299424912L224.44984997971852,158.13333299424912L225.75339258503917,158.13333299424912L227.06552525695164,158.13333299424912L228.3669203456243,158.13333299424912L229.66831543429691,158.13333299424912L230.96971052296956,158.13333299424912L232.2711056116422,158.13333299424912L233.57250070031483,158.13333299424912L234.87604330563545,158.13333299424912L236.1774383943081,158.13333299424912L237.47883348298075,158.13333299424912L238.79096615489323,158.13333299424912" fill="none"></path></g><g><path style="fill: none;" stroke="rgb(255, 112, 67)" stroke-width="2px" d="M18.85090113592148,-48.41620735505122L19.370600164731346,34.20363922649114L19.83446376069387,83.77552769264602L20.062100525379183,113.51865375854494L20.289737290064494,131.3645268731192L20.669847736756008,142.07204983287644L21.009155367136003,148.4965632814954L21.236792131821314,152.35127123286208L21.6190500951608,154.66409596127232L22.024930741628012,156.05179078305102L22.417926288207372,156.88440767062193L22.645563052892683,157.3839778011858L23.105131615559262,157.68371987881181L23.332768380244573,157.86356512513098L23.560405144929888,157.97147227283017L24.202512622674305,158.03621656141647L24.73509675137202,158.07506313455627L25.113059681415557,158.09837107843583L25.340696446100868,158.11235584476202L25.568333210786182,158.12074670455718L25.795969975471497,158.12578122043408L26.034344323396684,158.12880192996013L26.261981088081995,158.13061435567576L26.48961785276731,158.1317018111051L26.944891382137936,158.13235428436272L27.453852827707927,158.1327457683173L27.681489592393238,158.13298065869003L28.010059639533363,158.13312159291368L28.33862968667348,158.13320615344787L28.566266451358796,158.13325688976838L28.907721598386765,158.13328733156067L29.98147992237409,158.13330559663603L30.31864003610611,158.1333165556813L30.557014384031294,158.13332313110843L30.78465114871661,158.1333270763647L31.115368712504704,158.13332944351848L31.343005477190015,158.13333086381073L31.80257403985659,158.1333317159861L32.0302108045419,158.1333322272913L32.25784756922722,158.13333253407444L33.06531382886568,158.13333271814432L33.292950593551005,158.13333282858622L33.522734874884286,158.1333328948514L33.85774747196833,158.13333293461048L34.085384236653645,158.13333295846596L34.42469186703364,158.13333297277921L34.77688459730148,158.1333329813672L35.103307127793634,158.13333298651995L35.779774871905644,158.13333298961163L36.18780303502083,158.13333299146663L36.41543979970614,158.13333299257962L36.64307656439145,158.13333299324745L36.87071332907677,158.1333329936481L37.26370887565613,158.1333329938885L37.592278922796254,158.13333299403277L37.81991568748156,158.1333329941193L38.047552452166876,158.13333299417124L38.27518921685218,158.1333329942024L38.502825981537505,158.1333329942211L38.73046274622281,158.1333329942323L39.17499869235356,158.13333299423903L40.07266065120697,158.1333329942431L40.30029741589229,158.13333299424548L40.88012691084543,158.13333299424696L41.2817125240167,158.1333329942478L41.50934928870201,158.13333299424835L41.83577181919416,158.13333299424866L42.76564652776718,158.13333299424886L43.15005200775464,158.13333299424897L43.66545600326856,158.13333299424903L43.893092767953874,158.13333299424906L44.12072953263918,158.13333299424912L45.091407057523725,158.13333299424912L45.43715723784765,158.13333299424912L45.84733291761081,158.13333299424912L46.332671680053075,158.13333299424912L46.56030844473839,158.13333299424912L46.886730975230535,158.13333299424912L47.21315350572268,158.13333299424912L47.440790270407994,158.13333299424912L47.79513051732381,158.13333299424912L48.02276728200912,158.13333299424912L48.250404046694435,158.13333299424912L48.656284693161645,158.13333299424912L48.88392145784696,158.13333299424912L49.21463902163506,158.13333299424912L49.45301336956024,158.13333299424912L49.68065013424555,158.13333299424912L49.90828689893086,158.13333299424912L50.443018544276555,158.13333299424912L50.67065530896187,158.13333299424912L51.1087487051487,158.13333299424912L51.336385469834006,158.13333299424912L51.56402223451932,158.13333299424912L51.80239658244451,158.13333299424912L52.13955669617653,158.13333299424912L52.53899479269982,158.13333299424912L52.867564839839936,158.13333299424912L53.09520160452525,158.13333299424912L53.32283836921056,158.13333299424912L53.66214599959056,158.13333299424912L54.046551479578014,158.13333299424912L54.28492582750321,158.13333299424912L54.512562592188516,158.13333299424912L55.08809705384572,158.13333299424912L55.31573381853104,158.13333299424912L55.69369674857458,158.13333299424912L55.92133351325989,158.13333299424912L56.40022972575823,158.13333299424912L56.726652256250375,158.13333299424912L57.117500286181766,158.13333299424912L57.34513705086708,158.13333299424912L57.57277381555239,158.13333299424912L58.017309761683144,158.13333299424912L58.348027325471236,158.13333299424912L58.58640167339643,158.13333299424912L59.29293465058009,158.13333299424912L59.5205714152654,158.13333299424912L59.887796762069065,158.13333299424912L60.42252840741475,158.13333299424912L60.753245971202844,158.13333299424912L61.10114366817474,158.13333299424912L61.43830378190676,158.13333299424912L62.12550910925866,158.13333299424912L62.469111772934596,158.13333299424912L63.31093829894066,158.13333299424912L63.53857506362597,158.13333299424912L64.12484710852304,158.13333299424912L64.35248387320837,158.13333299424912L64.58012063789367,158.13333299424912L64.80775740257899,158.13333299424912L65.14706503295899,158.13333299424912L65.47348756345113,158.13333299424912L65.70112432813644,158.13333299424912L65.92876109282176,158.13333299424912L66.15639785750706,158.13333299424912L66.38403462219239,158.13333299424912L66.78991526865958,158.13333299424912L67.0175520333449,158.13333299424912L67.37833483020465,158.13333299424912L67.73267507712046,158.13333299424912L67.96031184180578,158.13333299424912L68.18794860649109,158.13333299424912L68.42632295441628,158.13333299424912L68.6539597191016,158.13333299424912L69.07057794880868,158.13333299424912L69.29821471349399,158.13333299424912L69.52585147817929,158.13333299424912L69.7534882428646,158.13333299424912L69.9918625907898,158.13333299424912L70.44284108686446,158.13333299424912L70.84872173333167,158.13333299424912L71.08709608125686,158.13333299424912L71.41996116169294,158.13333299424912L71.65833550961813,158.13333299424912L71.98905307340621,158.13333299424912L72.21668983809153,158.13333299424912L72.5495549185276,158.13333299424912L72.78792926645278,158.13333299424912L73.52452747670809,158.13333299424912L73.75216424139342,158.13333299424912L73.9905385893186,158.13333299424912L74.2181753540039,158.13333299424912L74.54459788449606,158.13333299424912L74.77223464918137,158.13333299424912L75.10080469632149,158.13333299424912L75.43152226010959,158.13333299424912L75.65915902479489,158.13333299424912L75.8867957894802,158.13333299424912L76.21536583662034,158.13333299424912L76.96699666341146,158.13333299424912L77.19463342809676,158.13333299424912L77.60480910785992,158.13333299424912L77.83244587254524,158.13333299424912L78.06008263723055,158.13333299424912L78.40153778425854,158.13333299424912L78.62917454894384,158.13333299424912L78.85681131362915,158.13333299424912L79.41516564210255,158.13333299424912L79.64280240678787,158.13333299424912L80.09378090286255,158.13333299424912L80.32141766754786,158.13333299424912L80.65428274798393,158.13333299424912L80.88191951266926,158.13333299424912L81.10955627735456,158.13333299424912L81.33719304203987,158.13333299424912L81.79461408805848,158.13333299424912L82.1553968849182,158.13333299424912L82.38303364960352,158.13333299424912L82.61067041428883,158.13333299424912L82.84904476221402,158.13333299424912L83.23774527549745,158.13333299424912L83.46538204018276,158.13333299424912L83.85408255346617,158.13333299424912L84.18265260060627,158.13333299424912L84.51122264774641,158.13333299424912L84.73885941243171,158.13333299424912L84.96649617711702,158.13333299424912L85.19413294180234,158.13333299424912L85.71168445396424,158.13333299424912L85.93932121864955,158.13333299424912L86.16695798333485,158.13333299424912L86.39459474802017,158.13333299424912L86.62223151270548,158.13333299424912L86.9508015598456,158.13333299424912L87.17843832453092,158.13333299424912L87.40607508921623,158.13333299424912L87.63371185390154,158.13333299424912L87.86134861858685,158.13333299424912L88.09113289992014,158.13333299424912L88.31876966460545,158.13333299424912L88.54640642929077,158.13333299424912L88.78478077721597,158.13333299424912L89.2980372560819,158.13333299424912L89.52567402076721,158.13333299424912L89.75331078545253,158.13333299424912L89.98309506678582,158.13333299424912L90.21073183147114,158.13333299424912L90.44910617939631,158.13333299424912L90.67674294408162,158.13333299424912L90.90437970876694,158.13333299424912L91.14275405669213,158.13333299424912L91.37039082137743,158.13333299424912L91.7032559018135,158.13333299424912L91.93089266649882,158.13333299424912L92.15852943118414,158.13333299424912L92.38616619586944,158.13333299424912L92.61380296055476,158.13333299424912L92.95096307428679,158.13333299424912L93.30315580455462,158.13333299424912L93.63172585169474,158.13333299424912L93.85936261638007,158.13333299424912L94.08699938106537,158.13333299424912L94.31463614575068,158.13333299424912L94.64750122618676,158.13333299424912L94.87513799087206,158.13333299424912L95.10277475555738,158.13333299424912L95.50006533543268,158.13333299424912L95.727702100118,158.13333299424912L96.05412463061016,158.13333299424912L96.28176139529546,158.13333299424912L96.50939815998078,158.13333299424912L96.73703492466609,158.13333299424912L96.97540927259128,158.13333299424912L97.20304603727658,158.13333299424912L97.53805863436064,158.13333299424912L97.76569539904595,158.13333299424912L97.99333216373125,158.13333299424912L98.22096892841657,158.13333299424912L98.66550487454732,158.13333299424912L99.03058270470301,158.13333299424912L99.25821946938832,158.13333299424912L99.48585623407364,158.13333299424912L99.71349299875895,158.13333299424912L99.95186734668414,158.13333299424912L100.17950411136945,158.13333299424912L100.40928839270273,158.13333299424912L100.63692515738805,158.13333299424912L100.86456192207338,158.13333299424912L101.09219868675868,158.13333299424912L101.31983545144399,158.13333299424912L101.55820979936918,158.13333299424912L101.7858465640545,158.13333299424912L102.0134833287398,158.13333299424912L102.24112009342511,158.13333299424912L102.46875685811042,158.13333299424912L102.84671978815398,158.13333299424912L103.07435655283929,158.13333299424912L103.30199331752459,158.13333299424912L103.5296300822099,158.13333299424912L103.7680044301351,158.13333299424912L104.00637877806028,158.13333299424912L104.23401554274558,158.13333299424912L104.4616523074309,158.13333299424912L104.68928907211621,158.13333299424912L104.91692583680154,158.13333299424912L105.14456260148684,158.13333299424912L105.37219936617215,158.13333299424912L105.59983613085747,158.13333299424912L105.92625866134962,158.13333299424912L106.15389542603492,158.13333299424912L106.38367970736822,158.13333299424912L106.61131647205353,158.13333299424912L106.83895323673885,158.13333299424912L107.06659000142415,158.13333299424912L107.29422676610946,158.13333299424912L107.53260111403465,158.13333299424912L107.76023787871998,158.13333299424912L107.98787464340528,158.13333299424912L108.21551140809059,158.13333299424912L108.4431481727759,158.13333299424912L108.6815225207011,158.13333299424912L108.91989686862628,158.13333299424912L109.14753363331158,158.13333299424912L109.3751703979969,158.13333299424912L109.60280716268221,158.13333299424912L109.83044392736754,158.13333299424912L110.05808069205284,158.13333299424912L110.29645503997803,158.13333299424912L110.52409180466334,158.13333299424912L110.75172856934866,158.13333299424912L110.97936533403396,158.13333299424912L111.20700209871927,158.13333299424912L111.5355721458594,158.13333299424912L111.76535642719269,158.13333299424912L112.21848243991533,158.13333299424912L112.44826672124863,158.13333299424912L112.67590348593393,158.13333299424912L113.00232601642608,158.13333299424912L113.2299627811114,158.13333299424912L113.4683371290366,158.13333299424912L113.6959738937219,158.13333299424912L113.92361065840721,158.13333299424912L114.15339493974051,158.13333299424912L114.3917692876657,158.13333299424912L114.619406052351,158.13333299424912L114.85778040027618,158.13333299424912L115.09615474820137,158.13333299424912L115.32379151288669,158.13333299424912L115.55357579421998,158.13333299424912L115.78121255890528,158.13333299424912L116.0088493235906,158.13333299424912L116.23648608827591,158.13333299424912L116.46412285296122,158.13333299424912L116.69175961764653,158.13333299424912L116.91939638233184,158.13333299424912L117.14703314701717,158.13333299424912L117.37466991170248,158.13333299424912L117.61304425962766,158.13333299424912L117.84068102431297,158.13333299424912L118.07046530564627,158.13333299424912L118.30024958697955,158.13333299424912L118.52788635166486,158.13333299424912L118.75552311635018,158.13333299424912L118.98315988103549,158.13333299424912L119.22153422896068,158.13333299424912L119.45990857688587,158.13333299424912L119.68754534157117,158.13333299424912L120.07195082155863,158.13333299424912L120.29958758624394,158.13333299424912L120.64104273327192,158.13333299424912L120.86867949795723,158.13333299424912L121.09631626264253,158.13333299424912L121.33469061056773,158.13333299424912L121.56232737525305,158.13333299424912L121.78996413993836,158.13333299424912L122.01760090462366,158.13333299424912L122.24523766930898,158.13333299424912L122.47287443399429,158.13333299424912L122.7005111986796,158.13333299424912L123.08921171196302,158.13333299424912L123.31684847664833,158.13333299424912L123.54448524133365,158.13333299424912L123.77212200601896,158.13333299424912L124.00190628735226,158.13333299424912L124.40134438387554,158.13333299424912L124.62898114856084,158.13333299424912L124.85661791324615,158.13333299424912L125.08425467793147,158.13333299424912L125.31189144261678,158.13333299424912L125.5395282073021,158.13333299424912L125.7671649719874,158.13333299424912L125.99480173667271,158.13333299424912L126.22243850135804,158.13333299424912L126.45007526604336,158.13333299424912L126.67771203072866,158.13333299424912L126.90534879541397,158.13333299424912L127.13298556009929,158.13333299424912L127.3606223247846,158.13333299424912L127.5882590894699,158.13333299424912L127.81589585415522,158.13333299424912L128.04353261884054,158.13333299424912L128.27116938352586,158.13333299424912L128.50954373145103,158.13333299424912L128.73718049613635,158.13333299424912L128.96481726082166,158.13333299424912L129.19460154215494,158.13333299424912L129.42223830684026,158.13333299424912L129.64987507152557,158.13333299424912L129.87751183621089,158.13333299424912L130.1051486008962,158.13333299424912L130.33278536558151,158.13333299424912L130.56042213026683,158.13333299424912L130.798796478192,158.13333299424912L131.03717082611718,158.13333299424912L131.2648075908025,158.13333299424912L131.5031819387277,158.13333299424912L131.91335761849086,158.13333299424912L132.14099438317618,158.13333299424912L132.52539986316364,158.13333299424912L132.95490319275856,158.13333299424912L133.18253995744388,158.13333299424912L133.4101767221292,158.13333299424912L133.6378134868145,158.13333299424912L133.86545025149982,158.13333299424912L134.09308701618514,158.13333299424912L134.3314613641103,158.13333299424912L134.55909812879563,158.13333299424912L134.7888824101289,158.13333299424912L135.01651917481422,158.13333299424912L135.25489352273942,158.13333299424912L135.48253028742474,158.13333299424912L135.71016705211002,158.13333299424912L135.93780381679534,158.13333299424912L136.16544058148065,158.13333299424912L136.39307734616597,158.13333299424912L136.62071411085128,158.13333299424912L136.8483508755366,158.13333299424912L137.0759876402219,158.13333299424912L137.30362440490725,158.13333299424912L137.53126116959254,158.13333299424912L137.75889793427785,158.13333299424912L137.98653469896317,158.13333299424912L138.21417146364848,158.13333299424912L138.4418082283338,158.13333299424912L138.6694449930191,158.13333299424912L138.89708175770443,158.13333299424912L139.12471852238974,158.13333299424912L139.35235528707503,158.13333299424912L139.57999205176034,158.13333299424912L139.80977633309365,158.13333299424912L140.03956061442693,158.13333299424912L140.26719737911225,158.13333299424912L140.49483414379756,158.13333299424912L140.72461842513084,158.13333299424912L140.96299277305604,158.13333299424912L141.20136712098122,158.13333299424912L141.4397414689064,158.13333299424912L141.6673782335917,158.13333299424912L141.9057525815169,158.13333299424912L142.13338934620222,158.13333299424912L142.36102611088754,158.13333299424912L142.58866287557282,158.13333299424912L142.81629964025814,158.13333299424912L143.04393640494345,158.13333299424912L143.27157316962877,158.13333299424912L143.4992099343141,158.13333299424912L143.72684669899942,158.13333299424912L143.95448346368474,158.13333299424912L144.18212022837005,158.13333299424912L144.40975699305534,158.13333299424912L144.63739375774065,158.13333299424912L144.86717803907396,158.13333299424912L145.10555238699914,158.13333299424912L145.33318915168445,158.13333299424912L145.56082591636977,158.13333299424912L145.78846268105508,158.13333299424912L146.0160994457404,158.13333299424912L146.24373621042568,158.13333299424912L146.48211055835088,158.13333299424912" fill="none"></path></g></g></g></g><g opacity="0.2"><g><g><g><path style="fill: none;" stroke="rgb(204, 51, 17)" stroke-width="2px" d="M147.54513129909833,158.13333299424912L148.85726397101084,158.13333299424912L150.1586590596835,158.13333299424912L151.4600541483561,158.13333299424912L152.76144923702876,158.13333299424912L154.0628443257014,158.13333299424912L155.36423941437403,158.13333299424912L156.66563450304668,158.13333299424912L157.9670295917193,158.13333299424912L159.26842468039195,158.13333299424912L160.5698197690646,158.13333299424912L161.87121485773721,158.13333299424912L163.17260994640986,158.13333299424912L164.47400503508248,158.13333299424912L165.77540012375513,158.13333299424912L167.07679521242778,158.13333299424912L168.3889278843403,158.13333299424912L169.69032297301294,158.13333299424912L170.99171806168556,158.13333299424912L172.29526066700618,158.13333299424912L173.5966557556788,158.13333299424912L174.89805084435145,158.13333299424912L176.1994459330241,158.13333299424912L177.5115786049366,158.13333299424912L178.81297369360925,158.13333299424912L180.11651629892984,158.13333299424912L181.42864897084237,158.13333299424912L182.730044059515,158.13333299424912L184.03143914818764,158.13333299424912L185.33283423686026,158.13333299424912L186.6342293255329,158.13333299424912L187.94636199744542,158.13333299424912L189.24775708611804,158.13333299424912L190.55988975803058,158.13333299424912L191.8612848467032,158.13333299424912L193.16267993537585,158.13333299424912L194.4640750240485,158.13333299424912L195.776207695961,158.13333299424912L197.07760278463365,158.13333299424912L198.37899787330628,158.13333299424912L199.68039296197892,158.13333299424912L200.9925256338914,158.13333299424912L202.30465830580394,158.13333299424912L203.6060533944766,158.13333299424912L204.9074484831492,158.13333299424912L206.20884357182186,158.13333299424912L207.51023866049448,158.13333299424912L208.822371332407,158.13333299424912L210.12376642107964,158.13333299424912L211.42516150975226,158.13333299424912L212.7372941816648,158.13333299424912L214.03868927033741,158.13333299424912L215.34008435901006,158.13333299424912L216.6414794476827,158.13333299424912L217.94287453635533,158.13333299424912L219.24426962502798,158.13333299424912L220.5456647137006,158.13333299424912L221.84705980237325,158.13333299424912L223.1484548910459,158.13333299424912L224.44984997971852,158.13333299424912L225.75339258503917,158.13333299424912L227.06552525695164,158.13333299424912L228.3669203456243,158.13333299424912L229.66831543429691,158.13333299424912L230.96971052296956,158.13333299424912L232.2711056116422,158.13333299424912L233.57250070031483,158.13333299424912L234.87604330563545,158.13333299424912L236.1774383943081,158.13333299424912L237.47883348298075,158.13333299424912L238.79096615489323,158.13333299424912" fill="none"></path></g><g><path style="fill: none;" stroke="rgb(255, 112, 67)" stroke-width="2px" d="M11.23151206890742,-886769.8045807744L11.459148833592733,158.13333299424912L11.686785598278046,158.13333299424912L12.015355645418166,158.13333299424912L12.352515759150188,158.13333299424912L12.580152523835501,158.13333299424912L13.613108031511306,158.13333299424912L14.248772959311804,158.13333299424912L14.476409723997117,158.13333299424912L15.565200664520264,158.13333299424912L16.050539426962537,158.13333299424912L16.580976039012274,158.13333299424912L16.935316285928092,158.13333299424912L17.46575289797783,158.13333299424912L17.693389662663144,158.13333299424912L17.921026427348455,158.13333299424912L18.14866319203377,158.13333299424912L18.52018357213338,158.13333299424912L18.85090113592148,158.13333299424912L19.370600164731346,158.13333299424912L19.83446376069387,158.13333299424912L20.062100525379183,158.13333299424912L20.289737290064494,158.13333299424912L20.669847736756008,158.13333299424912L21.009155367136003,158.13333299424912L21.236792131821314,158.13333299424912L21.6190500951608,158.13333299424912L22.024930741628012,158.13333299424912L22.417926288207372,158.13333299424912L22.645563052892683,158.13333299424912L23.105131615559262,158.13333299424912L23.332768380244573,158.13333299424912L23.560405144929888,158.13333299424912L24.202512622674305,158.13333299424912L24.73509675137202,158.13333299424912L25.113059681415557,158.13333299424912L25.340696446100868,158.13333299424912L25.568333210786182,158.13333299424912L25.795969975471497,158.13333299424912L26.034344323396684,158.13333299424912L26.261981088081995,158.13333299424912L26.48961785276731,158.13333299424912L26.944891382137936,158.13333299424912L27.453852827707927,158.13333299424912L27.681489592393238,158.13333299424912L28.010059639533363,158.13333299424912L28.33862968667348,158.13333299424912L28.566266451358796,158.13333299424912L28.907721598386765,158.13333299424912L29.98147992237409,158.13333299424912L30.31864003610611,158.13333299424912L30.557014384031294,158.13333299424912L30.78465114871661,158.13333299424912L31.115368712504704,158.13333299424912L31.343005477190015,158.13333299424912L31.80257403985659,158.13333299424912L32.0302108045419,158.13333299424912L32.25784756922722,158.13333299424912L33.06531382886568,158.13333299424912L33.292950593551005,158.13333299424912L33.522734874884286,158.13333299424912L33.85774747196833,158.13333299424912L34.085384236653645,158.13333299424912L34.42469186703364,158.13333299424912L34.77688459730148,158.13333299424912L35.103307127793634,158.13333299424912L35.779774871905644,158.13333299424912L36.18780303502083,158.13333299424912L36.41543979970614,158.13333299424912L36.64307656439145,158.13333299424912L36.87071332907677,158.13333299424912L37.26370887565613,158.13333299424912L37.592278922796254,158.13333299424912L37.81991568748156,158.13333299424912L38.047552452166876,158.13333299424912L38.27518921685218,158.13333299424912L38.502825981537505,158.13333299424912L38.73046274622281,158.13333299424912L39.17499869235356,158.13333299424912L40.07266065120697,158.13333299424912L40.30029741589229,158.13333299424912L40.88012691084543,158.13333299424912L41.2817125240167,158.13333299424912L41.50934928870201,158.13333299424912L41.83577181919416,158.13333299424912L42.76564652776718,158.13333299424912L43.15005200775464,158.13333299424912L43.66545600326856,158.13333299424912L43.893092767953874,158.13333299424912L44.12072953263918,158.13333299424912L45.091407057523725,158.13333299424912L45.43715723784765,158.13333299424912L45.84733291761081,158.13333299424912L46.332671680053075,158.13333299424912L46.56030844473839,158.13333299424912L46.886730975230535,158.13333299424912L47.21315350572268,158.13333299424912L47.440790270407994,158.13333299424912L47.79513051732381,158.13333299424912L48.02276728200912,158.13333299424912L48.250404046694435,158.13333299424912L48.656284693161645,158.13333299424912L48.88392145784696,158.13333299424912L49.21463902163506,158.13333299424912L49.45301336956024,158.13333299424912L49.68065013424555,158.13333299424912L49.90828689893086,158.13333299424912L50.443018544276555,158.13333299424912L50.67065530896187,158.13333299424912L51.1087487051487,158.13333299424912L51.336385469834006,158.13333299424912L51.56402223451932,158.13333299424912L51.80239658244451,158.13333299424912L52.13955669617653,158.13333299424912L52.53899479269982,158.13333299424912L52.867564839839936,158.13333299424912L53.09520160452525,158.13333299424912L53.32283836921056,158.13333299424912L53.66214599959056,158.13333299424912L54.046551479578014,158.13333299424912L54.28492582750321,158.13333299424912L54.512562592188516,158.13333299424912L55.08809705384572,158.13333299424912L55.31573381853104,158.13333299424912L55.69369674857458,158.13333299424912L55.92133351325989,158.13333299424912L56.40022972575823,158.13333299424912L56.726652256250375,158.13333299424912L57.117500286181766,158.13333299424912L57.34513705086708,158.13333299424912L57.57277381555239,158.13333299424912L58.017309761683144,158.13333299424912L58.348027325471236,158.13333299424912L58.58640167339643,158.13333299424912L59.29293465058009,158.13333299424912L59.5205714152654,158.13333299424912L59.887796762069065,158.13333299424912L60.42252840741475,158.13333299424912L60.753245971202844,158.13333299424912L61.10114366817474,158.13333299424912L61.43830378190676,158.13333299424912L62.12550910925866,158.13333299424912L62.469111772934596,158.13333299424912L63.31093829894066,158.13333299424912L63.53857506362597,158.13333299424912L64.12484710852304,158.13333299424912L64.35248387320837,158.13333299424912L64.58012063789367,158.13333299424912L64.80775740257899,158.13333299424912L65.14706503295899,158.13333299424912L65.47348756345113,158.13333299424912L65.70112432813644,158.13333299424912L65.92876109282176,158.13333299424912L66.15639785750706,158.13333299424912L66.38403462219239,158.13333299424912L66.78991526865958,158.13333299424912L67.0175520333449,158.13333299424912L67.37833483020465,158.13333299424912L67.73267507712046,158.13333299424912L67.96031184180578,158.13333299424912L68.18794860649109,158.13333299424912L68.42632295441628,158.13333299424912L68.6539597191016,158.13333299424912L69.07057794880868,158.13333299424912L69.29821471349399,158.13333299424912L69.52585147817929,158.13333299424912L69.7534882428646,158.13333299424912L69.9918625907898,158.13333299424912L70.44284108686446,158.13333299424912L70.84872173333167,158.13333299424912L71.08709608125686,158.13333299424912L71.41996116169294,158.13333299424912L71.65833550961813,158.13333299424912L71.98905307340621,158.13333299424912L72.21668983809153,158.13333299424912L72.5495549185276,158.13333299424912L72.78792926645278,158.13333299424912L73.52452747670809,158.13333299424912L73.75216424139342,158.13333299424912L73.9905385893186,158.13333299424912L74.2181753540039,158.13333299424912L74.54459788449606,158.13333299424912L74.77223464918137,158.13333299424912L75.10080469632149,158.13333299424912L75.43152226010959,158.13333299424912L75.65915902479489,158.13333299424912L75.8867957894802,158.13333299424912L76.21536583662034,158.13333299424912L76.96699666341146,158.13333299424912L77.19463342809676,158.13333299424912L77.60480910785992,158.13333299424912L77.83244587254524,158.13333299424912L78.06008263723055,158.13333299424912L78.40153778425854,158.13333299424912L78.62917454894384,158.13333299424912L78.85681131362915,158.13333299424912L79.41516564210255,158.13333299424912L79.64280240678787,158.13333299424912L80.09378090286255,158.13333299424912L80.32141766754786,158.13333299424912L80.65428274798393,158.13333299424912L80.88191951266926,158.13333299424912L81.10955627735456,158.13333299424912L81.33719304203987,158.13333299424912L81.79461408805848,158.13333299424912L82.1553968849182,158.13333299424912L82.38303364960352,158.13333299424912L82.61067041428883,158.13333299424912L82.84904476221402,158.13333299424912L83.23774527549745,158.13333299424912L83.46538204018276,158.13333299424912L83.85408255346617,158.13333299424912L84.18265260060627,158.13333299424912L84.51122264774641,158.13333299424912L84.73885941243171,158.13333299424912L84.96649617711702,158.13333299424912L85.19413294180234,158.13333299424912L85.71168445396424,158.13333299424912L85.93932121864955,158.13333299424912L86.16695798333485,158.13333299424912L86.39459474802017,158.13333299424912L86.62223151270548,158.13333299424912L86.9508015598456,158.13333299424912L87.17843832453092,158.13333299424912L87.40607508921623,158.13333299424912L87.63371185390154,158.13333299424912L87.86134861858685,158.13333299424912L88.09113289992014,158.13333299424912L88.31876966460545,158.13333299424912L88.54640642929077,158.13333299424912L88.78478077721597,158.13333299424912L89.2980372560819,158.13333299424912L89.52567402076721,158.13333299424912L89.75331078545253,158.13333299424912L89.98309506678582,158.13333299424912L90.21073183147114,158.13333299424912L90.44910617939631,158.13333299424912L90.67674294408162,158.13333299424912L90.90437970876694,158.13333299424912L91.14275405669213,158.13333299424912L91.37039082137743,158.13333299424912L91.7032559018135,158.13333299424912L91.93089266649882,158.13333299424912L92.15852943118414,158.13333299424912L92.38616619586944,158.13333299424912L92.61380296055476,158.13333299424912L92.95096307428679,158.13333299424912L93.30315580455462,158.13333299424912L93.63172585169474,158.13333299424912L93.85936261638007,158.13333299424912L94.08699938106537,158.13333299424912L94.31463614575068,158.13333299424912L94.64750122618676,158.13333299424912L94.87513799087206,158.13333299424912L95.10277475555738,158.13333299424912L95.50006533543268,158.13333299424912L95.727702100118,158.13333299424912L96.05412463061016,158.13333299424912L96.28176139529546,158.13333299424912L96.50939815998078,158.13333299424912L96.73703492466609,158.13333299424912L96.97540927259128,158.13333299424912L97.20304603727658,158.13333299424912L97.53805863436064,158.13333299424912L97.76569539904595,158.13333299424912L97.99333216373125,158.13333299424912L98.22096892841657,158.13333299424912L98.66550487454732,158.13333299424912L99.03058270470301,158.13333299424912L99.25821946938832,158.13333299424912L99.48585623407364,158.13333299424912L99.71349299875895,158.13333299424912L99.95186734668414,158.13333299424912L100.17950411136945,158.13333299424912L100.40928839270273,158.13333299424912L100.63692515738805,158.13333299424912L100.86456192207338,158.13333299424912L101.09219868675868,158.13333299424912L101.31983545144399,158.13333299424912L101.55820979936918,158.13333299424912L101.7858465640545,158.13333299424912L102.0134833287398,158.13333299424912L102.24112009342511,158.13333299424912L102.46875685811042,158.13333299424912L102.84671978815398,158.13333299424912L103.07435655283929,158.13333299424912L103.30199331752459,158.13333299424912L103.5296300822099,158.13333299424912L103.7680044301351,158.13333299424912L104.00637877806028,158.13333299424912L104.23401554274558,158.13333299424912L104.4616523074309,158.13333299424912L104.68928907211621,158.13333299424912L104.91692583680154,158.13333299424912L105.14456260148684,158.13333299424912L105.37219936617215,158.13333299424912L105.59983613085747,158.13333299424912L105.92625866134962,158.13333299424912L106.15389542603492,158.13333299424912L106.38367970736822,158.13333299424912L106.61131647205353,158.13333299424912L106.83895323673885,158.13333299424912L107.06659000142415,158.13333299424912L107.29422676610946,158.13333299424912L107.53260111403465,158.13333299424912L107.76023787871998,158.13333299424912L107.98787464340528,158.13333299424912L108.21551140809059,158.13333299424912L108.4431481727759,158.13333299424912L108.6815225207011,158.13333299424912L108.91989686862628,158.13333299424912L109.14753363331158,158.13333299424912L109.3751703979969,158.13333299424912L109.60280716268221,158.13333299424912L109.83044392736754,158.13333299424912L110.05808069205284,158.13333299424912L110.29645503997803,158.13333299424912L110.52409180466334,158.13333299424912L110.75172856934866,158.13333299424912L110.97936533403396,158.13333299424912L111.20700209871927,158.13333299424912L111.5355721458594,158.13333299424912L111.76535642719269,158.13333299424912L112.21848243991533,158.13333299424912L112.44826672124863,158.13333299424912L112.67590348593393,158.13333299424912L113.00232601642608,158.13333299424912L113.2299627811114,158.13333299424912L113.4683371290366,158.13333299424912L113.6959738937219,158.13333299424912L113.92361065840721,158.13333299424912L114.15339493974051,158.13333299424912L114.3917692876657,158.13333299424912L114.619406052351,158.13333299424912L114.85778040027618,158.13333299424912L115.09615474820137,158.13333299424912L115.32379151288669,158.13333299424912L115.55357579421998,158.13333299424912L115.78121255890528,158.13333299424912L116.0088493235906,158.13333299424912L116.23648608827591,158.13333299424912L116.46412285296122,158.13333299424912L116.69175961764653,158.13333299424912L116.91939638233184,158.13333299424912L117.14703314701717,158.13333299424912L117.37466991170248,158.13333299424912L117.61304425962766,158.13333299424912L117.84068102431297,158.13333299424912L118.07046530564627,158.13333299424912L118.30024958697955,158.13333299424912L118.52788635166486,158.13333299424912L118.75552311635018,158.13333299424912L118.98315988103549,158.13333299424912L119.22153422896068,158.13333299424912L119.45990857688587,158.13333299424912L119.68754534157117,158.13333299424912L120.07195082155863,158.13333299424912L120.29958758624394,158.13333299424912L120.64104273327192,158.13333299424912L120.86867949795723,158.13333299424912L121.09631626264253,158.13333299424912L121.33469061056773,158.13333299424912L121.56232737525305,158.13333299424912L121.78996413993836,158.13333299424912L122.01760090462366,158.13333299424912L122.24523766930898,158.13333299424912L122.47287443399429,158.13333299424912L122.7005111986796,158.13333299424912L123.08921171196302,158.13333299424912L123.31684847664833,158.13333299424912L123.54448524133365,158.13333299424912L123.77212200601896,158.13333299424912L124.00190628735226,158.13333299424912L124.40134438387554,158.13333299424912L124.62898114856084,158.13333299424912L124.85661791324615,158.13333299424912L125.08425467793147,158.13333299424912L125.31189144261678,158.13333299424912L125.5395282073021,158.13333299424912L125.7671649719874,158.13333299424912L125.99480173667271,158.13333299424912L126.22243850135804,158.13333299424912L126.45007526604336,158.13333299424912L126.67771203072866,158.13333299424912L126.90534879541397,158.13333299424912L127.13298556009929,158.13333299424912L127.3606223247846,158.13333299424912L127.5882590894699,158.13333299424912L127.81589585415522,158.13333299424912L128.04353261884054,158.13333299424912L128.27116938352586,158.13333299424912L128.50954373145103,158.13333299424912L128.73718049613635,158.13333299424912L128.96481726082166,158.13333299424912L129.19460154215494,158.13333299424912L129.42223830684026,158.13333299424912L129.64987507152557,158.13333299424912L129.87751183621089,158.13333299424912L130.1051486008962,158.13333299424912L130.33278536558151,158.13333299424912L130.56042213026683,158.13333299424912L130.798796478192,158.13333299424912L131.03717082611718,158.13333299424912L131.2648075908025,158.13333299424912L131.5031819387277,158.13333299424912L131.91335761849086,158.13333299424912L132.14099438317618,158.13333299424912L132.52539986316364,158.13333299424912L132.95490319275856,158.13333299424912L133.18253995744388,158.13333299424912L133.4101767221292,158.13333299424912L133.6378134868145,158.13333299424912L133.86545025149982,158.13333299424912L134.09308701618514,158.13333299424912L134.3314613641103,158.13333299424912L134.55909812879563,158.13333299424912L134.7888824101289,158.13333299424912L135.01651917481422,158.13333299424912L135.25489352273942,158.13333299424912L135.48253028742474,158.13333299424912L135.71016705211002,158.13333299424912L135.93780381679534,158.13333299424912L136.16544058148065,158.13333299424912L136.39307734616597,158.13333299424912L136.62071411085128,158.13333299424912L136.8483508755366,158.13333299424912L137.0759876402219,158.13333299424912L137.30362440490725,158.13333299424912L137.53126116959254,158.13333299424912L137.75889793427785,158.13333299424912L137.98653469896317,158.13333299424912L138.21417146364848,158.13333299424912L138.4418082283338,158.13333299424912L138.6694449930191,158.13333299424912L138.89708175770443,158.13333299424912L139.12471852238974,158.13333299424912L139.35235528707503,158.13333299424912L139.57999205176034,158.13333299424912L139.80977633309365,158.13333299424912L140.03956061442693,158.13333299424912L140.26719737911225,158.13333299424912L140.49483414379756,158.13333299424912L140.72461842513084,158.13333299424912L140.96299277305604,158.13333299424912L141.20136712098122,158.13333299424912L141.4397414689064,158.13333299424912L141.6673782335917,158.13333299424912L141.9057525815169,158.13333299424912L142.13338934620222,158.13333299424912L142.36102611088754,158.13333299424912L142.58866287557282,158.13333299424912L142.81629964025814,158.13333299424912L143.04393640494345,158.13333299424912L143.27157316962877,158.13333299424912L143.4992099343141,158.13333299424912L143.72684669899942,158.13333299424912L143.95448346368474,158.13333299424912L144.18212022837005,158.13333299424912L144.40975699305534,158.13333299424912L144.63739375774065,158.13333299424912L144.86717803907396,158.13333299424912L145.10555238699914,158.13333299424912L145.33318915168445,158.13333299424912L145.56082591636977,158.13333299424912L145.78846268105508,158.13333299424912L146.0160994457404,158.13333299424912L146.24373621042568,158.13333299424912L146.48211055835088,158.13333299424912" fill="none"></path></g></g></g></g></g></g><g transform="translate(72, 177)" clip-path="url(#clip_1)"><clipPath id="clip_1"><rect width="257" height="22"></rect></clipPath><g><g><line x1="0" y1="0" x2="0" y2="5" style="visibility: inherit;" fill="rgb(0, 0, 0)" stroke="rgb(204, 204, 204)" stroke-width="1px"></line><line x1="21.4751664797465" y1="0" x2="21.4751664797465" y2="5" style="visibility: inherit;" fill="rgb(0, 0, 0)" stroke="rgb(204, 204, 204)" stroke-width="1px"></line><line x1="42.950332959493" y1="0" x2="42.950332959493" y2="5" style="visibility: inherit;" fill="rgb(0, 0, 0)" stroke="rgb(204, 204, 204)" stroke-width="1px"></line><line x1="64.4254994392395" y1="0" x2="64.4254994392395" y2="5" style="visibility: inherit;" fill="rgb(0, 0, 0)" stroke="rgb(204, 204, 204)" stroke-width="1px"></line><line x1="85.900665918986" y1="0" x2="85.900665918986" y2="5" style="visibility: inherit;" fill="rgb(0, 0, 0)" stroke="rgb(204, 204, 204)" stroke-width="1px"></line><line x1="107.37583239873251" y1="0" x2="107.37583239873251" y2="5" style="visibility: inherit;" fill="rgb(0, 0, 0)" stroke="rgb(204, 204, 204)" stroke-width="1px"></line><line x1="128.850998878479" y1="0" x2="128.850998878479" y2="5" style="visibility: inherit;" fill="rgb(0, 0, 0)" stroke="rgb(204, 204, 204)" stroke-width="1px"></line><line x1="150.32616535822552" y1="0" x2="150.32616535822552" y2="5" style="visibility: inherit;" fill="rgb(0, 0, 0)" stroke="rgb(204, 204, 204)" stroke-width="1px"></line><line x1="171.801331837972" y1="0" x2="171.801331837972" y2="5" style="visibility: inherit;" fill="rgb(0, 0, 0)" stroke="rgb(204, 204, 204)" stroke-width="1px"></line><line x1="193.2764983177185" y1="0" x2="193.2764983177185" y2="5" style="visibility: inherit;" fill="rgb(0, 0, 0)" stroke="rgb(204, 204, 204)" stroke-width="1px"></line><line x1="214.75166479746503" y1="0" x2="214.75166479746503" y2="5" style="visibility: inherit;" fill="rgb(0, 0, 0)" stroke="rgb(204, 204, 204)" stroke-width="1px"></line><line x1="236.2268312772115" y1="0" x2="236.2268312772115" y2="5" style="visibility: inherit;" fill="rgb(0, 0, 0)" stroke="rgb(204, 204, 204)" stroke-width="1px"></line><line x1="257.701997756958" y1="0" x2="257.701997756958" y2="5" style="visibility: inherit;" fill="rgb(0, 0, 0)" stroke="rgb(204, 204, 204)" stroke-width="1px"></line></g><g transform="translate(0, 8)"><text style="text-anchor: middle; visibility: hidden; font-family: Roboto, sans-serif; font-size: 12px; font-weight: 200;" x="0" y="0" dx="0em" dy="0.95em" fill="rgb(50, 49, 63)" stroke="none" stroke-width="1px">20k</text><text style="text-anchor: middle; visibility: inherit; font-family: Roboto, sans-serif; font-size: 12px; font-weight: 200;" x="21.4751664797465" y="0" dx="0em" dy="0.95em" fill="rgb(50, 49, 63)" stroke="none" stroke-width="1px">30k</text><text style="text-anchor: middle; visibility: hidden; font-family: Roboto, sans-serif; font-size: 12px; font-weight: 200;" x="42.950332959493" y="0" dx="0em" dy="0.95em" fill="rgb(50, 49, 63)" stroke="none" stroke-width="1px">40k</text><text style="text-anchor: middle; visibility: inherit; font-family: Roboto, sans-serif; font-size: 12px; font-weight: 200;" x="64.4254994392395" y="0" dx="0em" dy="0.95em" fill="rgb(50, 49, 63)" stroke="none" stroke-width="1px">50k</text><text style="text-anchor: middle; visibility: hidden; font-family: Roboto, sans-serif; font-size: 12px; font-weight: 200;" x="85.900665918986" y="0" dx="0em" dy="0.95em" fill="rgb(50, 49, 63)" stroke="none" stroke-width="1px">60k</text><text style="text-anchor: middle; visibility: inherit; font-family: Roboto, sans-serif; font-size: 12px; font-weight: 200;" x="107.37583239873251" y="0" dx="0em" dy="0.95em" fill="rgb(50, 49, 63)" stroke="none" stroke-width="1px">70k</text><text style="text-anchor: middle; visibility: hidden; font-family: Roboto, sans-serif; font-size: 12px; font-weight: 200;" x="128.850998878479" y="0" dx="0em" dy="0.95em" fill="rgb(50, 49, 63)" stroke="none" stroke-width="1px">80k</text><text style="text-anchor: middle; visibility: inherit; font-family: Roboto, sans-serif; font-size: 12px; font-weight: 200;" x="150.32616535822552" y="0" dx="0em" dy="0.95em" fill="rgb(50, 49, 63)" stroke="none" stroke-width="1px">90k</text><text style="text-anchor: middle; visibility: hidden; font-family: Roboto, sans-serif; font-size: 12px; font-weight: 200;" x="171.801331837972" y="0" dx="0em" dy="0.95em" fill="rgb(50, 49, 63)" stroke="none" stroke-width="1px">100k</text><text style="text-anchor: middle; visibility: inherit; font-family: Roboto, sans-serif; font-size: 12px; font-weight: 200;" x="193.2764983177185" y="0" dx="0em" dy="0.95em" fill="rgb(50, 49, 63)" stroke="none" stroke-width="1px">110k</text><text style="text-anchor: middle; visibility: hidden; font-family: Roboto, sans-serif; font-size: 12px; font-weight: 200;" x="214.75166479746503" y="0" dx="0em" dy="0.95em" fill="rgb(50, 49, 63)" stroke="none" stroke-width="1px">120k</text><text style="text-anchor: middle; visibility: inherit; font-family: Roboto, sans-serif; font-size: 12px; font-weight: 200;" x="236.2268312772115" y="0" dx="0em" dy="0.95em" fill="rgb(50, 49, 63)" stroke="none" stroke-width="1px">130k</text><text style="text-anchor: middle; visibility: hidden; font-family: Roboto, sans-serif; font-size: 12px; font-weight: 200;" x="257.701997756958" y="0" dx="0em" dy="0.95em" fill="rgb(50, 49, 63)" stroke="none" stroke-width="1px">140k</text></g><line x1="0" y1="0" x2="257.701997756958" y2="0" fill="rgb(0, 0, 0)" stroke="rgb(204, 204, 204)" stroke-width="1px"></line></g></g></g></g></svg>