<svg viewBox="0 0 330 200" xmlns="http://www.w3.org/2000/svg"><g><g><g><g><g><line x1="72.29800224304199" y1="177.89999961853027" x2="67.29800224304199" y2="177.89999961853027" style="visibility: inherit;" fill="rgb(0, 0, 0)" stroke="rgb(204, 204, 204)" stroke-width="1px"></line><line x1="72.29800224304199" y1="163.0749996503194" x2="67.29800224304199" y2="163.0749996503194" style="visibility: inherit;" fill="rgb(0, 0, 0)" stroke="rgb(204, 204, 204)" stroke-width="1px"></line><line x1="72.29800224304199" y1="148.24999968210858" x2="67.29800224304199" y2="148.24999968210858" style="visibility: inherit;" fill="rgb(0, 0, 0)" stroke="rgb(204, 204, 204)" stroke-width="1px"></line><line x1="72.29800224304199" y1="133.4249997138977" x2="67.29800224304199" y2="133.4249997138977" style="visibility: inherit;" fill="rgb(0, 0, 0)" stroke="rgb(204, 204, 204)" stroke-width="1px"></line><line x1="72.29800224304199" y1="118.59999974568686" x2="67.29800224304199" y2="118.59999974568686" style="visibility: inherit;" fill="rgb(0, 0, 0)" stroke="rgb(204, 204, 204)" stroke-width="1px"></line><line x1="72.29800224304199" y1="103.77499977747598" x2="67.29800224304199" y2="103.77499977747598" style="visibility: inherit;" fill="rgb(0, 0, 0)" stroke="rgb(204, 204, 204)" stroke-width="1px"></line><line x1="72.29800224304199" y1="88.94999980926514" x2="67.29800224304199" y2="88.94999980926514" style="visibility: inherit;" fill="rgb(0, 0, 0)" stroke="rgb(204, 204, 204)" stroke-width="1px"></line><line x1="72.29800224304199" y1="74.12499984105428" x2="67.29800224304199" y2="74.12499984105428" style="visibility: inherit;" fill="rgb(0, 0, 0)" stroke="rgb(204, 204, 204)" stroke-width="1px"></line><line x1="72.29800224304199" y1="59.29999987284343" x2="67.29800224304199" y2="59.29999987284343" style="visibility: inherit;" fill="rgb(0, 0, 0)" stroke="rgb(204, 204, 204)" stroke-width="1px"></line><line x1="72.29800224304199" y1="44.47499990463257" x2="67.29800224304199" y2="44.47499990463257" style="visibility: inherit;" fill="rgb(0, 0, 0)" stroke="rgb(204, 204, 204)" stroke-width="1px"></line><line x1="72.29800224304199" y1="29.649999936421704" x2="67.29800224304199" y2="29.649999936421704" style="visibility: inherit;" fill="rgb(0, 0, 0)" stroke="rgb(204, 204, 204)" stroke-width="1px"></line><line x1="72.29800224304199" y1="14.824999968210863" x2="67.29800224304199" y2="14.824999968210863" style="visibility: inherit;" fill="rgb(0, 0, 0)" stroke="rgb(204, 204, 204)" stroke-width="1px"></line><line x1="72.29800224304199" y1="0" x2="67.29800224304199" y2="0" style="visibility: inherit;" fill="rgb(0, 0, 0)" stroke="rgb(204, 204, 204)" stroke-width="1px"></line></g><g transform="translate(62.29800224304199, 0)"><text style="text-anchor: end; visibility: hidden; font-family: Roboto, sans-serif; font-size: 12px; font-weight: 200;" x="0" y="177.89999961853027" dx="0em" dy="0.3em" fill="rgb(50, 49, 63)" stroke="none" stroke-width="1px">-500</text><text style="text-anchor: end; visibility: inherit; font-family: Roboto, sans-serif; font-size: 12px; font-weight: 200;" x="0" y="163.0749996503194" dx="0em" dy="0.3em" fill="rgb(50, 49, 63)" stroke="none" stroke-width="1px">0</text><text style="text-anchor: end; visibility: hidden; font-family: Roboto, sans-serif; font-size: 12px; font-weight: 200;" x="0" y="148.24999968210858" dx="0em" dy="0.3em" fill="rgb(50, 49, 63)" stroke="none" stroke-width="1px">500</text><text style="text-anchor: end; visibility: inherit; font-family: Roboto, sans-serif; font-size: 12px; font-weight: 200;" x="0" y="133.4249997138977" dx="0em" dy="0.3em" fill="rgb(50, 49, 63)" stroke="none" stroke-width="1px">1e+3</text><text style="text-anchor: end; visibility: hidden; font-family: Roboto, sans-serif; font-size: 12px; font-weight: 200;" x="0" y="118.59999974568686" dx="0em" dy="0.3em" fill="rgb(50, 49, 63)" stroke="none" stroke-width="1px">1.5e+3</text><text style="text-anchor: end; visibility: inherit; font-family: Roboto, sans-serif; font-size: 12px; font-weight: 200;" x="0" y="103.77499977747598" dx="0em" dy="0.3em" fill="rgb(50, 49, 63)" stroke="none" stroke-width="1px">2e+3</text><text style="text-anchor: end; visibility: hidden; font-family: Roboto, sans-serif; font-size: 12px; font-weight: 200;" x="0" y="88.94999980926514" dx="0em" dy="0.3em" fill="rgb(50, 49, 63)" stroke="none" stroke-width="1px">2.5e+3</text><text style="text-anchor: end; visibility: inherit; font-family: Roboto, sans-serif; font-size: 12px; font-weight: 200;" x="0" y="74.12499984105428" dx="0em" dy="0.3em" fill="rgb(50, 49, 63)" stroke="none" stroke-width="1px">3e+3</text><text style="text-anchor: end; visibility: hidden; font-family: Roboto, sans-serif; font-size: 12px; font-weight: 200;" x="0" y="59.29999987284343" dx="0em" dy="0.3em" fill="rgb(50, 49, 63)" stroke="none" stroke-width="1px">3.5e+3</text><text style="text-anchor: end; visibility: inherit; font-family: Roboto, sans-serif; font-size: 12px; font-weight: 200;" x="0" y="44.47499990463257" dx="0em" dy="0.3em" fill="rgb(50, 49, 63)" stroke="none" stroke-width="1px">4e+3</text><text style="text-anchor: end; visibility: hidden; font-family: Roboto, sans-serif; font-size: 12px; font-weight: 200;" x="0" y="29.649999936421704" dx="0em" dy="0.3em" fill="rgb(50, 49, 63)" stroke="none" stroke-width="1px">4.5e+3</text><text style="text-anchor: end; visibility: inherit; font-family: Roboto, sans-serif; font-size: 12px; font-weight: 200;" x="0" y="14.824999968210863" dx="0em" dy="0.3em" fill="rgb(50, 49, 63)" stroke="none" stroke-width="1px">5e+3</text><text style="text-anchor: end; visibility: hidden; font-family: Roboto, sans-serif; font-size: 12px; font-weight: 200;" x="0" y="0" dx="0em" dy="0.3em" fill="rgb(50, 49, 63)" stroke="none" stroke-width="1px">5.5e+3</text></g><line x1="72.29800224304199" y1="0" x2="72.29800224304199" y2="177.89999961853027" fill="rgb(0, 0, 0)" stroke="rgb(204, 204, 204)" stroke-width="1px"></line></g></g><g transform="translate(72, 0)" clip-path="url(#clip_0)"><clipPath id="clip_0"><rect width="257" height="177"></rect></clipPath><g><g><g><line x1="0" y1="0" x2="0" y2="177.89999961853027" fill="rgb(0, 0, 0)" stroke="rgb(60, 60, 60)" stroke-width="1px" opacity="0.25"></line><line x1="25.7701997756958" y1="0" x2="25.7701997756958" y2="177.89999961853027" fill="rgb(0, 0, 0)" stroke="rgb(60, 60, 60)" stroke-width="1px" opacity="0.25"></line><line x1="51.5403995513916" y1="0" x2="51.5403995513916" y2="177.89999961853027" fill="rgb(0, 0, 0)" stroke="rgb(60, 60, 60)" stroke-width="1px" opacity="0.25"></line><line x1="77.3105993270874" y1="0" x2="77.3105993270874" y2="177.89999961853027" fill="rgb(0, 0, 0)" stroke="rgb(60, 60, 60)" stroke-width="1px" opacity="0.25"></line><line x1="103.0807991027832" y1="0" x2="103.0807991027832" y2="177.89999961853027" fill="rgb(0, 0, 0)" stroke="rgb(60, 60, 60)" stroke-width="1px" opacity="0.25"></line><line x1="128.850998878479" y1="0" x2="128.850998878479" y2="177.89999961853027" fill="rgb(0, 0, 0)" stroke="rgb(60, 60, 60)" stroke-width="1px" opacity="0.25"></line><line x1="154.6211986541748" y1="0" x2="154.6211986541748" y2="177.89999961853027" fill="rgb(0, 0, 0)" stroke="rgb(60, 60, 60)" stroke-width="1px" opacity="0.25"></line><line x1="180.3913984298706" y1="0" x2="180.3913984298706" y2="177.89999961853027" fill="rgb(0, 0, 0)" stroke="rgb(60, 60, 60)" stroke-width="1px" opacity="0.25"></line><line x1="206.1615982055664" y1="0" x2="206.1615982055664" y2="177.89999961853027" fill="rgb(0, 0, 0)" stroke="rgb(60, 60, 60)" stroke-width="1px" opacity="0.25"></line><line x1="231.9317979812622" y1="0" x2="231.9317979812622" y2="177.89999961853027" fill="rgb(0, 0, 0)" stroke="rgb(60, 60, 60)" stroke-width="1px" opacity="0.25"></line><line x1="257.701997756958" y1="0" x2="257.701997756958" y2="177.89999961853027" fill="rgb(0, 0, 0)" stroke="rgb(60, 60, 60)" stroke-width="1px" opacity="0.25"></line></g><g><line x1="0" y1="177.89999961853027" x2="257.701997756958" y2="177.89999961853027" fill="rgb(0, 0, 0)" stroke="rgb(60, 60, 60)" stroke-width="1px" opacity="0.25"></line><line x1="0" y1="163.0749996503194" x2="257.701997756958" y2="163.0749996503194" fill="rgb(0, 0, 0)" stroke="rgb(60, 60, 60)" stroke-width="1px" opacity="0.25"></line><line x1="0" y1="148.24999968210858" x2="257.701997756958" y2="148.24999968210858" fill="rgb(0, 0, 0)" stroke="rgb(60, 60, 60)" stroke-width="1px" opacity="0.25"></line><line x1="0" y1="133.4249997138977" x2="257.701997756958" y2="133.4249997138977" fill="rgb(0, 0, 0)" stroke="rgb(60, 60, 60)" stroke-width="1px" opacity="0.25"></line><line x1="0" y1="118.59999974568686" x2="257.701997756958" y2="118.59999974568686" fill="rgb(0, 0, 0)" stroke="rgb(60, 60, 60)" stroke-width="1px" opacity="0.25"></line><line x1="0" y1="103.77499977747598" x2="257.701997756958" y2="103.77499977747598" fill="rgb(0, 0, 0)" stroke="rgb(60, 60, 60)" stroke-width="1px" opacity="0.25"></line><line x1="0" y1="88.94999980926514" x2="257.701997756958" y2="88.94999980926514" fill="rgb(0, 0, 0)" stroke="rgb(60, 60, 60)" stroke-width="1px" opacity="0.25"></line><line x1="0" y1="74.12499984105428" x2="257.701997756958" y2="74.12499984105428" fill="rgb(0, 0, 0)" stroke="rgb(60, 60, 60)" stroke-width="1px" opacity="0.25"></line><line x1="0" y1="59.29999987284343" x2="257.701997756958" y2="59.29999987284343" fill="rgb(0, 0, 0)" stroke="rgb(60, 60, 60)" stroke-width="1px" opacity="0.25"></line><line x1="0" y1="44.47499990463257" x2="257.701997756958" y2="44.47499990463257" fill="rgb(0, 0, 0)" stroke="rgb(60, 60, 60)" stroke-width="1px" opacity="0.25"></line><line x1="0" y1="29.649999936421704" x2="257.701997756958" y2="29.649999936421704" fill="rgb(0, 0, 0)" stroke="rgb(60, 60, 60)" stroke-width="1px" opacity="0.25"></line><line x1="0" y1="14.824999968210863" x2="257.701997756958" y2="14.824999968210863" fill="rgb(0, 0, 0)" stroke="rgb(60, 60, 60)" stroke-width="1px" opacity="0.25"></line><line x1="0" y1="0" x2="257.701997756958" y2="0" fill="rgb(0, 0, 0)" stroke="rgb(60, 60, 60)" stroke-width="1px" opacity="0.25"></line></g></g></g><g><g><line x1="0" y1="163.0749996503194" x2="257.701997756958" y2="163.0749996503194" fill="rgb(0, 0, 0)" stroke="rgb(153, 153, 153)" stroke-width="1.5px"></line></g></g><g><g><line x1="-438.0933961868286" y1="0" x2="-438.0933961868286" y2="177.89999961853027" fill="rgb(0, 0, 0)" stroke="rgb(153, 153, 153)" stroke-width="1.5px"></line></g></g><g><g><g><g><g><path style="fill: none;" stroke="rgb(204, 51, 17)" stroke-width="2px" d="M19.09571803379059,137.34908056791008L22.244836446380614,148.1782492248802L25.368184659194945,69.74542059710463L28.49153287200928,36.82306133821631L31.614881084823608,8.757160269934484L34.73822929763794,3.4592356267197255L37.86157751045227,61.29211483941955L40.9849257232666,23.362757628636544L44.108273936080934,19.684019455684616L47.23162214889526,69.465519104909L50.35497036170959,44.382754934793184L53.478318574523925,32.23180957738371L56.60166678733826,73.76964388101132L59.72501500015259,102.05018087370406L62.84836321296692,118.88513923577528L65.97171142578125,129.03615090410761L69.12082983837128,82.21719304895666L72.2441780511856,107.50588795771932L75.36752626399993,123.23838190458572L78.4960285167694,82.27731051734904L81.61937672958373,59.53562313775089L84.74272494239807,62.710252826592296L87.8660731552124,51.69356507383403L91.01519156780243,44.00136060496751L94.13853978061677,78.0256413070459L97.26704203338623,50.24155123972162L100.41616044597626,84.50422824483954L103.5395086587906,51.33410790409515L106.66285687160492,41.16984197122567L109.78620508441925,78.6006489939914L112.90955329723357,101.38874749691772L116.0586717098236,68.69531400433247L119.18201992263793,55.849491712888394L122.33113833522798,87.72743174400439L125.4544865480423,66.78519543339547L128.57783476085663,59.41689086325759L131.70118297367094,54.0144902703377L134.85030138626098,56.34487562831867L137.97364959907532,58.56869429369294L141.09699781188965,61.57790356456594L144.22034602470399,83.79961414593997L147.36946443729403,101.64383296120685L150.51858284988404,114.04509048684373L153.64193106269835,88.19009959681178L156.76527927551268,104.9191187132533L159.88862748832702,120.43812024871804L163.01197570114135,83.59708844190772L166.1610941137314,71.1960196262004L169.28444232654573,56.221918514139425L172.40779053936004,85.28024206996382L175.55690895195005,66.1895532956129L178.68025716476438,88.31933157291452L181.80360537757875,108.6991741319481L184.92695359039308,75.99287828415835L188.05030180320742,66.85400382431936L191.17365001602175,64.38979618296253L194.29699822883606,72.43766890682537L197.4203464416504,91.39700485703501L200.54369465446473,79.72958923291594L203.66704286727906,78.04273256189524L206.7955451200485,72.34244395996052L209.94466353263854,87.31996546149853L213.06801174545288,105.30109539391542L216.1913599582672,82.84773383480213L219.31470817108155,98.59508243726542L222.43805638389588,112.28485242583028L225.5614045967102,124.34467772981411L228.68990684947968,83.29303471496574L231.81325506229402,72.78083162480539L234.93660327510835,93.34046776729774L238.08572168769837,80.22960463186996" fill="none"></path></g></g></g></g><g opacity="0.2"><g><g><g><path style="fill: none;" stroke="rgb(204, 51, 17)" stroke-width="2px" d="M19.09571803379059,137.34908056791008L22.244836446380614,154.6757504190623L25.368184659194945,-5.550094885559913L34.73822929763794,-3.8697014077178378L37.86157751045227,143.99405743964763L40.9849257232666,-31.93860930651425L44.108273936080934,14.258595208683206L47.23162214889526,143.3852443489121L50.35497036170959,6.986107504550978L53.478318574523925,14.07151644931874L56.60166678733826,135.94076710047094L59.72501500015259,144.41558184670274L62.84836321296692,144.1177879172876L65.97171142578125,144.2555091267091L69.12082983837128,12.008568480109492L72.2441780511856,145.43250952396554L75.36752626399993,146.83472613778005L78.4960285167694,20.839447440665687L81.61937672958373,25.42433927653745L84.74272494239807,67.47209289731225L87.8660731552124,35.16875094997851L91.01519156780243,32.46314502316294L94.13853978061677,129.06182053013842L97.26704203338623,8.565534625187672L100.41616044597626,135.8981560837166L103.5395086587906,1.5789783169267058L106.66285687160492,25.923452434646897L109.78620508441925,134.74683884070197L112.90955329723357,135.57088769452577L116.0586717098236,19.65517027035355L119.18201992263793,36.58075980925545L122.33113833522798,135.54433950732684L125.4544865480423,35.37184186751179L128.57783476085663,48.36443419805029L131.70118297367094,45.91088946454188L134.85030138626098,59.84045364365719L137.97364959907532,61.90442227936815L141.09699781188965,66.09171746081905L144.22034602470399,117.13217997344367L147.36946443729403,128.41016116263927L150.51858284988404,132.64697676634725L153.64193106269835,49.407613272961854L156.76527927551268,130.01264738356832L159.88862748832702,143.71662254949547L163.01197570114135,28.33554073513874L166.1610941137314,52.59441640333545L169.28444232654573,33.76076684655233L172.40779053936004,128.8677274031132L175.55690895195005,37.553520134318L178.68025716476438,121.51399898870596L181.80360537757875,139.26893797040955L184.92695359039308,26.93343451255932L188.05030180320742,53.145692134575214L191.17365001602175,60.693484720929604L194.29699822883606,84.50947799261503L197.4203464416504,119.83600878234313L200.54369465446473,62.22846579673971L203.66704286727906,75.51244755536435L206.7955451200485,63.792011057058886L209.94466353263854,109.78624771380487L213.06801174545288,132.27279029254026L216.1913599582672,49.16769149613257L219.31470817108155,122.21610534096021L222.43805638389588,132.81950740867748L225.5614045967102,142.43441568578982L228.68990684947968,21.715570192693274L231.81325506229402,57.012526989564854L234.93660327510835,124.17992198103633L238.08572168769837,60.56330992872827" fill="none"></path></g></g></g></g></g></g><g transform="translate(72, 177)" clip-path="url(#clip_1)"><clipPath id="clip_1"><rect width="257" height="22"></rect></clipPath><g><g><line x1="0" y1="0" x2="0" y2="5" style="visibility: inherit;" fill="rgb(0, 0, 0)" stroke="rgb(204, 204, 204)" stroke-width="1px"></line><line x1="25.7701997756958" y1="0" x2="25.7701997756958" y2="5" style="visibility: inherit;" fill="rgb(0, 0, 0)" stroke="rgb(204, 204, 204)" stroke-width="1px"></line><line x1="51.5403995513916" y1="0" x2="51.5403995513916" y2="5" style="visibility: inherit;" fill="rgb(0, 0, 0)" stroke="rgb(204, 204, 204)" stroke-width="1px"></line><line x1="77.3105993270874" y1="0" x2="77.3105993270874" y2="5" style="visibility: inherit;" fill="rgb(0, 0, 0)" stroke="rgb(204, 204, 204)" stroke-width="1px"></line><line x1="103.0807991027832" y1="0" x2="103.0807991027832" y2="5" style="visibility: inherit;" fill="rgb(0, 0, 0)" stroke="rgb(204, 204, 204)" stroke-width="1px"></line><line x1="128.850998878479" y1="0" x2="128.850998878479" y2="5" style="visibility: inherit;" fill="rgb(0, 0, 0)" stroke="rgb(204, 204, 204)" stroke-width="1px"></line><line x1="154.6211986541748" y1="0" x2="154.6211986541748" y2="5" style="visibility: inherit;" fill="rgb(0, 0, 0)" stroke="rgb(204, 204, 204)" stroke-width="1px"></line><line x1="180.3913984298706" y1="0" x2="180.3913984298706" y2="5" style="visibility: inherit;" fill="rgb(0, 0, 0)" stroke="rgb(204, 204, 204)" stroke-width="1px"></line><line x1="206.1615982055664" y1="0" x2="206.1615982055664" y2="5" style="visibility: inherit;" fill="rgb(0, 0, 0)" stroke="rgb(204, 204, 204)" stroke-width="1px"></line><line x1="231.9317979812622" y1="0" x2="231.9317979812622" y2="5" style="visibility: inherit;" fill="rgb(0, 0, 0)" stroke="rgb(204, 204, 204)" stroke-width="1px"></line><line x1="257.701997756958" y1="0" x2="257.701997756958" y2="5" style="visibility: inherit;" fill="rgb(0, 0, 0)" stroke="rgb(204, 204, 204)" stroke-width="1px"></line></g><g transform="translate(0, 8)"><text style="text-anchor: middle; visibility: hidden; font-family: Roboto, sans-serif; font-size: 12px; font-weight: 200;" x="0" y="0" dx="0em" dy="0.95em" fill="rgb(50, 49, 63)" stroke="none" stroke-width="1px">85k</text><text style="text-anchor: middle; visibility: inherit; font-family: Roboto, sans-serif; font-size: 12px; font-weight: 200;" x="25.7701997756958" y="0" dx="0em" dy="0.95em" fill="rgb(50, 49, 63)" stroke="none" stroke-width="1px">90k</text><text style="text-anchor: middle; visibility: hidden; font-family: Roboto, sans-serif; font-size: 12px; font-weight: 200;" x="51.5403995513916" y="0" dx="0em" dy="0.95em" fill="rgb(50, 49, 63)" stroke="none" stroke-width="1px">95k</text><text style="text-anchor: middle; visibility: inherit; font-family: Roboto, sans-serif; font-size: 12px; font-weight: 200;" x="77.3105993270874" y="0" dx="0em" dy="0.95em" fill="rgb(50, 49, 63)" stroke="none" stroke-width="1px">100k</text><text style="text-anchor: middle; visibility: hidden; font-family: Roboto, sans-serif; font-size: 12px; font-weight: 200;" x="103.0807991027832" y="0" dx="0em" dy="0.95em" fill="rgb(50, 49, 63)" stroke="none" stroke-width="1px">105k</text><text style="text-anchor: middle; visibility: inherit; font-family: Roboto, sans-serif; font-size: 12px; font-weight: 200;" x="128.850998878479" y="0" dx="0em" dy="0.95em" fill="rgb(50, 49, 63)" stroke="none" stroke-width="1px">110k</text><text style="text-anchor: middle; visibility: hidden; font-family: Roboto, sans-serif; font-size: 12px; font-weight: 200;" x="154.6211986541748" y="0" dx="0em" dy="0.95em" fill="rgb(50, 49, 63)" stroke="none" stroke-width="1px">115k</text><text style="text-anchor: middle; visibility: inherit; font-family: Roboto, sans-serif; font-size: 12px; font-weight: 200;" x="180.3913984298706" y="0" dx="0em" dy="0.95em" fill="rgb(50, 49, 63)" stroke="none" stroke-width="1px">120k</text><text style="text-anchor: middle; visibility: hidden; font-family: Roboto, sans-serif; font-size: 12px; font-weight: 200;" x="206.1615982055664" y="0" dx="0em" dy="0.95em" fill="rgb(50, 49, 63)" stroke="none" stroke-width="1px">125k</text><text style="text-anchor: middle; visibility: inherit; font-family: Roboto, sans-serif; font-size: 12px; font-weight: 200;" x="231.9317979812622" y="0" dx="0em" dy="0.95em" fill="rgb(50, 49, 63)" stroke="none" stroke-width="1px">130k</text><text style="text-anchor: middle; visibility: hidden; font-family: Roboto, sans-serif; font-size: 12px; font-weight: 200;" x="257.701997756958" y="0" dx="0em" dy="0.95em" fill="rgb(50, 49, 63)" stroke="none" stroke-width="1px">135k</text></g><line x1="0" y1="0" x2="257.701997756958" y2="0" fill="rgb(0, 0, 0)" stroke="rgb(204, 204, 204)" stroke-width="1px"></line></g></g></g></g></svg>