<svg viewBox="0 0 330 200" xmlns="http://www.w3.org/2000/svg"><g><g><g><g><g><line x1="30.766000747680664" y1="177.89999961853027" x2="25.766000747680664" y2="177.89999961853027" style="visibility: inherit;" fill="rgb(0, 0, 0)" stroke="rgb(204, 204, 204)" stroke-width="1px"></line><line x1="30.766000747680664" y1="160.10999965667725" x2="25.766000747680664" y2="160.10999965667725" style="visibility: inherit;" fill="rgb(0, 0, 0)" stroke="rgb(204, 204, 204)" stroke-width="1px"></line><line x1="30.766000747680664" y1="142.31999969482422" x2="25.766000747680664" y2="142.31999969482422" style="visibility: inherit;" fill="rgb(0, 0, 0)" stroke="rgb(204, 204, 204)" stroke-width="1px"></line><line x1="30.766000747680664" y1="124.52999973297118" x2="25.766000747680664" y2="124.52999973297118" style="visibility: inherit;" fill="rgb(0, 0, 0)" stroke="rgb(204, 204, 204)" stroke-width="1px"></line><line x1="30.766000747680664" y1="106.73999977111816" x2="25.766000747680664" y2="106.73999977111816" style="visibility: inherit;" fill="rgb(0, 0, 0)" stroke="rgb(204, 204, 204)" stroke-width="1px"></line><line x1="30.766000747680664" y1="88.94999980926514" x2="25.766000747680664" y2="88.94999980926514" style="visibility: inherit;" fill="rgb(0, 0, 0)" stroke="rgb(204, 204, 204)" stroke-width="1px"></line><line x1="30.766000747680664" y1="71.15999984741211" x2="25.766000747680664" y2="71.15999984741211" style="visibility: inherit;" fill="rgb(0, 0, 0)" stroke="rgb(204, 204, 204)" stroke-width="1px"></line><line x1="30.766000747680664" y1="53.36999988555909" x2="25.766000747680664" y2="53.36999988555909" style="visibility: inherit;" fill="rgb(0, 0, 0)" stroke="rgb(204, 204, 204)" stroke-width="1px"></line><line x1="30.766000747680664" y1="35.57999992370605" x2="25.766000747680664" y2="35.57999992370605" style="visibility: inherit;" fill="rgb(0, 0, 0)" stroke="rgb(204, 204, 204)" stroke-width="1px"></line><line x1="30.766000747680664" y1="17.789999961853024" x2="25.766000747680664" y2="17.789999961853024" style="visibility: inherit;" fill="rgb(0, 0, 0)" stroke="rgb(204, 204, 204)" stroke-width="1px"></line><line x1="30.766000747680664" y1="0" x2="25.766000747680664" y2="0" style="visibility: inherit;" fill="rgb(0, 0, 0)" stroke="rgb(204, 204, 204)" stroke-width="1px"></line></g><g transform="translate(20.766000747680664, 0)"><text style="text-anchor: end; visibility: hidden; font-family: Roboto, sans-serif; font-size: 12px; font-weight: 200;" x="0" y="177.89999961853027" dx="0em" dy="0.3em" fill="rgb(50, 49, 63)" stroke="none" stroke-width="1px">-5</text><text style="text-anchor: end; visibility: inherit; font-family: Roboto, sans-serif; font-size: 12px; font-weight: 200;" x="0" y="160.10999965667725" dx="0em" dy="0.3em" fill="rgb(50, 49, 63)" stroke="none" stroke-width="1px">-4</text><text style="text-anchor: end; visibility: hidden; font-family: Roboto, sans-serif; font-size: 12px; font-weight: 200;" x="0" y="142.31999969482422" dx="0em" dy="0.3em" fill="rgb(50, 49, 63)" stroke="none" stroke-width="1px">-3</text><text style="text-anchor: end; visibility: inherit; font-family: Roboto, sans-serif; font-size: 12px; font-weight: 200;" x="0" y="124.52999973297118" dx="0em" dy="0.3em" fill="rgb(50, 49, 63)" stroke="none" stroke-width="1px">-2</text><text style="text-anchor: end; visibility: hidden; font-family: Roboto, sans-serif; font-size: 12px; font-weight: 200;" x="0" y="106.73999977111816" dx="0em" dy="0.3em" fill="rgb(50, 49, 63)" stroke="none" stroke-width="1px">-1</text><text style="text-anchor: end; visibility: inherit; font-family: Roboto, sans-serif; font-size: 12px; font-weight: 200;" x="0" y="88.94999980926514" dx="0em" dy="0.3em" fill="rgb(50, 49, 63)" stroke="none" stroke-width="1px">0</text><text style="text-anchor: end; visibility: hidden; font-family: Roboto, sans-serif; font-size: 12px; font-weight: 200;" x="0" y="71.15999984741211" dx="0em" dy="0.3em" fill="rgb(50, 49, 63)" stroke="none" stroke-width="1px">1</text><text style="text-anchor: end; visibility: inherit; font-family: Roboto, sans-serif; font-size: 12px; font-weight: 200;" x="0" y="53.36999988555909" dx="0em" dy="0.3em" fill="rgb(50, 49, 63)" stroke="none" stroke-width="1px">2</text><text style="text-anchor: end; visibility: hidden; font-family: Roboto, sans-serif; font-size: 12px; font-weight: 200;" x="0" y="35.57999992370605" dx="0em" dy="0.3em" fill="rgb(50, 49, 63)" stroke="none" stroke-width="1px">3</text><text style="text-anchor: end; visibility: inherit; font-family: Roboto, sans-serif; font-size: 12px; font-weight: 200;" x="0" y="17.789999961853024" dx="0em" dy="0.3em" fill="rgb(50, 49, 63)" stroke="none" stroke-width="1px">4</text><text style="text-anchor: end; visibility: hidden; font-family: Roboto, sans-serif; font-size: 12px; font-weight: 200;" x="0" y="0" dx="0em" dy="0.3em" fill="rgb(50, 49, 63)" stroke="none" stroke-width="1px">5</text></g><line x1="30.766000747680664" y1="0" x2="30.766000747680664" y2="177.89999961853027" fill="rgb(0, 0, 0)" stroke="rgb(204, 204, 204)" stroke-width="1px"></line></g></g><g transform="translate(30, 0)" clip-path="url(#clip_0)"><clipPath id="clip_0"><rect width="299" height="177"></rect></clipPath><g><g><g><line x1="0" y1="0" x2="0" y2="177.89999961853027" fill="rgb(0, 0, 0)" stroke="rgb(60, 60, 60)" stroke-width="1px" opacity="0.25"></line><line x1="21.37385708945138" y1="0" x2="21.37385708945138" y2="177.89999961853027" fill="rgb(0, 0, 0)" stroke="rgb(60, 60, 60)" stroke-width="1px" opacity="0.25"></line><line x1="42.74771417890276" y1="0" x2="42.74771417890276" y2="177.89999961853027" fill="rgb(0, 0, 0)" stroke="rgb(60, 60, 60)" stroke-width="1px" opacity="0.25"></line><line x1="64.12157126835415" y1="0" x2="64.12157126835415" y2="177.89999961853027" fill="rgb(0, 0, 0)" stroke="rgb(60, 60, 60)" stroke-width="1px" opacity="0.25"></line><line x1="85.49542835780552" y1="0" x2="85.49542835780552" y2="177.89999961853027" fill="rgb(0, 0, 0)" stroke="rgb(60, 60, 60)" stroke-width="1px" opacity="0.25"></line><line x1="106.86928544725691" y1="0" x2="106.86928544725691" y2="177.89999961853027" fill="rgb(0, 0, 0)" stroke="rgb(60, 60, 60)" stroke-width="1px" opacity="0.25"></line><line x1="128.2431425367083" y1="0" x2="128.2431425367083" y2="177.89999961853027" fill="rgb(0, 0, 0)" stroke="rgb(60, 60, 60)" stroke-width="1px" opacity="0.25"></line><line x1="149.61699962615967" y1="0" x2="149.61699962615967" y2="177.89999961853027" fill="rgb(0, 0, 0)" stroke="rgb(60, 60, 60)" stroke-width="1px" opacity="0.25"></line><line x1="170.99085671561105" y1="0" x2="170.99085671561105" y2="177.89999961853027" fill="rgb(0, 0, 0)" stroke="rgb(60, 60, 60)" stroke-width="1px" opacity="0.25"></line><line x1="192.36471380506245" y1="0" x2="192.36471380506245" y2="177.89999961853027" fill="rgb(0, 0, 0)" stroke="rgb(60, 60, 60)" stroke-width="1px" opacity="0.25"></line><line x1="213.73857089451383" y1="0" x2="213.73857089451383" y2="177.89999961853027" fill="rgb(0, 0, 0)" stroke="rgb(60, 60, 60)" stroke-width="1px" opacity="0.25"></line><line x1="235.11242798396518" y1="0" x2="235.11242798396518" y2="177.89999961853027" fill="rgb(0, 0, 0)" stroke="rgb(60, 60, 60)" stroke-width="1px" opacity="0.25"></line><line x1="256.4862850734166" y1="0" x2="256.4862850734166" y2="177.89999961853027" fill="rgb(0, 0, 0)" stroke="rgb(60, 60, 60)" stroke-width="1px" opacity="0.25"></line><line x1="277.860142162868" y1="0" x2="277.860142162868" y2="177.89999961853027" fill="rgb(0, 0, 0)" stroke="rgb(60, 60, 60)" stroke-width="1px" opacity="0.25"></line><line x1="299.23399925231934" y1="0" x2="299.23399925231934" y2="177.89999961853027" fill="rgb(0, 0, 0)" stroke="rgb(60, 60, 60)" stroke-width="1px" opacity="0.25"></line></g><g><line x1="0" y1="177.89999961853027" x2="299.23399925231934" y2="177.89999961853027" fill="rgb(0, 0, 0)" stroke="rgb(60, 60, 60)" stroke-width="1px" opacity="0.25"></line><line x1="0" y1="160.10999965667725" x2="299.23399925231934" y2="160.10999965667725" fill="rgb(0, 0, 0)" stroke="rgb(60, 60, 60)" stroke-width="1px" opacity="0.25"></line><line x1="0" y1="142.31999969482422" x2="299.23399925231934" y2="142.31999969482422" fill="rgb(0, 0, 0)" stroke="rgb(60, 60, 60)" stroke-width="1px" opacity="0.25"></line><line x1="0" y1="124.52999973297118" x2="299.23399925231934" y2="124.52999973297118" fill="rgb(0, 0, 0)" stroke="rgb(60, 60, 60)" stroke-width="1px" opacity="0.25"></line><line x1="0" y1="106.73999977111816" x2="299.23399925231934" y2="106.73999977111816" fill="rgb(0, 0, 0)" stroke="rgb(60, 60, 60)" stroke-width="1px" opacity="0.25"></line><line x1="0" y1="88.94999980926514" x2="299.23399925231934" y2="88.94999980926514" fill="rgb(0, 0, 0)" stroke="rgb(60, 60, 60)" stroke-width="1px" opacity="0.25"></line><line x1="0" y1="71.15999984741211" x2="299.23399925231934" y2="71.15999984741211" fill="rgb(0, 0, 0)" stroke="rgb(60, 60, 60)" stroke-width="1px" opacity="0.25"></line><line x1="0" y1="53.36999988555909" x2="299.23399925231934" y2="53.36999988555909" fill="rgb(0, 0, 0)" stroke="rgb(60, 60, 60)" stroke-width="1px" opacity="0.25"></line><line x1="0" y1="35.57999992370605" x2="299.23399925231934" y2="35.57999992370605" fill="rgb(0, 0, 0)" stroke="rgb(60, 60, 60)" stroke-width="1px" opacity="0.25"></line><line x1="0" y1="17.789999961853024" x2="299.23399925231934" y2="17.789999961853024" fill="rgb(0, 0, 0)" stroke="rgb(60, 60, 60)" stroke-width="1px" opacity="0.25"></line><line x1="0" y1="0" x2="299.23399925231934" y2="0" fill="rgb(0, 0, 0)" stroke="rgb(60, 60, 60)" stroke-width="1px" opacity="0.25"></line></g></g></g><g><g><line x1="0" y1="88.94999980926514" x2="299.23399925231934" y2="88.94999980926514" fill="rgb(0, 0, 0)" stroke="rgb(153, 153, 153)" stroke-width="1.5px"></line></g></g><g><g><line x1="-85.49542835780552" y1="0" x2="-85.49542835780552" y2="177.89999961853027" fill="rgb(0, 0, 0)" stroke="rgb(153, 153, 153)" stroke-width="1.5px"></line></g></g><g><g><g><g><g><path style="fill: none;" stroke="rgb(255, 112, 67)" stroke-width="2px" d="M13.662169451577322,26.304497981887383L14.901853162765502,25.564070474524843L15.637113846642631,24.568095691753452L16.090239616939,26.245426594356704L17.163207242829458,27.539309564028578L18.052359697750635,27.854009002302842L19.416011780057634,27.516203107365204L20.65142071982792,27.75410962290034L21.104546490124292,29.40819145868872L22.357054515566148,29.600187698734718L22.81018028586251,28.82103250555429L23.263306056158882,29.38706836822822L23.917346083096096,29.715109475301087L24.58848519570487,29.149714299023444L25.041610966001237,29.850166286297746L27.097776018006464,31.168502006262383L28.363108357701986,30.064064322342517L28.81623412799835,30.286942776725876L30.983543236868723,29.79679263082285L31.949641577311926,30.997891574426813L33.00551011753082,30.75251612828929L33.71084740148272,31.00337475018905L34.76671594170161,30.50619548927697L35.21984171199799,30.72210622659703L35.672967482294354,29.260240771139692L36.12609325259073,32.63520328705159L36.86562870788574,31.260348105801572L37.52394350624085,31.5263468444857L38.55843818937029,31.191725033185485L39.48178881563459,33.01077784688464L39.93491458593096,31.99344176678102L40.38804035622733,34.43693705565849L41.14467489719391,34.82895221883768L41.82008878122057,33.67442440288348L42.27321455151694,32.455282350621985L43.034123863901414,32.62475418940894L43.84205566188267,34.04264070512686L44.62433883135659,35.154748742316904L45.07746460165296,33.85587496910362L45.992265685081485,32.54173910391338L46.44539145537785,33.49397749993074L46.898517225674226,36.5443966380473L48.176673879623415,38.00324664952892L49.2368171912602,37.13870200240448L49.98917696080889,39.150040528124734L50.44230273110526,39.54512874795726L50.895428501401625,35.64639554620534L51.348554271698,34.65100151625597L51.82305389908382,35.282124339076205L52.276179669380184,35.258803712752176L52.72930543967656,34.99192662051132L53.6355569802693,35.52425879492873L54.64867780630929,34.72754842179369L55.10180357660566,39.92272796769116L55.75584360354287,42.38937966005282L56.40988363048009,40.12826148396549L56.863009400776455,40.970239574721155L57.542698056221006,39.52714780786355L59.680083765166145,38.31768306258804L60.351222877774916,38.95685893833395L60.82572250516074,42.20265706304402L61.278848275457115,41.74951339586796L61.93716307381221,39.37695098584863L62.39028884410858,41.85359808462028L63.305089927537104,42.596467838091485L63.75821569783347,42.35415256510841L64.21134146812985,43.848239508261415L65.81865552125659,42.74691513863449L66.27178129155295,42.38187628023174L66.72918183326722,43.81313293563515L67.39604617445809,44.98996637880244L67.84917194475446,42.83585725379157L68.52458582878113,41.647862492176436L69.22564834131514,40.21574514972741L69.87541359683445,40.99768985247122L71.22196659346989,42.478524480480914L72.03417316286904,43.72175606764517L72.48729893316542,43.55499420002428L72.94042470346179,44.530332071881524L73.39355047375815,43.262127600064154L74.17583364323208,44.625429748768276L74.82987367016928,44.90587302091676L75.28299944046566,44.772409539395376L75.73612521076203,45.750258387224676L76.1892509810584,44.02613021365658L76.64237675135476,44.50371915557765L77.09550252165113,45.06201649387955L77.98038020515442,46.964355893560864L79.76723465783256,47.72825544100897L80.22036042812891,49.05002202462101L81.3745487109593,47.654291843144364L82.17393096610478,46.24248451857105L82.62705673640116,45.30524520821074L83.27682199192047,46.09684729303386L85.12779801586696,45.1688179473039L85.89298209966933,46.12707084080571L86.91892723996298,44.96492657328452L87.37205301025936,45.419077713435414L87.82517878055572,46.632010105027824L89.75737546144214,47.607847826575934L90.44561365972245,48.379070705421555L91.26209500053952,47.55048316646257L92.22819334098271,46.504841159476335L92.68131911127907,46.042525349042236L93.33108436679841,44.47556377730544L93.98084962231772,44.66057834014377L94.4339753926141,44.727467343177274L95.13931267656599,45.24717657728965L95.59243844686236,46.23816270170419L96.04556421715873,46.029695465797694L96.85349601513998,47.001322637618685L97.30662178543636,47.24208554632636L97.96493658379146,46.74897622481813L98.43943621117728,45.55421154402745L98.89256198147365,47.59501683886985L99.34568775177003,48.72729562353984L100.41010583482469,48.60194132891347L100.86323160512107,48.56752657023406L101.73528497437069,48.51446951769293L102.18841074466707,47.667540790235414L102.64153651496342,48.61243363475922L103.11603614234924,46.78305273627559L103.78717525495802,48.35228868197589L104.5822827386856,50.0099899940305L105.23632276562282,51.112281256992155L105.6894485359192,51.5243358267814L106.14257430621555,51.54871513170913L106.81798819024222,52.42734386437481L107.58317227404459,55.03204060311287L108.05767190143041,54.85743774639854L108.51079767172676,53.498890048158074L109.65643641172137,53.29525874617041L110.10956218201773,53.147955213940676L110.86192195156643,54.31312494986315L111.3150477218628,55.77851727706292L112.26832174805233,55.58902696289826L112.91808700357164,59.62003531878425L113.69609540162769,58.26943990809755L114.14922117192404,57.71006720113299L114.60234694222041,57.08505679969697L115.4872246257237,55.708265369447545L116.1455394240788,57.38097076793318L116.62003905146463,58.159026031510315L118.02643884795052,58.21171561296896L118.4795646182469,57.612918497412245L119.21055053070613,58.07136782642241L120.27496861376082,58.701924911812895L120.93328341211591,58.950493191664826L121.62579638181414,58.772382962462764L122.29693549442291,60.05360545311817L123.6648623481478,59.85919012488492L124.34882577501024,60.33349088452539L126.02453617082323,60.206864555035715L126.4776619411196,59.83587949207485L127.64467453820365,60.08838444965943L128.0978003085,58.82960150518378L128.55092607879638,60.23994649711455L129.00405184909275,62.86120892460111L129.67946573311943,62.90592293067624L130.32923098863873,63.87492101528061L130.78235675893512,62.9394246862095L131.2354825292315,63.346007491435365L131.68860829952786,62.79128563697684L132.14173406982422,63.389899777915836L132.94966586780546,62.6943928339661L133.40279163810186,62.03473551250297L134.12095323630743,61.53343294352459L134.8262905202593,61.040586770610474L135.2794162905557,61.131074772401384L135.73254206085204,61.84518028377679L136.20704168823787,61.7092307934076L136.66016745853423,61.478113776279834L137.48947311360496,62.28699651626092L137.94259888390133,64.53073383651368L138.3957246541977,64.31286589190083L138.84885042449406,62.83640584350339L139.32335005187988,66.2201363371681L140.22105204963685,64.90694322140207L141.0289838476181,64.94631012604744L141.50348347500392,64.61762218414852L142.16607304477694,63.9165002933311L142.64057267216273,65.73445537030702L143.29888747051785,65.96148429965422L143.7520132408142,67.17575095943616L144.4146028105872,67.38537092059812L144.88910243797304,66.09185913120794L146.35534903430937,66.24882379286247L146.80847480460577,65.77973923008584L147.2829744319916,67.03344827535237L147.73610020228796,67.54449204046995L148.38586545780726,67.75998615003955L148.83899122810365,68.13146780880068L149.49303125504085,70.6396067912893L150.15134605339594,69.87385374227482L150.6044718236923,68.94594126771817L151.05759759398867,69.06469058815725L151.7116376209259,68.64718072483423L153.2078076171875,68.87764947478871L153.66093338748385,67.54569846291844L154.47741472830091,68.0316616707133L154.93054049859725,69.15338026963173L155.38366626889365,70.65569744772189L156.06335492433823,71.03126381971796L156.5164806946346,71.92074392149979L156.96960646493093,71.65659049997147L158.0810470335824,72.44310439667107L158.5341728038788,72.8210591616654L159.43187480163576,73.56933474943646L159.88500057193212,72.06657486509992L160.54759014170511,71.69886697431528L161.00071591200148,73.20134479714669L161.45384168229785,73.85538051715012L161.9069674525942,73.97934680913717L162.81749376460482,73.34452029989663L163.53565536281042,73.78817396743621L163.98878113310678,73.08163290345377L164.44190690340312,73.99238410544118L164.91640653078898,74.46076045594L165.6901401574271,74.54958463534382L166.14326592772346,74.5576400853038L166.9169995543616,74.62257748065065L167.57103958129883,76.5693426483813L168.22507960823603,78.00668885269123L168.6782053785324,78.15315759897483L169.13133114882876,75.61750560799916L169.58445691912516,74.36192584735119L170.6146768308367,76.22778959947799L171.06780260113305,76.76014509962317L171.52092837142945,76.59808832847327L171.97405414172582,75.76019326568925L172.42717991202218,76.0355744671836L173.0812199389594,76.56634210340738L173.53434570925577,76.47409087900978L173.98747147955214,76.11324639803036L174.4405972498485,77.2001270996456L174.89372302014485,77.14617434870885L175.3511235618591,75.91974122805286L175.8042493321555,75.38289690250807L176.25737510245187,77.25339478966032L176.7318747298377,76.61589379637796L177.7535450987135,76.16832571092404L178.20667086900983,76.34425237702824L178.6597966393062,76.91207266340973L179.11719718102046,78.75331637215733L179.57032295131683,78.87455770454298L180.04482257870265,78.88938867191088L180.49794834899902,79.73668818260745L180.9510741192954,79.55893518242401L181.4255737466812,79.67694962204749L181.8786995169776,78.6254221351978L182.5412890867506,79.14682641707962L182.99441485704696,80.84484987701727L183.4475406273433,80.46796507351208L183.90066639763967,80.72988617038104L184.35379216793604,81.86200904244764L185.02493128054482,81.79653447638812L185.72599379307883,81.9116484490564L186.38003382001605,85.24603941201315L186.83315959031242,84.22716496597941L187.2862853606088,84.57952768119618L187.73941113090513,84.20555538616118L188.40200070067814,83.8417963591524L188.85512647097454,82.81082124411495L189.30825224127088,84.09815420996992L190.09908495358056,84.0341885389867L190.55221072387695,83.72269750237034L191.20197597939625,82.4893855871884L191.65510174969265,83.61375381241128L192.10822751998901,83.84396820124958L192.56135329028538,85.01374375081603L193.0358529176712,89.19294624125658L193.48897868796757,88.48364961287922L194.15584302915846,87.87588617510973L194.60896879945483,87.7911345228102L195.0620945697512,88.7140188954187L195.51522034004756,88.32312386985845L196.40009802355084,88.1850295056618L197.1268091645922,87.64309105227716L197.57993493488857,88.18040918551907L198.03306070518497,88.6648698294877L198.4861864754813,91.21153647286923L198.96068610286713,91.11327236108865L199.4138118731635,90.34996627575123L199.87121241487776,90.06458598947331L200.32433818517413,90.04484330524514L200.7774639554705,90.56818922647051L201.23058972576686,91.80336473268864L201.68371549606326,92.92004701846996L202.15821512344903,92.05015364009626L202.61134089374542,91.19218106637017L203.0644666640418,91.53563679864052L203.51759243433816,90.1515847868525L203.97071820463452,90.81436650482824L204.72307797418324,90.5076809586886L205.1762037444796,91.03965526343885L205.62932951477595,92.20332643271783L206.0824552850723,93.06299073662684L206.55695491245814,91.87651766408263L207.03145453984396,91.99618138924002L207.48458031014033,91.76342281794636L207.9377060804367,92.38726918451073L208.3908318507331,92.57885388480743L208.84395762102946,92.76030040228157L209.29708339132583,92.50411303065803L209.75020916162217,94.32447551021735L210.20333493191853,95.08155034031873L210.85310018743786,93.89205751795765L211.30622595773423,93.90186694088278L211.7636264994485,95.11302659353255L212.2167522697449,94.80560831382496L212.66987804004125,93.12364895526817L213.12300381033762,93.36542570660518L213.576129580634,97.12410352589147L214.0506292080198,101.13409101571196L214.50375497831615,99.19373931437909L214.95688074861252,99.35367999517057L215.41000651890892,97.29135126452422L215.86313228920528,96.803800770258L216.3376319165911,100.5838502732006L216.81213154397693,98.41278381417867L217.2652573142733,100.15889967680457L217.71838308456967,97.68421745561231L218.171508854866,96.25312693250565L218.62463462516237,95.21815740057107L219.07776039545877,97.933226729569L219.5522600228446,98.067297711687L220.00538579314096,98.8544958660393L220.45851156343733,99.15036805511822L220.9116373337337,99.98631202955681L221.36476310403006,99.73090049244993L222.01880313096729,99.99152569301658L222.47620367268155,99.79126728112035L223.3781804418564,100.73984600325353L223.83558098357062,101.69055598820052L224.28870675386702,101.8736966408821L224.93847200938632,102.61749958972932L225.3915977796827,102.76002449323393L225.8660974070685,102.37483420610997L226.3192231773649,103.42940905671917L226.77234894766127,103.56487679844656L227.22974948937554,104.27736909679258L227.70424911676136,103.70323834140662L228.15737488705773,103.12248263386182L228.63187451444355,103.55364298959222L229.10637414182938,103.25571289006082L229.55949991212572,104.92831424524117L230.01690045383998,104.41754681404936L230.47002622413635,105.71604964925989L230.92315199443271,105.09910403444432L231.37627776472908,104.59697700769205L231.82940353502548,106.12895508258194L232.28252930532184,106.02823125513088L232.73565507561818,106.97932818980189L233.18878084591455,107.24551522183997L233.64190661621095,106.85489716098525L234.11640624359674,107.23165802701558L234.56953201389314,108.47949146428456L235.0269325556074,107.6704141235322L235.48433309732167,107.93303813702663L235.93745886761803,108.48669086763826L236.3905846379144,109.30818062783887L236.84371040821074,108.57595911678949L237.31821003559656,112.03257013672327L237.7927096629824,114.53441080076743L238.24583543327876,113.09556134807622L239.0110195170811,112.14358721217785L239.4641452873775,111.82386655580231L240.14383394282206,112.87576193249959L240.59695971311842,113.019239939345L241.0500854834148,113.13069580296052L241.52458511080061,113.55898383441965L241.97771088109698,112.05127669635142L242.43083665139335,112.27600225316036L242.8839624216897,113.77341803581245L243.33708819198608,115.17481636306319L243.79021396228245,115.03383560119637L244.24333973257882,114.23455494685541L245.01707335921697,114.36709633897195L245.47019912951333,114.76395242947419L245.9233248998097,115.08889229647234L246.3764506701061,116.94017773201762L246.83385121182033,114.26020870558624L247.6289586955479,114.97745946104529L248.08208446584428,115.89042178834309L248.53521023614064,114.73549044670798L248.98833600643704,115.25747427561161L249.4414617767334,116.85402884804152L249.89458754702977,116.02167590121606L250.3477133173261,117.03311946463981L250.8008390876225,117.43672689274555L251.25396485791887,117.55990124804987L251.70709062821524,118.65711225170787L252.1602163985116,117.89868809161698L252.61334216880797,118.62343228621266L253.06646793910437,120.75542867497178L253.51959370940074,119.59457190034603L253.97271947969708,119.77845903969927L254.42584524999344,120.31400936906462L254.87897102028984,119.3027174443926L255.3320967905862,120.44636413270257L255.80659641797203,120.97861575323452L256.25972218826837,123.12233938561647L256.71284795856474,122.30692860438037L257.170248500279,123.56295059693844L257.62337427057537,123.89550153560947L258.07650004087174,123.62531513128289L258.52962581116816,125.17727321890278L258.9827515814645,123.91287244170316L259.43587735176084,125.22464362493932L259.8890031220572,125.61093355722934L260.36350274944306,124.92566173838789L260.83800237682885,125.56039508820731L261.2911281471252,125.49442544291388L261.7656277745111,126.97361101889042L262.5821091153281,127.80680784089593L263.03523488562445,128.14111363262788L263.80041896942686,129.6297541413049L264.6553732530049,129.35060388863067L265.10849902330125,129.54041487609152L265.5616247935976,128.89342479077908L266.014750563894,128.2009292694876L266.46787633419035,129.29937762073322L266.9210021044868,130.47386964215517L267.39550173187257,137.38702333969667L267.84862750216894,135.9884091795433L268.3060280438832,135.34144528337333L268.75915381417957,135.07645440249183L269.23365344156537,133.95972485919378L269.68677921186173,134.37726701064364L270.1399049821581,137.4732700309314L270.59303075245447,139.88667191839693L271.0461565227509,139.37937323611462L271.49928229304726,143.34353636550023L271.95240806334357,143.0178058315337L272.40553383363994,142.2641039921101L272.8586596039363,142.37288639486715L273.3117853742327,143.54919272035417L273.7649111445291,143.87311049912358L274.21803691482546,145.1346837011375L274.67116268512177,146.58169047181835L275.1242884554182,147.31343807356666L275.57741422571456,147.29190578595578L276.03053999601093,148.72011797348566L276.4836657663073,147.7013262806263L276.93679153660366,147.2945781733466L277.38991730690003,148.31732302269307L277.8430430771964,148.0387876307854L278.30044361891066,148.7236209321593L278.7578441606249,149.38726141956755L279.2109699309213,148.74811194348487L279.66409570121766,148.30118688466504L280.1214962429319,149.02618141294025L280.5959958703177,150.1306529009231L281.0704954977036,153.43489059952623L281.5449951250894,153.85629530165602L281.99812089538574,153.10101618257545L282.4726205227716,154.69382187892774L282.92574629306796,155.3245869062081L283.37887206336427,155.52729821272524L283.83199783366064,156.11481785795644L284.28512360395706,155.2521019846608L284.7382493742534,155.19313107671957L285.1913751445498,154.92094915311384L285.64450091484616,156.38539099586438L286.09762668514253,158.48375935741373L286.5507524554389,158.2244643032277L287.00387822573526,159.50091155391556L287.45700399603163,160.4691317887363L287.910129766328,161.03488287268496L288.36753030804226,163.2524481087181L288.84202993542806,163.2260776424993L289.2951557057244,164.0112342581452L289.74828147602085,163.87045426834982L290.2014072463172,163.38702036155547L290.6545330166135,162.3912410668132L291.1076587869099,163.58206399440348L291.58215841429575,169.4540928084103" fill="none"></path></g></g></g></g><g opacity="0.2"><g><g><g><path style="fill: none;" stroke="rgb(255, 112, 67)" stroke-width="2px" d="M13.662169451577322,26.304497981887383L14.901853162765502,25.11981397010732L15.637113846642631,23.611959900292952L16.090239616939,28.217967735818092L17.163207242829458,29.2286031692322L18.052359697750635,28.289351617233933L19.416011780057634,27.03313527271007L20.65142071982792,28.10097960645316L21.104546490124292,31.84764087762073L22.357054515566148,29.88527973919326L22.81018028586251,27.659366596039945L23.263306056158882,30.233041820070635L23.917346083096096,30.206100024779296L24.58848519570487,28.302729202616316L25.041610966001237,30.90002091219208L27.097776018006464,33.14507579371912L28.363108357701986,28.407875157476607L28.81623412799835,30.621203869485498L30.983543236868723,29.061642081409676L31.949641577311926,32.79943020463179L33.00551011753082,30.384466416055602L33.71084740148272,31.379654428428914L34.76671594170161,29.760436413846033L35.21984171199799,31.045969774908603L35.672967482294354,27.06745297826774L36.12609325259073,37.697632668245895L36.86562870788574,29.19806885180424L37.52394350624085,31.925344544141122L38.55843818937029,30.689792624469195L39.48178881563459,35.73935606207055L39.93491458593096,30.4674379839853L40.38804035622733,38.102179502800944L41.14467489719391,35.41697491680771L41.82008878122057,31.94263276164861L42.27321455151694,30.626569324624597L43.034123863901414,32.878961943219345L43.84205566188267,36.16947045676671L44.62433883135659,36.82291078777826L45.07746460165296,31.907564316518126L45.992265685081485,30.57053531051974L46.44539145537785,34.92233509204744L46.898517225674226,41.12002534155227L48.176673879623415,40.19152166569825L49.2368171912602,35.84188503209226L49.98917696080889,42.167048316182445L50.44230273110526,40.13776107764443L50.895428501401625,29.798295743942163L51.348554271698,33.157910471387815L51.82305389908382,36.228808573285285L52.276179669380184,35.22382277326664L52.72930543967656,34.59161098215326L53.6355569802693,36.322757056550934L54.64867780630929,33.53248286209464L55.10180357660566,47.71549728652371L55.75584360354287,46.08935719859141L56.40988363048009,36.73658421983668L56.863009400776455,42.23320671085411L57.542698056221006,37.362510157577624L59.680083765166145,36.503485944675056L60.351222877774916,39.915622751952704L60.82572250516074,47.07135425010893L61.278848275457115,41.06979789510387L61.93716307381221,35.818107370819696L62.39028884410858,45.56856873277774L63.305089927537104,43.71077246829827L63.75821569783347,41.990679655633805L64.21134146812985,46.08936992299096L65.81865552125659,41.094928584194115L66.27178129155295,41.83431799262757L66.72918183326722,45.96001791874027L67.39604617445809,46.755216543553395L67.84917194475446,39.60469356627527L68.52458582878113,39.865870349753784L69.22564834131514,38.06756913605387L69.87541359683445,42.17060690658695L71.22196659346989,44.69977642249546L72.03417316286904,45.58660344839154L72.48729893316542,43.30485139859298L72.94042470346179,45.99333887966736L73.39355047375815,41.35982089233813L74.17583364323208,46.67038297182444L74.82987367016928,45.32653792913948L75.28299944046566,44.57221431711332L75.73612521076203,47.217031658968615L76.1892509810584,41.43993795330449L76.64237675135476,45.220102568459204L77.09550252165113,45.899462501332444L77.98038020515442,49.817864993082814L79.76723465783256,48.87410476218111L80.22036042812891,51.032671900039084L81.3745487109593,45.5606965709294L82.17393096610478,44.124773531711064L82.62705673640116,43.89938624267028L83.27682199192047,47.28425042026856L85.12779801586696,43.77677392870897L85.89298209966933,47.564450181058426L86.91892723996298,43.22171017200276L87.37205301025936,46.100304423661775L87.82517878055572,48.4514086924164L89.75737546144214,49.07160440889811L90.44561365972245,49.53590502369003L91.26209500053952,46.30760185802409L92.22819334098271,44.93637814899693L92.68131911127907,45.34905163339112L93.33108436679841,42.125121419700235L93.98084962231772,44.93810018440126L94.4339753926141,44.827800847727524L95.13931267656599,46.0267404284582L95.59243844686236,47.724641888326005L96.04556421715873,45.71699461193794L96.85349601513998,48.45876339535017L97.30662178543636,47.60322990938789L97.96493658379146,46.00931224255579L98.43943621117728,43.76206452284145L98.89256198147365,50.65622478113347L99.34568775177003,50.42571380054483L100.41010583482469,48.413909886973904L100.86323160512107,48.51590443221493L101.73528497437069,48.43488393888129L102.18841074466707,46.39714769904913L102.64153651496342,50.0297729015449L103.11603614234924,44.03898138855016L103.78717525495802,50.7061426005264L104.5822827386856,52.49654196211235L105.23632276562282,52.76571815143462L105.6894485359192,52.1424176814653L106.14257430621555,51.58528408910069L106.81798819024222,53.74528696337336L107.58317227404459,58.93908571121994L108.05767190143041,54.595533461327015L108.51079767172676,51.4610685007974L109.65643641172137,52.9898117931889L110.10956218201773,52.92699991559608L110.86192195156643,56.060879553746865L111.3150477218628,57.976605767862566L112.26832174805233,55.30479149165125L112.91808700357164,65.66654785261323L113.69609540162769,56.2435467920675L114.14922117192404,56.87100814068618L114.60234694222041,56.147541197542985L115.4872246257237,53.643078224073406L116.1455394240788,59.89002886566163L116.62003905146463,59.326108926876024L118.02643884795052,58.290749985156936L118.4795646182469,56.714722824077164L119.21055053070613,58.759041819937686L120.27496861376082,59.64776053989862L120.93328341211591,59.32334561144273L121.62579638181414,58.50521761865969L122.29693549442291,61.97543918910128L123.6648623481478,59.56756713253504L124.34882577501024,61.04494202398609L126.02453617082323,60.01692506080122L126.4776619411196,59.27940189763354L127.64467453820365,60.4671418860363L128.0978003085,56.941427088470284L128.55092607879638,62.355463985010715L129.00405184909275,66.79310256583096L129.67946573311943,62.97299393978893L130.32923098863873,65.32841814218716L130.78235675893512,61.53618019260285L131.2354825292315,63.95588169927418L131.68860829952786,61.95920285528906L132.14173406982422,64.28782098932437L132.94966586780546,61.65113241804146L133.40279163810186,61.04524953030829L134.12095323630743,60.78147909005701L134.8262905202593,60.30131751123928L135.2794162905557,61.26680677508773L135.73254206085204,62.9163385508399L136.20704168823787,61.50530655785382L136.66016745853423,61.1314382505882L137.48947311360496,63.500320626232565L137.94259888390133,67.8963398168928L138.3957246541977,63.98606397498156L138.84885042449406,60.621715770907265L139.32335005187988,71.29573207766515L140.22105204963685,62.93715354775305L141.0289838476181,65.00536048301548L141.50348347500392,64.12459027130012L142.16607304477694,62.864817457105L142.64057267216273,68.4613879857709L143.29888747051785,66.30202769367497L143.7520132408142,68.99715094910914L144.4146028105872,67.69980086234102L144.88910243797304,64.15159144712266L146.35534903430937,66.48427078534428L146.80847480460577,65.07611238592084L147.2829744319916,68.91401184325218L147.73610020228796,68.3110576881463L148.38586545780726,68.08322731439397L148.83899122810365,68.68869029694235L149.49303125504085,74.40181526502222L150.15134605339594,68.72522416875313L150.6044718236923,67.55407255588317L151.05759759398867,69.2428145688159L151.7116376209259,68.02091592984972L153.2078076171875,69.22335259972044L153.66093338748385,65.54777194511303L154.47741472830091,68.7606064824056L154.93054049859725,70.83595816800937L155.38366626889365,72.90917321485715L156.06335492433823,71.59461337771205L156.5164806946346,73.25496407417255L156.96960646493093,71.26036036767897L158.0810470335824,73.62287524172054L158.5341728038788,73.38799130915686L159.43187480163576,74.69174813109305L159.88500057193212,69.81243503859514L160.54759014170511,71.14730513813832L161.00071591200148,75.45506153139378L161.45384168229785,74.83643409715529L161.9069674525942,74.16529624711774L162.81749376460482,72.3922805360358L163.53565536281042,74.45365446874558L163.98878113310678,72.02182130748007L164.44190690340312,75.35851090842232L164.91640653078898,75.16332498168822L165.6901401574271,74.68282090444956L166.14326592772346,74.56972326024378L166.9169995543616,74.71998357367092L167.57103958129883,79.48949039997721L168.22507960823603,80.16270815915615L168.6782053785324,78.37286071840019L169.13133114882876,71.81402762153574L169.58445691912516,72.47855620637921L170.6146768308367,79.02658522766814L171.06780260113305,77.55867834984099L171.52092837142945,76.35500317174842L171.97405414172582,74.50335067151322L172.42717991202218,76.44864626942514L173.0812199389594,77.36249355774305L173.53434570925577,76.33571404241337L173.98747147955214,75.57197967656123L174.4405972498485,78.83044815206847L174.89372302014485,77.0652452223037L175.3511235618591,74.08009154706889L175.8042493321555,74.57763041419088L176.25737510245187,80.0591416203887L176.7318747298377,75.65964230645442L177.7535450987135,75.49697358274318L178.20667086900983,76.60814237618456L178.6597966393062,77.76380309298197L179.11719718102046,81.51518193527875L179.57032295131683,79.05641970312143L180.04482257870265,78.91163512296276L180.49794834899902,81.0076374486523L180.9510741192954,79.29230568214884L181.4255737466812,79.85397128148271L181.8786995169776,77.04813090492326L182.5412890867506,79.92893283990234L182.99441485704696,83.39188506692378L183.4475406273433,79.90263786825426L183.90066639763967,81.12276781568447L184.35379216793604,83.56019335054754L185.02493128054482,81.69832262729891L185.72599379307883,82.0843194080588L186.38003382001605,90.24762585644827L186.83315959031242,82.6988532969288L187.2862853606088,85.10807175402131L187.73941113090513,83.64459694360872L188.40200070067814,83.29615781863919L188.85512647097454,81.26435857155876L189.30825224127088,86.02915365875234L190.09908495358056,83.9382400325119L190.55221072387695,83.25546094744578L191.20197597939625,80.63941771441552L191.65510174969265,85.30030615024558L192.10822751998901,84.18928978450701L192.56135329028538,86.76840707516571L193.0358529176712,95.46174997691739L193.48897868796757,87.41970467031315L194.15584302915846,86.96424101845551L194.60896879945483,87.66400704436087L195.0620945697512,90.09834545433151L195.51522034004756,87.73678133151805L196.40009802355084,87.97788795936685L197.1268091645922,86.8301833722002L197.57993493488857,88.9863863853819L198.03306070518497,89.39156079544065L198.4861864754813,95.0315364379415L198.96068610286713,90.9658761934178L199.4138118731635,89.2050071477451L199.87121241487776,89.63651556005642L200.32433818517413,90.0152292789029L200.7774639554705,91.35320810830855L201.23058972576686,93.65612799201583L201.68371549606326,94.59507044714194L202.15821512344903,90.7453135725357L202.61134089374542,89.90522220578107L203.0644666640418,92.05082039704604L203.51759243433816,88.07550676917047L203.97071820463452,91.80853908179184L204.72307797418324,90.04765263947914L205.1762037444796,91.8376167205642L205.62932951477595,93.9488331866363L206.0824552850723,94.35248719249034L206.55695491245814,90.09680805526635L207.03145453984396,92.1756769769761L207.48458031014033,91.41428496100585L207.9377060804367,93.32303873435727L208.3908318507331,92.86623093525246L208.84395762102946,93.0324701784928L209.29708339132583,92.11983197322276L209.75020916162217,97.05501922955631L210.20333493191853,96.21716258547079L210.85310018743786,92.107818284416L211.30622595773423,93.91658107527053L211.7636264994485,96.92976607250725L212.2167522697449,94.34448089426351L212.66987804004125,90.60070991743298L213.12300381033762,93.7280908336107L213.576129580634,102.76212025482089L214.0506292080198,107.14907225044271L214.50375497831615,96.28321176237975L214.95688074861252,99.59359101635776L215.41000651890892,94.19785816855473L215.86313228920528,96.07247502885862L216.3376319165911,106.25392452761453L216.81213154397693,95.15618412564581L217.2652573142733,102.77807347074337L217.71838308456967,93.97219412382395L218.171508854866,94.10649114784562L218.62463462516237,93.6657031026692L219.07776039545877,102.00583072306593L219.5522600228446,98.26840418486405L220.00538579314096,100.03529309756779L220.45851156343733,99.59417633873659L220.9116373337337,101.24022799121474L221.36476310403006,99.34778318678958L222.01880313096729,100.38246349386657L222.47620367268155,99.49087966327603L223.3781804418564,102.16271408645326L223.83558098357062,103.116620965621L224.28870675386702,102.14840761990452L224.93847200938632,103.73320401300013L225.3915977796827,102.9738118484908L225.8660974070685,101.79704877542399L226.3192231773649,105.01127133263299L226.77234894766127,103.76807841103766L227.22974948937554,105.34610754431164L227.70424911676136,102.84204220832765L228.15737488705773,102.2513490725446L228.63187451444355,104.20038352318784L229.10637414182938,102.80881774076374L229.55949991212572,107.43721627801165L230.01690045383998,103.65139566726168L230.47002622413635,107.66380390207566L230.92315199443271,104.17368561222098L231.37627776472908,103.84378646756363L231.82940353502548,108.42692219491674L232.28252930532184,105.87714551395425L232.73565507561818,108.40597359180845L233.18878084591455,107.64479576989707L233.64190661621095,106.26897006970317L234.11640624359674,107.79679932606108L234.56953201389314,110.35124162018803L235.0269325556074,106.45679811240363L235.48433309732167,108.3269741572683L235.93745886761803,109.31716996355568L236.3905846379144,110.54041526813978L236.84371040821074,107.47762685021542L237.31821003559656,117.21748666662393L237.7927096629824,118.28717179683373L238.24583543327876,110.93728716903932L239.0110195170811,110.71562600833033L239.4641452873775,111.34428557123897L240.14383394282206,114.45360499754554L240.59695971311842,113.2344569496131L241.0500854834148,113.29787959838382L241.52458511080061,114.20141588160834L241.97771088109698,109.78971598924907L242.43083665139335,112.61309058837377L242.8839624216897,116.01954170979059L243.33708819198608,117.27691385393928L243.79021396228245,114.82236445839611L244.24333973257882,113.035633965344L245.01707335921697,114.56590842714672L245.47019912951333,115.35923656522755L245.9233248998097,115.5763020969696L246.3764506701061,119.71710588533551L246.83385121182033,110.24025516593916L247.6289586955479,116.05333559423389L248.08208446584428,117.25986527928978L248.53521023614064,113.00309343425532L248.98833600643704,116.04045001896701L249.4414617767334,119.24886070668641L249.89458754702977,114.77314648097786L250.3477133173261,118.55028480977545L250.8008390876225,118.04213803490416L251.25396485791887,117.74466278100635L251.70709062821524,120.30292875719489L252.1602163985116,116.7610518514806L252.61334216880797,119.71054857810621L253.06646793910437,123.95342325811043L253.51959370940074,117.8532867384074L253.97271947969708,120.05428974872916L254.42584524999344,121.11733486311266L254.87897102028984,117.78577955738456L255.3320967905862,122.16183416516753L255.80659641797203,121.77699318403245L256.25972218826837,126.33792483418937L256.71284795856474,121.0838124325262L257.170248500279,125.44698358577556L257.62337427057537,124.39432794361596L258.07650004087174,123.22003552479305L258.52962581116816,127.50521035033262L258.9827515814645,122.0162712759037L259.43587735176084,127.19230039979358L259.8890031220572,126.19036845566438L260.36350274944306,123.89775401012571L260.83800237682885,126.51249511293645L261.2911281471252,125.39547097497369L261.7656277745111,129.19238938285525L262.5821091153281,129.05660307390417L263.03523488562445,128.64257232022578L263.80041896942686,131.86271490432046L264.6553732530049,128.9318785096193L265.10849902330125,129.82513135728277L265.5616247935976,127.92293966281044L266.014750563894,127.16218598755042L266.46787633419035,130.94705014760166L266.9210021044868,132.23560767428808L267.39550173187257,147.75675388600894L267.84862750216894,133.8904879393133L268.3060280438832,134.37099943911835L268.75915381417957,134.67896808116961L269.23365344156537,132.28463054424674L269.68677921186173,135.00358023781837L270.1399049821581,142.11727456136305L270.59303075245447,143.50677474959525L271.0461565227509,138.61842521269114L271.49928229304726,149.28978105957867L271.95240806334357,142.52921003058395L272.40553383363994,141.1335512329747L272.8586596039363,142.53605999900265L273.3117853742327,145.3136522085847L273.7649111445291,144.35898716727775L274.21803691482546,147.02704350415843L274.67116268512177,148.75220062783956L275.1242884554182,148.41105947618917L275.57741422571456,147.2596073545394L276.03053999601093,150.8624362547805L276.4836657663073,146.1731387413372L276.93679153660366,146.68445601242706L277.38991730690003,149.85144029671278L277.8430430771964,147.6209845429239L278.30044361891066,149.75087088422015L278.7578441606249,150.3827221506799L279.2109699309213,147.7893877293609L279.66409570121766,147.63079929643527L280.1214962429319,150.11367320535305L280.5959958703177,151.78736013289745L281.0704954977036,158.39124714743093L281.5449951250894,154.48840235485068L281.99812089538574,151.9680975039546L282.4726205227716,157.0830304234562L282.92574629306796,156.2707344471287L283.37887206336427,155.8313651725009L283.83199783366064,156.99609732580325L284.28512360395706,153.95802817471736L284.7382493742534,155.10467471480774L285.1913751445498,154.51267626770527L285.64450091484616,158.58205375999023L286.09762668514253,161.63131189973774L286.5507524554389,157.83552172194868L287.00387822573526,161.41558242994734L287.45700399603163,161.92146214096738L287.910129766328,161.88350949860796L288.36753030804226,166.5787959627678L288.84202993542806,163.1865219431711L289.2951557057244,165.18896918161408L289.74828147602085,163.6592842836567L290.2014072463172,162.66186950136398L290.6545330166135,160.89757212469976L291.1076587869099,165.36829838578888L291.58215841429575,178.26213602942062" fill="none"></path></g></g></g></g></g></g><g transform="translate(30, 177)" clip-path="url(#clip_1)"><clipPath id="clip_1"><rect width="299" height="22"></rect></clipPath><g><g><line x1="0" y1="0" x2="0" y2="5" style="visibility: inherit;" fill="rgb(0, 0, 0)" stroke="rgb(204, 204, 204)" stroke-width="1px"></line><line x1="21.37385708945138" y1="0" x2="21.37385708945138" y2="5" style="visibility: inherit;" fill="rgb(0, 0, 0)" stroke="rgb(204, 204, 204)" stroke-width="1px"></line><line x1="42.74771417890276" y1="0" x2="42.74771417890276" y2="5" style="visibility: inherit;" fill="rgb(0, 0, 0)" stroke="rgb(204, 204, 204)" stroke-width="1px"></line><line x1="64.12157126835415" y1="0" x2="64.12157126835415" y2="5" style="visibility: inherit;" fill="rgb(0, 0, 0)" stroke="rgb(204, 204, 204)" stroke-width="1px"></line><line x1="85.49542835780552" y1="0" x2="85.49542835780552" y2="5" style="visibility: inherit;" fill="rgb(0, 0, 0)" stroke="rgb(204, 204, 204)" stroke-width="1px"></line><line x1="106.86928544725691" y1="0" x2="106.86928544725691" y2="5" style="visibility: inherit;" fill="rgb(0, 0, 0)" stroke="rgb(204, 204, 204)" stroke-width="1px"></line><line x1="128.2431425367083" y1="0" x2="128.2431425367083" y2="5" style="visibility: inherit;" fill="rgb(0, 0, 0)" stroke="rgb(204, 204, 204)" stroke-width="1px"></line><line x1="149.61699962615967" y1="0" x2="149.61699962615967" y2="5" style="visibility: inherit;" fill="rgb(0, 0, 0)" stroke="rgb(204, 204, 204)" stroke-width="1px"></line><line x1="170.99085671561105" y1="0" x2="170.99085671561105" y2="5" style="visibility: inherit;" fill="rgb(0, 0, 0)" stroke="rgb(204, 204, 204)" stroke-width="1px"></line><line x1="192.36471380506245" y1="0" x2="192.36471380506245" y2="5" style="visibility: inherit;" fill="rgb(0, 0, 0)" stroke="rgb(204, 204, 204)" stroke-width="1px"></line><line x1="213.73857089451383" y1="0" x2="213.73857089451383" y2="5" style="visibility: inherit;" fill="rgb(0, 0, 0)" stroke="rgb(204, 204, 204)" stroke-width="1px"></line><line x1="235.11242798396518" y1="0" x2="235.11242798396518" y2="5" style="visibility: inherit;" fill="rgb(0, 0, 0)" stroke="rgb(204, 204, 204)" stroke-width="1px"></line><line x1="256.4862850734166" y1="0" x2="256.4862850734166" y2="5" style="visibility: inherit;" fill="rgb(0, 0, 0)" stroke="rgb(204, 204, 204)" stroke-width="1px"></line><line x1="277.860142162868" y1="0" x2="277.860142162868" y2="5" style="visibility: inherit;" fill="rgb(0, 0, 0)" stroke="rgb(204, 204, 204)" stroke-width="1px"></line><line x1="299.23399925231934" y1="0" x2="299.23399925231934" y2="5" style="visibility: inherit;" fill="rgb(0, 0, 0)" stroke="rgb(204, 204, 204)" stroke-width="1px"></line></g><g transform="translate(0, 8)"><text style="text-anchor: middle; visibility: hidden; font-family: Roboto, sans-serif; font-size: 12px; font-weight: 200;" x="0" y="0" dx="0em" dy="0.95em" fill="rgb(50, 49, 63)" stroke="none" stroke-width="1px">20k</text><text style="text-anchor: middle; visibility: inherit; font-family: Roboto, sans-serif; font-size: 12px; font-weight: 200;" x="21.37385708945138" y="0" dx="0em" dy="0.95em" fill="rgb(50, 49, 63)" stroke="none" stroke-width="1px">25k</text><text style="text-anchor: middle; visibility: hidden; font-family: Roboto, sans-serif; font-size: 12px; font-weight: 200;" x="42.74771417890276" y="0" dx="0em" dy="0.95em" fill="rgb(50, 49, 63)" stroke="none" stroke-width="1px">30k</text><text style="text-anchor: middle; visibility: inherit; font-family: Roboto, sans-serif; font-size: 12px; font-weight: 200;" x="64.12157126835415" y="0" dx="0em" dy="0.95em" fill="rgb(50, 49, 63)" stroke="none" stroke-width="1px">35k</text><text style="text-anchor: middle; visibility: hidden; font-family: Roboto, sans-serif; font-size: 12px; font-weight: 200;" x="85.49542835780552" y="0" dx="0em" dy="0.95em" fill="rgb(50, 49, 63)" stroke="none" stroke-width="1px">40k</text><text style="text-anchor: middle; visibility: inherit; font-family: Roboto, sans-serif; font-size: 12px; font-weight: 200;" x="106.86928544725691" y="0" dx="0em" dy="0.95em" fill="rgb(50, 49, 63)" stroke="none" stroke-width="1px">45k</text><text style="text-anchor: middle; visibility: hidden; font-family: Roboto, sans-serif; font-size: 12px; font-weight: 200;" x="128.2431425367083" y="0" dx="0em" dy="0.95em" fill="rgb(50, 49, 63)" stroke="none" stroke-width="1px">50k</text><text style="text-anchor: middle; visibility: inherit; font-family: Roboto, sans-serif; font-size: 12px; font-weight: 200;" x="149.61699962615967" y="0" dx="0em" dy="0.95em" fill="rgb(50, 49, 63)" stroke="none" stroke-width="1px">55k</text><text style="text-anchor: middle; visibility: hidden; font-family: Roboto, sans-serif; font-size: 12px; font-weight: 200;" x="170.99085671561105" y="0" dx="0em" dy="0.95em" fill="rgb(50, 49, 63)" stroke="none" stroke-width="1px">60k</text><text style="text-anchor: middle; visibility: inherit; font-family: Roboto, sans-serif; font-size: 12px; font-weight: 200;" x="192.36471380506245" y="0" dx="0em" dy="0.95em" fill="rgb(50, 49, 63)" stroke="none" stroke-width="1px">65k</text><text style="text-anchor: middle; visibility: hidden; font-family: Roboto, sans-serif; font-size: 12px; font-weight: 200;" x="213.73857089451383" y="0" dx="0em" dy="0.95em" fill="rgb(50, 49, 63)" stroke="none" stroke-width="1px">70k</text><text style="text-anchor: middle; visibility: inherit; font-family: Roboto, sans-serif; font-size: 12px; font-weight: 200;" x="235.11242798396518" y="0" dx="0em" dy="0.95em" fill="rgb(50, 49, 63)" stroke="none" stroke-width="1px">75k</text><text style="text-anchor: middle; visibility: hidden; font-family: Roboto, sans-serif; font-size: 12px; font-weight: 200;" x="256.4862850734166" y="0" dx="0em" dy="0.95em" fill="rgb(50, 49, 63)" stroke="none" stroke-width="1px">80k</text><text style="text-anchor: middle; visibility: inherit; font-family: Roboto, sans-serif; font-size: 12px; font-weight: 200;" x="277.860142162868" y="0" dx="0em" dy="0.95em" fill="rgb(50, 49, 63)" stroke="none" stroke-width="1px">85k</text><text style="text-anchor: middle; visibility: hidden; font-family: Roboto, sans-serif; font-size: 12px; font-weight: 200;" x="299.23399925231934" y="0" dx="0em" dy="0.95em" fill="rgb(50, 49, 63)" stroke="none" stroke-width="1px">90k</text></g><line x1="0" y1="0" x2="299.23399925231934" y2="0" fill="rgb(0, 0, 0)" stroke="rgb(204, 204, 204)" stroke-width="1px"></line></g></g></g></g></svg>