<svg viewBox="0 0 330 200" xmlns="http://www.w3.org/2000/svg"><g><g><g><g><g><line x1="41.149001121520996" y1="177.89999961853027" x2="36.149001121520996" y2="177.89999961853027" style="visibility: inherit;" fill="rgb(0, 0, 0)" stroke="rgb(204, 204, 204)" stroke-width="1px"></line><line x1="41.149001121520996" y1="165.19285678863525" x2="36.149001121520996" y2="165.19285678863525" style="visibility: inherit;" fill="rgb(0, 0, 0)" stroke="rgb(204, 204, 204)" stroke-width="1px"></line><line x1="41.149001121520996" y1="152.48571395874023" x2="36.149001121520996" y2="152.48571395874023" style="visibility: inherit;" fill="rgb(0, 0, 0)" stroke="rgb(204, 204, 204)" stroke-width="1px"></line><line x1="41.149001121520996" y1="139.77857112884521" x2="36.149001121520996" y2="139.77857112884521" style="visibility: inherit;" fill="rgb(0, 0, 0)" stroke="rgb(204, 204, 204)" stroke-width="1px"></line><line x1="41.149001121520996" y1="127.0714282989502" x2="36.149001121520996" y2="127.0714282989502" style="visibility: inherit;" fill="rgb(0, 0, 0)" stroke="rgb(204, 204, 204)" stroke-width="1px"></line><line x1="41.149001121520996" y1="114.36428546905516" x2="36.149001121520996" y2="114.36428546905516" style="visibility: inherit;" fill="rgb(0, 0, 0)" stroke="rgb(204, 204, 204)" stroke-width="1px"></line><line x1="41.149001121520996" y1="101.65714263916016" x2="36.149001121520996" y2="101.65714263916016" style="visibility: inherit;" fill="rgb(0, 0, 0)" stroke="rgb(204, 204, 204)" stroke-width="1px"></line><line x1="41.149001121520996" y1="88.94999980926514" x2="36.149001121520996" y2="88.94999980926514" style="visibility: inherit;" fill="rgb(0, 0, 0)" stroke="rgb(204, 204, 204)" stroke-width="1px"></line><line x1="41.149001121520996" y1="76.24285697937012" x2="36.149001121520996" y2="76.24285697937012" style="visibility: inherit;" fill="rgb(0, 0, 0)" stroke="rgb(204, 204, 204)" stroke-width="1px"></line><line x1="41.149001121520996" y1="63.53571414947509" x2="36.149001121520996" y2="63.53571414947509" style="visibility: inherit;" fill="rgb(0, 0, 0)" stroke="rgb(204, 204, 204)" stroke-width="1px"></line><line x1="41.149001121520996" y1="50.82857131958008" x2="36.149001121520996" y2="50.82857131958008" style="visibility: inherit;" fill="rgb(0, 0, 0)" stroke="rgb(204, 204, 204)" stroke-width="1px"></line><line x1="41.149001121520996" y1="38.12142848968506" x2="36.149001121520996" y2="38.12142848968506" style="visibility: inherit;" fill="rgb(0, 0, 0)" stroke="rgb(204, 204, 204)" stroke-width="1px"></line><line x1="41.149001121520996" y1="25.414285659790046" x2="36.149001121520996" y2="25.414285659790046" style="visibility: inherit;" fill="rgb(0, 0, 0)" stroke="rgb(204, 204, 204)" stroke-width="1px"></line><line x1="41.149001121520996" y1="12.707142829895014" x2="36.149001121520996" y2="12.707142829895014" style="visibility: inherit;" fill="rgb(0, 0, 0)" stroke="rgb(204, 204, 204)" stroke-width="1px"></line><line x1="41.149001121520996" y1="0" x2="36.149001121520996" y2="0" style="visibility: inherit;" fill="rgb(0, 0, 0)" stroke="rgb(204, 204, 204)" stroke-width="1px"></line></g><g transform="translate(31.149001121520996, 0)"><text style="text-anchor: end; visibility: hidden; font-family: Roboto, sans-serif; font-size: 12px; font-weight: 200;" x="0" y="177.89999961853027" dx="0em" dy="0.3em" fill="rgb(50, 49, 63)" stroke="none" stroke-width="1px">90</text><text style="text-anchor: end; visibility: inherit; font-family: Roboto, sans-serif; font-size: 12px; font-weight: 200;" x="0" y="165.19285678863525" dx="0em" dy="0.3em" fill="rgb(50, 49, 63)" stroke="none" stroke-width="1px">100</text><text style="text-anchor: end; visibility: hidden; font-family: Roboto, sans-serif; font-size: 12px; font-weight: 200;" x="0" y="152.48571395874023" dx="0em" dy="0.3em" fill="rgb(50, 49, 63)" stroke="none" stroke-width="1px">110</text><text style="text-anchor: end; visibility: inherit; font-family: Roboto, sans-serif; font-size: 12px; font-weight: 200;" x="0" y="139.77857112884521" dx="0em" dy="0.3em" fill="rgb(50, 49, 63)" stroke="none" stroke-width="1px">120</text><text style="text-anchor: end; visibility: hidden; font-family: Roboto, sans-serif; font-size: 12px; font-weight: 200;" x="0" y="127.0714282989502" dx="0em" dy="0.3em" fill="rgb(50, 49, 63)" stroke="none" stroke-width="1px">130</text><text style="text-anchor: end; visibility: inherit; font-family: Roboto, sans-serif; font-size: 12px; font-weight: 200;" x="0" y="114.36428546905516" dx="0em" dy="0.3em" fill="rgb(50, 49, 63)" stroke="none" stroke-width="1px">140</text><text style="text-anchor: end; visibility: hidden; font-family: Roboto, sans-serif; font-size: 12px; font-weight: 200;" x="0" y="101.65714263916016" dx="0em" dy="0.3em" fill="rgb(50, 49, 63)" stroke="none" stroke-width="1px">150</text><text style="text-anchor: end; visibility: inherit; font-family: Roboto, sans-serif; font-size: 12px; font-weight: 200;" x="0" y="88.94999980926514" dx="0em" dy="0.3em" fill="rgb(50, 49, 63)" stroke="none" stroke-width="1px">160</text><text style="text-anchor: end; visibility: hidden; font-family: Roboto, sans-serif; font-size: 12px; font-weight: 200;" x="0" y="76.24285697937012" dx="0em" dy="0.3em" fill="rgb(50, 49, 63)" stroke="none" stroke-width="1px">170</text><text style="text-anchor: end; visibility: inherit; font-family: Roboto, sans-serif; font-size: 12px; font-weight: 200;" x="0" y="63.53571414947509" dx="0em" dy="0.3em" fill="rgb(50, 49, 63)" stroke="none" stroke-width="1px">180</text><text style="text-anchor: end; visibility: hidden; font-family: Roboto, sans-serif; font-size: 12px; font-weight: 200;" x="0" y="50.82857131958008" dx="0em" dy="0.3em" fill="rgb(50, 49, 63)" stroke="none" stroke-width="1px">190</text><text style="text-anchor: end; visibility: inherit; font-family: Roboto, sans-serif; font-size: 12px; font-weight: 200;" x="0" y="38.12142848968506" dx="0em" dy="0.3em" fill="rgb(50, 49, 63)" stroke="none" stroke-width="1px">200</text><text style="text-anchor: end; visibility: hidden; font-family: Roboto, sans-serif; font-size: 12px; font-weight: 200;" x="0" y="25.414285659790046" dx="0em" dy="0.3em" fill="rgb(50, 49, 63)" stroke="none" stroke-width="1px">210</text><text style="text-anchor: end; visibility: inherit; font-family: Roboto, sans-serif; font-size: 12px; font-weight: 200;" x="0" y="12.707142829895014" dx="0em" dy="0.3em" fill="rgb(50, 49, 63)" stroke="none" stroke-width="1px">220</text><text style="text-anchor: end; visibility: hidden; font-family: Roboto, sans-serif; font-size: 12px; font-weight: 200;" x="0" y="0" dx="0em" dy="0.3em" fill="rgb(50, 49, 63)" stroke="none" stroke-width="1px">230</text></g><line x1="41.149001121520996" y1="0" x2="41.149001121520996" y2="177.89999961853027" fill="rgb(0, 0, 0)" stroke="rgb(204, 204, 204)" stroke-width="1px"></line></g></g><g transform="translate(41, 0)" clip-path="url(#clip_0)"><clipPath id="clip_0"><rect width="288" height="177"></rect></clipPath><g><g><g><line x1="0" y1="0" x2="0" y2="177.89999961853027" fill="rgb(0, 0, 0)" stroke="rgb(60, 60, 60)" stroke-width="1px" opacity="0.25"></line><line x1="20.632214205605642" y1="0" x2="20.632214205605642" y2="177.89999961853027" fill="rgb(0, 0, 0)" stroke="rgb(60, 60, 60)" stroke-width="1px" opacity="0.25"></line><line x1="41.264428411211284" y1="0" x2="41.264428411211284" y2="177.89999961853027" fill="rgb(0, 0, 0)" stroke="rgb(60, 60, 60)" stroke-width="1px" opacity="0.25"></line><line x1="61.896642616816926" y1="0" x2="61.896642616816926" y2="177.89999961853027" fill="rgb(0, 0, 0)" stroke="rgb(60, 60, 60)" stroke-width="1px" opacity="0.25"></line><line x1="82.52885682242257" y1="0" x2="82.52885682242257" y2="177.89999961853027" fill="rgb(0, 0, 0)" stroke="rgb(60, 60, 60)" stroke-width="1px" opacity="0.25"></line><line x1="103.16107102802822" y1="0" x2="103.16107102802822" y2="177.89999961853027" fill="rgb(0, 0, 0)" stroke="rgb(60, 60, 60)" stroke-width="1px" opacity="0.25"></line><line x1="123.79328523363385" y1="0" x2="123.79328523363385" y2="177.89999961853027" fill="rgb(0, 0, 0)" stroke="rgb(60, 60, 60)" stroke-width="1px" opacity="0.25"></line><line x1="144.4254994392395" y1="0" x2="144.4254994392395" y2="177.89999961853027" fill="rgb(0, 0, 0)" stroke="rgb(60, 60, 60)" stroke-width="1px" opacity="0.25"></line><line x1="165.05771364484514" y1="0" x2="165.05771364484514" y2="177.89999961853027" fill="rgb(0, 0, 0)" stroke="rgb(60, 60, 60)" stroke-width="1px" opacity="0.25"></line><line x1="185.6899278504508" y1="0" x2="185.6899278504508" y2="177.89999961853027" fill="rgb(0, 0, 0)" stroke="rgb(60, 60, 60)" stroke-width="1px" opacity="0.25"></line><line x1="206.32214205605644" y1="0" x2="206.32214205605644" y2="177.89999961853027" fill="rgb(0, 0, 0)" stroke="rgb(60, 60, 60)" stroke-width="1px" opacity="0.25"></line><line x1="226.95435626166207" y1="0" x2="226.95435626166207" y2="177.89999961853027" fill="rgb(0, 0, 0)" stroke="rgb(60, 60, 60)" stroke-width="1px" opacity="0.25"></line><line x1="247.5865704672677" y1="0" x2="247.5865704672677" y2="177.89999961853027" fill="rgb(0, 0, 0)" stroke="rgb(60, 60, 60)" stroke-width="1px" opacity="0.25"></line><line x1="268.21878467287337" y1="0" x2="268.21878467287337" y2="177.89999961853027" fill="rgb(0, 0, 0)" stroke="rgb(60, 60, 60)" stroke-width="1px" opacity="0.25"></line><line x1="288.850998878479" y1="0" x2="288.850998878479" y2="177.89999961853027" fill="rgb(0, 0, 0)" stroke="rgb(60, 60, 60)" stroke-width="1px" opacity="0.25"></line></g><g><line x1="0" y1="177.89999961853027" x2="288.850998878479" y2="177.89999961853027" fill="rgb(0, 0, 0)" stroke="rgb(60, 60, 60)" stroke-width="1px" opacity="0.25"></line><line x1="0" y1="165.19285678863525" x2="288.850998878479" y2="165.19285678863525" fill="rgb(0, 0, 0)" stroke="rgb(60, 60, 60)" stroke-width="1px" opacity="0.25"></line><line x1="0" y1="152.48571395874023" x2="288.850998878479" y2="152.48571395874023" fill="rgb(0, 0, 0)" stroke="rgb(60, 60, 60)" stroke-width="1px" opacity="0.25"></line><line x1="0" y1="139.77857112884521" x2="288.850998878479" y2="139.77857112884521" fill="rgb(0, 0, 0)" stroke="rgb(60, 60, 60)" stroke-width="1px" opacity="0.25"></line><line x1="0" y1="127.0714282989502" x2="288.850998878479" y2="127.0714282989502" fill="rgb(0, 0, 0)" stroke="rgb(60, 60, 60)" stroke-width="1px" opacity="0.25"></line><line x1="0" y1="114.36428546905516" x2="288.850998878479" y2="114.36428546905516" fill="rgb(0, 0, 0)" stroke="rgb(60, 60, 60)" stroke-width="1px" opacity="0.25"></line><line x1="0" y1="101.65714263916016" x2="288.850998878479" y2="101.65714263916016" fill="rgb(0, 0, 0)" stroke="rgb(60, 60, 60)" stroke-width="1px" opacity="0.25"></line><line x1="0" y1="88.94999980926514" x2="288.850998878479" y2="88.94999980926514" fill="rgb(0, 0, 0)" stroke="rgb(60, 60, 60)" stroke-width="1px" opacity="0.25"></line><line x1="0" y1="76.24285697937012" x2="288.850998878479" y2="76.24285697937012" fill="rgb(0, 0, 0)" stroke="rgb(60, 60, 60)" stroke-width="1px" opacity="0.25"></line><line x1="0" y1="63.53571414947509" x2="288.850998878479" y2="63.53571414947509" fill="rgb(0, 0, 0)" stroke="rgb(60, 60, 60)" stroke-width="1px" opacity="0.25"></line><line x1="0" y1="50.82857131958008" x2="288.850998878479" y2="50.82857131958008" fill="rgb(0, 0, 0)" stroke="rgb(60, 60, 60)" stroke-width="1px" opacity="0.25"></line><line x1="0" y1="38.12142848968506" x2="288.850998878479" y2="38.12142848968506" fill="rgb(0, 0, 0)" stroke="rgb(60, 60, 60)" stroke-width="1px" opacity="0.25"></line><line x1="0" y1="25.414285659790046" x2="288.850998878479" y2="25.414285659790046" fill="rgb(0, 0, 0)" stroke="rgb(60, 60, 60)" stroke-width="1px" opacity="0.25"></line><line x1="0" y1="12.707142829895014" x2="288.850998878479" y2="12.707142829895014" fill="rgb(0, 0, 0)" stroke="rgb(60, 60, 60)" stroke-width="1px" opacity="0.25"></line><line x1="0" y1="0" x2="288.850998878479" y2="0" fill="rgb(0, 0, 0)" stroke="rgb(60, 60, 60)" stroke-width="1px" opacity="0.25"></line></g></g></g><g><g><line x1="0" y1="292.26428508758545" x2="288.850998878479" y2="292.26428508758545" fill="rgb(0, 0, 0)" stroke="rgb(153, 153, 153)" stroke-width="1.5px"></line></g></g><g><g><line x1="-82.52885682242257" y1="0" x2="-82.52885682242257" y2="177.89999961853027" fill="rgb(0, 0, 0)" stroke="rgb(153, 153, 153)" stroke-width="1.5px"></line></g></g><g><g><g><g><g><path style="fill: none;" stroke="rgb(255, 112, 67)" stroke-width="2px" d="M13.188111320223125,72.43071413040161L14.384779744148254,25.970223158597943L15.094527912821087,24.606038923745526L15.53193085397993,39.43068287596734L16.567668007101332,39.74465590785723L17.425968118054527,39.06358908699419L18.742303384372164,29.786159058496118L19.93484536545617,19.73603479269256L20.37224830661501,20.66122779959955L21.581296059063504,17.102275741493486L22.01869900022234,20.300061329832435L22.45610194138118,26.637620553459612L23.087447696072715,32.333348392610795L23.735299222128734,37.23015135052106L24.17270216328757,43.18060286429369L26.157521169866836,37.470250740685564L27.37894825083869,31.391074653504145L27.816351191997526,30.751055094909358L29.90845771244594,22.329141182887792L30.841033794539317,17.18402360822603L31.86026517629623,13.505275557005321L32.54112824508122,12.654620955375258L33.560359626838135,11.570648830900122L33.99776256799698,13.38068616094215L34.435165509155816,16.730270147577293L34.87256845031466,20.829468147593733L35.58644306182862,23.962351598873582L36.22191525936127,26.81225629762094L37.22051442691258,27.88308680077023L38.111826080594746,28.369591917869773L38.54922902175358,30.319163017177875L38.986631962912426,33.0429712095252L39.71701234579086,35.04354808228152L40.368990314688,36.872682120969955L40.80639325584684,39.318186875233565L41.540900081566406,41.04205237736852L42.32079777853829,42.16796019913436L43.07593681846346,43.01051881273139L43.5133397596223,44.678047116889104L44.396398527622225,45.41008847640807L44.83380146878106,46.93282523985058L45.271204409939905,48.87838750067078L46.50501081943512,48.74827624621313L47.52836864403316,48.02088411206479L48.254622584070475,47.777235360804056L48.69202552522932,48.58892921266642L49.129428466388156,49.99307176868024L49.566831407547,51.71447059995052L50.02486656291144,53.53848155401942L50.46226950407028,55.44323993571422L50.89967244522912,57.364663405263926L51.7744783275468,58.230032340944696L52.7524452808925,58.23284764092304L53.189848222051346,58.9703241336119L53.82119397674288,59.687490309048826L54.45253973143441,60.382659176166065L54.88994267259326,61.47445517969947L55.54604708433151,62.3164869309372L57.60926850489208,60.064603448529105L58.25712003094809,58.9539737204199L58.71515518631254,58.90350917307504L59.15255812747138,59.51027060007525L59.78803032500403,60.10387659344361L60.22543326616287,61.06362947388461L61.10849203416279,61.37996355918592L61.54589497532164,62.149845390784336L61.983297916480474,63.17454486991924L63.534840424742015,62.317394384949594L63.97224336590086,62.36273336522874L64.41377274990082,62.926321818687164L65.0574978331157,63.4349634245066L65.49490077427456,64.25887344094569L66.1468787431717,64.8956629232297L66.82361536911556,65.37512650060975L67.45083468096597,65.83891615353097L68.75066417591913,65.19852804714198L69.53468831573214,64.74464012364348L69.97209125689098,64.95181897391518L70.40949419804981,65.54350002313598L70.84689713920866,66.35419436423321L71.60203617913382,66.80186286978375L72.23338193382536,67.21861573235277L72.67078487498421,67.90107793219101L73.10818781614303,68.73266599947985L73.54559075730188,69.64380213190319L73.98299369846072,70.59308090434853L74.42039663961955,71.5559848063766L75.27457030773162,71.93475922635436L76.99942341532027,70.7624853507198L77.43682635647909,70.45273687358127L78.55096592358181,69.73583097342575L79.32261073487145,69.2447266529107L79.7600136760303,69.33312423172505L80.38723298788071,69.5123267758483L82.17398273808615,68.23990874316489L82.91261600664684,67.47010590330478L83.9029622885159,66.68235547798926L84.34036522967475,66.5854981863845L84.77776817083358,66.89557606701469L86.64292033502034,65.68378279333294L87.30727763244083,65.01770638866806L88.09542821509498,65.12125843820529L89.02800429718835,64.90891879536466L89.46540723834718,64.78151500966027L90.09262655019761,65.20827838639833L90.719845862048,65.74897517089887L91.15724880320685,67.15603653674562L91.83811187199184,68.63055043271328L92.27551481315069,69.51525877029385L92.71291775430952,70.99657557465449L93.4928154512814,71.46348758461946L93.93021839244025,71.7436347905984L94.5656905899729,71.90664304915066L95.02372574533736,72.23826284491483L95.46112868649618,72.43723472237333L95.89853162765503,74.46268927333271L96.92601589509418,75.91685690957632L97.36341883625303,76.7893574913225L98.20521317584173,78.85296293088751L98.64261611700059,80.7010674992966L99.08001905815942,82.52661495734597L99.53805421352386,83.89641430473858L100.18590573957988,85.17574795272054L100.9534241080284,85.5367257756127L101.58476986271994,85.51441756368001L102.02217280387879,85.50103263652036L102.45957574503763,85.83355217736685L103.11155371393475,86.0127281300852L103.85018698249544,86.44045618289337L104.30822213785989,87.23079456459878L104.74562507901872,87.70499759362202L105.8515117604392,87.16609903752261L106.28891470159803,87.20363841697028L107.01516864163536,87.13467433905936L107.45257158279419,87.09329589231282L108.3727683363642,86.83973404866721L108.99998764821461,86.87566793032295L109.75100024529867,86.90230832435151L110.18840318645749,86.91829256076868L110.62580612761633,87.47683260356933L111.47997979572841,87.2985908510188L112.11545199326106,86.94766307296088L112.5734871486255,87.69268602879806L113.93108684335435,87.72798961554369L114.3684897845132,88.10497021566326L115.07411151034492,88.0007759644875L116.10159577778408,87.2114068108833L116.73706797531673,86.49381034801765L117.40555171557835,85.80402954866524L118.05340324163437,85.13093039159628L119.37386495079313,83.63933978134884L120.0340958053725,83.00869615769305L121.65166139909199,81.84246557688118L122.08906434025084,81.14272722839407L123.21558323587689,80.1129429146317L123.65298617703574,79.7339672320423L124.09038911819458,79.50658182248866L124.52779205935343,79.63954138428427L125.17977002825056,81.4576533297924L125.80698934010097,82.57393633392192L126.2443922812598,83.26912197322432L126.68179522241864,83.68623335680577L127.1191981635775,84.18047515765775L127.55660110473633,84.47702023816895L128.33649880170822,84.78201871477464L128.77390174286705,84.96501780073801L129.4671441401754,84.7596825919985L130.1480072089604,85.70896463183092L130.58541015011923,86.27853385573036L131.02281309127807,86.62535545510512L131.48084824664252,87.06217543450326L131.91825118780136,87.32426742214213L132.71878109897887,87.29853944774197L133.1561840401377,87.5779093074544L133.59358698129654,87.97934606391469L134.03098992245538,89.28252339697221L134.48902507781983,90.46597209766863L135.35557807445525,90.64742758892562L136.13547577142717,90.33442281102835L136.5935109267916,90.1212041074653L137.23310956716537,90.13559226455635L137.69114472252983,90.35770422765427L138.3266169200625,90.24699643480987L138.7640198612213,90.18057175910327L139.40361850159508,89.89165416211652L139.86165365695953,89.69289552292427L141.27702355146408,88.36899792517427L141.71442649262292,88.08803290057965L142.17246164798738,89.47988699230524L142.6098645891462,90.31499944734065L143.23708390099662,91.41584809496166L143.67448684215546,92.48806747029094L144.30583259684698,92.89250418982053L144.94130479437965,93.1249983356435L145.37870773553848,94.92659127691843L145.81611067669732,96.37859344068545L146.44745643138884,97.69200082756217L147.89171142578127,97.23983463438302L148.32911436694008,96.96853491847551L149.11726494959422,98.13238111060505L149.55466789075305,99.11023976348085L149.99207083191192,100.12900091375255L150.64817524365017,101.08080810105785L151.085578184809,101.65189241344102L151.52298112596785,102.22835784150375L152.59585626465932,102.02528759739099L153.03325920581818,101.90344545092336L153.89981220245363,101.60161314326956L154.33721514361247,101.42051375867727L154.97681378398624,101.06279133635911L155.41421672514508,101.2700359556197L155.85161966630392,101.39438272717605L156.28902260746273,101.712965760813L157.16795493262154,101.3856619819046L157.8611973299299,100.87414505424198L158.29860027108873,100.56723489764441L158.73600321224757,101.10994140658458L159.19403836761202,101.41014947512403L159.94092452185495,101.70717785865186L160.3783274630138,101.88539488876856L161.12521361725672,101.61111082194174L161.75655937194827,101.23306131300234L162.38790512663977,101.02655962360375L162.8253080677986,101.30928873168611L163.26271100895744,101.71782110220356L163.7001139501163,101.96294052451402L164.69458667482647,101.42382336275617L165.1319896159853,101.36466380819412L165.56939255714417,101.700214474459L166.006795498303,101.92696071104257L166.44419843946184,102.06300845299273L167.0755441941534,102.72917032183268L167.51294713531223,103.12886744313666L167.95035007647107,103.72448416399122L168.3877530176299,104.08185419650393L168.8251559587887,104.89096956975173L169.2666853427887,105.60516581347359L169.70408828394756,106.41998566546323L170.1414912251064,106.90887757665699L170.59952638047082,107.17679688654856L171.5857462194988,107.17489332146508L172.02314916065762,107.41773390894262L172.46055210181643,107.58884634242933L172.9020814858164,108.81990870628202L173.33948442697525,109.55854612459363L173.7975195823397,110.30670310582786L174.2349225234985,111.48244214164265L174.67232546465738,112.43186828965914L175.1303606200218,113.26074690010206L175.56776356118067,114.01729698800088L176.20736220155445,115.30990312100793L176.64476514271328,116.35993767337511L177.08216808387212,118.44365585476842L177.51957102503096,119.69388676360434L177.9569739661898,121.29286151924397L178.60482549224582,121.99302345099473L179.28156211818967,122.11831396569268L179.91290787288122,121.95459336884345L180.35031081404006,122.12067175322659L180.7877137551989,122.45412586866482L181.2251166963577,122.65419833792775L181.86471533673148,122.52518678374726L182.30211827789034,122.44777985123895L182.73952121904918,122.40133569173396L183.5029131446566,122.39379721199603L183.94031608581543,122.38927412415326L184.56753539766584,122.46788784695683L185.0049383388247,122.81494279002658L185.44234127998354,123.02317575586846L185.87974422114235,123.14811553537358L186.3377793765068,123.22307940307662L186.77518231766564,123.26805772369848L187.41890740088056,123.48819576894985L187.8563103420394,123.62027859610065L188.2937132831982,123.69952829239112L188.73111622435704,123.74707811016543L189.58528989246912,123.28765030359925L190.28678517545973,123.21531255843254L190.72418811661856,123.593787983984L191.16159105777743,123.84628132031507L191.59899399893627,124.24684011367646L192.0570291543007,124.48717538969329L192.49443209545953,124.87535152600653L192.9359614794595,125.10317714275934L193.37336442061834,125.48893530437377L193.81076736177715,125.74579828234262L194.248170302936,127.10455848335867L194.68557324409485,127.91981460396826L195.14360839945928,128.40896827633404L195.58101134061815,128.70246047975348L196.01841428177698,129.1123628866135L196.45581722293582,129.35830433072957L196.89322016409463,129.74476410286715L197.619474104132,129.86481648878066L198.05687704529083,129.93684792032877L198.49427998644964,129.98006677925764L198.93168292760848,130.24489300028296L199.38971808297293,131.6185912772031L199.8477532383374,132.41739828444275L200.28515617949623,133.32872456942053L200.72255912065503,133.8755203404072L201.1599620618139,134.2035978029992L201.59736500297274,134.6698350880822L202.03476794413157,134.94957745913203L202.4721708852904,135.1174228817619L202.90957382644925,136.00089059901086L203.53679313829966,136.2971602666396L203.9741960794585,137.00353967428995L204.41572546345847,137.4222833759328L204.85312840461734,137.922588510569L205.29053134577615,138.22277159135075L205.72793428693498,138.40288143981977L206.16533722809382,138.5109473489012L206.62337238345827,139.09424049344062L207.0607753246171,139.75935104048185L207.49817826577595,140.15841736870658L207.9355812069348,140.39785716564143L208.37298414809362,140.56693688062703L208.83101930345808,141.02418315769052L209.28905445882253,141.27311896501615L209.72645739998137,141.8036947343084L210.1638603411402,142.36093510155177L210.60126328229904,142.93417422756573L211.03866622345785,143.27811770317413L211.47606916461672,143.48448378853917L211.93410431998117,143.5828876029335L212.37150726114,144.328114828802L212.80891020229885,144.7752511643231L213.24631314345768,145.04353296563573L213.68371608461652,145.20450204642336L214.31506183930807,145.0621885892279L214.75659122330802,145.21061147763123L215.62727066278458,144.765967538565L216.06880004678453,144.4940972321779L216.5062029879434,144.3309750483456L217.13342229979378,143.99929077532562L217.57082524095264,143.80536415446105L218.02886039631707,143.6635923451176L218.4662633374759,143.5785292595115L218.90366627863474,143.55290724497257L219.34519566263472,144.20847102255118L219.80323081799918,144.57639345227363L220.240633759158,144.79714691010713L220.69866891452244,144.9092670909299L221.1567040698869,144.9511272405111L221.59410701104574,145.0016552891723L222.03563639504569,145.02689205333388L222.47303933620452,145.04203411183084L222.91044227736336,145.07653130584143L223.3478452185222,145.0972296222478L223.78524815968106,145.35870752574212L224.2226511008399,145.51559426783874L224.66005404199873,145.60972631309667L225.09745698315754,145.66620554025147L225.5348599243164,145.70009307654433L225.99289507968084,145.9542404389529L226.4302980208397,146.40153162283832L226.87182740483968,146.90371729589015L227.31335678883963,147.19994863468608L227.75075972999846,147.37768743796366L228.1881626711573,147.4843307199302L228.62556561231614,147.79737560276067L229.08360076768057,147.95978669563425L229.54163592304502,148.03182139244595L229.97903886420386,148.4765883893071L230.71767213276453,148.37239831050948L231.1550750739234,148.54369522595152L231.81117948566165,148.37708256768892L232.2485824268205,148.27711497273137L232.68598536797933,148.21713441575682L233.14402052334378,148.1811460815721L233.5814234645026,148.15955308106126L234.01882640566143,148.40074013735264L234.45622934682027,148.5454523711275L234.89363228797913,148.63227971139244L235.33103522913797,148.68437611555137L235.7684381702968,149.22900361418993L236.51532432453973,149.49986837468853L236.95272726569857,149.6623872309877L237.3901302068574,149.7598985447672L237.82753314801627,149.8184053330349L238.26906253201622,149.8738412998728L239.03658090046474,149.500472758254L239.47398384162358,149.28153557623017L239.91138678278242,149.15017326701582L240.34878972394128,149.07135588148722L240.7861926651001,149.02406545017007L241.22359560625893,148.99569119137976L241.66099854741776,149.00407859501803L242.09840148857663,149.009111037201L242.53580442973546,149.01213050251076L242.9732073708943,149.01394218169662L243.41061031205314,149.01502918920815L243.84801325321197,149.37148371969948L244.28541619437084,149.58535643799425L244.72281913552965,149.71368006897114L245.16022207668848,149.79067424755726L245.59762501784732,149.8622827136214L246.0350279590062,149.93066363008455L246.47243090016502,149.97169217996242L246.93046605552948,149.97089347306448L247.36786899668832,149.9704142489257L247.80527193784712,149.97012671444244L248.2468013218471,149.96487412871733L248.68420426300594,149.96172257728227L249.12160720416477,149.95983164642126L249.55901014532364,150.19250805062524L249.99641308648245,150.33211389314764L250.43381602764129,150.42096134160843L250.87121896880012,150.47426981068492L251.32925412416458,150.48083905530612L251.78728927952903,150.45936476525415L252.22469222068787,150.44648019122297L252.6827273760523,150.43874944680428L253.47087795870644,150.00206891951908L253.90828089986528,149.74006060314795L254.64691416842598,149.2118092143232L255.47220273665022,148.41706856969236L255.90960567780905,147.96564001973854L256.3470086189679,147.72019484867872L256.7844115601267,147.57292774604284L257.22181450128556,147.48456748446128L257.6592174424444,147.43155132751235L258.11725259780883,147.37432967443056L258.55465553896767,147.33999668258147L258.99618492296764,147.33972490343706L259.4335878641265,147.33956183595043L259.8916230194909,147.31405203654603L260.32902596064974,147.29874615690338L260.7664289018086,147.2895626291178L261.2038318429674,147.52294741811443L261.6412347841263,147.66805835654753L262.07863772528515,148.2888264696279L262.516040666444,148.6663712804235L262.9534436076028,148.89289816690086L263.3908465487616,149.2626252615079L263.8282494899205,149.4844615182721L264.26565243107933,149.6429752312431L264.70305537223817,149.73808345902566L265.140458313397,149.7951483956952L265.57786125455584,149.8344713006443L266.0152641957147,149.88348088043844L266.4526671368735,149.91288662831496L266.89007007803235,149.95594203595329L267.3274730191912,150.00719111736097L267.76487596035,150.0379405662056L268.20227890150886,150.06147417845978L268.64380828550884,150.07051040286487L269.0853376695088,150.07084819456054L269.52274061066765,150.07105086957796L269.9601435518265,150.0711724745884L270.4016729358264,150.06616149464728L270.8597080911909,150.03774294777014L271.3177432465553,149.99527598281918L271.7757784019198,149.9443838449362L272.21318134307865,149.93926052111883L272.6712164984431,149.91077456791598L273.1086194396019,149.8987630610294L273.54602238076075,149.89664009984483L273.9834253219196,149.89536632313408L274.4208282630784,149.89460205710765L274.85823120423726,149.89414349749177L275.2956341453961,149.91928419854693L275.73303708655493,149.95978057809248L276.17044002771377,149.98407840581982L276.6078429688726,150.36970737937054L277.04524591003144,150.60108476350095L277.4826488511903,151.00930200150705L277.9200517923491,151.25423234431068L278.3615811763491,151.39610660704548L278.8196163317135,151.48123116468636L279.25701927287236,151.53230589927088L279.69442221403125,151.56295074002162L280.1318251551901,151.58133764447206L280.5692280963489,151.5923697871423L281.00663103750776,151.59898907274444L281.4646661928722,151.5775486851933" fill="none"></path></g></g></g></g><g opacity="0.2"><g><g><g><path style="fill: none;" stroke="rgb(255, 112, 67)" stroke-width="2px" d="M13.188111320223125,72.43071413040161L14.384779744148254,-1.9060714244842463L15.094527912821087,23.296422058287142L15.53193085397993,56.864464163780205L16.567668007101332,40.15457909829274L17.425968118054527,38.12142848968506L18.742303384372164,16.519285678863525L19.93484536545617,5.08285713195801L20.37224830661501,22.025707775297622L21.581296059063504,11.8176467097146L22.01869900022234,25.067736032411634L22.45610194138118,36.10947067147208L23.087447696072715,40.858342611711116L23.735299222128734,44.56576244062307L24.17270216328757,52.09928560256957L26.157521169866836,28.908749938011166L27.37894825083869,22.274883026315376L27.816351191997526,29.79118825791375L29.90845771244594,9.69755330867337L30.841033794539317,9.466817530359542L31.86026517629623,7.987355231460235L32.54112824508122,11.378667044082249L33.560359626838135,9.944712045326014L33.99776256799698,16.09572071438742L34.435165509155816,21.754622320120685L34.87256845031466,26.978247666411338L35.58644306182862,28.66166875960335L36.22191525936127,31.08710897046695L37.22051442691258,29.48933156910788L38.111826080594746,29.09934932463512L38.54922902175358,33.2435190196411L38.986631962912426,37.1286829560995L39.71701234579086,38.04441315258737L40.368990314688,39.616383047985444L40.80639325584684,42.986443901529135L41.540900081566406,43.62785058611916L42.32079777853829,43.85682191436354L43.07593681846346,44.27435672530555L43.5133397596223,47.17933956383785L44.396398527622225,46.50815051324025L44.83380146878106,49.216930381960985L45.271204409939905,51.796730889560415L46.50501081943512,48.55310936462047L47.52836864403316,46.92979591115728L48.254622584070475,47.411762233976326L48.69202552522932,49.806469990333426L49.129428466388156,52.09928560256957L49.566831407547,54.296568846759335L50.02486656291144,56.274497985061316L50.46226950407028,58.300377508217935L50.89967244522912,60.24679860956531L51.7744783275468,59.52808574445954L52.7524452808925,58.23707059089065L53.189848222051346,60.07653887264315L53.82119397674288,60.76323957220303L54.45253973143441,61.4254124768413L54.88994267259326,63.112149184999L55.54604708433151,63.57953455779353L57.60926850489208,56.686778224917354L58.25712003094809,57.28802912825632L58.71515518631254,58.82781235205767L59.15255812747138,60.420412740575564L59.78803032500403,60.994285583496094L60.22543326616287,62.503258794546134L61.10849203416279,61.8544646871378L61.54589497532164,63.304668138182016L61.983297916480474,64.7115940886215L63.534840424742015,61.03166865749518L63.97224336590086,62.43074183564749L64.41377274990082,63.771704498874904L65.0574978331157,64.19792583323579L65.49490077427456,65.49473846560431L66.1468787431717,65.85084714665572L66.82361536911556,66.09432186667983L67.45083468096597,66.53460063291276L68.75066417591913,64.23794588755845L69.53468831573214,64.06380823839574L69.97209125689098,65.26258724932268L70.40949419804981,66.43102159696718L70.84689713920866,67.57023587587899L71.60203617913382,67.4733656281096L72.23338193382536,67.8437450262063L72.67078487498421,68.9247712319484L73.10818781614303,69.98004810041311L73.54559075730188,71.01050633053819L73.98299369846072,72.01699906301656L74.42039663961955,73.00034065941873L75.27457030773162,72.502920856321L76.99942341532027,69.00407453726801L77.43682635647909,69.9881141578735L78.55096592358181,68.66047212319245L79.32261073487145,68.50807017213809L79.7600136760303,69.46572059994651L80.38723298788071,69.78113059203315L82.17398273808615,66.33128169413978L82.91261600664684,66.31540164351462L83.9029622885159,65.50072984001599L84.34036522967475,66.44021224897733L84.77776817083358,67.3606928879599L86.64292033502034,63.86609288281033L87.30727763244083,64.0185917816707L88.09542821509498,65.27658651251113L89.02800429718835,64.59040933110373L89.46540723834718,64.59040933110373L90.09262655019761,65.84842345150535L90.719845862048,66.5600203476497L91.15724880320685,69.26662858551572L91.83811187199184,70.84232127666473L92.27551481315069,70.84232127666473L92.71291775430952,73.2185507811955L93.4928154512814,72.16385559956689L93.93021839244025,72.16385559956689L94.5656905899729,72.15115543697902L95.02372574533736,72.73569253856112L95.46112868649618,72.73569253856112L95.89853162765503,77.50087109977176L96.92601589509418,78.09810836394172L97.36341883625303,78.09810836394172L98.20521317584173,81.94837109023501L98.64261611700059,83.47322435191018L99.08001905815942,85.26493614442006L99.53805421352386,85.95111332582746L100.18590573957988,87.09474842469355L100.9534241080284,86.07819250995091L101.58476986271994,85.48095524578095L102.02217280387879,85.48095524578095L102.45957574503763,86.33233148863654L103.11155371393475,86.2814920591627L103.85018698249544,87.08204826210567L104.30822213785989,88.41630213715689L104.74562507901872,88.41630213715689L105.8515117604392,86.3577512033735L106.28891470159803,87.25994748614175L107.01516864163536,87.03122822219302L107.45257158279419,87.03122822219302L108.3727683363642,86.45939128319877L108.99998764821461,86.9295687528065L109.75100024529867,86.94226891539438L110.18840318645749,86.94226891539438L110.62580612761633,88.31464266777039L111.47997979572841,87.03122822219302L112.11545199326106,86.42127140587398L112.5734871486255,88.81022046255386L113.93108684335435,87.78094499566214L114.3684897845132,88.67044111584255L115.07411151034492,87.84448458772384L116.10159577778408,86.02735308047704L116.73706797531673,85.41741565371922L117.40555171557835,84.7693583496366L118.05340324163437,84.12128165599279L119.37386495079313,81.4019538659777L120.0340958053725,82.06273072220938L121.65166139909199,80.0931197056634L122.08906434025084,80.0931197056634L123.21558323587689,78.56826644398826L123.65298617703574,79.16550370815823L124.09038911819458,79.16550370815823L124.52779205935343,79.83898072697775L125.17977002825056,84.1848212480545L125.80698934010097,84.2483608401162L126.2443922812598,84.31190043217794L126.68179522241864,84.31190043217794L127.1191981635775,84.92183785893576L127.55660110473633,84.92183785893576L128.33649880170822,85.23951642968314L128.77390174286705,85.23951642968314L129.4671441401754,84.45167977888923L130.1480072089604,87.13288769157953L130.58541015011923,87.13288769157953L131.02281309127807,87.14558785416739L131.48084824664252,87.71740540360042L131.91825118780136,87.71740540360042L132.71878109897887,87.25994748614175L133.1561840401377,87.99696409702301L133.59358698129654,88.58150119860511L134.03098992245538,91.23728939655848L134.48902507781983,92.24114514871326L135.35557807445525,90.9196108258111L136.13547577142717,89.86491564418247L136.5935109267916,89.80137605212076L137.23310956716537,90.15717450019292L137.69114472252983,90.69087217230116L138.3266169200625,90.08093474554333L138.7640198612213,90.08093474554333L139.40361850159508,89.45827776663647L139.86165365695953,89.39475756413593L141.27702355146408,86.3831515285492L141.71442649262292,87.66658536368777L142.17246164798738,91.5676681298937L142.6098645891462,91.5676681298937L143.23708390099662,93.06712106639316L143.67448684215546,94.09639653328486L144.30583259684698,93.4991592691149L144.94130479437965,93.47373955437797L145.37870773553848,97.62898068883078L145.81611067669732,98.55659668633598L146.44745643138884,99.66211190787725L147.89171142578127,96.56158534461427L148.32911436694008,96.56158534461427L149.11726494959422,99.87815039879932L149.55466789075305,100.57702774279461L149.99207083191192,101.65714263916016L150.64817524365017,102.50851888201578L151.085578184809,102.50851888201578L151.52298112596785,103.09305598359788L152.59585626465932,101.72068223122189L153.03325920581818,101.72068223122189L153.89981220245363,101.14886468178884L154.33721514361247,101.14886468178884L154.97681378398624,100.52620770288196L155.41421672514508,101.58090288451058L155.85161966630392,101.58090288451058L156.28902260746273,102.1908403112684L157.16795493262154,100.89470631354199L157.8611973299299,100.10686966274807L158.29860027108873,100.10686966274807L158.73600321224757,101.92400116999487L159.19403836761202,101.86046157793317L159.94092452185495,102.15272043394361L160.3783274630138,102.15272043394361L161.12521361725672,101.19968472170147L161.75655937194827,100.66598704959324L162.38790512663977,100.71680708950589L162.8253080677986,101.73338239380972L163.26271100895744,102.33061965797971L163.7001139501163,102.33061965797971L164.69458667482647,100.61514762011937L165.1319896159853,101.27592447635107L165.56939255714417,102.20354047385626L166.006795498303,102.26708006591798L166.44419843946184,102.26708006591798L167.0755441941534,103.72841312509263L167.51294713531223,103.72841312509263L167.95035007647107,104.61790924527304L168.3877530176299,104.61790924527304L168.8251559587887,106.10464262962341L169.2666853427887,106.67646017905645L169.70408828394756,107.64221544344765L170.1414912251064,107.64221544344765L170.59952638047082,107.57867585138592L171.5857462194988,107.17203797383989L172.02314916065762,107.78199479015893L172.46055210181643,107.84551499265945L172.9020814858164,110.66650225206104L173.33948442697525,110.66650225206104L173.7975195823397,111.42893857767922L174.2349225234985,113.24605069536481L174.67232546465738,113.85600751168386L175.1303606200218,114.50406481576647L175.56776356118067,115.15212211984908L176.20736220155445,117.2488123205185L176.64476514271328,117.9349895019259L177.08216808387212,121.56923312685832L177.51957102503096,121.56923312685832L177.9569739661898,123.69132365270345L178.60482549224582,123.0432663486208L179.28156211818967,122.30624973773956L179.91290787288122,121.7090124735696L180.35031081404006,122.36978932980129L180.7877137551989,122.95430704182218L181.2251166963577,122.95430704182218L181.86471533673148,122.33166945247649L182.30211827789034,122.33166945247649L182.73952121904918,122.33166945247649L183.5029131446566,122.38248949238914L183.94031608581543,122.38248949238914L184.56753539766584,122.58580843116215L185.0049383388247,123.33552520463127L185.44234127998354,123.33552520463127L185.87974422114235,123.33552520463127L186.3377793765068,123.33552520463127L186.77518231766564,123.33552520463127L187.41890740088056,123.81840283682686L187.8563103420394,123.81840283682686L188.2937132831982,123.81840283682686L188.73111622435704,123.81840283682686L189.58528989246912,122.59850859375001L190.28678517545973,123.10680594068253L190.72418811661856,124.16150112231115L191.16159105777743,124.22502132481168L191.59899399893627,124.84767830371855L192.0570291543007,124.84767830371855L192.49443209545953,125.45761573047639L192.9359614794595,125.44491556788854L193.37336442061834,126.0675725467954L193.81076736177715,126.13109274929595L194.248170302936,129.14269878488267L194.68557324409485,129.14269878488267L195.14360839945928,129.14269878488267L195.58101134061815,129.14269878488267L196.01841428177698,129.72721649690357L196.45581722293582,129.72721649690357L196.89322016409463,130.32445376107353L197.619474104132,130.04489506765094L198.05687704529083,130.04489506765094L198.49427998644964,130.04489506765094L198.93168292760848,130.6421323318209L199.38971808297293,133.67913869258336L199.8477532383374,133.61560879530225L200.28515617949623,134.6957139968872L200.72255912065503,134.6957139968872L201.1599620618139,134.6957139968872L201.59736500297274,135.36919101570675L202.03476794413157,135.36919101570675L202.4721708852904,135.36919101570675L202.90957382644925,137.32609217488425L203.53679313829966,136.74156476808275L203.9741960794585,138.0631087857655L204.41572546345847,138.05039892839704L204.85312840461734,138.67304621252333L205.29053134577615,138.67304621252333L205.72793428693498,138.67304621252333L206.16533722809382,138.67304621252333L206.62337238345827,139.96918021024976L207.0607753246171,140.75701686104367L207.49817826577595,140.75701686104367L207.9355812069348,140.75701686104367L208.37298414809362,140.82055645310538L208.83101930345808,141.7100525732858L209.28905445882253,141.64652267600468L209.72645739998137,142.5995583882468L210.1638603411402,143.19679565241677L210.60126328229904,143.79403291658673L211.03866622345785,143.79403291658673L211.47606916461672,143.79403291658673L211.93410431998117,143.730493324525L212.37150726114,145.44595566760472L212.80891020229885,145.44595566760472L213.24631314345768,145.44595566760472L213.68371608461652,145.44595566760472L214.31506183930807,144.84871840343476L214.75659122330802,145.43324581023626L215.62727066278458,144.09900162996564L216.06880004678453,144.08629177259718L216.5062029879434,144.08629177259718L217.13342229979378,143.50176436579568L217.57082524095264,143.51447422316414L218.02886039631707,143.45093463110243L218.4662633374759,143.45093463110243L218.90366627863474,143.51447422316414L219.34519566263472,145.19181668891906L219.80323081799918,145.12827709685735L220.240633759158,145.12827709685735L220.69866891452244,145.0774473621641L221.1567040698869,145.01391746488298L221.59410701104574,145.0774473621641L222.03563639504569,145.06474719957623L222.47303933620452,145.06474719957623L222.91044227736336,145.12827709685735L223.3478452185222,145.12827709685735L223.78524815968106,145.75092438098363L224.2226511008399,145.75092438098363L224.66005404199873,145.75092438098363L225.09745698315754,145.75092438098363L225.5348599243164,145.75092438098363L225.99289507968084,146.33546148256573L226.4302980208397,147.0724683986664L226.87182740483968,147.6569958054679L227.31335678883963,147.64429564288002L227.75075972999846,147.64429564288002L228.1881626711573,147.64429564288002L228.62556561231614,148.2669429270063L229.08360076768057,148.2034033349446L229.54163592304502,148.13987343766348L229.97903886420386,149.14373888459886L230.71767213276453,148.21611319231306L231.1550750739234,148.80064059911456L231.81117948566165,148.12716358029502L232.2485824268205,148.12716358029502L232.68598536797933,148.12716358029502L233.14402052334378,148.12716358029502L233.5814234645026,148.12716358029502L234.01882640566143,148.76252072178977L234.45622934682027,148.76252072178977L234.89363228797913,148.76252072178977L235.33103522913797,148.76252072178977L235.7684381702968,150.04594486214773L236.51532432453973,149.90616551543644L236.95272726569857,149.90616551543644L237.3901302068574,149.90616551543644L237.82753314801627,149.90616551543644L238.26906253201622,149.9569952501297L239.03658090046474,148.94041994582585L239.47398384162358,148.95312980319432L239.91138678278242,148.95312980319432L240.34878972394128,148.95312980319432L240.7861926651001,148.95312980319432L241.22359560625893,148.95312980319432L241.66099854741776,149.01665970047543L242.09840148857663,149.01665970047543L242.53580442973546,149.01665970047543L242.9732073708943,149.01665970047543L243.41061031205314,149.01665970047543L243.84801325321197,149.90616551543644L244.28541619437084,149.90616551543644L244.72281913552965,149.90616551543644L245.16022207668848,149.90616551543644L245.59762501784732,149.96969541271756L246.0350279590062,150.03323500477927L246.47243090016502,150.03323500477927L246.93046605552948,149.96969541271756L247.36786899668832,149.96969541271756L247.80527193784712,149.96969541271756L248.2468013218471,149.9569952501297L248.68420426300594,149.9569952501297L249.12160720416477,149.9569952501297L249.55901014532364,150.5415226569312L249.99641308648245,150.5415226569312L250.43381602764129,150.55423251429966L250.87121896880012,150.55423251429966L251.32925412416458,150.49069292223794L251.78728927952903,150.42715333017622L252.22469222068787,150.42715333017622L252.6827273760523,150.42715333017622L253.47087795870644,149.34704812859127L253.90828089986528,149.34704812859127L254.64691416842598,148.41943213108607L255.47220273665022,147.22495760274614L255.90960567780905,147.28849719480786L256.3470086189679,147.35202709208897L256.7844115601267,147.35202709208897L257.22181450128556,147.35202709208897L257.6592174424444,147.35202709208897L258.11725259780883,147.28849719480786L258.55465553896767,147.28849719480786L258.99618492296764,147.3393172347205L259.4335878641265,147.3393172347205L259.8916230194909,147.2757873374394L260.32902596064974,147.2757873374394L260.7664289018086,147.2757873374394L261.2038318429674,147.87302460160936L261.6412347841263,147.88572476419722L262.07863772528515,149.21997863924844L262.516040666444,149.2326884966169L262.9534436076028,149.2326884966169L263.3908465487616,149.8172159034184L263.8282494899205,149.8172159034184L264.26565243107933,149.88074580069951L264.70305537223817,149.88074580069951L265.140458313397,149.88074580069951L265.57786125455584,149.89345565806798L266.0152641957147,149.9569952501297L266.4526671368735,149.9569952501297L266.89007007803235,150.0205251474108L267.3274730191912,150.08406473947252L267.76487596035,150.08406473947252L268.20227890150886,150.096774596841L268.64380828550884,150.08406473947252L269.0853376695088,150.07135488210406L269.52274061066765,150.07135488210406L269.9601435518265,150.07135488210406L270.4016729358264,150.0586450247356L270.8597080911909,149.99511512745448L271.3177432465553,149.93157553539277L271.7757784019198,149.86804563811165L272.21318134307865,149.93157553539277L272.6712164984431,149.86804563811165L273.1086194396019,149.88074580069951L273.54602238076075,149.89345565806798L273.9834253219196,149.89345565806798L274.4208282630784,149.89345565806798L274.85823120423726,149.89345565806798L275.2956341453961,149.9569952501297L275.73303708655493,150.0205251474108L276.17044002771377,150.0205251474108L276.6078429688726,150.9481508396966L277.04524591003144,150.9481508396966L277.4826488511903,151.62162785851615L277.9200517923491,151.62162785851615L278.3615811763491,151.60891800114769L278.8196163317135,151.60891800114769L279.25701927287236,151.60891800114769L279.69442221403125,151.60891800114769L280.1318251551901,151.60891800114769L280.5692280963489,151.60891800114769L281.00663103750776,151.60891800114769L281.4646661928722,151.54538810386657" fill="none"></path></g></g></g></g></g></g><g transform="translate(41, 177)" clip-path="url(#clip_1)"><clipPath id="clip_1"><rect width="288" height="22"></rect></clipPath><g><g><line x1="0" y1="0" x2="0" y2="5" style="visibility: inherit;" fill="rgb(0, 0, 0)" stroke="rgb(204, 204, 204)" stroke-width="1px"></line><line x1="20.632214205605642" y1="0" x2="20.632214205605642" y2="5" style="visibility: inherit;" fill="rgb(0, 0, 0)" stroke="rgb(204, 204, 204)" stroke-width="1px"></line><line x1="41.264428411211284" y1="0" x2="41.264428411211284" y2="5" style="visibility: inherit;" fill="rgb(0, 0, 0)" stroke="rgb(204, 204, 204)" stroke-width="1px"></line><line x1="61.896642616816926" y1="0" x2="61.896642616816926" y2="5" style="visibility: inherit;" fill="rgb(0, 0, 0)" stroke="rgb(204, 204, 204)" stroke-width="1px"></line><line x1="82.52885682242257" y1="0" x2="82.52885682242257" y2="5" style="visibility: inherit;" fill="rgb(0, 0, 0)" stroke="rgb(204, 204, 204)" stroke-width="1px"></line><line x1="103.16107102802822" y1="0" x2="103.16107102802822" y2="5" style="visibility: inherit;" fill="rgb(0, 0, 0)" stroke="rgb(204, 204, 204)" stroke-width="1px"></line><line x1="123.79328523363385" y1="0" x2="123.79328523363385" y2="5" style="visibility: inherit;" fill="rgb(0, 0, 0)" stroke="rgb(204, 204, 204)" stroke-width="1px"></line><line x1="144.4254994392395" y1="0" x2="144.4254994392395" y2="5" style="visibility: inherit;" fill="rgb(0, 0, 0)" stroke="rgb(204, 204, 204)" stroke-width="1px"></line><line x1="165.05771364484514" y1="0" x2="165.05771364484514" y2="5" style="visibility: inherit;" fill="rgb(0, 0, 0)" stroke="rgb(204, 204, 204)" stroke-width="1px"></line><line x1="185.6899278504508" y1="0" x2="185.6899278504508" y2="5" style="visibility: inherit;" fill="rgb(0, 0, 0)" stroke="rgb(204, 204, 204)" stroke-width="1px"></line><line x1="206.32214205605644" y1="0" x2="206.32214205605644" y2="5" style="visibility: inherit;" fill="rgb(0, 0, 0)" stroke="rgb(204, 204, 204)" stroke-width="1px"></line><line x1="226.95435626166207" y1="0" x2="226.95435626166207" y2="5" style="visibility: inherit;" fill="rgb(0, 0, 0)" stroke="rgb(204, 204, 204)" stroke-width="1px"></line><line x1="247.5865704672677" y1="0" x2="247.5865704672677" y2="5" style="visibility: inherit;" fill="rgb(0, 0, 0)" stroke="rgb(204, 204, 204)" stroke-width="1px"></line><line x1="268.21878467287337" y1="0" x2="268.21878467287337" y2="5" style="visibility: inherit;" fill="rgb(0, 0, 0)" stroke="rgb(204, 204, 204)" stroke-width="1px"></line><line x1="288.850998878479" y1="0" x2="288.850998878479" y2="5" style="visibility: inherit;" fill="rgb(0, 0, 0)" stroke="rgb(204, 204, 204)" stroke-width="1px"></line></g><g transform="translate(0, 8)"><text style="text-anchor: middle; visibility: hidden; font-family: Roboto, sans-serif; font-size: 12px; font-weight: 200;" x="0" y="0" dx="0em" dy="0.95em" fill="rgb(50, 49, 63)" stroke="none" stroke-width="1px">20k</text><text style="text-anchor: middle; visibility: inherit; font-family: Roboto, sans-serif; font-size: 12px; font-weight: 200;" x="20.632214205605642" y="0" dx="0em" dy="0.95em" fill="rgb(50, 49, 63)" stroke="none" stroke-width="1px">25k</text><text style="text-anchor: middle; visibility: hidden; font-family: Roboto, sans-serif; font-size: 12px; font-weight: 200;" x="41.264428411211284" y="0" dx="0em" dy="0.95em" fill="rgb(50, 49, 63)" stroke="none" stroke-width="1px">30k</text><text style="text-anchor: middle; visibility: inherit; font-family: Roboto, sans-serif; font-size: 12px; font-weight: 200;" x="61.896642616816926" y="0" dx="0em" dy="0.95em" fill="rgb(50, 49, 63)" stroke="none" stroke-width="1px">35k</text><text style="text-anchor: middle; visibility: hidden; font-family: Roboto, sans-serif; font-size: 12px; font-weight: 200;" x="82.52885682242257" y="0" dx="0em" dy="0.95em" fill="rgb(50, 49, 63)" stroke="none" stroke-width="1px">40k</text><text style="text-anchor: middle; visibility: inherit; font-family: Roboto, sans-serif; font-size: 12px; font-weight: 200;" x="103.16107102802822" y="0" dx="0em" dy="0.95em" fill="rgb(50, 49, 63)" stroke="none" stroke-width="1px">45k</text><text style="text-anchor: middle; visibility: hidden; font-family: Roboto, sans-serif; font-size: 12px; font-weight: 200;" x="123.79328523363385" y="0" dx="0em" dy="0.95em" fill="rgb(50, 49, 63)" stroke="none" stroke-width="1px">50k</text><text style="text-anchor: middle; visibility: inherit; font-family: Roboto, sans-serif; font-size: 12px; font-weight: 200;" x="144.4254994392395" y="0" dx="0em" dy="0.95em" fill="rgb(50, 49, 63)" stroke="none" stroke-width="1px">55k</text><text style="text-anchor: middle; visibility: hidden; font-family: Roboto, sans-serif; font-size: 12px; font-weight: 200;" x="165.05771364484514" y="0" dx="0em" dy="0.95em" fill="rgb(50, 49, 63)" stroke="none" stroke-width="1px">60k</text><text style="text-anchor: middle; visibility: inherit; font-family: Roboto, sans-serif; font-size: 12px; font-weight: 200;" x="185.6899278504508" y="0" dx="0em" dy="0.95em" fill="rgb(50, 49, 63)" stroke="none" stroke-width="1px">65k</text><text style="text-anchor: middle; visibility: hidden; font-family: Roboto, sans-serif; font-size: 12px; font-weight: 200;" x="206.32214205605644" y="0" dx="0em" dy="0.95em" fill="rgb(50, 49, 63)" stroke="none" stroke-width="1px">70k</text><text style="text-anchor: middle; visibility: inherit; font-family: Roboto, sans-serif; font-size: 12px; font-weight: 200;" x="226.95435626166207" y="0" dx="0em" dy="0.95em" fill="rgb(50, 49, 63)" stroke="none" stroke-width="1px">75k</text><text style="text-anchor: middle; visibility: hidden; font-family: Roboto, sans-serif; font-size: 12px; font-weight: 200;" x="247.5865704672677" y="0" dx="0em" dy="0.95em" fill="rgb(50, 49, 63)" stroke="none" stroke-width="1px">80k</text><text style="text-anchor: middle; visibility: inherit; font-family: Roboto, sans-serif; font-size: 12px; font-weight: 200;" x="268.21878467287337" y="0" dx="0em" dy="0.95em" fill="rgb(50, 49, 63)" stroke="none" stroke-width="1px">85k</text><text style="text-anchor: middle; visibility: hidden; font-family: Roboto, sans-serif; font-size: 12px; font-weight: 200;" x="288.850998878479" y="0" dx="0em" dy="0.95em" fill="rgb(50, 49, 63)" stroke="none" stroke-width="1px">90k</text></g><line x1="0" y1="0" x2="288.850998878479" y2="0" fill="rgb(0, 0, 0)" stroke="rgb(204, 204, 204)" stroke-width="1px"></line></g></g></g></g></svg>