<svg viewBox="0 0 330 200" xmlns="http://www.w3.org/2000/svg"><g><g><g><g><g><line x1="61.91500186920166" y1="177.89999961853027" x2="56.91500186920166" y2="177.89999961853027" style="visibility: inherit;" fill="rgb(0, 0, 0)" stroke="rgb(204, 204, 204)" stroke-width="1px"></line><line x1="61.91500186920166" y1="158.13333299424917" x2="56.91500186920166" y2="158.13333299424917" style="visibility: inherit;" fill="rgb(0, 0, 0)" stroke="rgb(204, 204, 204)" stroke-width="1px"></line><line x1="61.91500186920166" y1="138.36666636996802" x2="56.91500186920166" y2="138.36666636996802" style="visibility: inherit;" fill="rgb(0, 0, 0)" stroke="rgb(204, 204, 204)" stroke-width="1px"></line><line x1="61.91500186920166" y1="118.59999974568686" x2="56.91500186920166" y2="118.59999974568686" style="visibility: inherit;" fill="rgb(0, 0, 0)" stroke="rgb(204, 204, 204)" stroke-width="1px"></line><line x1="61.91500186920166" y1="98.83333312140572" x2="56.91500186920166" y2="98.83333312140572" style="visibility: inherit;" fill="rgb(0, 0, 0)" stroke="rgb(204, 204, 204)" stroke-width="1px"></line><line x1="61.91500186920166" y1="79.06666649712459" x2="56.91500186920166" y2="79.06666649712459" style="visibility: inherit;" fill="rgb(0, 0, 0)" stroke="rgb(204, 204, 204)" stroke-width="1px"></line><line x1="61.91500186920166" y1="59.29999987284343" x2="56.91500186920166" y2="59.29999987284343" style="visibility: inherit;" fill="rgb(0, 0, 0)" stroke="rgb(204, 204, 204)" stroke-width="1px"></line><line x1="61.91500186920166" y1="39.5333332485623" x2="56.91500186920166" y2="39.5333332485623" style="visibility: inherit;" fill="rgb(0, 0, 0)" stroke="rgb(204, 204, 204)" stroke-width="1px"></line><line x1="61.91500186920166" y1="19.76666662428115" x2="56.91500186920166" y2="19.76666662428115" style="visibility: inherit;" fill="rgb(0, 0, 0)" stroke="rgb(204, 204, 204)" stroke-width="1px"></line><line x1="61.91500186920166" y1="0" x2="56.91500186920166" y2="0" style="visibility: inherit;" fill="rgb(0, 0, 0)" stroke="rgb(204, 204, 204)" stroke-width="1px"></line></g><g transform="translate(51.91500186920166, 0)"><text style="text-anchor: end; visibility: hidden; font-family: Roboto, sans-serif; font-size: 12px; font-weight: 200;" x="0" y="177.89999961853027" dx="0em" dy="0.3em" fill="rgb(50, 49, 63)" stroke="none" stroke-width="1px">-0.3</text><text style="text-anchor: end; visibility: inherit; font-family: Roboto, sans-serif; font-size: 12px; font-weight: 200;" x="0" y="158.13333299424917" dx="0em" dy="0.3em" fill="rgb(50, 49, 63)" stroke="none" stroke-width="1px">-0.28</text><text style="text-anchor: end; visibility: hidden; font-family: Roboto, sans-serif; font-size: 12px; font-weight: 200;" x="0" y="138.36666636996802" dx="0em" dy="0.3em" fill="rgb(50, 49, 63)" stroke="none" stroke-width="1px">-0.26</text><text style="text-anchor: end; visibility: inherit; font-family: Roboto, sans-serif; font-size: 12px; font-weight: 200;" x="0" y="118.59999974568686" dx="0em" dy="0.3em" fill="rgb(50, 49, 63)" stroke="none" stroke-width="1px">-0.24</text><text style="text-anchor: end; visibility: hidden; font-family: Roboto, sans-serif; font-size: 12px; font-weight: 200;" x="0" y="98.83333312140572" dx="0em" dy="0.3em" fill="rgb(50, 49, 63)" stroke="none" stroke-width="1px">-0.22</text><text style="text-anchor: end; visibility: inherit; font-family: Roboto, sans-serif; font-size: 12px; font-weight: 200;" x="0" y="79.06666649712459" dx="0em" dy="0.3em" fill="rgb(50, 49, 63)" stroke="none" stroke-width="1px">-0.2</text><text style="text-anchor: end; visibility: hidden; font-family: Roboto, sans-serif; font-size: 12px; font-weight: 200;" x="0" y="59.29999987284343" dx="0em" dy="0.3em" fill="rgb(50, 49, 63)" stroke="none" stroke-width="1px">-0.18</text><text style="text-anchor: end; visibility: inherit; font-family: Roboto, sans-serif; font-size: 12px; font-weight: 200;" x="0" y="39.5333332485623" dx="0em" dy="0.3em" fill="rgb(50, 49, 63)" stroke="none" stroke-width="1px">-0.16</text><text style="text-anchor: end; visibility: hidden; font-family: Roboto, sans-serif; font-size: 12px; font-weight: 200;" x="0" y="19.76666662428115" dx="0em" dy="0.3em" fill="rgb(50, 49, 63)" stroke="none" stroke-width="1px">-0.14</text><text style="text-anchor: end; visibility: hidden; font-family: Roboto, sans-serif; font-size: 12px; font-weight: 200;" x="0" y="0" dx="0em" dy="0.3em" fill="rgb(50, 49, 63)" stroke="none" stroke-width="1px">-0.12</text></g><line x1="61.91500186920166" y1="0" x2="61.91500186920166" y2="177.89999961853027" fill="rgb(0, 0, 0)" stroke="rgb(204, 204, 204)" stroke-width="1px"></line></g></g><g transform="translate(61, 0)" clip-path="url(#clip_0)"><clipPath id="clip_0"><rect width="268" height="177"></rect></clipPath><g><g><g><line x1="0" y1="0" x2="0" y2="177.89999961853027" fill="rgb(0, 0, 0)" stroke="rgb(60, 60, 60)" stroke-width="1px" opacity="0.25"></line><line x1="19.148928437914165" y1="0" x2="19.148928437914165" y2="177.89999961853027" fill="rgb(0, 0, 0)" stroke="rgb(60, 60, 60)" stroke-width="1px" opacity="0.25"></line><line x1="38.29785687582833" y1="0" x2="38.29785687582833" y2="177.89999961853027" fill="rgb(0, 0, 0)" stroke="rgb(60, 60, 60)" stroke-width="1px" opacity="0.25"></line><line x1="57.446785313742495" y1="0" x2="57.446785313742495" y2="177.89999961853027" fill="rgb(0, 0, 0)" stroke="rgb(60, 60, 60)" stroke-width="1px" opacity="0.25"></line><line x1="76.59571375165666" y1="0" x2="76.59571375165666" y2="177.89999961853027" fill="rgb(0, 0, 0)" stroke="rgb(60, 60, 60)" stroke-width="1px" opacity="0.25"></line><line x1="95.74464218957084" y1="0" x2="95.74464218957084" y2="177.89999961853027" fill="rgb(0, 0, 0)" stroke="rgb(60, 60, 60)" stroke-width="1px" opacity="0.25"></line><line x1="114.89357062748499" y1="0" x2="114.89357062748499" y2="177.89999961853027" fill="rgb(0, 0, 0)" stroke="rgb(60, 60, 60)" stroke-width="1px" opacity="0.25"></line><line x1="134.04249906539917" y1="0" x2="134.04249906539917" y2="177.89999961853027" fill="rgb(0, 0, 0)" stroke="rgb(60, 60, 60)" stroke-width="1px" opacity="0.25"></line><line x1="153.19142750331332" y1="0" x2="153.19142750331332" y2="177.89999961853027" fill="rgb(0, 0, 0)" stroke="rgb(60, 60, 60)" stroke-width="1px" opacity="0.25"></line><line x1="172.34035594122753" y1="0" x2="172.34035594122753" y2="177.89999961853027" fill="rgb(0, 0, 0)" stroke="rgb(60, 60, 60)" stroke-width="1px" opacity="0.25"></line><line x1="191.48928437914168" y1="0" x2="191.48928437914168" y2="177.89999961853027" fill="rgb(0, 0, 0)" stroke="rgb(60, 60, 60)" stroke-width="1px" opacity="0.25"></line><line x1="210.63821281705583" y1="0" x2="210.63821281705583" y2="177.89999961853027" fill="rgb(0, 0, 0)" stroke="rgb(60, 60, 60)" stroke-width="1px" opacity="0.25"></line><line x1="229.78714125496998" y1="0" x2="229.78714125496998" y2="177.89999961853027" fill="rgb(0, 0, 0)" stroke="rgb(60, 60, 60)" stroke-width="1px" opacity="0.25"></line><line x1="248.9360696928842" y1="0" x2="248.9360696928842" y2="177.89999961853027" fill="rgb(0, 0, 0)" stroke="rgb(60, 60, 60)" stroke-width="1px" opacity="0.25"></line><line x1="268.08499813079834" y1="0" x2="268.08499813079834" y2="177.89999961853027" fill="rgb(0, 0, 0)" stroke="rgb(60, 60, 60)" stroke-width="1px" opacity="0.25"></line></g><g><line x1="0" y1="177.89999961853027" x2="268.08499813079834" y2="177.89999961853027" fill="rgb(0, 0, 0)" stroke="rgb(60, 60, 60)" stroke-width="1px" opacity="0.25"></line><line x1="0" y1="158.13333299424917" x2="268.08499813079834" y2="158.13333299424917" fill="rgb(0, 0, 0)" stroke="rgb(60, 60, 60)" stroke-width="1px" opacity="0.25"></line><line x1="0" y1="138.36666636996802" x2="268.08499813079834" y2="138.36666636996802" fill="rgb(0, 0, 0)" stroke="rgb(60, 60, 60)" stroke-width="1px" opacity="0.25"></line><line x1="0" y1="118.59999974568686" x2="268.08499813079834" y2="118.59999974568686" fill="rgb(0, 0, 0)" stroke="rgb(60, 60, 60)" stroke-width="1px" opacity="0.25"></line><line x1="0" y1="98.83333312140572" x2="268.08499813079834" y2="98.83333312140572" fill="rgb(0, 0, 0)" stroke="rgb(60, 60, 60)" stroke-width="1px" opacity="0.25"></line><line x1="0" y1="79.06666649712459" x2="268.08499813079834" y2="79.06666649712459" fill="rgb(0, 0, 0)" stroke="rgb(60, 60, 60)" stroke-width="1px" opacity="0.25"></line><line x1="0" y1="59.29999987284343" x2="268.08499813079834" y2="59.29999987284343" fill="rgb(0, 0, 0)" stroke="rgb(60, 60, 60)" stroke-width="1px" opacity="0.25"></line><line x1="0" y1="39.5333332485623" x2="268.08499813079834" y2="39.5333332485623" fill="rgb(0, 0, 0)" stroke="rgb(60, 60, 60)" stroke-width="1px" opacity="0.25"></line><line x1="0" y1="19.76666662428115" x2="268.08499813079834" y2="19.76666662428115" fill="rgb(0, 0, 0)" stroke="rgb(60, 60, 60)" stroke-width="1px" opacity="0.25"></line><line x1="0" y1="0" x2="268.08499813079834" y2="0" fill="rgb(0, 0, 0)" stroke="rgb(60, 60, 60)" stroke-width="1px" opacity="0.25"></line></g></g></g><g><g><line x1="0" y1="-118.59999974568686" x2="268.08499813079834" y2="-118.59999974568686" fill="rgb(0, 0, 0)" stroke="rgb(153, 153, 153)" stroke-width="1.5px"></line></g></g><g><g><line x1="-76.59571375165666" y1="0" x2="-76.59571375165666" y2="177.89999961853027" fill="rgb(0, 0, 0)" stroke="rgb(153, 153, 153)" stroke-width="1.5px"></line></g></g><g><g><g><g><g><path style="fill: none;" stroke="rgb(255, 112, 67)" stroke-width="2px" d="M12.239995057514735,128.96217695438173L13.350632906913756,117.17606381247303L14.009356045178004,136.36934128662324L14.415313328061785,162.18824411037366L15.376589535645076,134.72747126658024L16.173184958662304,134.4916381288141L17.394886593001228,123.38980001836379L18.501694656712665,80.09715463908907L18.907651939596448,77.15525120698722L20.02977914605822,91.97294171785866L20.435736428941997,121.22236061706859L20.84169371182578,114.78930180858976L21.427650922025954,116.85572749834567L22.02892727497646,113.22092633303292L22.434884557860236,86.68021462869626L24.27701147358758,112.69007094550807L25.4106280371121,113.38023884410971L25.81658531999588,150.35450028543104L27.758286663600376,125.2179787126896L28.623818228994097,86.40623369429011L29.569775293827057,87.850855462112L30.201689932278224,88.27317328228695L31.147646997111185,100.24211952164109L31.553604279994964,105.39026427275003L31.959561562878747,103.11669306243114L32.36551884576253,98.3709334904203L33.02807176971436,104.14575695428847L33.617858765602115,101.72195647279288L34.54466690199716,94.90182532829364L35.37190061051505,90.66074903287408L35.77785789339883,75.37891931800321L36.183815176282614,57.796991106580116L36.86168724298477,68.43420284795795L37.46679338162286,66.2977500144197L37.87275066450664,40.78381421857248L38.55445251689639,67.11496701350008L39.27828201184954,83.75135404909007L39.97913279267719,92.04465837940808L40.385090075560974,115.98169290039382L41.204664212703705,104.96573488364241L41.61062149558749,77.98973358285242L42.01657877847127,106.82781827614349L43.16168469905853,103.32576331982949L44.11147154957907,101.51499422085315L44.78551383059365,113.20313477128491L45.191471113477434,125.58334755457689L45.59742839636122,128.20976989363015L46.00338567924499,133.95803637901076L46.42849189056669,140.9073725468204L46.834449173450466,114.7295582193226L47.24040645633425,81.69963645295455L48.052321022101815,95.6045586180922L48.95998023005894,81.49405416272242L49.36593751294272,75.82053333323285L49.95189472314289,90.44839716889199L50.53785193334307,86.96321250861305L50.94380921622685,94.55907515417918L51.55274514055252,96.5073780339363L53.46763798434394,83.28749683508607L54.06891433729444,93.27219423273542L54.494020548616135,102.08272193647107L54.89997783149992,72.06410221548514L55.48976482738767,85.1835862207519L55.89572211027145,108.30175818864262L56.71529624741418,114.83682117975563L57.12125353029796,108.654155556853L57.527210813181746,125.79937575407459L58.96721023171288,121.60715443583209L59.373167514596666,100.39461252544572L59.78295458316803,126.00563250021375L60.38040115043095,125.59357669146138L60.78635843331473,125.80931105796863L61.391464571952824,125.59824438982929L62.01954942471641,71.97538635379651L62.601676849228994,98.27476746456605L63.808059340817586,100.8022639026185L64.53571862145833,103.01534016727022L64.9416759043421,104.25606502569659L65.3476331872259,127.07101217826197L65.75359047010967,142.81381637396902L66.45444125093732,130.84018136401363L67.0403984611375,125.93442780500372L67.44635574402129,78.79575467802218L67.85231302690505,132.32741190413742L68.25827030978884,76.4714159016156L68.66422759267262,103.01864536695889L69.0701848755564,126.81689456089676L69.86295051288604,106.25863545376741L71.46380093029568,78.17573337346822L71.86975821317945,95.53470966634754L72.90380034882682,86.41053107312821L73.6199702724048,95.68277825372151L74.02592755528859,100.7750469056125L74.60805497980118,100.8972926207062L76.26635218252454,98.42422850120401L76.95188382060188,92.72179208999741L77.87103238562175,105.02001808865143L78.27698966850554,72.65534620233808L78.68294695138931,34.90434159919186L80.41401008217676,44.861014114299515L81.03060557787758,33.20606308173298L81.76209464420592,53.47442334604966L82.62762620959963,-2.8432332229925543L83.0335834924834,32.49523321652156L83.61571091699601,49.71307827190645L84.19783834150859,60.3027916359463L84.60379562439238,40.89821708388407L85.23571026284354,37.400301588537495L85.64166754572733,30.690683499543333L86.0476248286111,17.50310934077514L86.77145432356426,45.02501319053381L87.17741160644805,56.08359421896005L87.7671986023358,72.67986228763674L88.19230481365749,84.68820724201719L88.59826209654126,83.21440790845553L89.00421937942505,99.90350196585065L89.95783601563316,92.50401232268872L90.36379329851695,84.8692218124569L91.14506957878385,87.1547751714508L91.55102686166764,85.31154684395776L91.95698414455141,93.60887041594452L92.38209035587312,89.88006399101158L92.98336670882361,95.54100343975882L93.69570684671402,90.84050738972043L94.2816640569142,87.11468611377447L94.68762133979797,101.46079431645681L95.09357862268175,99.57021107088985L95.69868476131984,109.30868380216617L96.38421639939716,109.94725828322865L96.80932261071887,105.00727413401252L97.21527989360264,111.07909183071199L98.24166245787485,110.71049149303249L98.64761974075861,106.73393094878097L99.32166202177321,108.6488770120899L99.72761930465698,122.07853966476253L100.58166151298795,115.41241025697781L101.16378893750054,119.29426103254428L101.86080993264062,119.82567893462888L102.2667672155244,145.62468026125356L102.67272449840817,124.19003835558618L103.46549013573782,112.53543792463196L104.05527713162557,110.81210482511634L104.48038334294728,83.74060800743166L105.74038283416202,91.69197745578195L106.14634011704581,80.0642940186176L106.80123346962247,97.3072648030674L107.7548501058306,99.10538475576276L108.34463710171836,102.62720594764677L108.96506238310677,55.770611981448816L109.56633873605729,77.05305737798132L110.79187015608379,92.10079889879565L111.40463586609704,87.96872107715842L112.90591185562951,80.16758264072215L113.3118691385133,86.24834252502743L114.3574006312234,91.0704063488657L114.76335791410719,61.602303732825796L115.16931519699096,35.92769749906391L115.57527247987476,53.519375370232545L116.18037861851283,73.45454434169692L116.76250604302543,67.69195920655892L117.16846332590922,88.5197140304008L117.57442060879298,88.63305787502965L117.98037789167677,89.12227126118849L118.38633517456054,88.0677198527966L119.1101646695137,92.39859464937086L119.51612195239748,113.38623912290942L120.1595259479114,112.55747084660112L120.79144058636257,105.57981457763434L121.19739786924636,79.92760650369878L121.60335515213013,111.70294448964053L122.02846136345183,110.72675851449925L122.4344186463356,103.11885140658711L123.17739706972668,115.77231688815515L123.58335435261046,92.71253121746113L123.98931163549423,91.51660115246774L124.39526891837801,72.34637810221516L124.82037512969971,71.20896282611095L125.6246301240921,84.05272709856536L126.34845961904526,76.8593794760465L126.77356583036696,85.34462345874822L127.3671826119423,82.80273245654377L127.79228882326399,82.33371712606271L128.38207581915174,93.10875076085446L128.7880331020355,100.81443524237191L129.38164988361086,98.45031261534837L129.80675609493255,100.71691350962018L131.12037258577345,97.32345663400193L131.52632986865726,96.06607452396011L131.95143607997895,103.32017025468608L132.35739336286272,113.80291349934805L132.9395207873753,110.71134272167944L133.3454780702591,101.80032601847738L133.93143528045928,104.44106900629579L134.52122227634703,99.85856976205048L134.9271795592308,109.02218324757149L135.33313684211458,72.75127275651701L135.91909405231476,77.16295180565064L137.25951904296875,82.78441133689749L137.66547632585252,87.3664231218738L138.39696539218085,89.52797500746657L138.80292267506462,98.14039318010629L139.20887995794843,105.63774643953074L139.8178158822741,108.69403032609547L140.22377316515787,131.70379938977786L140.62973044804164,130.11304902146927L141.62547472681317,94.93474747126946L142.03143200969697,118.4958109032012L142.83568700408938,115.58078746779351L143.24164428697316,105.15198331576497L143.83526106854848,104.1216190636621L144.24121835143225,87.06554402246523L144.64717563431603,101.39299448083611L145.0531329171998,85.55995488041357L145.86887726865496,93.44811145458873L146.51228126416888,125.36817541915364L146.91823854705265,169.32620684470865L147.32419582993643,103.64810094651254L147.74930204125812,94.8710938687671L148.4424932507106,104.79873576560782L148.8484505335944,88.36682827808423L149.54164174304688,103.7990950020358L150.1275989532471,103.37227097872177L150.71355616344724,106.68818060709036L151.119513446331,113.84115811682035L151.5254707292148,94.85824469651922L151.9314280120986,97.3186992148009L152.85440636280603,97.39072839993813L153.2603636456898,120.15542311255705L153.6663209285736,96.25458712593198L154.0722782114574,85.44059984796067L154.47823549434116,101.15713886159911L155.06419270454137,103.19599465160461L155.47014998742515,113.46308084340056L155.8761072703089,135.5207614144587L156.28206455319267,122.94066171864574L156.68802183607644,98.01985550062223L157.09780890464782,65.47581871552669L157.50376618753162,87.34045452385448L157.9097234704154,62.25309533416923L158.3348296817371,88.87768912476187L159.2501484610694,97.77488695644239L159.65610574395316,99.74123388659312L160.06206302683694,121.53795658074057L160.4718500954083,121.53051225723111L160.87780737829206,146.6725342161338L161.30291358961378,96.9192853168329L161.70887087249756,86.31915218883817L162.11482815538136,88.4976922590469L162.53993436670302,63.73345830220043L162.94589164958683,84.39931481781892L163.53950843116218,81.37431160557108L163.94546571404595,90.80170547234887L164.35142299692973,97.71254373181993L164.75738027981347,117.84708387186969L165.16333756269725,118.73924344093543L165.76461391564777,116.03800568657722L166.39269876841135,97.26901981233641L166.97865597861156,98.5064760634708L167.38461326149533,70.98802309166626L167.79057054437908,46.620347395036546L168.19652782726286,69.84695443899341L168.7901446088382,78.32413359020255L169.196101891722,76.56821922954839L169.60205917460578,97.06910830360704L170.3105695268086,100.46800528584488L170.7165268096924,102.99554805269932L171.29865423420497,94.33721969448396L171.70461151708875,111.83468707195648L172.11056879997253,134.3642639906815L172.5165260828563,169.42135528069178L172.94163229417802,135.50259849089716L173.3475895770618,147.054424325249L173.94503614432472,131.1398206738204L174.3509934272085,87.51571150003929L174.75695071009227,60.466637927987755L175.16290799297605,91.76624869212624L175.95567363030568,87.94322832033156L176.60673719719478,85.45097437369775L177.01269448007855,69.45342945015406L177.41865176296236,114.9955989530343L177.82460904584613,57.45421603238139L178.24971525716782,75.00456281463731L178.6556725400516,47.242104292441276L179.06545960862297,61.57703088143072L179.47141689150675,73.88248957831073L179.87737417439052,89.68889903577312L180.2833314572743,62.17453246202577L180.6892887401581,103.78987390141664L181.11439495147977,103.21693796840282L181.52035223436357,101.57202997366018L181.92630951724735,101.75382716543096L182.33226680013112,100.39492213845057L182.7382240830149,124.17094807258873L183.41226636402948,106.30597028289402L183.81822364691325,118.46905922739256L184.22418092979703,131.2024933128745L184.6301382126808,127.14828273139541L185.05524442400252,120.28717050504889L185.4803506353242,121.299979606142L185.886307918208,119.55390446182086L186.29226520109177,104.04719428680721L186.69822248397557,70.44309961703841L187.10417976685935,109.58250657691606L187.5101370497431,109.76021124764927L187.91609433262687,106.18985371153242L188.32205161551065,121.00208273739287L188.90417904002325,125.70066564306427L189.31013632290703,110.9692513932944L189.7199233914784,114.50150589503214L190.1258806743622,93.58390464984758L190.53183795724598,103.64017779897922L190.93779524012973,103.92294313424199L191.3437525230135,66.67971604440866L191.76885873433523,53.44085639600967L192.174816017219,93.72240809581731L192.58077330010278,123.67980984837638L192.98673058298658,81.71877684129535L193.39268786587033,97.06626505207541L193.81779407719205,92.46517334086998L194.24290028851374,94.76455251874683L194.6488575713975,27.070619528403924L195.0548148542813,35.10764494123622L195.46077213716507,42.988287436736364L195.86672942004884,51.55142993595563L196.27268670293265,80.05991963222853L196.69779291425434,78.24621126894363L197.1037501971381,107.42153316947973L197.5097074800219,112.52603902927272L197.91566476290566,85.16129240053789L198.32162204578944,82.9515221881751L198.90757925598962,93.51401353205527L199.317366324561,98.68347326085248L200.12545110464097,80.96288278265587L200.53523817321232,87.9742987155364L200.94119545609612,63.28660536497629L201.52332288060867,77.10784702029164L201.92928016349248,70.64134302351938L202.35438637481417,54.78922393571264L202.76034365769794,37.417925941642544L203.16630094058172,21.424717245929017L203.5760880091531,93.44804494251589L204.0011942204748,70.54760497646132L204.40715150335856,115.90408272525238L204.83225771468028,101.32135071445316L205.25736392600197,125.03534834331705L205.66332120888575,145.31752138370564L206.0731082774571,109.22543397967323L206.47906556034087,101.27025386592874L206.88502284322465,106.81004187823501L207.29098012610842,74.62737908265325L207.69693740899223,95.41273548216495L208.102894691876,88.03656052073526L208.50885197475978,92.67516991963019L208.91480925764355,77.53579495259366L209.32076654052736,17.862468410939375L209.74587275184902,29.741915301662402L210.15183003473282,74.67262573703728L210.5616171033042,99.96882127176977L210.97140417187555,89.86036440910209L211.37736145475932,79.36314629491196L211.7833187376431,86.12701831890503L212.18927602052688,113.42296397300444L212.61438223184857,74.33183405570189L213.03948844317028,80.19167489151643L213.44544572605406,109.41084289882072L214.13097736413135,96.15099340454391L214.53693464701516,79.62210199129025L215.14587057134085,77.2171760493452L215.55182785422463,69.57145861890879L215.9577851371084,81.92896964500297L216.3828913484301,98.73748807577316L216.78884863131387,75.238307936868L217.19480591419764,83.80761807011598L217.60076319708142,104.6167808665884L218.00672047996522,85.28881728911009L218.412677762849,88.60904712316983L218.81863504573278,97.37443591674142L219.51182625518527,94.02742730962306L219.91778353806905,103.73632640618257L220.32374082095282,72.1308417043322L220.72969810383663,47.48560576020967L221.13948517240797,74.66323932827811L221.85182531029838,87.79589473179583L222.25778259318216,117.45493546287872L222.66373987606593,98.30451209196359L223.06969715894974,116.90503591862041L223.47565444183348,107.48160748124556L223.88161172471726,47.49688275647195L224.28756900760104,61.03133431606366L224.69352629048484,84.34478513775264L225.09948357336862,109.79446455251238L225.5054408562524,90.66045898255724L225.91139813913617,128.95887864132482L226.31735542201994,121.86435409046041L226.72331270490375,129.82428823028098L227.12926998778752,74.54127139799068L227.5352272706713,90.54465589961474L227.94118455355508,119.2333801644489L228.34714183643888,135.13829903182267L228.75309911932266,111.31736814041919L229.17820533064435,98.57539550796304L229.58416261352812,102.60592065433694L229.9901198964119,100.18821576963687L230.39990696498327,104.73970388338698L230.80586424786702,123.80752990226274L231.2118215307508,115.04970219442214L231.6177788136346,71.37438807168901L232.02373609651838,86.0231876711359L232.42969337940215,79.38514033762017L232.83565066228593,41.24535501522629L233.26075687360762,66.63908393215397L233.68586308492934,70.30477736228555L234.0918203678131,58.49815230109918L234.5169265791348,68.84754129050647L235.24841564546313,84.13226945395778L235.6543729283469,89.89967703986535L236.33990456642425,84.1628961497279L237.1058617039408,91.60620974788134L237.51181898682458,95.19272982527758L237.91777626970836,54.93768796225471L238.32373355259213,46.3235287250685L238.7296908354759,19.029352425948108L239.1356481183597,64.28709284378048L239.56075432968137,59.67877285432713L239.96671161256518,81.57670099468758L240.37649868113655,61.79988689566165L240.78245596402033,13.908310569011569L241.20756217534202,5.510566374389498L241.6135194582258,23.750628558702836L242.01947674110957,16.24666647119872L242.42543402399335,10.779582387600968L242.83139130687715,7.644616892831017L243.23734858976093,-27.142633088304258L243.6433058726447,11.304413552405787L244.04926315552848,35.94626095875431L244.45522043841225,56.93730058586621L244.86117772129606,56.355025146000564L245.26713500417983,23.00151293982328L245.6730922870636,28.54764631273796L246.07904956994736,28.231441218583804L246.48500685283116,45.8002730694012L246.89096413571494,40.57477460158949L247.2969214185987,77.6150586979925L247.7028787014825,51.42829088742692L248.10883598436627,29.963670551557488L248.51479326725007,38.10503496927362L248.92075055013385,-2.1836203864439394L249.33053761870522,33.67268552404196L249.74032468727657,53.67369112917149L250.14628197016035,39.98863896338876L250.55223925304412,23.841113961319785L250.9620263216155,18.268850901714618L251.3871325329372,37.915231242591666L251.81223874425888,18.514357372750407L252.2373449555806,14.45129250403496L252.64330223846437,26.591904171719598L253.06840844978606,13.868336972746318L253.47436573266984,16.68107005739859L253.8803230155536,58.53691175536202L254.2862802984374,32.06637260708339L254.6922375813212,15.293205659069221L255.09819486420497,41.16515997731417L255.50415214708872,71.29113624407124L255.9101094299725,68.58028429883502L256.3160667128563,36.550157672516086L256.7220239957401,52.0289331241867L257.12798127862385,39.87678102927779L257.5339385615076,28.268949301928373L257.9398958443914,40.88879774320751L258.34968291296275,45.19788800164748L258.7747891242845,45.47554844507043L259.1807464071682,41.8683293357026L259.58670369005205,48.89846635853036L259.9926609729358,36.86361413133825L260.3986182558196,80.98612031949429L260.8045755387034,69.37264500302192L261.22968175002507,45.29079028878308" fill="none"></path></g></g></g></g><g opacity="0.2"><g><g><g><path style="fill: none;" stroke="rgb(255, 112, 67)" stroke-width="2px" d="M12.239995057514735,128.96217695438173L13.350632906913756,110.10439592732779L14.009356045178004,154.7948876618075L14.415313328061785,192.55127383110425L15.376589535645076,98.8746862417235L16.173184958662304,134.16539599935396L17.394886593001228,107.51399389101002L18.501694656712665,16.97606206671089L18.907651939596448,72.81651507995963L20.02977914605822,113.97548521357983L20.435736428941997,164.83119888922494L20.84169371182578,105.17472201782333L21.427650922025954,119.94861879456937L22.02892727497646,107.77584553893817L22.434884557860236,46.90034468249962L24.27701147358758,151.686511254889L25.4106280371121,114.41519863608775L25.81658531999588,205.8065046864384L27.758286663600376,87.51702564964006L28.623818228994097,28.192163713918887L29.569775293827057,90.01770888735386L30.201689932278224,88.90663611600161L31.147646997111185,118.19530257470763L31.553604279994964,113.11242041473093L31.959561562878747,99.70635240652388L32.36551884576253,91.25231437090082L33.02807176971436,112.8079773739002L33.617858765602115,98.08625947165416L34.54466690199716,84.67163489384941L35.37190061051505,84.29913693372306L35.77785789339883,52.456179813317966L36.183815176282614,31.424102287660627L36.86168724298477,84.39001919015527L37.46679338162286,63.09307091714203L37.87275066450664,2.512911621308181L38.55445251689639,106.61169552691476L39.27828201184954,108.70593434508294L39.97913279267719,104.48461479789842L40.385090075560974,151.8872445485482L41.204664212703705,88.44179789532916L41.61062149558749,37.52573168575775L42.01657877847127,150.08494528138561L43.16168469905853,98.07268088788645L44.11147154957907,98.7988405731729L44.78551383059365,130.7353455938952L45.191471113477434,144.1536667275846L45.59742839636122,132.14940340196432L46.00338567924499,142.58043610675918L46.42849189056669,151.33137679830077L46.834449173450466,75.4628367286049L47.24040645633425,32.154753803802976L48.052321022101815,116.46194186569754L48.95998023005894,60.32829747972926L49.36593751294272,67.3102520890134L49.95189472314289,112.3901929223577L50.53785193334307,81.73543551819797L50.94380921622685,105.9528691225241L51.55274514055252,99.42983235357119L53.46763798434394,63.457675036813406L54.06891433729444,108.24924032920826L54.494020548616135,115.29851349207394L54.89997783149992,27.036172634007517L55.48976482738767,104.86281222865179L55.89572211027145,142.97901614047836L56.71529624741418,124.63941566642507L57.12125353029796,99.3801571224991L57.527210813181746,151.51720604990692L58.96721023171288,115.31882245846836L59.373167514596666,68.57579965986614L59.78295458316803,164.42216246236575L60.38040115043095,124.97549297833284L60.78635843331473,126.13291260772954L61.391464571952824,125.28164438762026L62.01954942471641,-8.458900700252567L62.601676849228994,137.7238391307204L63.808059340817586,104.5935085596971L64.53571862145833,106.33495456424782L64.9416759043421,106.11715231333618L65.3476331872259,161.29343290711L65.75359047010967,166.42802266752966L66.45444125093732,112.87972884908051L67.0403984611375,118.57579746648894L67.44635574402129,8.087744987549854L67.85231302690505,212.6248977433103L68.25827030978884,-7.3125781021671195L68.66422759267262,142.8394895649738L69.0701848755564,162.51426835180357L69.86295051288604,75.42124679307345L71.46380093029568,36.05138025301947L71.86975821317945,121.57317410566644L72.90380034882682,72.72426318329923L73.6199702724048,109.59114902461145L74.02592755528859,108.41344988344892L74.60805497980118,101.08066119334676L76.26635218252454,94.71463232195076L76.95188382060188,84.16813747318758L77.87103238562175,123.46735708663239L78.27698966850554,24.10833837286808L78.68294695138931,-21.722165305527394L80.41401008217676,59.79602288696103L81.03060557787758,15.72363653288313L81.76209464420592,83.87696374252462L82.62762620959963,-87.3197180765559L83.0335834924834,85.50293287579275L83.61571091699601,75.53984585498377L84.19783834150859,76.18736168200608L84.60379562439238,11.791355255790732L85.23571026284354,32.153428345517625L85.64166754572733,20.62625636605212L86.0476248286111,-2.278251897377139L86.77145432356426,86.30786896517186L87.17741160644805,72.67146576159942L87.7671986023358,97.57426439065178L88.19230481365749,102.70072467358793L88.59826209654126,81.00370890811305L89.00421937942505,124.93714305194337L89.95783601563316,81.40477785794585L90.36379329851695,73.41703604710912L91.14506957878385,90.5831052099416L91.55102686166764,82.54670435271822L91.95698414455141,106.0548557739247L92.38209035587312,84.28685435361214L92.98336670882361,104.03241261287965L93.69570684671402,83.78976331466284L94.2816640569142,81.52595419985545L94.68762133979797,122.97995662048044L95.09357862268175,96.73433620253938L95.69868476131984,123.91639289908062L96.38421639939716,110.90512000482235L96.80932261071887,97.59729791018833L97.21527989360264,120.18681837576116L98.24166245787485,110.15759098651318L98.64761974075861,100.76909013240368L99.32166202177321,111.52129610705326L99.72761930465698,142.22303364377154L100.58166151298795,105.41321614530077L101.16378893750054,125.11703719589399L101.86080993264062,120.62280578775578L102.2667672155244,184.32318225119062L102.67272449840817,92.0380754970852L103.46549013573782,95.05353727820061L104.05527713162557,108.22710517584291L104.48038334294728,43.13336278090471L105.74038283416202,103.61903162830735L106.14634011704581,62.62276886287108L106.80123346962247,123.17172097974208L107.7548501058306,101.80256468480582L108.34463710171836,107.90993773547278L108.96506238310677,-14.514278967848131L109.56633873605729,108.97672547278006L110.79187015608379,114.67241118001716L111.40463586609704,81.7706043447026L112.90591185562951,68.46587498606773L113.3118691385133,95.36948235148535L114.3574006312234,98.30350208462312L114.76335791410719,17.400149808765946L115.16931519699096,-2.5842118515788712L115.57527247987476,79.90689217698545L116.18037861851283,103.35729779889348L116.76250604302543,59.048081503851996L117.16846332590922,119.76134626616363L117.57442060879298,88.80307364197289L117.98037789167677,89.85609134042681L118.38633517456054,86.48589274020874L119.1101646695137,98.89490684423225L119.51612195239748,144.86770583321726L120.1595259479114,111.31431843213863L120.79144058636257,95.11333017418421L121.19739786924636,41.4492943927954L121.60335515213013,159.3659514685532L122.02846136345183,109.26247955178738L122.4344186463356,91.70699074471891L123.17739706972668,134.75251511050715L123.58335435261046,58.12285271142016L123.98931163549423,89.72270605497769L124.39526891837801,43.591043526836266L124.82037512969971,69.50283991195462L125.6246301240921,103.31837350724703L126.34845961904526,66.06935804226819L126.77356583036696,98.07248943280078L127.3671826119423,78.98989595323708L127.79228882326399,81.63019413034114L128.38207581915174,109.2713012130421L128.7880331020355,112.37296196464814L129.38164988361086,94.90412867481304L129.80675609493255,104.11681485102793L131.12037258577345,92.23327132057449L131.52632986865726,94.18000135889747L131.95143607997895,114.20131385077502L132.35739336286272,129.52702836634103L132.9395207873753,106.07398655517659L133.3454780702591,88.43380096367422L133.93143528045928,108.40218348802344L134.52122227634703,92.98482089568256L134.9271795592308,122.76760347585298L135.33313684211458,18.34490701993527L135.91909405231476,83.7804703793511L137.25951904296875,91.21660063376775L137.66547632585252,94.23944079933828L138.39696539218085,92.7703028358557L138.80292267506462,111.05902043906582L139.20887995794843,116.88377632866752L139.8178158822741,113.27845615594252L140.22377316515787,166.21845298530144L140.62973044804164,127.72692346900641L141.62547472681317,42.16729514596981L142.03143200969697,153.8374060510988L142.83568700408938,111.20825231468203L143.24164428697316,89.50877708772211L143.83526106854848,102.57607268550785L144.24121835143225,61.48143146066999L144.64717563431603,122.8841701683924L145.0531329171998,61.81039547977971L145.86887726865496,105.2803463158515L146.51228126416888,173.248271366001L146.91823854705265,235.26325398304115L147.32419582993643,5.13094209921835L147.74930204125812,81.70558325214901L148.4424932507106,119.69019861086885L148.8484505335944,63.718967046798866L149.54164174304688,126.94749508796313L150.1275989532471,102.73203494375075L150.71355616344724,111.6620450496432L151.119513446331,124.57062438141537L151.5254707292148,66.3838745660676L151.9314280120986,101.00938099222347L152.85440636280603,97.49877217764393L153.2603636456898,154.3024651814855L153.6663209285736,60.403333145994395L154.0722782114574,69.21961893100377L154.47823549434116,124.73194738205683L155.06419270454137,106.25427833661283L155.47014998742515,128.86371013109448L155.8761072703089,168.60728227104593L156.28206455319267,104.07051217492635L156.68802183607644,60.63864617358696L157.09780890464782,16.659763537883407L157.50376618753162,120.13740823634613L157.9097234704154,24.6220565496414L158.3348296817371,128.81457981065083L159.2501484610694,111.12068370396321L159.65610574395316,102.69075428181924L160.06206302683694,154.23304062196166L160.4718500954083,121.51934577196691L160.87780737829206,184.38556715448777L161.30291358961378,22.28941196788148L161.70887087249756,70.4189524968461L162.11482815538136,91.76550236436L162.53993436670302,26.58710736693074L162.94589164958683,115.3980995912466L163.53950843116218,76.83680678719931L163.94546571404595,104.94279627251557L164.35142299692973,108.07880112102644L164.75738027981347,148.04889408194433L165.16333756269725,120.077482794534L165.76461391564777,111.98614905504L166.39269876841135,69.11554100097518L166.97865597861156,100.36266044017235L167.38461326149533,29.71034363395944L167.79057054437908,10.06883385009196L168.19652782726286,104.68686500492865L168.7901446088382,91.03990231701623L169.196101891722,73.93434768856717L169.60205917460578,127.82044191469502L170.3105695268086,105.56635075920161L170.7165268096924,106.78686220298097L171.29865423420497,81.34972715716096L171.70461151708875,138.08088813816528L172.11056879997253,168.15862936876903L172.5165260828563,222.00699221570727L172.94163229417802,84.62446330620523L173.3475895770618,164.38216307677675L173.94503614432472,107.26791519667755L174.3509934272085,22.079547739367626L174.75695071009227,19.893027569910476L175.16290799297605,138.71566483833394L175.95567363030568,82.20869776263953L176.60673719719478,81.7125934537471L177.01269448007855,45.45711206483851L177.41865176296236,183.30885320735467L177.82460904584613,-28.857858348597947L178.24971525716782,101.33008298802118L178.6556725400516,5.598416509147226L179.06545960862297,83.07942076491489L179.47141689150675,92.34067762363074L179.87737417439052,113.39851322196672L180.2833314572743,20.902982601404776L180.6892887401581,166.21288606050297L181.11439495147977,102.3575340688821L181.52035223436357,99.10466798154611L181.92630951724735,102.02652295308722L182.33226680013112,98.35656459797995L182.7382240830149,159.8349869737959L183.41226636402948,79.5085035983519L183.81822364691325,136.71369264414042L184.22418092979703,150.30264444109733L184.6301382126808,121.06696685917676L185.05524442400252,109.9955021655291L185.4803506353242,122.81919325778168L185.886307918208,116.93479174533923L186.29226520109177,80.78712902428677L186.69822248397557,20.036957612385255L187.10417976685935,168.29161701673257L187.5101370497431,110.02676825374908L187.91609433262687,100.83431740735722L188.32205161551065,143.22042627618356L188.90417904002325,132.74854000157134L189.31013632290703,88.87213001863965L189.7199233914784,119.79988764763874L190.1258806743622,62.20750278207074L190.53183795724598,118.72458752267667L190.93779524012973,104.34709113713616L191.3437525230135,10.814875409658669L191.76885873433523,33.582566923411186L192.174816017219,154.14473564552878L192.58077330010278,168.61591247721498L192.98673058298658,18.777227330673792L193.39268786587033,120.08749736824555L193.81779407719205,85.56353577406182L194.24290028851374,98.21362128556206L194.6488575713975,-74.47027995711039L195.0548148542813,47.16318306048464L195.46077213716507,54.80925117998655L195.86672942004884,64.39614368478448L196.27268670293265,122.82265417663787L196.69779291425434,75.52564872401624L197.1037501971381,151.18451602028392L197.5097074800219,120.18279781896226L197.91566476290566,44.11417245743559L198.32162204578944,79.63686686963096L198.90757925598962,109.35775054787551L199.317366324561,106.43766285404823L200.12545110464097,54.38199706536093L200.53523817321232,98.49142261485724L200.94119545609612,26.25506533913615L201.52332288060867,97.83970950326466L201.92928016349248,60.94158702836097L202.35438637481417,31.01104530400253L202.76034365769794,11.3609789505374L203.16630094058172,-2.565095797641277L203.5760880091531,201.4830364873962L204.0011942204748,36.19694502737952L204.40715150335856,183.93879934843895L204.83225771468028,79.44725269825443L205.25736392600197,160.60634478661285L205.66332120888575,175.74078094428847L206.0731082774571,55.08730287362454L206.47906556034087,89.33748369531195L206.88502284322465,115.11972389669444L207.29098012610842,26.353384889280598L207.69693740899223,126.59077008143248L208.102894691876,76.9722980785907L208.50885197475978,99.63308401797255L208.91480925764355,54.82673250203891L209.32076654052736,-71.64752140154212L209.74587275184902,47.561085637746885L210.15183003473282,142.0686913900996L210.5616171033042,137.91311457386846L210.97140417187555,74.69767911510057L211.37736145475932,63.61731912362675L211.7833187376431,96.2728263548946L212.18927602052688,154.36688245415354L212.61438223184857,15.695139179748093L213.03948844317028,88.98143614523823L213.44544572605406,153.23959490977714L214.13097736413135,76.26121916312869L214.53693464701516,54.828764871409774L215.14587057134085,73.60978713642766L215.55182785422463,58.102882473254205L215.9577851371084,100.46523618414419L216.3828913484301,123.95026572192846L216.78884863131387,39.98953772851024L217.19480591419764,96.66158326998793L217.60076319708142,135.83052506129707L218.00672047996522,56.296871922892635L218.412677762849,93.58939187425952L218.81863504573278,110.52251910709876L219.51182625518527,89.00691439894551L219.91778353806905,118.29967505102182L220.32374082095282,24.722614651556647L220.72969810383663,10.517751844025927L221.13948517240797,115.4296896803808L221.85182531029838,107.49487783707241L222.25778259318216,161.94349655950305L222.66373987606593,69.5788770355909L223.06969715894974,144.80582165860568L223.47565444183348,93.3464648251833L223.88161172471726,-42.48020433068852L224.28756900760104,81.33301165545126L224.69352629048484,119.3149613702861L225.09948357336862,147.96898367465195L225.5054408562524,61.95945062762454L225.91139813913617,186.4065081294761L226.31735542201994,111.22256726416381L226.72331270490375,141.7641894400117L227.12926998778752,-8.38325385044477L227.5352272706713,114.54973265205084L227.94118455355508,162.26646656170016L228.34714183643888,158.99567733288336L228.75309911932266,75.58597180331397L229.17820533064435,79.46243655927883L229.58416261352812,108.65170837389783L229.9901198964119,96.56165844258679L230.39990696498327,111.56693605401216L230.80586424786702,152.4092689305764L231.2118215307508,101.91296063266122L231.6177788136346,5.861416887589346L232.02373609651838,107.99638707030623L232.42969337940215,69.42806933734656L232.83565066228593,-15.964322968364488L233.26075687360762,104.72967730754547L233.68586308492934,75.80331750748289L234.0918203678131,40.78821470931966L234.5169265791348,84.37162477461746L235.24841564546313,107.05936169913477L235.6543729283469,98.55078841872668L236.33990456642425,75.55772481452172L237.1058617039408,102.77118014511146L237.51181898682458,100.57250994137192L237.91777626970836,-5.44487483227962L238.32373355259213,33.402289869289234L238.7296908354759,-21.911912022732466L239.1356481183597,132.17370347052906L239.56075432968137,52.76629287014714L239.96671161256518,114.42359320522831L240.37649868113655,32.13466574712278L240.78245596402033,-57.9290539209636L241.20756217534202,-7.086049917543569L241.6135194582258,51.11072183517287L242.01947674110957,4.9907233399425515L242.42543402399335,2.5789562622043416L242.83139130687715,2.942168650676102L243.23734858976093,-79.32350806000721L243.6433058726447,68.97498351347089L244.04926315552848,72.9090320682771L244.45522043841225,88.42386002653409L244.86117772129606,55.48161198620206L245.26713500417983,-27.028755369442695L245.6730922870636,36.866846372109976L246.07904956994736,27.757133577352555L246.48500685283116,72.15352084562727L246.89096413571494,32.73652689987191L247.2969214185987,133.17548484259703L247.7028787014825,12.148139171578542L248.10883598436627,-2.233259952246623L248.51479326725007,50.317081595847775L248.92075055013385,-62.61660342002018L249.33053761870522,87.45714438977078L249.74032468727657,83.6751995368657L250.14628197016035,19.461060714714723L250.55223925304412,-0.3801735417836623L250.9620263216155,9.910456312306838L251.3871325329372,67.38480175390723L251.81223874425888,-10.586953432011505L252.2373449555806,8.356695200961779L252.64330223846437,44.802821673246626L253.06840844978606,-5.2170138257135825L253.47436573266984,20.900169684376976L253.8803230155536,121.32067430230715L254.2862802984374,-7.639436115334572L254.6922375813212,-9.866544762952017L255.09819486420497,79.97309145468157L255.50415214708872,116.48010064420684L255.9101094299725,64.5140063809807L256.3160667128563,-11.495032266962323L256.7220239957401,75.24709630169266L257.12798127862385,21.648552886914477L257.5339385615076,10.85720171090421L257.9398958443914,59.81857040512629L258.34968291296275,51.66152338930743L258.7747891242845,45.89203911020487L259.1807464071682,36.457500671650884L259.58670369005205,59.44367189277201L259.9926609729358,18.81133579055014L260.3986182558196,147.16987960172838L260.8045755387034,51.95243202831332L261.22968175002507,9.168008217424868" fill="none"></path></g></g></g></g></g></g><g transform="translate(61, 177)" clip-path="url(#clip_1)"><clipPath id="clip_1"><rect width="268" height="22"></rect></clipPath><g><g><line x1="0" y1="0" x2="0" y2="5" style="visibility: inherit;" fill="rgb(0, 0, 0)" stroke="rgb(204, 204, 204)" stroke-width="1px"></line><line x1="19.148928437914165" y1="0" x2="19.148928437914165" y2="5" style="visibility: inherit;" fill="rgb(0, 0, 0)" stroke="rgb(204, 204, 204)" stroke-width="1px"></line><line x1="38.29785687582833" y1="0" x2="38.29785687582833" y2="5" style="visibility: inherit;" fill="rgb(0, 0, 0)" stroke="rgb(204, 204, 204)" stroke-width="1px"></line><line x1="57.446785313742495" y1="0" x2="57.446785313742495" y2="5" style="visibility: inherit;" fill="rgb(0, 0, 0)" stroke="rgb(204, 204, 204)" stroke-width="1px"></line><line x1="76.59571375165666" y1="0" x2="76.59571375165666" y2="5" style="visibility: inherit;" fill="rgb(0, 0, 0)" stroke="rgb(204, 204, 204)" stroke-width="1px"></line><line x1="95.74464218957084" y1="0" x2="95.74464218957084" y2="5" style="visibility: inherit;" fill="rgb(0, 0, 0)" stroke="rgb(204, 204, 204)" stroke-width="1px"></line><line x1="114.89357062748499" y1="0" x2="114.89357062748499" y2="5" style="visibility: inherit;" fill="rgb(0, 0, 0)" stroke="rgb(204, 204, 204)" stroke-width="1px"></line><line x1="134.04249906539917" y1="0" x2="134.04249906539917" y2="5" style="visibility: inherit;" fill="rgb(0, 0, 0)" stroke="rgb(204, 204, 204)" stroke-width="1px"></line><line x1="153.19142750331332" y1="0" x2="153.19142750331332" y2="5" style="visibility: inherit;" fill="rgb(0, 0, 0)" stroke="rgb(204, 204, 204)" stroke-width="1px"></line><line x1="172.34035594122753" y1="0" x2="172.34035594122753" y2="5" style="visibility: inherit;" fill="rgb(0, 0, 0)" stroke="rgb(204, 204, 204)" stroke-width="1px"></line><line x1="191.48928437914168" y1="0" x2="191.48928437914168" y2="5" style="visibility: inherit;" fill="rgb(0, 0, 0)" stroke="rgb(204, 204, 204)" stroke-width="1px"></line><line x1="210.63821281705583" y1="0" x2="210.63821281705583" y2="5" style="visibility: inherit;" fill="rgb(0, 0, 0)" stroke="rgb(204, 204, 204)" stroke-width="1px"></line><line x1="229.78714125496998" y1="0" x2="229.78714125496998" y2="5" style="visibility: inherit;" fill="rgb(0, 0, 0)" stroke="rgb(204, 204, 204)" stroke-width="1px"></line><line x1="248.9360696928842" y1="0" x2="248.9360696928842" y2="5" style="visibility: inherit;" fill="rgb(0, 0, 0)" stroke="rgb(204, 204, 204)" stroke-width="1px"></line><line x1="268.08499813079834" y1="0" x2="268.08499813079834" y2="5" style="visibility: inherit;" fill="rgb(0, 0, 0)" stroke="rgb(204, 204, 204)" stroke-width="1px"></line></g><g transform="translate(0, 8)"><text style="text-anchor: middle; visibility: hidden; font-family: Roboto, sans-serif; font-size: 12px; font-weight: 200;" x="0" y="0" dx="0em" dy="0.95em" fill="rgb(50, 49, 63)" stroke="none" stroke-width="1px">20k</text><text style="text-anchor: middle; visibility: inherit; font-family: Roboto, sans-serif; font-size: 12px; font-weight: 200;" x="19.148928437914165" y="0" dx="0em" dy="0.95em" fill="rgb(50, 49, 63)" stroke="none" stroke-width="1px">25k</text><text style="text-anchor: middle; visibility: hidden; font-family: Roboto, sans-serif; font-size: 12px; font-weight: 200;" x="38.29785687582833" y="0" dx="0em" dy="0.95em" fill="rgb(50, 49, 63)" stroke="none" stroke-width="1px">30k</text><text style="text-anchor: middle; visibility: inherit; font-family: Roboto, sans-serif; font-size: 12px; font-weight: 200;" x="57.446785313742495" y="0" dx="0em" dy="0.95em" fill="rgb(50, 49, 63)" stroke="none" stroke-width="1px">35k</text><text style="text-anchor: middle; visibility: hidden; font-family: Roboto, sans-serif; font-size: 12px; font-weight: 200;" x="76.59571375165666" y="0" dx="0em" dy="0.95em" fill="rgb(50, 49, 63)" stroke="none" stroke-width="1px">40k</text><text style="text-anchor: middle; visibility: inherit; font-family: Roboto, sans-serif; font-size: 12px; font-weight: 200;" x="95.74464218957084" y="0" dx="0em" dy="0.95em" fill="rgb(50, 49, 63)" stroke="none" stroke-width="1px">45k</text><text style="text-anchor: middle; visibility: hidden; font-family: Roboto, sans-serif; font-size: 12px; font-weight: 200;" x="114.89357062748499" y="0" dx="0em" dy="0.95em" fill="rgb(50, 49, 63)" stroke="none" stroke-width="1px">50k</text><text style="text-anchor: middle; visibility: inherit; font-family: Roboto, sans-serif; font-size: 12px; font-weight: 200;" x="134.04249906539917" y="0" dx="0em" dy="0.95em" fill="rgb(50, 49, 63)" stroke="none" stroke-width="1px">55k</text><text style="text-anchor: middle; visibility: hidden; font-family: Roboto, sans-serif; font-size: 12px; font-weight: 200;" x="153.19142750331332" y="0" dx="0em" dy="0.95em" fill="rgb(50, 49, 63)" stroke="none" stroke-width="1px">60k</text><text style="text-anchor: middle; visibility: inherit; font-family: Roboto, sans-serif; font-size: 12px; font-weight: 200;" x="172.34035594122753" y="0" dx="0em" dy="0.95em" fill="rgb(50, 49, 63)" stroke="none" stroke-width="1px">65k</text><text style="text-anchor: middle; visibility: hidden; font-family: Roboto, sans-serif; font-size: 12px; font-weight: 200;" x="191.48928437914168" y="0" dx="0em" dy="0.95em" fill="rgb(50, 49, 63)" stroke="none" stroke-width="1px">70k</text><text style="text-anchor: middle; visibility: inherit; font-family: Roboto, sans-serif; font-size: 12px; font-weight: 200;" x="210.63821281705583" y="0" dx="0em" dy="0.95em" fill="rgb(50, 49, 63)" stroke="none" stroke-width="1px">75k</text><text style="text-anchor: middle; visibility: hidden; font-family: Roboto, sans-serif; font-size: 12px; font-weight: 200;" x="229.78714125496998" y="0" dx="0em" dy="0.95em" fill="rgb(50, 49, 63)" stroke="none" stroke-width="1px">80k</text><text style="text-anchor: middle; visibility: inherit; font-family: Roboto, sans-serif; font-size: 12px; font-weight: 200;" x="248.9360696928842" y="0" dx="0em" dy="0.95em" fill="rgb(50, 49, 63)" stroke="none" stroke-width="1px">85k</text><text style="text-anchor: middle; visibility: hidden; font-family: Roboto, sans-serif; font-size: 12px; font-weight: 200;" x="268.08499813079834" y="0" dx="0em" dy="0.95em" fill="rgb(50, 49, 63)" stroke="none" stroke-width="1px">90k</text></g><line x1="0" y1="0" x2="268.08499813079834" y2="0" fill="rgb(0, 0, 0)" stroke="rgb(204, 204, 204)" stroke-width="1px"></line></g></g></g></g></svg>