<svg viewBox="0 0 330 200" xmlns="http://www.w3.org/2000/svg"><g><g><g><g><g><line x1="61.91500186920166" y1="177.89999961853027" x2="56.91500186920166" y2="177.89999961853027" style="visibility: inherit;" fill="rgb(0, 0, 0)" stroke="rgb(204, 204, 204)" stroke-width="1px"></line><line x1="61.91500186920166" y1="160.10999965667725" x2="56.91500186920166" y2="160.10999965667725" style="visibility: inherit;" fill="rgb(0, 0, 0)" stroke="rgb(204, 204, 204)" stroke-width="1px"></line><line x1="61.91500186920166" y1="142.31999969482422" x2="56.91500186920166" y2="142.31999969482422" style="visibility: inherit;" fill="rgb(0, 0, 0)" stroke="rgb(204, 204, 204)" stroke-width="1px"></line><line x1="61.91500186920166" y1="124.52999973297118" x2="56.91500186920166" y2="124.52999973297118" style="visibility: inherit;" fill="rgb(0, 0, 0)" stroke="rgb(204, 204, 204)" stroke-width="1px"></line><line x1="61.91500186920166" y1="106.73999977111816" x2="56.91500186920166" y2="106.73999977111816" style="visibility: inherit;" fill="rgb(0, 0, 0)" stroke="rgb(204, 204, 204)" stroke-width="1px"></line><line x1="61.91500186920166" y1="88.94999980926512" x2="56.91500186920166" y2="88.94999980926512" style="visibility: inherit;" fill="rgb(0, 0, 0)" stroke="rgb(204, 204, 204)" stroke-width="1px"></line><line x1="61.91500186920166" y1="71.1599998474121" x2="56.91500186920166" y2="71.1599998474121" style="visibility: inherit;" fill="rgb(0, 0, 0)" stroke="rgb(204, 204, 204)" stroke-width="1px"></line><line x1="61.91500186920166" y1="53.36999988555909" x2="56.91500186920166" y2="53.36999988555909" style="visibility: inherit;" fill="rgb(0, 0, 0)" stroke="rgb(204, 204, 204)" stroke-width="1px"></line><line x1="61.91500186920166" y1="35.57999992370605" x2="56.91500186920166" y2="35.57999992370605" style="visibility: inherit;" fill="rgb(0, 0, 0)" stroke="rgb(204, 204, 204)" stroke-width="1px"></line><line x1="61.91500186920166" y1="17.789999961853024" x2="56.91500186920166" y2="17.789999961853024" style="visibility: inherit;" fill="rgb(0, 0, 0)" stroke="rgb(204, 204, 204)" stroke-width="1px"></line><line x1="61.91500186920166" y1="0" x2="56.91500186920166" y2="0" style="visibility: inherit;" fill="rgb(0, 0, 0)" stroke="rgb(204, 204, 204)" stroke-width="1px"></line></g><g transform="translate(51.91500186920166, 0)"><text style="text-anchor: end; visibility: hidden; font-family: Roboto, sans-serif; font-size: 12px; font-weight: 200;" x="0" y="177.89999961853027" dx="0em" dy="0.3em" fill="rgb(50, 49, 63)" stroke="none" stroke-width="1px">-5e-3</text><text style="text-anchor: end; visibility: inherit; font-family: Roboto, sans-serif; font-size: 12px; font-weight: 200;" x="0" y="160.10999965667725" dx="0em" dy="0.3em" fill="rgb(50, 49, 63)" stroke="none" stroke-width="1px">0</text><text style="text-anchor: end; visibility: hidden; font-family: Roboto, sans-serif; font-size: 12px; font-weight: 200;" x="0" y="142.31999969482422" dx="0em" dy="0.3em" fill="rgb(50, 49, 63)" stroke="none" stroke-width="1px">5e-3</text><text style="text-anchor: end; visibility: inherit; font-family: Roboto, sans-serif; font-size: 12px; font-weight: 200;" x="0" y="124.52999973297118" dx="0em" dy="0.3em" fill="rgb(50, 49, 63)" stroke="none" stroke-width="1px">0.01</text><text style="text-anchor: end; visibility: hidden; font-family: Roboto, sans-serif; font-size: 12px; font-weight: 200;" x="0" y="106.73999977111816" dx="0em" dy="0.3em" fill="rgb(50, 49, 63)" stroke="none" stroke-width="1px">0.015</text><text style="text-anchor: end; visibility: inherit; font-family: Roboto, sans-serif; font-size: 12px; font-weight: 200;" x="0" y="88.94999980926512" dx="0em" dy="0.3em" fill="rgb(50, 49, 63)" stroke="none" stroke-width="1px">0.02</text><text style="text-anchor: end; visibility: hidden; font-family: Roboto, sans-serif; font-size: 12px; font-weight: 200;" x="0" y="71.1599998474121" dx="0em" dy="0.3em" fill="rgb(50, 49, 63)" stroke="none" stroke-width="1px">0.025</text><text style="text-anchor: end; visibility: inherit; font-family: Roboto, sans-serif; font-size: 12px; font-weight: 200;" x="0" y="53.36999988555909" dx="0em" dy="0.3em" fill="rgb(50, 49, 63)" stroke="none" stroke-width="1px">0.03</text><text style="text-anchor: end; visibility: hidden; font-family: Roboto, sans-serif; font-size: 12px; font-weight: 200;" x="0" y="35.57999992370605" dx="0em" dy="0.3em" fill="rgb(50, 49, 63)" stroke="none" stroke-width="1px">0.035</text><text style="text-anchor: end; visibility: inherit; font-family: Roboto, sans-serif; font-size: 12px; font-weight: 200;" x="0" y="17.789999961853024" dx="0em" dy="0.3em" fill="rgb(50, 49, 63)" stroke="none" stroke-width="1px">0.04</text><text style="text-anchor: end; visibility: hidden; font-family: Roboto, sans-serif; font-size: 12px; font-weight: 200;" x="0" y="0" dx="0em" dy="0.3em" fill="rgb(50, 49, 63)" stroke="none" stroke-width="1px">0.045</text></g><line x1="61.91500186920166" y1="0" x2="61.91500186920166" y2="177.89999961853027" fill="rgb(0, 0, 0)" stroke="rgb(204, 204, 204)" stroke-width="1px"></line></g></g><g transform="translate(61, 0)" clip-path="url(#clip_0)"><clipPath id="clip_0"><rect width="268" height="177"></rect></clipPath><g><g><g><line x1="0" y1="0" x2="0" y2="177.89999961853027" fill="rgb(0, 0, 0)" stroke="rgb(60, 60, 60)" stroke-width="1px" opacity="0.25"></line><line x1="26.808499813079834" y1="0" x2="26.808499813079834" y2="177.89999961853027" fill="rgb(0, 0, 0)" stroke="rgb(60, 60, 60)" stroke-width="1px" opacity="0.25"></line><line x1="53.61699962615967" y1="0" x2="53.61699962615967" y2="177.89999961853027" fill="rgb(0, 0, 0)" stroke="rgb(60, 60, 60)" stroke-width="1px" opacity="0.25"></line><line x1="80.4254994392395" y1="0" x2="80.4254994392395" y2="177.89999961853027" fill="rgb(0, 0, 0)" stroke="rgb(60, 60, 60)" stroke-width="1px" opacity="0.25"></line><line x1="107.23399925231934" y1="0" x2="107.23399925231934" y2="177.89999961853027" fill="rgb(0, 0, 0)" stroke="rgb(60, 60, 60)" stroke-width="1px" opacity="0.25"></line><line x1="134.04249906539917" y1="0" x2="134.04249906539917" y2="177.89999961853027" fill="rgb(0, 0, 0)" stroke="rgb(60, 60, 60)" stroke-width="1px" opacity="0.25"></line><line x1="160.850998878479" y1="0" x2="160.850998878479" y2="177.89999961853027" fill="rgb(0, 0, 0)" stroke="rgb(60, 60, 60)" stroke-width="1px" opacity="0.25"></line><line x1="187.65949869155884" y1="0" x2="187.65949869155884" y2="177.89999961853027" fill="rgb(0, 0, 0)" stroke="rgb(60, 60, 60)" stroke-width="1px" opacity="0.25"></line><line x1="214.46799850463867" y1="0" x2="214.46799850463867" y2="177.89999961853027" fill="rgb(0, 0, 0)" stroke="rgb(60, 60, 60)" stroke-width="1px" opacity="0.25"></line><line x1="241.2764983177185" y1="0" x2="241.2764983177185" y2="177.89999961853027" fill="rgb(0, 0, 0)" stroke="rgb(60, 60, 60)" stroke-width="1px" opacity="0.25"></line><line x1="268.08499813079834" y1="0" x2="268.08499813079834" y2="177.89999961853027" fill="rgb(0, 0, 0)" stroke="rgb(60, 60, 60)" stroke-width="1px" opacity="0.25"></line></g><g><line x1="0" y1="177.89999961853027" x2="268.08499813079834" y2="177.89999961853027" fill="rgb(0, 0, 0)" stroke="rgb(60, 60, 60)" stroke-width="1px" opacity="0.25"></line><line x1="0" y1="160.10999965667725" x2="268.08499813079834" y2="160.10999965667725" fill="rgb(0, 0, 0)" stroke="rgb(60, 60, 60)" stroke-width="1px" opacity="0.25"></line><line x1="0" y1="142.31999969482422" x2="268.08499813079834" y2="142.31999969482422" fill="rgb(0, 0, 0)" stroke="rgb(60, 60, 60)" stroke-width="1px" opacity="0.25"></line><line x1="0" y1="124.52999973297118" x2="268.08499813079834" y2="124.52999973297118" fill="rgb(0, 0, 0)" stroke="rgb(60, 60, 60)" stroke-width="1px" opacity="0.25"></line><line x1="0" y1="106.73999977111816" x2="268.08499813079834" y2="106.73999977111816" fill="rgb(0, 0, 0)" stroke="rgb(60, 60, 60)" stroke-width="1px" opacity="0.25"></line><line x1="0" y1="88.94999980926512" x2="268.08499813079834" y2="88.94999980926512" fill="rgb(0, 0, 0)" stroke="rgb(60, 60, 60)" stroke-width="1px" opacity="0.25"></line><line x1="0" y1="71.1599998474121" x2="268.08499813079834" y2="71.1599998474121" fill="rgb(0, 0, 0)" stroke="rgb(60, 60, 60)" stroke-width="1px" opacity="0.25"></line><line x1="0" y1="53.36999988555909" x2="268.08499813079834" y2="53.36999988555909" fill="rgb(0, 0, 0)" stroke="rgb(60, 60, 60)" stroke-width="1px" opacity="0.25"></line><line x1="0" y1="35.57999992370605" x2="268.08499813079834" y2="35.57999992370605" fill="rgb(0, 0, 0)" stroke="rgb(60, 60, 60)" stroke-width="1px" opacity="0.25"></line><line x1="0" y1="17.789999961853024" x2="268.08499813079834" y2="17.789999961853024" fill="rgb(0, 0, 0)" stroke="rgb(60, 60, 60)" stroke-width="1px" opacity="0.25"></line><line x1="0" y1="0" x2="268.08499813079834" y2="0" fill="rgb(0, 0, 0)" stroke="rgb(60, 60, 60)" stroke-width="1px" opacity="0.25"></line></g></g></g><g><g><line x1="0" y1="160.10999965667725" x2="268.08499813079834" y2="160.10999965667725" fill="rgb(0, 0, 0)" stroke="rgb(153, 153, 153)" stroke-width="1.5px"></line></g></g><g><g><line x1="-455.7444968223572" y1="0" x2="-455.7444968223572" y2="177.89999961853027" fill="rgb(0, 0, 0)" stroke="rgb(153, 153, 153)" stroke-width="1.5px"></line></g></g><g><g><g><g><g><path style="fill: none;" stroke="rgb(204, 51, 17)" stroke-width="2px" d="M29.639477393341068,-13.599677981716406L32.88866757068634,23.59762167811843L36.137857748031614,42.262359117610764L39.38704792537689,67.40508908846526L42.63623810272217,86.61790482391243L45.885428280067444,101.011011400534L49.13461845741272,104.36391177516269L52.38380863475799,106.52463828296356L55.632998812103274,108.34508547316281L58.88218898944855,113.33211803739717L62.13137916679382,111.75235468585159L65.3805693441391,117.90785236601971L68.62975952148437,115.93465836033L71.90575819864273,116.274047843978L75.154948375988,116.80135853017264L78.40413855333328,111.71507194368844L81.65869043064117,111.24813312828961L84.90788060798646,104.54837772034304L88.15707078533173,98.63610163865349L91.406260962677,101.13726156660738L94.68225963983535,99.76385921017868L97.93144981718063,101.6745775671276L101.18600169448852,110.53202823736672L104.46200037164688,90.85113142242074L107.71119054899216,106.12396637162774L110.96038072633743,109.53612856734452L114.20957090368272,118.2789366741313L117.45876108102797,117.49491359351427L120.73475975818634,123.23007994789363L123.98394993553161,123.9837874828141L127.25994861268998,122.6059185372571L130.50913879003525,123.93034710546151L133.75832896738052,125.27405942668295L137.0075191447258,121.64518274361131L140.28351782188415,118.47418187525693L143.53270799922942,117.05828169249531L146.7818981765747,110.09331297964967L150.03108835391998,110.85371435876093L153.30708703107834,112.11390660737051L156.5830857082367,115.1798875070292L159.83227588558196,114.43592324154552L163.08146606292723,116.04364052381626L166.33065624027253,117.25175492918923L169.5798464176178,120.26830250953142L172.85584509477616,117.66433965247714L176.10503527212143,118.25772970827036L179.3542254494667,123.00448481057867L182.63022412662505,127.47943784511433L185.87941430397032,126.97440999131415L189.12860448131562,126.14510946316933L192.3777946586609,123.61621395656665L195.6269848360062,121.47668930250508L198.87617501335146,117.3018848980612L202.1253651906967,117.59093444962872L205.374555368042,115.3446671804557L208.62374554538727,111.15753924015611L211.87293572273256,114.59126834405957L215.1274876000404,119.58308286719262L218.4034862771988,119.98331924492491L221.65267645454406,120.67127112964482L224.90186663188933,117.88549404276702L228.15105680923463,122.03938249284072L231.4002469865799,121.74654067154405L234.64943716392514,117.1654310830789L237.90398904123305,125.07586890558923L241.15317921857834,122.40910452441186L244.4023693959236,122.81473334947277L247.67836807308197,119.27994482044892" fill="none"></path></g></g></g></g><g opacity="0.2"><g><g><g><path style="fill: none;" stroke="rgb(204, 51, 17)" stroke-width="2px" d="M23.14109703865051,-85.69923489731241L26.390287215995787,5.74430451860113L29.639477393341068,23.680233726388057L32.88866757068634,72.16241611399875L36.137857748031614,68.08241030190688L39.38704792537689,103.35959523046677L42.63623810272217,114.63037460922547L45.885428280067444,122.23804788402934L49.13461845741272,109.34257807106502L52.38380863475799,109.74613041426858L55.632998812103274,111.06584946524359L58.88218898944855,120.79638335715637L62.13137916679382,109.38580457939602L65.3805693441391,127.13386332981736L68.62975952148437,112.97625900108508L71.90575819864273,116.7829884511948L75.154948375988,117.59219067533846L78.40413855333328,104.08641690853018L81.65869043064117,110.54776758524861L84.90788060798646,94.49911203893238L88.15707078533173,89.76788206208207L91.406260962677,104.88895207749853L94.68225963983535,97.70377194479588L97.93144981718063,104.54064152198268L101.18600169448852,123.81816646974433L104.46200037164688,61.32983655802267L107.71119054899216,129.03319534803904L110.96038072633743,114.65436871783604L114.20957090368272,131.39314400229432L117.45876108102797,116.31887923257929L120.73475975818634,131.83282833835653L123.98394993553161,125.11434869521723L127.25994861268998,120.53911521761553L130.50913879003525,125.9169899008484L133.75832896738052,127.28962787386604L137.0075191447258,116.20186777514854L140.28351782188415,113.71768060216164L143.53270799922942,114.93443142623919L146.7818981765747,99.64585993365725L150.03108835391998,111.9943164259031L153.30708703107834,114.00419497876872L156.5830857082367,119.77885885430415L159.83227588558196,113.3199768436422L163.08146606292723,118.4552164468045L166.33065624027253,119.06392653706033L169.5798464176178,124.79312387976252L172.85584509477616,113.75839536704189L176.10503527212143,119.14781479194016L179.3542254494667,130.12461746394527L182.63022412662505,134.1918673968635L185.87941430397032,126.21686821061755L189.12860448131562,124.90115867095572L192.3777946586609,119.82287069666921L195.6269848360062,118.26740232141604L198.87617501335146,111.03967829139934L202.1253651906967,118.02450877697983L205.374555368042,111.9752662766969L208.62374554538727,104.87684732970757L211.87293572273256,119.7418619999143L215.1274876000404,127.0708046518918L218.4034862771988,120.58367381152331L221.65267645454406,121.70319895672468L224.90186663188933,113.70682841245032L228.15105680923463,128.27021516795125L231.4002469865799,121.30727793959903L234.64943716392514,110.29376670038116L237.90398904123305,136.9415256393547L241.15317921857834,118.40895795264576L244.4023693959236,123.42317658706415L247.67836807308197,113.97776202691313" fill="none"></path></g></g></g></g></g></g><g transform="translate(61, 177)" clip-path="url(#clip_1)"><clipPath id="clip_1"><rect width="268" height="22"></rect></clipPath><g><g><line x1="0" y1="0" x2="0" y2="5" style="visibility: inherit;" fill="rgb(0, 0, 0)" stroke="rgb(204, 204, 204)" stroke-width="1px"></line><line x1="26.808499813079834" y1="0" x2="26.808499813079834" y2="5" style="visibility: inherit;" fill="rgb(0, 0, 0)" stroke="rgb(204, 204, 204)" stroke-width="1px"></line><line x1="53.61699962615967" y1="0" x2="53.61699962615967" y2="5" style="visibility: inherit;" fill="rgb(0, 0, 0)" stroke="rgb(204, 204, 204)" stroke-width="1px"></line><line x1="80.4254994392395" y1="0" x2="80.4254994392395" y2="5" style="visibility: inherit;" fill="rgb(0, 0, 0)" stroke="rgb(204, 204, 204)" stroke-width="1px"></line><line x1="107.23399925231934" y1="0" x2="107.23399925231934" y2="5" style="visibility: inherit;" fill="rgb(0, 0, 0)" stroke="rgb(204, 204, 204)" stroke-width="1px"></line><line x1="134.04249906539917" y1="0" x2="134.04249906539917" y2="5" style="visibility: inherit;" fill="rgb(0, 0, 0)" stroke="rgb(204, 204, 204)" stroke-width="1px"></line><line x1="160.850998878479" y1="0" x2="160.850998878479" y2="5" style="visibility: inherit;" fill="rgb(0, 0, 0)" stroke="rgb(204, 204, 204)" stroke-width="1px"></line><line x1="187.65949869155884" y1="0" x2="187.65949869155884" y2="5" style="visibility: inherit;" fill="rgb(0, 0, 0)" stroke="rgb(204, 204, 204)" stroke-width="1px"></line><line x1="214.46799850463867" y1="0" x2="214.46799850463867" y2="5" style="visibility: inherit;" fill="rgb(0, 0, 0)" stroke="rgb(204, 204, 204)" stroke-width="1px"></line><line x1="241.2764983177185" y1="0" x2="241.2764983177185" y2="5" style="visibility: inherit;" fill="rgb(0, 0, 0)" stroke="rgb(204, 204, 204)" stroke-width="1px"></line><line x1="268.08499813079834" y1="0" x2="268.08499813079834" y2="5" style="visibility: inherit;" fill="rgb(0, 0, 0)" stroke="rgb(204, 204, 204)" stroke-width="1px"></line></g><g transform="translate(0, 8)"><text style="text-anchor: middle; visibility: hidden; font-family: Roboto, sans-serif; font-size: 12px; font-weight: 200;" x="0" y="0" dx="0em" dy="0.95em" fill="rgb(50, 49, 63)" stroke="none" stroke-width="1px">85k</text><text style="text-anchor: middle; visibility: inherit; font-family: Roboto, sans-serif; font-size: 12px; font-weight: 200;" x="26.808499813079834" y="0" dx="0em" dy="0.95em" fill="rgb(50, 49, 63)" stroke="none" stroke-width="1px">90k</text><text style="text-anchor: middle; visibility: hidden; font-family: Roboto, sans-serif; font-size: 12px; font-weight: 200;" x="53.61699962615967" y="0" dx="0em" dy="0.95em" fill="rgb(50, 49, 63)" stroke="none" stroke-width="1px">95k</text><text style="text-anchor: middle; visibility: inherit; font-family: Roboto, sans-serif; font-size: 12px; font-weight: 200;" x="80.4254994392395" y="0" dx="0em" dy="0.95em" fill="rgb(50, 49, 63)" stroke="none" stroke-width="1px">100k</text><text style="text-anchor: middle; visibility: hidden; font-family: Roboto, sans-serif; font-size: 12px; font-weight: 200;" x="107.23399925231934" y="0" dx="0em" dy="0.95em" fill="rgb(50, 49, 63)" stroke="none" stroke-width="1px">105k</text><text style="text-anchor: middle; visibility: inherit; font-family: Roboto, sans-serif; font-size: 12px; font-weight: 200;" x="134.04249906539917" y="0" dx="0em" dy="0.95em" fill="rgb(50, 49, 63)" stroke="none" stroke-width="1px">110k</text><text style="text-anchor: middle; visibility: hidden; font-family: Roboto, sans-serif; font-size: 12px; font-weight: 200;" x="160.850998878479" y="0" dx="0em" dy="0.95em" fill="rgb(50, 49, 63)" stroke="none" stroke-width="1px">115k</text><text style="text-anchor: middle; visibility: inherit; font-family: Roboto, sans-serif; font-size: 12px; font-weight: 200;" x="187.65949869155884" y="0" dx="0em" dy="0.95em" fill="rgb(50, 49, 63)" stroke="none" stroke-width="1px">120k</text><text style="text-anchor: middle; visibility: hidden; font-family: Roboto, sans-serif; font-size: 12px; font-weight: 200;" x="214.46799850463867" y="0" dx="0em" dy="0.95em" fill="rgb(50, 49, 63)" stroke="none" stroke-width="1px">125k</text><text style="text-anchor: middle; visibility: inherit; font-family: Roboto, sans-serif; font-size: 12px; font-weight: 200;" x="241.2764983177185" y="0" dx="0em" dy="0.95em" fill="rgb(50, 49, 63)" stroke="none" stroke-width="1px">130k</text><text style="text-anchor: middle; visibility: hidden; font-family: Roboto, sans-serif; font-size: 12px; font-weight: 200;" x="268.08499813079834" y="0" dx="0em" dy="0.95em" fill="rgb(50, 49, 63)" stroke="none" stroke-width="1px">135k</text></g><line x1="0" y1="0" x2="268.08499813079834" y2="0" fill="rgb(0, 0, 0)" stroke="rgb(204, 204, 204)" stroke-width="1px"></line></g></g></g></g></svg>