<svg viewBox="0 0 330 200" xmlns="http://www.w3.org/2000/svg"><g><g><g><g><g><line x1="61.91500186920166" y1="177.89999961853027" x2="56.91500186920166" y2="177.89999961853027" style="visibility: inherit;" fill="rgb(0, 0, 0)" stroke="rgb(204, 204, 204)" stroke-width="1px"></line><line x1="61.91500186920166" y1="163.07499965031946" x2="56.91500186920166" y2="163.07499965031946" style="visibility: inherit;" fill="rgb(0, 0, 0)" stroke="rgb(204, 204, 204)" stroke-width="1px"></line><line x1="61.91500186920166" y1="148.24999968210858" x2="56.91500186920166" y2="148.24999968210858" style="visibility: inherit;" fill="rgb(0, 0, 0)" stroke="rgb(204, 204, 204)" stroke-width="1px"></line><line x1="61.91500186920166" y1="133.4249997138977" x2="56.91500186920166" y2="133.4249997138977" style="visibility: inherit;" fill="rgb(0, 0, 0)" stroke="rgb(204, 204, 204)" stroke-width="1px"></line><line x1="61.91500186920166" y1="118.59999974568686" x2="56.91500186920166" y2="118.59999974568686" style="visibility: inherit;" fill="rgb(0, 0, 0)" stroke="rgb(204, 204, 204)" stroke-width="1px"></line><line x1="61.91500186920166" y1="103.77499977747603" x2="56.91500186920166" y2="103.77499977747603" style="visibility: inherit;" fill="rgb(0, 0, 0)" stroke="rgb(204, 204, 204)" stroke-width="1px"></line><line x1="61.91500186920166" y1="88.94999980926514" x2="56.91500186920166" y2="88.94999980926514" style="visibility: inherit;" fill="rgb(0, 0, 0)" stroke="rgb(204, 204, 204)" stroke-width="1px"></line><line x1="61.91500186920166" y1="74.12499984105429" x2="56.91500186920166" y2="74.12499984105429" style="visibility: inherit;" fill="rgb(0, 0, 0)" stroke="rgb(204, 204, 204)" stroke-width="1px"></line><line x1="61.91500186920166" y1="59.29999987284343" x2="56.91500186920166" y2="59.29999987284343" style="visibility: inherit;" fill="rgb(0, 0, 0)" stroke="rgb(204, 204, 204)" stroke-width="1px"></line><line x1="61.91500186920166" y1="44.47499990463257" x2="56.91500186920166" y2="44.47499990463257" style="visibility: inherit;" fill="rgb(0, 0, 0)" stroke="rgb(204, 204, 204)" stroke-width="1px"></line><line x1="61.91500186920166" y1="29.649999936421725" x2="56.91500186920166" y2="29.649999936421725" style="visibility: inherit;" fill="rgb(0, 0, 0)" stroke="rgb(204, 204, 204)" stroke-width="1px"></line><line x1="61.91500186920166" y1="14.824999968210863" x2="56.91500186920166" y2="14.824999968210863" style="visibility: inherit;" fill="rgb(0, 0, 0)" stroke="rgb(204, 204, 204)" stroke-width="1px"></line><line x1="61.91500186920166" y1="0" x2="56.91500186920166" y2="0" style="visibility: inherit;" fill="rgb(0, 0, 0)" stroke="rgb(204, 204, 204)" stroke-width="1px"></line></g><g transform="translate(51.91500186920166, 0)"><text style="text-anchor: end; visibility: hidden; font-family: Roboto, sans-serif; font-size: 12px; font-weight: 200;" x="0" y="177.89999961853027" dx="0em" dy="0.3em" fill="rgb(50, 49, 63)" stroke="none" stroke-width="1px">-0.3</text><text style="text-anchor: end; visibility: inherit; font-family: Roboto, sans-serif; font-size: 12px; font-weight: 200;" x="0" y="163.07499965031946" dx="0em" dy="0.3em" fill="rgb(50, 49, 63)" stroke="none" stroke-width="1px">-0.28</text><text style="text-anchor: end; visibility: hidden; font-family: Roboto, sans-serif; font-size: 12px; font-weight: 200;" x="0" y="148.24999968210858" dx="0em" dy="0.3em" fill="rgb(50, 49, 63)" stroke="none" stroke-width="1px">-0.26</text><text style="text-anchor: end; visibility: inherit; font-family: Roboto, sans-serif; font-size: 12px; font-weight: 200;" x="0" y="133.4249997138977" dx="0em" dy="0.3em" fill="rgb(50, 49, 63)" stroke="none" stroke-width="1px">-0.24</text><text style="text-anchor: end; visibility: hidden; font-family: Roboto, sans-serif; font-size: 12px; font-weight: 200;" x="0" y="118.59999974568686" dx="0em" dy="0.3em" fill="rgb(50, 49, 63)" stroke="none" stroke-width="1px">-0.22</text><text style="text-anchor: end; visibility: inherit; font-family: Roboto, sans-serif; font-size: 12px; font-weight: 200;" x="0" y="103.77499977747603" dx="0em" dy="0.3em" fill="rgb(50, 49, 63)" stroke="none" stroke-width="1px">-0.2</text><text style="text-anchor: end; visibility: hidden; font-family: Roboto, sans-serif; font-size: 12px; font-weight: 200;" x="0" y="88.94999980926514" dx="0em" dy="0.3em" fill="rgb(50, 49, 63)" stroke="none" stroke-width="1px">-0.18</text><text style="text-anchor: end; visibility: inherit; font-family: Roboto, sans-serif; font-size: 12px; font-weight: 200;" x="0" y="74.12499984105429" dx="0em" dy="0.3em" fill="rgb(50, 49, 63)" stroke="none" stroke-width="1px">-0.16</text><text style="text-anchor: end; visibility: hidden; font-family: Roboto, sans-serif; font-size: 12px; font-weight: 200;" x="0" y="59.29999987284343" dx="0em" dy="0.3em" fill="rgb(50, 49, 63)" stroke="none" stroke-width="1px">-0.14</text><text style="text-anchor: end; visibility: inherit; font-family: Roboto, sans-serif; font-size: 12px; font-weight: 200;" x="0" y="44.47499990463257" dx="0em" dy="0.3em" fill="rgb(50, 49, 63)" stroke="none" stroke-width="1px">-0.12</text><text style="text-anchor: end; visibility: hidden; font-family: Roboto, sans-serif; font-size: 12px; font-weight: 200;" x="0" y="29.649999936421725" dx="0em" dy="0.3em" fill="rgb(50, 49, 63)" stroke="none" stroke-width="1px">-0.1</text><text style="text-anchor: end; visibility: inherit; font-family: Roboto, sans-serif; font-size: 12px; font-weight: 200;" x="0" y="14.824999968210863" dx="0em" dy="0.3em" fill="rgb(50, 49, 63)" stroke="none" stroke-width="1px">-0.08</text><text style="text-anchor: end; visibility: hidden; font-family: Roboto, sans-serif; font-size: 12px; font-weight: 200;" x="0" y="0" dx="0em" dy="0.3em" fill="rgb(50, 49, 63)" stroke="none" stroke-width="1px">-0.06</text></g><line x1="61.91500186920166" y1="0" x2="61.91500186920166" y2="177.89999961853027" fill="rgb(0, 0, 0)" stroke="rgb(204, 204, 204)" stroke-width="1px"></line></g></g><g transform="translate(61, 0)" clip-path="url(#clip_0)"><clipPath id="clip_0"><rect width="268" height="177"></rect></clipPath><g><g><g><line x1="0" y1="0" x2="0" y2="177.89999961853027" fill="rgb(0, 0, 0)" stroke="rgb(60, 60, 60)" stroke-width="1px" opacity="0.25"></line><line x1="22.34041651089986" y1="0" x2="22.34041651089986" y2="177.89999961853027" fill="rgb(0, 0, 0)" stroke="rgb(60, 60, 60)" stroke-width="1px" opacity="0.25"></line><line x1="44.68083302179972" y1="0" x2="44.68083302179972" y2="177.89999961853027" fill="rgb(0, 0, 0)" stroke="rgb(60, 60, 60)" stroke-width="1px" opacity="0.25"></line><line x1="67.02124953269958" y1="0" x2="67.02124953269958" y2="177.89999961853027" fill="rgb(0, 0, 0)" stroke="rgb(60, 60, 60)" stroke-width="1px" opacity="0.25"></line><line x1="89.36166604359944" y1="0" x2="89.36166604359944" y2="177.89999961853027" fill="rgb(0, 0, 0)" stroke="rgb(60, 60, 60)" stroke-width="1px" opacity="0.25"></line><line x1="111.70208255449931" y1="0" x2="111.70208255449931" y2="177.89999961853027" fill="rgb(0, 0, 0)" stroke="rgb(60, 60, 60)" stroke-width="1px" opacity="0.25"></line><line x1="134.04249906539917" y1="0" x2="134.04249906539917" y2="177.89999961853027" fill="rgb(0, 0, 0)" stroke="rgb(60, 60, 60)" stroke-width="1px" opacity="0.25"></line><line x1="156.38291557629904" y1="0" x2="156.38291557629904" y2="177.89999961853027" fill="rgb(0, 0, 0)" stroke="rgb(60, 60, 60)" stroke-width="1px" opacity="0.25"></line><line x1="178.72333208719888" y1="0" x2="178.72333208719888" y2="177.89999961853027" fill="rgb(0, 0, 0)" stroke="rgb(60, 60, 60)" stroke-width="1px" opacity="0.25"></line><line x1="201.06374859809875" y1="0" x2="201.06374859809875" y2="177.89999961853027" fill="rgb(0, 0, 0)" stroke="rgb(60, 60, 60)" stroke-width="1px" opacity="0.25"></line><line x1="223.40416510899863" y1="0" x2="223.40416510899863" y2="177.89999961853027" fill="rgb(0, 0, 0)" stroke="rgb(60, 60, 60)" stroke-width="1px" opacity="0.25"></line><line x1="245.74458161989847" y1="0" x2="245.74458161989847" y2="177.89999961853027" fill="rgb(0, 0, 0)" stroke="rgb(60, 60, 60)" stroke-width="1px" opacity="0.25"></line><line x1="268.08499813079834" y1="0" x2="268.08499813079834" y2="177.89999961853027" fill="rgb(0, 0, 0)" stroke="rgb(60, 60, 60)" stroke-width="1px" opacity="0.25"></line></g><g><line x1="0" y1="177.89999961853027" x2="268.08499813079834" y2="177.89999961853027" fill="rgb(0, 0, 0)" stroke="rgb(60, 60, 60)" stroke-width="1px" opacity="0.25"></line><line x1="0" y1="163.07499965031946" x2="268.08499813079834" y2="163.07499965031946" fill="rgb(0, 0, 0)" stroke="rgb(60, 60, 60)" stroke-width="1px" opacity="0.25"></line><line x1="0" y1="148.24999968210858" x2="268.08499813079834" y2="148.24999968210858" fill="rgb(0, 0, 0)" stroke="rgb(60, 60, 60)" stroke-width="1px" opacity="0.25"></line><line x1="0" y1="133.4249997138977" x2="268.08499813079834" y2="133.4249997138977" fill="rgb(0, 0, 0)" stroke="rgb(60, 60, 60)" stroke-width="1px" opacity="0.25"></line><line x1="0" y1="118.59999974568686" x2="268.08499813079834" y2="118.59999974568686" fill="rgb(0, 0, 0)" stroke="rgb(60, 60, 60)" stroke-width="1px" opacity="0.25"></line><line x1="0" y1="103.77499977747603" x2="268.08499813079834" y2="103.77499977747603" fill="rgb(0, 0, 0)" stroke="rgb(60, 60, 60)" stroke-width="1px" opacity="0.25"></line><line x1="0" y1="88.94999980926514" x2="268.08499813079834" y2="88.94999980926514" fill="rgb(0, 0, 0)" stroke="rgb(60, 60, 60)" stroke-width="1px" opacity="0.25"></line><line x1="0" y1="74.12499984105429" x2="268.08499813079834" y2="74.12499984105429" fill="rgb(0, 0, 0)" stroke="rgb(60, 60, 60)" stroke-width="1px" opacity="0.25"></line><line x1="0" y1="59.29999987284343" x2="268.08499813079834" y2="59.29999987284343" fill="rgb(0, 0, 0)" stroke="rgb(60, 60, 60)" stroke-width="1px" opacity="0.25"></line><line x1="0" y1="44.47499990463257" x2="268.08499813079834" y2="44.47499990463257" fill="rgb(0, 0, 0)" stroke="rgb(60, 60, 60)" stroke-width="1px" opacity="0.25"></line><line x1="0" y1="29.649999936421725" x2="268.08499813079834" y2="29.649999936421725" fill="rgb(0, 0, 0)" stroke="rgb(60, 60, 60)" stroke-width="1px" opacity="0.25"></line><line x1="0" y1="14.824999968210863" x2="268.08499813079834" y2="14.824999968210863" fill="rgb(0, 0, 0)" stroke="rgb(60, 60, 60)" stroke-width="1px" opacity="0.25"></line><line x1="0" y1="0" x2="268.08499813079834" y2="0" fill="rgb(0, 0, 0)" stroke="rgb(60, 60, 60)" stroke-width="1px" opacity="0.25"></line></g></g></g><g><g><line x1="0" y1="-44.47499990463257" x2="268.08499813079834" y2="-44.47499990463257" fill="rgb(0, 0, 0)" stroke="rgb(153, 153, 153)" stroke-width="1.5px"></line></g></g><g><g><line x1="-44.68083302179972" y1="0" x2="-44.68083302179972" y2="177.89999961853027" fill="rgb(0, 0, 0)" stroke="rgb(153, 153, 153)" stroke-width="1.5px"></line></g></g><g><g><g><g><g><path style="fill: none;" stroke="rgb(204, 51, 17)" stroke-width="2px" d="M153.48983163813747,104.142584705558L154.85483108695348,16.590767439653764L156.20866032751402,29.645252919154697L157.56248956807454,39.66947977217596L158.91631880863508,46.06716517073239L160.2701480491956,62.63237245468061L161.62397728975614,64.0273063337617L162.97780653031666,31.510147592521474L164.3316357708772,27.401563378178896L165.68546501143774,29.236516557447857L167.03929425199826,29.970085120744486L168.3931234925588,29.288235528598364L169.74695273311931,14.774433694299017L171.10078197367986,22.878008143831934L172.4546112142404,12.581848353813886L173.80844045480092,20.27899877320336L175.17343990361692,29.8645356478116L176.52726914417744,20.371000072754658L177.88109838473798,27.371983915524986L179.2371616669496,34.478479142968226L180.5909909075101,47.73329342075716L181.94482014807065,67.87208839841664L183.2986493886312,71.16021130280662L184.66364883744717,59.44598995259102L186.0174780780077,50.656751083687666L187.37354136021932,22.01851885973905L188.7385408090353,28.967195228162932L190.09237004959584,25.880820133396902L191.44619929015636,14.375758463487543L192.8000285307169,11.085717708597743L194.15385777127742,20.729250978475548L195.5188572200934,1.1263019045565241L196.87268646065394,-0.4086198288386817L199.59151515003046,-1.8285810634466326L200.94534439059098,16.060828020631035L202.29917363115152,40.7742034754366L203.6641730799675,50.691436612338116L205.01800232052804,65.60364177756124L206.37183156108858,72.53378965200936L207.7256608016491,83.2979801430122L209.09066025046508,93.4255971320017L210.45565969928106,63.217587695333165L211.8094889398416,57.14482519234648L213.16331818040211,58.408487010894206L214.51714742096266,36.22155422246104L215.8709766615232,39.31971906315209L217.23597611033915,24.611387912146622L218.5898053508997,31.36901142605443L219.9436345914602,29.0453322556738L221.30863404027622,12.70152264905283L222.66246328083673,8.7227125415146L224.01629252139728,24.29744291297018L225.37012176195782,37.76732381136141L226.72395100251833,46.20375500519288L228.07778024307888,67.95748103723442L229.4316094836394,69.23924060866413L230.78543872419993,64.3636731883613L232.13926796476045,80.4214314259212L233.493097205321,66.65754151105857L234.84916048753263,32.304923553026676L236.2141599363486,42.378812214451465L237.56798917690912,46.23317905030712L238.92181841746967,42.34267204915688L240.27564765803018,31.18923674633814L241.62947689859072,48.91968112941969L242.98330613915124,55.57791463834926L244.33936942136287,31.769445293964864L245.69319866192342,51.549043676524L247.04702790248396,48.07635719438322L248.4120273512999,61.10619724902015" fill="none"></path></g><g><path style="fill: none;" stroke="rgb(255, 112, 67)" stroke-width="2px" d="M7.139997116883595,141.19663262041888L7.787869195699692,132.35704776398734L8.172124359687169,146.7520058696L8.408932774702707,166.11618298741283L8.969677229126294,145.52060335456773L9.434357892553013,145.34372850124313L10.147017179250717,137.0173499184054L10.792655216415723,104.54786588394936L11.02946363143126,102.34143830987298L11.684037835200629,113.45470619302657L11.920846250216167,135.39177036743402L12.157654665231705,130.56697626107487L12.499463037848473,132.11679552839183L12.8502075770696,129.39069465440724L13.087015992085139,109.48516087615475L14.161590026259422,128.99255311376362L14.82286635498206,129.51017903771486L15.059674769997597,157.24087511870584L16.19233388710022,138.38848393914975L16.697227300246556,109.27967517535015L17.249035588065784,110.36314150121657L17.617652460495634,110.67987986634779L18.169460748314858,119.65658954586337L18.406269163330396,123.51769810919511L18.643077578345935,121.81251970145593L18.879885993361473,118.25320002244781L19.266375199000038,122.58431762034893L19.6104176132679,120.76646725922723L20.151055692831676,115.65136890085282L20.633608689467113,112.47056167928811L20.87041710448265,101.00918939313497L21.10722551949819,87.82274323456765L21.50265089174112,95.80065204060104L21.855629472613334,94.19831241544735L22.092437887628872,75.06286056856193L22.49009730152289,94.81122516475762L22.9123311735789,107.28851544145013L23.321160795728364,113.50849368918861L23.557969210743902,131.46126957992794L24.036054124077165,123.19930106736437L24.272862539092703,102.96730009177189L24.50967095410824,124.59586361174019L25.17764940778414,121.96932239450469L25.73169173725446,120.61124557027242L26.124883067846298,129.37735098309625L26.361691482861836,138.66251057056525L26.598499897877375,140.63232732485517L26.835308312892913,144.94352718889064L27.083286936163905,150.15552931474787L27.320095351179443,130.52216856912452L27.55690376619498,105.74972724434849L28.030520596226058,116.1784188682017L28.55998846753438,105.59554052667438L28.79679688254992,101.3403999045572L29.13860525516669,112.31129778130153L29.48041362778346,109.69740928609237L29.717222042798998,115.39430627026698L30.0724346653223,116.85553343008478L31.189455490867296,106.94062253094711L31.540200030088425,114.42914557918412L31.788178653359413,121.03704135698587L32.024987068374955,98.52307656624642L32.36902948264281,108.36268957019648L32.60583789765835,125.70131854611454L33.0839228109916,130.6026157894493L33.32073122600714,125.9656165722723L33.557539641022686,138.8245317201885L34.397539301832516,135.68036573150664L34.63434771684806,119.77095929871685L34.873390173514686,138.97922427979287L35.22190067108472,138.6701824232286L35.458709086100264,138.83198319810904L35.811687666972475,138.67368319700452L36.178070497751236,98.45653966997995L36.51764482871692,118.18107550305712L37.22136794881026,120.07669783159642L37.64583586251736,121.73650503008524L37.8826442775329,122.667048673905L38.119452692548435,139.77825903832903L38.356261107563974,151.58536218510932L38.76509072971344,142.60513592764278L39.10689910233021,138.92582075838536L39.34370751734574,103.57181591314922L39.58051593236129,143.72055883273563L39.81732434737682,101.8285618308443L40.05413276239236,121.73898392985174L40.290941177407895,139.58767082530514L40.75338779918353,124.16897649495813L41.68721720933914,103.10679993473374L41.924025624354684,116.12603215439322L42.527216870148976,109.28289820947872L42.94498265890281,116.23708359492372L43.18179107391834,120.05628508384193L43.52136540488402,120.1479693701622L44.48870543980598,118.29317128053557L44.88859889535109,114.01634397213064L45.424768891612686,123.24001347112113L45.66157730662823,98.96650955638613L45.89838572164376,70.65325610402647L46.90817254793644,78.12076049035721L47.26785325376193,69.37954721593229L47.69455520912012,84.58081741416981L48.19944862226645,42.342574987388154L48.43625703728199,68.84642481702375L48.775831368247665,81.75980860856241L49.11540569921335,89.70209363159229L49.35221411422888,75.14866271754562L49.72083098665873,72.5252260960357L49.957639401674264,67.49301252929007L50.19444781668981,57.60233191021392L50.616681688745814,78.24375979753293L50.85349010376136,86.53769556885261L51.19753251802921,98.98489662036012L51.4455111413002,107.99115533614547L51.68231955631574,106.88580583597422L51.91912797133128,119.40262637902055L52.475404342452684,113.85300914664911L52.71221275746822,108.12691626397525L53.167957254290585,109.84108128322066L53.404765669306116,108.45866003760088L53.64157408432166,114.68165271659097L53.88955270759265,111.88504789789125L54.240297246813775,116.13075248445169L54.655828993916515,112.60538044692291L54.997637366533276,109.81101448996343L55.23444578154882,120.57059564197519L55.47125419656436,119.15265820779996L55.82423277743657,126.4565127562572L56.22412623298168,126.93544361705406L56.47210485625267,123.23045550514196L56.70891327126821,127.78431877766656L57.30763643376032,127.50786852440693L57.54444484877587,124.52544811621829L57.93763617936771,125.96165766369998L58.17444459438324,136.03390465320447L58.6726358825763,131.0343075973659L59.012210213541984,133.94569567904077L59.41880579404036,134.34425910560424L59.6556142090559,153.69351010057272L59.892422624071436,137.61752867132222L60.35486924584706,128.87657834810653L60.69891166011492,127.58407852346983L60.94689028338591,107.28045591020633L61.68188998659452,113.24398299646904L61.91869840161005,104.52322041859576L62.30071952394644,117.45544850693311L62.85699589506785,118.80403847145466L63.20103830933571,121.44540436536766L63.56295305681229,86.30295889071918L63.913697596033415,102.26479293811856L64.62859092438221,113.5505990787293L64.98603758855661,110.4515407125014L65.86178191578388,104.60068688517418L66.09859033079942,109.16125679840314L66.70848370154698,112.77780466628184L66.94529211656253,90.67672770425192L67.18210053157806,71.42077302893051L67.4189089465936,84.61453143230698L67.77188752746582,99.56590816090525L68.1114618584315,95.24396930955176L68.34827027344704,110.86478542743318L68.58507868846259,110.9497933109048L68.8218871034781,111.31670335052394L69.05869551849365,110.52578979423002L69.48092939054966,113.7739458916607L69.71773780556519,129.51467924681464L70.09305680294833,128.8931030395834L70.46167367537815,123.65986083785832L70.6984820903937,104.42070478240664L70.93529050540924,128.25220827186297L71.18326912868024,127.52006879050701L71.42007754369577,121.81413845957289L71.85348162400723,131.3042375707489L72.09029003902278,114.00939831772843L72.32709845403829,113.11245076898338L72.56390686905384,98.73478348129393L72.81188549232483,97.88172202421579L73.28103423905372,107.5145452285566L73.70326811110972,102.11953451166745L73.95124673438072,108.48346749869373L74.29752319029967,106.57704924704039L74.54550181357067,106.22528774917961L74.88954422783851,114.30656297527342L75.12635264285406,120.08582633641151L75.47262909877301,118.31273436614386L75.72060772204398,120.01268503684771L76.48688400836785,117.46759238013402L76.7236924233834,116.52455579760266L76.9716710466544,121.96512759564715L77.20847946166991,129.8271850291436L77.5480537926356,127.50850694589215L77.78486220765114,120.82524441849058L78.1266705802679,122.80580165935439L78.47071299453577,119.36892722617044L78.70752140955129,126.24163734031119L78.94432982456684,99.03845447202032L79.28613819718362,102.34721375887054L80.06805277506511,106.56330840730571L80.30486119008064,109.9998172460379L80.73156314543883,111.6209811602325L80.96837156045437,118.08029478971228L81.2051799754699,123.70330973428064L81.56039259799321,125.99552264920416L81.79720101300875,143.25284944696597L82.03400942802429,142.05978667073452L82.61486025730768,115.67606050808466L82.85166867232323,133.3468580820335L83.32081741905213,131.16059050547773L83.55762583406765,123.33898739145629L83.90390228998662,122.56621420237916L84.14071070500215,109.77415792148149L84.37751912001768,120.51974576525964L84.61432753503323,108.64496606494275L85.0901784067154,114.5610834955741L85.4654974040985,138.5011314689978L85.70230581911404,171.46965503816406L85.93911423412959,122.21107561451697L86.18709285740057,115.62832030620791L86.59145439624787,123.07405172883844L86.82826281126341,110.75012111319575L87.2326243501107,122.3243211561594L87.57443272272745,122.00420313867389L87.91624109534423,124.49113535995033L88.15304951035976,129.85586849224782L88.3898579253753,115.61868342702198L88.62666634039084,117.46402431573324L89.16507037830353,117.51804620458617L89.40187879331907,134.59156723905036L89.6386872083346,116.66594024908156L89.87549562335015,108.55544979060306L90.11230403836568,120.3428540508319L90.45411241098245,121.871995893336L90.69092082599799,129.572310537183L90.92772924101352,146.1155709654766L91.16453765602907,136.68049619361688L91.4013460710446,117.98989153009924L91.64038852771122,93.58186394127756L91.87719694272677,109.98034079752343L92.11400535774231,91.1648214052595L92.36198398101331,111.13326674820398L92.8959199356238,117.80616512196437L93.13272835063934,119.2809253195774L93.36953676565489,135.628467340188L93.60857922232151,135.6228840975559L93.84538763733705,154.47940056673292L94.09336626060804,117.16446389225722L94.33017467562357,109.21436404626121L94.56698309063911,110.84826909891775L94.81496171391011,92.27509363128289L95.05177012892564,107.77448601799676L95.3980465848446,105.50573360881087L95.63485499986012,112.57627900889422L95.87166341487567,117.75940770349752L96.1084718298912,132.86031280853484L96.34528024490675,133.52943248533413L96.69602478412787,131.50350416956547L97.06240761490662,117.42676476388488L97.4042159875234,118.35485695223565L97.64102440253895,97.71601722338227L97.87783281755446,79.44026045090999L98.11464123257001,96.86021573387762L98.46091768848896,103.21810009728449L98.6977261035045,101.90116432679386L98.93453451852004,117.27683113233785L99.34783222397168,119.82600386901623L99.58464063898722,121.72166094415705L99.92421496995291,115.22791467549554L100.16102338496843,128.35101520859993L100.39783179998398,145.2481978976437L100.63464021499952,171.54101636515142L100.88261883827052,146.10194877280543L101.11942725328603,154.76581814856928L101.46793775085608,142.8298654099979L101.70474616587163,110.11178352966202L101.94155458088716,89.8249783506234L102.17836299590269,113.29968642372724L102.64080961767833,110.43242114488122L103.02059669836362,108.56323068490589L103.25740511337916,96.56507199224811L103.4942135283947,130.7216991194083L103.73102194341024,87.56566192891863L103.97900056668124,100.72842201561056L104.21580898169677,79.90657812396353L104.45485143836339,90.65777306570561L104.69165985337894,99.88686708836562L104.92846826839448,111.74167418146241L105.16527668341,91.10589925115191L105.40208509842554,122.31740533069505L105.65006372169654,121.88770338093468L105.88687213671209,120.6540223848777L106.1236805517276,120.7903702787058L106.36048896674315,119.77119150847051L106.5972973817587,137.60321095907412L106.99048871235053,124.20447761680308L107.22729712736607,133.326794325177L107.4641055423816,142.87686988928843L107.70091395739715,139.83621195317912L107.94889258066813,134.69037778341925L108.19687120393912,135.44998460923907L108.43367961895466,134.1404282509982L108.67048803397019,122.51039561973796L108.90729644898573,97.3073246174114L109.14410486400128,126.66187983731962L109.38091327901681,126.79515834036953L109.61772169403235,124.11739018828189L109.85453010904789,135.22656195767723L110.19410444001358,138.75049913693076L110.4309128550291,127.70193844960338L110.66995531169573,130.3511293259067L110.90676372671128,114.66292839201826L111.14357214172682,122.20513325386699L111.38038055674235,122.41720725531407L111.61718897175788,94.48478693793906L111.86516759502888,84.55564220163981L112.10197601004442,114.76680597649556L112.33878442505996,137.23485729091485L112.57559284007549,105.76408253560409L112.81240125509103,117.27469869368913L113.06037987836203,113.82387991028506L113.30835850163301,115.54841429369267L113.54516691664854,64.77796455093552L113.78197533166409,70.80573361055974L114.01878374667963,76.71621548218484L114.25559216169516,83.13857235659928L114.4924005767107,104.51993962880395L114.74037919998169,103.15965835634027L114.97718761499723,125.04114978174238L115.21399603001277,128.86952917658712L115.4508044450283,108.34596920503597L115.68761286004384,106.6886415457639L116.02942123266061,114.61051005367402L116.26846368932723,118.48760485027194L116.73984647770723,105.19716199162448L116.97888893437386,110.45572394128487L117.21569734938939,91.93995392836479L117.55527168035508,102.30588516985131L117.79208009537061,97.45600717227211L118.0400587186416,85.56691785641705L118.27686713365713,72.53844436086447L118.51367554867268,60.543537839079335L118.7527180053393,114.56103361151949L119.0006966286103,97.38570363697858L119.23750504362583,131.40306194857183L119.48548366689681,120.46601294047247L119.73346229016781,138.25151116212035L119.97027070518335,153.4631409424118L120.20931316184998,126.39407538938748L120.44612157686551,120.42769030407912L120.68292999188105,124.58253131330883L120.9197384068966,100.4455342166225L121.15654682191213,116.03455151625627L121.39335523692766,110.50242029518402L121.6301636519432,113.98137734435522L121.86697206695875,102.62684611907783L122.10378048197428,57.87185121283711L122.35175910524526,66.78143638087936L122.58856752026081,100.47946920741052L122.82760997692743,119.45161585845989L123.06665243359407,111.87027321145912L123.30346084860962,103.99735962581653L123.54026926362513,109.07026364381133L123.77707767864068,129.5422228843859L124.02505630191168,100.22387544640897L124.27303492518267,104.61875607326988L124.50984334019819,126.5331320787481L124.9097367957433,116.5882449580405L125.14654521075884,104.19157639810025L125.50175783328216,102.38788194164147L125.7385662482977,96.65359386881417L125.97537466331323,105.9217271383848L126.22335328658421,118.52811596146242L126.46016170159976,100.90373085728356L126.6969701166153,107.33071345721956L126.93377853163082,122.93758555457387L127.17058694664637,108.44161287146513L127.40739536166191,110.93178524700996L127.64420377667746,117.50582684218863L128.04856531552474,114.99557038684988L128.28537373054027,122.27724470926948L128.5221821455558,98.57313118288171L128.75899056057136,80.08920422478982L128.998033017238,100.47242940084115L129.41356476434072,110.32192095347945L129.65037317935625,132.5662015017916L129.88718159437178,118.20338397360527L130.12399000938734,132.15377684359788L130.36079842440287,125.08620551556675L130.59760683941843,80.09766197198653L130.83441525443394,90.24850064168031L131.0712236694495,107.73358875794705L131.30803208446503,126.82084831901686L131.54484049948059,112.47034414155048L131.7816489144961,141.19415888562617L132.01845732951165,135.87326547247787L132.25526574452718,141.8432160773433L132.49207415954274,100.38095345312558L132.72888257455824,112.38349182934361L132.9656909895738,133.90003502796924L133.20249940458933,145.82872417849956L133.4393078196049,127.96302600994694L133.68728644287586,118.40654653560486L133.9240948578914,121.42944039538529L134.16090327290695,119.61616173186023L134.39994572957355,123.02977781717281L134.6367541445891,137.33064733132963L134.87356255960464,130.76227655044917L135.1103709746202,98.00579095839933L135.34717938963573,108.99239065798449L135.58398780465126,104.0138551578477L135.82079621966682,75.4090161660523L136.06877484293778,94.45431285374804L136.31675346620875,97.20358292634673L136.5535618812243,88.34861413045697L136.8015405044953,96.11065587251242L137.2282424598535,107.57420199510092L137.46505087486904,111.89975768453158L137.86494433041415,107.5971720169285L138.31175266063212,113.17965721554356L138.54856107564765,115.86954727359075L138.78536949066321,85.6782658763236L139.02217790567875,79.21764644843395L139.2589863206943,58.74701422409365L139.49579473570984,92.69031953746793L139.7437733589808,89.23407954537791L139.98058177399636,105.65752565064827L140.21962423066296,90.82491507637882L140.45643264567852,54.90623283139124L140.7044112689495,48.60792468542469L140.94121968396507,62.287971323659704L141.17802809898058,56.65999975803161L141.4148365139961,52.5596866953333L141.65164492901167,50.20846257425584L141.8884533440272,24.118025088404366L142.12526175904273,52.9533100689369L142.3620701740583,71.43469562369829L142.59887858907382,87.17797534403223L142.83568700408938,86.74126876413298L143.07249541910488,61.72613460950002L143.3093038341204,65.88573463918604L143.54611224913597,65.64858081857042L143.7829206641515,78.82520470668346L144.01972907916706,74.90608085582467L144.2565374941826,102.68629392812694L144.49334590919813,83.04621807020276L144.7301543242137,66.94775281830069L144.9669627392292,73.05377613158778L145.20377115424472,42.83728461479962L145.44281361091137,69.72951404766404L145.681856067578,84.73026825151118L145.91866448259353,74.46647912717414L146.1554728976091,62.35583537562241L146.3945153542757,58.17663808091854L146.6424939775467,72.91142333657632L146.89047260081767,58.36076793419538L147.13845122408867,55.31346928265878L147.3752596391042,64.41892803342228L147.6232382623752,54.87625263419231L147.86004667739076,56.98580244768151L148.0968550924063,88.37768372115409L148.3336635074218,68.5247793599451L148.57047192243735,55.94490414893449L148.80728033745288,75.34886988761819L149.04408875246844,97.943352087686L149.28089716748397,95.91021312875884L149.5177055824995,71.88761815901962L149.75451399751506,83.49669974777258L149.9913224125306,74.3825856765909L150.2281308275461,65.67671188107884L150.46493924256166,75.14159821203819L150.7039816992283,78.37341590586819L150.95196032249927,78.58166123843539L151.1887687375148,75.8762469064095L151.42557715253037,81.14884967353034L151.6623855675459,72.12271050313626L151.89919398256143,105.2145901442533L152.13600239757696,96.504483656899L152.38398102084795,78.44309262121986" fill="none"></path></g></g></g></g><g opacity="0.2"><g><g><g><path style="fill: none;" stroke="rgb(204, 51, 17)" stroke-width="2px" d="M153.48983163813747,104.142584705558L154.85483108695348,-35.94032291988879L156.20866032751402,42.177558979475556L157.56248956807454,51.45797055132902L158.91631880863508,54.419983227087656L160.2701480491956,85.54801760300322L161.62397728975614,66.02208409978974L162.97780653031666,-15.900182016930682L164.3316357708772,21.342199713421376L165.68546501143774,31.961208175878934L167.03929425199826,31.06378455281092L168.3931234925588,28.269171735749193L169.74695273311931,-6.948878975958348L171.10078197367986,35.017494072183155L172.4546112142404,-2.8502885818830066L173.80844045480092,31.81929577546075L175.17343990361692,44.2387846817671L176.52726914417744,6.133107117823359L177.88109838473798,37.872393150256904L179.2371616669496,45.13757242232049L180.5909909075101,67.61478791192413L181.94482014807065,98.07961818927882L183.2986493886312,76.09233074114073L184.66364883744717,41.87479669338721L186.0174780780077,37.4729552504808L187.37354136021932,-20.93870734720526L188.7385408090353,39.39019200104042L190.09237004959584,21.251262229560623L191.44619929015636,-2.881823443588665L192.8000285307169,6.15065839461853L194.15385777127742,35.194547685391704L195.5188572200934,-28.278117805991315L198.23768590946992,-20.11836740754462L199.59151515003046,7.867325692890331L200.94534439059098,42.89494118545014L202.29917363115152,77.84426627528858L203.6641730799675,65.56728622562882L205.01800232052804,87.97194944233809L206.37183156108858,82.92901144052188L207.7256608016491,99.44426585793293L209.09066025046508,108.61702260330162L210.45565969928106,17.905573562135828L211.8094889398416,48.03568144049666L213.16331818040211,60.303979738387376L214.51714742096266,2.9411550432706637L215.8709766615232,43.96696632389883L217.23597611033915,2.5488911864640027L218.5898053508997,41.505446696688566L219.9436345914602,25.55981350014978L221.30863404027622,-11.814191760680455L222.66246328083673,2.7544973802361685L224.01629252139728,47.6595384700856L225.37012176195782,57.97214515891294L226.72395100251833,58.8584017959269L228.07778024307888,100.58807008527621L229.4316094836394,71.16187996580794L230.78543872419993,57.050322057908744L232.13926796476045,104.5080687822577L233.493097205321,46.01170663876633L234.84916048753263,-19.224003384018634L236.2141599363486,57.48964520658819L237.56798917690912,52.01472930409053L238.92181841746967,36.5069115474316L240.27564765803018,14.459083792110121L241.62947689859072,75.51534770404191L242.98330613915124,65.56526490174366L244.33936942136287,-3.9432587226116915L245.69319866192342,81.21844125036269L247.04702790248396,42.867327471172L248.4120273512999,80.65095733097556" fill="none"></path></g><g><path style="fill: none;" stroke="rgb(255, 112, 67)" stroke-width="2px" d="M7.139997116883595,141.19663262041888L7.787869195699692,127.0532968501284L8.172124359687169,160.5711656509882L8.408932774702707,188.88845527796076L8.969677229126294,118.6310145859252L9.434357892553013,145.09904690414805L10.147017179250717,125.11049532289007L10.792655216415723,57.20704645466575L11.02946363143126,99.08738621460229L11.684037835200629,129.95661381481744L11.920846250216167,168.09839907155128L12.157654665231705,123.35604141800007L12.499463037848473,134.4364640005596L12.8502075770696,125.30688405883619L13.087015992085139,79.65025841650728L14.161590026259422,158.23988334579934L14.82286635498206,130.28639888169837L15.059674769997597,198.82987841946138L16.19233388710022,110.11276914186261L16.697227300246556,65.61912269007173L17.249035588065784,111.98828157014798L17.617652460495634,111.15497699163377L18.169460748314858,133.1214768356633L18.406269163330396,129.30931521568078L18.643077578345935,119.25476420952548L18.879885993361473,112.91423568280818L19.266375199000038,129.08098293505773L19.6104176132679,118.03969450837317L20.151055692831676,107.97872607501964L20.633608689467113,107.69935260492487L20.87041710448265,83.81713476462103L21.10722551949819,68.04307662037803L21.50265089174112,107.76751429724902L21.855629472613334,91.79480309248909L22.092437887628872,46.359683620613694L22.49009730152289,124.43377154981863L22.9123311735789,126.00445066344477L23.321160795728364,122.83846100305638L23.557969210743902,158.39043331604373L24.036054124077165,110.80634832612944L24.272862539092703,72.61929866895088L24.50967095410824,157.0387088656718L25.17764940778414,118.0295105705474L25.73169173725446,118.57413033451223L26.124883067846298,142.52650910005397L26.361691482861836,152.59024995032104L26.598499897877375,143.5870524561058L26.835308312892913,151.41032698470195L27.083286936163905,157.97353250335814L27.320095351179443,101.07212745108625L27.55690376619498,68.5910652574848L28.030520596226058,131.82145630390573L28.55998846753438,89.72122301442951L28.79679688254992,94.95768897139263L29.13860525516669,128.76764459640086L29.48041362778346,105.77657654328105L29.717222042798998,123.93965174652564L30.0724346653223,119.04737416981095L31.189455490867296,92.06825618224264L31.540200030088425,125.66193015153877L31.788178653359413,130.94888502368804L32.024987068374955,64.75212938013821L32.36902948264281,123.1221090761214L32.60583789765835,151.70926200999133L33.0839228109916,137.95456165445137L33.32073122600714,119.0101177465069L33.557539641022686,158.11290444206276L34.397539301832516,130.96411674848383L34.63434771684806,95.90684964953218L34.873390173514686,167.7916217514069L35.22190067108472,138.2066196383822L35.458709086100264,139.07468436042973L35.811687666972475,138.43623319534777L36.178070497751236,38.13082437944313L36.51764482871692,147.76787925267286L37.22136794881026,122.9201313244054L37.64583586251736,124.22621582781844L37.8826442775329,124.0628641396347L38.119452692548435,165.44507458496508L38.356261107563974,169.2960169052798L38.76509072971344,129.13479654144297L39.10689910233021,133.40684800449927L39.34370751734574,50.54080864529496L39.58051593236129,203.9436732121153L39.81732434737682,38.99056632800722L40.05413276239236,151.6046170783629L40.290941177407895,166.36070116848526L40.75338779918353,101.04093499943765L41.68721720933914,71.51353509439716L41.924025624354684,135.65488048388238L42.527216870148976,99.01819729210699L42.94498265890281,126.66836167309117L43.18179107391834,125.78508731721925L43.52136540488402,120.28549579964263L44.48870543980598,115.51097414609563L44.88859889535109,107.60110300952326L45.424768891612686,137.07551771960686L45.66157730662823,62.55625368428362L45.89838572164376,28.183375925487013L46.90817254793644,89.32201706985335L47.26785325376193,56.26772730429493L47.69455520912012,107.38272271152603L48.19944862226645,-21.014788652784382L48.43625703728199,108.60219956147712L48.775831368247665,101.1298842958704L49.11540569921335,101.61552116613713L49.35221411422888,53.318516346475626L49.72083098665873,68.59007116377079L49.957639401674264,59.94469217917167L50.19444781668981,42.766310981599716L50.616681688745814,109.20590162851147L50.85349010376136,98.97859922583214L51.19753251802921,117.6556981976214L51.4455111413002,121.5005434098235L51.68231955631574,105.22778158571735L51.91912797133128,138.17785719359009L52.475404342452684,105.52858329809196L52.71221275746822,99.53777693996442L53.167957254290585,112.41232881208876L53.404765669306116,106.38502816917124L53.64157408432166,124.01614173507609L53.88955270759265,107.69014066984168L54.240297246813775,122.4993093642923L54.655828993916515,107.3173223906297L54.997637366533276,105.61946555452415L55.23444578154882,136.70996736999288L55.47125419656436,117.02575205653712L55.82423277743657,137.41229457894303L56.22412623298168,127.65383990824932L56.47210485625267,117.6729733372738L56.70891327126821,134.61511368645344L57.30763643376032,127.09319314451746L57.54444484877587,120.05181750393533L57.93763617936771,128.1159719849225L58.17444459438324,151.1422751374612L58.6726358825763,123.53491201360814L59.012210213541984,138.31277780155307L59.41880579404036,134.94210424544943L59.6556142090559,182.71738659302554L59.892422624071436,113.50355652744646L60.35486924584706,115.76515286328302L60.69891166011492,125.64532878651475L60.94689028338591,76.82502199031111L61.68188998659452,122.1892736258631L61.91869840161005,91.44207655178589L62.30071952394644,136.85379063943913L62.85699589506785,120.82692341823693L63.20103830933571,125.40745320623716L63.56295305681229,33.58929067874648L63.913697596033415,126.20754400921761L64.62859092438221,130.47930828964545L64.98603758855661,105.80295316315953L65.86178191578388,95.82440614418337L66.09859033079942,116.00211166824657L66.70848370154698,118.2026264680999L66.94529211656253,57.52511226120703L67.18210053157806,42.5368410159484L67.4189089465936,104.40516903737165L67.77188752746582,121.99297325380267L68.1114618584315,88.76106103252155L68.34827027344704,134.2960096042553L68.58507868846259,111.07730513611223L68.8218871034781,111.86706840995267L69.05869551849365,109.33941945978911L69.48092939054966,118.64618003780676L69.71773780556519,153.1257792795455L70.09305680294833,127.96073872873654L70.46167367537815,115.80999753527072L70.6984820903937,75.56197069922912L70.93529050540924,163.99946350604748L71.18326912868024,126.4218595684731L71.42007754369577,113.25524296317175L71.85348162400723,145.53938623751293L72.09029003902278,88.06713943819769L72.32709845403829,111.76702944586583L72.56390686905384,77.16828254975978L72.81188549232483,96.60212983859853L73.28103423905372,121.96378003506783L73.70326811110972,94.02701843633372L73.95124673438072,118.02936697923315L74.29752319029967,103.71742186956037L74.54550181357067,105.69764550238843L74.88954422783851,126.42847581441414L75.12635264285406,128.7547213781187L75.47262909877301,115.65309641074235L75.72060772204398,122.56261104290351L76.48688400836785,113.64995339506343L76.7236924233834,115.11000092380566L76.9716710466544,130.12598529271384L77.20847946166991,141.62027117938834L77.5480537926356,124.03048982101501L77.78486220765114,110.80035062738823L78.1266705802679,125.77663752065014L78.47071299453577,114.21361557639449L78.70752140955129,136.5507025115223L78.94432982456684,58.23368016958404L79.28613819718362,107.31035268914589L80.06805277506511,112.88745037995838L80.30486119008064,115.15458050413628L80.73156314543883,114.05272703152434L80.96837156045437,127.76926523393193L81.2051799754699,132.1378321511332L81.56039259799321,129.43384202158944L81.79720101300875,169.13883964360863L82.03400942802429,140.2701925063874L82.61486025730768,76.10047126410993L82.85166867232323,159.85305444295668L83.32081741905213,127.88118914064408L83.55762583406765,111.60658272042414L83.90390228998662,121.40705441876345L84.14071070500215,90.58607350013506L84.37751912001768,136.63812753092688L84.61432753503323,90.83279651446736L85.0901784067154,123.4352596415212L85.4654974040985,174.41120342913334L85.70230581911404,220.92244039191343L85.93911423412959,48.323206479046334L86.18709285740057,105.75418734374433L86.59145439624787,134.24264886278422L86.82826281126341,92.26422518973172L87.2326243501107,139.68562122060493L87.57443272272745,121.52402611244564L87.91624109534423,128.22153369186498L88.15304951035976,137.9029681906941L88.3898579253753,94.26290582918327L88.62666634039084,120.23203564880016L89.16507037830353,117.59907903786551L89.40187879331907,160.20184879074668L89.6386872083346,89.77749976412836L89.87549562335015,96.38971410288539L90.11230403836568,138.02396044117518L90.45411241098245,124.16570865709218L90.69092082599799,141.12278250295344L90.92772924101352,170.930461607917L91.16453765602907,122.52788403582733L91.4013460710446,89.9539845348228L91.64038852771122,56.96982255804513L91.87719694272677,134.57805608189219L92.11400535774231,62.941542316863625L92.36198398101331,141.0859347626207L92.8959199356238,127.81551268260496L93.13272835063934,121.493065615997L93.36953676565489,160.14978037110382L93.60857922232151,135.61450923360778L93.84538763733705,182.7641752704984L94.09336626060804,61.19205888054367L94.33017467562357,97.28921427726713L94.56698309063911,113.29912667790256L94.81496171391011,64.41533042983063L95.05177012892564,131.02357459806754L95.3980465848446,102.10260499503205L95.63485499986012,123.18209710901924L95.87166341487567,125.53410074540241L96.1084718298912,155.5116704660908L96.34528024490675,134.53311200053307L96.69602478412787,128.46461169591257L97.06240761490662,96.31165565536395L97.4042159875234,119.74699523476183L97.64102440253895,66.75775763010215L97.87783281755446,52.02662529220155L98.11464123257001,122.99014865832905L98.46091768848896,112.75492664239475L98.6977261035045,99.92576067105794L98.93453451852004,140.34033134065385L99.34783222397168,123.64976297403376L99.58464063898722,124.5651465568683L99.92421496995291,105.48729527250329L100.16102338496843,148.03566600825653L100.39783179998398,170.59397193120935L100.63464021499952,210.980244066413L100.88261883827052,107.94334738428648L101.11942725328603,167.76162221221512L101.46793775085608,124.92593630214073L101.70474616587163,61.03466070915829L101.94155458088716,59.39477058206542L102.17836299590269,148.51174853338304L102.64080961767833,106.13152322661222L103.02059669836362,105.7594449949429L103.25740511337916,78.56783395326146L103.4942135283947,181.95663981014857L103.73102194341024,22.831606143184118L103.97900056668124,120.47256214564845L104.21580898169677,48.673812286492996L104.45485143836339,106.78456547831874L104.69165985337894,113.73050812235562L104.92846826839448,129.52388482110763L105.16527668341,60.15223685568614L105.40208509842554,169.13466445000978L105.65006372169654,121.24315045629415L105.88687213671209,118.80350089079215L106.1236805517276,120.99489211944798L106.36048896674315,118.24242335311754L106.5972973817587,164.35124013497952L106.99048871235053,104.1063776033965L107.22729712736607,147.0102693877379L107.4641055423816,157.20198323545557L107.70091395739715,135.27522504901515L107.94889258066813,126.97162652877938L108.19687120393912,136.58939484796883L108.43367961895466,132.176093713637L108.67048803397019,105.06534667284764L108.90729644898573,59.50271811392152L109.14410486400128,170.69371266718198L109.38091327901681,126.99507609494438L109.61772169403235,120.10073796015048L109.85453010904789,151.89031961177022L110.19410444001358,144.03640490581108L110.4309128550291,111.1290974186123L110.66995531169573,134.3249156403616L110.90676372671128,91.13062699118564L111.14357214172682,133.51844054664008L111.38038055674235,122.73531825748469L111.61718897175788,52.58615646187657L111.86516759502888,69.66192509719096L112.10197601004442,160.08355163877914L112.33878442505996,170.93693426254382L112.57559284007549,58.557920402637926L112.81240125509103,134.54062293081674L113.06037987836203,108.64765173517894L113.30835850163301,118.13521586880411L113.54516691664854,-11.377710063200226L113.78197533166409,79.84738719999605L114.01878374667963,85.58193828962249L114.25559216169516,92.77210766822093L114.4924005767107,136.59199053711097L114.74037919998169,101.11923644764474L114.97718761499723,157.8633869198455L115.21399603001277,134.61209826885425L115.4508044450283,77.56062924770926L115.68761286004384,104.20265005685579L116.02942123266061,126.4933128155392L116.26846368932723,124.30324704516873L116.73984647770723,85.26149770365328L116.97888893437386,118.3435668657755L117.21569734938939,64.16629890898469L117.55527168035508,117.85478203208106L117.79208009537061,90.1811901759033L118.0400587186416,67.73328388263447L118.27686713365713,52.995734117535626L118.51367554867268,42.55117805640161L118.7527180053393,195.58727727017973L119.0006966286103,71.6227086751672L119.23750504362583,182.4290994159618L119.48548366689681,104.06043942832339L119.73346229016781,164.9297584945922L119.97027070518335,176.28058561284894L120.20931316184998,85.79047705985097L120.44612157686551,111.47811267611654L120.68292999188105,130.81479282715338L120.9197384068966,64.24003857159302L121.15654682191213,139.41807746570692L121.39335523692766,102.20422346357559L121.6301636519432,119.19981291811197L121.86697206695875,85.59504928116175L122.10378048197428,-9.260641146524023L122.35175910524526,80.14581413294273L122.58856752026081,151.02651844720725L122.82760997692743,147.9098358350339L123.06665243359407,100.49825924095799L123.30346084860962,92.18798924735263L123.54026926362513,116.67961967080352L123.77707767864068,160.2501617452477L124.02505630191168,56.24635428944365L124.27303492518267,111.21107701356124L124.50984334019819,159.40469608696543L124.9097367957433,101.67091427697908L125.14654521075884,85.5965735581899L125.50175783328216,99.68234025695331L125.7385662482977,88.05216175957322L125.97537466331323,119.82392704274072L126.22335328658421,137.4376991960789L126.46016170159976,74.46715320101525L126.6969701166153,116.97118735712351L126.93377853163082,146.34789370060537L127.17058694664637,86.69765384680204L127.40739536166191,114.6670438103272L127.64420377667746,127.36688923495663L128.04856531552474,111.23018570384171L128.28537373054027,133.19975619289895L128.5221821455558,63.01696089330007L128.75899056057136,52.363313787652004L128.998033017238,131.04726716491817L129.41356476434072,125.09615828243687L129.65037317935625,165.93262232425985L129.88718159437178,96.65915768132574L130.12399000938734,153.07936614858681L130.36079842440287,114.48484852352006L130.59760683941843,12.614846656616189L130.83441525443394,105.474758646221L131.0712236694495,133.96122093234715L131.30803208446503,155.45173766062155L131.54484049948059,90.94458787535096L131.7816489144961,184.27988100173962L132.01845732951165,127.89192535275542L132.25526574452718,150.79814198464135L132.49207415954274,38.187559516799L132.72888257455824,130.3872993936707L132.9656909895738,166.17484982590767L133.20249940458933,163.7217579042951L133.4393078196049,101.16447875711805L133.68728644287586,104.07182732409169L133.9240948578914,125.96378118505594L134.16090327290695,116.89624373657266L134.39994572957355,128.1502019451417L134.6367541445891,158.78195160256487L134.87356255960464,120.90972037912849L135.1103709746202,48.87106257032457L135.34717938963573,125.47229020736224L135.58398780465126,96.5460519076425L135.82079621966682,32.50175767835919L136.06877484293778,123.02225788529167L136.31675346620875,101.32748803524474L136.5535618812243,75.06616093662231L136.8015405044953,107.75371848559566L137.2282424598535,124.76952117898364L137.46505087486904,118.38809121867757L137.86494433041415,101.14329351552385L138.31175266063212,121.55338501346615L138.54856107564765,119.9043823606615L138.78536949066321,40.391343780422844L139.02217790567875,69.5267173065995L139.2589863206943,28.041065887583198L139.49579473570984,143.60527750752937L139.7437733589808,84.04971955724292L139.98058177399636,130.2926948085538L140.21962423066296,68.57599921497466L140.45643264567852,1.0282094639098514L140.7044112689495,39.16046246647489L140.94121968396507,82.80804128101222L141.17802809898058,48.21804240958947L141.4148365139961,46.40921710128583L141.65164492901167,46.68162639263964L141.8884533440272,-15.017631140372842L142.12526175904273,96.20623753973574L142.3620701740583,99.15677395584039L142.59887858907382,110.79289492453313L142.83568700408938,86.08620889428411L143.07249541910488,24.203433377550535L143.3093038341204,72.12513468371505L143.54611224913597,65.29285008764698L143.7829206641515,98.59014053885302L144.01972907916706,69.0273950795365L144.2565374941826,144.35661353658034L144.49334590919813,53.58610428331647L144.7301543242137,42.80005494044761L144.9669627392292,82.21281110151841L145.20377115424472,-2.4874526603825693L145.44281361091137,110.06785819696066L145.681856067578,107.23139955728185L145.91866448259353,59.070795440668604L146.1554728976091,44.189869748294804L146.3945153542757,51.907842138862705L146.6424939775467,95.013601220063L146.89047260081767,36.53478483062394L147.13845122408867,50.74252130535391L147.3752596391042,78.07711615956754L147.6232382623752,40.56223953534737L147.86004667739076,60.15012716791531L148.0968550924063,135.46550563136293L148.3336635074218,38.74542281813163L148.57047192243735,37.07509133241854L148.80728033745288,104.45481849564374L149.04408875246844,131.8350753877877L149.28089716748397,92.86050469036809L149.5177055824995,35.853725704410834L149.75451399751506,100.91032213090207L149.9913224125306,60.711414569818416L150.2281308275461,52.617901187810716L150.46493924256166,89.33892770847727L150.7039816992283,83.22114244661314L150.95196032249927,78.89402923728623L151.1887687375148,71.81812540837072L151.42557715253037,89.05775382421157L151.6623855675459,58.58350174754519L151.89919398256143,154.85240960592887L152.13600239757696,83.43932392586757L152.38398102084795,51.35100606770123" fill="none"></path></g></g></g></g></g></g><g transform="translate(61, 177)" clip-path="url(#clip_1)"><clipPath id="clip_1"><rect width="268" height="22"></rect></clipPath><g><g><line x1="0" y1="0" x2="0" y2="5" style="visibility: inherit;" fill="rgb(0, 0, 0)" stroke="rgb(204, 204, 204)" stroke-width="1px"></line><line x1="22.34041651089986" y1="0" x2="22.34041651089986" y2="5" style="visibility: inherit;" fill="rgb(0, 0, 0)" stroke="rgb(204, 204, 204)" stroke-width="1px"></line><line x1="44.68083302179972" y1="0" x2="44.68083302179972" y2="5" style="visibility: inherit;" fill="rgb(0, 0, 0)" stroke="rgb(204, 204, 204)" stroke-width="1px"></line><line x1="67.02124953269958" y1="0" x2="67.02124953269958" y2="5" style="visibility: inherit;" fill="rgb(0, 0, 0)" stroke="rgb(204, 204, 204)" stroke-width="1px"></line><line x1="89.36166604359944" y1="0" x2="89.36166604359944" y2="5" style="visibility: inherit;" fill="rgb(0, 0, 0)" stroke="rgb(204, 204, 204)" stroke-width="1px"></line><line x1="111.70208255449931" y1="0" x2="111.70208255449931" y2="5" style="visibility: inherit;" fill="rgb(0, 0, 0)" stroke="rgb(204, 204, 204)" stroke-width="1px"></line><line x1="134.04249906539917" y1="0" x2="134.04249906539917" y2="5" style="visibility: inherit;" fill="rgb(0, 0, 0)" stroke="rgb(204, 204, 204)" stroke-width="1px"></line><line x1="156.38291557629904" y1="0" x2="156.38291557629904" y2="5" style="visibility: inherit;" fill="rgb(0, 0, 0)" stroke="rgb(204, 204, 204)" stroke-width="1px"></line><line x1="178.72333208719888" y1="0" x2="178.72333208719888" y2="5" style="visibility: inherit;" fill="rgb(0, 0, 0)" stroke="rgb(204, 204, 204)" stroke-width="1px"></line><line x1="201.06374859809875" y1="0" x2="201.06374859809875" y2="5" style="visibility: inherit;" fill="rgb(0, 0, 0)" stroke="rgb(204, 204, 204)" stroke-width="1px"></line><line x1="223.40416510899863" y1="0" x2="223.40416510899863" y2="5" style="visibility: inherit;" fill="rgb(0, 0, 0)" stroke="rgb(204, 204, 204)" stroke-width="1px"></line><line x1="245.74458161989847" y1="0" x2="245.74458161989847" y2="5" style="visibility: inherit;" fill="rgb(0, 0, 0)" stroke="rgb(204, 204, 204)" stroke-width="1px"></line><line x1="268.08499813079834" y1="0" x2="268.08499813079834" y2="5" style="visibility: inherit;" fill="rgb(0, 0, 0)" stroke="rgb(204, 204, 204)" stroke-width="1px"></line></g><g transform="translate(0, 8)"><text style="text-anchor: middle; visibility: hidden; font-family: Roboto, sans-serif; font-size: 12px; font-weight: 200;" x="0" y="0" dx="0em" dy="0.95em" fill="rgb(50, 49, 63)" stroke="none" stroke-width="1px">20k</text><text style="text-anchor: middle; visibility: inherit; font-family: Roboto, sans-serif; font-size: 12px; font-weight: 200;" x="22.34041651089986" y="0" dx="0em" dy="0.95em" fill="rgb(50, 49, 63)" stroke="none" stroke-width="1px">30k</text><text style="text-anchor: middle; visibility: hidden; font-family: Roboto, sans-serif; font-size: 12px; font-weight: 200;" x="44.68083302179972" y="0" dx="0em" dy="0.95em" fill="rgb(50, 49, 63)" stroke="none" stroke-width="1px">40k</text><text style="text-anchor: middle; visibility: inherit; font-family: Roboto, sans-serif; font-size: 12px; font-weight: 200;" x="67.02124953269958" y="0" dx="0em" dy="0.95em" fill="rgb(50, 49, 63)" stroke="none" stroke-width="1px">50k</text><text style="text-anchor: middle; visibility: hidden; font-family: Roboto, sans-serif; font-size: 12px; font-weight: 200;" x="89.36166604359944" y="0" dx="0em" dy="0.95em" fill="rgb(50, 49, 63)" stroke="none" stroke-width="1px">60k</text><text style="text-anchor: middle; visibility: inherit; font-family: Roboto, sans-serif; font-size: 12px; font-weight: 200;" x="111.70208255449931" y="0" dx="0em" dy="0.95em" fill="rgb(50, 49, 63)" stroke="none" stroke-width="1px">70k</text><text style="text-anchor: middle; visibility: hidden; font-family: Roboto, sans-serif; font-size: 12px; font-weight: 200;" x="134.04249906539917" y="0" dx="0em" dy="0.95em" fill="rgb(50, 49, 63)" stroke="none" stroke-width="1px">80k</text><text style="text-anchor: middle; visibility: inherit; font-family: Roboto, sans-serif; font-size: 12px; font-weight: 200;" x="156.38291557629904" y="0" dx="0em" dy="0.95em" fill="rgb(50, 49, 63)" stroke="none" stroke-width="1px">90k</text><text style="text-anchor: middle; visibility: hidden; font-family: Roboto, sans-serif; font-size: 12px; font-weight: 200;" x="178.72333208719888" y="0" dx="0em" dy="0.95em" fill="rgb(50, 49, 63)" stroke="none" stroke-width="1px">100k</text><text style="text-anchor: middle; visibility: inherit; font-family: Roboto, sans-serif; font-size: 12px; font-weight: 200;" x="201.06374859809875" y="0" dx="0em" dy="0.95em" fill="rgb(50, 49, 63)" stroke="none" stroke-width="1px">110k</text><text style="text-anchor: middle; visibility: hidden; font-family: Roboto, sans-serif; font-size: 12px; font-weight: 200;" x="223.40416510899863" y="0" dx="0em" dy="0.95em" fill="rgb(50, 49, 63)" stroke="none" stroke-width="1px">120k</text><text style="text-anchor: middle; visibility: inherit; font-family: Roboto, sans-serif; font-size: 12px; font-weight: 200;" x="245.74458161989847" y="0" dx="0em" dy="0.95em" fill="rgb(50, 49, 63)" stroke="none" stroke-width="1px">130k</text><text style="text-anchor: middle; visibility: hidden; font-family: Roboto, sans-serif; font-size: 12px; font-weight: 200;" x="268.08499813079834" y="0" dx="0em" dy="0.95em" fill="rgb(50, 49, 63)" stroke="none" stroke-width="1px">140k</text></g><line x1="0" y1="0" x2="268.08499813079834" y2="0" fill="rgb(0, 0, 0)" stroke="rgb(204, 204, 204)" stroke-width="1px"></line></g></g></g></g></svg>