<svg viewBox="0 0 330 200" xmlns="http://www.w3.org/2000/svg"><g><g><g><g><g><line x1="61.91500186920166" y1="177.89999961853027" x2="56.91500186920166" y2="177.89999961853027" style="visibility: inherit;" fill="rgb(0, 0, 0)" stroke="rgb(204, 204, 204)" stroke-width="1px"></line><line x1="61.91500186920166" y1="155.662499666214" x2="56.91500186920166" y2="155.662499666214" style="visibility: inherit;" fill="rgb(0, 0, 0)" stroke="rgb(204, 204, 204)" stroke-width="1px"></line><line x1="61.91500186920166" y1="133.4249997138977" x2="56.91500186920166" y2="133.4249997138977" style="visibility: inherit;" fill="rgb(0, 0, 0)" stroke="rgb(204, 204, 204)" stroke-width="1px"></line><line x1="61.91500186920166" y1="111.18749976158142" x2="56.91500186920166" y2="111.18749976158142" style="visibility: inherit;" fill="rgb(0, 0, 0)" stroke="rgb(204, 204, 204)" stroke-width="1px"></line><line x1="61.91500186920166" y1="88.94999980926514" x2="56.91500186920166" y2="88.94999980926514" style="visibility: inherit;" fill="rgb(0, 0, 0)" stroke="rgb(204, 204, 204)" stroke-width="1px"></line><line x1="61.91500186920166" y1="66.71249985694885" x2="56.91500186920166" y2="66.71249985694885" style="visibility: inherit;" fill="rgb(0, 0, 0)" stroke="rgb(204, 204, 204)" stroke-width="1px"></line><line x1="61.91500186920166" y1="44.47499990463257" x2="56.91500186920166" y2="44.47499990463257" style="visibility: inherit;" fill="rgb(0, 0, 0)" stroke="rgb(204, 204, 204)" stroke-width="1px"></line><line x1="61.91500186920166" y1="22.237499952316284" x2="56.91500186920166" y2="22.237499952316284" style="visibility: inherit;" fill="rgb(0, 0, 0)" stroke="rgb(204, 204, 204)" stroke-width="1px"></line><line x1="61.91500186920166" y1="0" x2="56.91500186920166" y2="0" style="visibility: inherit;" fill="rgb(0, 0, 0)" stroke="rgb(204, 204, 204)" stroke-width="1px"></line></g><g transform="translate(51.91500186920166, 0)"><text style="text-anchor: end; visibility: hidden; font-family: Roboto, sans-serif; font-size: 12px; font-weight: 200;" x="0" y="177.89999961853027" dx="0em" dy="0.3em" fill="rgb(50, 49, 63)" stroke="none" stroke-width="1px">-1e-4</text><text style="text-anchor: end; visibility: inherit; font-family: Roboto, sans-serif; font-size: 12px; font-weight: 200;" x="0" y="155.662499666214" dx="0em" dy="0.3em" fill="rgb(50, 49, 63)" stroke="none" stroke-width="1px">0</text><text style="text-anchor: end; visibility: hidden; font-family: Roboto, sans-serif; font-size: 12px; font-weight: 200;" x="0" y="133.4249997138977" dx="0em" dy="0.3em" fill="rgb(50, 49, 63)" stroke="none" stroke-width="1px">1e-4</text><text style="text-anchor: end; visibility: inherit; font-family: Roboto, sans-serif; font-size: 12px; font-weight: 200;" x="0" y="111.18749976158142" dx="0em" dy="0.3em" fill="rgb(50, 49, 63)" stroke="none" stroke-width="1px">2e-4</text><text style="text-anchor: end; visibility: hidden; font-family: Roboto, sans-serif; font-size: 12px; font-weight: 200;" x="0" y="88.94999980926514" dx="0em" dy="0.3em" fill="rgb(50, 49, 63)" stroke="none" stroke-width="1px">3e-4</text><text style="text-anchor: end; visibility: inherit; font-family: Roboto, sans-serif; font-size: 12px; font-weight: 200;" x="0" y="66.71249985694885" dx="0em" dy="0.3em" fill="rgb(50, 49, 63)" stroke="none" stroke-width="1px">4e-4</text><text style="text-anchor: end; visibility: hidden; font-family: Roboto, sans-serif; font-size: 12px; font-weight: 200;" x="0" y="44.47499990463257" dx="0em" dy="0.3em" fill="rgb(50, 49, 63)" stroke="none" stroke-width="1px">5e-4</text><text style="text-anchor: end; visibility: inherit; font-family: Roboto, sans-serif; font-size: 12px; font-weight: 200;" x="0" y="22.237499952316284" dx="0em" dy="0.3em" fill="rgb(50, 49, 63)" stroke="none" stroke-width="1px">6e-4</text><text style="text-anchor: end; visibility: hidden; font-family: Roboto, sans-serif; font-size: 12px; font-weight: 200;" x="0" y="0" dx="0em" dy="0.3em" fill="rgb(50, 49, 63)" stroke="none" stroke-width="1px">7e-4</text></g><line x1="61.91500186920166" y1="0" x2="61.91500186920166" y2="177.89999961853027" fill="rgb(0, 0, 0)" stroke="rgb(204, 204, 204)" stroke-width="1px"></line></g></g><g transform="translate(61, 0)" clip-path="url(#clip_0)"><clipPath id="clip_0"><rect width="268" height="177"></rect></clipPath><g><g><g><line x1="0" y1="0" x2="0" y2="177.89999961853027" fill="rgb(0, 0, 0)" stroke="rgb(60, 60, 60)" stroke-width="1px" opacity="0.25"></line><line x1="26.808499813079834" y1="0" x2="26.808499813079834" y2="177.89999961853027" fill="rgb(0, 0, 0)" stroke="rgb(60, 60, 60)" stroke-width="1px" opacity="0.25"></line><line x1="53.61699962615967" y1="0" x2="53.61699962615967" y2="177.89999961853027" fill="rgb(0, 0, 0)" stroke="rgb(60, 60, 60)" stroke-width="1px" opacity="0.25"></line><line x1="80.4254994392395" y1="0" x2="80.4254994392395" y2="177.89999961853027" fill="rgb(0, 0, 0)" stroke="rgb(60, 60, 60)" stroke-width="1px" opacity="0.25"></line><line x1="107.23399925231934" y1="0" x2="107.23399925231934" y2="177.89999961853027" fill="rgb(0, 0, 0)" stroke="rgb(60, 60, 60)" stroke-width="1px" opacity="0.25"></line><line x1="134.04249906539917" y1="0" x2="134.04249906539917" y2="177.89999961853027" fill="rgb(0, 0, 0)" stroke="rgb(60, 60, 60)" stroke-width="1px" opacity="0.25"></line><line x1="160.850998878479" y1="0" x2="160.850998878479" y2="177.89999961853027" fill="rgb(0, 0, 0)" stroke="rgb(60, 60, 60)" stroke-width="1px" opacity="0.25"></line><line x1="187.65949869155884" y1="0" x2="187.65949869155884" y2="177.89999961853027" fill="rgb(0, 0, 0)" stroke="rgb(60, 60, 60)" stroke-width="1px" opacity="0.25"></line><line x1="214.46799850463867" y1="0" x2="214.46799850463867" y2="177.89999961853027" fill="rgb(0, 0, 0)" stroke="rgb(60, 60, 60)" stroke-width="1px" opacity="0.25"></line><line x1="241.2764983177185" y1="0" x2="241.2764983177185" y2="177.89999961853027" fill="rgb(0, 0, 0)" stroke="rgb(60, 60, 60)" stroke-width="1px" opacity="0.25"></line><line x1="268.08499813079834" y1="0" x2="268.08499813079834" y2="177.89999961853027" fill="rgb(0, 0, 0)" stroke="rgb(60, 60, 60)" stroke-width="1px" opacity="0.25"></line></g><g><line x1="0" y1="177.89999961853027" x2="268.08499813079834" y2="177.89999961853027" fill="rgb(0, 0, 0)" stroke="rgb(60, 60, 60)" stroke-width="1px" opacity="0.25"></line><line x1="0" y1="155.662499666214" x2="268.08499813079834" y2="155.662499666214" fill="rgb(0, 0, 0)" stroke="rgb(60, 60, 60)" stroke-width="1px" opacity="0.25"></line><line x1="0" y1="133.4249997138977" x2="268.08499813079834" y2="133.4249997138977" fill="rgb(0, 0, 0)" stroke="rgb(60, 60, 60)" stroke-width="1px" opacity="0.25"></line><line x1="0" y1="111.18749976158142" x2="268.08499813079834" y2="111.18749976158142" fill="rgb(0, 0, 0)" stroke="rgb(60, 60, 60)" stroke-width="1px" opacity="0.25"></line><line x1="0" y1="88.94999980926514" x2="268.08499813079834" y2="88.94999980926514" fill="rgb(0, 0, 0)" stroke="rgb(60, 60, 60)" stroke-width="1px" opacity="0.25"></line><line x1="0" y1="66.71249985694885" x2="268.08499813079834" y2="66.71249985694885" fill="rgb(0, 0, 0)" stroke="rgb(60, 60, 60)" stroke-width="1px" opacity="0.25"></line><line x1="0" y1="44.47499990463257" x2="268.08499813079834" y2="44.47499990463257" fill="rgb(0, 0, 0)" stroke="rgb(60, 60, 60)" stroke-width="1px" opacity="0.25"></line><line x1="0" y1="22.237499952316284" x2="268.08499813079834" y2="22.237499952316284" fill="rgb(0, 0, 0)" stroke="rgb(60, 60, 60)" stroke-width="1px" opacity="0.25"></line><line x1="0" y1="0" x2="268.08499813079834" y2="0" fill="rgb(0, 0, 0)" stroke="rgb(60, 60, 60)" stroke-width="1px" opacity="0.25"></line></g></g></g><g><g><line x1="0" y1="155.662499666214" x2="268.08499813079834" y2="155.662499666214" fill="rgb(0, 0, 0)" stroke="rgb(153, 153, 153)" stroke-width="1.5px"></line></g></g><g><g><line x1="-455.7444968223572" y1="0" x2="-455.7444968223572" y2="177.89999961853027" fill="rgb(0, 0, 0)" stroke="rgb(153, 153, 153)" stroke-width="1.5px"></line></g></g><g><g><g><g><g><path style="fill: none;" stroke="rgb(204, 51, 17)" stroke-width="2px" d="M19.865098361492155,155.662499666214L23.14109703865051,155.126621276315L26.390287215995787,154.96257687124387L29.639477393341068,154.89020433959485L32.88866757068634,154.8532898283096L36.137857748031614,154.83306813039826L39.38704792537689,154.82155631812103L42.63623810272217,154.81485899857216L45.885428280067444,154.81091333287412L49.13461845741272,154.80857153672892L52.38380863475799,154.8071755544048L55.632998812103274,154.80634121341438L58.88218898944855,154.80584177269463L62.13137916679382,154.8055425260649L65.3805693441391,154.805363128239L68.62975952148437,154.80525554354284L71.90575819864273,154.80519101215293L75.154948375988,154.80515230031043L78.40413855333328,154.80512907572128L81.65869043064117,154.80511514187356L84.90788060798646,154.805106781891L88.15707078533173,154.80510176601882L91.406260962677,154.80509875653777L94.68225963983535,154.80509695086434L97.93144981718063,154.80509586746578L101.18600169448852,154.8050952174286L104.46200037164688,154.805094827407L107.71119054899216,154.8050945933943L110.96038072633743,154.80509445298676L114.20957090368272,154.8050943687423L117.45876108102797,154.80509431819561L120.73475975818634,154.8050942878676L123.98394993553161,154.8050942696708L127.25994861268998,154.80509425875272L130.50913879003525,154.80509425220188L133.75832896738052,154.80509424827136L137.0075191447258,154.80509424591307L140.28351782188415,154.80509424449806L143.53270799922942,154.8050942436491L146.7818981765747,154.80509424313968L150.03108835391998,154.80509424283406L153.30708703107834,154.80509424265068L156.5830857082367,154.80509424254063L159.83227588558196,154.80509424247464L163.08146606292723,154.80509424243502L166.33065624027253,154.80509424241126L169.5798464176178,154.805094242397L172.85584509477616,154.80509424238844L176.10503527212143,154.8050942423833L179.3542254494667,154.80509424238022L182.63022412662505,154.80509424237837L185.87941430397032,154.80509424237727L189.12860448131562,154.80509424237658L192.3777946586609,103.65643548455878L195.6269848360062,72.9672402299024L198.87617501335146,54.553723077120885L202.1253651906967,43.505612785456414L205.374555368042,36.87674661045935L208.62374554538727,32.89942690546167L211.87293572273256,30.51303508246329L215.1274876000404,29.08119998866433L218.4034862771988,28.222098932384988L221.65267645454406,27.706638298617374L224.90186663188933,27.397361918356818L228.15105680923463,27.211796090200522L231.4002469865799,27.1004565933067L234.64943716392514,27.033652895170434L237.90398904123305,26.993570676288677L241.15317921857834,26.969521344959606L244.4023693959236,26.95509174616215L247.67836807308197,26.946433986883672" fill="none"></path></g></g></g></g><g opacity="0.2"><g><g><g><path style="fill: none;" stroke="rgb(204, 51, 17)" stroke-width="2px" d="M19.865098361492155,155.662499666214L23.14109703865051,154.8050942423756L26.390287215995787,154.8050942423756L29.639477393341068,154.8050942423756L32.88866757068634,154.8050942423756L36.137857748031614,154.8050942423756L39.38704792537689,154.8050942423756L42.63623810272217,154.8050942423756L45.885428280067444,154.8050942423756L49.13461845741272,154.8050942423756L52.38380863475799,154.8050942423756L55.632998812103274,154.8050942423756L58.88218898944855,154.8050942423756L62.13137916679382,154.8050942423756L65.3805693441391,154.8050942423756L68.62975952148437,154.8050942423756L71.90575819864273,154.8050942423756L75.154948375988,154.8050942423756L78.40413855333328,154.8050942423756L81.65869043064117,154.8050942423756L84.90788060798646,154.8050942423756L88.15707078533173,154.8050942423756L91.406260962677,154.8050942423756L94.68225963983535,154.8050942423756L97.93144981718063,154.8050942423756L101.18600169448852,154.8050942423756L104.46200037164688,154.8050942423756L107.71119054899216,154.8050942423756L110.96038072633743,154.8050942423756L114.20957090368272,154.8050942423756L117.45876108102797,154.8050942423756L120.73475975818634,154.8050942423756L123.98394993553161,154.8050942423756L127.25994861268998,154.8050942423756L130.50913879003525,154.8050942423756L133.75832896738052,154.8050942423756L137.0075191447258,154.8050942423756L140.28351782188415,154.8050942423756L143.53270799922942,154.8050942423756L146.7818981765747,154.8050942423756L150.03108835391998,154.8050942423756L153.30708703107834,154.8050942423756L156.5830857082367,154.8050942423756L159.83227588558196,154.8050942423756L163.08146606292723,154.8050942423756L166.33065624027253,154.8050942423756L169.5798464176178,154.8050942423756L172.85584509477616,154.8050942423756L176.10503527212143,154.8050942423756L179.3542254494667,154.8050942423756L182.63022412662505,154.8050942423756L185.87941430397032,154.8050942423756L189.12860448131562,154.8050942423756L192.3777946586609,26.933447347965995L195.6269848360062,26.933447347965995L198.87617501335146,26.933447347965995L202.1253651906967,26.933447347965995L205.374555368042,26.933447347965995L208.62374554538727,26.933447347965995L211.87293572273256,26.933447347965995L215.1274876000404,26.933447347965995L218.4034862771988,26.933447347965995L221.65267645454406,26.933447347965995L224.90186663188933,26.933447347965995L228.15105680923463,26.933447347965995L231.4002469865799,26.933447347965995L234.64943716392514,26.933447347965995L237.90398904123305,26.933447347965995L241.15317921857834,26.933447347965995L244.4023693959236,26.933447347965995L247.67836807308197,26.933447347965995" fill="none"></path></g></g></g></g></g></g><g transform="translate(61, 177)" clip-path="url(#clip_1)"><clipPath id="clip_1"><rect width="268" height="22"></rect></clipPath><g><g><line x1="0" y1="0" x2="0" y2="5" style="visibility: inherit;" fill="rgb(0, 0, 0)" stroke="rgb(204, 204, 204)" stroke-width="1px"></line><line x1="26.808499813079834" y1="0" x2="26.808499813079834" y2="5" style="visibility: inherit;" fill="rgb(0, 0, 0)" stroke="rgb(204, 204, 204)" stroke-width="1px"></line><line x1="53.61699962615967" y1="0" x2="53.61699962615967" y2="5" style="visibility: inherit;" fill="rgb(0, 0, 0)" stroke="rgb(204, 204, 204)" stroke-width="1px"></line><line x1="80.4254994392395" y1="0" x2="80.4254994392395" y2="5" style="visibility: inherit;" fill="rgb(0, 0, 0)" stroke="rgb(204, 204, 204)" stroke-width="1px"></line><line x1="107.23399925231934" y1="0" x2="107.23399925231934" y2="5" style="visibility: inherit;" fill="rgb(0, 0, 0)" stroke="rgb(204, 204, 204)" stroke-width="1px"></line><line x1="134.04249906539917" y1="0" x2="134.04249906539917" y2="5" style="visibility: inherit;" fill="rgb(0, 0, 0)" stroke="rgb(204, 204, 204)" stroke-width="1px"></line><line x1="160.850998878479" y1="0" x2="160.850998878479" y2="5" style="visibility: inherit;" fill="rgb(0, 0, 0)" stroke="rgb(204, 204, 204)" stroke-width="1px"></line><line x1="187.65949869155884" y1="0" x2="187.65949869155884" y2="5" style="visibility: inherit;" fill="rgb(0, 0, 0)" stroke="rgb(204, 204, 204)" stroke-width="1px"></line><line x1="214.46799850463867" y1="0" x2="214.46799850463867" y2="5" style="visibility: inherit;" fill="rgb(0, 0, 0)" stroke="rgb(204, 204, 204)" stroke-width="1px"></line><line x1="241.2764983177185" y1="0" x2="241.2764983177185" y2="5" style="visibility: inherit;" fill="rgb(0, 0, 0)" stroke="rgb(204, 204, 204)" stroke-width="1px"></line><line x1="268.08499813079834" y1="0" x2="268.08499813079834" y2="5" style="visibility: inherit;" fill="rgb(0, 0, 0)" stroke="rgb(204, 204, 204)" stroke-width="1px"></line></g><g transform="translate(0, 8)"><text style="text-anchor: middle; visibility: hidden; font-family: Roboto, sans-serif; font-size: 12px; font-weight: 200;" x="0" y="0" dx="0em" dy="0.95em" fill="rgb(50, 49, 63)" stroke="none" stroke-width="1px">85k</text><text style="text-anchor: middle; visibility: inherit; font-family: Roboto, sans-serif; font-size: 12px; font-weight: 200;" x="26.808499813079834" y="0" dx="0em" dy="0.95em" fill="rgb(50, 49, 63)" stroke="none" stroke-width="1px">90k</text><text style="text-anchor: middle; visibility: hidden; font-family: Roboto, sans-serif; font-size: 12px; font-weight: 200;" x="53.61699962615967" y="0" dx="0em" dy="0.95em" fill="rgb(50, 49, 63)" stroke="none" stroke-width="1px">95k</text><text style="text-anchor: middle; visibility: inherit; font-family: Roboto, sans-serif; font-size: 12px; font-weight: 200;" x="80.4254994392395" y="0" dx="0em" dy="0.95em" fill="rgb(50, 49, 63)" stroke="none" stroke-width="1px">100k</text><text style="text-anchor: middle; visibility: hidden; font-family: Roboto, sans-serif; font-size: 12px; font-weight: 200;" x="107.23399925231934" y="0" dx="0em" dy="0.95em" fill="rgb(50, 49, 63)" stroke="none" stroke-width="1px">105k</text><text style="text-anchor: middle; visibility: inherit; font-family: Roboto, sans-serif; font-size: 12px; font-weight: 200;" x="134.04249906539917" y="0" dx="0em" dy="0.95em" fill="rgb(50, 49, 63)" stroke="none" stroke-width="1px">110k</text><text style="text-anchor: middle; visibility: hidden; font-family: Roboto, sans-serif; font-size: 12px; font-weight: 200;" x="160.850998878479" y="0" dx="0em" dy="0.95em" fill="rgb(50, 49, 63)" stroke="none" stroke-width="1px">115k</text><text style="text-anchor: middle; visibility: inherit; font-family: Roboto, sans-serif; font-size: 12px; font-weight: 200;" x="187.65949869155884" y="0" dx="0em" dy="0.95em" fill="rgb(50, 49, 63)" stroke="none" stroke-width="1px">120k</text><text style="text-anchor: middle; visibility: hidden; font-family: Roboto, sans-serif; font-size: 12px; font-weight: 200;" x="214.46799850463867" y="0" dx="0em" dy="0.95em" fill="rgb(50, 49, 63)" stroke="none" stroke-width="1px">125k</text><text style="text-anchor: middle; visibility: inherit; font-family: Roboto, sans-serif; font-size: 12px; font-weight: 200;" x="241.2764983177185" y="0" dx="0em" dy="0.95em" fill="rgb(50, 49, 63)" stroke="none" stroke-width="1px">130k</text><text style="text-anchor: middle; visibility: hidden; font-family: Roboto, sans-serif; font-size: 12px; font-weight: 200;" x="268.08499813079834" y="0" dx="0em" dy="0.95em" fill="rgb(50, 49, 63)" stroke="none" stroke-width="1px">135k</text></g><line x1="0" y1="0" x2="268.08499813079834" y2="0" fill="rgb(0, 0, 0)" stroke="rgb(204, 204, 204)" stroke-width="1px"></line></g></g></g></g></svg>