<svg viewBox="0 0 330 200" xmlns="http://www.w3.org/2000/svg"><g><g><g><g><g><line x1="72.29800224304199" y1="177.89999961853027" x2="67.29800224304199" y2="177.89999961853027" style="visibility: inherit;" fill="rgb(0, 0, 0)" stroke="rgb(204, 204, 204)" stroke-width="1px"></line><line x1="72.29800224304199" y1="164.21538426325873" x2="67.29800224304199" y2="164.21538426325873" style="visibility: inherit;" fill="rgb(0, 0, 0)" stroke="rgb(204, 204, 204)" stroke-width="1px"></line><line x1="72.29800224304199" y1="150.53076890798715" x2="67.29800224304199" y2="150.53076890798715" style="visibility: inherit;" fill="rgb(0, 0, 0)" stroke="rgb(204, 204, 204)" stroke-width="1px"></line><line x1="72.29800224304199" y1="136.84615355271558" x2="67.29800224304199" y2="136.84615355271558" style="visibility: inherit;" fill="rgb(0, 0, 0)" stroke="rgb(204, 204, 204)" stroke-width="1px"></line><line x1="72.29800224304199" y1="123.16153819744403" x2="67.29800224304199" y2="123.16153819744403" style="visibility: inherit;" fill="rgb(0, 0, 0)" stroke="rgb(204, 204, 204)" stroke-width="1px"></line><line x1="72.29800224304199" y1="109.47692284217248" x2="67.29800224304199" y2="109.47692284217248" style="visibility: inherit;" fill="rgb(0, 0, 0)" stroke="rgb(204, 204, 204)" stroke-width="1px"></line><line x1="72.29800224304199" y1="95.79230748690091" x2="67.29800224304199" y2="95.79230748690091" style="visibility: inherit;" fill="rgb(0, 0, 0)" stroke="rgb(204, 204, 204)" stroke-width="1px"></line><line x1="72.29800224304199" y1="82.10769213162934" x2="67.29800224304199" y2="82.10769213162934" style="visibility: inherit;" fill="rgb(0, 0, 0)" stroke="rgb(204, 204, 204)" stroke-width="1px"></line><line x1="72.29800224304199" y1="68.42307677635779" x2="67.29800224304199" y2="68.42307677635779" style="visibility: inherit;" fill="rgb(0, 0, 0)" stroke="rgb(204, 204, 204)" stroke-width="1px"></line><line x1="72.29800224304199" y1="54.73846142108622" x2="67.29800224304199" y2="54.73846142108622" style="visibility: inherit;" fill="rgb(0, 0, 0)" stroke="rgb(204, 204, 204)" stroke-width="1px"></line><line x1="72.29800224304199" y1="41.05384606581467" x2="67.29800224304199" y2="41.05384606581467" style="visibility: inherit;" fill="rgb(0, 0, 0)" stroke="rgb(204, 204, 204)" stroke-width="1px"></line><line x1="72.29800224304199" y1="27.3692307105431" x2="67.29800224304199" y2="27.3692307105431" style="visibility: inherit;" fill="rgb(0, 0, 0)" stroke="rgb(204, 204, 204)" stroke-width="1px"></line><line x1="72.29800224304199" y1="13.68461535527155" x2="67.29800224304199" y2="13.68461535527155" style="visibility: inherit;" fill="rgb(0, 0, 0)" stroke="rgb(204, 204, 204)" stroke-width="1px"></line><line x1="72.29800224304199" y1="0" x2="67.29800224304199" y2="0" style="visibility: inherit;" fill="rgb(0, 0, 0)" stroke="rgb(204, 204, 204)" stroke-width="1px"></line></g><g transform="translate(62.29800224304199, 0)"><text style="text-anchor: end; visibility: hidden; font-family: Roboto, sans-serif; font-size: 12px; font-weight: 200;" x="0" y="177.89999961853027" dx="0em" dy="0.3em" fill="rgb(50, 49, 63)" stroke="none" stroke-width="1px">-1e-7</text><text style="text-anchor: end; visibility: inherit; font-family: Roboto, sans-serif; font-size: 12px; font-weight: 200;" x="0" y="164.21538426325873" dx="0em" dy="0.3em" fill="rgb(50, 49, 63)" stroke="none" stroke-width="1px">0</text><text style="text-anchor: end; visibility: hidden; font-family: Roboto, sans-serif; font-size: 12px; font-weight: 200;" x="0" y="150.53076890798715" dx="0em" dy="0.3em" fill="rgb(50, 49, 63)" stroke="none" stroke-width="1px">1e-7</text><text style="text-anchor: end; visibility: inherit; font-family: Roboto, sans-serif; font-size: 12px; font-weight: 200;" x="0" y="136.84615355271558" dx="0em" dy="0.3em" fill="rgb(50, 49, 63)" stroke="none" stroke-width="1px">2e-7</text><text style="text-anchor: end; visibility: hidden; font-family: Roboto, sans-serif; font-size: 12px; font-weight: 200;" x="0" y="123.16153819744403" dx="0em" dy="0.3em" fill="rgb(50, 49, 63)" stroke="none" stroke-width="1px">3e-7</text><text style="text-anchor: end; visibility: inherit; font-family: Roboto, sans-serif; font-size: 12px; font-weight: 200;" x="0" y="109.47692284217248" dx="0em" dy="0.3em" fill="rgb(50, 49, 63)" stroke="none" stroke-width="1px">4e-7</text><text style="text-anchor: end; visibility: hidden; font-family: Roboto, sans-serif; font-size: 12px; font-weight: 200;" x="0" y="95.79230748690091" dx="0em" dy="0.3em" fill="rgb(50, 49, 63)" stroke="none" stroke-width="1px">5e-7</text><text style="text-anchor: end; visibility: inherit; font-family: Roboto, sans-serif; font-size: 12px; font-weight: 200;" x="0" y="82.10769213162934" dx="0em" dy="0.3em" fill="rgb(50, 49, 63)" stroke="none" stroke-width="1px">6e-7</text><text style="text-anchor: end; visibility: hidden; font-family: Roboto, sans-serif; font-size: 12px; font-weight: 200;" x="0" y="68.42307677635779" dx="0em" dy="0.3em" fill="rgb(50, 49, 63)" stroke="none" stroke-width="1px">7e-7</text><text style="text-anchor: end; visibility: inherit; font-family: Roboto, sans-serif; font-size: 12px; font-weight: 200;" x="0" y="54.73846142108622" dx="0em" dy="0.3em" fill="rgb(50, 49, 63)" stroke="none" stroke-width="1px">8e-7</text><text style="text-anchor: end; visibility: hidden; font-family: Roboto, sans-serif; font-size: 12px; font-weight: 200;" x="0" y="41.05384606581467" dx="0em" dy="0.3em" fill="rgb(50, 49, 63)" stroke="none" stroke-width="1px">9e-7</text><text style="text-anchor: end; visibility: inherit; font-family: Roboto, sans-serif; font-size: 12px; font-weight: 200;" x="0" y="27.3692307105431" dx="0em" dy="0.3em" fill="rgb(50, 49, 63)" stroke="none" stroke-width="1px">1e-6</text><text style="text-anchor: end; visibility: hidden; font-family: Roboto, sans-serif; font-size: 12px; font-weight: 200;" x="0" y="13.68461535527155" dx="0em" dy="0.3em" fill="rgb(50, 49, 63)" stroke="none" stroke-width="1px">1.1e-6</text><text style="text-anchor: end; visibility: hidden; font-family: Roboto, sans-serif; font-size: 12px; font-weight: 200;" x="0" y="0" dx="0em" dy="0.3em" fill="rgb(50, 49, 63)" stroke="none" stroke-width="1px">1.2e-6</text></g><line x1="72.29800224304199" y1="0" x2="72.29800224304199" y2="177.89999961853027" fill="rgb(0, 0, 0)" stroke="rgb(204, 204, 204)" stroke-width="1px"></line></g></g><g transform="translate(72, 0)" clip-path="url(#clip_0)"><clipPath id="clip_0"><rect width="257" height="177"></rect></clipPath><g><g><g><line x1="0" y1="0" x2="0" y2="177.89999961853027" fill="rgb(0, 0, 0)" stroke="rgb(60, 60, 60)" stroke-width="1px" opacity="0.25"></line><line x1="18.407285554068427" y1="0" x2="18.407285554068427" y2="177.89999961853027" fill="rgb(0, 0, 0)" stroke="rgb(60, 60, 60)" stroke-width="1px" opacity="0.25"></line><line x1="36.81457110813685" y1="0" x2="36.81457110813685" y2="177.89999961853027" fill="rgb(0, 0, 0)" stroke="rgb(60, 60, 60)" stroke-width="1px" opacity="0.25"></line><line x1="55.22185666220528" y1="0" x2="55.22185666220528" y2="177.89999961853027" fill="rgb(0, 0, 0)" stroke="rgb(60, 60, 60)" stroke-width="1px" opacity="0.25"></line><line x1="73.6291422162737" y1="0" x2="73.6291422162737" y2="177.89999961853027" fill="rgb(0, 0, 0)" stroke="rgb(60, 60, 60)" stroke-width="1px" opacity="0.25"></line><line x1="92.03642777034214" y1="0" x2="92.03642777034214" y2="177.89999961853027" fill="rgb(0, 0, 0)" stroke="rgb(60, 60, 60)" stroke-width="1px" opacity="0.25"></line><line x1="110.44371332441057" y1="0" x2="110.44371332441057" y2="177.89999961853027" fill="rgb(0, 0, 0)" stroke="rgb(60, 60, 60)" stroke-width="1px" opacity="0.25"></line><line x1="128.850998878479" y1="0" x2="128.850998878479" y2="177.89999961853027" fill="rgb(0, 0, 0)" stroke="rgb(60, 60, 60)" stroke-width="1px" opacity="0.25"></line><line x1="147.2582844325474" y1="0" x2="147.2582844325474" y2="177.89999961853027" fill="rgb(0, 0, 0)" stroke="rgb(60, 60, 60)" stroke-width="1px" opacity="0.25"></line><line x1="165.66556998661588" y1="0" x2="165.66556998661588" y2="177.89999961853027" fill="rgb(0, 0, 0)" stroke="rgb(60, 60, 60)" stroke-width="1px" opacity="0.25"></line><line x1="184.0728555406843" y1="0" x2="184.0728555406843" y2="177.89999961853027" fill="rgb(0, 0, 0)" stroke="rgb(60, 60, 60)" stroke-width="1px" opacity="0.25"></line><line x1="202.48014109475272" y1="0" x2="202.48014109475272" y2="177.89999961853027" fill="rgb(0, 0, 0)" stroke="rgb(60, 60, 60)" stroke-width="1px" opacity="0.25"></line><line x1="220.88742664882113" y1="0" x2="220.88742664882113" y2="177.89999961853027" fill="rgb(0, 0, 0)" stroke="rgb(60, 60, 60)" stroke-width="1px" opacity="0.25"></line><line x1="239.2947122028896" y1="0" x2="239.2947122028896" y2="177.89999961853027" fill="rgb(0, 0, 0)" stroke="rgb(60, 60, 60)" stroke-width="1px" opacity="0.25"></line><line x1="257.701997756958" y1="0" x2="257.701997756958" y2="177.89999961853027" fill="rgb(0, 0, 0)" stroke="rgb(60, 60, 60)" stroke-width="1px" opacity="0.25"></line></g><g><line x1="0" y1="177.89999961853027" x2="257.701997756958" y2="177.89999961853027" fill="rgb(0, 0, 0)" stroke="rgb(60, 60, 60)" stroke-width="1px" opacity="0.25"></line><line x1="0" y1="164.21538426325873" x2="257.701997756958" y2="164.21538426325873" fill="rgb(0, 0, 0)" stroke="rgb(60, 60, 60)" stroke-width="1px" opacity="0.25"></line><line x1="0" y1="150.53076890798715" x2="257.701997756958" y2="150.53076890798715" fill="rgb(0, 0, 0)" stroke="rgb(60, 60, 60)" stroke-width="1px" opacity="0.25"></line><line x1="0" y1="136.84615355271558" x2="257.701997756958" y2="136.84615355271558" fill="rgb(0, 0, 0)" stroke="rgb(60, 60, 60)" stroke-width="1px" opacity="0.25"></line><line x1="0" y1="123.16153819744403" x2="257.701997756958" y2="123.16153819744403" fill="rgb(0, 0, 0)" stroke="rgb(60, 60, 60)" stroke-width="1px" opacity="0.25"></line><line x1="0" y1="109.47692284217248" x2="257.701997756958" y2="109.47692284217248" fill="rgb(0, 0, 0)" stroke="rgb(60, 60, 60)" stroke-width="1px" opacity="0.25"></line><line x1="0" y1="95.79230748690091" x2="257.701997756958" y2="95.79230748690091" fill="rgb(0, 0, 0)" stroke="rgb(60, 60, 60)" stroke-width="1px" opacity="0.25"></line><line x1="0" y1="82.10769213162934" x2="257.701997756958" y2="82.10769213162934" fill="rgb(0, 0, 0)" stroke="rgb(60, 60, 60)" stroke-width="1px" opacity="0.25"></line><line x1="0" y1="68.42307677635779" x2="257.701997756958" y2="68.42307677635779" fill="rgb(0, 0, 0)" stroke="rgb(60, 60, 60)" stroke-width="1px" opacity="0.25"></line><line x1="0" y1="54.73846142108622" x2="257.701997756958" y2="54.73846142108622" fill="rgb(0, 0, 0)" stroke="rgb(60, 60, 60)" stroke-width="1px" opacity="0.25"></line><line x1="0" y1="41.05384606581467" x2="257.701997756958" y2="41.05384606581467" fill="rgb(0, 0, 0)" stroke="rgb(60, 60, 60)" stroke-width="1px" opacity="0.25"></line><line x1="0" y1="27.3692307105431" x2="257.701997756958" y2="27.3692307105431" fill="rgb(0, 0, 0)" stroke="rgb(60, 60, 60)" stroke-width="1px" opacity="0.25"></line><line x1="0" y1="13.68461535527155" x2="257.701997756958" y2="13.68461535527155" fill="rgb(0, 0, 0)" stroke="rgb(60, 60, 60)" stroke-width="1px" opacity="0.25"></line><line x1="0" y1="0" x2="257.701997756958" y2="0" fill="rgb(0, 0, 0)" stroke="rgb(60, 60, 60)" stroke-width="1px" opacity="0.25"></line></g></g></g><g><g><line x1="0" y1="164.21538426325873" x2="257.701997756958" y2="164.21538426325873" fill="rgb(0, 0, 0)" stroke="rgb(153, 153, 153)" stroke-width="1.5px"></line></g></g><g><g><line x1="-73.6291422162737" y1="0" x2="-73.6291422162737" y2="177.89999961853027" fill="rgb(0, 0, 0)" stroke="rgb(153, 153, 153)" stroke-width="1.5px"></line></g></g><g><g><g><g><g><path style="fill: none;" stroke="rgb(255, 112, 67)" stroke-width="2px" d="M30.331525135993957,-56.45811170142633L30.72175958974021,31.81153763760321L31.11199404348646,84.77316663072743L31.74888612365723,116.5500862071111L32.315830518722535,135.61621713797098L33.20674313953945,147.0558882031076L34.0019378754752,153.91968814457522L34.39217232922145,158.03796713831505L34.782406782967705,160.5089341849484L35.434024691581726,161.99151428706864L36.015694915090286,162.88106230303129L36.40592936883654,163.41479109629742L37.06122873456138,163.73502836638502L37.75702412850516,163.9271707263236L38.430730779784064,164.04245614152572L38.820965233530316,164.11162739037303L39.608797055244445,164.15313013958277L39.9990315089907,164.17803178907312L40.38926596273695,164.19297277875455L41.49002163887024,164.2019373725588L42.40302300235203,164.2073161288397L43.05095945385524,164.21054338260763L43.441193907601495,164.2124797348682L43.83142836134774,164.21364154622444L44.22166281509399,164.21433863303818L44.630304554394314,164.21475688512638L45.02053900814056,164.2150078363793L45.41077346188681,164.21515840713107L46.19124236937932,164.21524874958214L47.063747704642154,164.21530295505278L47.453982158388406,164.21533547833513L48.017245096342904,164.21535499230458L48.5805080342974,164.21536670068625L48.97074248804365,164.2153737257152L49.55609416866302,164.21537794073262L51.39682272406987,164.21538046974305L51.974811490467616,164.2153819871493L52.38345322976794,164.2153828975931L52.77368768351419,164.21538344385934L53.34063207857949,164.2153837716191L53.73086653232574,164.21538396827492L54.51869835403988,164.21538408626844L54.90893280778612,164.21538415706456L55.299167261532375,164.21538419954223L56.68339513519832,164.21538422502883L57.07362958894457,164.2153842403208L57.46754549980164,164.21538424949594L58.04185280908857,164.21538425500106L58.43208726283482,164.2153842583041L59.01375748634339,164.21538426028596L59.61751645251683,164.21538426147507L60.17709793336051,164.21538426218854L61.33675692326682,164.2153842626166L62.03623377432142,164.21538426287344L62.42646822806767,164.21538426302754L62.81670268181392,164.21538426312L63.206937135560175,164.21538426317548L63.88064378683908,164.21538426320876L64.44390672479356,164.21538426322877L64.83414117853982,164.21538426324074L65.22437563228607,164.21538426324793L65.61461008603233,164.21538426325225L66.00484453977857,164.21538426325483L66.39507899352482,164.2153842632564L67.15714061546326,164.21538426325733L68.69598968778338,164.21538426325787L69.08622414152963,164.21538426325822L70.08021756144933,164.21538426325841L70.76865004117148,164.21538426325853L71.15888449491774,164.2153842632586L71.71846597576142,164.21538426325864L73.31253690474374,164.21538426325867L73.9715177275794,164.21538426325867L74.85506743417467,164.2153842632587L75.24530188792093,164.2153842632587L75.63553634166718,164.2153842632587L77.29955495575497,164.2153842632587L77.89226955059596,164.2153842632587L78.59542785876138,164.2153842632587L79.42743716580527,164.21538426325873L79.81767161955152,164.21538426325873L80.37725310039521,164.21538426325873L80.93683458123888,164.21538426325873L81.32706903498514,164.21538426325873L81.93450945826939,164.21538426325873L82.32474391201565,164.21538426325873L82.7149783657619,164.21538426325873L83.41077375970568,164.21538426325873L83.80100821345194,164.21538426325873L84.36795260851724,164.21538426325873L84.77659434781756,164.21538426325873L85.16682880156381,164.21538426325873L85.55706325531007,164.21538426325873L86.47374607590265,164.21538426325873L86.86398052964891,164.21538426325873L87.61499778025491,164.21538426325873L88.00523223400117,164.21538426325873L88.39546668774742,164.21538426325873L88.80410842704774,164.21538426325873L89.38209719344547,164.21538426325873L90.06684821605681,164.21538426325873L90.63011115401132,164.21538426325873L91.02034560775758,164.21538426325873L91.41058006150382,164.21538426325873L91.99225028501237,164.21538426325873L92.65123110784803,164.21538426325873L93.05987284714836,164.21538426325873L93.4501073008946,164.21538426325873L94.43673780659267,164.21538426325873L94.82697226033892,164.21538426325873L95.47490871184213,164.21538426325873L95.86514316558838,164.21538426325873L96.68610810129984,164.21538426325873L97.24568958214351,164.21538426325873L97.9157147763116,164.21538426325873L98.30594923005785,164.21538426325873L98.6961836838041,164.21538426325873L99.45824530574254,164.21538426325873L100.02518970080784,164.21538426325873L100.43383144010816,164.21538426325873L101.64503082956585,164.21538426325873L102.03526528331211,164.21538426325873L102.66479444926125,164.21538426325873L103.58147726985386,164.21538426325873L104.14842166491917,164.21538426325873L104.74481771687098,164.21538426325873L105.32280648326874,164.21538426325873L106.50087275872912,164.21538426325873L107.0899058964593,164.21538426325873L108.53303708389826,164.21538426325873L108.92327153764452,164.21538426325873L109.92830932889665,164.21538426325873L110.3185437826429,164.21538426325873L110.70877823638915,164.21538426325873L111.09901269013541,164.21538426325873L111.68068291364398,164.21538426325873L112.24026439448765,164.21538426325873L112.63049884823391,164.21538426325873L113.02073330198016,164.21538426325873L113.4109677557264,164.21538426325873L113.80120220947265,164.21538426325873L114.49699760341643,164.21538426325873L114.88723205716269,164.21538426325873L115.5057168517794,164.21538426325873L116.11315727506366,164.21538426325873L116.5033917288099,164.21538426325873L116.89362618255615,164.21538426325873L117.30226792185648,164.21538426325873L117.69250237560271,164.21538426325873L118.40670505510059,164.21538426325873L118.79693950884682,164.21538426325873L119.18717396259308,164.21538426325873L119.57740841633932,164.21538426325873L119.98605015563965,164.21538426325873L120.75915614891052,164.21538426325873L121.4549515428543,164.21538426325873L121.86359328215462,164.21538426325873L122.43421913433076,164.21538426325873L122.84286087363107,164.21538426325873L123.40980526869637,164.21538426325873L123.80003972244262,164.21538426325873L124.37066557461876,164.21538426325873L124.77930731391908,164.21538426325873L126.04204710292815,164.21538426325873L126.43228155667441,164.21538426325873L126.84092329597473,164.21538426325873L127.23115774972098,164.21538426325873L127.79073923056465,164.21538426325873L128.1809736843109,164.21538426325873L128.74423662226542,164.21538426325873L129.3111810173307,164.21538426325873L129.70141547107696,164.21538426325873L130.0916499248232,164.21538426325873L130.6549128627777,164.21538426325873L131.9434228515625,164.21538426325873L132.33365730530875,164.21538426325873L133.03681561347415,164.21538426325873L133.4270500672204,164.21538426325873L133.81728452096667,164.21538426325873L134.40263620158606,164.21538426325873L134.7928706553323,164.21538426325873L135.18310510907855,164.21538426325873L136.1402839578901,164.21538426325873L136.53051841163636,164.21538426325873L137.30362440490725,164.21538426325873L137.69385885865347,164.21538426325873L138.2644847108296,164.21538426325873L138.65471916457585,164.21538426325873L139.0449536183221,164.21538426325873L139.43518807206834,164.21538426325873L140.21933843667165,164.21538426325873L140.83782323128838,164.21538426325873L141.2280576850346,164.21538426325873L141.61829213878084,164.21538426325873L142.0269338780812,164.21538426325873L142.69327761513847,164.21538426325873L143.08351206888472,164.21538426325873L143.749855805942,164.21538426325873L144.3131187438965,164.21538426325873L144.87638168185097,164.21538426325873L145.26661613559722,164.21538426325873L145.65685058934346,164.21538426325873L146.04708504308974,164.21538426325873L146.9343162067958,164.21538426325873L147.32455066054206,164.21538426325873L147.71478511428833,164.21538426325873L148.10501956803458,164.21538426325873L148.49525402178082,164.21538426325873L149.05851695973533,164.21538426325873L149.44875141348157,164.21538426325873L149.83898586722782,164.21538426325873L150.22922032097406,164.21538426325873L150.6194547747203,164.21538426325873L151.01337068557737,164.21538426325873L151.40360513932364,164.21538426325873L151.7938395930699,164.21538426325873L152.2024813323702,164.21538426325873L153.0823495818547,164.21538426325873L153.47258403560093,164.21538426325873L153.86281848934718,164.21538426325873L154.25673440020424,164.21538426325873L154.64696885395048,164.21538426325873L155.0556105932508,164.21538426325873L155.44584504699705,164.21538426325873L155.83607950074332,164.21538426325873L156.24472124004362,164.21538426325873L156.6349556937899,164.21538426325873L157.20558154596603,164.21538426325873L157.59581599971227,164.21538426325873L157.98605045345852,164.21538426325873L158.37628490720476,164.21538426325873L158.766519360951,164.21538426325873L159.34450812734877,164.21538426325873L159.9482670935222,164.21538426325873L160.5115300314767,164.21538426325873L160.90176448522294,164.21538426325873L161.2919989389692,164.21538426325873L161.68223339271543,164.21538426325873L162.25285924489157,164.21538426325873L162.64309369863784,164.21538426325873L163.0333281523841,164.21538426325873L163.7143977178846,164.21538426325873L164.10463217163087,164.21538426325873L164.66421365247453,164.21538426325873L165.0544481062208,164.21538426325873L165.44468255996705,164.21538426325873L165.8349170137133,164.21538426325873L166.24355875301362,164.21538426325873L166.63379320675986,164.21538426325873L167.2081005160468,164.21538426325873L167.59833496979306,164.21538426325873L167.9885694235393,164.21538426325873L168.37880387728555,164.21538426325873L169.14086549922396,164.21538426325873L169.7667132080623,164.21538426325873L170.15694766180854,164.21538426325873L170.54718211555482,164.21538426325873L170.93741656930106,164.21538426325873L171.34605830860139,164.21538426325873L171.73629276234763,164.21538426325873L172.1302086732047,164.21538426325873L172.52044312695094,164.21538426325873L172.91067758069718,164.21538426325873L173.30091203444343,164.21538426325873L173.6911464881897,164.21538426325873L174.09978822749,164.21538426325873L174.49002268123627,164.21538426325873L174.88025713498251,164.21538426325873L175.27049158872876,164.21538426325873L175.660726042475,164.21538426325873L176.30866249397823,164.21538426325873L176.69889694772448,164.21538426325873L177.08913140147072,164.21538426325873L177.47936585521697,164.21538426325873L177.8880075945173,164.21538426325873L178.2966493338176,164.21538426325873L178.68688378756386,164.21538426325873L179.0771182413101,164.21538426325873L179.46735269505638,164.21538426325873L179.85758714880262,164.21538426325873L180.24782160254887,164.21538426325873L180.6380560562951,164.21538426325873L181.02829051004136,164.21538426325873L181.58787199088505,164.21538426325873L181.9781064446313,164.21538426325873L182.37202235548835,164.21538426325873L182.76225680923463,164.21538426325873L183.15249126298087,164.21538426325873L183.54272571672712,164.21538426325873L183.93296017047336,164.21538426325873L184.3416019097737,164.21538426325873L184.73183636351993,164.21538426325873L185.12207081726618,164.21538426325873L185.51230527101245,164.21538426325873L185.9025397247587,164.21538426325873L186.31118146405902,164.21538426325873L186.71982320335934,164.21538426325873L187.11005765710559,164.21538426325873L187.50029211085183,164.21538426325873L187.89052656459808,164.21538426325873L188.28076101834432,164.21538426325873L188.6709954720906,164.21538426325873L189.07963721139092,164.21538426325873L189.46987166513716,164.21538426325873L189.8601061188834,164.21538426325873L190.25034057262965,164.21538426325873L190.6405750263759,164.21538426325873L191.2038379643304,164.21538426325873L191.59775387518746,164.21538426325873L192.37454132556917,164.21538426325873L192.7684572364262,164.21538426325873L193.15869169017247,164.21538426325873L193.71827317101614,164.21538426325873L194.1085076247624,164.21538426325873L194.5171493640627,164.21538426325873L194.90738381780898,164.21538426325873L195.29761827155522,164.21538426325873L195.69153418241228,164.21538426325873L196.1001759217126,164.21538426325873L196.49041037545885,164.21538426325873L196.89905211475917,164.21538426325873L197.3076938540595,164.21538426325873L197.69792830780574,164.21538426325873L198.0918442186628,164.21538426325873L198.48207867240905,164.21538426325873L198.8723131261553,164.21538426325873L199.26254757990154,164.21538426325873L199.6527820336478,164.21538426325873L200.04301648739406,164.21538426325873L200.4332509411403,164.21538426325873L200.82348539488655,164.21538426325873L201.21371984863282,164.21538426325873L201.6223615879331,164.21538426325873L202.0125960416794,164.21538426325873L202.40651195253645,164.21538426325873L202.80042786339354,164.21538426325873L203.19066231713978,164.21538426325873L203.58089677088603,164.21538426325873L203.97113122463224,164.21538426325873L204.3797729639326,164.21538426325873L204.78841470323292,164.21538426325873L205.17864915697916,164.21538426325873L205.83762997981478,164.21538426325873L206.22786443356105,164.21538426325873L206.81321611418045,164.21538426325873L207.2034505679267,164.21538426325873L207.59368502167294,164.21538426325873L208.00232676097326,164.21538426325873L208.3925612147195,164.21538426325873L208.78279566846575,164.21538426325873L209.173030122212,164.21538426325873L209.56326457595827,164.21538426325873L209.95349902970452,164.21538426325873L210.34373348345076,164.21538426325873L211.01007722050804,164.21538426325873L211.40031167425428,164.21538426325873L211.79054612800053,164.21538426325873L212.1807805817468,164.21538426325873L212.57469649260386,164.21538426325873L213.2594475152152,164.21538426325873L213.64968196896143,164.21538426325873L214.03991642270768,164.21538426325873L214.43015087645395,164.21538426325873L214.8203853302002,164.21538426325873L215.21061978394644,164.21538426325873L215.6008542376927,164.21538426325873L215.99108869143896,164.21538426325873L216.3813231451852,164.21538426325873L216.77155759893145,164.21538426325873L217.1617920526777,164.21538426325873L217.55202650642394,164.21538426325873L217.94226096017022,164.21538426325873L218.33249541391646,164.21538426325873L218.7227298676627,164.21538426325873L219.11296432140895,164.21538426325873L219.50319877515523,164.21538426325873L219.89343322890147,164.21538426325873L220.3020749682018,164.21538426325873L220.69230942194804,164.21538426325873L221.08254387569428,164.21538426325873L221.47645978655135,164.21538426325873L221.8666942402976,164.21538426325873L222.25692869404384,164.21538426325873L222.6471631477901,164.21538426325873L223.03739760153636,164.21538426325873L223.4276320552826,164.21538426325873L223.81786650902885,164.21538426325873L224.22650824832917,164.21538426325873L224.6351499876295,164.21538426325873L225.02538444137573,164.21538426325873L225.43402618067606,164.21538426325873L226.13718448884146,164.21538426325873L226.5274189425877,164.21538426325873L227.18639976542337,164.21538426325873L227.9226911875861,164.21538426325873L228.31292564133236,164.21538426325873L228.7031600950786,164.21538426325873L229.09339454882485,164.21538426325873L229.4836290025711,164.21538426325873L229.87386345631737,164.21538426325873L230.28250519561766,164.21538426325873L230.67273964936393,164.21538426325873L231.066655560221,164.21538426325873L231.45689001396724,164.21538426325873L231.86553175326756,164.21538426325873L232.2557662070138,164.21538426325873L232.64600066076005,164.21538426325873L233.0362351145063,164.21538426325873L233.42646956825257,164.21538426325873L233.81670402199882,164.21538426325873L234.20693847574506,164.21538426325873L234.5971729294913,164.21538426325873L234.98740738323755,164.21538426325873L235.37764183698383,164.21538426325873L235.76787629073007,164.21538426325873L236.15811074447632,164.21538426325873L236.54834519822256,164.21538426325873L236.93857965196884,164.21538426325873L237.32881410571508,164.21538426325873L237.71904855946133,164.21538426325873L238.10928301320757,164.21538426325873L238.49951746695382,164.21538426325873L238.8897519207001,164.21538426325873L239.27998637444634,164.21538426325873L239.6739022853034,164.21538426325873L240.06781819616046,164.21538426325873L240.4580526499067,164.21538426325873L240.84828710365295,164.21538426325873L241.24220301451,164.21538426325873L241.65084475381033,164.21538426325873L242.05948649311065,164.21538426325873L242.46812823241098,164.21538426325873L242.85836268615722,164.21538426325873L243.26700442545754,164.21538426325873L243.6572388792038,164.21538426325873L244.04747333295003,164.21538426325873L244.43770778669628,164.21538426325873L244.82794224044255,164.21538426325873L245.2181766941888,164.21538426325873L245.60841114793504,164.21538426325873L245.9986456016813,164.21538426325873L246.38888005542753,164.21538426325873L246.7791145091738,164.21538426325873L247.16934896292005,164.21538426325873L247.5595834166663,164.21538426325873L247.94981787041255,164.21538426325873L248.3437337812696,164.21538426325873L248.75237552056993,164.21538426325873L249.14260997431617,164.21538426325873L249.53284442806245,164.21538426325873L249.9230788818087,164.21538426325873L250.31331333555494,164.21538426325873L250.70354778930118,164.21538426325873L251.1121895286015,164.21538426325873" fill="none"></path></g></g></g></g><g opacity="0.2"><g><g><g><path style="fill: none;" stroke="rgb(255, 112, 67)" stroke-width="2px" d="M19.254020689555578,-122641.191403797L19.644255143301827,164.21538426325873L20.03448959704808,164.21538426325873L20.597752535002574,164.21538426325873L21.175741301400322,164.21538426325873L21.56597575514657,164.21538426325873L23.336756625447958,164.21538426325873L24.42646793024881,164.21538426325873L24.816702383995054,164.21538426325873L26.683201139177594,164.21538426325873L27.515210446221488,164.21538426325873L28.424530352592466,164.21538426325873L29.031970775876726,164.21538426325873L29.941290682247704,164.21538426325873L30.331525135993957,164.21538426325873L30.72175958974021,164.21538426325873L31.11199404348646,164.21538426325873L31.74888612365723,164.21538426325873L32.315830518722535,164.21538426325873L33.20674313953945,164.21538426325873L34.0019378754752,164.21538426325873L34.39217232922145,164.21538426325873L34.782406782967705,164.21538426325873L35.434024691581726,164.21538426325873L36.015694915090286,164.21538426325873L36.40592936883654,164.21538426325873L37.06122873456138,164.21538426325873L37.75702412850516,164.21538426325873L38.430730779784064,164.21538426325873L38.820965233530316,164.21538426325873L39.608797055244445,164.21538426325873L39.9990315089907,164.21538426325873L40.38926596273695,164.21538426325873L41.49002163887024,164.21538426325873L42.40302300235203,164.21538426325873L43.05095945385524,164.21538426325873L43.441193907601495,164.21538426325873L43.83142836134774,164.21538426325873L44.22166281509399,164.21538426325873L44.630304554394314,164.21538426325873L45.02053900814056,164.21538426325873L45.41077346188681,164.21538426325873L46.19124236937932,164.21538426325873L47.063747704642154,164.21538426325873L47.453982158388406,164.21538426325873L48.017245096342904,164.21538426325873L48.5805080342974,164.21538426325873L48.97074248804365,164.21538426325873L49.55609416866302,164.21538426325873L51.39682272406987,164.21538426325873L51.974811490467616,164.21538426325873L52.38345322976794,164.21538426325873L52.77368768351419,164.21538426325873L53.34063207857949,164.21538426325873L53.73086653232574,164.21538426325873L54.51869835403988,164.21538426325873L54.90893280778612,164.21538426325873L55.299167261532375,164.21538426325873L56.68339513519832,164.21538426325873L57.07362958894457,164.21538426325873L57.46754549980164,164.21538426325873L58.04185280908857,164.21538426325873L58.43208726283482,164.21538426325873L59.01375748634339,164.21538426325873L59.61751645251683,164.21538426325873L60.17709793336051,164.21538426325873L61.33675692326682,164.21538426325873L62.03623377432142,164.21538426325873L62.42646822806767,164.21538426325873L62.81670268181392,164.21538426325873L63.206937135560175,164.21538426325873L63.88064378683908,164.21538426325873L64.44390672479356,164.21538426325873L64.83414117853982,164.21538426325873L65.22437563228607,164.21538426325873L65.61461008603233,164.21538426325873L66.00484453977857,164.21538426325873L66.39507899352482,164.21538426325873L67.15714061546326,164.21538426325873L68.69598968778338,164.21538426325873L69.08622414152963,164.21538426325873L70.08021756144933,164.21538426325873L70.76865004117148,164.21538426325873L71.15888449491774,164.21538426325873L71.71846597576142,164.21538426325873L73.31253690474374,164.21538426325873L73.9715177275794,164.21538426325873L74.85506743417467,164.21538426325873L75.24530188792093,164.21538426325873L75.63553634166718,164.21538426325873L77.29955495575497,164.21538426325873L77.89226955059596,164.21538426325873L78.59542785876138,164.21538426325873L79.42743716580527,164.21538426325873L79.81767161955152,164.21538426325873L80.37725310039521,164.21538426325873L80.93683458123888,164.21538426325873L81.32706903498514,164.21538426325873L81.93450945826939,164.21538426325873L82.32474391201565,164.21538426325873L82.7149783657619,164.21538426325873L83.41077375970568,164.21538426325873L83.80100821345194,164.21538426325873L84.36795260851724,164.21538426325873L84.77659434781756,164.21538426325873L85.16682880156381,164.21538426325873L85.55706325531007,164.21538426325873L86.47374607590265,164.21538426325873L86.86398052964891,164.21538426325873L87.61499778025491,164.21538426325873L88.00523223400117,164.21538426325873L88.39546668774742,164.21538426325873L88.80410842704774,164.21538426325873L89.38209719344547,164.21538426325873L90.06684821605681,164.21538426325873L90.63011115401132,164.21538426325873L91.02034560775758,164.21538426325873L91.41058006150382,164.21538426325873L91.99225028501237,164.21538426325873L92.65123110784803,164.21538426325873L93.05987284714836,164.21538426325873L93.4501073008946,164.21538426325873L94.43673780659267,164.21538426325873L94.82697226033892,164.21538426325873L95.47490871184213,164.21538426325873L95.86514316558838,164.21538426325873L96.68610810129984,164.21538426325873L97.24568958214351,164.21538426325873L97.9157147763116,164.21538426325873L98.30594923005785,164.21538426325873L98.6961836838041,164.21538426325873L99.45824530574254,164.21538426325873L100.02518970080784,164.21538426325873L100.43383144010816,164.21538426325873L101.64503082956585,164.21538426325873L102.03526528331211,164.21538426325873L102.66479444926125,164.21538426325873L103.58147726985386,164.21538426325873L104.14842166491917,164.21538426325873L104.74481771687098,164.21538426325873L105.32280648326874,164.21538426325873L106.50087275872912,164.21538426325873L107.0899058964593,164.21538426325873L108.53303708389826,164.21538426325873L108.92327153764452,164.21538426325873L109.92830932889665,164.21538426325873L110.3185437826429,164.21538426325873L110.70877823638915,164.21538426325873L111.09901269013541,164.21538426325873L111.68068291364398,164.21538426325873L112.24026439448765,164.21538426325873L112.63049884823391,164.21538426325873L113.02073330198016,164.21538426325873L113.4109677557264,164.21538426325873L113.80120220947265,164.21538426325873L114.49699760341643,164.21538426325873L114.88723205716269,164.21538426325873L115.5057168517794,164.21538426325873L116.11315727506366,164.21538426325873L116.5033917288099,164.21538426325873L116.89362618255615,164.21538426325873L117.30226792185648,164.21538426325873L117.69250237560271,164.21538426325873L118.40670505510059,164.21538426325873L118.79693950884682,164.21538426325873L119.18717396259308,164.21538426325873L119.57740841633932,164.21538426325873L119.98605015563965,164.21538426325873L120.75915614891052,164.21538426325873L121.4549515428543,164.21538426325873L121.86359328215462,164.21538426325873L122.43421913433076,164.21538426325873L122.84286087363107,164.21538426325873L123.40980526869637,164.21538426325873L123.80003972244262,164.21538426325873L124.37066557461876,164.21538426325873L124.77930731391908,164.21538426325873L126.04204710292815,164.21538426325873L126.43228155667441,164.21538426325873L126.84092329597473,164.21538426325873L127.23115774972098,164.21538426325873L127.79073923056465,164.21538426325873L128.1809736843109,164.21538426325873L128.74423662226542,164.21538426325873L129.3111810173307,164.21538426325873L129.70141547107696,164.21538426325873L130.0916499248232,164.21538426325873L130.6549128627777,164.21538426325873L131.9434228515625,164.21538426325873L132.33365730530875,164.21538426325873L133.03681561347415,164.21538426325873L133.4270500672204,164.21538426325873L133.81728452096667,164.21538426325873L134.40263620158606,164.21538426325873L134.7928706553323,164.21538426325873L135.18310510907855,164.21538426325873L136.1402839578901,164.21538426325873L136.53051841163636,164.21538426325873L137.30362440490725,164.21538426325873L137.69385885865347,164.21538426325873L138.2644847108296,164.21538426325873L138.65471916457585,164.21538426325873L139.0449536183221,164.21538426325873L139.43518807206834,164.21538426325873L140.21933843667165,164.21538426325873L140.83782323128838,164.21538426325873L141.2280576850346,164.21538426325873L141.61829213878084,164.21538426325873L142.0269338780812,164.21538426325873L142.69327761513847,164.21538426325873L143.08351206888472,164.21538426325873L143.749855805942,164.21538426325873L144.3131187438965,164.21538426325873L144.87638168185097,164.21538426325873L145.26661613559722,164.21538426325873L145.65685058934346,164.21538426325873L146.04708504308974,164.21538426325873L146.9343162067958,164.21538426325873L147.32455066054206,164.21538426325873L147.71478511428833,164.21538426325873L148.10501956803458,164.21538426325873L148.49525402178082,164.21538426325873L149.05851695973533,164.21538426325873L149.44875141348157,164.21538426325873L149.83898586722782,164.21538426325873L150.22922032097406,164.21538426325873L150.6194547747203,164.21538426325873L151.01337068557737,164.21538426325873L151.40360513932364,164.21538426325873L151.7938395930699,164.21538426325873L152.2024813323702,164.21538426325873L153.0823495818547,164.21538426325873L153.47258403560093,164.21538426325873L153.86281848934718,164.21538426325873L154.25673440020424,164.21538426325873L154.64696885395048,164.21538426325873L155.0556105932508,164.21538426325873L155.44584504699705,164.21538426325873L155.83607950074332,164.21538426325873L156.24472124004362,164.21538426325873L156.6349556937899,164.21538426325873L157.20558154596603,164.21538426325873L157.59581599971227,164.21538426325873L157.98605045345852,164.21538426325873L158.37628490720476,164.21538426325873L158.766519360951,164.21538426325873L159.34450812734877,164.21538426325873L159.9482670935222,164.21538426325873L160.5115300314767,164.21538426325873L160.90176448522294,164.21538426325873L161.2919989389692,164.21538426325873L161.68223339271543,164.21538426325873L162.25285924489157,164.21538426325873L162.64309369863784,164.21538426325873L163.0333281523841,164.21538426325873L163.7143977178846,164.21538426325873L164.10463217163087,164.21538426325873L164.66421365247453,164.21538426325873L165.0544481062208,164.21538426325873L165.44468255996705,164.21538426325873L165.8349170137133,164.21538426325873L166.24355875301362,164.21538426325873L166.63379320675986,164.21538426325873L167.2081005160468,164.21538426325873L167.59833496979306,164.21538426325873L167.9885694235393,164.21538426325873L168.37880387728555,164.21538426325873L169.14086549922396,164.21538426325873L169.7667132080623,164.21538426325873L170.15694766180854,164.21538426325873L170.54718211555482,164.21538426325873L170.93741656930106,164.21538426325873L171.34605830860139,164.21538426325873L171.73629276234763,164.21538426325873L172.1302086732047,164.21538426325873L172.52044312695094,164.21538426325873L172.91067758069718,164.21538426325873L173.30091203444343,164.21538426325873L173.6911464881897,164.21538426325873L174.09978822749,164.21538426325873L174.49002268123627,164.21538426325873L174.88025713498251,164.21538426325873L175.27049158872876,164.21538426325873L175.660726042475,164.21538426325873L176.30866249397823,164.21538426325873L176.69889694772448,164.21538426325873L177.08913140147072,164.21538426325873L177.47936585521697,164.21538426325873L177.8880075945173,164.21538426325873L178.2966493338176,164.21538426325873L178.68688378756386,164.21538426325873L179.0771182413101,164.21538426325873L179.46735269505638,164.21538426325873L179.85758714880262,164.21538426325873L180.24782160254887,164.21538426325873L180.6380560562951,164.21538426325873L181.02829051004136,164.21538426325873L181.58787199088505,164.21538426325873L181.9781064446313,164.21538426325873L182.37202235548835,164.21538426325873L182.76225680923463,164.21538426325873L183.15249126298087,164.21538426325873L183.54272571672712,164.21538426325873L183.93296017047336,164.21538426325873L184.3416019097737,164.21538426325873L184.73183636351993,164.21538426325873L185.12207081726618,164.21538426325873L185.51230527101245,164.21538426325873L185.9025397247587,164.21538426325873L186.31118146405902,164.21538426325873L186.71982320335934,164.21538426325873L187.11005765710559,164.21538426325873L187.50029211085183,164.21538426325873L187.89052656459808,164.21538426325873L188.28076101834432,164.21538426325873L188.6709954720906,164.21538426325873L189.07963721139092,164.21538426325873L189.46987166513716,164.21538426325873L189.8601061188834,164.21538426325873L190.25034057262965,164.21538426325873L190.6405750263759,164.21538426325873L191.2038379643304,164.21538426325873L191.59775387518746,164.21538426325873L192.37454132556917,164.21538426325873L192.7684572364262,164.21538426325873L193.15869169017247,164.21538426325873L193.71827317101614,164.21538426325873L194.1085076247624,164.21538426325873L194.5171493640627,164.21538426325873L194.90738381780898,164.21538426325873L195.29761827155522,164.21538426325873L195.69153418241228,164.21538426325873L196.1001759217126,164.21538426325873L196.49041037545885,164.21538426325873L196.89905211475917,164.21538426325873L197.3076938540595,164.21538426325873L197.69792830780574,164.21538426325873L198.0918442186628,164.21538426325873L198.48207867240905,164.21538426325873L198.8723131261553,164.21538426325873L199.26254757990154,164.21538426325873L199.6527820336478,164.21538426325873L200.04301648739406,164.21538426325873L200.4332509411403,164.21538426325873L200.82348539488655,164.21538426325873L201.21371984863282,164.21538426325873L201.6223615879331,164.21538426325873L202.0125960416794,164.21538426325873L202.40651195253645,164.21538426325873L202.80042786339354,164.21538426325873L203.19066231713978,164.21538426325873L203.58089677088603,164.21538426325873L203.97113122463224,164.21538426325873L204.3797729639326,164.21538426325873L204.78841470323292,164.21538426325873L205.17864915697916,164.21538426325873L205.83762997981478,164.21538426325873L206.22786443356105,164.21538426325873L206.81321611418045,164.21538426325873L207.2034505679267,164.21538426325873L207.59368502167294,164.21538426325873L208.00232676097326,164.21538426325873L208.3925612147195,164.21538426325873L208.78279566846575,164.21538426325873L209.173030122212,164.21538426325873L209.56326457595827,164.21538426325873L209.95349902970452,164.21538426325873L210.34373348345076,164.21538426325873L211.01007722050804,164.21538426325873L211.40031167425428,164.21538426325873L211.79054612800053,164.21538426325873L212.1807805817468,164.21538426325873L212.57469649260386,164.21538426325873L213.2594475152152,164.21538426325873L213.64968196896143,164.21538426325873L214.03991642270768,164.21538426325873L214.43015087645395,164.21538426325873L214.8203853302002,164.21538426325873L215.21061978394644,164.21538426325873L215.6008542376927,164.21538426325873L215.99108869143896,164.21538426325873L216.3813231451852,164.21538426325873L216.77155759893145,164.21538426325873L217.1617920526777,164.21538426325873L217.55202650642394,164.21538426325873L217.94226096017022,164.21538426325873L218.33249541391646,164.21538426325873L218.7227298676627,164.21538426325873L219.11296432140895,164.21538426325873L219.50319877515523,164.21538426325873L219.89343322890147,164.21538426325873L220.3020749682018,164.21538426325873L220.69230942194804,164.21538426325873L221.08254387569428,164.21538426325873L221.47645978655135,164.21538426325873L221.8666942402976,164.21538426325873L222.25692869404384,164.21538426325873L222.6471631477901,164.21538426325873L223.03739760153636,164.21538426325873L223.4276320552826,164.21538426325873L223.81786650902885,164.21538426325873L224.22650824832917,164.21538426325873L224.6351499876295,164.21538426325873L225.02538444137573,164.21538426325873L225.43402618067606,164.21538426325873L226.13718448884146,164.21538426325873L226.5274189425877,164.21538426325873L227.18639976542337,164.21538426325873L227.9226911875861,164.21538426325873L228.31292564133236,164.21538426325873L228.7031600950786,164.21538426325873L229.09339454882485,164.21538426325873L229.4836290025711,164.21538426325873L229.87386345631737,164.21538426325873L230.28250519561766,164.21538426325873L230.67273964936393,164.21538426325873L231.066655560221,164.21538426325873L231.45689001396724,164.21538426325873L231.86553175326756,164.21538426325873L232.2557662070138,164.21538426325873L232.64600066076005,164.21538426325873L233.0362351145063,164.21538426325873L233.42646956825257,164.21538426325873L233.81670402199882,164.21538426325873L234.20693847574506,164.21538426325873L234.5971729294913,164.21538426325873L234.98740738323755,164.21538426325873L235.37764183698383,164.21538426325873L235.76787629073007,164.21538426325873L236.15811074447632,164.21538426325873L236.54834519822256,164.21538426325873L236.93857965196884,164.21538426325873L237.32881410571508,164.21538426325873L237.71904855946133,164.21538426325873L238.10928301320757,164.21538426325873L238.49951746695382,164.21538426325873L238.8897519207001,164.21538426325873L239.27998637444634,164.21538426325873L239.6739022853034,164.21538426325873L240.06781819616046,164.21538426325873L240.4580526499067,164.21538426325873L240.84828710365295,164.21538426325873L241.24220301451,164.21538426325873L241.65084475381033,164.21538426325873L242.05948649311065,164.21538426325873L242.46812823241098,164.21538426325873L242.85836268615722,164.21538426325873L243.26700442545754,164.21538426325873L243.6572388792038,164.21538426325873L244.04747333295003,164.21538426325873L244.43770778669628,164.21538426325873L244.82794224044255,164.21538426325873L245.2181766941888,164.21538426325873L245.60841114793504,164.21538426325873L245.9986456016813,164.21538426325873L246.38888005542753,164.21538426325873L246.7791145091738,164.21538426325873L247.16934896292005,164.21538426325873L247.5595834166663,164.21538426325873L247.94981787041255,164.21538426325873L248.3437337812696,164.21538426325873L248.75237552056993,164.21538426325873L249.14260997431617,164.21538426325873L249.53284442806245,164.21538426325873L249.9230788818087,164.21538426325873L250.31331333555494,164.21538426325873L250.70354778930118,164.21538426325873L251.1121895286015,164.21538426325873" fill="none"></path></g></g></g></g></g></g><g transform="translate(72, 177)" clip-path="url(#clip_1)"><clipPath id="clip_1"><rect width="257" height="22"></rect></clipPath><g><g><line x1="0" y1="0" x2="0" y2="5" style="visibility: inherit;" fill="rgb(0, 0, 0)" stroke="rgb(204, 204, 204)" stroke-width="1px"></line><line x1="18.407285554068427" y1="0" x2="18.407285554068427" y2="5" style="visibility: inherit;" fill="rgb(0, 0, 0)" stroke="rgb(204, 204, 204)" stroke-width="1px"></line><line x1="36.81457110813685" y1="0" x2="36.81457110813685" y2="5" style="visibility: inherit;" fill="rgb(0, 0, 0)" stroke="rgb(204, 204, 204)" stroke-width="1px"></line><line x1="55.22185666220528" y1="0" x2="55.22185666220528" y2="5" style="visibility: inherit;" fill="rgb(0, 0, 0)" stroke="rgb(204, 204, 204)" stroke-width="1px"></line><line x1="73.6291422162737" y1="0" x2="73.6291422162737" y2="5" style="visibility: inherit;" fill="rgb(0, 0, 0)" stroke="rgb(204, 204, 204)" stroke-width="1px"></line><line x1="92.03642777034214" y1="0" x2="92.03642777034214" y2="5" style="visibility: inherit;" fill="rgb(0, 0, 0)" stroke="rgb(204, 204, 204)" stroke-width="1px"></line><line x1="110.44371332441057" y1="0" x2="110.44371332441057" y2="5" style="visibility: inherit;" fill="rgb(0, 0, 0)" stroke="rgb(204, 204, 204)" stroke-width="1px"></line><line x1="128.850998878479" y1="0" x2="128.850998878479" y2="5" style="visibility: inherit;" fill="rgb(0, 0, 0)" stroke="rgb(204, 204, 204)" stroke-width="1px"></line><line x1="147.2582844325474" y1="0" x2="147.2582844325474" y2="5" style="visibility: inherit;" fill="rgb(0, 0, 0)" stroke="rgb(204, 204, 204)" stroke-width="1px"></line><line x1="165.66556998661588" y1="0" x2="165.66556998661588" y2="5" style="visibility: inherit;" fill="rgb(0, 0, 0)" stroke="rgb(204, 204, 204)" stroke-width="1px"></line><line x1="184.0728555406843" y1="0" x2="184.0728555406843" y2="5" style="visibility: inherit;" fill="rgb(0, 0, 0)" stroke="rgb(204, 204, 204)" stroke-width="1px"></line><line x1="202.48014109475272" y1="0" x2="202.48014109475272" y2="5" style="visibility: inherit;" fill="rgb(0, 0, 0)" stroke="rgb(204, 204, 204)" stroke-width="1px"></line><line x1="220.88742664882113" y1="0" x2="220.88742664882113" y2="5" style="visibility: inherit;" fill="rgb(0, 0, 0)" stroke="rgb(204, 204, 204)" stroke-width="1px"></line><line x1="239.2947122028896" y1="0" x2="239.2947122028896" y2="5" style="visibility: inherit;" fill="rgb(0, 0, 0)" stroke="rgb(204, 204, 204)" stroke-width="1px"></line><line x1="257.701997756958" y1="0" x2="257.701997756958" y2="5" style="visibility: inherit;" fill="rgb(0, 0, 0)" stroke="rgb(204, 204, 204)" stroke-width="1px"></line></g><g transform="translate(0, 8)"><text style="text-anchor: middle; visibility: hidden; font-family: Roboto, sans-serif; font-size: 12px; font-weight: 200;" x="0" y="0" dx="0em" dy="0.95em" fill="rgb(50, 49, 63)" stroke="none" stroke-width="1px">20k</text><text style="text-anchor: middle; visibility: inherit; font-family: Roboto, sans-serif; font-size: 12px; font-weight: 200;" x="18.407285554068427" y="0" dx="0em" dy="0.95em" fill="rgb(50, 49, 63)" stroke="none" stroke-width="1px">25k</text><text style="text-anchor: middle; visibility: hidden; font-family: Roboto, sans-serif; font-size: 12px; font-weight: 200;" x="36.81457110813685" y="0" dx="0em" dy="0.95em" fill="rgb(50, 49, 63)" stroke="none" stroke-width="1px">30k</text><text style="text-anchor: middle; visibility: inherit; font-family: Roboto, sans-serif; font-size: 12px; font-weight: 200;" x="55.22185666220528" y="0" dx="0em" dy="0.95em" fill="rgb(50, 49, 63)" stroke="none" stroke-width="1px">35k</text><text style="text-anchor: middle; visibility: hidden; font-family: Roboto, sans-serif; font-size: 12px; font-weight: 200;" x="73.6291422162737" y="0" dx="0em" dy="0.95em" fill="rgb(50, 49, 63)" stroke="none" stroke-width="1px">40k</text><text style="text-anchor: middle; visibility: inherit; font-family: Roboto, sans-serif; font-size: 12px; font-weight: 200;" x="92.03642777034214" y="0" dx="0em" dy="0.95em" fill="rgb(50, 49, 63)" stroke="none" stroke-width="1px">45k</text><text style="text-anchor: middle; visibility: hidden; font-family: Roboto, sans-serif; font-size: 12px; font-weight: 200;" x="110.44371332441057" y="0" dx="0em" dy="0.95em" fill="rgb(50, 49, 63)" stroke="none" stroke-width="1px">50k</text><text style="text-anchor: middle; visibility: inherit; font-family: Roboto, sans-serif; font-size: 12px; font-weight: 200;" x="128.850998878479" y="0" dx="0em" dy="0.95em" fill="rgb(50, 49, 63)" stroke="none" stroke-width="1px">55k</text><text style="text-anchor: middle; visibility: hidden; font-family: Roboto, sans-serif; font-size: 12px; font-weight: 200;" x="147.2582844325474" y="0" dx="0em" dy="0.95em" fill="rgb(50, 49, 63)" stroke="none" stroke-width="1px">60k</text><text style="text-anchor: middle; visibility: inherit; font-family: Roboto, sans-serif; font-size: 12px; font-weight: 200;" x="165.66556998661588" y="0" dx="0em" dy="0.95em" fill="rgb(50, 49, 63)" stroke="none" stroke-width="1px">65k</text><text style="text-anchor: middle; visibility: hidden; font-family: Roboto, sans-serif; font-size: 12px; font-weight: 200;" x="184.0728555406843" y="0" dx="0em" dy="0.95em" fill="rgb(50, 49, 63)" stroke="none" stroke-width="1px">70k</text><text style="text-anchor: middle; visibility: inherit; font-family: Roboto, sans-serif; font-size: 12px; font-weight: 200;" x="202.48014109475272" y="0" dx="0em" dy="0.95em" fill="rgb(50, 49, 63)" stroke="none" stroke-width="1px">75k</text><text style="text-anchor: middle; visibility: hidden; font-family: Roboto, sans-serif; font-size: 12px; font-weight: 200;" x="220.88742664882113" y="0" dx="0em" dy="0.95em" fill="rgb(50, 49, 63)" stroke="none" stroke-width="1px">80k</text><text style="text-anchor: middle; visibility: inherit; font-family: Roboto, sans-serif; font-size: 12px; font-weight: 200;" x="239.2947122028896" y="0" dx="0em" dy="0.95em" fill="rgb(50, 49, 63)" stroke="none" stroke-width="1px">85k</text><text style="text-anchor: middle; visibility: hidden; font-family: Roboto, sans-serif; font-size: 12px; font-weight: 200;" x="257.701997756958" y="0" dx="0em" dy="0.95em" fill="rgb(50, 49, 63)" stroke="none" stroke-width="1px">90k</text></g><line x1="0" y1="0" x2="257.701997756958" y2="0" fill="rgb(0, 0, 0)" stroke="rgb(204, 204, 204)" stroke-width="1px"></line></g></g></g></g></svg>