<svg viewBox="0 0 330 200" xmlns="http://www.w3.org/2000/svg"><g><g><g><g><g><line x1="41.149001121520996" y1="177.89999961853027" x2="36.149001121520996" y2="177.89999961853027" style="visibility: inherit;" fill="rgb(0, 0, 0)" stroke="rgb(204, 204, 204)" stroke-width="1px"></line><line x1="41.149001121520996" y1="161.72727238048205" x2="36.149001121520996" y2="161.72727238048205" style="visibility: inherit;" fill="rgb(0, 0, 0)" stroke="rgb(204, 204, 204)" stroke-width="1px"></line><line x1="41.149001121520996" y1="145.55454514243385" x2="36.149001121520996" y2="145.55454514243385" style="visibility: inherit;" fill="rgb(0, 0, 0)" stroke="rgb(204, 204, 204)" stroke-width="1px"></line><line x1="41.149001121520996" y1="129.38181790438566" x2="36.149001121520996" y2="129.38181790438566" style="visibility: inherit;" fill="rgb(0, 0, 0)" stroke="rgb(204, 204, 204)" stroke-width="1px"></line><line x1="41.149001121520996" y1="113.20909066633745" x2="36.149001121520996" y2="113.20909066633745" style="visibility: inherit;" fill="rgb(0, 0, 0)" stroke="rgb(204, 204, 204)" stroke-width="1px"></line><line x1="41.149001121520996" y1="97.03636342828923" x2="36.149001121520996" y2="97.03636342828923" style="visibility: inherit;" fill="rgb(0, 0, 0)" stroke="rgb(204, 204, 204)" stroke-width="1px"></line><line x1="41.149001121520996" y1="80.86363619024104" x2="36.149001121520996" y2="80.86363619024104" style="visibility: inherit;" fill="rgb(0, 0, 0)" stroke="rgb(204, 204, 204)" stroke-width="1px"></line><line x1="41.149001121520996" y1="64.69090895219283" x2="36.149001121520996" y2="64.69090895219283" style="visibility: inherit;" fill="rgb(0, 0, 0)" stroke="rgb(204, 204, 204)" stroke-width="1px"></line><line x1="41.149001121520996" y1="48.51818171414462" x2="36.149001121520996" y2="48.51818171414462" style="visibility: inherit;" fill="rgb(0, 0, 0)" stroke="rgb(204, 204, 204)" stroke-width="1px"></line><line x1="41.149001121520996" y1="32.34545447609641" x2="36.149001121520996" y2="32.34545447609641" style="visibility: inherit;" fill="rgb(0, 0, 0)" stroke="rgb(204, 204, 204)" stroke-width="1px"></line><line x1="41.149001121520996" y1="16.17272723804821" x2="36.149001121520996" y2="16.17272723804821" style="visibility: inherit;" fill="rgb(0, 0, 0)" stroke="rgb(204, 204, 204)" stroke-width="1px"></line><line x1="41.149001121520996" y1="0" x2="36.149001121520996" y2="0" style="visibility: inherit;" fill="rgb(0, 0, 0)" stroke="rgb(204, 204, 204)" stroke-width="1px"></line></g><g transform="translate(31.149001121520996, 0)"><text style="text-anchor: end; visibility: hidden; font-family: Roboto, sans-serif; font-size: 12px; font-weight: 200;" x="0" y="177.89999961853027" dx="0em" dy="0.3em" fill="rgb(50, 49, 63)" stroke="none" stroke-width="1px">-60</text><text style="text-anchor: end; visibility: inherit; font-family: Roboto, sans-serif; font-size: 12px; font-weight: 200;" x="0" y="161.72727238048205" dx="0em" dy="0.3em" fill="rgb(50, 49, 63)" stroke="none" stroke-width="1px">-50</text><text style="text-anchor: end; visibility: hidden; font-family: Roboto, sans-serif; font-size: 12px; font-weight: 200;" x="0" y="145.55454514243385" dx="0em" dy="0.3em" fill="rgb(50, 49, 63)" stroke="none" stroke-width="1px">-40</text><text style="text-anchor: end; visibility: inherit; font-family: Roboto, sans-serif; font-size: 12px; font-weight: 200;" x="0" y="129.38181790438566" dx="0em" dy="0.3em" fill="rgb(50, 49, 63)" stroke="none" stroke-width="1px">-30</text><text style="text-anchor: end; visibility: hidden; font-family: Roboto, sans-serif; font-size: 12px; font-weight: 200;" x="0" y="113.20909066633745" dx="0em" dy="0.3em" fill="rgb(50, 49, 63)" stroke="none" stroke-width="1px">-20</text><text style="text-anchor: end; visibility: inherit; font-family: Roboto, sans-serif; font-size: 12px; font-weight: 200;" x="0" y="97.03636342828923" dx="0em" dy="0.3em" fill="rgb(50, 49, 63)" stroke="none" stroke-width="1px">-10</text><text style="text-anchor: end; visibility: hidden; font-family: Roboto, sans-serif; font-size: 12px; font-weight: 200;" x="0" y="80.86363619024104" dx="0em" dy="0.3em" fill="rgb(50, 49, 63)" stroke="none" stroke-width="1px">0</text><text style="text-anchor: end; visibility: inherit; font-family: Roboto, sans-serif; font-size: 12px; font-weight: 200;" x="0" y="64.69090895219283" dx="0em" dy="0.3em" fill="rgb(50, 49, 63)" stroke="none" stroke-width="1px">10</text><text style="text-anchor: end; visibility: hidden; font-family: Roboto, sans-serif; font-size: 12px; font-weight: 200;" x="0" y="48.51818171414462" dx="0em" dy="0.3em" fill="rgb(50, 49, 63)" stroke="none" stroke-width="1px">20</text><text style="text-anchor: end; visibility: inherit; font-family: Roboto, sans-serif; font-size: 12px; font-weight: 200;" x="0" y="32.34545447609641" dx="0em" dy="0.3em" fill="rgb(50, 49, 63)" stroke="none" stroke-width="1px">30</text><text style="text-anchor: end; visibility: hidden; font-family: Roboto, sans-serif; font-size: 12px; font-weight: 200;" x="0" y="16.17272723804821" dx="0em" dy="0.3em" fill="rgb(50, 49, 63)" stroke="none" stroke-width="1px">40</text><text style="text-anchor: end; visibility: hidden; font-family: Roboto, sans-serif; font-size: 12px; font-weight: 200;" x="0" y="0" dx="0em" dy="0.3em" fill="rgb(50, 49, 63)" stroke="none" stroke-width="1px">50</text></g><line x1="41.149001121520996" y1="0" x2="41.149001121520996" y2="177.89999961853027" fill="rgb(0, 0, 0)" stroke="rgb(204, 204, 204)" stroke-width="1px"></line></g></g><g transform="translate(41, 0)" clip-path="url(#clip_0)"><clipPath id="clip_0"><rect width="288" height="177"></rect></clipPath><g><g><g><line x1="0" y1="0" x2="0" y2="177.89999961853027" fill="rgb(0, 0, 0)" stroke="rgb(60, 60, 60)" stroke-width="1px" opacity="0.25"></line><line x1="20.632214205605642" y1="0" x2="20.632214205605642" y2="177.89999961853027" fill="rgb(0, 0, 0)" stroke="rgb(60, 60, 60)" stroke-width="1px" opacity="0.25"></line><line x1="41.264428411211284" y1="0" x2="41.264428411211284" y2="177.89999961853027" fill="rgb(0, 0, 0)" stroke="rgb(60, 60, 60)" stroke-width="1px" opacity="0.25"></line><line x1="61.896642616816926" y1="0" x2="61.896642616816926" y2="177.89999961853027" fill="rgb(0, 0, 0)" stroke="rgb(60, 60, 60)" stroke-width="1px" opacity="0.25"></line><line x1="82.52885682242257" y1="0" x2="82.52885682242257" y2="177.89999961853027" fill="rgb(0, 0, 0)" stroke="rgb(60, 60, 60)" stroke-width="1px" opacity="0.25"></line><line x1="103.16107102802822" y1="0" x2="103.16107102802822" y2="177.89999961853027" fill="rgb(0, 0, 0)" stroke="rgb(60, 60, 60)" stroke-width="1px" opacity="0.25"></line><line x1="123.79328523363385" y1="0" x2="123.79328523363385" y2="177.89999961853027" fill="rgb(0, 0, 0)" stroke="rgb(60, 60, 60)" stroke-width="1px" opacity="0.25"></line><line x1="144.4254994392395" y1="0" x2="144.4254994392395" y2="177.89999961853027" fill="rgb(0, 0, 0)" stroke="rgb(60, 60, 60)" stroke-width="1px" opacity="0.25"></line><line x1="165.05771364484514" y1="0" x2="165.05771364484514" y2="177.89999961853027" fill="rgb(0, 0, 0)" stroke="rgb(60, 60, 60)" stroke-width="1px" opacity="0.25"></line><line x1="185.6899278504508" y1="0" x2="185.6899278504508" y2="177.89999961853027" fill="rgb(0, 0, 0)" stroke="rgb(60, 60, 60)" stroke-width="1px" opacity="0.25"></line><line x1="206.32214205605644" y1="0" x2="206.32214205605644" y2="177.89999961853027" fill="rgb(0, 0, 0)" stroke="rgb(60, 60, 60)" stroke-width="1px" opacity="0.25"></line><line x1="226.95435626166207" y1="0" x2="226.95435626166207" y2="177.89999961853027" fill="rgb(0, 0, 0)" stroke="rgb(60, 60, 60)" stroke-width="1px" opacity="0.25"></line><line x1="247.5865704672677" y1="0" x2="247.5865704672677" y2="177.89999961853027" fill="rgb(0, 0, 0)" stroke="rgb(60, 60, 60)" stroke-width="1px" opacity="0.25"></line><line x1="268.21878467287337" y1="0" x2="268.21878467287337" y2="177.89999961853027" fill="rgb(0, 0, 0)" stroke="rgb(60, 60, 60)" stroke-width="1px" opacity="0.25"></line><line x1="288.850998878479" y1="0" x2="288.850998878479" y2="177.89999961853027" fill="rgb(0, 0, 0)" stroke="rgb(60, 60, 60)" stroke-width="1px" opacity="0.25"></line></g><g><line x1="0" y1="177.89999961853027" x2="288.850998878479" y2="177.89999961853027" fill="rgb(0, 0, 0)" stroke="rgb(60, 60, 60)" stroke-width="1px" opacity="0.25"></line><line x1="0" y1="161.72727238048205" x2="288.850998878479" y2="161.72727238048205" fill="rgb(0, 0, 0)" stroke="rgb(60, 60, 60)" stroke-width="1px" opacity="0.25"></line><line x1="0" y1="145.55454514243385" x2="288.850998878479" y2="145.55454514243385" fill="rgb(0, 0, 0)" stroke="rgb(60, 60, 60)" stroke-width="1px" opacity="0.25"></line><line x1="0" y1="129.38181790438566" x2="288.850998878479" y2="129.38181790438566" fill="rgb(0, 0, 0)" stroke="rgb(60, 60, 60)" stroke-width="1px" opacity="0.25"></line><line x1="0" y1="113.20909066633745" x2="288.850998878479" y2="113.20909066633745" fill="rgb(0, 0, 0)" stroke="rgb(60, 60, 60)" stroke-width="1px" opacity="0.25"></line><line x1="0" y1="97.03636342828923" x2="288.850998878479" y2="97.03636342828923" fill="rgb(0, 0, 0)" stroke="rgb(60, 60, 60)" stroke-width="1px" opacity="0.25"></line><line x1="0" y1="80.86363619024104" x2="288.850998878479" y2="80.86363619024104" fill="rgb(0, 0, 0)" stroke="rgb(60, 60, 60)" stroke-width="1px" opacity="0.25"></line><line x1="0" y1="64.69090895219283" x2="288.850998878479" y2="64.69090895219283" fill="rgb(0, 0, 0)" stroke="rgb(60, 60, 60)" stroke-width="1px" opacity="0.25"></line><line x1="0" y1="48.51818171414462" x2="288.850998878479" y2="48.51818171414462" fill="rgb(0, 0, 0)" stroke="rgb(60, 60, 60)" stroke-width="1px" opacity="0.25"></line><line x1="0" y1="32.34545447609641" x2="288.850998878479" y2="32.34545447609641" fill="rgb(0, 0, 0)" stroke="rgb(60, 60, 60)" stroke-width="1px" opacity="0.25"></line><line x1="0" y1="16.17272723804821" x2="288.850998878479" y2="16.17272723804821" fill="rgb(0, 0, 0)" stroke="rgb(60, 60, 60)" stroke-width="1px" opacity="0.25"></line><line x1="0" y1="0" x2="288.850998878479" y2="0" fill="rgb(0, 0, 0)" stroke="rgb(60, 60, 60)" stroke-width="1px" opacity="0.25"></line></g></g></g><g><g><line x1="0" y1="80.86363619024104" x2="288.850998878479" y2="80.86363619024104" fill="rgb(0, 0, 0)" stroke="rgb(153, 153, 153)" stroke-width="1.5px"></line></g></g><g><g><line x1="-82.52885682242257" y1="0" x2="-82.52885682242257" y2="177.89999961853027" fill="rgb(0, 0, 0)" stroke="rgb(153, 153, 153)" stroke-width="1.5px"></line></g></g><g><g><g><g><g><path style="fill: none;" stroke="rgb(255, 112, 67)" stroke-width="2px" d="M13.188111320223125,127.5257305653231L14.384779744148254,72.0764835927558L15.094527912821087,43.194526628858426L15.53193085397993,50.225068885262345L16.567668007101332,40.87608940500158L17.425968118054527,38.416928741209695L18.742303384372164,28.59825133211476L19.93484536545617,23.24409583421265L20.37224830661501,27.090127859153103L21.581296059063504,27.937398940492884L22.01869900022234,36.08794890754249L22.45610194138118,46.673756178473376L23.087447696072715,54.93458022557423L23.735299222128734,60.25853543013669L24.17270216328757,63.85530043531573L26.157521169866836,53.08891637877615L27.37894825083869,40.32433755906513L27.816351191997526,34.47896365677019L29.90845771244594,22.51094715292446L30.841033794539317,15.797608088492893L31.86026517629623,12.192340762755578L32.54112824508122,9.957245409869468L33.560359626838135,6.382792910113186L33.99776256799698,5.552554892773072L34.435165509155816,7.913478394781696L34.87256845031466,10.29803430492074L35.58644306182862,12.965613931409743L36.22191525936127,15.80467141010381L37.22051442691258,15.871775394041356L38.111826080594746,14.660235434309367L38.54922902175358,14.901814699836605L38.986631962912426,15.852797643195716L39.71701234579086,17.859242605091495L40.368990314688,20.12827227580598L40.80639325584684,22.09413635004409L41.540900081566406,23.545111100360444L42.32079777853829,25.52030585310993L43.07593681846346,25.904433927535635L43.5133397596223,27.260205462978302L44.396398527622225,27.352980601298746L44.83380146878106,28.30993048205751L45.271204409939905,30.508678945000643L46.50501081943512,29.433759294842417L47.52836864403316,28.558688667176153L48.254622584070475,28.068841517097507L48.69202552522932,28.184120303146425L49.129428466388156,28.687101685046574L49.566831407547,29.364849170381518L50.02486656291144,30.373513218706144L50.46226950407028,32.33982570562001L50.89967244522912,35.128459747078224L51.7744783275468,36.96458034951307L52.7524452808925,37.250643686589456L53.189848222051346,38.92555489769914L53.82119397674288,40.69013439570129L54.45253973143441,42.2947955427056L54.88994267259326,43.641200950344555L55.54604708433151,44.55310356318493L57.60926850489208,43.02090241809022L58.25712003094809,41.83543232933255L58.71515518631254,41.482114009330324L59.15255812747138,41.658047853089386L59.78803032500403,41.922229752826844L60.22543326616287,43.299906027201054L61.10849203416279,43.25136553335391L61.54589497532164,43.56164246201477L61.983297916480474,44.09462793775914L63.534840424742015,43.768101162763045L63.97224336590086,44.71540067703454L64.41377274990082,45.43408438612961L65.0574978331157,46.159702359784596L65.49490077427456,46.814033994310414L66.1468787431717,47.737638670964245L66.82361536911556,48.55741167258728L67.45083468096597,49.80022542312272L68.75066417591913,49.8564615951494L69.53468831573214,49.903468754796734L69.97209125689098,50.06764552135734L70.40949419804981,50.795031199196806L70.84689713920866,51.925657723402736L71.60203617913382,52.73261145886197L72.23338193382536,53.5355667707985L72.67078487498421,54.594066503618166L73.10818781614303,55.39479453100133L73.54559075730188,56.429830085172455L73.98299369846072,57.1384853598312L74.42039663961955,58.209071791134164L75.27457030773162,58.57898638978568L76.99942341532027,57.64445102857324L77.43682635647909,57.18893915735105L78.55096592358181,56.36893630575403L79.32261073487145,55.54258364544509L79.7600136760303,55.50839167162747L80.38723298788071,55.57648334479349L82.17398273808615,53.830938150206016L82.91261600664684,52.50099301981062L83.9029622885159,50.92364243438894L84.34036522967475,50.24615278193895L84.77776817083358,49.94443400980329L86.64292033502034,49.02070746197054L87.30727763244083,48.36998819538185L88.09542821509498,47.96754233450115L89.02800429718835,48.131709550129585L89.46540723834718,48.18483883509823L90.09262655019761,49.1292727076671L90.719845862048,49.92695630383426L91.15724880320685,51.13598586235093L91.83811187199184,52.5131902192378L92.27551481315069,53.275458360323896L92.71291775430952,54.269298437772704L93.4928154512814,54.33679926618758L93.93021839244025,53.863753485817604L94.5656905899729,53.37324105099783L95.02372574533736,53.49612115163369L95.46112868649618,53.535205530476624L95.89853162765503,55.76451425914535L96.92601589509418,57.487657748027814L97.36341883625303,58.47919642274972L98.20521317584173,60.73393472321972L98.64261611700059,62.71116599395528L99.08001905815942,64.20141462346513L99.53805421352386,65.6678317172302L100.18590573957988,67.10390542425768L100.9534241080284,67.6245166156611L101.58476986271994,67.73439263446377L102.02217280387879,67.9767351818947L102.45957574503763,68.122700583933L103.11155371393475,68.41716653132467L103.85018698249544,69.12855498155183L104.30822213785989,70.65709062448917L104.74562507901872,71.58858456656033L105.8515117604392,71.3946141478478L106.28891470159803,71.06584485667736L107.01516864163536,70.9389280812128L107.45257158279419,70.85733012210946L108.3727683363642,70.73743058280587L108.99998764821461,70.72596059900799L109.75100024529867,71.01871801307722L110.18840318645749,70.98226859730376L110.62580612761633,71.48804478535905L111.47997979572841,71.49604870700699L112.11545199326106,70.70627415705589L112.5734871486255,71.45950640740989L113.93108684335435,71.12310797480568L114.3684897845132,71.47191769089706L115.07411151034492,71.38693520092589L116.10159577778408,70.97326916457178L116.73706797531673,70.70492057176507L117.40555171557835,70.56129803561164L118.05340324163437,70.18997118294784L119.37386495079313,68.70936648029668L120.0340958053725,67.54336065393022L121.65166139909199,66.03767061164048L122.08906434025084,64.8254889290419L123.21558323587689,63.60979864847407L123.65298617703574,62.849503519214934L124.09038911819458,62.29503361703832L124.52779205935343,62.42989084300098L125.17977002825056,64.08637765444816L125.80698934010097,65.07860523562155L126.2443922812598,66.07762945200022L126.68179522241864,67.23402225940008L127.1191981635775,67.95281226504086L127.55660110473633,68.38354798776604L128.33649880170822,69.45727177574175L128.77390174286705,70.04380452114209L129.4671441401754,69.91158282153532L130.1480072089604,70.47716648167798L130.58541015011923,70.26313053673972L131.02281309127807,70.17208168798749L131.48084824664252,70.21709352700296L131.91825118780136,70.20325916376952L132.71878109897887,69.86250376336282L133.1561840401377,69.62224082387696L133.59358698129654,69.00826306357878L134.03098992245538,69.4332570625479L134.48902507781983,69.74562739386451L135.35557807445525,70.19767576805415L136.13547577142717,69.53455012933543L136.5935109267916,68.73133090143254L137.23310956716537,68.37631699851568L137.69114472252983,67.95965965478028L138.3266169200625,67.85832880405908L138.7640198612213,67.72673080917846L139.40361850159508,67.65243114753838L139.86165365695953,67.56896867026497L141.27702355146408,65.49284164954632L141.71442649262292,64.93081210451678L142.17246164798738,66.24171752366347L142.6098645891462,67.00292765243218L143.23708390099662,67.75951214794857L143.67448684215546,68.63832329682594L144.30583259684698,68.8779790217964L144.94130479437965,68.7385612547645L145.37870773553848,71.09088228964347L145.81611067669732,73.0228368820727L146.44745643138884,75.28510179187856L147.89171142578127,75.85314394735664L148.32911436694008,76.42517836662017L149.11726494959422,77.61940292637485L149.55466789075305,78.83908125139857L149.99207083191192,80.08059170697229L150.64817524365017,80.66204096077442L151.085578184809,81.02325491575426L151.52298112596785,81.06666921669995L152.59585626465932,80.09484752002992L153.03325920581818,79.53467222524431L153.89981220245363,78.76575029968495L154.33721514361247,78.4980219414951L154.97681378398624,78.05260947171696L155.41421672514508,78.26976006109749L155.85161966630392,78.99863441336863L156.28902260746273,79.50681262643609L157.16795493262154,78.83839984918671L157.8611973299299,78.68888957816516L158.29860027108873,78.57253597803688L158.73600321224757,79.44645376093487L159.19403836761202,79.87791811665954L159.94092452185495,80.47161249597644L160.3783274630138,80.42878273846213L161.12521361725672,80.58415677417275L161.75655937194827,80.1935105483027L162.38790512663977,79.93207559776707L162.8253080677986,80.1537128038807L163.26271100895744,80.4615660636137L163.7001139501163,80.87698511485003L164.69458667482647,80.2398364233003L165.1319896159853,79.52832546447402L165.56939255714417,79.40891048192316L166.006795498303,78.86445180171725L166.44419843946184,78.5117731649302L167.0755441941534,78.93771724048837L167.51294713531223,79.26149737949083L167.95035007647107,79.70920895399198L168.3877530176299,80.49114351650262L168.8251559587887,81.14605268639866L169.2666853427887,81.41179093946616L169.70408828394756,82.21147234932585L170.1414912251064,83.03778672238509L170.59952638047082,84.02306587639886L171.5857462194988,84.65181877728405L172.02314916065762,85.5285542515686L172.46055210181643,86.07314647678652L172.9020814858164,87.59981962906103L173.33948442697525,88.13276110187596L173.7975195823397,89.1560807086629L174.2349225234985,90.13420129324055L174.67232546465738,91.09576201952368L175.1303606200218,92.145976403872L175.56776356118067,92.68112024526984L176.20736220155445,93.36009995213428L176.64476514271328,94.49692377377887L177.08216808387212,97.05319348680246L177.51957102503096,98.30617701779437L177.9569739661898,99.40035928930854L178.60482549224582,100.07456435898008L179.28156211818967,100.09844678249466L179.91290787288122,99.80801869317287L180.35031081404006,99.80025127632607L180.7877137551989,100.5250780298123L181.2251166963577,100.52911450010036L181.86471533673148,99.55420687185945L182.30211827789034,98.98888409018029L182.73952121904918,98.0538516731718L183.5029131446566,96.9155282209226L183.94031608581543,96.85485507213058L184.56753539766584,97.01380912033595L185.0049383388247,97.68612895964588L185.44234127998354,98.1576693539915L185.87974422114235,98.53504596008625L186.3377793765068,98.96097508500578L186.77518231766564,99.29451138197823L187.41890740088056,99.78699266562165L187.8563103420394,100.3276024177123L188.2937132831982,100.76205391284574L188.73111622435704,101.49609468265122L189.58528989246912,101.33627235606276L190.28678517545973,100.67289911992083L190.72418811661856,100.80297816872758L191.16159105777743,100.83516963830438L191.59899399893627,101.36479987963234L192.0570291543007,102.3089213995925L192.49443209545953,102.3214698898854L192.9359614794595,102.40659283515765L193.37336442061834,102.24194839169623L193.81076736177715,102.21587310893626L194.248170302936,103.72380651357508L194.68557324409485,104.76567851638876L195.14360839945928,104.80274444165848L195.58101134061815,105.15273183110342L196.01841428177698,106.24998785324706L196.45581722293582,107.44903559739839L196.89322016409463,108.1800010328049L197.619474104132,108.5373020737863L198.05687704529083,108.08245763405863L198.49427998644964,107.6608942010484L198.93168292760848,107.26120818623465L199.38971808297293,107.70064939391081L199.8477532383374,107.9492780426099L200.28515617949623,108.42491551111424L200.72255912065503,108.75570975470379L201.1599620618139,109.11668228120536L201.59736500297274,109.50845841466719L202.03476794413157,109.44810333010787L202.4721708852904,109.32688573798404L202.90957382644925,110.56157566774363L203.53679313829966,111.41011485480509L203.9741960794585,111.90625176775451L204.41572546345847,112.12950250185987L204.85312840461734,112.31575346336793L205.29053134577615,111.8095578433945L205.72793428693498,111.45480221079985L206.16533722809382,111.84057121515788L206.62337238345827,113.0070578954197L207.0607753246171,113.83473187115949L207.49817826577595,114.30657349545373L207.9355812069348,114.5193324369114L208.37298414809362,115.13376749503928L208.83101930345808,115.725509309467L209.28905445882253,116.03821499974362L209.72645739998137,116.59182360863149L210.1638603411402,117.1216824484948L210.60126328229904,118.23138299921129L211.03866622345785,118.91863707940101L211.47606916461672,118.92555221634478L211.93410431998117,118.49589952706351L212.37150726114,119.02666409327804L212.80891020229885,119.35014719712062L213.24631314345768,119.4663927304527L213.68371608461652,119.51826358009784L214.31506183930807,119.28351801309022L214.75659122330802,119.3902686712339L215.62727066278458,118.90321714760742L216.06880004678453,118.13062889165487L216.5062029879434,117.46733031917127L217.13342229979378,116.87554546070916L217.57082524095264,117.03802846908265L218.02886039631707,116.80141656875182L218.4662633374759,116.94287810212327L218.90366627863474,116.47905793802883L219.34519566263472,116.30089159466753L219.80323081799918,116.59495998223234L220.240633759158,116.88078581414715L220.69866891452244,117.4536628570687L221.1567040698869,117.82444069353687L221.59410701104574,117.67145586437915L222.03563639504569,118.07189964877912L222.47303933620452,118.00254194866416L222.91044227736336,117.34613246421854L223.3478452185222,117.36531985718813L223.78524815968106,117.607821016923L224.2226511008399,117.97697007765191L224.66005404199873,118.35986967900972L225.09745698315754,118.50831147746321L225.5348599243164,118.59429308749785L225.99289507968084,118.53956344884378L226.4302980208397,119.46096370695682L226.87182740483968,119.97534131807276L227.31335678883963,119.87409600465644L227.75075972999846,120.04442638000383L228.1881626711573,120.10149663539381L228.62556561231614,120.86893812371447L229.08360076768057,121.92416582032983L229.54163592304502,122.86569869729242L229.97903886420386,123.95219603340779L230.71767213276453,123.59960288158354L231.1550750739234,123.99183933649539L231.81117948566165,123.69344863612412L232.2485824268205,123.69703356420914L232.68598536797933,123.69279425049392L233.14402052334378,123.64840851799526L233.5814234645026,123.6621286943153L234.01882640566143,123.43163810899658L234.45622934682027,122.99628686674089L234.89363228797913,122.62517679356469L235.33103522913797,122.34447761671017L235.7684381702968,123.46523566257046L236.51532432453973,124.59718043355942L236.95272726569857,125.28186891437711L237.3901302068574,125.6733631254289L237.82753314801627,125.24477336905333L238.26906253201622,124.37729500232106L239.03658090046474,123.90065271568598L239.47398384162358,124.20610113593816L239.91138678278242,124.21690321402745L240.34878972394128,124.84487929999695L240.7861926651001,125.22221896422279L241.22359560625893,124.97269505437278L241.66099854741776,125.51826904467937L242.09840148857663,126.1860190431028L242.53580442973546,126.63363426103362L242.9732073708943,126.32103672475328L243.41061031205314,126.06073473875787L243.84801325321197,126.9261960488817L244.28541619437084,127.445472834956L244.72281913552965,128.27236444066293L245.16022207668848,128.65850259965208L245.59762501784732,129.45932922398873L246.0350279590062,129.75454683636707L246.47243090016502,130.26142844415256L246.93046605552948,130.23904777429226L247.36786899668832,130.062421313644L247.80527193784712,130.61373393515757L248.2468013218471,131.45011912300387L248.68420426300594,132.60315569945863L249.12160720416477,132.7798248546326L249.55901014532364,132.74989953056797L249.99641308648245,132.91044498910003L250.43381602764129,132.56344739792132L250.87121896880012,133.0065690579097L251.32925412416458,133.24769780097063L251.78728927952903,132.78640860218368L252.22469222068787,131.86533688593994L252.6827273760523,131.39406091590024L253.47087795870644,130.98920402623804L253.90828089986528,130.68740167984282L254.64691416842598,130.54702601172002L255.47220273665022,130.2109592951632L255.90960567780905,129.5937369831002L256.3470086189679,129.89137873855628L256.7844115601267,130.06996255794874L257.22181450128556,130.82984709209774L257.6592174424444,130.74337105466148L258.11725259780883,131.2202232545523L258.55465553896767,131.93099945588932L258.99618492296764,132.41462595565497L259.4335878641265,133.22666202423954L259.8916230194909,134.2393517026491L260.32902596064974,134.76927294810494L260.7664289018086,135.75047877484445L261.2038318429674,137.22771269628453L261.6412347841263,137.99715021181933L262.07863772528515,139.57375761510067L262.516040666444,141.19328051204607L262.9534436076028,142.51381492401478L263.3908465487616,143.47961679557764L263.8282494899205,144.05931014607617L264.26565243107933,144.94192233526005L264.70305537223817,144.80125280189657L265.140458313397,145.38213019422145L265.57786125455584,145.7012927255933L266.0152641957147,145.2829518806895L266.4526671368735,144.8635596108248L266.89007007803235,144.0813109271789L267.3274730191912,143.5931598357617L267.76487596035,143.93149317303264L268.20227890150886,144.2440494842534L268.64380828550884,144.37750225941636L269.0853376695088,145.0955842630564L269.52274061066765,144.9778178172802L269.9601435518265,144.90679518875123L270.4016729358264,144.28209076760058L270.8597080911909,143.2157172047498L271.3177432465553,142.55697026545528L271.7757784019198,141.99700390154817L272.21318134307865,141.59384912468536L272.6712164984431,141.38636673656566L273.1086194396019,141.1919014349252L273.54602238076075,141.0834991288122L273.9834253219196,141.01897844299708L274.4208282630784,140.9663601907508L274.85823120423726,141.16774600381825L275.2956341453961,140.67400102424878L275.73303708655493,140.0078019138318L276.17044002771377,140.1985241993562L276.6078429688726,140.6518109524016L277.04524591003144,140.4976374654254L277.4826488511903,140.26930526656403L277.9200517923491,139.76537436566989L278.3615811763491,139.36739250241806L278.8196163317135,138.74669248551672L279.25701927287236,138.84546208007842L279.69442221403125,139.56734516912374L280.1318251551901,139.9869270073323L280.5692280963489,140.23833062353054L281.00663103750776,139.79843984551937L281.4646661928722,139.4854018437727" fill="none"></path></g></g></g></g><g opacity="0.2"><g><g><g><path style="fill: none;" stroke="rgb(255, 112, 67)" stroke-width="2px" d="M13.188111320223125,127.5257305653231L14.384779744148254,38.80693540921543L15.094527912821087,15.467847943516976L15.53193085397993,58.49298657879338L16.567668007101332,28.670061795573105L17.425968118054527,35.01502424534656L18.742303384372164,14.557385538270449L19.93484536545617,15.437685718378566L20.37224830661501,32.76227804267976L21.581296059063504,29.19549775192156L22.01869900022234,48.23984896979627L22.45610194138118,62.49485958917054L23.087447696072715,67.29884327242574L23.735299222128734,68.23403805449813L24.17270216328757,69.24622008083809L26.157521169866836,36.946933582149136L27.37894825083869,21.18287087146449L27.816351191997526,25.71238694312838L29.90845771244594,4.560745604012144L30.841033794539317,5.728213117627598L31.86026517629623,6.784637495578032L32.54112824508122,6.604675927304917L33.560359626838135,1.0211847318079756L33.99776256799698,4.307207701723788L34.435165509155816,11.454846867360837L34.87256845031466,13.87485800108764L35.58644306182862,16.9669765455381L36.22191525936127,20.06325326952289L37.22051442691258,15.97243130813545L38.111826080594746,12.842926164311143L38.54922902175358,15.264183518017074L38.986631962912426,17.27927186902062L39.71701234579086,20.868909808405903L40.368990314688,23.53181661935179L40.80639325584684,25.042932376914745L41.540900081566406,25.72157318842008L42.32079777853829,28.483097951674694L43.07593681846346,26.480626035608367L43.5133397596223,29.29386275859095L44.396398527622225,27.492143308469323L44.83380146878106,29.745355301276838L45.271204409939905,33.80680163677012L46.50501081943512,27.82137982038099L47.52836864403316,27.24608272605572L48.254622584070475,27.334070792106857L48.69202552522932,28.357038482201794L49.129428466388156,29.44157375784976L49.566831407547,30.381470398345883L50.02486656291144,31.886509291159122L50.46226950407028,35.289294435951064L50.89967244522912,39.31141080923175L51.7744783275468,39.718761253151975L52.7524452808925,37.67973869220276L53.189848222051346,41.437921714359284L53.82119397674288,43.33700364270177L54.45253973143441,44.70178726321055L54.88994267259326,45.660809061802205L55.54604708433151,45.92095748244521L57.60926850489208,40.722600700448474L58.25712003094809,40.057227196196195L58.71515518631254,40.95213652932695L59.15255812747138,41.92194861872799L59.78803032500403,42.31850260243299L60.22543326616287,45.366420438762354L61.10849203416279,43.17855479258319L61.54589497532164,44.02705785500604L61.983297916480474,44.8941061513757L63.534840424742015,43.27831100026892L63.97224336590086,46.13634994844175L64.41377274990082,46.512109949772245L65.0574978331157,47.24812932026709L65.49490077427456,47.795531446099126L66.1468787431717,49.12304568594499L66.82361536911556,49.78707117502183L67.45083468096597,51.66444604892587L68.75066417591913,49.94081585318946L69.53468831573214,49.9739794942677L69.97209125689098,50.31391067119826L70.40949419804981,51.88610971595601L70.84689713920866,53.62159750971164L71.60203617913382,53.94304206205082L72.23338193382536,54.73999973870327L72.67078487498421,56.18181610284765L73.10818781614303,56.595886572076125L73.54559075730188,57.98238341642917L73.98299369846072,58.201468271819316L74.42039663961955,59.8149514380886L75.27457030773162,59.13385828776294L76.99942341532027,56.24264798675458L77.43682635647909,56.505671350517744L78.55096592358181,55.13893202835854L79.32261073487145,54.303054654981686L79.7600136760303,55.45710371090105L80.38723298788071,55.67862085454255L82.17398273808615,51.21262035832479L82.91261600664684,50.506075324217484L83.9029622885159,48.55761655625644L84.34036522967475,49.22991830326398L84.77776817083358,49.49185585159979L86.64292033502034,47.63511764022141L87.30727763244083,47.39390929549881L88.09542821509498,47.36387354318007L89.02800429718835,48.37796037357228L89.46540723834718,48.26453276255117L90.09262655019761,50.54592351652041L90.719845862048,51.12348169808502L91.15724880320685,52.94953020012592L91.83811187199184,54.57899675456808L92.27551481315069,54.41886057195304L92.71291775430952,55.760058553945946L93.4928154512814,54.438050508809866L93.93021839244025,53.15418481526269L94.5656905899729,52.63747239876814L95.02372574533736,53.68044130258749L95.46112868649618,53.59383209874101L95.89853162765503,59.10847735214843L96.92601589509418,60.07237298135153L97.36341883625303,59.96650443483254L98.20521317584173,64.11604217392473L98.64261611700059,65.67701290005864L99.08001905815942,66.43678756772988L99.53805421352386,67.86745735787777L100.18590573957988,69.25801598479893L100.9534241080284,68.40543340276619L101.58476986271994,67.89920666266781L102.02217280387879,68.34024900304108L102.45957574503763,68.34164868699041L103.11155371393475,68.85886545241216L103.85018698249544,70.19563765689257L104.30822213785989,72.94989408889515L104.74562507901872,72.98582547966713L105.8515117604392,71.10365851977897L106.28891470159803,70.5726909199217L107.01516864163536,70.74855291801593L107.45257158279419,70.73493318345444L108.3727683363642,70.5575812738505L108.99998764821461,70.70875562331118L109.75100024529867,71.45785413418103L110.18840318645749,70.92759447364357L110.62580612761633,72.24670906744198L111.47997979572841,71.50805458947889L112.11545199326106,69.52161233212925L112.5734871486255,72.58935478294093L113.93108684335435,70.61851032589935L114.3684897845132,71.99513226503413L115.07411151034492,71.2594614659691L116.10159577778408,70.35277011004061L116.73706797531673,70.30239768255504L117.40555171557835,70.3458642313815L118.05340324163437,69.63298090395215L119.37386495079313,66.48845942631992L120.0340958053725,65.79435191438056L121.65166139909199,63.77913554820588L122.08906434025084,63.00721640514398L123.21558323587689,61.786263227622335L123.65298617703574,61.709060825326226L124.09038911819458,61.46332876377347L124.52779205935343,62.63217668194498L125.17977002825056,66.57110787161889L125.80698934010097,66.56694660738164L126.2443922812598,67.57616577656825L126.68179522241864,68.96861147049987L127.1191981635775,69.03099727350205L127.55660110473633,69.0296515718538L128.33649880170822,71.06785745770532L128.77390174286705,70.92360363924259L129.4671441401754,69.71325027212511L130.1480072089604,71.32554197189206L130.58541015011923,69.9420766193323L131.02281309127807,70.0355084148591L131.48084824664252,70.28461128552618L131.91825118780136,70.1825076189194L132.71878109897887,69.35137066275274L133.1561840401377,69.26184641464815L133.59358698129654,68.08729642313152L134.03098992245538,70.07074806100157L134.48902507781983,70.2141828908394L135.35557807445525,70.87574832933862L136.13547577142717,68.53986167125734L136.5935109267916,67.52650205957823L137.23310956716537,67.84379614414038L137.69114472252983,67.33467363917713L138.3266169200625,67.70633252797728L138.7640198612213,67.52933381685753L139.40361850159508,67.5409816550783L139.86165365695953,67.44377495435484L141.27702355146408,62.37865111846829L141.71442649262292,64.0877677869725L142.17246164798738,68.20807565238346L142.6098645891462,68.14474284558524L143.23708390099662,68.89438889122316L143.67448684215546,69.95654002014204L144.30583259684698,69.23746260925206L144.94130479437965,68.52943460421663L145.37870773553848,74.61936384196191L145.81611067669732,75.92076877071656L146.44745643138884,78.67849915658734L147.89171142578127,76.70520718057377L148.32911436694008,77.28322999551548L149.11726494959422,79.41073976600686L149.55466789075305,80.66859873893414L149.99207083191192,81.94285739033288L150.64817524365017,81.53421484147762L151.085578184809,81.56507584822405L151.52298112596785,81.13179066811847L152.59585626465932,78.63711497502487L153.03325920581818,78.69440928306594L153.89981220245363,77.61236741134589L154.33721514361247,78.0964294042103L154.97681378398624,77.38449076704975L155.41421672514508,78.59548594516825L155.85161966630392,80.09194594177538L156.28902260746273,80.26907994603722L157.16795493262154,77.83578068331268L157.8611973299299,78.46462417163283L158.29860027108873,78.39800557784449L158.73600321224757,80.75733043528182L159.19403836761202,80.52511465024656L159.94092452185495,81.36215406495182L160.3783274630138,80.36453810219065L161.12521361725672,80.81721782773865L161.75655937194827,79.60754120949763L162.38790512663977,79.53992317196364L162.8253080677986,80.48616861305113L163.26271100895744,80.9233459532132L163.7001139501163,81.50011369170453L164.69458667482647,79.28411338597569L165.1319896159853,78.46105902623462L165.56939255714417,79.22978800809686L166.006795498303,78.04776378140839L166.44419843946184,77.98275520974963L167.0755441941534,79.5766333538256L167.51294713531223,79.74716758799454L167.95035007647107,80.38077631574372L168.3877530176299,81.66404536026855L168.8251559587887,82.12841644124275L169.2666853427887,81.8103983190674L169.70408828394756,83.41099446411533L170.1414912251064,84.27725828197401L170.59952638047082,85.50098460741948L171.5857462194988,85.59494812861186L172.02314916065762,86.84365746299537L172.46055210181643,86.89003481461344L172.9020814858164,89.88982935747278L173.33948442697525,88.93217331109835L173.7975195823397,90.69106011884328L174.2349225234985,91.60138217010702L174.67232546465738,92.5381031089484L175.1303606200218,93.7212979803945L175.56776356118067,93.48383600736658L176.20736220155445,94.37856951243099L176.64476514271328,96.20215950624572L177.08216808387212,100.88759805633782L177.51957102503096,100.18565231428221L177.9569739661898,101.04163269657981L178.60482549224582,101.08587196348742L179.28156211818967,100.13427041776653L179.91290787288122,99.37237655919017L180.35031081404006,99.78860015105586L180.7877137551989,101.61231816004171L181.2251166963577,100.53516920553241L181.86471533673148,98.09184542949804L182.30211827789034,98.14089991766161L182.73952121904918,96.65130304765907L183.5029131446566,95.20804304254877L183.94031608581543,96.76384534894251L184.56753539766584,97.25224019264401L185.0049383388247,98.69460871861082L185.44234127998354,98.86497994550989L185.87974422114235,99.10111086922842L186.3377793765068,99.59986877238507L186.77518231766564,99.7948158274369L187.41890740088056,100.5257145910868L187.8563103420394,101.13851704584829L188.2937132831982,101.41373115554589L188.73111622435704,102.59715583735942L189.58528989246912,101.09653886618004L190.28678517545973,99.67783926570792L190.72418811661856,100.99809674193769L191.16159105777743,100.88345684266956L191.59899399893627,102.15924524162429L192.0570291543007,103.72510367953278L192.49443209545953,102.34029262532476L192.9359614794595,102.53427725306598L193.37336442061834,101.99498172650411L193.81076736177715,102.1767601847963L194.248170302936,105.98570662053334L194.68557324409485,106.32848652060926L195.14360839945928,104.85834332956306L195.58101134061815,105.67771291527085L196.01841428177698,107.89587188646247L196.45581722293582,109.24760721362543L196.89322016409463,109.27644918591466L197.619474104132,109.07325363525838L198.05687704529083,107.40019097446714L198.49427998644964,107.02854905153303L198.93168292760848,106.66167916401405L199.38971808297293,108.35981120542502L199.8477532383374,108.32222101565854L200.28515617949623,109.13837171387075L200.72255912065503,109.25190112008816L201.1599620618139,109.65814107095767L201.59736500297274,110.09612261485994L202.03476794413157,109.35757070326889L202.4721708852904,109.14505934979833L202.90957382644925,112.41361056238301L203.53679313829966,112.68292363539727L203.9741960794585,112.65045713717865L204.41572546345847,112.46437860301788L204.85312840461734,112.59512990563005L205.29053134577615,111.05026441343432L205.72793428693498,110.92266876190793L206.16533722809382,112.41922472169493L206.62337238345827,114.75678791581248L207.0607753246171,115.07624283476913L207.49817826577595,115.01433593189506L207.9355812069348,114.8384708490979L208.37298414809362,116.05542008223114L208.83101930345808,116.61312203110852L209.28905445882253,116.50727353515852L209.72645739998137,117.42223652196331L210.1638603411402,117.91647070828978L210.60126328229904,119.89593382528604L211.03866622345785,119.94951819968561L211.47606916461672,118.9359249217604L211.93410431998117,117.85142049314163L212.37150726114,119.82281094259982L212.80891020229885,119.83537185288449L213.24631314345768,119.64076103045079L213.68371608461652,119.59606985456561L214.31506183930807,118.93139966257877L214.75659122330802,119.55039465844938L215.62727066278458,118.17263986216776L216.06880004678453,116.97174650772598L216.5062029879434,116.47238246044583L217.13342229979378,115.98786817301598L217.57082524095264,117.28175298164288L218.02886039631707,116.4464987182556L218.4662633374759,117.15507040218041L218.90366627863474,115.7833276918872L219.34519566263472,116.0336420796256L219.80323081799918,117.03606256357953L220.240633759158,117.30952456201935L220.69866891452244,118.31297842145102L221.1567040698869,118.38060744823916L221.59410701104574,117.44197862064257L222.03563639504569,118.67256532537911L222.47303933620452,117.89850539849166L222.91044227736336,116.36151823755013L223.3478452185222,117.39410094664247L223.78524815968106,117.97157275652535L224.2226511008399,118.53069366874527L224.66005404199873,118.9342190810464L225.09745698315754,118.73097417514344L225.5348599243164,118.72326550254978L225.99289507968084,118.45746899086276L226.4302980208397,120.84306409412635L226.87182740483968,120.74690773474669L227.31335678883963,119.72222803453191L227.75075972999846,120.29992194302494L228.1881626711573,120.18710201847881L228.62556561231614,122.0201003561954L229.08360076768057,123.5070073652529L229.54163592304502,124.27799801273629L229.97903886420386,125.58194203758086L230.71767213276453,123.07071315384712L231.1550750739234,124.58019401886321L231.81117948566165,123.24586258556717L232.2485824268205,123.70241095633669L232.68598536797933,123.68643527992108L233.14402052334378,123.58182991924728L233.5814234645026,123.68270895879539L234.01882640566143,123.0859022310185L234.45622934682027,122.34326000335734L234.89363228797913,122.06851168380044L235.33103522913797,121.92342885142831L235.7684381702968,125.14637273136098L236.51532432453973,126.2950975900428L236.95272726569857,126.30890163560369L237.3901302068574,126.26060444200662L237.82753314801627,124.60188873448996L238.26906253201622,123.07607745222263L239.03658090046474,123.18568928573337L239.47398384162358,124.66427376631641L239.91138678278242,124.23310633116141L240.34878972394128,125.78684342895113L240.7861926651001,125.78822846056158L241.22359560625893,124.59840918959775L241.66099854741776,126.33663003013928L242.09840148857663,127.18764404073788L242.53580442973546,127.30505708792987L242.9732073708943,125.85214042033279L243.41061031205314,125.6702817597647L243.84801325321197,128.22438801406744L244.28541619437084,128.22438801406744L244.72281913552965,129.5127018492233L245.16022207668848,129.23770983813583L245.59762501784732,130.66056916049374L246.0350279590062,130.19737325493458L246.47243090016502,131.02175085583076L246.93046605552948,130.20547676950181L247.36786899668832,129.7974816226716L247.80527193784712,131.44070286742797L248.2468013218471,132.7046969047733L248.68420426300594,134.3327105641408L249.12160720416477,133.04482858739357L249.55901014532364,132.705011544471L249.99641308648245,133.1512631768981L250.43381602764129,132.04295101115332L250.87121896880012,133.67125154789227L251.32925412416458,133.609390915562L251.78728927952903,132.09447480400326L252.22469222068787,130.48372931157428L252.6827273760523,130.6871469608407L253.47087795870644,130.38191869174474L253.90828089986528,130.23469816025005L254.64691416842598,130.33646250953578L255.47220273665022,129.70685922032797L255.90960567780905,128.66790351500572L256.3470086189679,130.3378413717404L256.7844115601267,130.33783828703747L257.22181450128556,131.9696738933212L257.6592174424444,130.61365699850714L258.11725259780883,131.93550155438854L258.55465553896767,132.99716375789484L258.99618492296764,133.14006570530347L259.4335878641265,134.4447161271164L259.8916230194909,135.75838622026342L260.32902596064974,135.56415481628872L260.7664289018086,137.22228751495376L261.2038318429674,139.44356357844464L261.6412347841263,139.15130648512158L262.07863772528515,141.93866872002266L262.516040666444,143.62256485746417L262.9534436076028,144.49461654196784L263.3908465487616,144.92831960292196L263.8282494899205,144.92885017182397L264.26565243107933,146.26584061903586L264.70305537223817,144.59024850185133L265.140458313397,146.25344628270878L265.57786125455584,146.18003652265114L266.0152641957147,144.65544061333375L266.4526671368735,144.23447120602776L266.89007007803235,142.90793790171003L267.3274730191912,142.86093319863588L267.76487596035,144.43899317893903L268.20227890150886,144.71288395108454L268.64380828550884,144.57768142216082L269.0853376695088,146.17270726851646L269.52274061066765,144.80116814861586L269.9601435518265,144.80026124595778L270.4016729358264,143.34503413587464L270.8597080911909,141.61615686047364L271.3177432465553,141.56884985651348L271.7757784019198,141.1570543556875L272.21318134307865,140.98911695939123L272.6712164984431,141.0751431543861L273.1086194396019,140.90020348246452L273.54602238076075,140.9208956696427L273.9834253219196,140.92219741427436L274.4208282630784,140.88743281238138L274.85823120423726,141.4698247234195L275.2956341453961,139.93338355489453L275.73303708655493,139.00850324820632L276.17044002771377,140.4846076276428L276.6078429688726,141.33174108196974L277.04524591003144,140.2663772349611L277.4826488511903,139.92680696827205L277.9200517923491,139.0094780143286L278.3615811763491,138.7704197075403L278.8196163317135,137.8156424601647L279.25701927287236,138.993616471921L279.69442221403125,140.6501698026917L280.1318251551901,140.61629976464513L280.5692280963489,140.6154360478279L281.00663103750776,139.13860367850265L281.4646661928722,139.0158448411527" fill="none"></path></g></g></g></g></g></g><g transform="translate(41, 177)" clip-path="url(#clip_1)"><clipPath id="clip_1"><rect width="288" height="22"></rect></clipPath><g><g><line x1="0" y1="0" x2="0" y2="5" style="visibility: inherit;" fill="rgb(0, 0, 0)" stroke="rgb(204, 204, 204)" stroke-width="1px"></line><line x1="20.632214205605642" y1="0" x2="20.632214205605642" y2="5" style="visibility: inherit;" fill="rgb(0, 0, 0)" stroke="rgb(204, 204, 204)" stroke-width="1px"></line><line x1="41.264428411211284" y1="0" x2="41.264428411211284" y2="5" style="visibility: inherit;" fill="rgb(0, 0, 0)" stroke="rgb(204, 204, 204)" stroke-width="1px"></line><line x1="61.896642616816926" y1="0" x2="61.896642616816926" y2="5" style="visibility: inherit;" fill="rgb(0, 0, 0)" stroke="rgb(204, 204, 204)" stroke-width="1px"></line><line x1="82.52885682242257" y1="0" x2="82.52885682242257" y2="5" style="visibility: inherit;" fill="rgb(0, 0, 0)" stroke="rgb(204, 204, 204)" stroke-width="1px"></line><line x1="103.16107102802822" y1="0" x2="103.16107102802822" y2="5" style="visibility: inherit;" fill="rgb(0, 0, 0)" stroke="rgb(204, 204, 204)" stroke-width="1px"></line><line x1="123.79328523363385" y1="0" x2="123.79328523363385" y2="5" style="visibility: inherit;" fill="rgb(0, 0, 0)" stroke="rgb(204, 204, 204)" stroke-width="1px"></line><line x1="144.4254994392395" y1="0" x2="144.4254994392395" y2="5" style="visibility: inherit;" fill="rgb(0, 0, 0)" stroke="rgb(204, 204, 204)" stroke-width="1px"></line><line x1="165.05771364484514" y1="0" x2="165.05771364484514" y2="5" style="visibility: inherit;" fill="rgb(0, 0, 0)" stroke="rgb(204, 204, 204)" stroke-width="1px"></line><line x1="185.6899278504508" y1="0" x2="185.6899278504508" y2="5" style="visibility: inherit;" fill="rgb(0, 0, 0)" stroke="rgb(204, 204, 204)" stroke-width="1px"></line><line x1="206.32214205605644" y1="0" x2="206.32214205605644" y2="5" style="visibility: inherit;" fill="rgb(0, 0, 0)" stroke="rgb(204, 204, 204)" stroke-width="1px"></line><line x1="226.95435626166207" y1="0" x2="226.95435626166207" y2="5" style="visibility: inherit;" fill="rgb(0, 0, 0)" stroke="rgb(204, 204, 204)" stroke-width="1px"></line><line x1="247.5865704672677" y1="0" x2="247.5865704672677" y2="5" style="visibility: inherit;" fill="rgb(0, 0, 0)" stroke="rgb(204, 204, 204)" stroke-width="1px"></line><line x1="268.21878467287337" y1="0" x2="268.21878467287337" y2="5" style="visibility: inherit;" fill="rgb(0, 0, 0)" stroke="rgb(204, 204, 204)" stroke-width="1px"></line><line x1="288.850998878479" y1="0" x2="288.850998878479" y2="5" style="visibility: inherit;" fill="rgb(0, 0, 0)" stroke="rgb(204, 204, 204)" stroke-width="1px"></line></g><g transform="translate(0, 8)"><text style="text-anchor: middle; visibility: hidden; font-family: Roboto, sans-serif; font-size: 12px; font-weight: 200;" x="0" y="0" dx="0em" dy="0.95em" fill="rgb(50, 49, 63)" stroke="none" stroke-width="1px">20k</text><text style="text-anchor: middle; visibility: inherit; font-family: Roboto, sans-serif; font-size: 12px; font-weight: 200;" x="20.632214205605642" y="0" dx="0em" dy="0.95em" fill="rgb(50, 49, 63)" stroke="none" stroke-width="1px">25k</text><text style="text-anchor: middle; visibility: hidden; font-family: Roboto, sans-serif; font-size: 12px; font-weight: 200;" x="41.264428411211284" y="0" dx="0em" dy="0.95em" fill="rgb(50, 49, 63)" stroke="none" stroke-width="1px">30k</text><text style="text-anchor: middle; visibility: inherit; font-family: Roboto, sans-serif; font-size: 12px; font-weight: 200;" x="61.896642616816926" y="0" dx="0em" dy="0.95em" fill="rgb(50, 49, 63)" stroke="none" stroke-width="1px">35k</text><text style="text-anchor: middle; visibility: hidden; font-family: Roboto, sans-serif; font-size: 12px; font-weight: 200;" x="82.52885682242257" y="0" dx="0em" dy="0.95em" fill="rgb(50, 49, 63)" stroke="none" stroke-width="1px">40k</text><text style="text-anchor: middle; visibility: inherit; font-family: Roboto, sans-serif; font-size: 12px; font-weight: 200;" x="103.16107102802822" y="0" dx="0em" dy="0.95em" fill="rgb(50, 49, 63)" stroke="none" stroke-width="1px">45k</text><text style="text-anchor: middle; visibility: hidden; font-family: Roboto, sans-serif; font-size: 12px; font-weight: 200;" x="123.79328523363385" y="0" dx="0em" dy="0.95em" fill="rgb(50, 49, 63)" stroke="none" stroke-width="1px">50k</text><text style="text-anchor: middle; visibility: inherit; font-family: Roboto, sans-serif; font-size: 12px; font-weight: 200;" x="144.4254994392395" y="0" dx="0em" dy="0.95em" fill="rgb(50, 49, 63)" stroke="none" stroke-width="1px">55k</text><text style="text-anchor: middle; visibility: hidden; font-family: Roboto, sans-serif; font-size: 12px; font-weight: 200;" x="165.05771364484514" y="0" dx="0em" dy="0.95em" fill="rgb(50, 49, 63)" stroke="none" stroke-width="1px">60k</text><text style="text-anchor: middle; visibility: inherit; font-family: Roboto, sans-serif; font-size: 12px; font-weight: 200;" x="185.6899278504508" y="0" dx="0em" dy="0.95em" fill="rgb(50, 49, 63)" stroke="none" stroke-width="1px">65k</text><text style="text-anchor: middle; visibility: hidden; font-family: Roboto, sans-serif; font-size: 12px; font-weight: 200;" x="206.32214205605644" y="0" dx="0em" dy="0.95em" fill="rgb(50, 49, 63)" stroke="none" stroke-width="1px">70k</text><text style="text-anchor: middle; visibility: inherit; font-family: Roboto, sans-serif; font-size: 12px; font-weight: 200;" x="226.95435626166207" y="0" dx="0em" dy="0.95em" fill="rgb(50, 49, 63)" stroke="none" stroke-width="1px">75k</text><text style="text-anchor: middle; visibility: hidden; font-family: Roboto, sans-serif; font-size: 12px; font-weight: 200;" x="247.5865704672677" y="0" dx="0em" dy="0.95em" fill="rgb(50, 49, 63)" stroke="none" stroke-width="1px">80k</text><text style="text-anchor: middle; visibility: inherit; font-family: Roboto, sans-serif; font-size: 12px; font-weight: 200;" x="268.21878467287337" y="0" dx="0em" dy="0.95em" fill="rgb(50, 49, 63)" stroke="none" stroke-width="1px">85k</text><text style="text-anchor: middle; visibility: hidden; font-family: Roboto, sans-serif; font-size: 12px; font-weight: 200;" x="288.850998878479" y="0" dx="0em" dy="0.95em" fill="rgb(50, 49, 63)" stroke="none" stroke-width="1px">90k</text></g><line x1="0" y1="0" x2="288.850998878479" y2="0" fill="rgb(0, 0, 0)" stroke="rgb(204, 204, 204)" stroke-width="1px"></line></g></g></g></g></svg>