<svg viewBox="0 0 330 200" xmlns="http://www.w3.org/2000/svg"><g><g><g><g><g><line x1="51.53200149536133" y1="177.89999961853027" x2="46.53200149536133" y2="177.89999961853027" style="visibility: inherit;" fill="rgb(0, 0, 0)" stroke="rgb(204, 204, 204)" stroke-width="1px"></line><line x1="51.53200149536133" y1="165.19285678863525" x2="46.53200149536133" y2="165.19285678863525" style="visibility: inherit;" fill="rgb(0, 0, 0)" stroke="rgb(204, 204, 204)" stroke-width="1px"></line><line x1="51.53200149536133" y1="152.48571395874023" x2="46.53200149536133" y2="152.48571395874023" style="visibility: inherit;" fill="rgb(0, 0, 0)" stroke="rgb(204, 204, 204)" stroke-width="1px"></line><line x1="51.53200149536133" y1="139.77857112884521" x2="46.53200149536133" y2="139.77857112884521" style="visibility: inherit;" fill="rgb(0, 0, 0)" stroke="rgb(204, 204, 204)" stroke-width="1px"></line><line x1="51.53200149536133" y1="127.0714282989502" x2="46.53200149536133" y2="127.0714282989502" style="visibility: inherit;" fill="rgb(0, 0, 0)" stroke="rgb(204, 204, 204)" stroke-width="1px"></line><line x1="51.53200149536133" y1="114.36428546905516" x2="46.53200149536133" y2="114.36428546905516" style="visibility: inherit;" fill="rgb(0, 0, 0)" stroke="rgb(204, 204, 204)" stroke-width="1px"></line><line x1="51.53200149536133" y1="101.65714263916016" x2="46.53200149536133" y2="101.65714263916016" style="visibility: inherit;" fill="rgb(0, 0, 0)" stroke="rgb(204, 204, 204)" stroke-width="1px"></line><line x1="51.53200149536133" y1="88.94999980926514" x2="46.53200149536133" y2="88.94999980926514" style="visibility: inherit;" fill="rgb(0, 0, 0)" stroke="rgb(204, 204, 204)" stroke-width="1px"></line><line x1="51.53200149536133" y1="76.24285697937012" x2="46.53200149536133" y2="76.24285697937012" style="visibility: inherit;" fill="rgb(0, 0, 0)" stroke="rgb(204, 204, 204)" stroke-width="1px"></line><line x1="51.53200149536133" y1="63.53571414947509" x2="46.53200149536133" y2="63.53571414947509" style="visibility: inherit;" fill="rgb(0, 0, 0)" stroke="rgb(204, 204, 204)" stroke-width="1px"></line><line x1="51.53200149536133" y1="50.82857131958008" x2="46.53200149536133" y2="50.82857131958008" style="visibility: inherit;" fill="rgb(0, 0, 0)" stroke="rgb(204, 204, 204)" stroke-width="1px"></line><line x1="51.53200149536133" y1="38.12142848968506" x2="46.53200149536133" y2="38.12142848968506" style="visibility: inherit;" fill="rgb(0, 0, 0)" stroke="rgb(204, 204, 204)" stroke-width="1px"></line><line x1="51.53200149536133" y1="25.414285659790046" x2="46.53200149536133" y2="25.414285659790046" style="visibility: inherit;" fill="rgb(0, 0, 0)" stroke="rgb(204, 204, 204)" stroke-width="1px"></line><line x1="51.53200149536133" y1="12.707142829895014" x2="46.53200149536133" y2="12.707142829895014" style="visibility: inherit;" fill="rgb(0, 0, 0)" stroke="rgb(204, 204, 204)" stroke-width="1px"></line><line x1="51.53200149536133" y1="0" x2="46.53200149536133" y2="0" style="visibility: inherit;" fill="rgb(0, 0, 0)" stroke="rgb(204, 204, 204)" stroke-width="1px"></line></g><g transform="translate(41.53200149536133, 0)"><text style="text-anchor: end; visibility: hidden; font-family: Roboto, sans-serif; font-size: 12px; font-weight: 200;" x="0" y="177.89999961853027" dx="0em" dy="0.3em" fill="rgb(50, 49, 63)" stroke="none" stroke-width="1px">-1</text><text style="text-anchor: end; visibility: inherit; font-family: Roboto, sans-serif; font-size: 12px; font-weight: 200;" x="0" y="165.19285678863525" dx="0em" dy="0.3em" fill="rgb(50, 49, 63)" stroke="none" stroke-width="1px">-0.5</text><text style="text-anchor: end; visibility: hidden; font-family: Roboto, sans-serif; font-size: 12px; font-weight: 200;" x="0" y="152.48571395874023" dx="0em" dy="0.3em" fill="rgb(50, 49, 63)" stroke="none" stroke-width="1px">0</text><text style="text-anchor: end; visibility: inherit; font-family: Roboto, sans-serif; font-size: 12px; font-weight: 200;" x="0" y="139.77857112884521" dx="0em" dy="0.3em" fill="rgb(50, 49, 63)" stroke="none" stroke-width="1px">0.5</text><text style="text-anchor: end; visibility: hidden; font-family: Roboto, sans-serif; font-size: 12px; font-weight: 200;" x="0" y="127.0714282989502" dx="0em" dy="0.3em" fill="rgb(50, 49, 63)" stroke="none" stroke-width="1px">1</text><text style="text-anchor: end; visibility: inherit; font-family: Roboto, sans-serif; font-size: 12px; font-weight: 200;" x="0" y="114.36428546905516" dx="0em" dy="0.3em" fill="rgb(50, 49, 63)" stroke="none" stroke-width="1px">1.5</text><text style="text-anchor: end; visibility: hidden; font-family: Roboto, sans-serif; font-size: 12px; font-weight: 200;" x="0" y="101.65714263916016" dx="0em" dy="0.3em" fill="rgb(50, 49, 63)" stroke="none" stroke-width="1px">2</text><text style="text-anchor: end; visibility: inherit; font-family: Roboto, sans-serif; font-size: 12px; font-weight: 200;" x="0" y="88.94999980926514" dx="0em" dy="0.3em" fill="rgb(50, 49, 63)" stroke="none" stroke-width="1px">2.5</text><text style="text-anchor: end; visibility: hidden; font-family: Roboto, sans-serif; font-size: 12px; font-weight: 200;" x="0" y="76.24285697937012" dx="0em" dy="0.3em" fill="rgb(50, 49, 63)" stroke="none" stroke-width="1px">3</text><text style="text-anchor: end; visibility: inherit; font-family: Roboto, sans-serif; font-size: 12px; font-weight: 200;" x="0" y="63.53571414947509" dx="0em" dy="0.3em" fill="rgb(50, 49, 63)" stroke="none" stroke-width="1px">3.5</text><text style="text-anchor: end; visibility: hidden; font-family: Roboto, sans-serif; font-size: 12px; font-weight: 200;" x="0" y="50.82857131958008" dx="0em" dy="0.3em" fill="rgb(50, 49, 63)" stroke="none" stroke-width="1px">4</text><text style="text-anchor: end; visibility: inherit; font-family: Roboto, sans-serif; font-size: 12px; font-weight: 200;" x="0" y="38.12142848968506" dx="0em" dy="0.3em" fill="rgb(50, 49, 63)" stroke="none" stroke-width="1px">4.5</text><text style="text-anchor: end; visibility: hidden; font-family: Roboto, sans-serif; font-size: 12px; font-weight: 200;" x="0" y="25.414285659790046" dx="0em" dy="0.3em" fill="rgb(50, 49, 63)" stroke="none" stroke-width="1px">5</text><text style="text-anchor: end; visibility: inherit; font-family: Roboto, sans-serif; font-size: 12px; font-weight: 200;" x="0" y="12.707142829895014" dx="0em" dy="0.3em" fill="rgb(50, 49, 63)" stroke="none" stroke-width="1px">5.5</text><text style="text-anchor: end; visibility: hidden; font-family: Roboto, sans-serif; font-size: 12px; font-weight: 200;" x="0" y="0" dx="0em" dy="0.3em" fill="rgb(50, 49, 63)" stroke="none" stroke-width="1px">6</text></g><line x1="51.53200149536133" y1="0" x2="51.53200149536133" y2="177.89999961853027" fill="rgb(0, 0, 0)" stroke="rgb(204, 204, 204)" stroke-width="1px"></line></g></g><g transform="translate(51, 0)" clip-path="url(#clip_0)"><clipPath id="clip_0"><rect width="278" height="177"></rect></clipPath><g><g><g><line x1="0" y1="0" x2="0" y2="177.89999961853027" fill="rgb(0, 0, 0)" stroke="rgb(60, 60, 60)" stroke-width="1px" opacity="0.25"></line><line x1="23.205666542053223" y1="0" x2="23.205666542053223" y2="177.89999961853027" fill="rgb(0, 0, 0)" stroke="rgb(60, 60, 60)" stroke-width="1px" opacity="0.25"></line><line x1="46.411333084106445" y1="0" x2="46.411333084106445" y2="177.89999961853027" fill="rgb(0, 0, 0)" stroke="rgb(60, 60, 60)" stroke-width="1px" opacity="0.25"></line><line x1="69.61699962615967" y1="0" x2="69.61699962615967" y2="177.89999961853027" fill="rgb(0, 0, 0)" stroke="rgb(60, 60, 60)" stroke-width="1px" opacity="0.25"></line><line x1="92.82266616821289" y1="0" x2="92.82266616821289" y2="177.89999961853027" fill="rgb(0, 0, 0)" stroke="rgb(60, 60, 60)" stroke-width="1px" opacity="0.25"></line><line x1="116.02833271026611" y1="0" x2="116.02833271026611" y2="177.89999961853027" fill="rgb(0, 0, 0)" stroke="rgb(60, 60, 60)" stroke-width="1px" opacity="0.25"></line><line x1="139.23399925231934" y1="0" x2="139.23399925231934" y2="177.89999961853027" fill="rgb(0, 0, 0)" stroke="rgb(60, 60, 60)" stroke-width="1px" opacity="0.25"></line><line x1="162.43966579437256" y1="0" x2="162.43966579437256" y2="177.89999961853027" fill="rgb(0, 0, 0)" stroke="rgb(60, 60, 60)" stroke-width="1px" opacity="0.25"></line><line x1="185.64533233642578" y1="0" x2="185.64533233642578" y2="177.89999961853027" fill="rgb(0, 0, 0)" stroke="rgb(60, 60, 60)" stroke-width="1px" opacity="0.25"></line><line x1="208.850998878479" y1="0" x2="208.850998878479" y2="177.89999961853027" fill="rgb(0, 0, 0)" stroke="rgb(60, 60, 60)" stroke-width="1px" opacity="0.25"></line><line x1="232.05666542053223" y1="0" x2="232.05666542053223" y2="177.89999961853027" fill="rgb(0, 0, 0)" stroke="rgb(60, 60, 60)" stroke-width="1px" opacity="0.25"></line><line x1="255.26233196258545" y1="0" x2="255.26233196258545" y2="177.89999961853027" fill="rgb(0, 0, 0)" stroke="rgb(60, 60, 60)" stroke-width="1px" opacity="0.25"></line><line x1="278.4679985046387" y1="0" x2="278.4679985046387" y2="177.89999961853027" fill="rgb(0, 0, 0)" stroke="rgb(60, 60, 60)" stroke-width="1px" opacity="0.25"></line></g><g><line x1="0" y1="177.89999961853027" x2="278.4679985046387" y2="177.89999961853027" fill="rgb(0, 0, 0)" stroke="rgb(60, 60, 60)" stroke-width="1px" opacity="0.25"></line><line x1="0" y1="165.19285678863525" x2="278.4679985046387" y2="165.19285678863525" fill="rgb(0, 0, 0)" stroke="rgb(60, 60, 60)" stroke-width="1px" opacity="0.25"></line><line x1="0" y1="152.48571395874023" x2="278.4679985046387" y2="152.48571395874023" fill="rgb(0, 0, 0)" stroke="rgb(60, 60, 60)" stroke-width="1px" opacity="0.25"></line><line x1="0" y1="139.77857112884521" x2="278.4679985046387" y2="139.77857112884521" fill="rgb(0, 0, 0)" stroke="rgb(60, 60, 60)" stroke-width="1px" opacity="0.25"></line><line x1="0" y1="127.0714282989502" x2="278.4679985046387" y2="127.0714282989502" fill="rgb(0, 0, 0)" stroke="rgb(60, 60, 60)" stroke-width="1px" opacity="0.25"></line><line x1="0" y1="114.36428546905516" x2="278.4679985046387" y2="114.36428546905516" fill="rgb(0, 0, 0)" stroke="rgb(60, 60, 60)" stroke-width="1px" opacity="0.25"></line><line x1="0" y1="101.65714263916016" x2="278.4679985046387" y2="101.65714263916016" fill="rgb(0, 0, 0)" stroke="rgb(60, 60, 60)" stroke-width="1px" opacity="0.25"></line><line x1="0" y1="88.94999980926514" x2="278.4679985046387" y2="88.94999980926514" fill="rgb(0, 0, 0)" stroke="rgb(60, 60, 60)" stroke-width="1px" opacity="0.25"></line><line x1="0" y1="76.24285697937012" x2="278.4679985046387" y2="76.24285697937012" fill="rgb(0, 0, 0)" stroke="rgb(60, 60, 60)" stroke-width="1px" opacity="0.25"></line><line x1="0" y1="63.53571414947509" x2="278.4679985046387" y2="63.53571414947509" fill="rgb(0, 0, 0)" stroke="rgb(60, 60, 60)" stroke-width="1px" opacity="0.25"></line><line x1="0" y1="50.82857131958008" x2="278.4679985046387" y2="50.82857131958008" fill="rgb(0, 0, 0)" stroke="rgb(60, 60, 60)" stroke-width="1px" opacity="0.25"></line><line x1="0" y1="38.12142848968506" x2="278.4679985046387" y2="38.12142848968506" fill="rgb(0, 0, 0)" stroke="rgb(60, 60, 60)" stroke-width="1px" opacity="0.25"></line><line x1="0" y1="25.414285659790046" x2="278.4679985046387" y2="25.414285659790046" fill="rgb(0, 0, 0)" stroke="rgb(60, 60, 60)" stroke-width="1px" opacity="0.25"></line><line x1="0" y1="12.707142829895014" x2="278.4679985046387" y2="12.707142829895014" fill="rgb(0, 0, 0)" stroke="rgb(60, 60, 60)" stroke-width="1px" opacity="0.25"></line><line x1="0" y1="0" x2="278.4679985046387" y2="0" fill="rgb(0, 0, 0)" stroke="rgb(60, 60, 60)" stroke-width="1px" opacity="0.25"></line></g></g></g><g><g><line x1="0" y1="152.48571395874023" x2="278.4679985046387" y2="152.48571395874023" fill="rgb(0, 0, 0)" stroke="rgb(153, 153, 153)" stroke-width="1.5px"></line></g></g><g><g><line x1="-46.411333084106445" y1="0" x2="-46.411333084106445" y2="177.89999961853027" fill="rgb(0, 0, 0)" stroke="rgb(153, 153, 153)" stroke-width="1.5px"></line></g></g><g><g><g><g><g><path style="fill: none;" stroke="rgb(204, 51, 17)" stroke-width="2px" d="M159.43453197717665,147.40285675104175L160.85239820289613,145.81446375529148L162.25866159534453,143.3832504693247L163.66492498779297,139.68280026992L165.07118838024138,134.07512688617402L166.47745177268982,125.60500149118866L167.88371516513826,112.8412138194181L169.28997855758666,105.41552248312934L170.6962419500351,101.04074308430258L172.1025053424835,98.44426322101552L173.50876873493195,96.89645983877928L174.91503212738036,95.97137949599141L176.3212955198288,95.4176217428109L177.72755891227723,95.08583033139384L179.13382230472564,94.88692196638317L180.54008569717408,94.7676368194523L181.95795192289353,94.69608727199653L183.36421531534197,94.65316529531722L184.77047870779037,94.62741489933828L186.179062666893,94.61196566602791L187.5853260593414,94.60269648755262L188.99158945178985,94.59713511060518L190.3978528442383,94.59379833128493L191.81571906995774,94.59179628055789L193.22198246240617,94.59059505619301L194.63056642150877,94.58987432375977L196.04843264722825,94.58944188508663L197.45469603967666,83.00979237706575L198.8609594321251,76.06200722329224L200.2672228245735,71.89333776940086L201.67348621702195,69.39213668687994L203.09135244274137,67.89141624970034L204.4976158351898,66.99098406383241L205.91548206090928,66.45072477983L207.3217454533577,66.12656921933515L208.72800884580613,65.93207588660462L210.13427223825454,65.81537988825018L211.55213846397402,65.74536228969976L212.95840185642243,65.70335173073586L214.36466524887086,65.67814539541743L215.77092864131927,65.66302159424795L217.18879486703872,65.65394731355401L218.60666109275817,65.64850274514045L220.0129244852066,65.6452360040933L221.41918787765505,65.6432759594654L222.82545127010346,65.6420999326888L224.2317146625519,65.64139431662288L225.64958088827132,65.64097094698329L227.05584428071975,65.64071692519963L228.46210767316816,65.64056451212939L229.87997389888764,65.64047306428724L231.28623729133605,65.64041819558196L232.6925006837845,65.64038527435876L234.09876407623292,65.64036552162487L235.50502746868133,65.64035366998455L236.91129086112977,65.64034655900033L238.31755425357818,65.6403422924098L239.72381764602662,65.64033973245547L241.13008103847503,65.64033819648292L242.53634443092346,65.64033727489935L243.94492839002612,65.64033672194923L245.36279461574554,65.64033639017913L246.76905800819398,65.6403361911171L248.1753214006424,65.6403360716799L249.58158479309083,65.64033600001757L250.98784818553924,65.64033595702014L252.39411157798767,65.64033593122171L253.8026955370903,65.64033591574263L255.20895892953874,65.64033590645519L256.6152223219872,65.64033590088275L258.0330885477066,65.64033589753925" fill="none"></path></g><g><path style="fill: none;" stroke="rgb(255, 112, 67)" stroke-width="2px" d="M7.416531026840209,147.40285675104175L8.089495356559754,145.81446375529148L8.488632821083069,143.3832504693247L8.734612886428833,139.68280026992L9.317075116634369,134.07512688617402L9.799752980709076,125.60500149118866L10.540013743400575,120.7831267930768L11.210657506465912,117.97786599657906L11.456637571811676,108.52699387302478L12.136563601493837,102.91779694622883L12.3825436668396,99.5740644961212L12.628523732185364,97.57560577931213L12.983570430278778,96.3793183244203L13.347899394989014,95.66254659375036L13.593879460334778,95.23284320744355L14.710072021007537,94.97515051779952L15.396959750652314,83.23923816977344L15.642939815998078,76.19896224875623L16.819467109680176,71.97525433050744L17.34391517353058,69.4411943060646L17.917095137119293,67.92081758821938L18.299988635063173,67.00861290334774L18.873168598651887,66.46129777670528L19.11914866399765,66.13291146701323L19.365128729343414,65.93588067705333L19.61110879468918,65.81766256158312L20.0125668258667,65.74673182136257L20.369934090614322,65.70417342369231L20.93151122093201,65.67863840181643L21.43275361824036,65.66331739471241L21.67873368358612,65.65412479261771L21.924713748931886,65.64860923214128L22.33545404672623,65.64529989613634L22.702103578090668,65.64331429463456L22.948083643436433,65.64212293376987L23.36114450788498,65.64140811726415L23.799731605529786,65.64097922736543L24.22439530324936,65.64072189342792L24.47037536859512,65.64056749306603L24.966976632595063,65.64047485284911L25.21295669794083,65.64041926871904L25.45893676328659,65.64038591824101L26.15278619289398,65.64036590795422L26.728286723136904,65.64035390178215L27.136706454277036,65.64034669807889L27.3826865196228,65.64034237585696L27.628666584968567,65.64033978252381L27.87464665031433,65.6403382265239L28.13222954893112,65.64033729292395L28.378209614276887,65.64033673276397L28.624189679622653,65.64033639666802L29.11614981031418,65.64033619501042L29.666124107360837,65.64033607401586L29.912104172706602,65.64033600141914L30.26715087080002,65.6403359578611L30.622197568893434,65.64033593172627L30.8681776342392,65.6403359160454L31.237147732257842,65.64033590663685L32.3974310593605,65.64033590099172L32.76176002407074,65.64033589760466L33.01934292268753,65.64033589557239L33.2653229880333,65.64033589435307L33.62269025278091,65.64033589362145L33.868670318126675,65.64033589318248L34.36527158212662,65.6403358929191L34.61125164747238,65.64033589276107L34.85723171281815,65.64033589266627L35.72976477479935,65.64033589260939L35.97574484014511,65.64033589257524L36.22404547214508,65.64033589255473L36.586053870201106,65.64033589254245L36.832033935546875,65.6403358925351L37.19868346691131,65.64033589253067L37.57925639820098,65.64033589252801L37.9319825296402,65.64033589252644L38.66296102571488,65.64033589252548L39.10386869001388,65.64033589252489L39.34984875535965,65.64033589252456L39.595828820705414,65.64033589252436L39.84180888605118,65.64033589252422L40.266472583770756,65.64033589252413L40.62151928186417,65.6403358925241L40.86749934720993,65.64033589252408L41.1134794125557,65.64033589252406L41.35945947790145,65.64033589252406L41.60543954324722,65.64033589252406L41.851419608592984,65.64033589252406L42.33177690601349,65.64033589252406L43.30177376747131,65.64033589252406L43.54775383281708,65.64033589252406L44.17430682945251,65.64033589252406L44.608252793788914,65.64033589252406L44.854232859134676,65.64033589252406L45.20695899057388,65.64033589252406L46.211764351844785,65.64033589252406L46.62714578294754,65.64033589252406L47.18408177995681,65.64033589252406L47.43006184530258,65.64033589252406L47.676041910648344,65.64033589252406L48.72493803834915,65.64033589252406L49.09854926967621,65.64033589252406L49.54177750062942,65.64033589252406L50.06622556447982,65.64033589252406L50.31220562982559,48.27126149112837L50.6649317612648,37.849816850290985L51.01765789270401,31.59695006578856L51.26363795804977,27.845229995087077L51.64653145599365,25.594197952666203L51.892511521339415,24.243578727213666L52.138491586685184,23.433207191942145L52.57707868432998,22.94698427077923L52.82305874967575,22.655250518081505L53.180426014423375,22.480210266462855L53.43800891304016,22.375186115491676L53.683988978385926,22.312171624908967L53.92996904373169,22.274362930559334L54.50779014062881,22.251677713949537L54.753770205974575,22.23806658398368L55.22716580343246,22.229899906004167L55.473145868778225,22.224999899216467L55.719125934123994,22.22205989514382L55.97670883274078,22.220295892700236L56.34103779745102,22.2192374912341L56.77266319513321,22.218602450354417L57.12770989322662,22.218221425826616L57.37368995857239,22.21799281110993L57.619670023918154,22.217855642279925L57.98631955528259,22.217773340981903L58.40170098638534,22.217723960203102L58.65928388500214,22.217694331735817L58.905263950347894,22.21767655465544L59.52717581367492,22.217665888407208L59.77315587902069,22.217659488658278L60.181575610160834,22.217655648808925L60.42755567550659,22.217653344899297L60.94504203939437,22.217651962553536L61.297768170833585,22.21765113314609L61.72011130189895,22.21765063550159L61.96609136724472,22.217650336914907L62.212071432590484,22.217650157762908L62.69242873001098,22.217650050271693L63.049795994758604,22.217649985776973L63.30737889337539,22.217649947080126L64.07084532260895,22.217649923862034L64.31682538795471,22.217649909931172L64.71364228582382,22.217649901572667L65.29146338272095,22.217649896557546L65.64883064746856,22.21764989354848L66.02476244544982,22.217649891743054L66.38909141016006,22.21764989065978L67.13167273950577,22.217649890009817L67.50296340417862,22.217649889619857L68.4126255326271,22.217649889385868L68.65860559797287,22.21764988924548L69.29212029457092,22.21764988916124L69.53810035991668,22.217649889110696L69.78408042526245,22.21764988908038L70.03006049060822,22.21764988906219L70.39671002197267,22.217649889051266L70.74943615341186,22.21764988904471L70.99541621875763,22.21764988904078L71.2413962841034,22.217649889038448L71.48737634944915,22.217649889037027L71.73335641479493,22.217649889036156L72.17194351243973,22.217649889035645L72.41792357778549,22.21764988903533L72.80777877569199,22.21764988903515L73.19067227363585,22.21764988903505L73.43665233898163,22.21764988903499L73.68263240432739,22.217649889034934L73.94021530294418,22.217649889034913L74.18619536828996,22.217649889034913L74.63638529920578,22.217649889034913L74.88236536455155,22.217649889034913L75.12834542989731,22.217649889034913L75.37432549524307,22.217649889034913L75.63190839385986,22.217649889034913L76.11922739124297,22.217649889034913L76.55781448888779,22.217649889034913L76.81539738750458,22.217649889034913L77.1750852189064,22.217649889034913L77.43266811752319,22.217649889034913L77.79003538227082,22.217649889034913L78.03601544761658,22.217649889034913L78.3957032790184,22.217649889034913L78.65328617763518,22.217649889034913L79.44924054002762,22.217649889034913L79.69522060537338,22.217649889034913L79.95280350399018,22.217649889034913L80.19878356933593,22.217649889034913L80.55150970077514,22.217649889034913L80.79748976612092,22.217649889034913L81.15253646421432,22.217649889034913L81.50990372896194,22.217649889034913L81.7558837943077,22.217649889034913L82.00186385965347,22.217649889034913L82.35691055774689,22.217649889034913L83.16910888671876,22.217649889034913L83.41508895206451,22.217649889034913L83.85831718301772,22.217649889034913L84.1042972483635,22.217649889034913L84.35027731370926,22.217649889034913L84.7192474117279,22.217649889034913L84.96522747707367,22.217649889034913L85.21120754241943,22.217649889034913L85.81455487251282,22.217649889034913L86.06053493785858,22.217649889034913L86.5478539352417,22.217649889034913L86.79383400058745,22.217649889034913L87.1535218319893,22.217649889034913L87.39950189733506,22.217649889034913L87.6454819626808,22.217649889034913L87.89146202802658,22.217649889034913L88.38574272537232,22.217649889034913L88.7755979232788,22.217649889034913L89.02157798862457,22.217649889034913L89.26755805397033,22.217649889034913L89.52514095258714,22.217649889034913L89.94516351699829,22.217649889034913L90.19114358234407,22.217649889034913L90.61116614675522,22.217649889034913L90.96621284484863,22.217649889034913L91.32125954294206,22.217649889034913L91.5672396082878,22.217649889034913L91.81321967363357,22.217649889034913L92.05919973897934,22.217649889034913L92.61845630264283,22.217649889034913L92.86443636798859,22.217649889034913L93.11041643333435,22.217649889034913L93.35639649868011,22.217649889034913L93.60237656402587,22.217649889034913L93.95742326211929,22.217649889034913L94.20340332746505,22.217649889034913L94.44938339281082,22.217649889034913L94.69536345815659,22.217649889034913L94.94134352350234,22.217649889034913L95.18964415550232,22.217649889034913L95.43562422084808,22.217649889034913L95.68160428619385,22.217649889034913L95.93918718481065,22.217649889034913L96.4938026151657,22.217649889034913L96.73978268051147,22.217649889034913L96.98576274585724,22.217649889034913L97.23406337785721,22.217649889034913L97.48004344320297,22.217649889034913L97.73762634181976,22.217649889034913L97.98360640716552,22.217649889034913L98.2295864725113,22.217649889034913L98.48716937112809,22.217649889034913L98.73314943647384,22.217649889034913L99.09283726787567,22.217649889034913L99.33881733322144,22.217649889034913L99.5847973985672,22.217649889034913L99.83077746391297,22.217649889034913L100.07675752925873,22.217649889034913L100.44108649396897,22.217649889034913L100.82165942525863,22.217649889034913L101.17670612335205,22.217649889034913L101.42268618869782,22.217649889034913L101.66866625404357,22.217649889034913L101.91464631938935,22.217649889034913L102.27433415079118,22.217649889034913L102.52031421613692,22.217649889034913L102.7662942814827,22.217649889034913L103.19559911251068,22.217649889034913L103.44157917785644,22.217649889034913L103.79430530929567,22.217649889034913L104.04028537464141,22.217649889034913L104.28626543998718,22.217649889034913L104.53224550533295,22.217649889034913L104.78982840394974,22.217649889034913L105.0358084692955,22.217649889034913L105.39781686735154,22.217649889034913L105.6437969326973,22.217649889034913L105.88977699804305,22.217649889034913L106.13575706338882,22.217649889034913L106.61611436080933,22.217649889034913L107.01061069202423,22.217649889034913L107.25659075736999,22.217649889034913L107.50257082271575,22.217649889034913L107.74855088806153,22.217649889034913L108.00613378667832,22.217649889034913L108.25211385202408,22.217649889034913L108.50041448402405,22.217649889034913L108.74639454936981,22.217649889034913L108.99237461471559,22.217649889034913L109.23835468006133,22.217649889034913L109.48433474540711,22.217649889034913L109.7419176440239,22.217649889034913L109.98789770936966,22.217649889034913L110.23387777471542,22.217649889034913L110.47985784006119,22.217649889034913L110.72583790540695,22.217649889034913L111.13425763654709,22.217649889034913L111.38023770189287,22.217649889034913L111.62621776723861,22.217649889034913L111.87219783258438,22.217649889034913L112.12978073120118,22.217649889034913L112.38736362981797,22.217649889034913L112.63334369516372,22.217649889034913L112.8793237605095,22.217649889034913L113.12530382585526,22.217649889034913L113.37128389120102,22.217649889034913L113.61726395654678,22.217649889034913L113.86324402189254,22.217649889034913L114.10922408723832,22.217649889034913L114.46195021867753,22.217649889034913L114.70793028402328,22.217649889034913L114.95623091602326,22.217649889034913L115.20221098136902,22.217649889034913L115.4481910467148,22.217649889034913L115.69417111206054,22.217649889034913L115.9401511774063,22.217649889034913L116.19773407602311,22.217649889034913L116.44371414136887,22.217649889034913L116.68969420671462,22.217649889034913L116.9356742720604,22.217649889034913L117.18165433740616,22.217649889034913L117.43923723602295,22.217649889034913L117.69682013463975,22.217649889034913L117.9428001999855,22.217649889034913L118.18878026533126,22.217649889034913L118.43476033067704,22.217649889034913L118.6807403960228,22.217649889034913L118.92672046136856,22.217649889034913L119.18430335998535,22.217649889034913L119.43028342533111,22.217649889034913L119.67626349067689,22.217649889034913L119.92224355602264,22.217649889034913L120.16822362136841,22.217649889034913L120.52327031946183,22.217649889034913L120.77157095146178,22.217649889034913L121.26121051549912,22.217649889034913L121.50951114749908,22.217649889034913L121.75549121284484,22.217649889034913L122.10821734428406,22.217649889034913L122.35419740962982,22.217649889034913L122.61178030824662,22.217649889034913L122.85776037359237,22.217649889034913L123.10374043893815,22.217649889034913L123.35204107093811,22.217649889034913L123.6096239695549,22.217649889034913L123.85560403490067,22.217649889034913L124.11318693351745,22.217649889034913L124.37076983213424,22.217649889034913L124.61674989748002,22.217649889034913L124.86505052947999,22.217649889034913L125.11103059482573,22.217649889034913L125.35701066017151,22.217649889034913L125.60299072551727,22.217649889034913L125.84897079086305,22.217649889034913L126.0949508562088,22.217649889034913L126.34093092155456,22.217649889034913L126.58691098690034,22.217649889034913L126.8328910522461,22.217649889034913L127.09047395086287,22.217649889034913L127.33645401620865,22.217649889034913L127.58475464820862,22.217649889034913L127.8330552802086,22.217649889034913L128.07903534555436,22.217649889034913L128.3250154109001,22.217649889034913L128.57099547624588,22.217649889034913L128.82857837486267,22.217649889034913L129.08616127347946,22.217649889034913L129.3321413388252,22.217649889034913L129.74752276992797,22.217649889034913L129.99350283527374,22.217649889034913L130.3624729332924,22.217649889034913L130.60845299863817,22.217649889034913L130.85443306398392,22.217649889034913L131.1120159626007,22.217649889034913L131.35799602794648,22.217649889034913L131.60397609329223,22.217649889034913L131.849956158638,22.217649889034913L132.09593622398376,22.217649889034913L132.34191628932953,22.217649889034913L132.5878963546753,22.217649889034913L133.00791891908645,22.217649889034913L133.25389898443223,22.217649889034913L133.49987904977797,22.217649889034913L133.74585911512375,22.217649889034913L133.99415974712372,22.217649889034913L134.4257851448059,22.217649889034913L134.67176521015168,22.217649889034913L134.91774527549742,22.217649889034913L135.1637253408432,22.217649889034913L135.40970540618898,22.217649889034913L135.65568547153472,22.217649889034913L135.9016655368805,22.217649889034913L136.14764560222625,22.217649889034913L136.39362566757202,22.217649889034913L136.6396057329178,22.217649889034913L136.88558579826355,22.217649889034913L137.13156586360932,22.217649889034913L137.37754592895507,22.217649889034913L137.62352599430085,22.217649889034913L137.8695060596466,22.217649889034913L138.11548612499237,22.217649889034913L138.36146619033815,22.217649889034913L138.6074462556839,22.217649889034913L138.8650291543007,22.217649889034913L139.11100921964646,22.217649889034913L139.3569892849922,22.217649889034913L139.60528991699218,22.217649889034913L139.85126998233795,22.217649889034913L140.0972500476837,22.217649889034913L140.34323011302948,22.217649889034913L140.58921017837525,22.217649889034913L140.83519024372103,22.217649889034913L141.08117030906678,22.217649889034913L141.33875320768357,22.217649889034913L141.59633610630033,22.217649889034913L141.8423161716461,22.217649889034913L142.09989907026292,22.217649889034913L142.54312730121615,22.217649889034913L142.7891073665619,22.217649889034913L143.20448879766465,22.217649889034913L143.6686021285057,22.217649889034913L143.91458219385146,22.217649889034913L144.16056225919723,22.217649889034913L144.406542324543,22.217649889034913L144.65252238988876,22.217649889034913L144.89850245523454,22.217649889034913L145.15608535385132,22.217649889034913L145.40206541919707,22.217649889034913L145.65036605119704,22.217649889034913L145.89634611654282,22.217649889034913L146.1539290151596,22.217649889034913L146.39990908050538,22.217649889034913L146.64588914585113,22.217649889034913L146.89186921119688,22.217649889034913L147.13784927654265,22.217649889034913L147.38382934188843,22.217649889034913L147.6298094072342,22.217649889034913L147.87578947257995,22.217649889034913L148.12176953792573,22.217649889034913L148.3677496032715,22.217649889034913L148.61372966861722,22.217649889034913L148.859709733963,22.217649889034913L149.10568979930878,22.217649889034913L149.35166986465455,22.217649889034913L149.5976499300003,22.217649889034913L149.84362999534608,22.217649889034913L150.08961006069185,22.217649889034913L150.3355901260376,22.217649889034913L150.58157019138335,22.217649889034913L150.82755025672913,22.217649889034913L151.0758508887291,22.217649889034913L151.32415152072906,22.217649889034913L151.57013158607484,22.217649889034913L151.8161116514206,22.217649889034913L152.06441228342055,22.217649889034913L152.32199518203737,22.217649889034913L152.57957808065413,22.217649889034913L152.83716097927092,22.217649889034913L153.0831410446167,22.217649889034913L153.34072394323348,22.217649889034913L153.58670400857926,22.217649889034913L153.83268407392504,22.217649889034913L154.07866413927076,22.217649889034913L154.32464420461653,22.217649889034913L154.5706242699623,22.217649889034913L154.81660433530809,22.217649889034913L155.06258440065383,22.217649889034913L155.3085644659996,22.217649889034913L155.55454453134539,22.217649889034913L155.80052459669113,22.217649889034913L156.04650466203688,22.217649889034913L156.29248472738266,22.217649889034913L156.54078535938265,22.217649889034913L156.7983682579994,22.217649889034913L157.0443483233452,22.217649889034913L157.29032838869097,22.217649889034913L157.5363084540367,22.217649889034913L157.7822885193825,22.217649889034913L158.02826858472824,22.217649889034913L158.28585148334503,22.217649889034913" fill="none"></path></g></g></g></g><g opacity="0.2"><g><g><g><path style="fill: none;" stroke="rgb(204, 51, 17)" stroke-width="2px" d="M159.43453197717665,147.40285675104175L160.85239820289613,144.86142795784133L162.25866159534453,141.0492857147966L163.66492498779297,135.33107083542006L165.07118838024138,126.75374851635524L166.47745177268982,113.88776882478169L167.88371516513826,94.58879322818348L169.28997855758666,94.58879322818348L170.6962419500351,94.58879322818348L172.1025053424835,94.58879322818348L173.50876873493195,94.58879322818348L174.91503212738036,94.58879322818348L176.3212955198288,94.58879322818348L177.72755891227723,94.58879322818348L179.13382230472564,94.58879322818348L180.54008569717408,94.58879322818348L181.95795192289353,94.58879322818348L183.36421531534197,94.58879322818348L184.77047870779037,94.58879322818348L186.179062666893,94.58879322818348L187.5853260593414,94.58879322818348L188.99158945178985,94.58879322818348L190.3978528442383,94.58879322818348L191.81571906995774,94.58879322818348L193.22198246240617,94.58879322818348L194.63056642150877,94.58879322818348L196.04843264722825,94.58879322818348L197.45469603967666,65.64033589252404L198.8609594321251,65.64033589252404L200.2672228245735,65.64033589252404L201.67348621702195,65.64033589252404L203.09135244274137,65.64033589252404L204.4976158351898,65.64033589252404L205.91548206090928,65.64033589252404L207.3217454533577,65.64033589252404L208.72800884580613,65.64033589252404L210.13427223825454,65.64033589252404L211.55213846397402,65.64033589252404L212.95840185642243,65.64033589252404L214.36466524887086,65.64033589252404L215.77092864131927,65.64033589252404L217.18879486703872,65.64033589252404L218.60666109275817,65.64033589252404L220.0129244852066,65.64033589252404L221.41918787765505,65.64033589252404L222.82545127010346,65.64033589252404L224.2317146625519,65.64033589252404L225.64958088827132,65.64033589252404L227.05584428071975,65.64033589252404L228.46210767316816,65.64033589252404L229.87997389888764,65.64033589252404L231.28623729133605,65.64033589252404L232.6925006837845,65.64033589252404L234.09876407623292,65.64033589252404L235.50502746868133,65.64033589252404L236.91129086112977,65.64033589252404L238.31755425357818,65.64033589252404L239.72381764602662,65.64033589252404L241.13008103847503,65.64033589252404L242.53634443092346,65.64033589252404L243.94492839002612,65.64033589252404L245.36279461574554,65.64033589252404L246.76905800819398,65.64033589252404L248.1753214006424,65.64033589252404L249.58158479309083,65.64033589252404L250.98784818553924,65.64033589252404L252.39411157798767,65.64033589252404L253.8026955370903,65.64033589252404L255.20895892953874,65.64033589252404L256.6152223219872,65.64033589252404L258.0330885477066,65.64033589252404" fill="none"></path></g><g><path style="fill: none;" stroke="rgb(255, 112, 67)" stroke-width="2px" d="M7.416531026840209,147.40285675104175L8.089495356559754,144.86142795784133L8.488632821083069,141.0492857147966L8.734612886428833,135.33107083542006L9.317075116634369,126.75374851635524L9.799752980709076,113.88776882478169L10.540013743400575,113.88776882478169L11.210657506465912,113.88776882478169L11.456637571811676,94.58879322818348L12.136563601493837,94.58879322818348L12.3825436668396,94.58879322818348L12.628523732185364,94.58879322818348L12.983570430278778,94.58879322818348L13.347899394989014,94.58879322818348L13.593879460334778,94.58879322818348L14.710072021007537,94.58879322818348L15.396959750652314,65.64033589252404L15.642939815998078,65.64033589252404L16.819467109680176,65.64033589252404L17.34391517353058,65.64033589252404L17.917095137119293,65.64033589252404L18.299988635063173,65.64033589252404L18.873168598651887,65.64033589252404L19.11914866399765,65.64033589252404L19.365128729343414,65.64033589252404L19.61110879468918,65.64033589252404L20.0125668258667,65.64033589252404L20.369934090614322,65.64033589252404L20.93151122093201,65.64033589252404L21.43275361824036,65.64033589252404L21.67873368358612,65.64033589252404L21.924713748931886,65.64033589252404L22.33545404672623,65.64033589252404L22.702103578090668,65.64033589252404L22.948083643436433,65.64033589252404L23.36114450788498,65.64033589252404L23.799731605529786,65.64033589252404L24.22439530324936,65.64033589252404L24.47037536859512,65.64033589252404L24.966976632595063,65.64033589252404L25.21295669794083,65.64033589252404L25.45893676328659,65.64033589252404L26.15278619289398,65.64033589252404L26.728286723136904,65.64033589252404L27.136706454277036,65.64033589252404L27.3826865196228,65.64033589252404L27.628666584968567,65.64033589252404L27.87464665031433,65.64033589252404L28.13222954893112,65.64033589252404L28.378209614276887,65.64033589252404L28.624189679622653,65.64033589252404L29.11614981031418,65.64033589252404L29.666124107360837,65.64033589252404L29.912104172706602,65.64033589252404L30.26715087080002,65.64033589252404L30.622197568893434,65.64033589252404L30.8681776342392,65.64033589252404L31.237147732257842,65.64033589252404L32.3974310593605,65.64033589252404L32.76176002407074,65.64033589252404L33.01934292268753,65.64033589252404L33.2653229880333,65.64033589252404L33.62269025278091,65.64033589252404L33.868670318126675,65.64033589252404L34.36527158212662,65.64033589252404L34.61125164747238,65.64033589252404L34.85723171281815,65.64033589252404L35.72976477479935,65.64033589252404L35.97574484014511,65.64033589252404L36.22404547214508,65.64033589252404L36.586053870201106,65.64033589252404L36.832033935546875,65.64033589252404L37.19868346691131,65.64033589252404L37.57925639820098,65.64033589252404L37.9319825296402,65.64033589252404L38.66296102571488,65.64033589252404L39.10386869001388,65.64033589252404L39.34984875535965,65.64033589252404L39.595828820705414,65.64033589252404L39.84180888605118,65.64033589252404L40.266472583770756,65.64033589252404L40.62151928186417,65.64033589252404L40.86749934720993,65.64033589252404L41.1134794125557,65.64033589252404L41.35945947790145,65.64033589252404L41.60543954324722,65.64033589252404L41.851419608592984,65.64033589252404L42.33177690601349,65.64033589252404L43.30177376747131,65.64033589252404L43.54775383281708,65.64033589252404L44.17430682945251,65.64033589252404L44.608252793788914,65.64033589252404L44.854232859134676,65.64033589252404L45.20695899057388,65.64033589252404L46.211764351844785,65.64033589252404L46.62714578294754,65.64033589252404L47.18408177995681,65.64033589252404L47.43006184530258,65.64033589252404L47.676041910648344,65.64033589252404L48.72493803834915,65.64033589252404L49.09854926967621,65.64033589252404L49.54177750062942,65.64033589252404L50.06622556447982,65.64033589252404L50.31220562982559,22.217649889034874L50.6649317612648,22.217649889034874L51.01765789270401,22.217649889034874L51.26363795804977,22.217649889034874L51.64653145599365,22.217649889034874L51.892511521339415,22.217649889034874L52.138491586685184,22.217649889034874L52.57707868432998,22.217649889034874L52.82305874967575,22.217649889034874L53.180426014423375,22.217649889034874L53.43800891304016,22.217649889034874L53.683988978385926,22.217649889034874L53.92996904373169,22.217649889034874L54.50779014062881,22.217649889034874L54.753770205974575,22.217649889034874L55.22716580343246,22.217649889034874L55.473145868778225,22.217649889034874L55.719125934123994,22.217649889034874L55.97670883274078,22.217649889034874L56.34103779745102,22.217649889034874L56.77266319513321,22.217649889034874L57.12770989322662,22.217649889034874L57.37368995857239,22.217649889034874L57.619670023918154,22.217649889034874L57.98631955528259,22.217649889034874L58.40170098638534,22.217649889034874L58.65928388500214,22.217649889034874L58.905263950347894,22.217649889034874L59.52717581367492,22.217649889034874L59.77315587902069,22.217649889034874L60.181575610160834,22.217649889034874L60.42755567550659,22.217649889034874L60.94504203939437,22.217649889034874L61.297768170833585,22.217649889034874L61.72011130189895,22.217649889034874L61.96609136724472,22.217649889034874L62.212071432590484,22.217649889034874L62.69242873001098,22.217649889034874L63.049795994758604,22.217649889034874L63.30737889337539,22.217649889034874L64.07084532260895,22.217649889034874L64.31682538795471,22.217649889034874L64.71364228582382,22.217649889034874L65.29146338272095,22.217649889034874L65.64883064746856,22.217649889034874L66.02476244544982,22.217649889034874L66.38909141016006,22.217649889034874L67.13167273950577,22.217649889034874L67.50296340417862,22.217649889034874L68.4126255326271,22.217649889034874L68.65860559797287,22.217649889034874L69.29212029457092,22.217649889034874L69.53810035991668,22.217649889034874L69.78408042526245,22.217649889034874L70.03006049060822,22.217649889034874L70.39671002197267,22.217649889034874L70.74943615341186,22.217649889034874L70.99541621875763,22.217649889034874L71.2413962841034,22.217649889034874L71.48737634944915,22.217649889034874L71.73335641479493,22.217649889034874L72.17194351243973,22.217649889034874L72.41792357778549,22.217649889034874L72.80777877569199,22.217649889034874L73.19067227363585,22.217649889034874L73.43665233898163,22.217649889034874L73.68263240432739,22.217649889034874L73.94021530294418,22.217649889034874L74.18619536828996,22.217649889034874L74.63638529920578,22.217649889034874L74.88236536455155,22.217649889034874L75.12834542989731,22.217649889034874L75.37432549524307,22.217649889034874L75.63190839385986,22.217649889034874L76.11922739124297,22.217649889034874L76.55781448888779,22.217649889034874L76.81539738750458,22.217649889034874L77.1750852189064,22.217649889034874L77.43266811752319,22.217649889034874L77.79003538227082,22.217649889034874L78.03601544761658,22.217649889034874L78.3957032790184,22.217649889034874L78.65328617763518,22.217649889034874L79.44924054002762,22.217649889034874L79.69522060537338,22.217649889034874L79.95280350399018,22.217649889034874L80.19878356933593,22.217649889034874L80.55150970077514,22.217649889034874L80.79748976612092,22.217649889034874L81.15253646421432,22.217649889034874L81.50990372896194,22.217649889034874L81.7558837943077,22.217649889034874L82.00186385965347,22.217649889034874L82.35691055774689,22.217649889034874L83.16910888671876,22.217649889034874L83.41508895206451,22.217649889034874L83.85831718301772,22.217649889034874L84.1042972483635,22.217649889034874L84.35027731370926,22.217649889034874L84.7192474117279,22.217649889034874L84.96522747707367,22.217649889034874L85.21120754241943,22.217649889034874L85.81455487251282,22.217649889034874L86.06053493785858,22.217649889034874L86.5478539352417,22.217649889034874L86.79383400058745,22.217649889034874L87.1535218319893,22.217649889034874L87.39950189733506,22.217649889034874L87.6454819626808,22.217649889034874L87.89146202802658,22.217649889034874L88.38574272537232,22.217649889034874L88.7755979232788,22.217649889034874L89.02157798862457,22.217649889034874L89.26755805397033,22.217649889034874L89.52514095258714,22.217649889034874L89.94516351699829,22.217649889034874L90.19114358234407,22.217649889034874L90.61116614675522,22.217649889034874L90.96621284484863,22.217649889034874L91.32125954294206,22.217649889034874L91.5672396082878,22.217649889034874L91.81321967363357,22.217649889034874L92.05919973897934,22.217649889034874L92.61845630264283,22.217649889034874L92.86443636798859,22.217649889034874L93.11041643333435,22.217649889034874L93.35639649868011,22.217649889034874L93.60237656402587,22.217649889034874L93.95742326211929,22.217649889034874L94.20340332746505,22.217649889034874L94.44938339281082,22.217649889034874L94.69536345815659,22.217649889034874L94.94134352350234,22.217649889034874L95.18964415550232,22.217649889034874L95.43562422084808,22.217649889034874L95.68160428619385,22.217649889034874L95.93918718481065,22.217649889034874L96.4938026151657,22.217649889034874L96.73978268051147,22.217649889034874L96.98576274585724,22.217649889034874L97.23406337785721,22.217649889034874L97.48004344320297,22.217649889034874L97.73762634181976,22.217649889034874L97.98360640716552,22.217649889034874L98.2295864725113,22.217649889034874L98.48716937112809,22.217649889034874L98.73314943647384,22.217649889034874L99.09283726787567,22.217649889034874L99.33881733322144,22.217649889034874L99.5847973985672,22.217649889034874L99.83077746391297,22.217649889034874L100.07675752925873,22.217649889034874L100.44108649396897,22.217649889034874L100.82165942525863,22.217649889034874L101.17670612335205,22.217649889034874L101.42268618869782,22.217649889034874L101.66866625404357,22.217649889034874L101.91464631938935,22.217649889034874L102.27433415079118,22.217649889034874L102.52031421613692,22.217649889034874L102.7662942814827,22.217649889034874L103.19559911251068,22.217649889034874L103.44157917785644,22.217649889034874L103.79430530929567,22.217649889034874L104.04028537464141,22.217649889034874L104.28626543998718,22.217649889034874L104.53224550533295,22.217649889034874L104.78982840394974,22.217649889034874L105.0358084692955,22.217649889034874L105.39781686735154,22.217649889034874L105.6437969326973,22.217649889034874L105.88977699804305,22.217649889034874L106.13575706338882,22.217649889034874L106.61611436080933,22.217649889034874L107.01061069202423,22.217649889034874L107.25659075736999,22.217649889034874L107.50257082271575,22.217649889034874L107.74855088806153,22.217649889034874L108.00613378667832,22.217649889034874L108.25211385202408,22.217649889034874L108.50041448402405,22.217649889034874L108.74639454936981,22.217649889034874L108.99237461471559,22.217649889034874L109.23835468006133,22.217649889034874L109.48433474540711,22.217649889034874L109.7419176440239,22.217649889034874L109.98789770936966,22.217649889034874L110.23387777471542,22.217649889034874L110.47985784006119,22.217649889034874L110.72583790540695,22.217649889034874L111.13425763654709,22.217649889034874L111.38023770189287,22.217649889034874L111.62621776723861,22.217649889034874L111.87219783258438,22.217649889034874L112.12978073120118,22.217649889034874L112.38736362981797,22.217649889034874L112.63334369516372,22.217649889034874L112.8793237605095,22.217649889034874L113.12530382585526,22.217649889034874L113.37128389120102,22.217649889034874L113.61726395654678,22.217649889034874L113.86324402189254,22.217649889034874L114.10922408723832,22.217649889034874L114.46195021867753,22.217649889034874L114.70793028402328,22.217649889034874L114.95623091602326,22.217649889034874L115.20221098136902,22.217649889034874L115.4481910467148,22.217649889034874L115.69417111206054,22.217649889034874L115.9401511774063,22.217649889034874L116.19773407602311,22.217649889034874L116.44371414136887,22.217649889034874L116.68969420671462,22.217649889034874L116.9356742720604,22.217649889034874L117.18165433740616,22.217649889034874L117.43923723602295,22.217649889034874L117.69682013463975,22.217649889034874L117.9428001999855,22.217649889034874L118.18878026533126,22.217649889034874L118.43476033067704,22.217649889034874L118.6807403960228,22.217649889034874L118.92672046136856,22.217649889034874L119.18430335998535,22.217649889034874L119.43028342533111,22.217649889034874L119.67626349067689,22.217649889034874L119.92224355602264,22.217649889034874L120.16822362136841,22.217649889034874L120.52327031946183,22.217649889034874L120.77157095146178,22.217649889034874L121.26121051549912,22.217649889034874L121.50951114749908,22.217649889034874L121.75549121284484,22.217649889034874L122.10821734428406,22.217649889034874L122.35419740962982,22.217649889034874L122.61178030824662,22.217649889034874L122.85776037359237,22.217649889034874L123.10374043893815,22.217649889034874L123.35204107093811,22.217649889034874L123.6096239695549,22.217649889034874L123.85560403490067,22.217649889034874L124.11318693351745,22.217649889034874L124.37076983213424,22.217649889034874L124.61674989748002,22.217649889034874L124.86505052947999,22.217649889034874L125.11103059482573,22.217649889034874L125.35701066017151,22.217649889034874L125.60299072551727,22.217649889034874L125.84897079086305,22.217649889034874L126.0949508562088,22.217649889034874L126.34093092155456,22.217649889034874L126.58691098690034,22.217649889034874L126.8328910522461,22.217649889034874L127.09047395086287,22.217649889034874L127.33645401620865,22.217649889034874L127.58475464820862,22.217649889034874L127.8330552802086,22.217649889034874L128.07903534555436,22.217649889034874L128.3250154109001,22.217649889034874L128.57099547624588,22.217649889034874L128.82857837486267,22.217649889034874L129.08616127347946,22.217649889034874L129.3321413388252,22.217649889034874L129.74752276992797,22.217649889034874L129.99350283527374,22.217649889034874L130.3624729332924,22.217649889034874L130.60845299863817,22.217649889034874L130.85443306398392,22.217649889034874L131.1120159626007,22.217649889034874L131.35799602794648,22.217649889034874L131.60397609329223,22.217649889034874L131.849956158638,22.217649889034874L132.09593622398376,22.217649889034874L132.34191628932953,22.217649889034874L132.5878963546753,22.217649889034874L133.00791891908645,22.217649889034874L133.25389898443223,22.217649889034874L133.49987904977797,22.217649889034874L133.74585911512375,22.217649889034874L133.99415974712372,22.217649889034874L134.4257851448059,22.217649889034874L134.67176521015168,22.217649889034874L134.91774527549742,22.217649889034874L135.1637253408432,22.217649889034874L135.40970540618898,22.217649889034874L135.65568547153472,22.217649889034874L135.9016655368805,22.217649889034874L136.14764560222625,22.217649889034874L136.39362566757202,22.217649889034874L136.6396057329178,22.217649889034874L136.88558579826355,22.217649889034874L137.13156586360932,22.217649889034874L137.37754592895507,22.217649889034874L137.62352599430085,22.217649889034874L137.8695060596466,22.217649889034874L138.11548612499237,22.217649889034874L138.36146619033815,22.217649889034874L138.6074462556839,22.217649889034874L138.8650291543007,22.217649889034874L139.11100921964646,22.217649889034874L139.3569892849922,22.217649889034874L139.60528991699218,22.217649889034874L139.85126998233795,22.217649889034874L140.0972500476837,22.217649889034874L140.34323011302948,22.217649889034874L140.58921017837525,22.217649889034874L140.83519024372103,22.217649889034874L141.08117030906678,22.217649889034874L141.33875320768357,22.217649889034874L141.59633610630033,22.217649889034874L141.8423161716461,22.217649889034874L142.09989907026292,22.217649889034874L142.54312730121615,22.217649889034874L142.7891073665619,22.217649889034874L143.20448879766465,22.217649889034874L143.6686021285057,22.217649889034874L143.91458219385146,22.217649889034874L144.16056225919723,22.217649889034874L144.406542324543,22.217649889034874L144.65252238988876,22.217649889034874L144.89850245523454,22.217649889034874L145.15608535385132,22.217649889034874L145.40206541919707,22.217649889034874L145.65036605119704,22.217649889034874L145.89634611654282,22.217649889034874L146.1539290151596,22.217649889034874L146.39990908050538,22.217649889034874L146.64588914585113,22.217649889034874L146.89186921119688,22.217649889034874L147.13784927654265,22.217649889034874L147.38382934188843,22.217649889034874L147.6298094072342,22.217649889034874L147.87578947257995,22.217649889034874L148.12176953792573,22.217649889034874L148.3677496032715,22.217649889034874L148.61372966861722,22.217649889034874L148.859709733963,22.217649889034874L149.10568979930878,22.217649889034874L149.35166986465455,22.217649889034874L149.5976499300003,22.217649889034874L149.84362999534608,22.217649889034874L150.08961006069185,22.217649889034874L150.3355901260376,22.217649889034874L150.58157019138335,22.217649889034874L150.82755025672913,22.217649889034874L151.0758508887291,22.217649889034874L151.32415152072906,22.217649889034874L151.57013158607484,22.217649889034874L151.8161116514206,22.217649889034874L152.06441228342055,22.217649889034874L152.32199518203737,22.217649889034874L152.57957808065413,22.217649889034874L152.83716097927092,22.217649889034874L153.0831410446167,22.217649889034874L153.34072394323348,22.217649889034874L153.58670400857926,22.217649889034874L153.83268407392504,22.217649889034874L154.07866413927076,22.217649889034874L154.32464420461653,22.217649889034874L154.5706242699623,22.217649889034874L154.81660433530809,22.217649889034874L155.06258440065383,22.217649889034874L155.3085644659996,22.217649889034874L155.55454453134539,22.217649889034874L155.80052459669113,22.217649889034874L156.04650466203688,22.217649889034874L156.29248472738266,22.217649889034874L156.54078535938265,22.217649889034874L156.7983682579994,22.217649889034874L157.0443483233452,22.217649889034874L157.29032838869097,22.217649889034874L157.5363084540367,22.217649889034874L157.7822885193825,22.217649889034874L158.02826858472824,22.217649889034874L158.28585148334503,22.217649889034874" fill="none"></path></g></g></g></g></g></g><g transform="translate(51, 177)" clip-path="url(#clip_1)"><clipPath id="clip_1"><rect width="278" height="22"></rect></clipPath><g><g><line x1="0" y1="0" x2="0" y2="5" style="visibility: inherit;" fill="rgb(0, 0, 0)" stroke="rgb(204, 204, 204)" stroke-width="1px"></line><line x1="23.205666542053223" y1="0" x2="23.205666542053223" y2="5" style="visibility: inherit;" fill="rgb(0, 0, 0)" stroke="rgb(204, 204, 204)" stroke-width="1px"></line><line x1="46.411333084106445" y1="0" x2="46.411333084106445" y2="5" style="visibility: inherit;" fill="rgb(0, 0, 0)" stroke="rgb(204, 204, 204)" stroke-width="1px"></line><line x1="69.61699962615967" y1="0" x2="69.61699962615967" y2="5" style="visibility: inherit;" fill="rgb(0, 0, 0)" stroke="rgb(204, 204, 204)" stroke-width="1px"></line><line x1="92.82266616821289" y1="0" x2="92.82266616821289" y2="5" style="visibility: inherit;" fill="rgb(0, 0, 0)" stroke="rgb(204, 204, 204)" stroke-width="1px"></line><line x1="116.02833271026611" y1="0" x2="116.02833271026611" y2="5" style="visibility: inherit;" fill="rgb(0, 0, 0)" stroke="rgb(204, 204, 204)" stroke-width="1px"></line><line x1="139.23399925231934" y1="0" x2="139.23399925231934" y2="5" style="visibility: inherit;" fill="rgb(0, 0, 0)" stroke="rgb(204, 204, 204)" stroke-width="1px"></line><line x1="162.43966579437256" y1="0" x2="162.43966579437256" y2="5" style="visibility: inherit;" fill="rgb(0, 0, 0)" stroke="rgb(204, 204, 204)" stroke-width="1px"></line><line x1="185.64533233642578" y1="0" x2="185.64533233642578" y2="5" style="visibility: inherit;" fill="rgb(0, 0, 0)" stroke="rgb(204, 204, 204)" stroke-width="1px"></line><line x1="208.850998878479" y1="0" x2="208.850998878479" y2="5" style="visibility: inherit;" fill="rgb(0, 0, 0)" stroke="rgb(204, 204, 204)" stroke-width="1px"></line><line x1="232.05666542053223" y1="0" x2="232.05666542053223" y2="5" style="visibility: inherit;" fill="rgb(0, 0, 0)" stroke="rgb(204, 204, 204)" stroke-width="1px"></line><line x1="255.26233196258545" y1="0" x2="255.26233196258545" y2="5" style="visibility: inherit;" fill="rgb(0, 0, 0)" stroke="rgb(204, 204, 204)" stroke-width="1px"></line><line x1="278.4679985046387" y1="0" x2="278.4679985046387" y2="5" style="visibility: inherit;" fill="rgb(0, 0, 0)" stroke="rgb(204, 204, 204)" stroke-width="1px"></line></g><g transform="translate(0, 8)"><text style="text-anchor: middle; visibility: hidden; font-family: Roboto, sans-serif; font-size: 12px; font-weight: 200;" x="0" y="0" dx="0em" dy="0.95em" fill="rgb(50, 49, 63)" stroke="none" stroke-width="1px">20k</text><text style="text-anchor: middle; visibility: inherit; font-family: Roboto, sans-serif; font-size: 12px; font-weight: 200;" x="23.205666542053223" y="0" dx="0em" dy="0.95em" fill="rgb(50, 49, 63)" stroke="none" stroke-width="1px">30k</text><text style="text-anchor: middle; visibility: hidden; font-family: Roboto, sans-serif; font-size: 12px; font-weight: 200;" x="46.411333084106445" y="0" dx="0em" dy="0.95em" fill="rgb(50, 49, 63)" stroke="none" stroke-width="1px">40k</text><text style="text-anchor: middle; visibility: inherit; font-family: Roboto, sans-serif; font-size: 12px; font-weight: 200;" x="69.61699962615967" y="0" dx="0em" dy="0.95em" fill="rgb(50, 49, 63)" stroke="none" stroke-width="1px">50k</text><text style="text-anchor: middle; visibility: hidden; font-family: Roboto, sans-serif; font-size: 12px; font-weight: 200;" x="92.82266616821289" y="0" dx="0em" dy="0.95em" fill="rgb(50, 49, 63)" stroke="none" stroke-width="1px">60k</text><text style="text-anchor: middle; visibility: inherit; font-family: Roboto, sans-serif; font-size: 12px; font-weight: 200;" x="116.02833271026611" y="0" dx="0em" dy="0.95em" fill="rgb(50, 49, 63)" stroke="none" stroke-width="1px">70k</text><text style="text-anchor: middle; visibility: hidden; font-family: Roboto, sans-serif; font-size: 12px; font-weight: 200;" x="139.23399925231934" y="0" dx="0em" dy="0.95em" fill="rgb(50, 49, 63)" stroke="none" stroke-width="1px">80k</text><text style="text-anchor: middle; visibility: inherit; font-family: Roboto, sans-serif; font-size: 12px; font-weight: 200;" x="162.43966579437256" y="0" dx="0em" dy="0.95em" fill="rgb(50, 49, 63)" stroke="none" stroke-width="1px">90k</text><text style="text-anchor: middle; visibility: hidden; font-family: Roboto, sans-serif; font-size: 12px; font-weight: 200;" x="185.64533233642578" y="0" dx="0em" dy="0.95em" fill="rgb(50, 49, 63)" stroke="none" stroke-width="1px">100k</text><text style="text-anchor: middle; visibility: inherit; font-family: Roboto, sans-serif; font-size: 12px; font-weight: 200;" x="208.850998878479" y="0" dx="0em" dy="0.95em" fill="rgb(50, 49, 63)" stroke="none" stroke-width="1px">110k</text><text style="text-anchor: middle; visibility: hidden; font-family: Roboto, sans-serif; font-size: 12px; font-weight: 200;" x="232.05666542053223" y="0" dx="0em" dy="0.95em" fill="rgb(50, 49, 63)" stroke="none" stroke-width="1px">120k</text><text style="text-anchor: middle; visibility: inherit; font-family: Roboto, sans-serif; font-size: 12px; font-weight: 200;" x="255.26233196258545" y="0" dx="0em" dy="0.95em" fill="rgb(50, 49, 63)" stroke="none" stroke-width="1px">130k</text><text style="text-anchor: middle; visibility: hidden; font-family: Roboto, sans-serif; font-size: 12px; font-weight: 200;" x="278.4679985046387" y="0" dx="0em" dy="0.95em" fill="rgb(50, 49, 63)" stroke="none" stroke-width="1px">140k</text></g><line x1="0" y1="0" x2="278.4679985046387" y2="0" fill="rgb(0, 0, 0)" stroke="rgb(204, 204, 204)" stroke-width="1px"></line></g></g></g></g></svg>