<svg viewBox="0 0 330 200" xmlns="http://www.w3.org/2000/svg"><g><g><g><g><g><line x1="61.91500186920166" y1="177.89999961853027" x2="56.91500186920166" y2="177.89999961853027" style="visibility: inherit;" fill="rgb(0, 0, 0)" stroke="rgb(204, 204, 204)" stroke-width="1px"></line><line x1="61.91500186920166" y1="152.48571395874023" x2="56.91500186920166" y2="152.48571395874023" style="visibility: inherit;" fill="rgb(0, 0, 0)" stroke="rgb(204, 204, 204)" stroke-width="1px"></line><line x1="61.91500186920166" y1="127.07142829895018" x2="56.91500186920166" y2="127.07142829895018" style="visibility: inherit;" fill="rgb(0, 0, 0)" stroke="rgb(204, 204, 204)" stroke-width="1px"></line><line x1="61.91500186920166" y1="101.65714263916016" x2="56.91500186920166" y2="101.65714263916016" style="visibility: inherit;" fill="rgb(0, 0, 0)" stroke="rgb(204, 204, 204)" stroke-width="1px"></line><line x1="61.91500186920166" y1="76.2428569793701" x2="56.91500186920166" y2="76.2428569793701" style="visibility: inherit;" fill="rgb(0, 0, 0)" stroke="rgb(204, 204, 204)" stroke-width="1px"></line><line x1="61.91500186920166" y1="50.82857131958006" x2="56.91500186920166" y2="50.82857131958006" style="visibility: inherit;" fill="rgb(0, 0, 0)" stroke="rgb(204, 204, 204)" stroke-width="1px"></line><line x1="61.91500186920166" y1="25.414285659790007" x2="56.91500186920166" y2="25.414285659790007" style="visibility: inherit;" fill="rgb(0, 0, 0)" stroke="rgb(204, 204, 204)" stroke-width="1px"></line><line x1="61.91500186920166" y1="0" x2="56.91500186920166" y2="0" style="visibility: inherit;" fill="rgb(0, 0, 0)" stroke="rgb(204, 204, 204)" stroke-width="1px"></line></g><g transform="translate(51.91500186920166, 0)"><text style="text-anchor: end; visibility: hidden; font-family: Roboto, sans-serif; font-size: 12px; font-weight: 200;" x="0" y="177.89999961853027" dx="0em" dy="0.3em" fill="rgb(50, 49, 63)" stroke="none" stroke-width="1px">-5e-3</text><text style="text-anchor: end; visibility: inherit; font-family: Roboto, sans-serif; font-size: 12px; font-weight: 200;" x="0" y="152.48571395874023" dx="0em" dy="0.3em" fill="rgb(50, 49, 63)" stroke="none" stroke-width="1px">0</text><text style="text-anchor: end; visibility: inherit; font-family: Roboto, sans-serif; font-size: 12px; font-weight: 200;" x="0" y="127.07142829895018" dx="0em" dy="0.3em" fill="rgb(50, 49, 63)" stroke="none" stroke-width="1px">5e-3</text><text style="text-anchor: end; visibility: inherit; font-family: Roboto, sans-serif; font-size: 12px; font-weight: 200;" x="0" y="101.65714263916016" dx="0em" dy="0.3em" fill="rgb(50, 49, 63)" stroke="none" stroke-width="1px">0.01</text><text style="text-anchor: end; visibility: inherit; font-family: Roboto, sans-serif; font-size: 12px; font-weight: 200;" x="0" y="76.2428569793701" dx="0em" dy="0.3em" fill="rgb(50, 49, 63)" stroke="none" stroke-width="1px">0.015</text><text style="text-anchor: end; visibility: inherit; font-family: Roboto, sans-serif; font-size: 12px; font-weight: 200;" x="0" y="50.82857131958006" dx="0em" dy="0.3em" fill="rgb(50, 49, 63)" stroke="none" stroke-width="1px">0.02</text><text style="text-anchor: end; visibility: inherit; font-family: Roboto, sans-serif; font-size: 12px; font-weight: 200;" x="0" y="25.414285659790007" dx="0em" dy="0.3em" fill="rgb(50, 49, 63)" stroke="none" stroke-width="1px">0.025</text><text style="text-anchor: end; visibility: hidden; font-family: Roboto, sans-serif; font-size: 12px; font-weight: 200;" x="0" y="0" dx="0em" dy="0.3em" fill="rgb(50, 49, 63)" stroke="none" stroke-width="1px">0.03</text></g><line x1="61.91500186920166" y1="0" x2="61.91500186920166" y2="177.89999961853027" fill="rgb(0, 0, 0)" stroke="rgb(204, 204, 204)" stroke-width="1px"></line></g></g><g transform="translate(61, 0)" clip-path="url(#clip_0)"><clipPath id="clip_0"><rect width="268" height="177"></rect></clipPath><g><g><g><line x1="0" y1="0" x2="0" y2="177.89999961853027" fill="rgb(0, 0, 0)" stroke="rgb(60, 60, 60)" stroke-width="1px" opacity="0.25"></line><line x1="22.34041651089986" y1="0" x2="22.34041651089986" y2="177.89999961853027" fill="rgb(0, 0, 0)" stroke="rgb(60, 60, 60)" stroke-width="1px" opacity="0.25"></line><line x1="44.68083302179972" y1="0" x2="44.68083302179972" y2="177.89999961853027" fill="rgb(0, 0, 0)" stroke="rgb(60, 60, 60)" stroke-width="1px" opacity="0.25"></line><line x1="67.02124953269958" y1="0" x2="67.02124953269958" y2="177.89999961853027" fill="rgb(0, 0, 0)" stroke="rgb(60, 60, 60)" stroke-width="1px" opacity="0.25"></line><line x1="89.36166604359944" y1="0" x2="89.36166604359944" y2="177.89999961853027" fill="rgb(0, 0, 0)" stroke="rgb(60, 60, 60)" stroke-width="1px" opacity="0.25"></line><line x1="111.70208255449931" y1="0" x2="111.70208255449931" y2="177.89999961853027" fill="rgb(0, 0, 0)" stroke="rgb(60, 60, 60)" stroke-width="1px" opacity="0.25"></line><line x1="134.04249906539917" y1="0" x2="134.04249906539917" y2="177.89999961853027" fill="rgb(0, 0, 0)" stroke="rgb(60, 60, 60)" stroke-width="1px" opacity="0.25"></line><line x1="156.38291557629904" y1="0" x2="156.38291557629904" y2="177.89999961853027" fill="rgb(0, 0, 0)" stroke="rgb(60, 60, 60)" stroke-width="1px" opacity="0.25"></line><line x1="178.72333208719888" y1="0" x2="178.72333208719888" y2="177.89999961853027" fill="rgb(0, 0, 0)" stroke="rgb(60, 60, 60)" stroke-width="1px" opacity="0.25"></line><line x1="201.06374859809875" y1="0" x2="201.06374859809875" y2="177.89999961853027" fill="rgb(0, 0, 0)" stroke="rgb(60, 60, 60)" stroke-width="1px" opacity="0.25"></line><line x1="223.40416510899863" y1="0" x2="223.40416510899863" y2="177.89999961853027" fill="rgb(0, 0, 0)" stroke="rgb(60, 60, 60)" stroke-width="1px" opacity="0.25"></line><line x1="245.74458161989847" y1="0" x2="245.74458161989847" y2="177.89999961853027" fill="rgb(0, 0, 0)" stroke="rgb(60, 60, 60)" stroke-width="1px" opacity="0.25"></line><line x1="268.08499813079834" y1="0" x2="268.08499813079834" y2="177.89999961853027" fill="rgb(0, 0, 0)" stroke="rgb(60, 60, 60)" stroke-width="1px" opacity="0.25"></line></g><g><line x1="0" y1="177.89999961853027" x2="268.08499813079834" y2="177.89999961853027" fill="rgb(0, 0, 0)" stroke="rgb(60, 60, 60)" stroke-width="1px" opacity="0.25"></line><line x1="0" y1="152.48571395874023" x2="268.08499813079834" y2="152.48571395874023" fill="rgb(0, 0, 0)" stroke="rgb(60, 60, 60)" stroke-width="1px" opacity="0.25"></line><line x1="0" y1="127.07142829895018" x2="268.08499813079834" y2="127.07142829895018" fill="rgb(0, 0, 0)" stroke="rgb(60, 60, 60)" stroke-width="1px" opacity="0.25"></line><line x1="0" y1="101.65714263916016" x2="268.08499813079834" y2="101.65714263916016" fill="rgb(0, 0, 0)" stroke="rgb(60, 60, 60)" stroke-width="1px" opacity="0.25"></line><line x1="0" y1="76.2428569793701" x2="268.08499813079834" y2="76.2428569793701" fill="rgb(0, 0, 0)" stroke="rgb(60, 60, 60)" stroke-width="1px" opacity="0.25"></line><line x1="0" y1="50.82857131958006" x2="268.08499813079834" y2="50.82857131958006" fill="rgb(0, 0, 0)" stroke="rgb(60, 60, 60)" stroke-width="1px" opacity="0.25"></line><line x1="0" y1="25.414285659790007" x2="268.08499813079834" y2="25.414285659790007" fill="rgb(0, 0, 0)" stroke="rgb(60, 60, 60)" stroke-width="1px" opacity="0.25"></line><line x1="0" y1="0" x2="268.08499813079834" y2="0" fill="rgb(0, 0, 0)" stroke="rgb(60, 60, 60)" stroke-width="1px" opacity="0.25"></line></g></g></g><g><g><line x1="0" y1="152.48571395874023" x2="268.08499813079834" y2="152.48571395874023" fill="rgb(0, 0, 0)" stroke="rgb(153, 153, 153)" stroke-width="1.5px"></line></g></g><g><g><line x1="-44.68083302179972" y1="0" x2="-44.68083302179972" y2="177.89999961853027" fill="rgb(0, 0, 0)" stroke="rgb(153, 153, 153)" stroke-width="1.5px"></line></g></g><g><g><g><g><g><path style="fill: none;" stroke="rgb(204, 51, 17)" stroke-width="2px" d="M153.48983163813747,152.48571395874023L154.85483108695348,152.47958963428425L156.20866032751402,152.47938132412514L157.56248956807454,152.47992974770253L158.91631880863508,152.4802287805474L160.2701480491956,152.48070644135757L161.62397728975614,152.48123390285286L162.97780653031666,152.4815447315167L164.3316357708772,152.48188249053277L165.68546501143774,152.48221709891774L167.03929425199826,152.4825260526581L168.3931234925588,152.48275161717794L169.74695273311931,152.482817898821L171.10078197367986,152.48293647968973L172.4546112142404,152.48281907461612L173.80844045480092,152.48270361441513L175.17343990361692,152.48240112369763L176.52726914417744,152.48214177016385L177.88109838473798,152.48192934088942L179.2371616669496,152.48188395923282L180.5909909075101,152.4818443510861L181.94482014807065,152.4818920244272L183.2986493886312,152.48195385223684L184.66364883744717,152.4820520716329L186.0174780780077,152.48206039969577L187.37354136021932,152.48212141308278L188.7385408090353,152.48220988811664L190.09237004959584,152.4823106483709L191.44619929015636,152.48241596191596L192.8000285307169,152.48245617916274L194.15385777127742,152.4825215670116L195.5188572200934,152.482599478604L196.87268646065394,152.48260192287754L198.23768590946992,152.48249358459L199.59151515003046,152.4824488824382L200.94534439059098,152.48243844388523L202.29917363115152,152.4824447879089L203.6641730799675,152.48235257706958L205.01800232052804,152.4823331448892L206.37183156108858,152.48235558520514L207.7256608016491,152.48240148560845L209.09066025046508,152.4824599174605L210.45565969928106,152.4824091550893L211.8094889398416,152.48239271501666L213.16331818040211,152.4824125923071L214.51714742096266,152.4824212191353L215.8709766615232,152.48244387889702L217.23597611033915,152.48248444215793L218.5898053508997,152.48252231044924L219.9436345914602,152.48257011028562L221.30863404027622,152.48254679431082L222.66246328083673,152.48255743655974L224.01629252139728,152.48254200503303L225.37012176195782,152.4607610188562L226.72395100251833,152.44810283844407L228.07778024307888,152.4409122042195L229.4316094836394,152.43698549064712L230.78543872419993,152.43499160773715L232.13926796476045,152.43414908733465L233.493097205321,152.4339637172784L234.84916048753263,152.43418379879463L236.2141599363486,152.4346461693649L237.56798917690912,152.43523567352307L238.92181841746967,152.43588411481886L240.27564765803018,152.43656446606656L241.62947689859072,152.4372463835813L242.98330613915124,152.43793878607897L244.33936942136287,152.43862914922383L245.69319866192342,152.43928739159952L247.04702790248396,152.43991762621104L248.4120273512999,152.4405484491058" fill="none"></path></g><g><path style="fill: none;" stroke="rgb(255, 112, 67)" stroke-width="2px" d="M12.8502075770696,-3.637090063016501L13.087015992085139,6.452345623320509L14.161590026259422,5.260133749176847L14.82286635498206,7.0799393079691315L15.059674769997597,10.96885377244957L16.19233388710022,15.087700733034241L16.697227300246556,19.032523951931534L17.249035588065784,20.291979348098813L17.617652460495634,22.322015438831333L18.169460748314858,22.3737135274197L18.406269163330396,24.416234422246188L18.643077578345935,27.58568234814446L18.879885993361473,31.335749300009816L19.266375199000038,35.297264311101195L19.6104176132679,39.1512244728362L20.151055692831676,38.995371384038L20.633608689467113,40.007462437978745L20.87041710448265,42.04645822177485L21.10722551949819,44.57838212560962L21.50265089174112,46.758913545752165L21.855629472613334,48.96932033093503L22.092437887628872,51.44071489545782L22.49009730152289,54.005083921722125L22.9123311735789,56.42845630554701L23.321160795728364,58.85534717618501L23.557969210743902,61.23445510430143L24.036054124077165,63.53874459792354L24.272862539092703,65.75537238641044L24.50967095410824,67.84915386322479L25.17764940778414,69.86352429572918L25.73169173725446,70.80702838857782L26.124883067846298,72.08658148848855L26.361691482861836,73.53529594516874L26.598499897877375,74.9965348817575L26.835308312892913,76.47725171408686L27.083286936163905,77.94849339558706L27.320095351179443,79.3354162270602L27.55690376619498,80.71821831600565L28.030520596226058,82.0840020015104L28.55998846753438,82.73046392984729L28.79679688254992,83.62745150776422L29.13860525516669,84.50118760647416L29.48041362778346,85.46709658203261L29.717222042798998,86.37909530801102L30.0724346653223,87.1501095361504L31.189455490867296,87.05456569556095L31.540200030088425,87.09535360051262L31.788178653359413,87.48493329574262L32.024987068374955,88.13088538504181L32.36902948264281,88.89562715478881L32.60583789765835,89.72285683788454L33.0839228109916,89.88804025621813L33.32073122600714,90.36502899681253L33.557539641022686,91.0178193872433L34.397539301832516,90.73334705395507L34.63434771684806,90.92312203468319L34.873390173514686,91.38714659294398L35.22190067108472,91.79290378590959L35.458709086100264,92.35354026937337L35.811687666972475,92.79784476006853L36.178070497751236,93.06764831811905L36.51764482871692,93.54426809685317L37.22136794881026,94.13669538722591L37.64583586251736,94.670636080643L37.8826442775329,95.25791371214983L38.119452692548435,95.89558139995196L38.356261107563974,96.55635026244425L38.76509072971344,96.83604438553576L39.10689910233021,97.17221678377223L39.34370751734574,97.62499231814887L39.58051593236129,98.15466566806569L39.81732434737682,98.71798999674678L40.05413276239236,99.07162310821073L40.290941177407895,99.52364654533513L40.75338779918353,100.03251527817312L41.68721720933914,99.7960989945111L41.924025624354684,99.84185269651059L42.527216870148976,100.10040614380851L42.94498265890281,100.38055165063784L43.18179107391834,100.77093913781891L43.52136540488402,101.22274371415602L44.48870543980598,101.23778768297711L44.88859889535109,101.38042025943314L45.424768891612686,101.08805673631001L45.66157730662823,101.12421584799117L45.89838572164376,101.3532129908287L46.90817254793644,101.69376805495057L47.26785325376193,104.46397436702492L47.69455520912012,106.28155547602277L48.19944862226645,107.34558929517897L48.43625703728199,108.03502836958765L48.775831368247665,109.43186375197453L49.11540569921335,110.35922702287768L49.35221411422888,112.2618078759432L49.72083098665873,114.86682138980385L49.957639401674264,116.44807443141804L50.19444781668981,118.0868588929842L50.616681688745814,118.8308171297479L50.85349010376136,119.27408955266247L51.19753251802921,119.51799170000751L51.4455111413002,119.71552218739474L51.68231955631574,119.84521882695219L51.91912797133128,121.5771121817005L52.475404342452684,122.56859986270301L52.71221275746822,123.22692227754997L53.167957254290585,123.64400164851573L53.404765669306116,124.12440658154307L53.64157408432166,125.15533222131891L53.88955270759265,126.01474609777469L54.240297246813775,126.97170007922011L54.655828993916515,127.2924325361014L54.997637366533276,127.49891050698388L55.23444578154882,127.6116530256013L55.47125419656436,127.67929853677177L55.82423277743657,127.70837423826576L56.22412623298168,128.87181941347956L56.47210485625267,129.69310301432586L56.70891327126821,130.1731355207114L57.30763643376032,130.3384289483903L57.54444484877587,130.59915091406023L57.93763617936771,130.60569653677516L58.17444459438324,130.58815811347287L58.6726358825763,130.55502463465524L59.012210213541984,130.5590349862022L59.41880579404036,130.49718676648027L59.6556142090559,130.42329920749637L59.892422624071436,130.35556097229858L60.35486924584706,130.3149180311799L60.69891166011492,130.30335512866353L60.94689028338591,130.29333474988437L61.68188998659452,129.12833611737082L61.91869840161005,128.40779824072573L62.30071952394644,127.89315319414739L62.85699589506785,127.47468165281988L63.20103830933571,127.19116571053677L63.56295305681229,126.6061630861983L63.913697596033415,126.11185769556266L64.62859092438221,125.81872349299097L64.98603758855661,125.45824923631497L65.86178191578388,125.4208665208627L66.09859033079942,125.36638731025155L66.70848370154698,124.78988602479166L66.94529211656253,124.42882485099905L67.18210053157806,124.284149170547L67.4189089465936,124.29958488062812L67.77188752746582,124.51864363110576L68.1114618584315,124.85350832551612L68.34827027344704,125.09023439774109L68.58507868846259,125.23436994570241L68.8218871034781,125.3367766557777L69.05869551849365,125.41222793563128L69.48092939054966,125.85913244587894L69.71773780556519,126.12727515202752L70.09305680294833,126.28816077571669L70.46167367537815,126.99283702690289L70.6984820903937,127.41564277761461L70.93529050540924,127.59956073119221L71.18326912868024,127.8516522253505L71.42007754369577,128.0019082943519L71.85348162400723,127.87937321874985L72.09029003902278,128.03955319123796L72.32709845403829,128.1356611747308L72.56390686905384,128.17227295347558L72.81188549232483,128.28256098681086L73.28103423905372,128.36859674597392L73.70326811110972,128.42021820147176L73.95124673438072,128.45119107477043L74.29752319029967,128.6614805643395L74.54550181357067,128.870522856837L74.88954422783851,129.00679521488925L75.12635264285406,129.0821547726905L75.47262909877301,128.94041272271073L75.72060772204398,129.04189734370843L76.48688400836785,129.1056586802507L76.7236924233834,129.14391548217614L76.9716710466544,129.8557755603864L77.20847946166991,130.32622462568435L77.5480537926356,130.60266299516348L77.78486220765114,130.85505666749827L78.1266705802679,130.96262209516584L78.47071299453577,131.0271613517664L78.70752140955129,131.5114632707571L78.94432982456684,131.87868336696644L79.28613819718362,132.5898965337818L80.06805277506511,132.72380371609344L80.30486119008064,132.7986658353366L80.73156314543883,132.69161032028583L80.96837156045437,132.65063217687188L81.2051799754699,132.62604529082347L81.56039259799321,132.8679331261836L81.79720101300875,132.9950722577981L82.03400942802429,133.06988542482597L82.61486025730768,132.70088335396935L82.85166867232323,132.47048887698924L83.32081741905213,132.3322521908012L83.55762583406765,132.1929119290467L83.90390228998662,131.9389390445305L84.14071070500215,132.02586680724087L84.37751912001768,132.08076527000594L84.61432753503323,132.21725293594022L85.0901784067154,132.0992806274087L85.4654974040985,131.97925741374493L85.70230581911404,131.9251049826977L85.93911423412959,132.08592782796404L86.18709285740057,132.18277562183727L86.59145439624787,132.22984701766788L86.82826281126341,132.24562486674841L87.2326243501107,132.25509157619678L87.57443272272745,132.18810997866288L87.91624109534423,132.48333960032147L88.15304951035976,132.89012958948223L88.3898579253753,133.13286108308677L88.62666634039084,133.28964424316158L89.16507037830353,133.18850585009756L89.40187879331907,133.15616915982525L89.6386872083346,133.13676714566185L89.87549562335015,133.11898243801122L90.11230403836568,133.1055873232665L90.45411241098245,133.17210444270287L90.69092082599799,133.21144618743588L90.92772924101352,133.45156058478605L91.16453765602907,133.60188159927935L91.4013460710446,133.7031290034531L91.64038852771122,133.78305872085824L91.87719694272677,133.87664024561693L92.11400535774231,133.90880546617672L92.36198398101331,133.95151029832002L92.8959199356238,133.456357797024L93.13272835063934,133.14260954600118L93.36953676565489,132.95744323265686L93.60857922232151,134.44038549627487L93.84538763733705,135.33458119876445L94.09336626060804,135.95021806557855L94.33017467562357,136.45297868603205L94.56698309063911,136.79557941149454L94.81496171391011,137.42555632352088L95.05177012892564,137.98293756912338L95.3980465848446,138.29095040623582L95.63485499986012,138.64211117074007L95.87166341487567,139.02458891673587L96.1084718298912,139.26089930761313L96.34528024490675,140.01052935073025L96.69602478412787,140.49482941102042L97.06240761490662,140.74355242129909L97.4042159875234,140.82216865029054L97.64102440253895,141.196842561767L97.87783281755446,141.3815068246149L98.11464123257001,141.49509831228204L98.46091768848896,141.56325320488233L98.6977261035045,141.60047982814964L98.93453451852004,141.6067763367234L99.34783222397168,141.57089984361568L99.58464063898722,141.54937394775106L99.92421496995291,141.47649325726914L100.16102338496843,141.52635592588655L100.39783179998398,141.55627352705702L100.63464021499952,141.63586973247706L100.88261883827052,141.6714848377014L101.11942725328603,141.6857068404102L101.46793775085608,142.0653110832006L101.70474616587163,142.28715593100873L101.94155458088716,142.42026283969358L102.17836299590269,142.51055100425185L102.64080961767833,142.5262446655182L103.02059669836362,142.52170520666712L103.25740511337916,142.51478266885968L103.4942135283947,142.5106291461752L103.73102194341024,142.62843065607439L103.97900056668124,142.69911156201388L104.21580898169677,142.74150330066L104.45485143836339,142.7577417935482L104.69165985337894,142.9598962247189L104.92846826839448,143.08987039850143L105.16527668341,143.1678549027709L105.40208509842554,143.212409604543L105.65006372169654,143.23910928914916L105.88687213671209,143.24599811246065L106.1236805517276,143.25595632223371L106.36048896674315,143.26429766451483L106.5972973817587,143.31317253554985L106.99048871235053,143.34249745817087L107.22729712736607,143.36009241174347L107.4641055423816,143.37032867031976L107.70091395739715,143.4557583933393L107.94889258066813,143.79771999869575L108.19687120393912,144.00726529371576L108.43367961895466,144.28496502063544L108.67048803397019,144.4515848567873L108.90729644898573,144.550023487269L109.14410486400128,144.60890086470908L109.38091327901681,144.65121600667163L109.61772169403235,144.67807493041204L109.85453010904789,145.18132863091282L110.19410444001358,145.49192283923375L110.4309128550291,145.67826776646632L110.66995531169573,145.83390407796773L110.90676372671128,146.10733256801586L111.14357214172682,146.2712760513346L111.38038055674235,146.36981421421396L111.61718897175788,146.43299277760576L111.86516759502888,146.65218473884008L112.10197601004442,146.83293974412553L112.33878442505996,146.95162670539358L112.57559284007549,147.0423619359417L112.81240125509103,147.1002767217341L113.06037987836203,147.3227001904446L113.30835850163301,147.46734433490045L113.54516691664854,147.55405602785646L113.78197533166409,147.6784450185849L114.01878374667963,147.746528637236L114.25559216169516,147.84586962573633L114.4924005767107,147.90681683707288L114.74037919998169,147.94338516387484L114.97718761499723,148.15641227379743L115.21399603001277,148.29875662765883L115.4508044450283,148.38065894128928L115.68761286004384,148.43078093190977L116.02942123266061,148.47631559718064L116.26846368932723,148.56260378691312L116.73984647770723,148.64778274663405L116.97888893437386,148.73538081747375L117.21569734938939,148.79887776778844L117.55527168035508,148.84853192236918L117.79208009537061,148.8864311310109L118.0400587186416,148.92016793625172L118.27686713365713,149.0011440565093L118.51367554867268,149.0496609705153L118.7527180053393,149.5985589939061L119.0006966286103,149.94445443874744L119.23750504362583,150.14579163783355L119.48548366689681,150.26465488282042L119.73346229016781,150.3517295110409L119.97027070518335,150.40695219036908L120.20931316184998,150.44433306335915L120.44612157686551,150.4633051588129L120.68292999188105,150.47464456945167L120.9197384068966,150.48193129804216L121.15654682191213,150.50861849053072L121.39335523692766,150.54178223623632L121.6301636519432,150.5759937763186L121.86697206695875,150.62187121434795L122.10378048197428,150.66739586220226L122.35175910524526,150.69344655424743L122.58856752026081,150.7267836128607L122.82760997692743,150.8443037786223L123.06665243359407,150.96352747599406L123.30346084860962,151.0752016601106L123.54026926362513,151.1238742540827L123.77707767864068,151.15011097327982L124.02505630191168,151.16903558398906L124.27303492518267,151.18647597911172L124.50984334019819,151.2951388938702L124.9097367957433,151.3603366427253L125.14654521075884,151.45005244312242L125.50175783328216,151.4741642018472L125.7385662482977,151.46668515903912L125.97537466331323,151.4689428367206L126.22335328658421,151.4918946322305L126.46016170159976,151.52577749757415L126.6969701166153,151.35410689175552L126.93377853163082,151.25702240364717L127.17058694664637,151.19742406290501L127.40739536166191,151.17128758975014L127.64420377667746,151.1977666995746L128.04856531552474,151.21536430251862L128.28537373054027,151.23003929984472L128.5221821455558,151.23883559992038L128.75899056057136,151.24644849426554L128.998033017238,151.2510162308726L129.41356476434072,151.2537736481683L129.65037317935625,151.27102841711695L129.88718159437178,151.28138127848612L130.12399000938734,151.2906208982505L130.36079842440287,151.29616467010908L130.59760683941843,151.30001025843146L130.83441525443394,151.30233486013427L131.0712236694495,151.31286049026366L131.30803208446503,151.31918202225475L131.54484049948059,151.3270321751781L131.7816489144961,151.3317422669321L132.01845732951165,151.3298985371768L132.25526574452718,151.32879229932362L132.49207415954274,151.32665247537702L132.72888257455824,151.32502996783774L132.9656909895738,151.32616110172012L133.20249940458933,151.32795378831779L133.4393078196049,151.32881717902015L133.68728644287586,151.32396314284546L133.9240948578914,151.32258402193617L134.16090327290695,151.31419007609307L134.39994572957355,151.3199955727418L134.6367541445891,151.3195733250521L134.87356255960464,151.32067247643954L135.1103709746202,151.32807609429628L135.34717938963573,151.33252980359805L135.58398780465126,151.34777077612833L135.82079621966682,151.35560084822646L136.06877484293778,151.36041241343716L136.31675346620875,151.36348817119696L136.5535618812243,151.36534211706999L136.8015405044953,151.38503501327853L137.2282424598535,151.37472334920236L137.46505087486904,151.3674068117741L137.86494433041415,151.3242654891082L138.31175266063212,151.2798769428117L138.54856107564765,151.2577258758946L138.78536949066321,151.24570986507135L139.02217790567875,151.23857499312268L139.2589863206943,151.23459241641217L139.49579473570984,151.2387526461718L139.7437733589808,151.24387014406202L139.98058177399636,151.22119417773948L140.21962423066296,151.20668107322624L140.45643264567852,151.20154111936793L140.7044112689495,151.1985047215378L140.94121968396507,151.2001748736992L141.17802809898058,151.20634009839543L141.4148365139961,151.21003763556254L141.65164492901167,151.21225615786284L141.8884533440272,151.21737222388685L142.12526175904273,151.22040795780495L142.3620701740583,151.22650157506405L142.59887858907382,151.23015774541946L142.83568700408938,151.23233328175357L143.07249541910488,151.24125720759926L143.3093038341204,151.24663996578423L143.54611224913597,151.24993831967154L143.7829206641515,151.2529049759432L144.01972907916706,151.25478497080007L144.2565374941826,151.26211259174107L144.49334590919813,151.2684382682472L144.7301543242137,151.2735856416019L144.9669627392292,151.27755159000634L145.20377115424472,151.2808449560267L145.44281361091137,151.28904267091312L145.681856067578,151.29403201067763L145.91866448259353,151.29765073971737L146.1554728976091,151.30388234699888L146.3945153542757,151.30870481434383L146.6424939775467,151.31170826636787L146.89047260081767,151.3136009894615L147.13845122408867,151.3181989392963L147.3752596391042,151.3222209182809L147.6232382623752,151.34953813547793L147.86004667739076,151.36592385036099L148.0968550924063,151.37572199490313L148.3336635074218,151.38155807050921L148.57047192243735,151.40337624758703L148.80728033745288,151.41941916837249L149.04408875246844,151.42951069516937L149.28089716748397,151.44545610404887L149.5177055824995,151.45616235591828L149.75451399751506,151.46258610703993L149.9913224125306,151.475797974863L150.2281308275461,151.5134282606981L150.46493924256166,151.55794714556782L150.7039816992283,151.5860337282191L150.95196032249927,151.60288567780984L151.1887687375148,151.61299684756426L151.42557715253037,151.8110638744418L151.6623855675459,151.92990409056833L151.89919398256143,152.00255077930836L152.13600239757696,152.0471458154019L152.38398102084795,152.0742244973812" fill="none"></path></g></g></g></g><g opacity="0.2"><g><g><g><path style="fill: none;" stroke="rgb(204, 51, 17)" stroke-width="2px" d="M153.48983163813747,152.48571395874023L154.85483108695348,152.47591503961064L156.20866032751402,152.47918134637243L157.56248956807454,152.48057469382954L158.91631880863508,152.48061919782967L160.2701480491956,152.48136721821592L161.62397728975614,152.48198818123052L162.97780653031666,152.48199792269247L164.3316357708772,152.48238061947518L165.68546501143774,152.48271395337278L167.03929425199826,152.48298668108092L168.3931234925588,152.48308873644558L169.74695273311931,152.48291710486453L171.10078197367986,152.4831141186805L172.4546112142404,152.4826431050109L173.80844045480092,152.48253050554516L175.17343990361692,152.4819475156253L176.52726914417744,152.48175280571303L177.88109838473798,152.48161072933922L179.2371616669496,152.48181589089597L180.5909909075101,152.48178494103817L181.94482014807065,152.4819635328701L183.2986493886312,152.48204659273068L184.66364883744717,152.48219939956346L186.0174780780077,152.4820728917309L187.37354136021932,152.48221293290308L188.7385408090353,152.48234260044106L190.09237004959584,152.4824617885976L191.44619929015636,152.48257393213657L192.8000285307169,152.48251650501064L194.15385777127742,152.4826196487632L195.5188572200934,152.48271634597708L196.87268646065394,152.4826055892876L198.23768590946992,152.48233107716644L199.59151515003046,152.48238182921244L200.94534439059098,152.48242278605605L202.29917363115152,152.48245430394425L203.6641730799675,152.48221426081145L205.01800232052804,152.48230399661873L206.37183156108858,152.482389245679L207.7256608016491,152.48247033621328L209.09066025046508,152.48254756523852L210.45565969928106,152.48233301153255L211.8094889398416,152.4823680549077L213.16331818040211,152.48244240824278L214.51714742096266,152.48243415937756L215.8709766615232,152.48247786853958L217.23597611033915,152.4825452870493L218.5898053508997,152.4825791128862L219.9436345914602,152.4826418100402L221.30863404027622,152.48251182034863L222.66246328083673,152.4825733999331L224.01629252139728,152.482518857743L225.37012176195782,152.428089539591L226.72395100251833,152.4291155678259L228.07778024307888,152.43012625288264L229.4316094836394,152.4310954202885L230.78543872419993,152.4320007833722L232.13926796476045,152.43288530673087L233.493097205321,152.43368566219405L234.84916048753263,152.43451392106894L236.2141599363486,152.43533972522027L237.56798917690912,152.43611992976034L238.92181841746967,152.43685677676257L240.27564765803018,152.43758499293813L241.62947689859072,152.4382692598534L242.98330613915124,152.4389773898255L244.33936942136287,152.43966469394113L245.69319866192342,152.44027475516302L247.04702790248396,152.4408629781283L248.4120273512999,152.4414946834479" fill="none"></path></g><g><path style="fill: none;" stroke="rgb(255, 112, 67)" stroke-width="2px" d="M12.157654665231705,-8.071478963472032L12.499463037848473,2.633849969818982L12.8502075770696,12.423457643998L13.087015992085139,21.574639399919533L14.161590026259422,3.472656778143906L14.82286635498206,9.808877565433809L15.059674769997597,16.80123807420899L16.19233388710022,21.265343709032976L16.697227300246556,24.94939820780983L17.249035588065784,22.18109337082252L17.617652460495634,25.36700277572789L18.169460748314858,22.45125963961369L18.406269163330396,27.479991568878702L18.643077578345935,32.3398317099125L18.879885993361473,36.9608337354853L19.266375199000038,41.23952669130715L19.6104176132679,44.93215879870204L20.151055692831676,38.76159189440341L20.633608689467113,41.52559845952252L20.87041710448265,45.104951221315844L21.10722551949819,48.37626747759372L21.50265089174112,50.0297104156543L21.855629472613334,52.284930350382396L22.092437887628872,55.14780663602947L22.49009730152289,57.851637394993666L22.9123311735789,60.0635148437908L23.321160795728364,62.495683459613204L23.557969210743902,64.80311698322492L24.036054124077165,66.99517883065609L24.272862539092703,69.08031406469617L24.50967095410824,70.98982607592728L25.17764940778414,72.88507994303171L25.73169173725446,72.22228452744216L26.124883067846298,74.00591113802213L26.361691482861836,75.70836762996313L26.598499897877375,77.18839328650395L26.835308312892913,78.6983269624978L27.083286936163905,80.15535591778777L27.320095351179443,81.4158004742419L27.55690376619498,82.79242144940702L28.030520596226058,84.13267752975761L28.55998846753438,83.70015682234975L28.79679688254992,84.97293287463725L29.13860525516669,85.81179175453768L29.48041362778346,86.91596004536939L29.717222042798998,87.74709339697806L30.0724346653223,88.30663087835921L31.189455490867296,86.9112499346768L31.540200030088425,87.15653545794011L31.788178653359413,88.0693028385876L32.024987068374955,89.09981351899053L32.36902948264281,90.04273980940934L32.60583789765835,90.96370136252806L33.0839228109916,90.13581538371851L33.32073122600714,91.08051210770417L33.557539641022686,91.99700497288943L34.397539301832516,90.30663855402264L34.63434771684806,91.20778450577536L34.873390173514686,92.08318343033515L35.22190067108472,92.40153957535803L35.458709086100264,93.19449499456901L35.811687666972475,93.46430149611129L36.178070497751236,93.4723536551948L36.51764482871692,94.2591977649544L37.22136794881026,95.02533632278497L37.64583586251736,95.47154712076866L37.8826442775329,96.13883015941005L38.119452692548435,96.85208293165513L38.356261107563974,97.5475035561827L38.76509072971344,97.25558557017298L39.10689910233021,97.67647538112689L39.34370751734574,98.30415561971382L39.58051593236129,98.94917569294094L39.81732434737682,99.5629764897684L40.05413276239236,99.60207277540667L40.290941177407895,100.20168170102171L40.75338779918353,100.79581837743011L41.68721720933914,99.44147456901808L41.924025624354684,99.9104832495098L42.527216870148976,100.48823631475534L42.94498265890281,100.80076991088184L43.18179107391834,101.35652036859054L43.52136540488402,101.9004505786617L44.48870543980598,101.26035363620878L44.88859889535109,101.59436912411712L45.424768891612686,100.64951145162537L45.66157730662823,101.17845451551288L45.89838572164376,101.69670870508496L46.90817254793644,102.20460065113336L47.26785325376193,108.61928383513643L47.69455520912012,109.00792713951955L48.19944862226645,108.94164002391328L48.43625703728199,109.06918698120072L48.775831368247665,111.52711682555483L49.11540569921335,111.75027192923237L49.35221411422888,115.11567915554156L49.72083098665873,118.77434166059476L49.957639401674264,118.81995399383938L50.19444781668981,120.54503558533337L50.616681688745814,119.94675448489346L50.85349010376136,119.93899818703434L51.19753251802921,119.883844921025L51.4455111413002,120.0118179184756L51.68231955631574,120.03976378628835L51.91912797133128,124.17495221382302L52.475404342452684,124.05583138420673L52.71221275746822,124.21440589982036L53.167957254290585,124.2696207049644L53.404765669306116,124.84501398108407L53.64157408432166,126.70172068098275L53.88955270759265,127.30386691245832L54.240297246813775,128.40713105138823L54.655828993916515,127.77353122142333L54.997637366533276,127.80862746330757L55.23444578154882,127.78076680352746L55.47125419656436,127.78076680352746L55.82423277743657,127.75198779050679L56.22412623298168,130.61698717630023L56.47210485625267,130.92502841559528L56.70891327126821,130.89318428028974L57.30763643376032,130.58636908990863L57.54444484877587,130.99023386256513L57.93763617936771,130.61551497084756L58.17444459438324,130.5618504785194L58.6726358825763,130.5053244164288L59.012210213541984,130.56505051352264L59.41880579404036,130.40441443689733L59.6556142090559,130.3124678690205L59.892422624071436,130.25395361950189L60.35486924584706,130.25395361950189L60.69891166011492,130.286010774889L60.94689028338591,130.2783041817156L61.68188998659452,127.38083816860046L61.91869840161005,127.3269914257581L62.30071952394644,127.12118562427987L62.85699589506785,126.8469743408286L63.20103830933571,126.76589179711206L63.56295305681229,125.72865914969056L63.913697596033415,125.37039960960928L64.62859092438221,125.37902218913344L64.98603758855661,124.91753785130089L65.86178191578388,125.3647924476843L66.09859033079942,125.28466849433485L66.70848370154698,123.92513409660178L66.94529211656253,123.88723309031013L67.18210053157806,124.06713564986894L67.4189089465936,124.32273844574982L67.77188752746582,124.84723175682221L68.1114618584315,125.35580536713165L68.34827027344704,125.44532350607851L68.58507868846259,125.45057326764442L68.8218871034781,125.49038672089064L69.05869551849365,125.52540485541165L69.48092939054966,126.52948921125042L69.71773780556519,126.52948921125042L70.09305680294833,126.52948921125042L70.46167367537815,128.0498514036822L70.6984820903937,128.0498514036822L70.93529050540924,127.87543766155862L71.18326912868024,128.2297894665879L71.42007754369577,128.22729239785392L71.85348162400723,127.69557060534676L72.09029003902278,128.27982314997013L72.32709845403829,128.27982314997013L72.56390686905384,128.2271906215927L72.81188549232483,128.44799303681376L73.28103423905372,128.4976503847185L73.70326811110972,128.4976503847185L73.95124673438072,128.4976503847185L74.29752319029967,128.97691479869312L74.54550181357067,129.1840862955832L74.88954422783851,129.2112037519676L75.12635264285406,129.1951941093924L75.47262909877301,128.72779964774108L75.72060772204398,129.19412427520496L76.48688400836785,129.20130068506418L76.7236924233834,129.20130068506418L76.9716710466544,130.92356567770182L77.20847946166991,131.03189822363126L77.5480537926356,131.0173205493822L77.78486220765114,131.2336471760004L78.1266705802679,131.12397023666722L78.47071299453577,131.12397023666722L78.70752140955129,132.23791614924318L78.94432982456684,132.42951351128042L79.28613819718362,133.6567162840049L80.06805277506511,132.92466448956088L80.30486119008064,132.91095901420135L80.73156314543883,132.5310270477097L80.96837156045437,132.5891649617509L81.2051799754699,132.5891649617509L81.56039259799321,133.2307648792238L81.79720101300875,133.18578095521983L82.03400942802429,133.18210517536778L82.61486025730768,132.14738024768434L82.85166867232323,132.12489716151907L83.32081741905213,132.12489716151907L83.55762583406765,131.98390153641492L83.90390228998662,131.5579797177563L84.14071070500215,132.15625845130643L84.37751912001768,132.1631129641535L84.61432753503323,132.42198443484168L85.0901784067154,131.92232216461142L85.4654974040985,131.79922259324928L85.70230581911404,131.8438763361268L85.93911423412959,132.32716209586357L86.18709285740057,132.32804731264702L86.59145439624787,132.30045411141376L86.82826281126341,132.2692916403693L87.2326243501107,132.2692916403693L87.57443272272745,132.087637582362L87.91624109534423,132.92618403280943L88.15304951035976,133.50031457322333L88.3898579253753,133.49695832349363L88.62666634039084,133.52481898327375L89.16507037830353,133.03679826050154L89.40187879331907,133.10766412441677L89.6386872083346,133.10766412441677L89.87549562335015,133.09230537653528L90.11230403836568,133.0854946511494L90.45411241098245,133.27188012185744L90.69092082599799,133.27045880453537L90.92772924101352,133.81173218081133L91.16453765602907,133.8273631210193L91.4013460710446,133.85500010971373L91.64038852771122,133.90295329696588L91.87719694272677,134.017012532755L92.11400535774231,133.95705329701636L92.36198398101331,134.01556754653498L92.8959199356238,132.71362904508L93.13272835063934,132.67198716946695L93.36953676565489,132.67969376264034L93.60857922232151,136.66479889170193L93.84538763733705,136.67587475249888L94.09336626060804,136.8736733657997L94.33017467562357,137.20711961671228L94.56698309063911,137.30948049968828L94.81496171391011,138.37052169156038L95.05177012892564,138.81900943752714L95.3980465848446,138.75296966190444L95.63485499986012,139.16885231749643L95.87166341487567,139.59830553572962L96.1084718298912,139.615364893929L96.34528024490675,141.1349744154059L96.69602478412787,141.22127950145568L97.06240761490662,141.11663693671707L97.4042159875234,140.94009299377777L97.64102440253895,141.75885342898167L97.87783281755446,141.65850321888672L98.11464123257001,141.66548554378278L98.46091768848896,141.66548554378278L98.6977261035045,141.65631976305062L98.93453451852004,141.61622109958404L99.34783222397168,141.51708510395412L99.58464063898722,141.51708510395412L99.92421496995291,141.36717222154627L100.16102338496843,141.60114992881267L100.39783179998398,141.60114992881267L100.63464021499952,141.75526404060713L100.88261883827052,141.7249074955379L101.11942725328603,141.70703984447343L101.46793775085608,142.6347174473862L101.70474616587163,142.61992320272088L101.94155458088716,142.61992320272088L102.17836299590269,142.64598325108923L102.64080961767833,142.5497851574177L103.02059669836362,142.51489601839052L103.25740511337916,142.50439886214852L103.4942135283947,142.50439886214852L103.73102194341024,142.80513292092314L103.97900056668124,142.80513292092314L104.21580898169677,142.80509090862924L104.45485143836339,142.78209953288047L104.69165985337894,143.263127871475L104.92846826839448,143.28483165917515L105.16527668341,143.28483165917515L105.40208509842554,143.2792416572012L105.65006372169654,143.27915881605836L105.88687213671209,143.2563313474279L106.1236805517276,143.27089363689328L106.36048896674315,143.27680967793657L106.5972973817587,143.3864848421024L106.99048871235053,143.3864848421024L107.22729712736607,143.3864848421024L107.4641055423816,143.3856830581842L107.70091395739715,143.5839029778686L107.94889258066813,144.31066240673042L108.19687120393912,144.3215832362458L108.43367961895466,144.701514611015L108.67048803397019,144.701514611015L108.90729644898573,144.69768143299157L109.14410486400128,144.69721693086925L109.38091327901681,144.71468871961545L109.61772169403235,144.71836331602265L109.85453010904789,145.93620918166397L110.19410444001358,145.95781415171518L110.4309128550291,145.9577851573152L110.66995531169573,146.0673585452198L110.90676372671128,146.51747530308813L111.14357214172682,146.5171912763127L111.38038055674235,146.517621458533L111.61718897175788,146.52776062269345L111.86516759502888,146.98097268069156L112.10197601004442,147.1040722520537L112.33878442505996,147.12965714729566L112.57559284007549,147.1784647817639L112.81240125509103,147.18714890042273L113.06037987836203,147.65633539351032L113.30835850163301,147.68431055158428L113.54516691664854,147.68412356729044L113.78197533166409,147.86502850467755L114.01878374667963,147.84865406521263L114.25559216169516,147.9948811084868L114.4924005767107,147.9982376540777L114.74037919998169,147.9982376540777L114.97718761499723,148.47595293868133L115.21399603001277,148.51227315845097L115.4508044450283,148.503512411735L115.68761286004384,148.50596391784046L116.02942123266061,148.54461759508698L116.26846368932723,148.69203607151184L116.73984647770723,148.77555118621544L116.97888893437386,148.86677792373328L117.21569734938939,148.89412319326047L117.55527168035508,148.9230131542403L117.79208009537061,148.9432799439735L118.0400587186416,148.9707731441129L118.27686713365713,149.12260823689573L118.51367554867268,149.12243634152435L118.7527180053393,150.42190602899225L119.0006966286103,150.46329760600946L119.23750504362583,150.4477974364627L119.48548366689681,150.44294975030076L119.73346229016781,150.4823414533716L119.97027070518335,150.4897862093614L120.20931316184998,150.5004043728442L120.44612157686551,150.4917633019935L120.68292999188105,150.49165368540986L120.9197384068966,150.49286139092789L121.15654682191213,150.5486492792636L121.39335523692766,150.5915278547947L121.6301636519432,150.627311086442L121.86697206695875,150.690687371392L122.10378048197428,150.7356828339837L122.35175910524526,150.7325225923152L122.58856752026081,150.7767892007806L122.82760997692743,151.02058402726473L123.06665243359407,151.1423630220517L123.30346084860962,151.2427129362854L123.54026926362513,151.19688314504083L123.77707767864068,151.18946605207552L124.02505630191168,151.19742250005294L124.27303492518267,151.21263657179568L124.50984334019819,151.4581332660079L124.9097367957433,151.4581332660079L125.14654521075884,151.5846261437181L125.50175783328216,151.51033183993442L125.7385662482977,151.45546659482702L125.97537466331323,151.4723293532428L126.22335328658421,151.52632232549533L126.46016170159976,151.57660179558968L126.6969701166153,151.09660098302754L126.93377853163082,151.1113956714847L127.17058694664637,151.10802655179174L127.40739536166191,151.1320828800178L127.64420377667746,151.2374853643113L128.04856531552474,151.24176070693463L128.28537373054027,151.25205179583386L128.5221821455558,151.25203005003385L128.75899056057136,151.2578678357833L128.998033017238,151.2578678357833L129.41356476434072,151.25790977411182L129.65037317935625,151.29691057053992L129.88718159437178,151.29691057053992L130.12399000938734,151.304480327897L130.36079842440287,151.304480327897L130.59760683941843,151.30577864091504L130.83441525443394,151.30582176268848L131.0712236694495,151.32864893545772L131.30803208446503,151.32866432024142L131.54484049948059,151.3388074045631L131.7816489144961,151.3388074045631L132.01845732951165,151.32713294254387L132.25526574452718,151.32713294254387L132.49207415954274,151.32344273945714L132.72888257455824,151.3225962065288L132.9656909895738,151.32785780254366L133.20249940458933,151.33064281821433L133.4393078196049,151.33011226507367L133.68728644287586,151.31668208858346L133.9240948578914,151.3205153405722L134.16090327290695,151.3015991573284L134.39994572957355,151.32870381771485L134.6367541445891,151.31893995351754L134.87356255960464,151.3223212035207L135.1103709746202,151.33918152108137L135.34717938963573,151.33921036755075L135.58398780465126,151.37063223492376L135.82079621966682,151.36734595637364L136.06877484293778,151.36762976125317L136.31675346620875,151.3681018078367L136.5535618812243,151.36812303587953L136.8015405044953,151.41457435759128L137.2282424598535,151.35925585308811L137.46505087486904,151.35643200563175L137.86494433041415,151.25955350510932L138.31175266063212,151.21329412336695L138.54856107564765,151.22449927551895L138.78536949066321,151.22768584883647L139.02217790567875,151.22787268519966L139.2589863206943,151.2286185513464L139.49579473570984,151.2449929908113L139.7437733589808,151.25154639089726L139.98058177399636,151.18718022825573L140.21962423066296,151.18491141645637L140.45643264567852,151.19383118858045L140.7044112689495,151.19395012479265L140.94121968396507,151.20268010194127L141.17802809898058,151.21558793543977L141.4148365139961,151.21558394131324L141.65164492901167,151.21558394131324L141.8884533440272,151.2250463229229L142.12526175904273,151.2249615586821L142.3620701740583,151.23564200095265L142.59887858907382,151.23564200095265L142.83568700408938,151.2355965862547L143.07249541910488,151.25464309636783L143.3093038341204,151.2547141030617L143.54611224913597,151.25488585050246L143.7829206641515,151.25735496035077L144.01972907916706,151.25760496308538L144.2565374941826,151.27310402315257L144.49334590919813,151.27792678300634L144.7301543242137,151.28130670163398L144.9669627392292,151.28350051261296L145.20377115424472,151.28578500505725L145.44281361091137,151.30133924324278L145.681856067578,151.30151602032436L145.91866448259353,151.303078833277L146.1554728976091,151.31322975792114L146.3945153542757,151.3159385153612L146.6424939775467,151.31621344440399L146.89047260081767,151.3164400741019L147.13845122408867,151.3250958640485L147.3752596391042,151.32825388675784L147.6232382623752,151.3905139612734L147.86004667739076,151.39050242268567L148.0968550924063,151.39041921171628L148.3336635074218,151.39031218391835L148.57047192243735,151.43610351320376L148.80728033745288,151.4434835495507L149.04408875246844,151.44464798536467L149.28089716748397,151.46937421736808L149.5177055824995,151.47222173372242L149.75451399751506,151.47222173372242L149.9913224125306,151.49561577659762L150.2281308275461,151.56987368945073L150.46493924256166,151.6247254728724L150.7039816992283,151.62816360219594L150.95196032249927,151.62816360219594L151.1887687375148,151.62816360219594L151.42557715253037,152.1081644147581L151.6623855675459,152.1081644147581L151.89919398256143,152.1115208124184L152.13600239757696,152.11403836954221L152.38398102084795,152.11484252035018" fill="none"></path></g></g></g></g></g></g><g transform="translate(61, 177)" clip-path="url(#clip_1)"><clipPath id="clip_1"><rect width="268" height="22"></rect></clipPath><g><g><line x1="0" y1="0" x2="0" y2="5" style="visibility: inherit;" fill="rgb(0, 0, 0)" stroke="rgb(204, 204, 204)" stroke-width="1px"></line><line x1="22.34041651089986" y1="0" x2="22.34041651089986" y2="5" style="visibility: inherit;" fill="rgb(0, 0, 0)" stroke="rgb(204, 204, 204)" stroke-width="1px"></line><line x1="44.68083302179972" y1="0" x2="44.68083302179972" y2="5" style="visibility: inherit;" fill="rgb(0, 0, 0)" stroke="rgb(204, 204, 204)" stroke-width="1px"></line><line x1="67.02124953269958" y1="0" x2="67.02124953269958" y2="5" style="visibility: inherit;" fill="rgb(0, 0, 0)" stroke="rgb(204, 204, 204)" stroke-width="1px"></line><line x1="89.36166604359944" y1="0" x2="89.36166604359944" y2="5" style="visibility: inherit;" fill="rgb(0, 0, 0)" stroke="rgb(204, 204, 204)" stroke-width="1px"></line><line x1="111.70208255449931" y1="0" x2="111.70208255449931" y2="5" style="visibility: inherit;" fill="rgb(0, 0, 0)" stroke="rgb(204, 204, 204)" stroke-width="1px"></line><line x1="134.04249906539917" y1="0" x2="134.04249906539917" y2="5" style="visibility: inherit;" fill="rgb(0, 0, 0)" stroke="rgb(204, 204, 204)" stroke-width="1px"></line><line x1="156.38291557629904" y1="0" x2="156.38291557629904" y2="5" style="visibility: inherit;" fill="rgb(0, 0, 0)" stroke="rgb(204, 204, 204)" stroke-width="1px"></line><line x1="178.72333208719888" y1="0" x2="178.72333208719888" y2="5" style="visibility: inherit;" fill="rgb(0, 0, 0)" stroke="rgb(204, 204, 204)" stroke-width="1px"></line><line x1="201.06374859809875" y1="0" x2="201.06374859809875" y2="5" style="visibility: inherit;" fill="rgb(0, 0, 0)" stroke="rgb(204, 204, 204)" stroke-width="1px"></line><line x1="223.40416510899863" y1="0" x2="223.40416510899863" y2="5" style="visibility: inherit;" fill="rgb(0, 0, 0)" stroke="rgb(204, 204, 204)" stroke-width="1px"></line><line x1="245.74458161989847" y1="0" x2="245.74458161989847" y2="5" style="visibility: inherit;" fill="rgb(0, 0, 0)" stroke="rgb(204, 204, 204)" stroke-width="1px"></line><line x1="268.08499813079834" y1="0" x2="268.08499813079834" y2="5" style="visibility: inherit;" fill="rgb(0, 0, 0)" stroke="rgb(204, 204, 204)" stroke-width="1px"></line></g><g transform="translate(0, 8)"><text style="text-anchor: middle; visibility: hidden; font-family: Roboto, sans-serif; font-size: 12px; font-weight: 200;" x="0" y="0" dx="0em" dy="0.95em" fill="rgb(50, 49, 63)" stroke="none" stroke-width="1px">20k</text><text style="text-anchor: middle; visibility: inherit; font-family: Roboto, sans-serif; font-size: 12px; font-weight: 200;" x="22.34041651089986" y="0" dx="0em" dy="0.95em" fill="rgb(50, 49, 63)" stroke="none" stroke-width="1px">30k</text><text style="text-anchor: middle; visibility: hidden; font-family: Roboto, sans-serif; font-size: 12px; font-weight: 200;" x="44.68083302179972" y="0" dx="0em" dy="0.95em" fill="rgb(50, 49, 63)" stroke="none" stroke-width="1px">40k</text><text style="text-anchor: middle; visibility: inherit; font-family: Roboto, sans-serif; font-size: 12px; font-weight: 200;" x="67.02124953269958" y="0" dx="0em" dy="0.95em" fill="rgb(50, 49, 63)" stroke="none" stroke-width="1px">50k</text><text style="text-anchor: middle; visibility: hidden; font-family: Roboto, sans-serif; font-size: 12px; font-weight: 200;" x="89.36166604359944" y="0" dx="0em" dy="0.95em" fill="rgb(50, 49, 63)" stroke="none" stroke-width="1px">60k</text><text style="text-anchor: middle; visibility: inherit; font-family: Roboto, sans-serif; font-size: 12px; font-weight: 200;" x="111.70208255449931" y="0" dx="0em" dy="0.95em" fill="rgb(50, 49, 63)" stroke="none" stroke-width="1px">70k</text><text style="text-anchor: middle; visibility: hidden; font-family: Roboto, sans-serif; font-size: 12px; font-weight: 200;" x="134.04249906539917" y="0" dx="0em" dy="0.95em" fill="rgb(50, 49, 63)" stroke="none" stroke-width="1px">80k</text><text style="text-anchor: middle; visibility: inherit; font-family: Roboto, sans-serif; font-size: 12px; font-weight: 200;" x="156.38291557629904" y="0" dx="0em" dy="0.95em" fill="rgb(50, 49, 63)" stroke="none" stroke-width="1px">90k</text><text style="text-anchor: middle; visibility: hidden; font-family: Roboto, sans-serif; font-size: 12px; font-weight: 200;" x="178.72333208719888" y="0" dx="0em" dy="0.95em" fill="rgb(50, 49, 63)" stroke="none" stroke-width="1px">100k</text><text style="text-anchor: middle; visibility: inherit; font-family: Roboto, sans-serif; font-size: 12px; font-weight: 200;" x="201.06374859809875" y="0" dx="0em" dy="0.95em" fill="rgb(50, 49, 63)" stroke="none" stroke-width="1px">110k</text><text style="text-anchor: middle; visibility: hidden; font-family: Roboto, sans-serif; font-size: 12px; font-weight: 200;" x="223.40416510899863" y="0" dx="0em" dy="0.95em" fill="rgb(50, 49, 63)" stroke="none" stroke-width="1px">120k</text><text style="text-anchor: middle; visibility: inherit; font-family: Roboto, sans-serif; font-size: 12px; font-weight: 200;" x="245.74458161989847" y="0" dx="0em" dy="0.95em" fill="rgb(50, 49, 63)" stroke="none" stroke-width="1px">130k</text><text style="text-anchor: middle; visibility: hidden; font-family: Roboto, sans-serif; font-size: 12px; font-weight: 200;" x="268.08499813079834" y="0" dx="0em" dy="0.95em" fill="rgb(50, 49, 63)" stroke="none" stroke-width="1px">140k</text></g><line x1="0" y1="0" x2="268.08499813079834" y2="0" fill="rgb(0, 0, 0)" stroke="rgb(204, 204, 204)" stroke-width="1px"></line></g></g></g></g></svg>