<svg viewBox="0 0 330 200" xmlns="http://www.w3.org/2000/svg"><g><g><g><g><g><line x1="61.91500186920166" y1="177.89999961853027" x2="56.91500186920166" y2="177.89999961853027" style="visibility: inherit;" fill="rgb(0, 0, 0)" stroke="rgb(204, 204, 204)" stroke-width="1px"></line><line x1="61.91500186920166" y1="158.13333299424912" x2="56.91500186920166" y2="158.13333299424912" style="visibility: inherit;" fill="rgb(0, 0, 0)" stroke="rgb(204, 204, 204)" stroke-width="1px"></line><line x1="61.91500186920166" y1="138.366666369968" x2="56.91500186920166" y2="138.366666369968" style="visibility: inherit;" fill="rgb(0, 0, 0)" stroke="rgb(204, 204, 204)" stroke-width="1px"></line><line x1="61.91500186920166" y1="118.59999974568686" x2="56.91500186920166" y2="118.59999974568686" style="visibility: inherit;" fill="rgb(0, 0, 0)" stroke="rgb(204, 204, 204)" stroke-width="1px"></line><line x1="61.91500186920166" y1="98.83333312140572" x2="56.91500186920166" y2="98.83333312140572" style="visibility: inherit;" fill="rgb(0, 0, 0)" stroke="rgb(204, 204, 204)" stroke-width="1px"></line><line x1="61.91500186920166" y1="79.06666649712456" x2="56.91500186920166" y2="79.06666649712456" style="visibility: inherit;" fill="rgb(0, 0, 0)" stroke="rgb(204, 204, 204)" stroke-width="1px"></line><line x1="61.91500186920166" y1="59.29999987284341" x2="56.91500186920166" y2="59.29999987284341" style="visibility: inherit;" fill="rgb(0, 0, 0)" stroke="rgb(204, 204, 204)" stroke-width="1px"></line><line x1="61.91500186920166" y1="39.5333332485623" x2="56.91500186920166" y2="39.5333332485623" style="visibility: inherit;" fill="rgb(0, 0, 0)" stroke="rgb(204, 204, 204)" stroke-width="1px"></line><line x1="61.91500186920166" y1="19.76666662428113" x2="56.91500186920166" y2="19.76666662428113" style="visibility: inherit;" fill="rgb(0, 0, 0)" stroke="rgb(204, 204, 204)" stroke-width="1px"></line><line x1="61.91500186920166" y1="0" x2="56.91500186920166" y2="0" style="visibility: inherit;" fill="rgb(0, 0, 0)" stroke="rgb(204, 204, 204)" stroke-width="1px"></line></g><g transform="translate(51.91500186920166, 0)"><text style="text-anchor: end; visibility: hidden; font-family: Roboto, sans-serif; font-size: 12px; font-weight: 200;" x="0" y="177.89999961853027" dx="0em" dy="0.3em" fill="rgb(50, 49, 63)" stroke="none" stroke-width="1px">-0.02</text><text style="text-anchor: end; visibility: inherit; font-family: Roboto, sans-serif; font-size: 12px; font-weight: 200;" x="0" y="158.13333299424912" dx="0em" dy="0.3em" fill="rgb(50, 49, 63)" stroke="none" stroke-width="1px">0</text><text style="text-anchor: end; visibility: hidden; font-family: Roboto, sans-serif; font-size: 12px; font-weight: 200;" x="0" y="138.366666369968" dx="0em" dy="0.3em" fill="rgb(50, 49, 63)" stroke="none" stroke-width="1px">0.02</text><text style="text-anchor: end; visibility: inherit; font-family: Roboto, sans-serif; font-size: 12px; font-weight: 200;" x="0" y="118.59999974568686" dx="0em" dy="0.3em" fill="rgb(50, 49, 63)" stroke="none" stroke-width="1px">0.04</text><text style="text-anchor: end; visibility: hidden; font-family: Roboto, sans-serif; font-size: 12px; font-weight: 200;" x="0" y="98.83333312140572" dx="0em" dy="0.3em" fill="rgb(50, 49, 63)" stroke="none" stroke-width="1px">0.06</text><text style="text-anchor: end; visibility: inherit; font-family: Roboto, sans-serif; font-size: 12px; font-weight: 200;" x="0" y="79.06666649712456" dx="0em" dy="0.3em" fill="rgb(50, 49, 63)" stroke="none" stroke-width="1px">0.08</text><text style="text-anchor: end; visibility: hidden; font-family: Roboto, sans-serif; font-size: 12px; font-weight: 200;" x="0" y="59.29999987284341" dx="0em" dy="0.3em" fill="rgb(50, 49, 63)" stroke="none" stroke-width="1px">0.1</text><text style="text-anchor: end; visibility: inherit; font-family: Roboto, sans-serif; font-size: 12px; font-weight: 200;" x="0" y="39.5333332485623" dx="0em" dy="0.3em" fill="rgb(50, 49, 63)" stroke="none" stroke-width="1px">0.12</text><text style="text-anchor: end; visibility: hidden; font-family: Roboto, sans-serif; font-size: 12px; font-weight: 200;" x="0" y="19.76666662428113" dx="0em" dy="0.3em" fill="rgb(50, 49, 63)" stroke="none" stroke-width="1px">0.14</text><text style="text-anchor: end; visibility: hidden; font-family: Roboto, sans-serif; font-size: 12px; font-weight: 200;" x="0" y="0" dx="0em" dy="0.3em" fill="rgb(50, 49, 63)" stroke="none" stroke-width="1px">0.16</text></g><line x1="61.91500186920166" y1="0" x2="61.91500186920166" y2="177.89999961853027" fill="rgb(0, 0, 0)" stroke="rgb(204, 204, 204)" stroke-width="1px"></line></g></g><g transform="translate(61, 0)" clip-path="url(#clip_0)"><clipPath id="clip_0"><rect width="268" height="177"></rect></clipPath><g><g><g><line x1="0" y1="0" x2="0" y2="177.89999961853027" fill="rgb(0, 0, 0)" stroke="rgb(60, 60, 60)" stroke-width="1px" opacity="0.25"></line><line x1="22.34041651089986" y1="0" x2="22.34041651089986" y2="177.89999961853027" fill="rgb(0, 0, 0)" stroke="rgb(60, 60, 60)" stroke-width="1px" opacity="0.25"></line><line x1="44.68083302179972" y1="0" x2="44.68083302179972" y2="177.89999961853027" fill="rgb(0, 0, 0)" stroke="rgb(60, 60, 60)" stroke-width="1px" opacity="0.25"></line><line x1="67.02124953269958" y1="0" x2="67.02124953269958" y2="177.89999961853027" fill="rgb(0, 0, 0)" stroke="rgb(60, 60, 60)" stroke-width="1px" opacity="0.25"></line><line x1="89.36166604359944" y1="0" x2="89.36166604359944" y2="177.89999961853027" fill="rgb(0, 0, 0)" stroke="rgb(60, 60, 60)" stroke-width="1px" opacity="0.25"></line><line x1="111.70208255449931" y1="0" x2="111.70208255449931" y2="177.89999961853027" fill="rgb(0, 0, 0)" stroke="rgb(60, 60, 60)" stroke-width="1px" opacity="0.25"></line><line x1="134.04249906539917" y1="0" x2="134.04249906539917" y2="177.89999961853027" fill="rgb(0, 0, 0)" stroke="rgb(60, 60, 60)" stroke-width="1px" opacity="0.25"></line><line x1="156.38291557629904" y1="0" x2="156.38291557629904" y2="177.89999961853027" fill="rgb(0, 0, 0)" stroke="rgb(60, 60, 60)" stroke-width="1px" opacity="0.25"></line><line x1="178.72333208719888" y1="0" x2="178.72333208719888" y2="177.89999961853027" fill="rgb(0, 0, 0)" stroke="rgb(60, 60, 60)" stroke-width="1px" opacity="0.25"></line><line x1="201.06374859809875" y1="0" x2="201.06374859809875" y2="177.89999961853027" fill="rgb(0, 0, 0)" stroke="rgb(60, 60, 60)" stroke-width="1px" opacity="0.25"></line><line x1="223.40416510899863" y1="0" x2="223.40416510899863" y2="177.89999961853027" fill="rgb(0, 0, 0)" stroke="rgb(60, 60, 60)" stroke-width="1px" opacity="0.25"></line><line x1="245.74458161989847" y1="0" x2="245.74458161989847" y2="177.89999961853027" fill="rgb(0, 0, 0)" stroke="rgb(60, 60, 60)" stroke-width="1px" opacity="0.25"></line><line x1="268.08499813079834" y1="0" x2="268.08499813079834" y2="177.89999961853027" fill="rgb(0, 0, 0)" stroke="rgb(60, 60, 60)" stroke-width="1px" opacity="0.25"></line></g><g><line x1="0" y1="177.89999961853027" x2="268.08499813079834" y2="177.89999961853027" fill="rgb(0, 0, 0)" stroke="rgb(60, 60, 60)" stroke-width="1px" opacity="0.25"></line><line x1="0" y1="158.13333299424912" x2="268.08499813079834" y2="158.13333299424912" fill="rgb(0, 0, 0)" stroke="rgb(60, 60, 60)" stroke-width="1px" opacity="0.25"></line><line x1="0" y1="138.366666369968" x2="268.08499813079834" y2="138.366666369968" fill="rgb(0, 0, 0)" stroke="rgb(60, 60, 60)" stroke-width="1px" opacity="0.25"></line><line x1="0" y1="118.59999974568686" x2="268.08499813079834" y2="118.59999974568686" fill="rgb(0, 0, 0)" stroke="rgb(60, 60, 60)" stroke-width="1px" opacity="0.25"></line><line x1="0" y1="98.83333312140572" x2="268.08499813079834" y2="98.83333312140572" fill="rgb(0, 0, 0)" stroke="rgb(60, 60, 60)" stroke-width="1px" opacity="0.25"></line><line x1="0" y1="79.06666649712456" x2="268.08499813079834" y2="79.06666649712456" fill="rgb(0, 0, 0)" stroke="rgb(60, 60, 60)" stroke-width="1px" opacity="0.25"></line><line x1="0" y1="59.29999987284341" x2="268.08499813079834" y2="59.29999987284341" fill="rgb(0, 0, 0)" stroke="rgb(60, 60, 60)" stroke-width="1px" opacity="0.25"></line><line x1="0" y1="39.5333332485623" x2="268.08499813079834" y2="39.5333332485623" fill="rgb(0, 0, 0)" stroke="rgb(60, 60, 60)" stroke-width="1px" opacity="0.25"></line><line x1="0" y1="19.76666662428113" x2="268.08499813079834" y2="19.76666662428113" fill="rgb(0, 0, 0)" stroke="rgb(60, 60, 60)" stroke-width="1px" opacity="0.25"></line><line x1="0" y1="0" x2="268.08499813079834" y2="0" fill="rgb(0, 0, 0)" stroke="rgb(60, 60, 60)" stroke-width="1px" opacity="0.25"></line></g></g></g><g><g><line x1="0" y1="158.13333299424912" x2="268.08499813079834" y2="158.13333299424912" fill="rgb(0, 0, 0)" stroke="rgb(153, 153, 153)" stroke-width="1.5px"></line></g></g><g><g><line x1="-44.68083302179972" y1="0" x2="-44.68083302179972" y2="177.89999961853027" fill="rgb(0, 0, 0)" stroke="rgb(153, 153, 153)" stroke-width="1.5px"></line></g></g><g><g><g><g><g><path style="fill: none;" stroke="rgb(204, 51, 17)" stroke-width="2px" d="M153.48983163813747,158.13333299424912L154.85483108695348,158.13095131251623L156.20866032751402,158.13022222627148L157.56248956807454,158.12990057057527L158.91631880863508,158.12973650608066L160.2701480491956,158.12964663186773L161.62397728975614,158.1295954682576L162.97780653031666,158.12956570239294L164.3316357708772,158.12954816610096L165.68546501143774,158.1295377581181L167.03929425199826,158.1295315537522L168.3931234925588,158.12952784557L169.74695273311931,158.1295256258335L171.10078197367986,158.12952429584846L172.4546112142404,158.1295234985248L173.80844045480092,158.12952302037058L175.17343990361692,158.12952273356441L176.52726914417744,158.12952256151178L177.88109838473798,158.12952245829138L179.2371616669496,158.12952239636317L180.5909909075101,158.1295223592077L181.94482014807065,158.12952233691493L183.2986493886312,158.12952232353945L184.66364883744717,158.12952231551424L186.0174780780077,158.12952231069914L187.37354136021932,158.12952230781008L188.7385408090353,158.12952230607667L190.09237004959584,158.1295223050366L191.44619929015636,158.12952230441257L192.8000285307169,158.12952230403815L194.15385777127742,158.1295223038135L195.5188572200934,158.1295223036787L196.87268646065394,158.12952230359784L198.23768590946992,158.1295223035493L199.59151515003046,158.1295223035202L200.94534439059098,158.1295223035027L202.29917363115152,158.12952230349225L203.6641730799675,158.12952230348594L205.01800232052804,158.12952230348216L206.37183156108858,158.1295223034799L207.7256608016491,158.12952230347855L209.09066025046508,158.12952230347776L210.45565969928106,158.12952230347724L211.8094889398416,158.12952230347696L213.16331818040211,158.1295223034768L214.51714742096266,158.12952230347668L215.8709766615232,158.12952230347662L217.23597611033915,158.1295223034766L218.5898053508997,158.12952230347653L219.9436345914602,158.12952230347653L221.30863404027622,158.12952230347653L222.66246328083673,158.12952230347653L224.01629252139728,158.12952230347653L225.37012176195782,157.90219493121955L226.72395100251833,157.76579850786553L228.07778024307888,157.68396065385315L229.4316094836394,157.63485794144577L230.78543872419993,157.60539631400133L232.13926796476045,157.58771933753468L233.493097205321,157.5771131516547L234.84916048753263,157.5707494401267L236.2141599363486,157.5669312132099L237.56798917690912,157.56464027705982L238.92181841746967,157.56326571536977L240.27564765803018,157.56244097835574L241.62947689859072,157.56194613614733L242.98330613915124,157.56164923082227L244.33936942136287,157.56147108762724L245.69319866192342,157.56136420171023L247.04702790248396,157.56130007016L248.4120273512999,157.56126159122988" fill="none"></path></g><g><path style="fill: none;" stroke="rgb(255, 112, 67)" stroke-width="2px" d="M7.139997116883595,32.27288041347115L7.787869195699692,32.27288041347111L8.172124359687169,32.27288041347111L8.408932774702707,32.27288041347115L8.969677229126294,32.27288041347115L9.434357892553013,32.27288041347115L10.147017179250717,32.27288041347115L10.792655216415723,32.27288041347115L11.02946363143126,32.27288041347115L11.684037835200629,32.27288041347115L11.920846250216167,32.27288041347115L12.157654665231705,32.27288041347115L12.499463037848473,32.27288041347115L12.8502075770696,32.27288041347111L13.087015992085139,32.27288041347111L14.161590026259422,32.27288041347111L14.82286635498206,32.27288041347111L15.059674769997597,32.27288041347115L16.19233388710022,32.27288041347115L16.697227300246556,32.27288041347111L17.249035588065784,32.27288041347115L17.617652460495634,32.27288041347111L18.169460748314858,32.27288041347115L18.406269163330396,32.27288041347111L18.643077578345935,32.27288041347115L18.879885993361473,32.27288041347115L19.266375199000038,32.27288041347111L19.6104176132679,32.27288041347115L20.151055692831676,32.27288041347115L20.633608689467113,32.272880413471164L20.87041710448265,32.272880413471164L21.10722551949819,32.27288041347115L21.50265089174112,32.272880413471164L21.855629472613334,32.27288041347115L22.092437887628872,32.27288041347115L22.49009730152289,32.27288041347115L22.9123311735789,32.27288041347115L23.321160795728364,32.27288041347115L23.557969210743902,32.27288041347111L24.036054124077165,32.27288041347111L24.272862539092703,32.27288041347111L24.50967095410824,32.27288041347115L25.17764940778414,32.27288041347111L25.73169173725446,32.27288041347115L26.124883067846298,32.27288041347115L26.361691482861836,32.272880413471164L26.598499897877375,32.27288041347115L26.835308312892913,32.27288041347115L27.083286936163905,32.27288041347115L27.320095351179443,32.27288041347111L27.55690376619498,32.27288041347111L28.030520596226058,32.27288041347115L28.55998846753438,32.27288041347111L28.79679688254992,32.27288041347115L29.13860525516669,32.27288041347115L29.48041362778346,32.27288041347115L29.717222042798998,32.27288041347115L30.0724346653223,32.27288041347111L31.189455490867296,32.27288041347111L31.540200030088425,32.27288041347115L31.788178653359413,32.27288041347115L32.024987068374955,32.27288041347115L32.36902948264281,32.27288041347115L32.60583789765835,32.27288041347111L33.0839228109916,32.27288041347111L33.32073122600714,32.27288041347111L33.557539641022686,32.27288041347115L34.397539301832516,32.27288041347115L34.63434771684806,32.27288041347115L34.873390173514686,32.27288041347111L35.22190067108472,32.27288041347111L35.458709086100264,32.27288041347111L35.811687666972475,32.27288041347111L36.178070497751236,32.27288041347115L36.51764482871692,32.27288041347115L37.22136794881026,32.27288041347115L37.64583586251736,32.27288041347115L37.8826442775329,32.27288041347115L38.119452692548435,32.27288041347115L38.356261107563974,32.27288041347115L38.76509072971344,32.27288041347115L39.10689910233021,32.27288041347115L39.34370751734574,32.27288041347115L39.58051593236129,32.27288041347115L39.81732434737682,32.27288041347115L40.05413276239236,32.27288041347115L40.290941177407895,32.27288041347115L40.75338779918353,32.27288041347115L41.68721720933914,32.27288041347115L41.924025624354684,32.27288041347115L42.527216870148976,32.27288041347115L42.94498265890281,32.27288041347115L43.18179107391834,32.27288041347115L43.52136540488402,32.27288041347115L44.48870543980598,32.27288041347115L44.88859889535109,32.27288041347115L45.424768891612686,32.27288041347115L45.66157730662823,32.27288041347115L45.89838572164376,32.27288041347115L46.90817254793644,32.27288041347115L47.26785325376193,49.90816770024342L47.69455520912012,60.489340072306774L48.19944862226645,66.8380434955448L48.43625703728199,70.64726554948761L48.775831368247665,72.9327987818533L49.11540569921335,74.30411872127272L49.35221411422888,75.12691068492437L49.72083098665873,75.62058586311535L49.957639401674264,75.91679097002994L50.19444781668981,76.09451403417869L50.616681688745814,76.20114787266796L50.85349010376136,76.2651281757615L51.19753251802921,76.30351635761762L51.4455111413002,76.3265492667313L51.68231955631574,76.3403690121995L51.91912797133128,86.77422678521391L52.475404342452684,93.03454144902258L52.71221275746822,96.79073024730778L53.167957254290585,99.04444352627891L53.404765669306116,100.39667149366156L53.64157408432166,101.20800827409117L53.88955270759265,101.69481034234893L54.240297246813775,101.98689158330359L54.655828993916515,102.1621403278764L54.997637366533276,102.26728957462007L55.23444578154882,102.33037912266627L55.47125419656436,102.368232851494L55.82423277743657,102.39094508879062L56.22412623298168,111.04303915080962L56.47210485625267,116.23429558802101L56.70891327126821,119.34904945034788L57.30763643376032,121.21790176774397L57.54444484877587,122.33921315818164L57.93763617936771,123.01199999244422L58.17444459438324,123.41567209300179L58.6726358825763,123.65787535333632L59.012210213541984,123.80319730953704L59.41880579404036,123.89039048325748L59.6556142090559,123.94270638748972L59.892422624071436,123.97409593002908L60.35486924584706,123.99292965555269L60.69891166011492,124.00422989086687L60.94689028338591,124.01101003205538L61.68188998659452,106.66468041565518L61.91869840161005,96.25688264581504L62.30071952394644,90.01220398391096L62.85699589506785,86.2653967867685L63.20103830933571,84.01731246848306L63.56295305681229,82.66846187751177L63.913697596033415,81.859151522929L64.62859092438221,81.37356531017934L64.98603758855661,81.08221358252953L65.86178191578388,80.90740254593966L66.09859033079942,80.80251592398572L66.70848370154698,80.73958395081338L66.94529211656253,80.70182476690998L67.18210053157806,80.67916925656792L67.4189089465936,80.6655759503627L67.77188752746582,80.65741996663957L68.1114618584315,80.65252637640566L68.34827027344704,80.64959022226535L68.58507868846259,80.64782852978117L68.8218871034781,80.64677151429063L69.05869551849365,80.64613730499633L69.48092939054966,80.64575677941974L69.71773780556519,80.64552846407379L70.09305680294833,80.64539147486622L70.46167367537815,80.64530928134167L70.6984820903937,80.64525996522693L70.93529050540924,80.64523037555809L71.18326912868024,80.6452126217568L71.42007754369577,80.64520196947602L71.85348162400723,80.64519557810755L72.09029003902278,80.64519174328646L72.32709845403829,80.64518944239383L72.56390686905384,80.64518806185824L72.81188549232483,80.64518723353689L73.28103423905372,80.64518673654406L73.70326811110972,80.64518643834838L73.95124673438072,80.64518625943097L74.29752319029967,80.64518615208053L74.54550181357067,80.64518608767025L74.88954422783851,80.64518604902409L75.12635264285406,80.6451860258364L75.47262909877301,80.64518601192377L75.72060772204398,80.6451860035762L76.48688400836785,80.64518599856765L76.7236924233834,80.64518599556254L76.9716710466544,80.64518599375947L77.20847946166991,80.64518599267763L77.5480537926356,80.6451859920285L77.78486220765114,80.64518599163905L78.1266705802679,80.64518599140536L78.47071299453577,80.64518599126517L78.70752140955129,80.64518599118102L78.94432982456684,80.64518599113055L79.28613819718362,80.64518599110026L80.06805277506511,80.64518599108212L80.30486119008064,80.64518599107122L80.73156314543883,80.64518599106465L80.96837156045437,80.64518599106074L81.2051799754699,80.64518599105837L81.56039259799321,80.64518599105698L81.79720101300875,80.64518599105612L82.03400942802429,80.64518599105561L82.61486025730768,80.64518599105531L82.85166867232323,80.64518599105511L83.32081741905213,80.645185991055L83.55762583406765,80.64518599105496L83.90390228998662,80.64518599105492L84.14071070500215,80.64518599105487L84.37751912001768,80.64518599105486L84.61432753503323,80.64518599105486L85.0901784067154,80.64518599105486L85.4654974040985,80.64518599105486L85.70230581911404,80.64518599105486L85.93911423412959,80.64518599105486L86.18709285740057,80.64518599105486L86.59145439624787,80.64518599105486L86.82826281126341,80.64518599105486L87.2326243501107,80.64518599105486L87.57443272272745,80.64518599105486L87.91624109534423,80.64518599105486L88.15304951035976,80.64518599105486L88.3898579253753,80.64518599105486L88.62666634039084,80.64518599105486L89.16507037830353,80.64518599105486L89.40187879331907,80.64518599105486L89.6386872083346,80.64518599105486L89.87549562335015,80.64518599105486L90.11230403836568,80.64518599105486L90.45411241098245,80.64518599105486L90.69092082599799,80.64518599105486L90.92772924101352,80.64518599105486L91.16453765602907,80.64518599105486L91.4013460710446,80.64518599105486L91.64038852771122,80.64518599105486L91.87719694272677,80.64518599105486L92.11400535774231,80.64518599105486L92.36198398101331,80.64518599105486L92.8959199356238,80.64518599105486L93.13272835063934,80.64518599105486L93.36953676565489,80.64518599105486L93.60857922232151,99.40375499271893L93.84538763733705,110.65889639371733L94.09336626060804,117.41198123431637L94.33017467562357,121.46383213867581L94.56698309063911,123.89494268129148L94.81496171391011,125.35360900686086L95.05177012892564,126.22880880220251L95.3980465848446,126.7539286794075L95.63485499986012,127.0690006057305L95.87166341487567,127.25804376152428L96.1084718298912,127.37146965500057L96.34528024490675,129.55002517331863L96.69602478412787,130.85715848430948L97.06240761490662,131.64143847090398L97.4042159875234,132.11200646286068L97.64102440253895,132.3943472580347L97.87783281755446,132.5637517351391L98.11464123257001,132.66539442140177L98.46091768848896,132.72638003315936L98.6977261035045,132.7629714002139L98.93453451852004,132.78492622044664L99.34783222397168,132.79809911258627L99.58464063898722,132.80600284787005L99.92421496995291,132.81074508904032L100.16102338496843,132.8135904337425L100.39783179998398,132.8152976405638L100.63464021499952,132.81632196465657L100.88261883827052,132.8169365591122L101.11942725328603,132.8173053157856L101.46793775085608,132.81752656978966L101.70474616587163,132.8176593221921L101.94155458088716,132.81773897363354L102.17836299590269,132.8177867644984L102.64080961767833,132.81781543901735L103.02059669836362,132.8178326437287L103.25740511337916,132.8178429665555L103.4942135283947,132.81784916025163L103.73102194341024,132.81785287646926L103.97900056668124,132.81785510619986L104.21580898169677,132.8178564440382L104.45485143836339,132.8178572467412L104.69165985337894,132.81785772836304L104.92846826839448,132.8178580173361L105.16527668341,132.81785819071996L105.40208509842554,132.8178582947503L105.65006372169654,132.81785835716846L105.88687213671209,132.81785839461935L106.1236805517276,132.81785841708992L106.36048896674315,132.81785843057224L106.5972973817587,132.81785843866163L106.99048871235053,132.8178584435153L107.22729712736607,132.81785844642746L107.4641055423816,132.81785844817477L107.70091395739715,132.81785844922317L107.94889258066813,132.8178584498522L108.19687120393912,132.8178584502296L108.43367961895466,132.81785845045604L108.67048803397019,132.81785845059193L108.90729644898573,132.81785845067344L109.14410486400128,132.81785845072238L109.38091327901681,132.81785845075171L109.61772169403235,132.8178584507693L109.85453010904789,132.81785845077988L110.19410444001358,132.81785845078622L110.4309128550291,132.81785845079003L110.66995531169573,132.8178584507923L110.90676372671128,132.81785845079366L111.14357214172682,132.8178584507945L111.38038055674235,132.81785845079497L111.61718897175788,132.81785845079528L111.86516759502888,132.81785845079546L112.10197601004442,132.81785845079557L112.33878442505996,132.81785845079565L112.57559284007549,132.81785845079568L112.81240125509103,132.8178584507957L113.06037987836203,132.8178584507957L113.30835850163301,132.8178584507957L113.54516691664854,132.8178584507957L113.78197533166409,132.8178584507957L114.01878374667963,132.8178584507957L114.25559216169516,132.8178584507957L114.4924005767107,132.8178584507957L114.74037919998169,132.8178584507957L114.97718761499723,132.8178584507957L115.21399603001277,132.8178584507957L115.4508044450283,132.8178584507957L115.68761286004384,132.8178584507957L116.02942123266061,132.8178584507957L116.26846368932723,132.8178584507957L116.73984647770723,132.8178584507957L116.97888893437386,132.8178584507957L117.21569734938939,132.8178584507957L117.55527168035508,132.8178584507957L117.79208009537061,132.8178584507957L118.0400587186416,132.8178584507957L118.27686713365713,132.8178584507957L118.51367554867268,132.8178584507957L118.7527180053393,141.0121002192901L119.0006966286103,145.9286452803867L119.23750504362583,148.87857231704464L119.48548366689681,150.64852853903943L119.73346229016781,151.71050227223628L119.97027070518335,152.3476865121544L120.20931316184998,152.72999705610528L120.44612157686551,152.9593833824758L120.68292999188105,153.09701517829814L120.9197384068966,153.17959425579153L121.15654682191213,153.22914170228754L121.39335523692766,153.25887017018516L121.6301636519432,153.27670725092375L121.86697206695875,153.28740949936687L122.10378048197428,153.29383084843278L122.35175910524526,153.29768365787228L122.58856752026081,153.299995343536L122.82760997692743,153.30138235493425L123.06665243359407,153.30221456177318L123.30346084860962,153.30271388587656L123.54026926362513,153.30301348033856L123.77707767864068,153.3031932370158L124.02505630191168,153.30330109102212L124.27303492518267,153.30336580342592L124.50984334019819,154.06936248981228L124.9097367957433,154.5289605016441L125.14654521075884,155.14299237116467L125.50175783328216,155.51141149287702L125.7385662482977,155.73246296590443L125.97537466331323,155.86509384972086L126.22335328658421,155.94467238001073L126.46016170159976,155.99241949818463L126.6969701166153,153.11544533539487L126.93377853163082,151.38926083772103L127.17058694664637,150.3535501391167L127.40739536166191,149.7321237199541L127.64420377667746,149.35926786845656L128.04856531552474,149.13555435755802L128.28537373054027,149.0013262510189L128.5221821455558,148.92078938709543L128.75899056057136,148.87246726874133L128.998033017238,148.8434739977289L129.41356476434072,148.8260780351214L129.65037317935625,148.81564045755695L129.88718159437178,148.80937791101823L130.12399000938734,148.80562038309503L130.36079842440287,148.8033658663411L130.59760683941843,148.80201315628875L130.83441525443394,148.80120153025734L131.0712236694495,148.8007145546385L131.30803208446503,148.80042236926718L131.54484049948059,148.8002470580444L131.7816489144961,148.80014187131073L132.01845732951165,148.80007875927052L132.25526574452718,148.80004089204638L132.49207415954274,148.8000181717119L132.72888257455824,148.80000453951124L132.9656909895738,148.79999636019082L133.20249940458933,148.7999914525986L133.4393078196049,148.7999885080432L133.68728644287586,148.79998674131002L133.9240948578914,148.7999856812701L134.16090327290695,148.79998504524616L134.39994572957355,148.7999846636318L134.6367541445891,148.79998443466314L134.87356255960464,148.79998429728198L135.1103709746202,148.79998421485328L135.34717938963573,148.79998416539604L135.58398780465126,148.7999841357217L135.82079621966682,148.79998411791712L136.06877484293778,148.79998410723437L136.31675346620875,148.7999841008247L136.5535618812243,148.7999840969789L136.8015405044953,148.79998409467143L137.2282424598535,148.79998409328695L137.46505087486904,148.79998409245624L137.86494433041415,148.79998409195784L138.31175266063212,148.79998409165879L138.54856107564765,148.79998409147936L138.78536949066321,148.7999840913717L139.02217790567875,148.7999840913071L139.2589863206943,148.79998409126836L139.49579473570984,148.7999840912451L139.7437733589808,148.79998409123112L139.98058177399636,148.79998409122277L140.21962423066296,148.79998409121774L140.45643264567852,148.79998409121475L140.7044112689495,148.79998409121293L140.94121968396507,148.79998409121183L141.17802809898058,148.79998409121117L141.4148365139961,148.7999840912108L141.65164492901167,148.79998409121058L141.8884533440272,148.79998409121043L142.12526175904273,148.79998409121035L142.3620701740583,148.7999840912103L142.59887858907382,148.79998409121026L142.83568700408938,148.79998409121023L143.07249541910488,148.79998409121023L143.3093038341204,148.7999840912102L143.54611224913597,148.7999840912102L143.7829206641515,148.7999840912102L144.01972907916706,148.7999840912102L144.2565374941826,148.7999840912102L144.49334590919813,148.7999840912102L144.7301543242137,148.7999840912102L144.9669627392292,148.7999840912102L145.20377115424472,148.7999840912102L145.44281361091137,148.7999840912102L145.681856067578,148.7999840912102L145.91866448259353,148.7999840912102L146.1554728976091,148.7999840912102L146.3945153542757,148.7999840912102L146.6424939775467,148.7999840912102L146.89047260081767,148.7999840912102L147.13845122408867,148.7999840912102L147.3752596391042,148.7999840912102L147.6232382623752,148.7999840912102L147.86004667739076,148.7999840912102L148.0968550924063,148.7999840912102L148.3336635074218,148.7999840912102L148.57047192243735,148.7999840912102L148.80728033745288,148.7999840912102L149.04408875246844,148.7999840912102L149.28089716748397,148.7999840912102L149.5177055824995,148.7999840912102L149.75451399751506,148.7999840912102L149.9913224125306,148.7999840912102L150.2281308275461,148.7999840912102L150.46493924256166,148.7999840912102L150.7039816992283,148.7999840912102L150.95196032249927,148.7999840912102L151.1887687375148,148.7999840912102L151.42557715253037,151.7798239968154L151.6623855675459,153.56772794017851L151.89919398256143,154.64047030619636L152.13600239757696,155.2841157258071L152.38398102084795,155.67030297757353" fill="none"></path></g></g></g></g><g opacity="0.2"><g><g><g><path style="fill: none;" stroke="rgb(204, 51, 17)" stroke-width="2px" d="M153.48983163813747,158.13333299424912L154.85483108695348,158.12952230347653L156.20866032751402,158.12952230347653L157.56248956807454,158.12952230347653L158.91631880863508,158.12952230347653L160.2701480491956,158.12952230347653L161.62397728975614,158.12952230347653L162.97780653031666,158.12952230347653L164.3316357708772,158.12952230347653L165.68546501143774,158.12952230347653L167.03929425199826,158.12952230347653L168.3931234925588,158.12952230347653L169.74695273311931,158.12952230347653L171.10078197367986,158.12952230347653L172.4546112142404,158.12952230347653L173.80844045480092,158.12952230347653L175.17343990361692,158.12952230347653L176.52726914417744,158.12952230347653L177.88109838473798,158.12952230347653L179.2371616669496,158.12952230347653L180.5909909075101,158.12952230347653L181.94482014807065,158.12952230347653L183.2986493886312,158.12952230347653L184.66364883744717,158.12952230347653L186.0174780780077,158.12952230347653L187.37354136021932,158.12952230347653L188.7385408090353,158.12952230347653L190.09237004959584,158.12952230347653L191.44619929015636,158.12952230347653L192.8000285307169,158.12952230347653L194.15385777127742,158.12952230347653L195.5188572200934,158.12952230347653L196.87268646065394,158.12952230347653L198.23768590946992,158.12952230347653L199.59151515003046,158.12952230347653L200.94534439059098,158.12952230347653L202.29917363115152,158.12952230347653L203.6641730799675,158.12952230347653L205.01800232052804,158.12952230347653L206.37183156108858,158.12952230347653L207.7256608016491,158.12952230347653L209.09066025046508,158.12952230347653L210.45565969928106,158.12952230347653L211.8094889398416,158.12952230347653L213.16331818040211,158.12952230347653L214.51714742096266,158.12952230347653L215.8709766615232,158.12952230347653L217.23597611033915,158.12952230347653L218.5898053508997,158.12952230347653L219.9436345914602,158.12952230347653L221.30863404027622,158.12952230347653L222.66246328083673,158.12952230347653L224.01629252139728,158.12952230347653L225.37012176195782,157.5612038728347L226.72395100251833,157.5612038728347L228.07778024307888,157.5612038728347L229.4316094836394,157.5612038728347L230.78543872419993,157.5612038728347L232.13926796476045,157.5612038728347L233.493097205321,157.5612038728347L234.84916048753263,157.5612038728347L236.2141599363486,157.5612038728347L237.56798917690912,157.5612038728347L238.92181841746967,157.5612038728347L240.27564765803018,157.5612038728347L241.62947689859072,157.5612038728347L242.98330613915124,157.5612038728347L244.33936942136287,157.5612038728347L245.69319866192342,157.5612038728347L247.04702790248396,157.5612038728347L248.4120273512999,157.5612038728347" fill="none"></path></g><g><path style="fill: none;" stroke="rgb(255, 112, 67)" stroke-width="2px" d="M7.139997116883595,32.27288041347115L7.787869195699692,32.27288041347115L8.172124359687169,32.27288041347115L8.408932774702707,32.27288041347115L8.969677229126294,32.27288041347115L9.434357892553013,32.27288041347115L10.147017179250717,32.27288041347115L10.792655216415723,32.27288041347115L11.02946363143126,32.27288041347115L11.684037835200629,32.27288041347115L11.920846250216167,32.27288041347115L12.157654665231705,32.27288041347115L12.499463037848473,32.27288041347115L12.8502075770696,32.27288041347115L13.087015992085139,32.27288041347115L14.161590026259422,32.27288041347115L14.82286635498206,32.27288041347115L15.059674769997597,32.27288041347115L16.19233388710022,32.27288041347115L16.697227300246556,32.27288041347115L17.249035588065784,32.27288041347115L17.617652460495634,32.27288041347115L18.169460748314858,32.27288041347115L18.406269163330396,32.27288041347115L18.643077578345935,32.27288041347115L18.879885993361473,32.27288041347115L19.266375199000038,32.27288041347115L19.6104176132679,32.27288041347115L20.151055692831676,32.27288041347115L20.633608689467113,32.27288041347115L20.87041710448265,32.27288041347115L21.10722551949819,32.27288041347115L21.50265089174112,32.27288041347115L21.855629472613334,32.27288041347115L22.092437887628872,32.27288041347115L22.49009730152289,32.27288041347115L22.9123311735789,32.27288041347115L23.321160795728364,32.27288041347115L23.557969210743902,32.27288041347115L24.036054124077165,32.27288041347115L24.272862539092703,32.27288041347115L24.50967095410824,32.27288041347115L25.17764940778414,32.27288041347115L25.73169173725446,32.27288041347115L26.124883067846298,32.27288041347115L26.361691482861836,32.27288041347115L26.598499897877375,32.27288041347115L26.835308312892913,32.27288041347115L27.083286936163905,32.27288041347115L27.320095351179443,32.27288041347115L27.55690376619498,32.27288041347115L28.030520596226058,32.27288041347115L28.55998846753438,32.27288041347115L28.79679688254992,32.27288041347115L29.13860525516669,32.27288041347115L29.48041362778346,32.27288041347115L29.717222042798998,32.27288041347115L30.0724346653223,32.27288041347115L31.189455490867296,32.27288041347115L31.540200030088425,32.27288041347115L31.788178653359413,32.27288041347115L32.024987068374955,32.27288041347115L32.36902948264281,32.27288041347115L32.60583789765835,32.27288041347115L33.0839228109916,32.27288041347115L33.32073122600714,32.27288041347115L33.557539641022686,32.27288041347115L34.397539301832516,32.27288041347115L34.63434771684806,32.27288041347115L34.873390173514686,32.27288041347115L35.22190067108472,32.27288041347115L35.458709086100264,32.27288041347115L35.811687666972475,32.27288041347115L36.178070497751236,32.27288041347115L36.51764482871692,32.27288041347115L37.22136794881026,32.27288041347115L37.64583586251736,32.27288041347115L37.8826442775329,32.27288041347115L38.119452692548435,32.27288041347115L38.356261107563974,32.27288041347115L38.76509072971344,32.27288041347115L39.10689910233021,32.27288041347115L39.34370751734574,32.27288041347115L39.58051593236129,32.27288041347115L39.81732434737682,32.27288041347115L40.05413276239236,32.27288041347115L40.290941177407895,32.27288041347115L40.75338779918353,32.27288041347115L41.68721720933914,32.27288041347115L41.924025624354684,32.27288041347115L42.527216870148976,32.27288041347115L42.94498265890281,32.27288041347115L43.18179107391834,32.27288041347115L43.52136540488402,32.27288041347115L44.48870543980598,32.27288041347115L44.88859889535109,32.27288041347115L45.424768891612686,32.27288041347115L45.66157730662823,32.27288041347115L45.89838572164376,32.27288041347115L46.90817254793644,32.27288041347115L47.26785325376193,76.36109863040183L47.69455520912012,76.36109863040183L48.19944862226645,76.36109863040183L48.43625703728199,76.36109863040183L48.775831368247665,76.36109863040183L49.11540569921335,76.36109863040183L49.35221411422888,76.36109863040183L49.72083098665873,76.36109863040183L49.957639401674264,76.36109863040183L50.19444781668981,76.36109863040183L50.616681688745814,76.36109863040183L50.85349010376136,76.36109863040183L51.19753251802921,76.36109863040183L51.4455111413002,76.36109863040183L51.68231955631574,76.36109863040183L51.91912797133128,102.42501344473557L52.475404342452684,102.42501344473557L52.71221275746822,102.42501344473557L53.167957254290585,102.42501344473557L53.404765669306116,102.42501344473557L53.64157408432166,102.42501344473557L53.88955270759265,102.42501344473557L54.240297246813775,102.42501344473557L54.655828993916515,102.42501344473557L54.997637366533276,102.42501344473557L55.23444578154882,102.42501344473557L55.47125419656436,102.42501344473557L55.82423277743657,102.42501344473557L56.22412623298168,124.02118024383812L56.47210485625267,124.02118024383812L56.70891327126821,124.02118024383812L57.30763643376032,124.02118024383812L57.54444484877587,124.02118024383812L57.93763617936771,124.02118024383812L58.17444459438324,124.02118024383812L58.6726358825763,124.02118024383812L59.012210213541984,124.02118024383812L59.41880579404036,124.02118024383812L59.6556142090559,124.02118024383812L59.892422624071436,124.02118024383812L60.35486924584706,124.02118024383812L60.69891166011492,124.02118024383812L60.94689028338591,124.02118024383812L61.68188998659452,80.64518599105483L61.91869840161005,80.64518599105483L62.30071952394644,80.64518599105483L62.85699589506785,80.64518599105483L63.20103830933571,80.64518599105483L63.56295305681229,80.64518599105483L63.913697596033415,80.64518599105483L64.62859092438221,80.64518599105483L64.98603758855661,80.64518599105483L65.86178191578388,80.64518599105483L66.09859033079942,80.64518599105483L66.70848370154698,80.64518599105483L66.94529211656253,80.64518599105483L67.18210053157806,80.64518599105483L67.4189089465936,80.64518599105483L67.77188752746582,80.64518599105483L68.1114618584315,80.64518599105483L68.34827027344704,80.64518599105483L68.58507868846259,80.64518599105483L68.8218871034781,80.64518599105483L69.05869551849365,80.64518599105483L69.48092939054966,80.64518599105483L69.71773780556519,80.64518599105483L70.09305680294833,80.64518599105483L70.46167367537815,80.64518599105483L70.6984820903937,80.64518599105483L70.93529050540924,80.64518599105483L71.18326912868024,80.64518599105483L71.42007754369577,80.64518599105483L71.85348162400723,80.64518599105483L72.09029003902278,80.64518599105483L72.32709845403829,80.64518599105483L72.56390686905384,80.64518599105483L72.81188549232483,80.64518599105483L73.28103423905372,80.64518599105483L73.70326811110972,80.64518599105483L73.95124673438072,80.64518599105483L74.29752319029967,80.64518599105483L74.54550181357067,80.64518599105483L74.88954422783851,80.64518599105483L75.12635264285406,80.64518599105483L75.47262909877301,80.64518599105483L75.72060772204398,80.64518599105483L76.48688400836785,80.64518599105483L76.7236924233834,80.64518599105483L76.9716710466544,80.64518599105483L77.20847946166991,80.64518599105483L77.5480537926356,80.64518599105483L77.78486220765114,80.64518599105483L78.1266705802679,80.64518599105483L78.47071299453577,80.64518599105483L78.70752140955129,80.64518599105483L78.94432982456684,80.64518599105483L79.28613819718362,80.64518599105483L80.06805277506511,80.64518599105483L80.30486119008064,80.64518599105483L80.73156314543883,80.64518599105483L80.96837156045437,80.64518599105483L81.2051799754699,80.64518599105483L81.56039259799321,80.64518599105483L81.79720101300875,80.64518599105483L82.03400942802429,80.64518599105483L82.61486025730768,80.64518599105483L82.85166867232323,80.64518599105483L83.32081741905213,80.64518599105483L83.55762583406765,80.64518599105483L83.90390228998662,80.64518599105483L84.14071070500215,80.64518599105483L84.37751912001768,80.64518599105483L84.61432753503323,80.64518599105483L85.0901784067154,80.64518599105483L85.4654974040985,80.64518599105483L85.70230581911404,80.64518599105483L85.93911423412959,80.64518599105483L86.18709285740057,80.64518599105483L86.59145439624787,80.64518599105483L86.82826281126341,80.64518599105483L87.2326243501107,80.64518599105483L87.57443272272745,80.64518599105483L87.91624109534423,80.64518599105483L88.15304951035976,80.64518599105483L88.3898579253753,80.64518599105483L88.62666634039084,80.64518599105483L89.16507037830353,80.64518599105483L89.40187879331907,80.64518599105483L89.6386872083346,80.64518599105483L89.87549562335015,80.64518599105483L90.11230403836568,80.64518599105483L90.45411241098245,80.64518599105483L90.69092082599799,80.64518599105483L90.92772924101352,80.64518599105483L91.16453765602907,80.64518599105483L91.4013460710446,80.64518599105483L91.64038852771122,80.64518599105483L91.87719694272677,80.64518599105483L92.11400535774231,80.64518599105483L92.36198398101331,80.64518599105483L92.8959199356238,80.64518599105483L93.13272835063934,80.64518599105483L93.36953676565489,80.64518599105483L93.60857922232151,127.54160849521497L93.84538763733705,127.54160849521497L94.09336626060804,127.54160849521497L94.33017467562357,127.54160849521497L94.56698309063911,127.54160849521497L94.81496171391011,127.54160849521497L95.05177012892564,127.54160849521497L95.3980465848446,127.54160849521497L95.63485499986012,127.54160849521497L95.87166341487567,127.54160849521497L96.1084718298912,127.54160849521497L96.34528024490675,132.8178584507957L96.69602478412787,132.8178584507957L97.06240761490662,132.8178584507957L97.4042159875234,132.8178584507957L97.64102440253895,132.8178584507957L97.87783281755446,132.8178584507957L98.11464123257001,132.8178584507957L98.46091768848896,132.8178584507957L98.6977261035045,132.8178584507957L98.93453451852004,132.8178584507957L99.34783222397168,132.8178584507957L99.58464063898722,132.8178584507957L99.92421496995291,132.8178584507957L100.16102338496843,132.8178584507957L100.39783179998398,132.8178584507957L100.63464021499952,132.8178584507957L100.88261883827052,132.8178584507957L101.11942725328603,132.8178584507957L101.46793775085608,132.8178584507957L101.70474616587163,132.8178584507957L101.94155458088716,132.8178584507957L102.17836299590269,132.8178584507957L102.64080961767833,132.8178584507957L103.02059669836362,132.8178584507957L103.25740511337916,132.8178584507957L103.4942135283947,132.8178584507957L103.73102194341024,132.8178584507957L103.97900056668124,132.8178584507957L104.21580898169677,132.8178584507957L104.45485143836339,132.8178584507957L104.69165985337894,132.8178584507957L104.92846826839448,132.8178584507957L105.16527668341,132.8178584507957L105.40208509842554,132.8178584507957L105.65006372169654,132.8178584507957L105.88687213671209,132.8178584507957L106.1236805517276,132.8178584507957L106.36048896674315,132.8178584507957L106.5972973817587,132.8178584507957L106.99048871235053,132.8178584507957L107.22729712736607,132.8178584507957L107.4641055423816,132.8178584507957L107.70091395739715,132.8178584507957L107.94889258066813,132.8178584507957L108.19687120393912,132.8178584507957L108.43367961895466,132.8178584507957L108.67048803397019,132.8178584507957L108.90729644898573,132.8178584507957L109.14410486400128,132.8178584507957L109.38091327901681,132.8178584507957L109.61772169403235,132.8178584507957L109.85453010904789,132.8178584507957L110.19410444001358,132.8178584507957L110.4309128550291,132.8178584507957L110.66995531169573,132.8178584507957L110.90676372671128,132.8178584507957L111.14357214172682,132.8178584507957L111.38038055674235,132.8178584507957L111.61718897175788,132.8178584507957L111.86516759502888,132.8178584507957L112.10197601004442,132.8178584507957L112.33878442505996,132.8178584507957L112.57559284007549,132.8178584507957L112.81240125509103,132.8178584507957L113.06037987836203,132.8178584507957L113.30835850163301,132.8178584507957L113.54516691664854,132.8178584507957L113.78197533166409,132.8178584507957L114.01878374667963,132.8178584507957L114.25559216169516,132.8178584507957L114.4924005767107,132.8178584507957L114.74037919998169,132.8178584507957L114.97718761499723,132.8178584507957L115.21399603001277,132.8178584507957L115.4508044450283,132.8178584507957L115.68761286004384,132.8178584507957L116.02942123266061,132.8178584507957L116.26846368932723,132.8178584507957L116.73984647770723,132.8178584507957L116.97888893437386,132.8178584507957L117.21569734938939,132.8178584507957L117.55527168035508,132.8178584507957L117.79208009537061,132.8178584507957L118.0400587186416,132.8178584507957L118.27686713365713,132.8178584507957L118.51367554867268,132.8178584507957L118.7527180053393,153.3034628720316L119.0006966286103,153.3034628720316L119.23750504362583,153.3034628720316L119.48548366689681,153.3034628720316L119.73346229016781,153.3034628720316L119.97027070518335,153.3034628720316L120.20931316184998,153.3034628720316L120.44612157686551,153.3034628720316L120.68292999188105,153.3034628720316L120.9197384068966,153.3034628720316L121.15654682191213,153.3034628720316L121.39335523692766,153.3034628720316L121.6301636519432,153.3034628720316L121.86697206695875,153.3034628720316L122.10378048197428,153.3034628720316L122.35175910524526,153.3034628720316L122.58856752026081,153.3034628720316L122.82760997692743,153.3034628720316L123.06665243359407,153.3034628720316L123.30346084860962,153.3034628720316L123.54026926362513,153.3034628720316L123.77707767864068,153.3034628720316L124.02505630191168,153.3034628720316L124.27303492518267,153.3034628720316L124.50984334019819,155.21835751939187L124.9097367957433,155.21835751939187L125.14654521075884,156.0640401754455L125.50175783328216,156.0640401754455L125.7385662482977,156.0640401754455L125.97537466331323,156.0640401754455L126.22335328658421,156.0640401754455L126.46016170159976,156.0640401754455L126.6969701166153,148.7999840912102L126.93377853163082,148.7999840912102L127.17058694664637,148.7999840912102L127.40739536166191,148.7999840912102L127.64420377667746,148.7999840912102L128.04856531552474,148.7999840912102L128.28537373054027,148.7999840912102L128.5221821455558,148.7999840912102L128.75899056057136,148.7999840912102L128.998033017238,148.7999840912102L129.41356476434072,148.7999840912102L129.65037317935625,148.7999840912102L129.88718159437178,148.7999840912102L130.12399000938734,148.7999840912102L130.36079842440287,148.7999840912102L130.59760683941843,148.7999840912102L130.83441525443394,148.7999840912102L131.0712236694495,148.7999840912102L131.30803208446503,148.7999840912102L131.54484049948059,148.7999840912102L131.7816489144961,148.7999840912102L132.01845732951165,148.7999840912102L132.25526574452718,148.7999840912102L132.49207415954274,148.7999840912102L132.72888257455824,148.7999840912102L132.9656909895738,148.7999840912102L133.20249940458933,148.7999840912102L133.4393078196049,148.7999840912102L133.68728644287586,148.7999840912102L133.9240948578914,148.7999840912102L134.16090327290695,148.7999840912102L134.39994572957355,148.7999840912102L134.6367541445891,148.7999840912102L134.87356255960464,148.7999840912102L135.1103709746202,148.7999840912102L135.34717938963573,148.7999840912102L135.58398780465126,148.7999840912102L135.82079621966682,148.7999840912102L136.06877484293778,148.7999840912102L136.31675346620875,148.7999840912102L136.5535618812243,148.7999840912102L136.8015405044953,148.7999840912102L137.2282424598535,148.7999840912102L137.46505087486904,148.7999840912102L137.86494433041415,148.7999840912102L138.31175266063212,148.7999840912102L138.54856107564765,148.7999840912102L138.78536949066321,148.7999840912102L139.02217790567875,148.7999840912102L139.2589863206943,148.7999840912102L139.49579473570984,148.7999840912102L139.7437733589808,148.7999840912102L139.98058177399636,148.7999840912102L140.21962423066296,148.7999840912102L140.45643264567852,148.7999840912102L140.7044112689495,148.7999840912102L140.94121968396507,148.7999840912102L141.17802809898058,148.7999840912102L141.4148365139961,148.7999840912102L141.65164492901167,148.7999840912102L141.8884533440272,148.7999840912102L142.12526175904273,148.7999840912102L142.3620701740583,148.7999840912102L142.59887858907382,148.7999840912102L142.83568700408938,148.7999840912102L143.07249541910488,148.7999840912102L143.3093038341204,148.7999840912102L143.54611224913597,148.7999840912102L143.7829206641515,148.7999840912102L144.01972907916706,148.7999840912102L144.2565374941826,148.7999840912102L144.49334590919813,148.7999840912102L144.7301543242137,148.7999840912102L144.9669627392292,148.7999840912102L145.20377115424472,148.7999840912102L145.44281361091137,148.7999840912102L145.681856067578,148.7999840912102L145.91866448259353,148.7999840912102L146.1554728976091,148.7999840912102L146.3945153542757,148.7999840912102L146.6424939775467,148.7999840912102L146.89047260081767,148.7999840912102L147.13845122408867,148.7999840912102L147.3752596391042,148.7999840912102L147.6232382623752,148.7999840912102L147.86004667739076,148.7999840912102L148.0968550924063,148.7999840912102L148.3336635074218,148.7999840912102L148.57047192243735,148.7999840912102L148.80728033745288,148.7999840912102L149.04408875246844,148.7999840912102L149.28089716748397,148.7999840912102L149.5177055824995,148.7999840912102L149.75451399751506,148.7999840912102L149.9913224125306,148.7999840912102L150.2281308275461,148.7999840912102L150.46493924256166,148.7999840912102L150.7039816992283,148.7999840912102L150.95196032249927,148.7999840912102L151.1887687375148,148.7999840912102L151.42557715253037,156.24958385522316L151.6623855675459,156.24958385522316L151.89919398256143,156.24958385522316L152.13600239757696,156.24958385522316L152.38398102084795,156.24958385522316" fill="none"></path></g></g></g></g></g></g><g transform="translate(61, 177)" clip-path="url(#clip_1)"><clipPath id="clip_1"><rect width="268" height="22"></rect></clipPath><g><g><line x1="0" y1="0" x2="0" y2="5" style="visibility: inherit;" fill="rgb(0, 0, 0)" stroke="rgb(204, 204, 204)" stroke-width="1px"></line><line x1="22.34041651089986" y1="0" x2="22.34041651089986" y2="5" style="visibility: inherit;" fill="rgb(0, 0, 0)" stroke="rgb(204, 204, 204)" stroke-width="1px"></line><line x1="44.68083302179972" y1="0" x2="44.68083302179972" y2="5" style="visibility: inherit;" fill="rgb(0, 0, 0)" stroke="rgb(204, 204, 204)" stroke-width="1px"></line><line x1="67.02124953269958" y1="0" x2="67.02124953269958" y2="5" style="visibility: inherit;" fill="rgb(0, 0, 0)" stroke="rgb(204, 204, 204)" stroke-width="1px"></line><line x1="89.36166604359944" y1="0" x2="89.36166604359944" y2="5" style="visibility: inherit;" fill="rgb(0, 0, 0)" stroke="rgb(204, 204, 204)" stroke-width="1px"></line><line x1="111.70208255449931" y1="0" x2="111.70208255449931" y2="5" style="visibility: inherit;" fill="rgb(0, 0, 0)" stroke="rgb(204, 204, 204)" stroke-width="1px"></line><line x1="134.04249906539917" y1="0" x2="134.04249906539917" y2="5" style="visibility: inherit;" fill="rgb(0, 0, 0)" stroke="rgb(204, 204, 204)" stroke-width="1px"></line><line x1="156.38291557629904" y1="0" x2="156.38291557629904" y2="5" style="visibility: inherit;" fill="rgb(0, 0, 0)" stroke="rgb(204, 204, 204)" stroke-width="1px"></line><line x1="178.72333208719888" y1="0" x2="178.72333208719888" y2="5" style="visibility: inherit;" fill="rgb(0, 0, 0)" stroke="rgb(204, 204, 204)" stroke-width="1px"></line><line x1="201.06374859809875" y1="0" x2="201.06374859809875" y2="5" style="visibility: inherit;" fill="rgb(0, 0, 0)" stroke="rgb(204, 204, 204)" stroke-width="1px"></line><line x1="223.40416510899863" y1="0" x2="223.40416510899863" y2="5" style="visibility: inherit;" fill="rgb(0, 0, 0)" stroke="rgb(204, 204, 204)" stroke-width="1px"></line><line x1="245.74458161989847" y1="0" x2="245.74458161989847" y2="5" style="visibility: inherit;" fill="rgb(0, 0, 0)" stroke="rgb(204, 204, 204)" stroke-width="1px"></line><line x1="268.08499813079834" y1="0" x2="268.08499813079834" y2="5" style="visibility: inherit;" fill="rgb(0, 0, 0)" stroke="rgb(204, 204, 204)" stroke-width="1px"></line></g><g transform="translate(0, 8)"><text style="text-anchor: middle; visibility: hidden; font-family: Roboto, sans-serif; font-size: 12px; font-weight: 200;" x="0" y="0" dx="0em" dy="0.95em" fill="rgb(50, 49, 63)" stroke="none" stroke-width="1px">20k</text><text style="text-anchor: middle; visibility: inherit; font-family: Roboto, sans-serif; font-size: 12px; font-weight: 200;" x="22.34041651089986" y="0" dx="0em" dy="0.95em" fill="rgb(50, 49, 63)" stroke="none" stroke-width="1px">30k</text><text style="text-anchor: middle; visibility: hidden; font-family: Roboto, sans-serif; font-size: 12px; font-weight: 200;" x="44.68083302179972" y="0" dx="0em" dy="0.95em" fill="rgb(50, 49, 63)" stroke="none" stroke-width="1px">40k</text><text style="text-anchor: middle; visibility: inherit; font-family: Roboto, sans-serif; font-size: 12px; font-weight: 200;" x="67.02124953269958" y="0" dx="0em" dy="0.95em" fill="rgb(50, 49, 63)" stroke="none" stroke-width="1px">50k</text><text style="text-anchor: middle; visibility: hidden; font-family: Roboto, sans-serif; font-size: 12px; font-weight: 200;" x="89.36166604359944" y="0" dx="0em" dy="0.95em" fill="rgb(50, 49, 63)" stroke="none" stroke-width="1px">60k</text><text style="text-anchor: middle; visibility: inherit; font-family: Roboto, sans-serif; font-size: 12px; font-weight: 200;" x="111.70208255449931" y="0" dx="0em" dy="0.95em" fill="rgb(50, 49, 63)" stroke="none" stroke-width="1px">70k</text><text style="text-anchor: middle; visibility: hidden; font-family: Roboto, sans-serif; font-size: 12px; font-weight: 200;" x="134.04249906539917" y="0" dx="0em" dy="0.95em" fill="rgb(50, 49, 63)" stroke="none" stroke-width="1px">80k</text><text style="text-anchor: middle; visibility: inherit; font-family: Roboto, sans-serif; font-size: 12px; font-weight: 200;" x="156.38291557629904" y="0" dx="0em" dy="0.95em" fill="rgb(50, 49, 63)" stroke="none" stroke-width="1px">90k</text><text style="text-anchor: middle; visibility: hidden; font-family: Roboto, sans-serif; font-size: 12px; font-weight: 200;" x="178.72333208719888" y="0" dx="0em" dy="0.95em" fill="rgb(50, 49, 63)" stroke="none" stroke-width="1px">100k</text><text style="text-anchor: middle; visibility: inherit; font-family: Roboto, sans-serif; font-size: 12px; font-weight: 200;" x="201.06374859809875" y="0" dx="0em" dy="0.95em" fill="rgb(50, 49, 63)" stroke="none" stroke-width="1px">110k</text><text style="text-anchor: middle; visibility: hidden; font-family: Roboto, sans-serif; font-size: 12px; font-weight: 200;" x="223.40416510899863" y="0" dx="0em" dy="0.95em" fill="rgb(50, 49, 63)" stroke="none" stroke-width="1px">120k</text><text style="text-anchor: middle; visibility: inherit; font-family: Roboto, sans-serif; font-size: 12px; font-weight: 200;" x="245.74458161989847" y="0" dx="0em" dy="0.95em" fill="rgb(50, 49, 63)" stroke="none" stroke-width="1px">130k</text><text style="text-anchor: middle; visibility: hidden; font-family: Roboto, sans-serif; font-size: 12px; font-weight: 200;" x="268.08499813079834" y="0" dx="0em" dy="0.95em" fill="rgb(50, 49, 63)" stroke="none" stroke-width="1px">140k</text></g><line x1="0" y1="0" x2="268.08499813079834" y2="0" fill="rgb(0, 0, 0)" stroke="rgb(204, 204, 204)" stroke-width="1px"></line></g></g></g></g></svg>