<svg viewBox="0 0 330 200" xmlns="http://www.w3.org/2000/svg"><g><g><g><g><g><line x1="61.91500186920166" y1="177.89999961853027" x2="56.91500186920166" y2="177.89999961853027" style="visibility: inherit;" fill="rgb(0, 0, 0)" stroke="rgb(204, 204, 204)" stroke-width="1px"></line><line x1="61.91500186920166" y1="152.48571395874023" x2="56.91500186920166" y2="152.48571395874023" style="visibility: inherit;" fill="rgb(0, 0, 0)" stroke="rgb(204, 204, 204)" stroke-width="1px"></line><line x1="61.91500186920166" y1="127.07142829895018" x2="56.91500186920166" y2="127.07142829895018" style="visibility: inherit;" fill="rgb(0, 0, 0)" stroke="rgb(204, 204, 204)" stroke-width="1px"></line><line x1="61.91500186920166" y1="101.65714263916016" x2="56.91500186920166" y2="101.65714263916016" style="visibility: inherit;" fill="rgb(0, 0, 0)" stroke="rgb(204, 204, 204)" stroke-width="1px"></line><line x1="61.91500186920166" y1="76.2428569793701" x2="56.91500186920166" y2="76.2428569793701" style="visibility: inherit;" fill="rgb(0, 0, 0)" stroke="rgb(204, 204, 204)" stroke-width="1px"></line><line x1="61.91500186920166" y1="50.82857131958006" x2="56.91500186920166" y2="50.82857131958006" style="visibility: inherit;" fill="rgb(0, 0, 0)" stroke="rgb(204, 204, 204)" stroke-width="1px"></line><line x1="61.91500186920166" y1="25.414285659790007" x2="56.91500186920166" y2="25.414285659790007" style="visibility: inherit;" fill="rgb(0, 0, 0)" stroke="rgb(204, 204, 204)" stroke-width="1px"></line><line x1="61.91500186920166" y1="0" x2="56.91500186920166" y2="0" style="visibility: inherit;" fill="rgb(0, 0, 0)" stroke="rgb(204, 204, 204)" stroke-width="1px"></line></g><g transform="translate(51.91500186920166, 0)"><text style="text-anchor: end; visibility: hidden; font-family: Roboto, sans-serif; font-size: 12px; font-weight: 200;" x="0" y="177.89999961853027" dx="0em" dy="0.3em" fill="rgb(50, 49, 63)" stroke="none" stroke-width="1px">-5e-3</text><text style="text-anchor: end; visibility: inherit; font-family: Roboto, sans-serif; font-size: 12px; font-weight: 200;" x="0" y="152.48571395874023" dx="0em" dy="0.3em" fill="rgb(50, 49, 63)" stroke="none" stroke-width="1px">0</text><text style="text-anchor: end; visibility: inherit; font-family: Roboto, sans-serif; font-size: 12px; font-weight: 200;" x="0" y="127.07142829895018" dx="0em" dy="0.3em" fill="rgb(50, 49, 63)" stroke="none" stroke-width="1px">5e-3</text><text style="text-anchor: end; visibility: inherit; font-family: Roboto, sans-serif; font-size: 12px; font-weight: 200;" x="0" y="101.65714263916016" dx="0em" dy="0.3em" fill="rgb(50, 49, 63)" stroke="none" stroke-width="1px">0.01</text><text style="text-anchor: end; visibility: inherit; font-family: Roboto, sans-serif; font-size: 12px; font-weight: 200;" x="0" y="76.2428569793701" dx="0em" dy="0.3em" fill="rgb(50, 49, 63)" stroke="none" stroke-width="1px">0.015</text><text style="text-anchor: end; visibility: inherit; font-family: Roboto, sans-serif; font-size: 12px; font-weight: 200;" x="0" y="50.82857131958006" dx="0em" dy="0.3em" fill="rgb(50, 49, 63)" stroke="none" stroke-width="1px">0.02</text><text style="text-anchor: end; visibility: inherit; font-family: Roboto, sans-serif; font-size: 12px; font-weight: 200;" x="0" y="25.414285659790007" dx="0em" dy="0.3em" fill="rgb(50, 49, 63)" stroke="none" stroke-width="1px">0.025</text><text style="text-anchor: end; visibility: hidden; font-family: Roboto, sans-serif; font-size: 12px; font-weight: 200;" x="0" y="0" dx="0em" dy="0.3em" fill="rgb(50, 49, 63)" stroke="none" stroke-width="1px">0.03</text></g><line x1="61.91500186920166" y1="0" x2="61.91500186920166" y2="177.89999961853027" fill="rgb(0, 0, 0)" stroke="rgb(204, 204, 204)" stroke-width="1px"></line></g></g><g transform="translate(61, 0)" clip-path="url(#clip_0)"><clipPath id="clip_0"><rect width="268" height="177"></rect></clipPath><g><g><g><line x1="0" y1="0" x2="0" y2="177.89999961853027" fill="rgb(0, 0, 0)" stroke="rgb(60, 60, 60)" stroke-width="1px" opacity="0.25"></line><line x1="19.148928437914165" y1="0" x2="19.148928437914165" y2="177.89999961853027" fill="rgb(0, 0, 0)" stroke="rgb(60, 60, 60)" stroke-width="1px" opacity="0.25"></line><line x1="38.29785687582833" y1="0" x2="38.29785687582833" y2="177.89999961853027" fill="rgb(0, 0, 0)" stroke="rgb(60, 60, 60)" stroke-width="1px" opacity="0.25"></line><line x1="57.446785313742495" y1="0" x2="57.446785313742495" y2="177.89999961853027" fill="rgb(0, 0, 0)" stroke="rgb(60, 60, 60)" stroke-width="1px" opacity="0.25"></line><line x1="76.59571375165666" y1="0" x2="76.59571375165666" y2="177.89999961853027" fill="rgb(0, 0, 0)" stroke="rgb(60, 60, 60)" stroke-width="1px" opacity="0.25"></line><line x1="95.74464218957084" y1="0" x2="95.74464218957084" y2="177.89999961853027" fill="rgb(0, 0, 0)" stroke="rgb(60, 60, 60)" stroke-width="1px" opacity="0.25"></line><line x1="114.89357062748499" y1="0" x2="114.89357062748499" y2="177.89999961853027" fill="rgb(0, 0, 0)" stroke="rgb(60, 60, 60)" stroke-width="1px" opacity="0.25"></line><line x1="134.04249906539917" y1="0" x2="134.04249906539917" y2="177.89999961853027" fill="rgb(0, 0, 0)" stroke="rgb(60, 60, 60)" stroke-width="1px" opacity="0.25"></line><line x1="153.19142750331332" y1="0" x2="153.19142750331332" y2="177.89999961853027" fill="rgb(0, 0, 0)" stroke="rgb(60, 60, 60)" stroke-width="1px" opacity="0.25"></line><line x1="172.34035594122753" y1="0" x2="172.34035594122753" y2="177.89999961853027" fill="rgb(0, 0, 0)" stroke="rgb(60, 60, 60)" stroke-width="1px" opacity="0.25"></line><line x1="191.48928437914168" y1="0" x2="191.48928437914168" y2="177.89999961853027" fill="rgb(0, 0, 0)" stroke="rgb(60, 60, 60)" stroke-width="1px" opacity="0.25"></line><line x1="210.63821281705583" y1="0" x2="210.63821281705583" y2="177.89999961853027" fill="rgb(0, 0, 0)" stroke="rgb(60, 60, 60)" stroke-width="1px" opacity="0.25"></line><line x1="229.78714125496998" y1="0" x2="229.78714125496998" y2="177.89999961853027" fill="rgb(0, 0, 0)" stroke="rgb(60, 60, 60)" stroke-width="1px" opacity="0.25"></line><line x1="248.9360696928842" y1="0" x2="248.9360696928842" y2="177.89999961853027" fill="rgb(0, 0, 0)" stroke="rgb(60, 60, 60)" stroke-width="1px" opacity="0.25"></line><line x1="268.08499813079834" y1="0" x2="268.08499813079834" y2="177.89999961853027" fill="rgb(0, 0, 0)" stroke="rgb(60, 60, 60)" stroke-width="1px" opacity="0.25"></line></g><g><line x1="0" y1="177.89999961853027" x2="268.08499813079834" y2="177.89999961853027" fill="rgb(0, 0, 0)" stroke="rgb(60, 60, 60)" stroke-width="1px" opacity="0.25"></line><line x1="0" y1="152.48571395874023" x2="268.08499813079834" y2="152.48571395874023" fill="rgb(0, 0, 0)" stroke="rgb(60, 60, 60)" stroke-width="1px" opacity="0.25"></line><line x1="0" y1="127.07142829895018" x2="268.08499813079834" y2="127.07142829895018" fill="rgb(0, 0, 0)" stroke="rgb(60, 60, 60)" stroke-width="1px" opacity="0.25"></line><line x1="0" y1="101.65714263916016" x2="268.08499813079834" y2="101.65714263916016" fill="rgb(0, 0, 0)" stroke="rgb(60, 60, 60)" stroke-width="1px" opacity="0.25"></line><line x1="0" y1="76.2428569793701" x2="268.08499813079834" y2="76.2428569793701" fill="rgb(0, 0, 0)" stroke="rgb(60, 60, 60)" stroke-width="1px" opacity="0.25"></line><line x1="0" y1="50.82857131958006" x2="268.08499813079834" y2="50.82857131958006" fill="rgb(0, 0, 0)" stroke="rgb(60, 60, 60)" stroke-width="1px" opacity="0.25"></line><line x1="0" y1="25.414285659790007" x2="268.08499813079834" y2="25.414285659790007" fill="rgb(0, 0, 0)" stroke="rgb(60, 60, 60)" stroke-width="1px" opacity="0.25"></line><line x1="0" y1="0" x2="268.08499813079834" y2="0" fill="rgb(0, 0, 0)" stroke="rgb(60, 60, 60)" stroke-width="1px" opacity="0.25"></line></g></g></g><g><g><line x1="0" y1="152.48571395874023" x2="268.08499813079834" y2="152.48571395874023" fill="rgb(0, 0, 0)" stroke="rgb(153, 153, 153)" stroke-width="1.5px"></line></g></g><g><g><line x1="-76.59571375165666" y1="0" x2="-76.59571375165666" y2="177.89999961853027" fill="rgb(0, 0, 0)" stroke="rgb(153, 153, 153)" stroke-width="1.5px"></line></g></g><g><g><g><g><g><path style="fill: none;" stroke="rgb(255, 112, 67)" stroke-width="2px" d="M22.02892727497646,-3.637090063016501L22.434884557860236,6.452345623320509L24.27701147358758,5.260133749176847L25.4106280371121,7.0799393079691315L25.81658531999588,10.96885377244957L27.758286663600376,15.087700733034241L28.623818228994097,19.032523951931534L29.569775293827057,20.291979348098813L30.201689932278224,22.322015438831333L31.147646997111185,22.3737135274197L31.553604279994964,24.416234422246188L31.959561562878747,27.58568234814446L32.36551884576253,31.335749300009816L33.02807176971436,35.297264311101195L33.617858765602115,39.1512244728362L34.54466690199716,38.995371384038L35.37190061051505,40.007462437978745L35.77785789339883,42.04645822177485L36.183815176282614,44.57838212560962L36.86168724298477,46.758913545752165L37.46679338162286,48.96932033093503L37.87275066450664,51.44071489545782L38.55445251689639,54.005083921722125L39.27828201184954,56.42845630554701L39.97913279267719,58.85534717618501L40.385090075560974,61.23445510430143L41.204664212703705,63.53874459792354L41.61062149558749,65.75537238641044L42.01657877847127,67.84915386322479L43.16168469905853,69.86352429572918L44.11147154957907,70.80702838857782L44.78551383059365,72.08658148848855L45.191471113477434,73.53529594516874L45.59742839636122,74.9965348817575L46.00338567924499,76.47725171408686L46.42849189056669,77.94849339558706L46.834449173450466,79.3354162270602L47.24040645633425,80.71821831600565L48.052321022101815,82.0840020015104L48.95998023005894,82.73046392984729L49.36593751294272,83.62745150776422L49.95189472314289,84.50118760647416L50.53785193334307,85.46709658203261L50.94380921622685,86.37909530801102L51.55274514055252,87.1501095361504L53.46763798434394,87.05456569556095L54.06891433729444,87.09535360051262L54.494020548616135,87.48493329574262L54.89997783149992,88.13088538504181L55.48976482738767,88.89562715478881L55.89572211027145,89.72285683788454L56.71529624741418,89.88804025621813L57.12125353029796,90.36502899681253L57.527210813181746,91.0178193872433L58.96721023171288,90.73334705395507L59.373167514596666,90.92312203468319L59.78295458316803,91.38714659294398L60.38040115043095,91.79290378590959L60.78635843331473,92.35354026937337L61.391464571952824,92.79784476006853L62.01954942471641,93.06764831811905L62.601676849228994,93.54426809685317L63.808059340817586,94.13669538722591L64.53571862145833,94.670636080643L64.9416759043421,95.25791371214983L65.3476331872259,95.89558139995196L65.75359047010967,96.55635026244425L66.45444125093732,96.83604438553576L67.0403984611375,97.17221678377223L67.44635574402129,97.62499231814887L67.85231302690505,98.15466566806569L68.25827030978884,98.71798999674678L68.66422759267262,99.07162310821073L69.0701848755564,99.52364654533513L69.86295051288604,100.03251527817312L71.46380093029568,99.7960989945111L71.86975821317945,99.84185269651059L72.90380034882682,100.10040614380851L73.6199702724048,100.38055165063784L74.02592755528859,100.77093913781891L74.60805497980118,101.22274371415602L76.26635218252454,101.23778768297711L76.95188382060188,101.38042025943314L77.87103238562175,101.08805673631001L78.27698966850554,101.12421584799117L78.68294695138931,101.3532129908287L80.41401008217676,101.69376805495057L81.03060557787758,104.46397436702492L81.76209464420592,106.28155547602277L82.62762620959963,107.34558929517897L83.0335834924834,108.03502836958765L83.61571091699601,109.43186375197453L84.19783834150859,110.35922702287768L84.60379562439238,112.2618078759432L85.23571026284354,114.86682138980385L85.64166754572733,116.44807443141804L86.0476248286111,118.0868588929842L86.77145432356426,118.8308171297479L87.17741160644805,119.27408955266247L87.7671986023358,119.51799170000751L88.19230481365749,119.71552218739474L88.59826209654126,119.84521882695219L89.00421937942505,121.5771121817005L89.95783601563316,122.56859986270301L90.36379329851695,123.22692227754997L91.14506957878385,123.64400164851573L91.55102686166764,124.12440658154307L91.95698414455141,125.15533222131891L92.38209035587312,126.01474609777469L92.98336670882361,126.97170007922011L93.69570684671402,127.2924325361014L94.2816640569142,127.49891050698388L94.68762133979797,127.6116530256013L95.09357862268175,127.67929853677177L95.69868476131984,127.70837423826576L96.38421639939716,128.87181941347956L96.80932261071887,129.69310301432586L97.21527989360264,130.1731355207114L98.24166245787485,130.3384289483903L98.64761974075861,130.59915091406023L99.32166202177321,130.60569653677516L99.72761930465698,130.58815811347287L100.58166151298795,130.55502463465524L101.16378893750054,130.5590349862022L101.86080993264062,130.49718676648027L102.2667672155244,130.42329920749637L102.67272449840817,130.35556097229858L103.46549013573782,130.3149180311799L104.05527713162557,130.30335512866353L104.48038334294728,130.29333474988437L105.74038283416202,129.12833611737082L106.14634011704581,128.40779824072573L106.80123346962247,127.89315319414739L107.7548501058306,127.47468165281988L108.34463710171836,127.19116571053677L108.96506238310677,126.6061630861983L109.56633873605729,126.11185769556266L110.79187015608379,125.81872349299097L111.40463586609704,125.45824923631497L112.90591185562951,125.4208665208627L113.3118691385133,125.36638731025155L114.3574006312234,124.78988602479166L114.76335791410719,124.42882485099905L115.16931519699096,124.284149170547L115.57527247987476,124.29958488062812L116.18037861851283,124.51864363110576L116.76250604302543,124.85350832551612L117.16846332590922,125.09023439774109L117.57442060879298,125.23436994570241L117.98037789167677,125.3367766557777L118.38633517456054,125.41222793563128L119.1101646695137,125.85913244587894L119.51612195239748,126.12727515202752L120.1595259479114,126.28816077571669L120.79144058636257,126.99283702690289L121.19739786924636,127.41564277761461L121.60335515213013,127.59956073119221L122.02846136345183,127.8516522253505L122.4344186463356,128.0019082943519L123.17739706972668,127.87937321874985L123.58335435261046,128.03955319123796L123.98931163549423,128.1356611747308L124.39526891837801,128.17227295347558L124.82037512969971,128.28256098681086L125.6246301240921,128.36859674597392L126.34845961904526,128.42021820147176L126.77356583036696,128.45119107477043L127.3671826119423,128.6614805643395L127.79228882326399,128.870522856837L128.38207581915174,129.00679521488925L128.7880331020355,129.0821547726905L129.38164988361086,128.94041272271073L129.80675609493255,129.04189734370843L131.12037258577345,129.1056586802507L131.52632986865726,129.14391548217614L131.95143607997895,129.8557755603864L132.35739336286272,130.32622462568435L132.9395207873753,130.60266299516348L133.3454780702591,130.85505666749827L133.93143528045928,130.96262209516584L134.52122227634703,131.0271613517664L134.9271795592308,131.5114632707571L135.33313684211458,131.87868336696644L135.91909405231476,132.5898965337818L137.25951904296875,132.72380371609344L137.66547632585252,132.7986658353366L138.39696539218085,132.69161032028583L138.80292267506462,132.65063217687188L139.20887995794843,132.62604529082347L139.8178158822741,132.8679331261836L140.22377316515787,132.9950722577981L140.62973044804164,133.06988542482597L141.62547472681317,132.70088335396935L142.03143200969697,132.47048887698924L142.83568700408938,132.3322521908012L143.24164428697316,132.1929119290467L143.83526106854848,131.9389390445305L144.24121835143225,132.02586680724087L144.64717563431603,132.08076527000594L145.0531329171998,132.21725293594022L145.86887726865496,132.0992806274087L146.51228126416888,131.97925741374493L146.91823854705265,131.9251049826977L147.32419582993643,132.08592782796404L147.74930204125812,132.18277562183727L148.4424932507106,132.22984701766788L148.8484505335944,132.24562486674841L149.54164174304688,132.25509157619678L150.1275989532471,132.18810997866288L150.71355616344724,132.48333960032147L151.119513446331,132.89012958948223L151.5254707292148,133.13286108308677L151.9314280120986,133.28964424316158L152.85440636280603,133.18850585009756L153.2603636456898,133.15616915982525L153.6663209285736,133.13676714566185L154.0722782114574,133.11898243801122L154.47823549434116,133.1055873232665L155.06419270454137,133.17210444270287L155.47014998742515,133.21144618743588L155.8761072703089,133.45156058478605L156.28206455319267,133.60188159927935L156.68802183607644,133.7031290034531L157.09780890464782,133.78305872085824L157.50376618753162,133.87664024561693L157.9097234704154,133.90880546617672L158.3348296817371,133.95151029832002L159.2501484610694,133.456357797024L159.65610574395316,133.14260954600118L160.06206302683694,132.95744323265686L160.4718500954083,134.44038549627487L160.87780737829206,135.33458119876445L161.30291358961378,135.95021806557855L161.70887087249756,136.45297868603205L162.11482815538136,136.79557941149454L162.53993436670302,137.42555632352088L162.94589164958683,137.98293756912338L163.53950843116218,138.29095040623582L163.94546571404595,138.64211117074007L164.35142299692973,139.02458891673587L164.75738027981347,139.26089930761313L165.16333756269725,140.01052935073025L165.76461391564777,140.49482941102042L166.39269876841135,140.74355242129909L166.97865597861156,140.82216865029054L167.38461326149533,141.196842561767L167.79057054437908,141.3815068246149L168.19652782726286,141.49509831228204L168.7901446088382,141.56325320488233L169.196101891722,141.60047982814964L169.60205917460578,141.6067763367234L170.3105695268086,141.57089984361568L170.7165268096924,141.54937394775106L171.29865423420497,141.47649325726914L171.70461151708875,141.52635592588655L172.11056879997253,141.55627352705702L172.5165260828563,141.63586973247706L172.94163229417802,141.6714848377014L173.3475895770618,141.6857068404102L173.94503614432472,142.0653110832006L174.3509934272085,142.28715593100873L174.75695071009227,142.42026283969358L175.16290799297605,142.51055100425185L175.95567363030568,142.5262446655182L176.60673719719478,142.52170520666712L177.01269448007855,142.51478266885968L177.41865176296236,142.5106291461752L177.82460904584613,142.62843065607439L178.24971525716782,142.69911156201388L178.6556725400516,142.74150330066L179.06545960862297,142.7577417935482L179.47141689150675,142.9598962247189L179.87737417439052,143.08987039850143L180.2833314572743,143.1678549027709L180.6892887401581,143.212409604543L181.11439495147977,143.23910928914916L181.52035223436357,143.24599811246065L181.92630951724735,143.25595632223371L182.33226680013112,143.26429766451483L182.7382240830149,143.31317253554985L183.41226636402948,143.34249745817087L183.81822364691325,143.36009241174347L184.22418092979703,143.37032867031976L184.6301382126808,143.4557583933393L185.05524442400252,143.79771999869575L185.4803506353242,144.00726529371576L185.886307918208,144.28496502063544L186.29226520109177,144.4515848567873L186.69822248397557,144.550023487269L187.10417976685935,144.60890086470908L187.5101370497431,144.65121600667163L187.91609433262687,144.67807493041204L188.32205161551065,145.18132863091282L188.90417904002325,145.49192283923375L189.31013632290703,145.67826776646632L189.7199233914784,145.83390407796773L190.1258806743622,146.10733256801586L190.53183795724598,146.2712760513346L190.93779524012973,146.36981421421396L191.3437525230135,146.43299277760576L191.76885873433523,146.65218473884008L192.174816017219,146.83293974412553L192.58077330010278,146.95162670539358L192.98673058298658,147.0423619359417L193.39268786587033,147.1002767217341L193.81779407719205,147.3227001904446L194.24290028851374,147.46734433490045L194.6488575713975,147.55405602785646L195.0548148542813,147.6784450185849L195.46077213716507,147.746528637236L195.86672942004884,147.84586962573633L196.27268670293265,147.90681683707288L196.69779291425434,147.94338516387484L197.1037501971381,148.15641227379743L197.5097074800219,148.29875662765883L197.91566476290566,148.38065894128928L198.32162204578944,148.43078093190977L198.90757925598962,148.47631559718064L199.317366324561,148.56260378691312L200.12545110464097,148.64778274663405L200.53523817321232,148.73538081747375L200.94119545609612,148.79887776778844L201.52332288060867,148.84853192236918L201.92928016349248,148.8864311310109L202.35438637481417,148.92016793625172L202.76034365769794,149.0011440565093L203.16630094058172,149.0496609705153L203.5760880091531,149.5985589939061L204.0011942204748,149.94445443874744L204.40715150335856,150.14579163783355L204.83225771468028,150.26465488282042L205.25736392600197,150.3517295110409L205.66332120888575,150.40695219036908L206.0731082774571,150.44433306335915L206.47906556034087,150.4633051588129L206.88502284322465,150.47464456945167L207.29098012610842,150.48193129804216L207.69693740899223,150.50861849053072L208.102894691876,150.54178223623632L208.50885197475978,150.5759937763186L208.91480925764355,150.62187121434795L209.32076654052736,150.66739586220226L209.74587275184902,150.69344655424743L210.15183003473282,150.7267836128607L210.5616171033042,150.8443037786223L210.97140417187555,150.96352747599406L211.37736145475932,151.0752016601106L211.7833187376431,151.1238742540827L212.18927602052688,151.15011097327982L212.61438223184857,151.16903558398906L213.03948844317028,151.18647597911172L213.44544572605406,151.2951388938702L214.13097736413135,151.3603366427253L214.53693464701516,151.45005244312242L215.14587057134085,151.4741642018472L215.55182785422463,151.46668515903912L215.9577851371084,151.4689428367206L216.3828913484301,151.4918946322305L216.78884863131387,151.52577749757415L217.19480591419764,151.35410689175552L217.60076319708142,151.25702240364717L218.00672047996522,151.19742406290501L218.412677762849,151.17128758975014L218.81863504573278,151.1977666995746L219.51182625518527,151.21536430251862L219.91778353806905,151.23003929984472L220.32374082095282,151.23883559992038L220.72969810383663,151.24644849426554L221.13948517240797,151.2510162308726L221.85182531029838,151.2537736481683L222.25778259318216,151.27102841711695L222.66373987606593,151.28138127848612L223.06969715894974,151.2906208982505L223.47565444183348,151.29616467010908L223.88161172471726,151.30001025843146L224.28756900760104,151.30233486013427L224.69352629048484,151.31286049026366L225.09948357336862,151.31918202225475L225.5054408562524,151.3270321751781L225.91139813913617,151.3317422669321L226.31735542201994,151.3298985371768L226.72331270490375,151.32879229932362L227.12926998778752,151.32665247537702L227.5352272706713,151.32502996783774L227.94118455355508,151.32616110172012L228.34714183643888,151.32795378831779L228.75309911932266,151.32881717902015L229.17820533064435,151.32396314284546L229.58416261352812,151.32258402193617L229.9901198964119,151.31419007609307L230.39990696498327,151.3199955727418L230.80586424786702,151.3195733250521L231.2118215307508,151.32067247643954L231.6177788136346,151.32807609429628L232.02373609651838,151.33252980359805L232.42969337940215,151.34777077612833L232.83565066228593,151.35560084822646L233.26075687360762,151.36041241343716L233.68586308492934,151.36348817119696L234.0918203678131,151.36534211706999L234.5169265791348,151.38503501327853L235.24841564546313,151.37472334920236L235.6543729283469,151.3674068117741L236.33990456642425,151.3242654891082L237.1058617039408,151.2798769428117L237.51181898682458,151.2577258758946L237.91777626970836,151.24570986507135L238.32373355259213,151.23857499312268L238.7296908354759,151.23459241641217L239.1356481183597,151.2387526461718L239.56075432968137,151.24387014406202L239.96671161256518,151.22119417773948L240.37649868113655,151.20668107322624L240.78245596402033,151.20154111936793L241.20756217534202,151.1985047215378L241.6135194582258,151.2001748736992L242.01947674110957,151.20634009839543L242.42543402399335,151.21003763556254L242.83139130687715,151.21225615786284L243.23734858976093,151.21737222388685L243.6433058726447,151.22040795780495L244.04926315552848,151.22650157506405L244.45522043841225,151.23015774541946L244.86117772129606,151.23233328175357L245.26713500417983,151.24125720759926L245.6730922870636,151.24663996578423L246.07904956994736,151.24993831967154L246.48500685283116,151.2529049759432L246.89096413571494,151.25478497080007L247.2969214185987,151.26211259174107L247.7028787014825,151.2684382682472L248.10883598436627,151.2735856416019L248.51479326725007,151.27755159000634L248.92075055013385,151.2808449560267L249.33053761870522,151.28904267091312L249.74032468727657,151.29403201067763L250.14628197016035,151.29765073971737L250.55223925304412,151.30388234699888L250.9620263216155,151.30870481434383L251.3871325329372,151.31170826636787L251.81223874425888,151.3136009894615L252.2373449555806,151.3181989392963L252.64330223846437,151.3222209182809L253.06840844978606,151.34953813547793L253.47436573266984,151.36592385036099L253.8803230155536,151.37572199490313L254.2862802984374,151.38155807050921L254.6922375813212,151.40337624758703L255.09819486420497,151.41941916837249L255.50415214708872,151.42951069516937L255.9101094299725,151.44545610404887L256.3160667128563,151.45616235591828L256.7220239957401,151.46258610703993L257.12798127862385,151.475797974863L257.5339385615076,151.5134282606981L257.9398958443914,151.55794714556782L258.34968291296275,151.5860337282191L258.7747891242845,151.60288567780984L259.1807464071682,151.61299684756426L259.58670369005205,151.8110638744418L259.9926609729358,151.92990409056833L260.3986182558196,152.00255077930836L260.8045755387034,152.0471458154019L261.22968175002507,152.0742244973812" fill="none"></path></g></g></g></g><g opacity="0.2"><g><g><g><path style="fill: none;" stroke="rgb(255, 112, 67)" stroke-width="2px" d="M20.84169371182578,-8.071478963472032L21.427650922025954,2.633849969818982L22.02892727497646,12.423457643998L22.434884557860236,21.574639399919533L24.27701147358758,3.472656778143906L25.4106280371121,9.808877565433809L25.81658531999588,16.80123807420899L27.758286663600376,21.265343709032976L28.623818228994097,24.94939820780983L29.569775293827057,22.18109337082252L30.201689932278224,25.36700277572789L31.147646997111185,22.45125963961369L31.553604279994964,27.479991568878702L31.959561562878747,32.3398317099125L32.36551884576253,36.9608337354853L33.02807176971436,41.23952669130715L33.617858765602115,44.93215879870204L34.54466690199716,38.76159189440341L35.37190061051505,41.52559845952252L35.77785789339883,45.104951221315844L36.183815176282614,48.37626747759372L36.86168724298477,50.0297104156543L37.46679338162286,52.284930350382396L37.87275066450664,55.14780663602947L38.55445251689639,57.851637394993666L39.27828201184954,60.0635148437908L39.97913279267719,62.495683459613204L40.385090075560974,64.80311698322492L41.204664212703705,66.99517883065609L41.61062149558749,69.08031406469617L42.01657877847127,70.98982607592728L43.16168469905853,72.88507994303171L44.11147154957907,72.22228452744216L44.78551383059365,74.00591113802213L45.191471113477434,75.70836762996313L45.59742839636122,77.18839328650395L46.00338567924499,78.6983269624978L46.42849189056669,80.15535591778777L46.834449173450466,81.4158004742419L47.24040645633425,82.79242144940702L48.052321022101815,84.13267752975761L48.95998023005894,83.70015682234975L49.36593751294272,84.97293287463725L49.95189472314289,85.81179175453768L50.53785193334307,86.91596004536939L50.94380921622685,87.74709339697806L51.55274514055252,88.30663087835921L53.46763798434394,86.9112499346768L54.06891433729444,87.15653545794011L54.494020548616135,88.0693028385876L54.89997783149992,89.09981351899053L55.48976482738767,90.04273980940934L55.89572211027145,90.96370136252806L56.71529624741418,90.13581538371851L57.12125353029796,91.08051210770417L57.527210813181746,91.99700497288943L58.96721023171288,90.30663855402264L59.373167514596666,91.20778450577536L59.78295458316803,92.08318343033515L60.38040115043095,92.40153957535803L60.78635843331473,93.19449499456901L61.391464571952824,93.46430149611129L62.01954942471641,93.4723536551948L62.601676849228994,94.2591977649544L63.808059340817586,95.02533632278497L64.53571862145833,95.47154712076866L64.9416759043421,96.13883015941005L65.3476331872259,96.85208293165513L65.75359047010967,97.5475035561827L66.45444125093732,97.25558557017298L67.0403984611375,97.67647538112689L67.44635574402129,98.30415561971382L67.85231302690505,98.94917569294094L68.25827030978884,99.5629764897684L68.66422759267262,99.60207277540667L69.0701848755564,100.20168170102171L69.86295051288604,100.79581837743011L71.46380093029568,99.44147456901808L71.86975821317945,99.9104832495098L72.90380034882682,100.48823631475534L73.6199702724048,100.80076991088184L74.02592755528859,101.35652036859054L74.60805497980118,101.9004505786617L76.26635218252454,101.26035363620878L76.95188382060188,101.59436912411712L77.87103238562175,100.64951145162537L78.27698966850554,101.17845451551288L78.68294695138931,101.69670870508496L80.41401008217676,102.20460065113336L81.03060557787758,108.61928383513643L81.76209464420592,109.00792713951955L82.62762620959963,108.94164002391328L83.0335834924834,109.06918698120072L83.61571091699601,111.52711682555483L84.19783834150859,111.75027192923237L84.60379562439238,115.11567915554156L85.23571026284354,118.77434166059476L85.64166754572733,118.81995399383938L86.0476248286111,120.54503558533337L86.77145432356426,119.94675448489346L87.17741160644805,119.93899818703434L87.7671986023358,119.883844921025L88.19230481365749,120.0118179184756L88.59826209654126,120.03976378628835L89.00421937942505,124.17495221382302L89.95783601563316,124.05583138420673L90.36379329851695,124.21440589982036L91.14506957878385,124.2696207049644L91.55102686166764,124.84501398108407L91.95698414455141,126.70172068098275L92.38209035587312,127.30386691245832L92.98336670882361,128.40713105138823L93.69570684671402,127.77353122142333L94.2816640569142,127.80862746330757L94.68762133979797,127.78076680352746L95.09357862268175,127.78076680352746L95.69868476131984,127.75198779050679L96.38421639939716,130.61698717630023L96.80932261071887,130.92502841559528L97.21527989360264,130.89318428028974L98.24166245787485,130.58636908990863L98.64761974075861,130.99023386256513L99.32166202177321,130.61551497084756L99.72761930465698,130.5618504785194L100.58166151298795,130.5053244164288L101.16378893750054,130.56505051352264L101.86080993264062,130.40441443689733L102.2667672155244,130.3124678690205L102.67272449840817,130.25395361950189L103.46549013573782,130.25395361950189L104.05527713162557,130.286010774889L104.48038334294728,130.2783041817156L105.74038283416202,127.38083816860046L106.14634011704581,127.3269914257581L106.80123346962247,127.12118562427987L107.7548501058306,126.8469743408286L108.34463710171836,126.76589179711206L108.96506238310677,125.72865914969056L109.56633873605729,125.37039960960928L110.79187015608379,125.37902218913344L111.40463586609704,124.91753785130089L112.90591185562951,125.3647924476843L113.3118691385133,125.28466849433485L114.3574006312234,123.92513409660178L114.76335791410719,123.88723309031013L115.16931519699096,124.06713564986894L115.57527247987476,124.32273844574982L116.18037861851283,124.84723175682221L116.76250604302543,125.35580536713165L117.16846332590922,125.44532350607851L117.57442060879298,125.45057326764442L117.98037789167677,125.49038672089064L118.38633517456054,125.52540485541165L119.1101646695137,126.52948921125042L119.51612195239748,126.52948921125042L120.1595259479114,126.52948921125042L120.79144058636257,128.0498514036822L121.19739786924636,128.0498514036822L121.60335515213013,127.87543766155862L122.02846136345183,128.2297894665879L122.4344186463356,128.22729239785392L123.17739706972668,127.69557060534676L123.58335435261046,128.27982314997013L123.98931163549423,128.27982314997013L124.39526891837801,128.2271906215927L124.82037512969971,128.44799303681376L125.6246301240921,128.4976503847185L126.34845961904526,128.4976503847185L126.77356583036696,128.4976503847185L127.3671826119423,128.97691479869312L127.79228882326399,129.1840862955832L128.38207581915174,129.2112037519676L128.7880331020355,129.1951941093924L129.38164988361086,128.72779964774108L129.80675609493255,129.19412427520496L131.12037258577345,129.20130068506418L131.52632986865726,129.20130068506418L131.95143607997895,130.92356567770182L132.35739336286272,131.03189822363126L132.9395207873753,131.0173205493822L133.3454780702591,131.2336471760004L133.93143528045928,131.12397023666722L134.52122227634703,131.12397023666722L134.9271795592308,132.23791614924318L135.33313684211458,132.42951351128042L135.91909405231476,133.6567162840049L137.25951904296875,132.92466448956088L137.66547632585252,132.91095901420135L138.39696539218085,132.5310270477097L138.80292267506462,132.5891649617509L139.20887995794843,132.5891649617509L139.8178158822741,133.2307648792238L140.22377316515787,133.18578095521983L140.62973044804164,133.18210517536778L141.62547472681317,132.14738024768434L142.03143200969697,132.12489716151907L142.83568700408938,132.12489716151907L143.24164428697316,131.98390153641492L143.83526106854848,131.5579797177563L144.24121835143225,132.15625845130643L144.64717563431603,132.1631129641535L145.0531329171998,132.42198443484168L145.86887726865496,131.92232216461142L146.51228126416888,131.79922259324928L146.91823854705265,131.8438763361268L147.32419582993643,132.32716209586357L147.74930204125812,132.32804731264702L148.4424932507106,132.30045411141376L148.8484505335944,132.2692916403693L149.54164174304688,132.2692916403693L150.1275989532471,132.087637582362L150.71355616344724,132.92618403280943L151.119513446331,133.50031457322333L151.5254707292148,133.49695832349363L151.9314280120986,133.52481898327375L152.85440636280603,133.03679826050154L153.2603636456898,133.10766412441677L153.6663209285736,133.10766412441677L154.0722782114574,133.09230537653528L154.47823549434116,133.0854946511494L155.06419270454137,133.27188012185744L155.47014998742515,133.27045880453537L155.8761072703089,133.81173218081133L156.28206455319267,133.8273631210193L156.68802183607644,133.85500010971373L157.09780890464782,133.90295329696588L157.50376618753162,134.017012532755L157.9097234704154,133.95705329701636L158.3348296817371,134.01556754653498L159.2501484610694,132.71362904508L159.65610574395316,132.67198716946695L160.06206302683694,132.67969376264034L160.4718500954083,136.66479889170193L160.87780737829206,136.67587475249888L161.30291358961378,136.8736733657997L161.70887087249756,137.20711961671228L162.11482815538136,137.30948049968828L162.53993436670302,138.37052169156038L162.94589164958683,138.81900943752714L163.53950843116218,138.75296966190444L163.94546571404595,139.16885231749643L164.35142299692973,139.59830553572962L164.75738027981347,139.615364893929L165.16333756269725,141.1349744154059L165.76461391564777,141.22127950145568L166.39269876841135,141.11663693671707L166.97865597861156,140.94009299377777L167.38461326149533,141.75885342898167L167.79057054437908,141.65850321888672L168.19652782726286,141.66548554378278L168.7901446088382,141.66548554378278L169.196101891722,141.65631976305062L169.60205917460578,141.61622109958404L170.3105695268086,141.51708510395412L170.7165268096924,141.51708510395412L171.29865423420497,141.36717222154627L171.70461151708875,141.60114992881267L172.11056879997253,141.60114992881267L172.5165260828563,141.75526404060713L172.94163229417802,141.7249074955379L173.3475895770618,141.70703984447343L173.94503614432472,142.6347174473862L174.3509934272085,142.61992320272088L174.75695071009227,142.61992320272088L175.16290799297605,142.64598325108923L175.95567363030568,142.5497851574177L176.60673719719478,142.51489601839052L177.01269448007855,142.50439886214852L177.41865176296236,142.50439886214852L177.82460904584613,142.80513292092314L178.24971525716782,142.80513292092314L178.6556725400516,142.80509090862924L179.06545960862297,142.78209953288047L179.47141689150675,143.263127871475L179.87737417439052,143.28483165917515L180.2833314572743,143.28483165917515L180.6892887401581,143.2792416572012L181.11439495147977,143.27915881605836L181.52035223436357,143.2563313474279L181.92630951724735,143.27089363689328L182.33226680013112,143.27680967793657L182.7382240830149,143.3864848421024L183.41226636402948,143.3864848421024L183.81822364691325,143.3864848421024L184.22418092979703,143.3856830581842L184.6301382126808,143.5839029778686L185.05524442400252,144.31066240673042L185.4803506353242,144.3215832362458L185.886307918208,144.701514611015L186.29226520109177,144.701514611015L186.69822248397557,144.69768143299157L187.10417976685935,144.69721693086925L187.5101370497431,144.71468871961545L187.91609433262687,144.71836331602265L188.32205161551065,145.93620918166397L188.90417904002325,145.95781415171518L189.31013632290703,145.9577851573152L189.7199233914784,146.0673585452198L190.1258806743622,146.51747530308813L190.53183795724598,146.5171912763127L190.93779524012973,146.517621458533L191.3437525230135,146.52776062269345L191.76885873433523,146.98097268069156L192.174816017219,147.1040722520537L192.58077330010278,147.12965714729566L192.98673058298658,147.1784647817639L193.39268786587033,147.18714890042273L193.81779407719205,147.65633539351032L194.24290028851374,147.68431055158428L194.6488575713975,147.68412356729044L195.0548148542813,147.86502850467755L195.46077213716507,147.84865406521263L195.86672942004884,147.9948811084868L196.27268670293265,147.9982376540777L196.69779291425434,147.9982376540777L197.1037501971381,148.47595293868133L197.5097074800219,148.51227315845097L197.91566476290566,148.503512411735L198.32162204578944,148.50596391784046L198.90757925598962,148.54461759508698L199.317366324561,148.69203607151184L200.12545110464097,148.77555118621544L200.53523817321232,148.86677792373328L200.94119545609612,148.89412319326047L201.52332288060867,148.9230131542403L201.92928016349248,148.9432799439735L202.35438637481417,148.9707731441129L202.76034365769794,149.12260823689573L203.16630094058172,149.12243634152435L203.5760880091531,150.42190602899225L204.0011942204748,150.46329760600946L204.40715150335856,150.4477974364627L204.83225771468028,150.44294975030076L205.25736392600197,150.4823414533716L205.66332120888575,150.4897862093614L206.0731082774571,150.5004043728442L206.47906556034087,150.4917633019935L206.88502284322465,150.49165368540986L207.29098012610842,150.49286139092789L207.69693740899223,150.5486492792636L208.102894691876,150.5915278547947L208.50885197475978,150.627311086442L208.91480925764355,150.690687371392L209.32076654052736,150.7356828339837L209.74587275184902,150.7325225923152L210.15183003473282,150.7767892007806L210.5616171033042,151.02058402726473L210.97140417187555,151.1423630220517L211.37736145475932,151.2427129362854L211.7833187376431,151.19688314504083L212.18927602052688,151.18946605207552L212.61438223184857,151.19742250005294L213.03948844317028,151.21263657179568L213.44544572605406,151.4581332660079L214.13097736413135,151.4581332660079L214.53693464701516,151.5846261437181L215.14587057134085,151.51033183993442L215.55182785422463,151.45546659482702L215.9577851371084,151.4723293532428L216.3828913484301,151.52632232549533L216.78884863131387,151.57660179558968L217.19480591419764,151.09660098302754L217.60076319708142,151.1113956714847L218.00672047996522,151.10802655179174L218.412677762849,151.1320828800178L218.81863504573278,151.2374853643113L219.51182625518527,151.24176070693463L219.91778353806905,151.25205179583386L220.32374082095282,151.25203005003385L220.72969810383663,151.2578678357833L221.13948517240797,151.2578678357833L221.85182531029838,151.25790977411182L222.25778259318216,151.29691057053992L222.66373987606593,151.29691057053992L223.06969715894974,151.304480327897L223.47565444183348,151.304480327897L223.88161172471726,151.30577864091504L224.28756900760104,151.30582176268848L224.69352629048484,151.32864893545772L225.09948357336862,151.32866432024142L225.5054408562524,151.3388074045631L225.91139813913617,151.3388074045631L226.31735542201994,151.32713294254387L226.72331270490375,151.32713294254387L227.12926998778752,151.32344273945714L227.5352272706713,151.3225962065288L227.94118455355508,151.32785780254366L228.34714183643888,151.33064281821433L228.75309911932266,151.33011226507367L229.17820533064435,151.31668208858346L229.58416261352812,151.3205153405722L229.9901198964119,151.3015991573284L230.39990696498327,151.32870381771485L230.80586424786702,151.31893995351754L231.2118215307508,151.3223212035207L231.6177788136346,151.33918152108137L232.02373609651838,151.33921036755075L232.42969337940215,151.37063223492376L232.83565066228593,151.36734595637364L233.26075687360762,151.36762976125317L233.68586308492934,151.3681018078367L234.0918203678131,151.36812303587953L234.5169265791348,151.41457435759128L235.24841564546313,151.35925585308811L235.6543729283469,151.35643200563175L236.33990456642425,151.25955350510932L237.1058617039408,151.21329412336695L237.51181898682458,151.22449927551895L237.91777626970836,151.22768584883647L238.32373355259213,151.22787268519966L238.7296908354759,151.2286185513464L239.1356481183597,151.2449929908113L239.56075432968137,151.25154639089726L239.96671161256518,151.18718022825573L240.37649868113655,151.18491141645637L240.78245596402033,151.19383118858045L241.20756217534202,151.19395012479265L241.6135194582258,151.20268010194127L242.01947674110957,151.21558793543977L242.42543402399335,151.21558394131324L242.83139130687715,151.21558394131324L243.23734858976093,151.2250463229229L243.6433058726447,151.2249615586821L244.04926315552848,151.23564200095265L244.45522043841225,151.23564200095265L244.86117772129606,151.2355965862547L245.26713500417983,151.25464309636783L245.6730922870636,151.2547141030617L246.07904956994736,151.25488585050246L246.48500685283116,151.25735496035077L246.89096413571494,151.25760496308538L247.2969214185987,151.27310402315257L247.7028787014825,151.27792678300634L248.10883598436627,151.28130670163398L248.51479326725007,151.28350051261296L248.92075055013385,151.28578500505725L249.33053761870522,151.30133924324278L249.74032468727657,151.30151602032436L250.14628197016035,151.303078833277L250.55223925304412,151.31322975792114L250.9620263216155,151.3159385153612L251.3871325329372,151.31621344440399L251.81223874425888,151.3164400741019L252.2373449555806,151.3250958640485L252.64330223846437,151.32825388675784L253.06840844978606,151.3905139612734L253.47436573266984,151.39050242268567L253.8803230155536,151.39041921171628L254.2862802984374,151.39031218391835L254.6922375813212,151.43610351320376L255.09819486420497,151.4434835495507L255.50415214708872,151.44464798536467L255.9101094299725,151.46937421736808L256.3160667128563,151.47222173372242L256.7220239957401,151.47222173372242L257.12798127862385,151.49561577659762L257.5339385615076,151.56987368945073L257.9398958443914,151.6247254728724L258.34968291296275,151.62816360219594L258.7747891242845,151.62816360219594L259.1807464071682,151.62816360219594L259.58670369005205,152.1081644147581L259.9926609729358,152.1081644147581L260.3986182558196,152.1115208124184L260.8045755387034,152.11403836954221L261.22968175002507,152.11484252035018" fill="none"></path></g></g></g></g></g></g><g transform="translate(61, 177)" clip-path="url(#clip_1)"><clipPath id="clip_1"><rect width="268" height="22"></rect></clipPath><g><g><line x1="0" y1="0" x2="0" y2="5" style="visibility: inherit;" fill="rgb(0, 0, 0)" stroke="rgb(204, 204, 204)" stroke-width="1px"></line><line x1="19.148928437914165" y1="0" x2="19.148928437914165" y2="5" style="visibility: inherit;" fill="rgb(0, 0, 0)" stroke="rgb(204, 204, 204)" stroke-width="1px"></line><line x1="38.29785687582833" y1="0" x2="38.29785687582833" y2="5" style="visibility: inherit;" fill="rgb(0, 0, 0)" stroke="rgb(204, 204, 204)" stroke-width="1px"></line><line x1="57.446785313742495" y1="0" x2="57.446785313742495" y2="5" style="visibility: inherit;" fill="rgb(0, 0, 0)" stroke="rgb(204, 204, 204)" stroke-width="1px"></line><line x1="76.59571375165666" y1="0" x2="76.59571375165666" y2="5" style="visibility: inherit;" fill="rgb(0, 0, 0)" stroke="rgb(204, 204, 204)" stroke-width="1px"></line><line x1="95.74464218957084" y1="0" x2="95.74464218957084" y2="5" style="visibility: inherit;" fill="rgb(0, 0, 0)" stroke="rgb(204, 204, 204)" stroke-width="1px"></line><line x1="114.89357062748499" y1="0" x2="114.89357062748499" y2="5" style="visibility: inherit;" fill="rgb(0, 0, 0)" stroke="rgb(204, 204, 204)" stroke-width="1px"></line><line x1="134.04249906539917" y1="0" x2="134.04249906539917" y2="5" style="visibility: inherit;" fill="rgb(0, 0, 0)" stroke="rgb(204, 204, 204)" stroke-width="1px"></line><line x1="153.19142750331332" y1="0" x2="153.19142750331332" y2="5" style="visibility: inherit;" fill="rgb(0, 0, 0)" stroke="rgb(204, 204, 204)" stroke-width="1px"></line><line x1="172.34035594122753" y1="0" x2="172.34035594122753" y2="5" style="visibility: inherit;" fill="rgb(0, 0, 0)" stroke="rgb(204, 204, 204)" stroke-width="1px"></line><line x1="191.48928437914168" y1="0" x2="191.48928437914168" y2="5" style="visibility: inherit;" fill="rgb(0, 0, 0)" stroke="rgb(204, 204, 204)" stroke-width="1px"></line><line x1="210.63821281705583" y1="0" x2="210.63821281705583" y2="5" style="visibility: inherit;" fill="rgb(0, 0, 0)" stroke="rgb(204, 204, 204)" stroke-width="1px"></line><line x1="229.78714125496998" y1="0" x2="229.78714125496998" y2="5" style="visibility: inherit;" fill="rgb(0, 0, 0)" stroke="rgb(204, 204, 204)" stroke-width="1px"></line><line x1="248.9360696928842" y1="0" x2="248.9360696928842" y2="5" style="visibility: inherit;" fill="rgb(0, 0, 0)" stroke="rgb(204, 204, 204)" stroke-width="1px"></line><line x1="268.08499813079834" y1="0" x2="268.08499813079834" y2="5" style="visibility: inherit;" fill="rgb(0, 0, 0)" stroke="rgb(204, 204, 204)" stroke-width="1px"></line></g><g transform="translate(0, 8)"><text style="text-anchor: middle; visibility: hidden; font-family: Roboto, sans-serif; font-size: 12px; font-weight: 200;" x="0" y="0" dx="0em" dy="0.95em" fill="rgb(50, 49, 63)" stroke="none" stroke-width="1px">20k</text><text style="text-anchor: middle; visibility: inherit; font-family: Roboto, sans-serif; font-size: 12px; font-weight: 200;" x="19.148928437914165" y="0" dx="0em" dy="0.95em" fill="rgb(50, 49, 63)" stroke="none" stroke-width="1px">25k</text><text style="text-anchor: middle; visibility: hidden; font-family: Roboto, sans-serif; font-size: 12px; font-weight: 200;" x="38.29785687582833" y="0" dx="0em" dy="0.95em" fill="rgb(50, 49, 63)" stroke="none" stroke-width="1px">30k</text><text style="text-anchor: middle; visibility: inherit; font-family: Roboto, sans-serif; font-size: 12px; font-weight: 200;" x="57.446785313742495" y="0" dx="0em" dy="0.95em" fill="rgb(50, 49, 63)" stroke="none" stroke-width="1px">35k</text><text style="text-anchor: middle; visibility: hidden; font-family: Roboto, sans-serif; font-size: 12px; font-weight: 200;" x="76.59571375165666" y="0" dx="0em" dy="0.95em" fill="rgb(50, 49, 63)" stroke="none" stroke-width="1px">40k</text><text style="text-anchor: middle; visibility: inherit; font-family: Roboto, sans-serif; font-size: 12px; font-weight: 200;" x="95.74464218957084" y="0" dx="0em" dy="0.95em" fill="rgb(50, 49, 63)" stroke="none" stroke-width="1px">45k</text><text style="text-anchor: middle; visibility: hidden; font-family: Roboto, sans-serif; font-size: 12px; font-weight: 200;" x="114.89357062748499" y="0" dx="0em" dy="0.95em" fill="rgb(50, 49, 63)" stroke="none" stroke-width="1px">50k</text><text style="text-anchor: middle; visibility: inherit; font-family: Roboto, sans-serif; font-size: 12px; font-weight: 200;" x="134.04249906539917" y="0" dx="0em" dy="0.95em" fill="rgb(50, 49, 63)" stroke="none" stroke-width="1px">55k</text><text style="text-anchor: middle; visibility: hidden; font-family: Roboto, sans-serif; font-size: 12px; font-weight: 200;" x="153.19142750331332" y="0" dx="0em" dy="0.95em" fill="rgb(50, 49, 63)" stroke="none" stroke-width="1px">60k</text><text style="text-anchor: middle; visibility: inherit; font-family: Roboto, sans-serif; font-size: 12px; font-weight: 200;" x="172.34035594122753" y="0" dx="0em" dy="0.95em" fill="rgb(50, 49, 63)" stroke="none" stroke-width="1px">65k</text><text style="text-anchor: middle; visibility: hidden; font-family: Roboto, sans-serif; font-size: 12px; font-weight: 200;" x="191.48928437914168" y="0" dx="0em" dy="0.95em" fill="rgb(50, 49, 63)" stroke="none" stroke-width="1px">70k</text><text style="text-anchor: middle; visibility: inherit; font-family: Roboto, sans-serif; font-size: 12px; font-weight: 200;" x="210.63821281705583" y="0" dx="0em" dy="0.95em" fill="rgb(50, 49, 63)" stroke="none" stroke-width="1px">75k</text><text style="text-anchor: middle; visibility: hidden; font-family: Roboto, sans-serif; font-size: 12px; font-weight: 200;" x="229.78714125496998" y="0" dx="0em" dy="0.95em" fill="rgb(50, 49, 63)" stroke="none" stroke-width="1px">80k</text><text style="text-anchor: middle; visibility: inherit; font-family: Roboto, sans-serif; font-size: 12px; font-weight: 200;" x="248.9360696928842" y="0" dx="0em" dy="0.95em" fill="rgb(50, 49, 63)" stroke="none" stroke-width="1px">85k</text><text style="text-anchor: middle; visibility: hidden; font-family: Roboto, sans-serif; font-size: 12px; font-weight: 200;" x="268.08499813079834" y="0" dx="0em" dy="0.95em" fill="rgb(50, 49, 63)" stroke="none" stroke-width="1px">90k</text></g><line x1="0" y1="0" x2="268.08499813079834" y2="0" fill="rgb(0, 0, 0)" stroke="rgb(204, 204, 204)" stroke-width="1px"></line></g></g></g></g></svg>