<svg viewBox="0 0 330 200" xmlns="http://www.w3.org/2000/svg"><g><g><g><g><g><line x1="72.29800224304199" y1="177.89999961853027" x2="67.29800224304199" y2="177.89999961853027" style="visibility: inherit;" fill="rgb(0, 0, 0)" stroke="rgb(204, 204, 204)" stroke-width="1px"></line><line x1="72.29800224304199" y1="158.13333299424912" x2="67.29800224304199" y2="158.13333299424912" style="visibility: inherit;" fill="rgb(0, 0, 0)" stroke="rgb(204, 204, 204)" stroke-width="1px"></line><line x1="72.29800224304199" y1="138.366666369968" x2="67.29800224304199" y2="138.366666369968" style="visibility: inherit;" fill="rgb(0, 0, 0)" stroke="rgb(204, 204, 204)" stroke-width="1px"></line><line x1="72.29800224304199" y1="118.59999974568686" x2="67.29800224304199" y2="118.59999974568686" style="visibility: inherit;" fill="rgb(0, 0, 0)" stroke="rgb(204, 204, 204)" stroke-width="1px"></line><line x1="72.29800224304199" y1="98.83333312140572" x2="67.29800224304199" y2="98.83333312140572" style="visibility: inherit;" fill="rgb(0, 0, 0)" stroke="rgb(204, 204, 204)" stroke-width="1px"></line><line x1="72.29800224304199" y1="79.06666649712456" x2="67.29800224304199" y2="79.06666649712456" style="visibility: inherit;" fill="rgb(0, 0, 0)" stroke="rgb(204, 204, 204)" stroke-width="1px"></line><line x1="72.29800224304199" y1="59.29999987284343" x2="67.29800224304199" y2="59.29999987284343" style="visibility: inherit;" fill="rgb(0, 0, 0)" stroke="rgb(204, 204, 204)" stroke-width="1px"></line><line x1="72.29800224304199" y1="39.53333324856228" x2="67.29800224304199" y2="39.53333324856228" style="visibility: inherit;" fill="rgb(0, 0, 0)" stroke="rgb(204, 204, 204)" stroke-width="1px"></line><line x1="72.29800224304199" y1="19.76666662428115" x2="67.29800224304199" y2="19.76666662428115" style="visibility: inherit;" fill="rgb(0, 0, 0)" stroke="rgb(204, 204, 204)" stroke-width="1px"></line><line x1="72.29800224304199" y1="0" x2="67.29800224304199" y2="0" style="visibility: inherit;" fill="rgb(0, 0, 0)" stroke="rgb(204, 204, 204)" stroke-width="1px"></line></g><g transform="translate(62.29800224304199, 0)"><text style="text-anchor: end; visibility: hidden; font-family: Roboto, sans-serif; font-size: 12px; font-weight: 200;" x="0" y="177.89999961853027" dx="0em" dy="0.3em" fill="rgb(50, 49, 63)" stroke="none" stroke-width="1px">-500</text><text style="text-anchor: end; visibility: inherit; font-family: Roboto, sans-serif; font-size: 12px; font-weight: 200;" x="0" y="158.13333299424912" dx="0em" dy="0.3em" fill="rgb(50, 49, 63)" stroke="none" stroke-width="1px">0</text><text style="text-anchor: end; visibility: hidden; font-family: Roboto, sans-serif; font-size: 12px; font-weight: 200;" x="0" y="138.366666369968" dx="0em" dy="0.3em" fill="rgb(50, 49, 63)" stroke="none" stroke-width="1px">500</text><text style="text-anchor: end; visibility: inherit; font-family: Roboto, sans-serif; font-size: 12px; font-weight: 200;" x="0" y="118.59999974568686" dx="0em" dy="0.3em" fill="rgb(50, 49, 63)" stroke="none" stroke-width="1px">1e+3</text><text style="text-anchor: end; visibility: hidden; font-family: Roboto, sans-serif; font-size: 12px; font-weight: 200;" x="0" y="98.83333312140572" dx="0em" dy="0.3em" fill="rgb(50, 49, 63)" stroke="none" stroke-width="1px">1.5e+3</text><text style="text-anchor: end; visibility: inherit; font-family: Roboto, sans-serif; font-size: 12px; font-weight: 200;" x="0" y="79.06666649712456" dx="0em" dy="0.3em" fill="rgb(50, 49, 63)" stroke="none" stroke-width="1px">2e+3</text><text style="text-anchor: end; visibility: hidden; font-family: Roboto, sans-serif; font-size: 12px; font-weight: 200;" x="0" y="59.29999987284343" dx="0em" dy="0.3em" fill="rgb(50, 49, 63)" stroke="none" stroke-width="1px">2.5e+3</text><text style="text-anchor: end; visibility: inherit; font-family: Roboto, sans-serif; font-size: 12px; font-weight: 200;" x="0" y="39.53333324856228" dx="0em" dy="0.3em" fill="rgb(50, 49, 63)" stroke="none" stroke-width="1px">3e+3</text><text style="text-anchor: end; visibility: hidden; font-family: Roboto, sans-serif; font-size: 12px; font-weight: 200;" x="0" y="19.76666662428115" dx="0em" dy="0.3em" fill="rgb(50, 49, 63)" stroke="none" stroke-width="1px">3.5e+3</text><text style="text-anchor: end; visibility: hidden; font-family: Roboto, sans-serif; font-size: 12px; font-weight: 200;" x="0" y="0" dx="0em" dy="0.3em" fill="rgb(50, 49, 63)" stroke="none" stroke-width="1px">4e+3</text></g><line x1="72.29800224304199" y1="0" x2="72.29800224304199" y2="177.89999961853027" fill="rgb(0, 0, 0)" stroke="rgb(204, 204, 204)" stroke-width="1px"></line></g></g><g transform="translate(72, 0)" clip-path="url(#clip_0)"><clipPath id="clip_0"><rect width="257" height="177"></rect></clipPath><g><g><g><line x1="0" y1="0" x2="0" y2="177.89999961853027" fill="rgb(0, 0, 0)" stroke="rgb(60, 60, 60)" stroke-width="1px" opacity="0.25"></line><line x1="21.4751664797465" y1="0" x2="21.4751664797465" y2="177.89999961853027" fill="rgb(0, 0, 0)" stroke="rgb(60, 60, 60)" stroke-width="1px" opacity="0.25"></line><line x1="42.950332959493" y1="0" x2="42.950332959493" y2="177.89999961853027" fill="rgb(0, 0, 0)" stroke="rgb(60, 60, 60)" stroke-width="1px" opacity="0.25"></line><line x1="64.4254994392395" y1="0" x2="64.4254994392395" y2="177.89999961853027" fill="rgb(0, 0, 0)" stroke="rgb(60, 60, 60)" stroke-width="1px" opacity="0.25"></line><line x1="85.900665918986" y1="0" x2="85.900665918986" y2="177.89999961853027" fill="rgb(0, 0, 0)" stroke="rgb(60, 60, 60)" stroke-width="1px" opacity="0.25"></line><line x1="107.37583239873251" y1="0" x2="107.37583239873251" y2="177.89999961853027" fill="rgb(0, 0, 0)" stroke="rgb(60, 60, 60)" stroke-width="1px" opacity="0.25"></line><line x1="128.850998878479" y1="0" x2="128.850998878479" y2="177.89999961853027" fill="rgb(0, 0, 0)" stroke="rgb(60, 60, 60)" stroke-width="1px" opacity="0.25"></line><line x1="150.32616535822552" y1="0" x2="150.32616535822552" y2="177.89999961853027" fill="rgb(0, 0, 0)" stroke="rgb(60, 60, 60)" stroke-width="1px" opacity="0.25"></line><line x1="171.801331837972" y1="0" x2="171.801331837972" y2="177.89999961853027" fill="rgb(0, 0, 0)" stroke="rgb(60, 60, 60)" stroke-width="1px" opacity="0.25"></line><line x1="193.2764983177185" y1="0" x2="193.2764983177185" y2="177.89999961853027" fill="rgb(0, 0, 0)" stroke="rgb(60, 60, 60)" stroke-width="1px" opacity="0.25"></line><line x1="214.75166479746503" y1="0" x2="214.75166479746503" y2="177.89999961853027" fill="rgb(0, 0, 0)" stroke="rgb(60, 60, 60)" stroke-width="1px" opacity="0.25"></line><line x1="236.2268312772115" y1="0" x2="236.2268312772115" y2="177.89999961853027" fill="rgb(0, 0, 0)" stroke="rgb(60, 60, 60)" stroke-width="1px" opacity="0.25"></line><line x1="257.701997756958" y1="0" x2="257.701997756958" y2="177.89999961853027" fill="rgb(0, 0, 0)" stroke="rgb(60, 60, 60)" stroke-width="1px" opacity="0.25"></line></g><g><line x1="0" y1="177.89999961853027" x2="257.701997756958" y2="177.89999961853027" fill="rgb(0, 0, 0)" stroke="rgb(60, 60, 60)" stroke-width="1px" opacity="0.25"></line><line x1="0" y1="158.13333299424912" x2="257.701997756958" y2="158.13333299424912" fill="rgb(0, 0, 0)" stroke="rgb(60, 60, 60)" stroke-width="1px" opacity="0.25"></line><line x1="0" y1="138.366666369968" x2="257.701997756958" y2="138.366666369968" fill="rgb(0, 0, 0)" stroke="rgb(60, 60, 60)" stroke-width="1px" opacity="0.25"></line><line x1="0" y1="118.59999974568686" x2="257.701997756958" y2="118.59999974568686" fill="rgb(0, 0, 0)" stroke="rgb(60, 60, 60)" stroke-width="1px" opacity="0.25"></line><line x1="0" y1="98.83333312140572" x2="257.701997756958" y2="98.83333312140572" fill="rgb(0, 0, 0)" stroke="rgb(60, 60, 60)" stroke-width="1px" opacity="0.25"></line><line x1="0" y1="79.06666649712456" x2="257.701997756958" y2="79.06666649712456" fill="rgb(0, 0, 0)" stroke="rgb(60, 60, 60)" stroke-width="1px" opacity="0.25"></line><line x1="0" y1="59.29999987284343" x2="257.701997756958" y2="59.29999987284343" fill="rgb(0, 0, 0)" stroke="rgb(60, 60, 60)" stroke-width="1px" opacity="0.25"></line><line x1="0" y1="39.53333324856228" x2="257.701997756958" y2="39.53333324856228" fill="rgb(0, 0, 0)" stroke="rgb(60, 60, 60)" stroke-width="1px" opacity="0.25"></line><line x1="0" y1="19.76666662428115" x2="257.701997756958" y2="19.76666662428115" fill="rgb(0, 0, 0)" stroke="rgb(60, 60, 60)" stroke-width="1px" opacity="0.25"></line><line x1="0" y1="0" x2="257.701997756958" y2="0" fill="rgb(0, 0, 0)" stroke="rgb(60, 60, 60)" stroke-width="1px" opacity="0.25"></line></g></g></g><g><g><line x1="0" y1="158.13333299424912" x2="257.701997756958" y2="158.13333299424912" fill="rgb(0, 0, 0)" stroke="rgb(153, 153, 153)" stroke-width="1.5px"></line></g></g><g><g><line x1="-42.950332959493" y1="0" x2="-42.950332959493" y2="177.89999961853027" fill="rgb(0, 0, 0)" stroke="rgb(153, 153, 153)" stroke-width="1.5px"></line></g></g><g><g><g><g><g><path style="fill: none;" stroke="rgb(204, 51, 17)" stroke-width="2px" d="M147.54513129909833,123.83210755103669L148.85726397101084,138.2709990936635L150.1586590596835,33.69389425662943L151.4600541483561,-10.202584755221682L154.0628443257014,-54.6876857038838L155.36423941437403,22.422819913049285L156.66563450304668,-28.149656367994687L157.9670295917193,-33.05464059859727L159.26842468039195,33.32069226703525L160.5698197690646,-0.12299329311916518L161.87121485773721,-16.32425376966513L163.17260994640986,39.05952530183831L164.47400503508248,76.766907958762L165.77540012375513,99.21351910819028L167.07679521242778,112.74820133263341L168.3889278843403,50.32292419243212L169.69032297301294,84.04118407078235L170.99171806168556,105.01784266660421L172.29526066700618,50.4030808169553L173.5966557556788,20.08083097749109L174.89805084435145,24.313670562612973L176.1994459330241,9.624753558935295L177.5115786049366,-0.6315190662200927L178.81297369360925,44.7341885365511L180.11651629892984,7.688735113452082L181.42864897084237,53.37230445360929L182.730044059515,9.145477332616787L184.03143914818764,-4.406877244542526L185.33283423686026,45.50086545247845L186.6342293255329,75.88499678971353L187.94636199744542,32.29375213293321L189.24775708611804,15.165989077674437L190.55988975803058,57.66990911916242L191.8612848467032,29.74692737168387L193.16267993537585,19.922521278166688L194.4640750240485,12.719320487606847L195.776207695961,15.826500964914784L197.07760278463365,18.791592518747144L198.37899787330628,22.803871546577838L199.68039296197892,52.432818988409856L200.9925256338914,76.22511074209906L202.30465830580394,92.76012077628154L203.6060533944766,58.28679958957228L204.9074484831492,80.59215841149431L206.20884357182186,101.28416045878065L207.51023866049448,52.162784716366865L208.822371332407,35.62802629542376L210.12376642107964,15.662558146009133L211.42516150975226,54.406989553775L212.7372941816648,28.952737854640436L214.03868927033741,58.459108891042604L215.34008435901006,85.6322323030874L216.6414794476827,42.02383783936772L217.94287453635533,29.838671892915727L219.24426962502798,26.55306170443996L220.5456647137006,37.2835586695904L221.84705980237325,62.56267326986996L223.1484548910459,47.00611910437784L224.44984997971852,44.75697687635022L225.75339258503917,37.15659207377061L227.06552525695164,57.12662074248794L228.3669203456243,81.10146065237713L229.66831543429691,51.16364524022607L230.96971052296956,72.16011004351046L232.2711056116422,90.41313669493027L233.57250070031483,106.49290376690873L234.87604330563545,51.757379747110896L236.1774383943081,37.74110896023041L237.47883348298075,65.15395715022024L238.79096615489323,47.67280630298319" fill="none"></path></g><g><path style="fill: none;" stroke="rgb(255, 112, 67)" stroke-width="2px" d="M6.863463206926982,120.59915485207716L7.48624303483963,111.9551260264149L7.85561589829127,107.13947889955978L8.083252662976584,52.58219688135668L8.62227934161822,69.91402559796855L9.068962804396948,83.92060384435011L9.754020615100861,99.82415926744977L10.374652926365535,106.04479314221592L10.602289691050848,68.48169032749921L11.23151206890742,86.94609818039439L11.459148833592733,13.601178280240587L11.686785598278046,67.62825761226338L12.015355645418166,92.94006574281586L12.352515759150188,103.39885076153425L12.580152523835501,114.84299249311634L13.613108031511306,13.565766904356298L14.248772959311804,19.697987023628382L14.476409723997117,30.906295664371388L15.565200664520264,51.72974124719023L16.050539426962537,73.78994769060719L16.580976039012274,92.43617746136759L16.935316285928092,101.0553043046375L17.46575289797783,87.84549688097489L17.693389662663144,82.55938718363637L17.921026427348455,70.53180931389906L18.14866319203377,92.54338446554367L18.52018357213338,100.08451772262993L18.85090113592148,102.4704767018316L19.370600164731346,87.80427653736213L19.83446376069387,98.45986335571095L20.062100525379183,98.69336579473439L20.289737290064494,95.57030496413464L20.669847736756008,109.08954962148823L21.009155367136003,116.10243607126942L21.236792131821314,107.00012915036214L21.6190500951608,111.72790784071384L22.024930741628012,113.49341665024292L22.417926288207372,93.08520112380289L22.645563052892683,87.31329346179685L23.105131615559262,91.77472328374144L23.332768380244573,78.80975071882611L23.560405144929888,67.41135154150957L24.202512622674305,62.90236963847337L24.73509675137202,82.50508644635302L25.113059681415557,90.86245062765009L25.340696446100868,91.82877356161791L25.568333210786182,98.02453404515396L25.795969975471497,94.45944267154314L26.034344323396684,102.42449783891867L26.261981088081995,88.80276221230717L26.48961785276731,85.67112808473951L26.944891382137936,97.72107284530857L27.453852827707927,92.21764840403962L27.681489592393238,72.35314817256828L28.010059639533363,92.50083416938632L28.33862968667348,105.93195664837984L28.566266451358796,111.31538071279772L28.907721598386765,114.17720859787518L29.98147992237409,88.10822194611785L30.31864003610611,94.21895786415212L30.557014384031294,76.37187293115524L30.78465114871661,73.66981687606498L31.115368712504704,84.27426268945176L31.343005477190015,72.66642811966351L31.80257403985659,73.18378518075733L32.0302108045419,77.68867642339339L32.25784756922722,83.99165586503153L33.06531382886568,89.70015496142985L33.292950593551005,77.79892429913818L33.522734874884286,95.31037818125843L33.85774747196833,110.44005033460233L34.085384236653645,111.55249985950903L34.42469186703364,96.74150561350275L34.77688459730148,100.8758030549055L35.103307127793634,100.6472980880562L35.779774871905644,101.43601635596137L36.18780303502083,109.82830963533569L36.41543979970614,113.45525752167048L36.64307656439145,111.05063059597619L36.87071332907677,115.99012309549396L37.26370887565613,121.2252962107766L37.592278922796254,122.60087674226065L37.81991568748156,114.80609660144505L38.047552452166876,116.35108410908296L38.27518921685218,111.01498126902271L38.502825981537505,110.08629126258657L38.73046274622281,106.72290551995052L39.17499869235356,108.86290821909866L40.07266065120697,71.95463875186316L40.30029741589229,92.34604859977759L40.88012691084543,97.76554378583563L41.2817125240167,95.21771249193762L41.50934928870201,104.48169090599781L41.83577181919416,107.81637235698867L42.76564652776718,65.25167160960301L43.15005200775464,76.24383622606766L43.66545600326856,74.9261368358309L43.893092767953874,63.48682010212692L44.12072953263918,72.3065820855665L45.091407057523725,87.502846093585L45.43715723784765,99.13809217854478L45.84733291761081,104.2239987072825L46.332671680053075,94.1767749182377L46.56030844473839,101.09998143084105L46.886730975230535,99.58790037984949L47.21315350572268,108.78240286691636L47.440790270407994,101.45867385934636L47.79513051732381,100.49847589731058L48.02276728200912,90.4370287289701L48.250404046694435,83.66544269516628L48.656284693161645,97.85774219622112L48.88392145784696,99.54291142810159L49.21463902163506,104.96769728719269L49.45301336956024,107.63151072448768L49.68065013424555,106.28805358158411L49.90828689893086,106.81199219989105L50.443018544276555,87.99181284680114L50.67065530896187,67.5364731322L51.1087487051487,90.58470520588992L51.336385469834006,72.62001032394278L51.56402223451932,80.79699236128917L51.80239658244451,101.16085579859813L52.13955669617653,106.45876928923431L52.53899479269982,102.43079148761102L52.867564839839936,105.8485205981626L53.09520160452525,90.71208004145186L53.32283836921056,96.76611213981334L53.66214599959056,89.0091247956483L54.046551479578014,96.7716014608316L54.28492582750321,88.96972895150182L54.512562592188516,102.2112235259622L55.08809705384572,97.21644141492138L55.31573381853104,107.19184670055863L55.69369674857458,115.7699649933342L55.92133351325989,121.14199258635531L56.40022972575823,114.60539433236669L56.726652256250375,116.46332741673339L57.117500286181766,117.17017584895727L57.34513705086708,120.69357662365103L57.57277381555239,76.7537865378061L58.017309761683144,94.36495953555846L58.348027325471236,102.56404424260705L58.58640167339643,81.99852868268135L59.29293465058009,80.18782429485266L59.5205714152654,80.36411524343218L59.887796762069065,94.20532177531462L60.42252840741475,92.29807610696653L60.753245971202844,92.86663584095656L61.10114366817474,108.47641942530284L61.43830378190676,119.41204956115135L62.12550910925866,108.6900305524425L62.469111772934596,104.09770965759269L63.31093829894066,88.77187728110104L63.53857506362597,67.55063901380525L64.12484710852304,85.5786185753584L64.35248387320837,76.90126295239875L64.58012063789367,84.44985101611627L64.80775740257899,80.99464879985297L65.14706503295899,97.37478017141122L65.47348756345113,98.96563345211338L65.70112432813644,68.1690491995558L65.92876109282176,55.948943471842185L66.15639785750706,79.02631375906981L66.38403462219239,104.15705828269773L66.78991526865958,110.46597653830266L67.0175520333449,107.43334378720984L67.37833483020465,84.45208624898827L67.73267507712046,109.97565086376342L67.96031184180578,113.9798106692502L68.18794860649109,124.31309326486577L68.42632295441628,132.07251286934692L68.6539597191016,129.1373539687878L69.07057794880868,119.57455992773353L69.29821471349399,110.9585209637001L69.52585147817929,111.00313962488045L69.7534882428646,104.07106741854169L69.9918625907898,105.08275512857232L70.44284108686446,110.01987999790984L70.84872173333167,107.04844675189742L71.08709608125686,115.01324916782823L71.41996116169294,110.61274061591115L71.65833550961813,109.82171524642051L71.98905307340621,114.12151346338163L72.21668983809153,108.97430610316127L72.5495549185276,106.5881017929454L72.78792926645278,109.43030122564612L73.52452747670809,54.00511305204192L73.75216424139342,85.26396023089676L73.9905385893186,71.402122071692L74.2181753540039,75.1522294107102L74.54459788449606,91.28799298030967L74.77223464918137,80.60774027054855L75.10080469632149,100.64401918206278L75.43152226010959,102.07624754939972L75.65915902479489,80.36262845609556L75.8867957894802,97.04921496862246L76.21536583662034,112.37329927848484L76.96699666341146,93.47124198519626L77.19463342809676,88.82418808640529L77.60480910785992,100.84571955326489L77.83244587254524,102.28556724784312L78.06008263723055,101.28055297797258L78.40153778425854,101.49087325545206L78.62917454894384,111.66168913575271L78.85681131362915,113.60898501236126L79.41516564210255,87.42993797131626L79.64280240678787,91.48217503309479L80.09378090286255,112.72069995525698L80.32141766754786,111.44255530564472L80.65428274798393,115.65615717544512L80.88191951266926,121.02829668152653L81.10955627735456,105.15612335580911L81.33719304203987,104.06988899072462L81.79461408805848,73.59235636531665L82.1553968849182,92.74587811278424L82.38303364960352,104.6237162336799L82.61067041428883,117.09318308564626L82.84904476221402,109.43504142102205L83.23774527549745,113.66857420116838L83.46538204018276,114.37682672637433L83.85408255346617,121.35150183422421L84.18265260060627,116.0939941717854L84.51122264774641,109.72414011507092L84.73885941243171,119.59024473827968L84.96649617711702,120.4449539944198L85.19413294180234,126.09184304620956L85.71168445396424,95.18249926892618L85.93932121864955,104.94198554277324L86.16695798333485,96.63792990905868L86.39459474802017,104.96108456670513L86.62223151270548,103.03694131492936L86.9508015598456,91.68104665852519L87.17843832453092,94.70430850569906L87.40607508921623,88.30210778656915L87.63371185390154,95.0689396240109L87.86134861858685,102.57567555827805L88.09113289992014,109.37181654100675L88.31876966460545,124.32981086480038L88.54640642929077,123.0829784575572L88.78478077721597,99.36235343909873L89.2980372560819,106.0829346005423L89.52567402076721,95.06091664349148L89.75331078545253,94.07727182724165L89.98309506678582,104.38264145058682L90.21073183147114,111.81561844326824L90.44910617939631,114.07765437340741L90.67674294408162,112.04462428836999L90.90437970876694,122.83132855860725L91.14275405669213,116.18018586568638L91.37039082137743,110.4705453642969L91.7032559018135,113.33124825050396L91.93089266649882,125.55757670611115L92.15852943118414,133.91026164350592L92.38616619586944,131.53411570121133L92.61380296055476,132.1228580110724L92.95096307428679,106.47887921445341L93.30315580455462,102.90331267613011L93.63172585169474,109.20302722884261L93.85936261638007,95.11348144312318L94.08699938106537,106.92673635499102L94.31463614575068,111.42378698670382L94.64750122618676,110.04275358053332L94.87513799087206,110.43504949775468L95.10277475555738,119.33568392729313L95.50006533543268,104.92010554860272L95.727702100118,93.0396092412076L96.05412463061016,96.44269995306838L96.28176139529546,71.09610239789806L96.50939815998078,89.97869746845357L96.73703492466609,100.78436931822534L96.97540927259128,98.6628791652898L97.20304603727658,105.82059000011226L97.53805863436064,115.61214214188799L97.76569539904595,111.02931479866179L97.99333216373125,103.77528344470237L98.22096892841657,115.27144398310836L98.66550487454732,83.90203964602033L99.03058270470301,100.45466534682096L99.25821946938832,106.55333547278585L99.48585623407364,105.29563906606951L99.71349299875895,96.54769974503908L99.95186734668414,111.33837022891657L100.17950411136945,113.08644618849534L100.40928839270273,116.09232591857482L100.63692515738805,122.73523177358918L100.86456192207338,122.01438911830469L101.09219868675868,120.02215936994986L101.31983545144399,106.45857692180705L101.55820979936918,98.6842924065682L101.7858465640545,112.42730451928178L102.0134833287398,103.08025923023312L102.24112009342511,116.21964594238482L102.46875685811042,122.58663993581855L102.84671978815398,100.53820551169767L103.07435655283929,92.29888466423402L103.30199331752459,72.56075679034421L103.5296300822099,90.96403320916156L103.7680044301351,90.51298250143748L104.00637877806028,100.34135632272596L104.23401554274558,109.56897128544061L104.4616523074309,99.7964036682925L104.68928907211621,80.6278889077834L104.91692583680154,93.44827734958596L105.14456260148684,107.61377426309159L105.37219936617215,110.7496837296618L105.59983613085747,87.6227709541148L105.92625866134962,100.03930122719905L106.15389542603492,104.90566587445409L106.38367970736822,111.76609898703958L106.61131647205353,110.43798764556209L106.83895323673885,110.87852382304825L107.06659000142415,105.99667494812692L107.29422676610946,119.52897678823413L107.53260111403465,124.63271981038596L107.76023787871998,123.6736187507896L107.98787464340528,123.57203981811718L108.21551140809059,120.01940442075355L108.4431481727759,114.16794306986917L108.6815225207011,120.71006378172727L108.91989686862628,116.82697687499962L109.14753363331158,81.40575778694665L109.3751703979969,98.29513853911085L109.60280716268221,86.7678080052813L109.83044392736754,101.3380697170349L110.05808069205284,106.65911284842812L110.29645503997803,109.54985308338014L110.52409180466334,107.74407758024988L110.75172856934866,106.30418877978705L110.97936533403396,115.34093000790182L111.20700209871927,110.2535853516158L111.5355721458594,93.71683345003977L111.76535642719269,96.19371349995518L112.21848243991533,93.99027545383156L112.44826672124863,102.20933745270361L112.67590348593393,112.53644728043089L113.00232601642608,115.27503866950758L113.2299627811114,122.44704018706167L113.4683371290366,113.8965491720312L113.6959738937219,103.52020247465262L113.92361065840721,107.21248930474984L114.15339493974051,112.25445322780182L114.3917692876657,115.70462842642482L114.619406052351,114.30085095050856L114.85778040027618,128.09169816567749L115.09615474820137,123.3370612736937L115.32379151288669,112.68964354649344L115.55357579421998,110.9017938410635L115.78121255890528,103.43035729650022L116.0088493235906,108.7396336983744L116.23648608827591,116.86259628672418L116.46412285296122,116.6915441012027L116.69175961764653,127.14027498162005L116.91939638233184,124.88048399935062L117.14703314701717,118.00928474733625L117.37466991170248,116.58003411938851L117.61304425962766,112.40994173800419L117.84068102431297,93.80587281179996L118.07046530564627,89.973507914969L118.30024958697955,97.98825647754029L118.52788635166486,115.24099776857545L118.75552311635018,120.04502186905715L118.98315988103549,131.55882300598768L119.22153422896068,139.53545727309472L119.45990857688587,142.7242950307941L119.68754534157117,119.20232834949215L120.07195082155863,110.41876671469939L120.29958758624394,113.26464352826957L120.64104273327192,123.68067090470426L120.86867949795723,121.221733923132L121.09631626264253,120.38092130476807L121.33469061056773,118.07977403545385L121.56232737525305,114.00631746349356L121.78996413993836,122.42579115978317L122.01760090462366,117.50697183773872L122.24523766930898,116.89357694848327L122.47287443399429,77.66403020893756L122.7005111986796,64.52596629004563L123.08921171196302,89.95592208602808L123.31684847664833,98.80555189571828L123.54448524133365,103.97349622714904L123.77212200601896,101.19929486008951L124.00190628735226,98.79835760914122L124.40134438387554,106.37122923013023L124.62898114856084,101.22255639668404L124.85661791324615,113.89528301112543L125.08425467793147,111.99156735629661L125.31189144261678,111.29534654317212L125.5395282073021,109.42914592689293L125.7671649719874,99.69195806909337L125.99480173667271,118.38022244536761L126.22243850135804,124.48349774875545L126.45007526604336,114.39937453415703L126.67771203072866,120.65197214965461L126.90534879541397,127.50521122825278L127.13298556009929,121.68602425074337L127.3606223247846,99.49957325666891L127.5882590894699,103.89526751483214L127.81589585415522,90.00320096389808L128.04353261884054,98.88557701204307L128.27116938352586,97.38056183527259L128.50954373145103,115.89665224811695L128.73718049613635,109.88894457940317L128.96481726082166,100.91460268174647L129.19460154215494,105.71527827001015L129.42223830684026,112.63146556743945L129.64987507152557,112.37315337852621L129.87751183621089,111.83391094555951L130.1051486008962,119.49849145660633L130.33278536558151,120.49675494999138L130.56042213026683,129.99397626424664L130.798796478192,117.51472799802782L131.03717082611718,118.58898231909117L131.2648075908025,118.72537329172506L131.5031819387277,127.89126714293592L131.91335761849086,125.33471412360629L132.14099438317618,122.85576384723805L132.52539986316364,102.37314824688805L132.95490319275856,110.72738941207315L133.18253995744388,110.37035000811483L133.4101767221292,103.24364776402574L133.6378134868145,90.37481707401862L133.86545025149982,110.36569661898326L134.09308701618514,112.3994125533561L134.3314613641103,112.17261787880139L134.55909812879563,119.53872748213534L134.7888824101289,120.852902246563L135.01651917481422,112.6185839670151L135.25489352273942,106.69597766610562L135.48253028742474,109.65407892368037L135.71016705211002,113.32965717089431L135.93780381679534,117.99938432552685L136.16544058148065,114.2299042586993L136.39307734616597,116.24765031912692L136.62071411085128,114.4512851086413L136.8483508755366,106.97239389972155L137.0759876402219,109.487694237479L137.30362440490725,109.34842516957968L137.53126116959254,113.74754510431904L137.75889793427785,114.18536655067794L137.98653469896317,121.93161805967289L138.21417146364848,117.55367251795222L138.4418082283338,114.81558643013771L138.6694449930191,110.94146225293662L138.89708175770443,112.03361939619074L139.12471852238974,112.48349284599514L139.35235528707503,93.74511660181946L139.57999205176034,71.2656095317521L139.80977633309365,89.79619511037802L140.03956061442693,88.68949630147597L140.26719737911225,92.38822549310787L140.49483414379756,100.00175737477528L140.72461842513084,109.01463348317716L140.96299277305604,99.5835167223548L141.20136712098122,103.64847921011527L141.4397414689064,104.84563710582499L141.6673782335917,106.36057290599568L141.9057525815169,115.0559110246753L142.13338934620222,113.47127747329371L142.36102611088754,107.9337446602428L142.58866287557282,86.00241400971083L142.81629964025814,98.12406842651107L143.04393640494345,101.16422245285518L143.27157316962877,111.92360970138975L143.4992099343141,108.18068735069951L143.72684669899942,119.61578075502514L143.95448346368474,116.40066749142731L144.18212022837005,106.92858356962533L144.40975699305534,101.70006113549094L144.63739375774065,101.35428669246237L144.86717803907396,100.21252080143509L145.10555238699914,96.1901337153812L145.33318915168445,72.23785086865841L145.56082591636977,59.52653369612761L145.78846268105508,78.18965322555877L146.0160994457404,91.77682656244305L146.24373621042568,100.84808945908749L146.48211055835088,83.11331098375275" fill="none"></path></g></g></g></g><g opacity="0.2"><g><g><g><path style="fill: none;" stroke="rgb(204, 51, 17)" stroke-width="2px" d="M147.54513129909833,123.83210755103669L148.85726397101084,146.93433401923963L150.1586590596835,-66.70012638692329L154.0628443257014,-64.45960174980054L155.36423941437403,132.6920767133534L156.66563450304668,-101.88481228152912L157.9670295917193,-40.288539594599165L159.26842468039195,131.88032592570602L160.5698197690646,-49.98518986677544L161.87121485773721,-40.53797794041845L163.17260994640986,121.95435626111782L164.47400503508248,133.25410925609359L165.77540012375513,132.85705068354005L167.07679521242778,133.04067896276868L168.3889278843403,-43.28857523269743L169.69032297301294,134.61001282577726L170.99171806168556,136.47963497752997L172.29526066700618,-31.514069951955854L173.5966557556788,-25.400880837460132L174.89805084435145,30.66279065690625L176.1994459330241,-12.408331939538717L177.5115786049366,-16.015806508626174L178.81297369360925,112.78242750067446L180.11651629892984,-47.879287039259864L181.42864897084237,121.89754157211205L182.730044059515,-57.19469545027448L184.03143914818764,-24.73539662664755L185.33283423686026,120.3624519147592L186.6342293255329,121.46118371985763L187.94636199744542,-33.09310617903868L189.24775708611804,-10.52565346050285L190.55988975803058,121.42578613692571L191.8612848467032,-12.137544049494382L193.16267993537585,5.1859123912236305L194.4640750240485,1.914519413212423L195.776207695961,20.487271652032835L197.07760278463365,23.239229832980776L198.37899787330628,28.822290074915315L199.68039296197892,96.87624009174813L200.9925256338914,111.91354834400893L202.30465830580394,117.56263581561959L203.6060533944766,6.5768178244390505L204.9074484831492,114.05019663858097L206.20884357182186,132.32216352648388L207.51023866049448,-21.519278892658424L208.822371332407,10.825888664937162L210.12376642107964,-14.285644077440322L211.42516150975226,112.52363666464085L212.7372941816648,-9.228639693752768L214.03868927033741,102.71866544543118L215.34008435901006,126.39191742103598L216.6414794476827,-23.38875385609768L217.94287453635533,11.560922973256867L219.24426962502798,21.624646421729377L220.5456647137006,53.37930411730996L221.84705980237325,100.48134517028073L223.1484548910459,23.671287856142865L224.44984997971852,41.38326353430904L225.75339258503917,25.75601486990177L227.06552525695164,87.08166374556306L228.3669203456243,117.06372051721024L229.66831543429691,6.256922121999987L230.96971052296956,103.65480724843684L232.2711056116422,117.79267667205993L233.57250070031483,130.6125543748763L234.87604330563545,-30.34590628258575L236.1774383943081,16.716702779909703L237.47883348298075,106.273229435205L238.79096615489323,21.451080032127603" fill="none"></path></g><g><path style="fill: none;" stroke="rgb(255, 112, 67)" stroke-width="2px" d="M6.863463206926982,120.59915485207716L7.48624303483963,106.76870873101754L7.85561589829127,102.51645765777884L8.083252662976584,-11.577166772050171L8.62227934161822,92.54246117037695L9.068962804396948,103.29674392726453L9.754020615100861,122.56649797936902L10.374652926365535,115.11453704971017L10.602289691050848,13.083409932882837L11.23151206890742,114.36359192599491L11.459148833592733,-95.75096854468188L11.686785598278046,148.37486363040853L12.015355645418166,130.82513049339838L12.352515759150188,119.06653844097552L12.580152523835501,131.99575293148067L13.613108031511306,-138.2786429326567L14.248772959311804,28.893722252496513L14.476409723997117,47.71591283713624L15.565200664520264,82.96173737907188L16.050539426962537,106.8782409654832L16.580976039012274,120.4044995139529L16.935316285928092,113.9837109535022L17.46575289797783,68.03104655008505L17.693389662663144,74.63028525663748L17.921026427348455,52.490527996168886L18.14866319203377,125.56065332369735L18.52018357213338,111.39619831256618L18.85090113592148,106.04941150762504L19.370600164731346,65.80498980030107L19.83446376069387,114.4432376940533L20.062100525379183,99.0436193758376L20.289737290064494,90.88571433961961L20.669847736756008,129.3684149935923L21.009155367136003,126.62176524362255L21.236792131821314,93.34666916018895L21.6190500951608,118.8195757543306L22.024930741628012,116.14167983722122L22.417926288207372,62.47287802359193L22.645563052892683,78.65543200093606L23.105131615559262,98.46686800174881L23.332768380244573,59.36229189744944L23.560405144929888,50.313752789248L24.202512622674305,56.13889678717385L24.73509675137202,111.9091616496824L25.113059681415557,103.39849689742394L25.340696446100868,93.27825796241899L25.568333210786182,107.3181747698784L25.795969975471497,89.11180561132703L26.034344323396684,114.37208058971369L26.261981088081995,68.37015877266518L26.48961785276731,80.973676893426L26.944891382137936,115.79598998607446L27.453852827707927,83.9625117421603L27.681489592393238,42.55639782541327L28.010059639533363,122.72236316458167L28.33862968667348,126.07864036685747L28.566266451358796,119.39051680942146L28.907721598386765,118.46995042549047L29.98147992237409,49.00474196848718L30.31864003610611,103.38506174120276L30.557014384031294,49.60124553166122L30.78465114871661,69.61673279342966L31.115368712504704,100.1809314095317L31.343005477190015,55.25467626498133L31.80257403985659,73.95982077239806L32.0302108045419,84.44601328734748L32.25784756922722,93.4461250274887L33.06531382886568,98.26290360602732L33.292950593551005,59.94707830570068L33.522734874884286,121.5775590044388L33.85774747196833,133.13455856461815L34.085384236653645,113.22117414686906L34.42469186703364,74.5250142444934L34.77688459730148,107.07724921700958L35.103307127793634,100.30454063778225L35.779774871905644,102.61909375781917L36.18780303502083,122.41674955439714L36.41543979970614,118.89567935117262L36.64307656439145,107.44369020743478L36.87071332907677,123.3993618447706L37.26370887565613,129.07805588370059L37.592278922796254,124.66424753948671L37.81991568748156,103.11392639022166L38.047552452166876,118.66856537053982L38.27518921685218,103.01082700893232L38.502825981537505,108.69325625293241L38.73046274622281,101.67782690599637L39.17499869235356,112.07291226782087L40.07266065120697,16.592234551009923L40.30029741589229,122.93316337164919L40.88012691084543,105.89478656492275L41.2817125240167,91.39596555109058L41.50934928870201,118.37765852708809L41.83577181919416,112.81839453347494L42.76564652776718,1.4046204885245355L43.15005200775464,92.73208315076461L43.66545600326856,72.94958775047576L43.893092767953874,46.327845001570985L44.12072953263918,85.53622506072591L45.091407057523725,110.2972421056128L45.43715723784765,116.59096130598441L45.84733291761081,111.85285850038908L46.332671680053075,79.10593923467057L46.56030844473839,111.48479119974603L46.886730975230535,97.31977880336215L47.21315350572268,122.57415659751665L47.440790270407994,90.4730803479914L47.79513051732381,99.0581789542569L48.02276728200912,75.34485797645938L48.250404046694435,73.50806364446052L48.656284693161645,119.14619144780342L48.88392145784696,102.07066527592225L49.21463902163506,113.10487607582937L49.45301336956024,111.62723088043019L49.68065013424555,104.27286786722873L49.90828689893086,107.59790012735151L50.443018544276555,59.76154381716624L50.67065530896187,36.85346356029829L51.1087487051487,125.15705331642478L51.336385469834006,45.67296800102211L51.56402223451932,93.06246541730879L51.80239658244451,131.70665095456152L52.13955669617653,114.4056395251886L52.53899479269982,96.3888247851761L52.867564839839936,110.97511426398995L53.09520160452525,68.0074192063857L53.32283836921056,105.84716028735559L53.66214599959056,77.37364377940074L54.046551479578014,108.41531645860653L54.28492582750321,77.26692018750718L54.512562592188516,122.07346538765277L55.08809705384572,89.72426824836008L55.31573381853104,122.1549546290145L55.69369674857458,128.6371424324976L55.92133351325989,129.20003397588695L56.40022972575823,104.8004969513838L56.726652256250375,119.25022704328346L57.117500286181766,118.23044849729308L57.34513705086708,125.97867778569163L57.57277381555239,10.84410140903873L58.017309761683144,120.78171903218697L58.348027325471236,114.86267130317994L58.58640167339643,51.15025534279283L59.29293465058009,77.47176771310961L59.5205714152654,80.62855166630146L59.887796762069065,114.96713157313823L60.42252840741475,89.43720760444438L60.753245971202844,93.71947544194163L61.10114366817474,131.89109480182228L61.43830378190676,135.81549476492413L62.12550910925866,92.60700203937918L62.469111772934596,97.20922831531794L63.31093829894066,65.78312871636356L63.53857506362597,35.71878161286159L64.12484710852304,112.62058791768816L64.35248387320837,63.88522951795926L64.58012063789367,95.77273311169249L64.80775740257899,75.81184547545801L65.14706503295899,121.9449772287486L65.47348756345113,101.3519133731666L65.70112432813644,21.974172820719485L65.92876109282176,37.61878488027181L66.15639785750706,113.64236918991121L66.38403462219239,141.85317506813968L66.78991526865958,119.92935392171L67.0175520333449,102.8843946605706L67.37833483020465,49.98019994165593L67.73267507712046,148.26099778592612L67.96031184180578,119.98605037748037L68.18794860649109,139.8130171582891L68.42632295441628,143.71164227606863L68.6539597191016,124.7346156179491L69.07057794880868,105.23036886615213L69.29821471349399,98.03446251764997L69.52585147817929,111.07006761665095L69.7534882428646,93.67295910903356L69.9918625907898,106.60028669361827L70.44284108686446,117.42556730191613L70.84872173333167,102.59129688287878L71.08709608125686,126.96045279172442L71.41996116169294,104.01197778803555L71.65833550961813,108.63517719218457L71.98905307340621,120.57121078882327L72.21668983809153,101.25349506283075L72.5495549185276,103.00879532762158L72.78792926645278,113.69360037469718L73.52452747670809,-29.13266920836435L73.75216424139342,132.15223099917898L73.9905385893186,50.60936483288494L74.2181753540039,80.77739041923752L74.54459788449606,115.49163833470885L74.77223464918137,64.58736120590682L75.10080469632149,130.6984375493341L75.43152226010959,104.22459010040515L75.65915902479489,47.79219981613931L75.8867957894802,122.07909473741285L76.21536583662034,135.3594257432784L76.96699666341146,65.11815604526342L77.19463342809676,81.85360723821886L77.60480910785992,118.87801675355423L77.83244587254524,104.44533878971046L78.06008263723055,99.77303157316676L78.40153778425854,101.80635367167132L78.62917454894384,126.91791295620366L78.85681131362915,116.52992882727413L79.41516564210255,48.16136740974874L79.64280240678787,97.56053062576258L80.09378090286255,144.57848733850022L80.32141766754786,109.52533833122631L80.65428274798393,121.97655998014572L80.88191951266926,129.0865059406486L81.10955627735456,81.347863367233L81.33719304203987,102.4405374430979L81.79461408805848,27.87605742720474L82.1553968849182,121.47616073398567L82.38303364960352,122.44047341502336L82.61067041428883,135.79738336359577L82.84904476221402,97.94782892408574L83.23774527549745,120.01887337138784L83.46538204018276,115.43920551418326L83.85408255346617,131.81351449599904L84.18265260060627,108.20773267812717L84.51122264774641,100.16935902999921L84.73885941243171,134.38940167309278L84.96649617711702,121.72701787863004L85.19413294180234,134.56217662389417L85.71168445396424,48.818483603001155L85.93932121864955,119.58121495354376L86.16695798333485,84.18184645848685L86.39459474802017,117.44581655317478L86.62223151270548,100.15072643726573L86.9508015598456,74.64720467391889L87.17843832453092,99.23920127645988L87.40607508921623,78.69880670787431L87.63371185390154,105.21918738017351L87.86134861858685,113.83577945967878L88.09113289992014,119.56602801509977L88.31876966460545,146.7668023504908L88.54640642929077,121.21272984669247L88.78478077721597,63.78141591141103L89.2980372560819,116.16380634270763L89.52567402076721,78.52788970791528L89.75331078545253,92.60180460286689L89.98309506678582,119.84069588560456L90.21073183147114,122.96508393229038L90.44910617939631,117.47070826861619L90.67674294408162,108.99507916081386L90.90437970876694,139.01138496396314L91.14275405669213,106.20347182630509L91.37039082137743,101.90608461221267L91.7032559018135,117.62230257981457L91.93089266649882,143.89706938952193L92.15852943118414,146.43928904959802L92.38616619586944,127.96989678776953L92.61380296055476,133.00597147586393L92.95096307428679,68.01291101952496L93.30315580455462,97.53996286864523L93.63172585169474,118.65259905791132L93.85936261638007,73.97916276454407L94.08699938106537,124.64661872279274L94.31463614575068,118.16936293427301L94.64750122618676,107.97120347127759L94.87513799087206,111.02349337358673L95.10277475555738,132.6866355716008L95.50006533543268,83.29673798056706L95.727702100118,75.21886478011496L96.05412463061016,101.54733602085955L96.28176139529546,33.07620606514263L96.50939815998078,118.30259007428683L96.73703492466609,116.99287709288298L96.97540927259128,95.48064393588653L97.20304603727658,116.55715625234596L97.53805863436064,130.29947035455157L97.76569539904595,104.15507378382246L97.99333216373125,92.89423641376327L98.22096892841657,132.51568479071733L98.66550487454732,36.84793314038827L99.03058270470301,125.2836038980219L99.25821946938832,115.70134066173316L99.48585623407364,103.40909445599497L99.71349299875895,83.42579076349347L99.95186734668414,133.5243759547328L100.17950411136945,115.7085601278635L100.40928839270273,120.60114551369398L100.63692515738805,132.69959055611073L100.86456192207338,120.93312513537796L101.09219868675868,117.03381474741761L101.31983545144399,86.11320324959284L101.55820979936918,87.02286563370997L101.7858465640545,133.04182268835214L102.0134833287398,89.05969129666013L102.24112009342511,135.9287260106123L102.46875685811042,132.13713092596916L102.84671978815398,67.46555387551638L103.07435655283929,79.93990339303856L103.30199331752459,42.95356497950955L103.5296300822099,118.56894783738754L103.7680044301351,89.8364064398514L104.00637877806028,115.08391705465864L104.23401554274558,123.41039372951258L104.4616523074309,85.13755224257034L104.68928907211621,51.87511676701976L104.91692583680154,112.67886001228976L105.14456260148684,128.86201963335003L105.37219936617215,115.4535479295171L105.59983613085747,52.93240179079429L105.92625866134962,118.66409663682546L106.15389542603492,112.20521284533663L106.38367970736822,122.0567486559178L106.61131647205353,108.44582063334582L106.83895323673885,111.53932808927753L107.06659000142415,98.67390163574497L107.29422676610946,139.82742954839495L107.53260111403465,132.28833434361368L107.76023787871998,122.234967161395L107.98787464340528,123.41967141910855L108.21551140809059,114.69045132470808L108.4431481727759,105.3907510435426L108.6815225207011,130.52324484951444L108.91989686862628,111.00234651490814L109.14753363331158,28.27392915486721L109.3751703979969,123.62920966735716L109.60280716268221,69.47681220453698L109.83044392736754,123.19346228466523L110.05808069205284,114.64067754551795L110.29645503997803,113.88596343580814L110.52409180466334,105.03541432555456L110.75172856934866,104.14435557909283L110.97936533403396,128.89604185007397L111.20700209871927,102.62256836718672L111.5355721458594,68.91170559767582L111.76535642719269,99.90903357482827L112.21848243991533,90.68511838464609L112.44826672124863,114.5379304510117L112.67590348593393,128.02711202202184L113.00232601642608,119.3829257531226L113.2299627811114,133.2050424633928L113.4683371290366,101.0708126494855L113.6959738937219,87.95568242858474L113.92361065840721,112.75091954989566L114.15339493974051,119.81739911237979L114.3917692876657,120.8798912243593L114.619406052351,112.19518473663419L114.85778040027618,148.77796898843087L115.09615474820137,116.20510593571804L115.32379151288669,96.71851695569309L115.55357579421998,108.22001928291853L115.78121255890528,92.22320247965528L116.0088493235906,116.70354830118568L116.23648608827591,129.04704016924887L116.46412285296122,116.43496582292046L116.69175961764653,142.8133713022461L116.91939638233184,121.49079752594646L117.14703314701717,107.70248586931471L117.37466991170248,114.4361581774669L117.61304425962766,106.1548031659277L117.84068102431297,65.89976942249368L118.07046530564627,84.22496056972253L118.30024958697955,110.01037932139718L118.52788635166486,141.12010970512827L118.75552311635018,127.25105801977966L118.98315988103549,148.82952471138347L119.22153422896068,151.50040867375526L119.45990857688587,147.50755166734317L119.68754534157117,83.91937832753923L120.07195082155863,97.24342426251026L120.29958758624394,117.53345874862487L120.64104273327192,139.30471196935628L120.86867949795723,117.53332845077358L121.09631626264253,119.11970237722221L121.33469061056773,114.62805313148252L121.56232737525305,107.89613260555313L121.78996413993836,135.0550017042176L122.01760090462366,110.12874285467203L122.24523766930898,115.97348461460012L122.47287443399429,18.819710099618995L122.7005111986796,44.81887041170771L123.08921171196302,128.10085578000172L123.31684847664833,112.07999661025359L123.54448524133365,111.72541272429517L123.77212200601896,97.03799280950024L124.00190628735226,95.19695173271879L124.40134438387554,117.73053666161374L124.62898114856084,93.49954714651479L124.85661791324615,132.9043729327875L125.08425467793147,109.13599387405336L125.31189144261678,110.25101532348535L125.5395282073021,106.62984500247417L125.7671649719874,85.08617628239406L125.99480173667271,146.41261900977892L126.22243850135804,133.63841070383722L126.45007526604336,99.27318971225938L126.67771203072866,130.03086857290097L126.90534879541397,137.78506984614998L127.13298556009929,112.95724378447927L127.3606223247846,66.21989676555722L127.5882590894699,110.48880890207703L127.81589585415522,69.16510113749705L128.04353261884054,112.20914108426052L128.27116938352586,95.12303907011689L128.50954373145103,143.67078786738347L128.73718049613635,100.87738307633255L128.96481726082166,87.45308983526141L129.19460154215494,112.91629165240563L129.42223830684026,123.00574651358339L129.64987507152557,111.98568509515634L129.87751183621089,111.02504729610946L130.1051486008962,130.99536222317656L130.33278536558151,121.99415019006896L130.56042213026683,144.23980823562945L130.798796478192,98.79585559869962L131.03717082611718,120.20036380068618L131.2648075908025,118.92995975067592L131.5031819387277,141.64010791975215L131.91335761849086,121.49988459461188L132.14099438317618,119.13733843268568L132.52539986316364,71.64922484636308L132.95490319275856,123.25875115985077L133.18253995744388,109.83479090217733L133.4101767221292,92.55359439789214L133.6378134868145,71.07157103900798L133.86545025149982,140.35201593643023L134.09308701618514,115.44998645491536L134.3314613641103,111.83242586696933L134.55909812879563,130.58789188713624L134.7888824101289,122.82416439320451L135.01651917481422,100.26710654769326L135.25489352273942,97.81206821474142L135.48253028742474,114.09123081004246L135.71016705211002,118.84302454171521L135.93780381679534,125.00397505747569L136.16544058148065,108.57568415845796L136.39307734616597,119.27426940976835L136.62071411085128,111.75673729291289L136.8483508755366,95.7540570863419L137.0759876402219,113.26064474411515L137.30362440490725,109.13952156773068L137.53126116959254,120.34622500642811L137.75889793427785,114.84209872021624L137.98653469896317,133.5509953231653L138.21417146364848,110.98675420537124L138.4418082283338,110.70845729841591L138.6694449930191,105.13027598713498L138.89708175770443,113.67185511107195L139.12471852238974,113.1583030207018L139.35235528707503,65.63755223555594L139.57999205176034,37.54634892665109L139.80977633309365,117.59207347831689L140.03956061442693,87.02944808812295L140.26719737911225,97.93631928055572L140.49483414379756,111.42205519727638L140.72461842513084,122.53394764577996L140.96299277305604,85.4368415811213L141.20136712098122,109.74592294175591L141.4397414689064,106.64137394938953L141.6673782335917,108.63297660625177L141.9057525815169,128.09891820269468L142.13338934620222,111.0943271462213L142.36102611088754,99.62744544066643L142.58866287557282,53.105418033912876L142.81629964025814,116.30655005171144L143.04393640494345,105.72445349237131L143.27157316962877,128.06269057419163L143.4992099343141,102.56630382466416L143.72684669899942,136.7684208615136L143.95448346368474,111.57799759603053L144.18212022837005,92.72045768692234L144.40975699305534,93.85727748428937L144.63739375774065,100.8356250279195L144.86717803907396,98.4998719648942L145.10555238699914,90.15655308630035L145.33318915168445,36.30942659857425L145.56082591636977,40.4595579373314L145.78846268105508,106.18433251970552L146.0160994457404,112.1575865677695L146.24373621042568,114.45498380405415L146.48211055835088,56.51114327075064" fill="none"></path></g></g></g></g></g></g><g transform="translate(72, 177)" clip-path="url(#clip_1)"><clipPath id="clip_1"><rect width="257" height="22"></rect></clipPath><g><g><line x1="0" y1="0" x2="0" y2="5" style="visibility: inherit;" fill="rgb(0, 0, 0)" stroke="rgb(204, 204, 204)" stroke-width="1px"></line><line x1="21.4751664797465" y1="0" x2="21.4751664797465" y2="5" style="visibility: inherit;" fill="rgb(0, 0, 0)" stroke="rgb(204, 204, 204)" stroke-width="1px"></line><line x1="42.950332959493" y1="0" x2="42.950332959493" y2="5" style="visibility: inherit;" fill="rgb(0, 0, 0)" stroke="rgb(204, 204, 204)" stroke-width="1px"></line><line x1="64.4254994392395" y1="0" x2="64.4254994392395" y2="5" style="visibility: inherit;" fill="rgb(0, 0, 0)" stroke="rgb(204, 204, 204)" stroke-width="1px"></line><line x1="85.900665918986" y1="0" x2="85.900665918986" y2="5" style="visibility: inherit;" fill="rgb(0, 0, 0)" stroke="rgb(204, 204, 204)" stroke-width="1px"></line><line x1="107.37583239873251" y1="0" x2="107.37583239873251" y2="5" style="visibility: inherit;" fill="rgb(0, 0, 0)" stroke="rgb(204, 204, 204)" stroke-width="1px"></line><line x1="128.850998878479" y1="0" x2="128.850998878479" y2="5" style="visibility: inherit;" fill="rgb(0, 0, 0)" stroke="rgb(204, 204, 204)" stroke-width="1px"></line><line x1="150.32616535822552" y1="0" x2="150.32616535822552" y2="5" style="visibility: inherit;" fill="rgb(0, 0, 0)" stroke="rgb(204, 204, 204)" stroke-width="1px"></line><line x1="171.801331837972" y1="0" x2="171.801331837972" y2="5" style="visibility: inherit;" fill="rgb(0, 0, 0)" stroke="rgb(204, 204, 204)" stroke-width="1px"></line><line x1="193.2764983177185" y1="0" x2="193.2764983177185" y2="5" style="visibility: inherit;" fill="rgb(0, 0, 0)" stroke="rgb(204, 204, 204)" stroke-width="1px"></line><line x1="214.75166479746503" y1="0" x2="214.75166479746503" y2="5" style="visibility: inherit;" fill="rgb(0, 0, 0)" stroke="rgb(204, 204, 204)" stroke-width="1px"></line><line x1="236.2268312772115" y1="0" x2="236.2268312772115" y2="5" style="visibility: inherit;" fill="rgb(0, 0, 0)" stroke="rgb(204, 204, 204)" stroke-width="1px"></line><line x1="257.701997756958" y1="0" x2="257.701997756958" y2="5" style="visibility: inherit;" fill="rgb(0, 0, 0)" stroke="rgb(204, 204, 204)" stroke-width="1px"></line></g><g transform="translate(0, 8)"><text style="text-anchor: middle; visibility: hidden; font-family: Roboto, sans-serif; font-size: 12px; font-weight: 200;" x="0" y="0" dx="0em" dy="0.95em" fill="rgb(50, 49, 63)" stroke="none" stroke-width="1px">20k</text><text style="text-anchor: middle; visibility: inherit; font-family: Roboto, sans-serif; font-size: 12px; font-weight: 200;" x="21.4751664797465" y="0" dx="0em" dy="0.95em" fill="rgb(50, 49, 63)" stroke="none" stroke-width="1px">30k</text><text style="text-anchor: middle; visibility: hidden; font-family: Roboto, sans-serif; font-size: 12px; font-weight: 200;" x="42.950332959493" y="0" dx="0em" dy="0.95em" fill="rgb(50, 49, 63)" stroke="none" stroke-width="1px">40k</text><text style="text-anchor: middle; visibility: inherit; font-family: Roboto, sans-serif; font-size: 12px; font-weight: 200;" x="64.4254994392395" y="0" dx="0em" dy="0.95em" fill="rgb(50, 49, 63)" stroke="none" stroke-width="1px">50k</text><text style="text-anchor: middle; visibility: hidden; font-family: Roboto, sans-serif; font-size: 12px; font-weight: 200;" x="85.900665918986" y="0" dx="0em" dy="0.95em" fill="rgb(50, 49, 63)" stroke="none" stroke-width="1px">60k</text><text style="text-anchor: middle; visibility: inherit; font-family: Roboto, sans-serif; font-size: 12px; font-weight: 200;" x="107.37583239873251" y="0" dx="0em" dy="0.95em" fill="rgb(50, 49, 63)" stroke="none" stroke-width="1px">70k</text><text style="text-anchor: middle; visibility: hidden; font-family: Roboto, sans-serif; font-size: 12px; font-weight: 200;" x="128.850998878479" y="0" dx="0em" dy="0.95em" fill="rgb(50, 49, 63)" stroke="none" stroke-width="1px">80k</text><text style="text-anchor: middle; visibility: inherit; font-family: Roboto, sans-serif; font-size: 12px; font-weight: 200;" x="150.32616535822552" y="0" dx="0em" dy="0.95em" fill="rgb(50, 49, 63)" stroke="none" stroke-width="1px">90k</text><text style="text-anchor: middle; visibility: hidden; font-family: Roboto, sans-serif; font-size: 12px; font-weight: 200;" x="171.801331837972" y="0" dx="0em" dy="0.95em" fill="rgb(50, 49, 63)" stroke="none" stroke-width="1px">100k</text><text style="text-anchor: middle; visibility: inherit; font-family: Roboto, sans-serif; font-size: 12px; font-weight: 200;" x="193.2764983177185" y="0" dx="0em" dy="0.95em" fill="rgb(50, 49, 63)" stroke="none" stroke-width="1px">110k</text><text style="text-anchor: middle; visibility: hidden; font-family: Roboto, sans-serif; font-size: 12px; font-weight: 200;" x="214.75166479746503" y="0" dx="0em" dy="0.95em" fill="rgb(50, 49, 63)" stroke="none" stroke-width="1px">120k</text><text style="text-anchor: middle; visibility: inherit; font-family: Roboto, sans-serif; font-size: 12px; font-weight: 200;" x="236.2268312772115" y="0" dx="0em" dy="0.95em" fill="rgb(50, 49, 63)" stroke="none" stroke-width="1px">130k</text><text style="text-anchor: middle; visibility: hidden; font-family: Roboto, sans-serif; font-size: 12px; font-weight: 200;" x="257.701997756958" y="0" dx="0em" dy="0.95em" fill="rgb(50, 49, 63)" stroke="none" stroke-width="1px">140k</text></g><line x1="0" y1="0" x2="257.701997756958" y2="0" fill="rgb(0, 0, 0)" stroke="rgb(204, 204, 204)" stroke-width="1px"></line></g></g></g></g></svg>