<svg viewBox="0 0 330 200" xmlns="http://www.w3.org/2000/svg"><g><g><g><g><g><line x1="51.53200149536133" y1="177.89999961853027" x2="46.53200149536133" y2="177.89999961853027" style="visibility: inherit;" fill="rgb(0, 0, 0)" stroke="rgb(204, 204, 204)" stroke-width="1px"></line><line x1="51.53200149536133" y1="158.13333299424912" x2="46.53200149536133" y2="158.13333299424912" style="visibility: inherit;" fill="rgb(0, 0, 0)" stroke="rgb(204, 204, 204)" stroke-width="1px"></line><line x1="51.53200149536133" y1="138.36666636996804" x2="46.53200149536133" y2="138.36666636996804" style="visibility: inherit;" fill="rgb(0, 0, 0)" stroke="rgb(204, 204, 204)" stroke-width="1px"></line><line x1="51.53200149536133" y1="118.59999974568689" x2="46.53200149536133" y2="118.59999974568689" style="visibility: inherit;" fill="rgb(0, 0, 0)" stroke="rgb(204, 204, 204)" stroke-width="1px"></line><line x1="51.53200149536133" y1="98.83333312140572" x2="46.53200149536133" y2="98.83333312140572" style="visibility: inherit;" fill="rgb(0, 0, 0)" stroke="rgb(204, 204, 204)" stroke-width="1px"></line><line x1="51.53200149536133" y1="79.06666649712456" x2="46.53200149536133" y2="79.06666649712456" style="visibility: inherit;" fill="rgb(0, 0, 0)" stroke="rgb(204, 204, 204)" stroke-width="1px"></line><line x1="51.53200149536133" y1="59.299999872843394" x2="46.53200149536133" y2="59.299999872843394" style="visibility: inherit;" fill="rgb(0, 0, 0)" stroke="rgb(204, 204, 204)" stroke-width="1px"></line><line x1="51.53200149536133" y1="39.53333324856232" x2="46.53200149536133" y2="39.53333324856232" style="visibility: inherit;" fill="rgb(0, 0, 0)" stroke="rgb(204, 204, 204)" stroke-width="1px"></line><line x1="51.53200149536133" y1="19.76666662428117" x2="46.53200149536133" y2="19.76666662428117" style="visibility: inherit;" fill="rgb(0, 0, 0)" stroke="rgb(204, 204, 204)" stroke-width="1px"></line><line x1="51.53200149536133" y1="0" x2="46.53200149536133" y2="0" style="visibility: inherit;" fill="rgb(0, 0, 0)" stroke="rgb(204, 204, 204)" stroke-width="1px"></line></g><g transform="translate(41.53200149536133, 0)"><text style="text-anchor: end; visibility: hidden; font-family: Roboto, sans-serif; font-size: 12px; font-weight: 200;" x="0" y="177.89999961853027" dx="0em" dy="0.3em" fill="rgb(50, 49, 63)" stroke="none" stroke-width="1px">-5.8</text><text style="text-anchor: end; visibility: inherit; font-family: Roboto, sans-serif; font-size: 12px; font-weight: 200;" x="0" y="158.13333299424912" dx="0em" dy="0.3em" fill="rgb(50, 49, 63)" stroke="none" stroke-width="1px">-5.6</text><text style="text-anchor: end; visibility: hidden; font-family: Roboto, sans-serif; font-size: 12px; font-weight: 200;" x="0" y="138.36666636996804" dx="0em" dy="0.3em" fill="rgb(50, 49, 63)" stroke="none" stroke-width="1px">-5.4</text><text style="text-anchor: end; visibility: inherit; font-family: Roboto, sans-serif; font-size: 12px; font-weight: 200;" x="0" y="118.59999974568689" dx="0em" dy="0.3em" fill="rgb(50, 49, 63)" stroke="none" stroke-width="1px">-5.2</text><text style="text-anchor: end; visibility: hidden; font-family: Roboto, sans-serif; font-size: 12px; font-weight: 200;" x="0" y="98.83333312140572" dx="0em" dy="0.3em" fill="rgb(50, 49, 63)" stroke="none" stroke-width="1px">-5</text><text style="text-anchor: end; visibility: inherit; font-family: Roboto, sans-serif; font-size: 12px; font-weight: 200;" x="0" y="79.06666649712456" dx="0em" dy="0.3em" fill="rgb(50, 49, 63)" stroke="none" stroke-width="1px">-4.8</text><text style="text-anchor: end; visibility: hidden; font-family: Roboto, sans-serif; font-size: 12px; font-weight: 200;" x="0" y="59.299999872843394" dx="0em" dy="0.3em" fill="rgb(50, 49, 63)" stroke="none" stroke-width="1px">-4.6</text><text style="text-anchor: end; visibility: inherit; font-family: Roboto, sans-serif; font-size: 12px; font-weight: 200;" x="0" y="39.53333324856232" dx="0em" dy="0.3em" fill="rgb(50, 49, 63)" stroke="none" stroke-width="1px">-4.4</text><text style="text-anchor: end; visibility: hidden; font-family: Roboto, sans-serif; font-size: 12px; font-weight: 200;" x="0" y="19.76666662428117" dx="0em" dy="0.3em" fill="rgb(50, 49, 63)" stroke="none" stroke-width="1px">-4.2</text><text style="text-anchor: end; visibility: hidden; font-family: Roboto, sans-serif; font-size: 12px; font-weight: 200;" x="0" y="0" dx="0em" dy="0.3em" fill="rgb(50, 49, 63)" stroke="none" stroke-width="1px">-4</text></g><line x1="51.53200149536133" y1="0" x2="51.53200149536133" y2="177.89999961853027" fill="rgb(0, 0, 0)" stroke="rgb(204, 204, 204)" stroke-width="1px"></line></g></g><g transform="translate(51, 0)" clip-path="url(#clip_0)"><clipPath id="clip_0"><rect width="278" height="177"></rect></clipPath><g><g><g><line x1="0" y1="0" x2="0" y2="177.89999961853027" fill="rgb(0, 0, 0)" stroke="rgb(60, 60, 60)" stroke-width="1px" opacity="0.25"></line><line x1="27.846799850463867" y1="0" x2="27.846799850463867" y2="177.89999961853027" fill="rgb(0, 0, 0)" stroke="rgb(60, 60, 60)" stroke-width="1px" opacity="0.25"></line><line x1="55.693599700927734" y1="0" x2="55.693599700927734" y2="177.89999961853027" fill="rgb(0, 0, 0)" stroke="rgb(60, 60, 60)" stroke-width="1px" opacity="0.25"></line><line x1="83.5403995513916" y1="0" x2="83.5403995513916" y2="177.89999961853027" fill="rgb(0, 0, 0)" stroke="rgb(60, 60, 60)" stroke-width="1px" opacity="0.25"></line><line x1="111.38719940185547" y1="0" x2="111.38719940185547" y2="177.89999961853027" fill="rgb(0, 0, 0)" stroke="rgb(60, 60, 60)" stroke-width="1px" opacity="0.25"></line><line x1="139.23399925231934" y1="0" x2="139.23399925231934" y2="177.89999961853027" fill="rgb(0, 0, 0)" stroke="rgb(60, 60, 60)" stroke-width="1px" opacity="0.25"></line><line x1="167.0807991027832" y1="0" x2="167.0807991027832" y2="177.89999961853027" fill="rgb(0, 0, 0)" stroke="rgb(60, 60, 60)" stroke-width="1px" opacity="0.25"></line><line x1="194.92759895324707" y1="0" x2="194.92759895324707" y2="177.89999961853027" fill="rgb(0, 0, 0)" stroke="rgb(60, 60, 60)" stroke-width="1px" opacity="0.25"></line><line x1="222.77439880371094" y1="0" x2="222.77439880371094" y2="177.89999961853027" fill="rgb(0, 0, 0)" stroke="rgb(60, 60, 60)" stroke-width="1px" opacity="0.25"></line><line x1="250.6211986541748" y1="0" x2="250.6211986541748" y2="177.89999961853027" fill="rgb(0, 0, 0)" stroke="rgb(60, 60, 60)" stroke-width="1px" opacity="0.25"></line><line x1="278.4679985046387" y1="0" x2="278.4679985046387" y2="177.89999961853027" fill="rgb(0, 0, 0)" stroke="rgb(60, 60, 60)" stroke-width="1px" opacity="0.25"></line></g><g><line x1="0" y1="177.89999961853027" x2="278.4679985046387" y2="177.89999961853027" fill="rgb(0, 0, 0)" stroke="rgb(60, 60, 60)" stroke-width="1px" opacity="0.25"></line><line x1="0" y1="158.13333299424912" x2="278.4679985046387" y2="158.13333299424912" fill="rgb(0, 0, 0)" stroke="rgb(60, 60, 60)" stroke-width="1px" opacity="0.25"></line><line x1="0" y1="138.36666636996804" x2="278.4679985046387" y2="138.36666636996804" fill="rgb(0, 0, 0)" stroke="rgb(60, 60, 60)" stroke-width="1px" opacity="0.25"></line><line x1="0" y1="118.59999974568689" x2="278.4679985046387" y2="118.59999974568689" fill="rgb(0, 0, 0)" stroke="rgb(60, 60, 60)" stroke-width="1px" opacity="0.25"></line><line x1="0" y1="98.83333312140572" x2="278.4679985046387" y2="98.83333312140572" fill="rgb(0, 0, 0)" stroke="rgb(60, 60, 60)" stroke-width="1px" opacity="0.25"></line><line x1="0" y1="79.06666649712456" x2="278.4679985046387" y2="79.06666649712456" fill="rgb(0, 0, 0)" stroke="rgb(60, 60, 60)" stroke-width="1px" opacity="0.25"></line><line x1="0" y1="59.299999872843394" x2="278.4679985046387" y2="59.299999872843394" fill="rgb(0, 0, 0)" stroke="rgb(60, 60, 60)" stroke-width="1px" opacity="0.25"></line><line x1="0" y1="39.53333324856232" x2="278.4679985046387" y2="39.53333324856232" fill="rgb(0, 0, 0)" stroke="rgb(60, 60, 60)" stroke-width="1px" opacity="0.25"></line><line x1="0" y1="19.76666662428117" x2="278.4679985046387" y2="19.76666662428117" fill="rgb(0, 0, 0)" stroke="rgb(60, 60, 60)" stroke-width="1px" opacity="0.25"></line><line x1="0" y1="0" x2="278.4679985046387" y2="0" fill="rgb(0, 0, 0)" stroke="rgb(60, 60, 60)" stroke-width="1px" opacity="0.25"></line></g></g></g><g><g><line x1="0" y1="-395.33333248562286" x2="278.4679985046387" y2="-395.33333248562286" fill="rgb(0, 0, 0)" stroke="rgb(153, 153, 153)" stroke-width="1.5px"></line></g></g><g><g><line x1="-473.39559745788574" y1="0" x2="-473.39559745788574" y2="177.89999961853027" fill="rgb(0, 0, 0)" stroke="rgb(153, 153, 153)" stroke-width="1.5px"></line></g></g><g><g><g><g><g><path style="fill: none;" stroke="rgb(204, 51, 17)" stroke-width="2px" d="M20.634478689193724,27.912619848797885L24.037357630920408,61.965322113282355L27.41238977279663,51.0526377043817L30.78742191467285,48.51449779697326L34.16245405654907,47.80280748845434L37.53748619842529,54.16320783255688L40.91251834030151,51.557734588438635L44.28755048217773,47.87242640600025L47.662582624053954,48.17003503464154L51.03761476593017,46.58569037754124L54.41264690780639,41.639892586149855L57.78767904968262,36.310660959221934L61.16271119155884,30.925718408621186L64.53774333343506,38.92762153388592L67.91277547531128,36.3150229152793L71.2878076171875,39.991918138057514L74.6906865589142,51.292239079937545L78.0657187007904,54.485748353411324L81.44075084266663,58.92168342474543L84.82135234451293,57.44492658578802L88.19638448638916,57.79863006661424L91.57141662826538,62.56015324218997L94.9464487701416,64.03870919405516L98.34932771186828,73.65240180274547L101.72435985374452,70.65103907586268L105.10496135559082,78.66820182346004L108.5078402973175,81.84891761729429L111.88287243919373,78.84538445419433L115.25790458106994,77.3346074661769L118.63293672294617,77.7499525459933L122.00796886482237,76.90721740017679L125.41084780654907,77.25871085637897L128.7858799484253,76.94193075084232L132.18875889015197,75.49239216922868L135.56379103202818,75.67570266889611L138.9388231739044,77.4610682566434L142.31385531578061,81.04331119266335L145.7167342575073,81.25372235656L149.09176639938354,84.20510622478987L152.46679854125978,84.91572071952022L155.84183068313598,83.47194199928471L159.24470962486268,87.14279977559787L162.64758856658938,83.55607081645566L166.02262070846555,90.36253854584226L169.39765285034179,101.97933911465611L172.77268499221802,108.34517071019346L176.14771713409425,115.52736087187749L179.55059607582092,121.66787629565103L182.92562821769715,121.04430709653268L186.30066035957336,120.57841794364695L189.70353930130003,122.35009535959806L193.07857144317626,120.22125687581283L196.4536035850525,122.77424310941093L199.82863572692872,124.16961043554242L203.20366786880493,121.23139780759577L206.57870001068116,126.39197625337984L209.95373215255736,129.6956462040104L213.3287642944336,134.95987611128012L216.7037964363098,136.91606197946393L220.07882857818603,134.58128895360642L223.45943008003235,133.37532523711045L226.86230902175902,128.4061898352761L230.23734116363525,126.03414135374312L233.61237330551148,134.88214182781067L236.9874054473877,133.72860603093426L240.36243758926392,144.36025759472972L243.73746973114012,144.97502013782517L247.11807123298644,153.59409556057295L250.49310337486267,157.44725532001883L253.8681355167389,159.49857432408243L257.2710144584656,161.74980601669074" fill="none"></path></g></g></g></g><g opacity="0.2"><g><g><g><path style="fill: none;" stroke="rgb(204, 51, 17)" stroke-width="2px" d="M20.634478689193724,27.912619848797885L24.037357630920408,82.39694347197303L27.41238977279663,40.57646067183718L30.78742191467285,45.52964526586088L34.16245405654907,46.873624621652105L37.53748619842529,62.961931252574594L40.91251834030151,47.831866161777725L44.28755048217773,42.49921169704673L47.662582624053954,48.60894995438734L51.03761476593017,44.233123207610944L54.41264690780639,34.266053921020216L57.78767904968262,28.345814962004738L61.16271119155884,22.865887354457005L64.53774333343506,50.91479966054319L67.91277547531128,32.39919599897248L71.2878076171875,45.50466774083918L74.6906865589142,68.23793857565256L78.0657187007904,59.27520143196339L81.44075084266663,65.57491026168616L84.82135234451293,55.22992630877627L88.19638448638916,58.32916588991441L91.57141662826538,69.70228132560503L94.9464487701416,66.25651393034484L98.34932771186828,88.072826832427L101.72435985374452,66.14901631794005L105.10496135559082,90.69391175531919L108.5078402973175,86.61998316946566L111.88287243919373,74.34008932067528L115.25790458106994,75.06844337578968L118.63293672294617,78.37296993616292L122.00796886482237,75.643114960912L125.41084780654907,77.78595097074685L128.7858799484253,76.46676063035457L132.18875889015197,73.31808440063571L135.56379103202818,75.95066841051903L138.9388231739044,80.13911659222686L142.31385531578061,86.41667554127L145.7167342575073,81.56933910045154L149.09176639938354,88.63218201069635L152.46679854125978,85.98164245924082L155.84183068313598,81.3062739218266L159.24470962486268,92.64908643565127L162.64758856658938,78.17597738033128L166.02262070846555,100.57224013697427L169.39765285034179,119.4045399648581L172.77268499221802,117.8939181025069L176.14771713409425,126.3006461137315L179.55059607582092,130.87864943096673L182.92562821769715,120.10895329787623L186.30066035957336,119.87958421432775L189.70353930130003,125.00761148350348L193.07857144317626,117.02799915015021L196.4536035850525,126.60372245979693L199.82863572692872,126.26266142473624L203.20366786880493,116.82407886568046L206.57870001068116,134.1328439220509L209.95373215255736,134.6511511299544L213.3287642944336,142.85622097218294L216.7037964363098,139.85034078173916L220.07882857818603,131.07912941482027L223.45943008003235,131.5663796623666L226.86230902175902,120.95248673252476L230.23734116363525,122.47606863144384L233.61237330551148,148.15414253891203L236.9874054473877,131.99830233561948L240.36243758926392,160.3077349404228L243.73746973114012,145.89716395246847L247.11807123298644,166.52270869469453L250.49310337486267,163.22699495918744L253.8681355167389,162.57555283017763L257.2710144584656,165.12665355560333" fill="none"></path></g></g></g></g></g></g><g transform="translate(51, 177)" clip-path="url(#clip_1)"><clipPath id="clip_1"><rect width="278" height="22"></rect></clipPath><g><g><line x1="0" y1="0" x2="0" y2="5" style="visibility: inherit;" fill="rgb(0, 0, 0)" stroke="rgb(204, 204, 204)" stroke-width="1px"></line><line x1="27.846799850463867" y1="0" x2="27.846799850463867" y2="5" style="visibility: inherit;" fill="rgb(0, 0, 0)" stroke="rgb(204, 204, 204)" stroke-width="1px"></line><line x1="55.693599700927734" y1="0" x2="55.693599700927734" y2="5" style="visibility: inherit;" fill="rgb(0, 0, 0)" stroke="rgb(204, 204, 204)" stroke-width="1px"></line><line x1="83.5403995513916" y1="0" x2="83.5403995513916" y2="5" style="visibility: inherit;" fill="rgb(0, 0, 0)" stroke="rgb(204, 204, 204)" stroke-width="1px"></line><line x1="111.38719940185547" y1="0" x2="111.38719940185547" y2="5" style="visibility: inherit;" fill="rgb(0, 0, 0)" stroke="rgb(204, 204, 204)" stroke-width="1px"></line><line x1="139.23399925231934" y1="0" x2="139.23399925231934" y2="5" style="visibility: inherit;" fill="rgb(0, 0, 0)" stroke="rgb(204, 204, 204)" stroke-width="1px"></line><line x1="167.0807991027832" y1="0" x2="167.0807991027832" y2="5" style="visibility: inherit;" fill="rgb(0, 0, 0)" stroke="rgb(204, 204, 204)" stroke-width="1px"></line><line x1="194.92759895324707" y1="0" x2="194.92759895324707" y2="5" style="visibility: inherit;" fill="rgb(0, 0, 0)" stroke="rgb(204, 204, 204)" stroke-width="1px"></line><line x1="222.77439880371094" y1="0" x2="222.77439880371094" y2="5" style="visibility: inherit;" fill="rgb(0, 0, 0)" stroke="rgb(204, 204, 204)" stroke-width="1px"></line><line x1="250.6211986541748" y1="0" x2="250.6211986541748" y2="5" style="visibility: inherit;" fill="rgb(0, 0, 0)" stroke="rgb(204, 204, 204)" stroke-width="1px"></line><line x1="278.4679985046387" y1="0" x2="278.4679985046387" y2="5" style="visibility: inherit;" fill="rgb(0, 0, 0)" stroke="rgb(204, 204, 204)" stroke-width="1px"></line></g><g transform="translate(0, 8)"><text style="text-anchor: middle; visibility: hidden; font-family: Roboto, sans-serif; font-size: 12px; font-weight: 200;" x="0" y="0" dx="0em" dy="0.95em" fill="rgb(50, 49, 63)" stroke="none" stroke-width="1px">85k</text><text style="text-anchor: middle; visibility: inherit; font-family: Roboto, sans-serif; font-size: 12px; font-weight: 200;" x="27.846799850463867" y="0" dx="0em" dy="0.95em" fill="rgb(50, 49, 63)" stroke="none" stroke-width="1px">90k</text><text style="text-anchor: middle; visibility: hidden; font-family: Roboto, sans-serif; font-size: 12px; font-weight: 200;" x="55.693599700927734" y="0" dx="0em" dy="0.95em" fill="rgb(50, 49, 63)" stroke="none" stroke-width="1px">95k</text><text style="text-anchor: middle; visibility: inherit; font-family: Roboto, sans-serif; font-size: 12px; font-weight: 200;" x="83.5403995513916" y="0" dx="0em" dy="0.95em" fill="rgb(50, 49, 63)" stroke="none" stroke-width="1px">100k</text><text style="text-anchor: middle; visibility: hidden; font-family: Roboto, sans-serif; font-size: 12px; font-weight: 200;" x="111.38719940185547" y="0" dx="0em" dy="0.95em" fill="rgb(50, 49, 63)" stroke="none" stroke-width="1px">105k</text><text style="text-anchor: middle; visibility: inherit; font-family: Roboto, sans-serif; font-size: 12px; font-weight: 200;" x="139.23399925231934" y="0" dx="0em" dy="0.95em" fill="rgb(50, 49, 63)" stroke="none" stroke-width="1px">110k</text><text style="text-anchor: middle; visibility: hidden; font-family: Roboto, sans-serif; font-size: 12px; font-weight: 200;" x="167.0807991027832" y="0" dx="0em" dy="0.95em" fill="rgb(50, 49, 63)" stroke="none" stroke-width="1px">115k</text><text style="text-anchor: middle; visibility: inherit; font-family: Roboto, sans-serif; font-size: 12px; font-weight: 200;" x="194.92759895324707" y="0" dx="0em" dy="0.95em" fill="rgb(50, 49, 63)" stroke="none" stroke-width="1px">120k</text><text style="text-anchor: middle; visibility: hidden; font-family: Roboto, sans-serif; font-size: 12px; font-weight: 200;" x="222.77439880371094" y="0" dx="0em" dy="0.95em" fill="rgb(50, 49, 63)" stroke="none" stroke-width="1px">125k</text><text style="text-anchor: middle; visibility: inherit; font-family: Roboto, sans-serif; font-size: 12px; font-weight: 200;" x="250.6211986541748" y="0" dx="0em" dy="0.95em" fill="rgb(50, 49, 63)" stroke="none" stroke-width="1px">130k</text><text style="text-anchor: middle; visibility: hidden; font-family: Roboto, sans-serif; font-size: 12px; font-weight: 200;" x="278.4679985046387" y="0" dx="0em" dy="0.95em" fill="rgb(50, 49, 63)" stroke="none" stroke-width="1px">135k</text></g><line x1="0" y1="0" x2="278.4679985046387" y2="0" fill="rgb(0, 0, 0)" stroke="rgb(204, 204, 204)" stroke-width="1px"></line></g></g></g></g></svg>